<?xml version="1.0" encoding="utf-8"?>
<svg xmlns="http://www.w3.org/2000/svg" xmlns:xlink="http://www.w3.org/1999/xlink" width="600" height="400" viewBox="0 0 2400 1600">
<defs>
  <clipPath id="clip070">
    <rect x="0" y="0" width="2400" height="1600"/>
  </clipPath>
</defs>
<path clip-path="url(#clip070)" d="
M0 1600 L2400 1600 L2400 0 L0 0  Z
  " fill="#ffffff" fill-rule="evenodd" fill-opacity="1"/>
<defs>
  <clipPath id="clip071">
    <rect x="480" y="0" width="1681" height="1600"/>
  </clipPath>
</defs>
<path clip-path="url(#clip070)" d="
M205.121 1140.87 L2352.76 1140.87 L2352.76 47.2441 L205.121 47.2441  Z
  " fill="#ffffff" fill-rule="evenodd" fill-opacity="1"/>
<defs>
  <clipPath id="clip072">
    <rect x="205" y="47" width="2149" height="1095"/>
  </clipPath>
</defs>
<polyline clip-path="url(#clip072)" style="stroke:#000000; stroke-width:2; stroke-opacity:0.1; fill:none" points="
  265.903,1140.87 265.903,47.2441 
  "/>
<polyline clip-path="url(#clip072)" style="stroke:#000000; stroke-width:2; stroke-opacity:0.1; fill:none" points="
  794.084,1140.87 794.084,47.2441 
  "/>
<polyline clip-path="url(#clip072)" style="stroke:#000000; stroke-width:2; stroke-opacity:0.1; fill:none" points="
  1322.27,1140.87 1322.27,47.2441 
  "/>
<polyline clip-path="url(#clip072)" style="stroke:#000000; stroke-width:2; stroke-opacity:0.1; fill:none" points="
  1850.45,1140.87 1850.45,47.2441 
  "/>
<polyline clip-path="url(#clip070)" style="stroke:#000000; stroke-width:4; stroke-opacity:1; fill:none" points="
  205.121,1140.87 2352.76,1140.87 
  "/>
<polyline clip-path="url(#clip070)" style="stroke:#000000; stroke-width:4; stroke-opacity:1; fill:none" points="
  265.903,1140.87 265.903,1127.75 
  "/>
<polyline clip-path="url(#clip070)" style="stroke:#000000; stroke-width:4; stroke-opacity:1; fill:none" points="
  794.084,1140.87 794.084,1127.75 
  "/>
<polyline clip-path="url(#clip070)" style="stroke:#000000; stroke-width:4; stroke-opacity:1; fill:none" points="
  1322.27,1140.87 1322.27,1127.75 
  "/>
<polyline clip-path="url(#clip070)" style="stroke:#000000; stroke-width:4; stroke-opacity:1; fill:none" points="
  1850.45,1140.87 1850.45,1127.75 
  "/>
<path clip-path="url(#clip070)" d="M 0 0 M182.964 1170.06 Q179.353 1170.06 177.524 1173.63 Q175.718 1177.17 175.718 1184.3 Q175.718 1191.4 177.524 1194.97 Q179.353 1198.51 182.964 1198.51 Q186.598 1198.51 188.404 1194.97 Q190.232 1191.4 190.232 1184.3 Q190.232 1177.17 188.404 1173.63 Q186.598 1170.06 182.964 1170.06 M182.964 1166.36 Q188.774 1166.36 191.829 1170.96 Q194.908 1175.55 194.908 1184.3 Q194.908 1193.02 191.829 1197.63 Q188.774 1202.21 182.964 1202.21 Q177.154 1202.21 174.075 1197.63 Q171.019 1193.02 171.019 1184.3 Q171.019 1175.55 174.075 1170.96 Q177.154 1166.36 182.964 1166.36 Z" fill="#000000" fill-rule="evenodd" fill-opacity="1" /><path clip-path="url(#clip070)" d="M 0 0 M203.126 1195.66 L208.01 1195.66 L208.01 1201.54 L203.126 1201.54 L203.126 1195.66 Z" fill="#000000" fill-rule="evenodd" fill-opacity="1" /><path clip-path="url(#clip070)" d="M 0 0 M228.195 1170.06 Q224.584 1170.06 222.755 1173.63 Q220.95 1177.17 220.95 1184.3 Q220.95 1191.4 222.755 1194.97 Q224.584 1198.51 228.195 1198.51 Q231.829 1198.51 233.635 1194.97 Q235.463 1191.4 235.463 1184.3 Q235.463 1177.17 233.635 1173.63 Q231.829 1170.06 228.195 1170.06 M228.195 1166.36 Q234.005 1166.36 237.061 1170.96 Q240.139 1175.55 240.139 1184.3 Q240.139 1193.02 237.061 1197.63 Q234.005 1202.21 228.195 1202.21 Q222.385 1202.21 219.306 1197.63 Q216.251 1193.02 216.251 1184.3 Q216.251 1175.55 219.306 1170.96 Q222.385 1166.36 228.195 1166.36 Z" fill="#000000" fill-rule="evenodd" fill-opacity="1" /><path clip-path="url(#clip070)" d="M 0 0 M258.357 1170.06 Q254.746 1170.06 252.917 1173.63 Q251.112 1177.17 251.112 1184.3 Q251.112 1191.4 252.917 1194.97 Q254.746 1198.51 258.357 1198.51 Q261.991 1198.51 263.797 1194.97 Q265.625 1191.4 265.625 1184.3 Q265.625 1177.17 263.797 1173.63 Q261.991 1170.06 258.357 1170.06 M258.357 1166.36 Q264.167 1166.36 267.223 1170.96 Q270.301 1175.55 270.301 1184.3 Q270.301 1193.02 267.223 1197.63 Q264.167 1202.21 258.357 1202.21 Q252.547 1202.21 249.468 1197.63 Q246.412 1193.02 246.412 1184.3 Q246.412 1175.55 249.468 1170.96 Q252.547 1166.36 258.357 1166.36 Z" fill="#000000" fill-rule="evenodd" fill-opacity="1" /><path clip-path="url(#clip070)" d="M 0 0 M288.519 1170.06 Q284.908 1170.06 283.079 1173.63 Q281.273 1177.17 281.273 1184.3 Q281.273 1191.4 283.079 1194.97 Q284.908 1198.51 288.519 1198.51 Q292.153 1198.51 293.959 1194.97 Q295.787 1191.4 295.787 1184.3 Q295.787 1177.17 293.959 1173.63 Q292.153 1170.06 288.519 1170.06 M288.519 1166.36 Q294.329 1166.36 297.384 1170.96 Q300.463 1175.55 300.463 1184.3 Q300.463 1193.02 297.384 1197.63 Q294.329 1202.21 288.519 1202.21 Q282.709 1202.21 279.63 1197.63 Q276.574 1193.02 276.574 1184.3 Q276.574 1175.55 279.63 1170.96 Q282.709 1166.36 288.519 1166.36 Z" fill="#000000" fill-rule="evenodd" fill-opacity="1" /><path clip-path="url(#clip070)" d="M 0 0 M318.681 1170.06 Q315.069 1170.06 313.241 1173.63 Q311.435 1177.17 311.435 1184.3 Q311.435 1191.4 313.241 1194.97 Q315.069 1198.51 318.681 1198.51 Q322.315 1198.51 324.12 1194.97 Q325.949 1191.4 325.949 1184.3 Q325.949 1177.17 324.12 1173.63 Q322.315 1170.06 318.681 1170.06 M318.681 1166.36 Q324.491 1166.36 327.546 1170.96 Q330.625 1175.55 330.625 1184.3 Q330.625 1193.02 327.546 1197.63 Q324.491 1202.21 318.681 1202.21 Q312.87 1202.21 309.792 1197.63 Q306.736 1193.02 306.736 1184.3 Q306.736 1175.55 309.792 1170.96 Q312.87 1166.36 318.681 1166.36 Z" fill="#000000" fill-rule="evenodd" fill-opacity="1" /><path clip-path="url(#clip070)" d="M 0 0 M348.842 1170.06 Q345.231 1170.06 343.403 1173.63 Q341.597 1177.17 341.597 1184.3 Q341.597 1191.4 343.403 1194.97 Q345.231 1198.51 348.842 1198.51 Q352.477 1198.51 354.282 1194.97 Q356.111 1191.4 356.111 1184.3 Q356.111 1177.17 354.282 1173.63 Q352.477 1170.06 348.842 1170.06 M348.842 1166.36 Q354.653 1166.36 357.708 1170.96 Q360.787 1175.55 360.787 1184.3 Q360.787 1193.02 357.708 1197.63 Q354.653 1202.21 348.842 1202.21 Q343.032 1202.21 339.954 1197.63 Q336.898 1193.02 336.898 1184.3 Q336.898 1175.55 339.954 1170.96 Q343.032 1166.36 348.842 1166.36 Z" fill="#000000" fill-rule="evenodd" fill-opacity="1" /><path clip-path="url(#clip070)" d="M 0 0 M711.642 1170.06 Q708.031 1170.06 706.203 1173.63 Q704.397 1177.17 704.397 1184.3 Q704.397 1191.4 706.203 1194.97 Q708.031 1198.51 711.642 1198.51 Q715.277 1198.51 717.082 1194.97 Q718.911 1191.4 718.911 1184.3 Q718.911 1177.17 717.082 1173.63 Q715.277 1170.06 711.642 1170.06 M711.642 1166.36 Q717.453 1166.36 720.508 1170.96 Q723.587 1175.55 723.587 1184.3 Q723.587 1193.02 720.508 1197.63 Q717.453 1202.21 711.642 1202.21 Q705.832 1202.21 702.754 1197.63 Q699.698 1193.02 699.698 1184.3 Q699.698 1175.55 702.754 1170.96 Q705.832 1166.36 711.642 1166.36 Z" fill="#000000" fill-rule="evenodd" fill-opacity="1" /><path clip-path="url(#clip070)" d="M 0 0 M731.804 1195.66 L736.689 1195.66 L736.689 1201.54 L731.804 1201.54 L731.804 1195.66 Z" fill="#000000" fill-rule="evenodd" fill-opacity="1" /><path clip-path="url(#clip070)" d="M 0 0 M756.874 1170.06 Q753.263 1170.06 751.434 1173.63 Q749.628 1177.17 749.628 1184.3 Q749.628 1191.4 751.434 1194.97 Q753.263 1198.51 756.874 1198.51 Q760.508 1198.51 762.313 1194.97 Q764.142 1191.4 764.142 1184.3 Q764.142 1177.17 762.313 1173.63 Q760.508 1170.06 756.874 1170.06 M756.874 1166.36 Q762.684 1166.36 765.739 1170.96 Q768.818 1175.55 768.818 1184.3 Q768.818 1193.02 765.739 1197.63 Q762.684 1202.21 756.874 1202.21 Q751.064 1202.21 747.985 1197.63 Q744.929 1193.02 744.929 1184.3 Q744.929 1175.55 747.985 1170.96 Q751.064 1166.36 756.874 1166.36 Z" fill="#000000" fill-rule="evenodd" fill-opacity="1" /><path clip-path="url(#clip070)" d="M 0 0 M787.036 1170.06 Q783.424 1170.06 781.596 1173.63 Q779.79 1177.17 779.79 1184.3 Q779.79 1191.4 781.596 1194.97 Q783.424 1198.51 787.036 1198.51 Q790.67 1198.51 792.475 1194.97 Q794.304 1191.4 794.304 1184.3 Q794.304 1177.17 792.475 1173.63 Q790.67 1170.06 787.036 1170.06 M787.036 1166.36 Q792.846 1166.36 795.901 1170.96 Q798.98 1175.55 798.98 1184.3 Q798.98 1193.02 795.901 1197.63 Q792.846 1202.21 787.036 1202.21 Q781.225 1202.21 778.147 1197.63 Q775.091 1193.02 775.091 1184.3 Q775.091 1175.55 778.147 1170.96 Q781.225 1166.36 787.036 1166.36 Z" fill="#000000" fill-rule="evenodd" fill-opacity="1" /><path clip-path="url(#clip070)" d="M 0 0 M817.197 1170.06 Q813.586 1170.06 811.758 1173.63 Q809.952 1177.17 809.952 1184.3 Q809.952 1191.4 811.758 1194.97 Q813.586 1198.51 817.197 1198.51 Q820.832 1198.51 822.637 1194.97 Q824.466 1191.4 824.466 1184.3 Q824.466 1177.17 822.637 1173.63 Q820.832 1170.06 817.197 1170.06 M817.197 1166.36 Q823.008 1166.36 826.063 1170.96 Q829.142 1175.55 829.142 1184.3 Q829.142 1193.02 826.063 1197.63 Q823.008 1202.21 817.197 1202.21 Q811.387 1202.21 808.309 1197.63 Q805.253 1193.02 805.253 1184.3 Q805.253 1175.55 808.309 1170.96 Q811.387 1166.36 817.197 1166.36 Z" fill="#000000" fill-rule="evenodd" fill-opacity="1" /><path clip-path="url(#clip070)" d="M 0 0 M847.359 1170.06 Q843.748 1170.06 841.92 1173.63 Q840.114 1177.17 840.114 1184.3 Q840.114 1191.4 841.92 1194.97 Q843.748 1198.51 847.359 1198.51 Q850.994 1198.51 852.799 1194.97 Q854.628 1191.4 854.628 1184.3 Q854.628 1177.17 852.799 1173.63 Q850.994 1170.06 847.359 1170.06 M847.359 1166.36 Q853.169 1166.36 856.225 1170.96 Q859.304 1175.55 859.304 1184.3 Q859.304 1193.02 856.225 1197.63 Q853.169 1202.21 847.359 1202.21 Q841.549 1202.21 838.47 1197.63 Q835.415 1193.02 835.415 1184.3 Q835.415 1175.55 838.47 1170.96 Q841.549 1166.36 847.359 1166.36 Z" fill="#000000" fill-rule="evenodd" fill-opacity="1" /><path clip-path="url(#clip070)" d="M 0 0 M867.568 1166.98 L885.924 1166.98 L885.924 1170.92 L871.85 1170.92 L871.85 1179.39 Q872.868 1179.04 873.887 1178.88 Q874.905 1178.69 875.924 1178.69 Q881.711 1178.69 885.091 1181.87 Q888.47 1185.04 888.47 1190.45 Q888.47 1196.03 884.998 1199.13 Q881.526 1202.21 875.206 1202.21 Q873.03 1202.21 870.762 1201.84 Q868.517 1201.47 866.109 1200.73 L866.109 1196.03 Q868.193 1197.17 870.415 1197.72 Q872.637 1198.28 875.114 1198.28 Q879.118 1198.28 881.456 1196.17 Q883.794 1194.06 883.794 1190.45 Q883.794 1186.84 881.456 1184.74 Q879.118 1182.63 875.114 1182.63 Q873.239 1182.63 871.364 1183.05 Q869.512 1183.46 867.568 1184.34 L867.568 1166.98 Z" fill="#000000" fill-rule="evenodd" fill-opacity="1" /><path clip-path="url(#clip070)" d="M 0 0 M1239.33 1170.06 Q1235.71 1170.06 1233.89 1173.63 Q1232.08 1177.17 1232.08 1184.3 Q1232.08 1191.4 1233.89 1194.97 Q1235.71 1198.51 1239.33 1198.51 Q1242.96 1198.51 1244.77 1194.97 Q1246.59 1191.4 1246.59 1184.3 Q1246.59 1177.17 1244.77 1173.63 Q1242.96 1170.06 1239.33 1170.06 M1239.33 1166.36 Q1245.14 1166.36 1248.19 1170.96 Q1251.27 1175.55 1251.27 1184.3 Q1251.27 1193.02 1248.19 1197.63 Q1245.14 1202.21 1239.33 1202.21 Q1233.52 1202.21 1230.44 1197.63 Q1227.38 1193.02 1227.38 1184.3 Q1227.38 1175.55 1230.44 1170.96 Q1233.52 1166.36 1239.33 1166.36 Z" fill="#000000" fill-rule="evenodd" fill-opacity="1" /><path clip-path="url(#clip070)" d="M 0 0 M1259.49 1195.66 L1264.37 1195.66 L1264.37 1201.54 L1259.49 1201.54 L1259.49 1195.66 Z" fill="#000000" fill-rule="evenodd" fill-opacity="1" /><path clip-path="url(#clip070)" d="M 0 0 M1284.56 1170.06 Q1280.95 1170.06 1279.12 1173.63 Q1277.31 1177.17 1277.31 1184.3 Q1277.31 1191.4 1279.12 1194.97 Q1280.95 1198.51 1284.56 1198.51 Q1288.19 1198.51 1290 1194.97 Q1291.83 1191.4 1291.83 1184.3 Q1291.83 1177.17 1290 1173.63 Q1288.19 1170.06 1284.56 1170.06 M1284.56 1166.36 Q1290.37 1166.36 1293.42 1170.96 Q1296.5 1175.55 1296.5 1184.3 Q1296.5 1193.02 1293.42 1197.63 Q1290.37 1202.21 1284.56 1202.21 Q1278.75 1202.21 1275.67 1197.63 Q1272.61 1193.02 1272.61 1184.3 Q1272.61 1175.55 1275.67 1170.96 Q1278.75 1166.36 1284.56 1166.36 Z" fill="#000000" fill-rule="evenodd" fill-opacity="1" /><path clip-path="url(#clip070)" d="M 0 0 M1314.72 1170.06 Q1311.11 1170.06 1309.28 1173.63 Q1307.47 1177.17 1307.47 1184.3 Q1307.47 1191.4 1309.28 1194.97 Q1311.11 1198.51 1314.72 1198.51 Q1318.35 1198.51 1320.16 1194.97 Q1321.99 1191.4 1321.99 1184.3 Q1321.99 1177.17 1320.16 1173.63 Q1318.35 1170.06 1314.72 1170.06 M1314.72 1166.36 Q1320.53 1166.36 1323.58 1170.96 Q1326.66 1175.55 1326.66 1184.3 Q1326.66 1193.02 1323.58 1197.63 Q1320.53 1202.21 1314.72 1202.21 Q1308.91 1202.21 1305.83 1197.63 Q1302.77 1193.02 1302.77 1184.3 Q1302.77 1175.55 1305.83 1170.96 Q1308.91 1166.36 1314.72 1166.36 Z" fill="#000000" fill-rule="evenodd" fill-opacity="1" /><path clip-path="url(#clip070)" d="M 0 0 M1344.88 1170.06 Q1341.27 1170.06 1339.44 1173.63 Q1337.64 1177.17 1337.64 1184.3 Q1337.64 1191.4 1339.44 1194.97 Q1341.27 1198.51 1344.88 1198.51 Q1348.51 1198.51 1350.32 1194.97 Q1352.15 1191.4 1352.15 1184.3 Q1352.15 1177.17 1350.32 1173.63 Q1348.51 1170.06 1344.88 1170.06 M1344.88 1166.36 Q1350.69 1166.36 1353.75 1170.96 Q1356.83 1175.55 1356.83 1184.3 Q1356.83 1193.02 1353.75 1197.63 Q1350.69 1202.21 1344.88 1202.21 Q1339.07 1202.21 1335.99 1197.63 Q1332.94 1193.02 1332.94 1184.3 Q1332.94 1175.55 1335.99 1170.96 Q1339.07 1166.36 1344.88 1166.36 Z" fill="#000000" fill-rule="evenodd" fill-opacity="1" /><path clip-path="url(#clip070)" d="M 0 0 M1365.85 1197.61 L1373.49 1197.61 L1373.49 1171.24 L1365.18 1172.91 L1365.18 1168.65 L1373.45 1166.98 L1378.12 1166.98 L1378.12 1197.61 L1385.76 1197.61 L1385.76 1201.54 L1365.85 1201.54 L1365.85 1197.61 Z" fill="#000000" fill-rule="evenodd" fill-opacity="1" /><path clip-path="url(#clip070)" d="M 0 0 M1405.2 1170.06 Q1401.59 1170.06 1399.76 1173.63 Q1397.96 1177.17 1397.96 1184.3 Q1397.96 1191.4 1399.76 1194.97 Q1401.59 1198.51 1405.2 1198.51 Q1408.84 1198.51 1410.64 1194.97 Q1412.47 1191.4 1412.47 1184.3 Q1412.47 1177.17 1410.64 1173.63 Q1408.84 1170.06 1405.2 1170.06 M1405.2 1166.36 Q1411.01 1166.36 1414.07 1170.96 Q1417.15 1175.55 1417.15 1184.3 Q1417.15 1193.02 1414.07 1197.63 Q1411.01 1202.21 1405.2 1202.21 Q1399.39 1202.21 1396.32 1197.63 Q1393.26 1193.02 1393.26 1184.3 Q1393.26 1175.55 1396.32 1170.96 Q1399.39 1166.36 1405.2 1166.36 Z" fill="#000000" fill-rule="evenodd" fill-opacity="1" /><path clip-path="url(#clip070)" d="M 0 0 M1768 1170.06 Q1764.39 1170.06 1762.56 1173.63 Q1760.76 1177.17 1760.76 1184.3 Q1760.76 1191.4 1762.56 1194.97 Q1764.39 1198.51 1768 1198.51 Q1771.64 1198.51 1773.44 1194.97 Q1775.27 1191.4 1775.27 1184.3 Q1775.27 1177.17 1773.44 1173.63 Q1771.64 1170.06 1768 1170.06 M1768 1166.36 Q1773.81 1166.36 1776.87 1170.96 Q1779.95 1175.55 1779.95 1184.3 Q1779.95 1193.02 1776.87 1197.63 Q1773.81 1202.21 1768 1202.21 Q1762.19 1202.21 1759.12 1197.63 Q1756.06 1193.02 1756.06 1184.3 Q1756.06 1175.55 1759.12 1170.96 Q1762.19 1166.36 1768 1166.36 Z" fill="#000000" fill-rule="evenodd" fill-opacity="1" /><path clip-path="url(#clip070)" d="M 0 0 M1788.17 1195.66 L1793.05 1195.66 L1793.05 1201.54 L1788.17 1201.54 L1788.17 1195.66 Z" fill="#000000" fill-rule="evenodd" fill-opacity="1" /><path clip-path="url(#clip070)" d="M 0 0 M1813.24 1170.06 Q1809.62 1170.06 1807.8 1173.63 Q1805.99 1177.17 1805.99 1184.3 Q1805.99 1191.4 1807.8 1194.97 Q1809.62 1198.51 1813.24 1198.51 Q1816.87 1198.51 1818.68 1194.97 Q1820.5 1191.4 1820.5 1184.3 Q1820.5 1177.17 1818.68 1173.63 Q1816.87 1170.06 1813.24 1170.06 M1813.24 1166.36 Q1819.05 1166.36 1822.1 1170.96 Q1825.18 1175.55 1825.18 1184.3 Q1825.18 1193.02 1822.1 1197.63 Q1819.05 1202.21 1813.24 1202.21 Q1807.43 1202.21 1804.35 1197.63 Q1801.29 1193.02 1801.29 1184.3 Q1801.29 1175.55 1804.35 1170.96 Q1807.43 1166.36 1813.24 1166.36 Z" fill="#000000" fill-rule="evenodd" fill-opacity="1" /><path clip-path="url(#clip070)" d="M 0 0 M1843.4 1170.06 Q1839.79 1170.06 1837.96 1173.63 Q1836.15 1177.17 1836.15 1184.3 Q1836.15 1191.4 1837.96 1194.97 Q1839.79 1198.51 1843.4 1198.51 Q1847.03 1198.51 1848.84 1194.97 Q1850.67 1191.4 1850.67 1184.3 Q1850.67 1177.17 1848.84 1173.63 Q1847.03 1170.06 1843.4 1170.06 M1843.4 1166.36 Q1849.21 1166.36 1852.26 1170.96 Q1855.34 1175.55 1855.34 1184.3 Q1855.34 1193.02 1852.26 1197.63 Q1849.21 1202.21 1843.4 1202.21 Q1837.59 1202.21 1834.51 1197.63 Q1831.45 1193.02 1831.45 1184.3 Q1831.45 1175.55 1834.51 1170.96 Q1837.59 1166.36 1843.4 1166.36 Z" fill="#000000" fill-rule="evenodd" fill-opacity="1" /><path clip-path="url(#clip070)" d="M 0 0 M1873.56 1170.06 Q1869.95 1170.06 1868.12 1173.63 Q1866.31 1177.17 1866.31 1184.3 Q1866.31 1191.4 1868.12 1194.97 Q1869.95 1198.51 1873.56 1198.51 Q1877.19 1198.51 1879 1194.97 Q1880.83 1191.4 1880.83 1184.3 Q1880.83 1177.17 1879 1173.63 Q1877.19 1170.06 1873.56 1170.06 M1873.56 1166.36 Q1879.37 1166.36 1882.43 1170.96 Q1885.5 1175.55 1885.5 1184.3 Q1885.5 1193.02 1882.43 1197.63 Q1879.37 1202.21 1873.56 1202.21 Q1867.75 1202.21 1864.67 1197.63 Q1861.62 1193.02 1861.62 1184.3 Q1861.62 1175.55 1864.67 1170.96 Q1867.75 1166.36 1873.56 1166.36 Z" fill="#000000" fill-rule="evenodd" fill-opacity="1" /><path clip-path="url(#clip070)" d="M 0 0 M1894.53 1197.61 L1902.17 1197.61 L1902.17 1171.24 L1893.86 1172.91 L1893.86 1168.65 L1902.12 1166.98 L1906.8 1166.98 L1906.8 1197.61 L1914.44 1197.61 L1914.44 1201.54 L1894.53 1201.54 L1894.53 1197.61 Z" fill="#000000" fill-rule="evenodd" fill-opacity="1" /><path clip-path="url(#clip070)" d="M 0 0 M1923.93 1166.98 L1942.29 1166.98 L1942.29 1170.92 L1928.21 1170.92 L1928.21 1179.39 Q1929.23 1179.04 1930.25 1178.88 Q1931.27 1178.69 1932.29 1178.69 Q1938.07 1178.69 1941.45 1181.87 Q1944.83 1185.04 1944.83 1190.45 Q1944.83 1196.03 1941.36 1199.13 Q1937.89 1202.21 1931.57 1202.21 Q1929.39 1202.21 1927.12 1201.84 Q1924.88 1201.47 1922.47 1200.73 L1922.47 1196.03 Q1924.55 1197.17 1926.78 1197.72 Q1929 1198.28 1931.48 1198.28 Q1935.48 1198.28 1937.82 1196.17 Q1940.16 1194.06 1940.16 1190.45 Q1940.16 1186.84 1937.82 1184.74 Q1935.48 1182.63 1931.48 1182.63 Q1929.6 1182.63 1927.73 1183.05 Q1925.87 1183.46 1923.93 1184.34 L1923.93 1166.98 Z" fill="#000000" fill-rule="evenodd" fill-opacity="1" /><polyline clip-path="url(#clip072)" style="stroke:#000000; stroke-width:2; stroke-opacity:0.1; fill:none" points="
  205.121,1109.92 2352.76,1109.92 
  "/>
<polyline clip-path="url(#clip072)" style="stroke:#000000; stroke-width:2; stroke-opacity:0.1; fill:none" points="
  205.121,937.964 2352.76,937.964 
  "/>
<polyline clip-path="url(#clip072)" style="stroke:#000000; stroke-width:2; stroke-opacity:0.1; fill:none" points="
  205.121,766.011 2352.76,766.011 
  "/>
<polyline clip-path="url(#clip072)" style="stroke:#000000; stroke-width:2; stroke-opacity:0.1; fill:none" points="
  205.121,594.057 2352.76,594.057 
  "/>
<polyline clip-path="url(#clip072)" style="stroke:#000000; stroke-width:2; stroke-opacity:0.1; fill:none" points="
  205.121,422.103 2352.76,422.103 
  "/>
<polyline clip-path="url(#clip072)" style="stroke:#000000; stroke-width:2; stroke-opacity:0.1; fill:none" points="
  205.121,250.149 2352.76,250.149 
  "/>
<polyline clip-path="url(#clip072)" style="stroke:#000000; stroke-width:2; stroke-opacity:0.1; fill:none" points="
  205.121,78.1958 2352.76,78.1958 
  "/>
<polyline clip-path="url(#clip070)" style="stroke:#000000; stroke-width:4; stroke-opacity:1; fill:none" points="
  205.121,1140.87 205.121,47.2441 
  "/>
<polyline clip-path="url(#clip070)" style="stroke:#000000; stroke-width:4; stroke-opacity:1; fill:none" points="
  205.121,1109.92 230.893,1109.92 
  "/>
<polyline clip-path="url(#clip070)" style="stroke:#000000; stroke-width:4; stroke-opacity:1; fill:none" points="
  205.121,937.964 230.893,937.964 
  "/>
<polyline clip-path="url(#clip070)" style="stroke:#000000; stroke-width:4; stroke-opacity:1; fill:none" points="
  205.121,766.011 230.893,766.011 
  "/>
<polyline clip-path="url(#clip070)" style="stroke:#000000; stroke-width:4; stroke-opacity:1; fill:none" points="
  205.121,594.057 230.893,594.057 
  "/>
<polyline clip-path="url(#clip070)" style="stroke:#000000; stroke-width:4; stroke-opacity:1; fill:none" points="
  205.121,422.103 230.893,422.103 
  "/>
<polyline clip-path="url(#clip070)" style="stroke:#000000; stroke-width:4; stroke-opacity:1; fill:none" points="
  205.121,250.149 230.893,250.149 
  "/>
<polyline clip-path="url(#clip070)" style="stroke:#000000; stroke-width:4; stroke-opacity:1; fill:none" points="
  205.121,78.1958 230.893,78.1958 
  "/>
<path clip-path="url(#clip070)" d="M 0 0 M157.177 1095.72 Q153.566 1095.72 151.737 1099.28 Q149.931 1102.82 149.931 1109.95 Q149.931 1117.06 151.737 1120.62 Q153.566 1124.17 157.177 1124.17 Q160.811 1124.17 162.616 1120.62 Q164.445 1117.06 164.445 1109.95 Q164.445 1102.82 162.616 1099.28 Q160.811 1095.72 157.177 1095.72 M157.177 1092.01 Q162.987 1092.01 166.042 1096.62 Q169.121 1101.2 169.121 1109.95 Q169.121 1118.68 166.042 1123.29 Q162.987 1127.87 157.177 1127.87 Q151.366 1127.87 148.288 1123.29 Q145.232 1118.68 145.232 1109.95 Q145.232 1101.2 148.288 1096.62 Q151.366 1092.01 157.177 1092.01 Z" fill="#000000" fill-rule="evenodd" fill-opacity="1" /><path clip-path="url(#clip070)" d="M 0 0 M117.825 951.309 L125.464 951.309 L125.464 924.944 L117.154 926.61 L117.154 922.351 L125.418 920.684 L130.093 920.684 L130.093 951.309 L137.732 951.309 L137.732 955.244 L117.825 955.244 L117.825 951.309 Z" fill="#000000" fill-rule="evenodd" fill-opacity="1" /><path clip-path="url(#clip070)" d="M 0 0 M157.177 923.763 Q153.566 923.763 151.737 927.328 Q149.931 930.869 149.931 937.999 Q149.931 945.105 151.737 948.67 Q153.566 952.212 157.177 952.212 Q160.811 952.212 162.616 948.67 Q164.445 945.105 164.445 937.999 Q164.445 930.869 162.616 927.328 Q160.811 923.763 157.177 923.763 M157.177 920.059 Q162.987 920.059 166.042 924.666 Q169.121 929.249 169.121 937.999 Q169.121 946.726 166.042 951.332 Q162.987 955.916 157.177 955.916 Q151.366 955.916 148.288 951.332 Q145.232 946.726 145.232 937.999 Q145.232 929.249 148.288 924.666 Q151.366 920.059 157.177 920.059 Z" fill="#000000" fill-rule="evenodd" fill-opacity="1" /><path clip-path="url(#clip070)" d="M 0 0 M121.043 779.355 L137.362 779.355 L137.362 783.291 L115.418 783.291 L115.418 779.355 Q118.08 776.601 122.663 771.971 Q127.269 767.318 128.45 765.976 Q130.695 763.453 131.575 761.717 Q132.478 759.957 132.478 758.268 Q132.478 755.513 130.533 753.777 Q128.612 752.041 125.51 752.041 Q123.311 752.041 120.857 752.805 Q118.427 753.569 115.649 755.119 L115.649 750.397 Q118.473 749.263 120.927 748.684 Q123.38 748.106 125.418 748.106 Q130.788 748.106 133.982 750.791 Q137.177 753.476 137.177 757.967 Q137.177 760.096 136.367 762.018 Q135.579 763.916 133.473 766.508 Q132.894 767.18 129.792 770.397 Q126.691 773.592 121.043 779.355 Z" fill="#000000" fill-rule="evenodd" fill-opacity="1" /><path clip-path="url(#clip070)" d="M 0 0 M157.177 751.809 Q153.566 751.809 151.737 755.374 Q149.931 758.916 149.931 766.045 Q149.931 773.152 151.737 776.717 Q153.566 780.258 157.177 780.258 Q160.811 780.258 162.616 776.717 Q164.445 773.152 164.445 766.045 Q164.445 758.916 162.616 755.374 Q160.811 751.809 157.177 751.809 M157.177 748.106 Q162.987 748.106 166.042 752.712 Q169.121 757.295 169.121 766.045 Q169.121 774.772 166.042 779.379 Q162.987 783.962 157.177 783.962 Q151.366 783.962 148.288 779.379 Q145.232 774.772 145.232 766.045 Q145.232 757.295 148.288 752.712 Q151.366 748.106 157.177 748.106 Z" fill="#000000" fill-rule="evenodd" fill-opacity="1" /><path clip-path="url(#clip070)" d="M 0 0 M131.181 592.703 Q134.538 593.42 136.413 595.689 Q138.311 597.957 138.311 601.291 Q138.311 606.406 134.792 609.207 Q131.274 612.008 124.793 612.008 Q122.617 612.008 120.302 611.568 Q118.01 611.152 115.556 610.295 L115.556 605.781 Q117.501 606.916 119.816 607.494 Q122.13 608.073 124.654 608.073 Q129.052 608.073 131.343 606.337 Q133.658 604.601 133.658 601.291 Q133.658 598.235 131.505 596.522 Q129.376 594.786 125.556 594.786 L121.529 594.786 L121.529 590.943 L125.742 590.943 Q129.191 590.943 131.019 589.578 Q132.848 588.189 132.848 585.596 Q132.848 582.934 130.95 581.522 Q129.075 580.087 125.556 580.087 Q123.635 580.087 121.436 580.504 Q119.237 580.92 116.598 581.8 L116.598 577.633 Q119.26 576.893 121.575 576.522 Q123.913 576.152 125.973 576.152 Q131.297 576.152 134.399 578.582 Q137.501 580.99 137.501 585.11 Q137.501 587.981 135.857 589.971 Q134.214 591.939 131.181 592.703 Z" fill="#000000" fill-rule="evenodd" fill-opacity="1" /><path clip-path="url(#clip070)" d="M 0 0 M157.177 579.856 Q153.566 579.856 151.737 583.42 Q149.931 586.962 149.931 594.092 Q149.931 601.198 151.737 604.763 Q153.566 608.304 157.177 608.304 Q160.811 608.304 162.616 604.763 Q164.445 601.198 164.445 594.092 Q164.445 586.962 162.616 583.42 Q160.811 579.856 157.177 579.856 M157.177 576.152 Q162.987 576.152 166.042 580.758 Q169.121 585.342 169.121 594.092 Q169.121 602.818 166.042 607.425 Q162.987 612.008 157.177 612.008 Q151.366 612.008 148.288 607.425 Q145.232 602.818 145.232 594.092 Q145.232 585.342 148.288 580.758 Q151.366 576.152 157.177 576.152 Z" fill="#000000" fill-rule="evenodd" fill-opacity="1" /><path clip-path="url(#clip070)" d="M 0 0 M129.862 408.897 L118.056 427.346 L129.862 427.346 L129.862 408.897 M128.635 404.823 L134.515 404.823 L134.515 427.346 L139.445 427.346 L139.445 431.235 L134.515 431.235 L134.515 439.383 L129.862 439.383 L129.862 431.235 L114.26 431.235 L114.26 426.721 L128.635 404.823 Z" fill="#000000" fill-rule="evenodd" fill-opacity="1" /><path clip-path="url(#clip070)" d="M 0 0 M157.177 407.902 Q153.566 407.902 151.737 411.467 Q149.931 415.008 149.931 422.138 Q149.931 429.244 151.737 432.809 Q153.566 436.351 157.177 436.351 Q160.811 436.351 162.616 432.809 Q164.445 429.244 164.445 422.138 Q164.445 415.008 162.616 411.467 Q160.811 407.902 157.177 407.902 M157.177 404.198 Q162.987 404.198 166.042 408.805 Q169.121 413.388 169.121 422.138 Q169.121 430.865 166.042 435.471 Q162.987 440.054 157.177 440.054 Q151.366 440.054 148.288 435.471 Q145.232 430.865 145.232 422.138 Q145.232 413.388 148.288 408.805 Q151.366 404.198 157.177 404.198 Z" fill="#000000" fill-rule="evenodd" fill-opacity="1" /><path clip-path="url(#clip070)" d="M 0 0 M117.061 232.869 L135.417 232.869 L135.417 236.805 L121.343 236.805 L121.343 245.277 Q122.362 244.93 123.38 244.768 Q124.399 244.582 125.418 244.582 Q131.205 244.582 134.584 247.754 Q137.964 250.925 137.964 256.342 Q137.964 261.92 134.492 265.022 Q131.019 268.101 124.7 268.101 Q122.524 268.101 120.255 267.73 Q118.01 267.36 115.603 266.619 L115.603 261.92 Q117.686 263.054 119.908 263.61 Q122.13 264.166 124.607 264.166 Q128.612 264.166 130.95 262.059 Q133.288 259.953 133.288 256.342 Q133.288 252.73 130.95 250.624 Q128.612 248.518 124.607 248.518 Q122.732 248.518 120.857 248.934 Q119.006 249.351 117.061 250.23 L117.061 232.869 Z" fill="#000000" fill-rule="evenodd" fill-opacity="1" /><path clip-path="url(#clip070)" d="M 0 0 M157.177 235.948 Q153.566 235.948 151.737 239.513 Q149.931 243.055 149.931 250.184 Q149.931 257.291 151.737 260.855 Q153.566 264.397 157.177 264.397 Q160.811 264.397 162.616 260.855 Q164.445 257.291 164.445 250.184 Q164.445 243.055 162.616 239.513 Q160.811 235.948 157.177 235.948 M157.177 232.244 Q162.987 232.244 166.042 236.851 Q169.121 241.434 169.121 250.184 Q169.121 258.911 166.042 263.517 Q162.987 268.101 157.177 268.101 Q151.366 268.101 148.288 263.517 Q145.232 258.911 145.232 250.184 Q145.232 241.434 148.288 236.851 Q151.366 232.244 157.177 232.244 Z" fill="#000000" fill-rule="evenodd" fill-opacity="1" /><path clip-path="url(#clip070)" d="M 0 0 M127.593 76.3323 Q124.445 76.3323 122.593 78.4851 Q120.765 80.6379 120.765 84.3879 Q120.765 88.1147 122.593 90.2906 Q124.445 92.4434 127.593 92.4434 Q130.742 92.4434 132.57 90.2906 Q134.422 88.1147 134.422 84.3879 Q134.422 80.6379 132.57 78.4851 Q130.742 76.3323 127.593 76.3323 M136.876 61.6796 L136.876 65.9389 Q135.117 65.1056 133.311 64.6657 Q131.529 64.2259 129.769 64.2259 Q125.14 64.2259 122.686 67.3509 Q120.255 70.4759 119.908 76.7953 Q121.274 74.7814 123.334 73.7166 Q125.394 72.6287 127.871 72.6287 Q133.08 72.6287 136.089 75.7999 Q139.121 78.9481 139.121 84.3879 Q139.121 89.7119 135.973 92.9295 Q132.825 96.1471 127.593 96.1471 Q121.598 96.1471 118.427 91.5637 Q115.256 86.9573 115.256 78.2305 Q115.256 70.0361 119.144 65.175 Q123.033 60.2908 129.584 60.2908 Q131.343 60.2908 133.126 60.638 Q134.931 60.9852 136.876 61.6796 Z" fill="#000000" fill-rule="evenodd" fill-opacity="1" /><path clip-path="url(#clip070)" d="M 0 0 M157.177 63.9944 Q153.566 63.9944 151.737 67.5592 Q149.931 71.1009 149.931 78.2305 Q149.931 85.3369 151.737 88.9017 Q153.566 92.4434 157.177 92.4434 Q160.811 92.4434 162.616 88.9017 Q164.445 85.3369 164.445 78.2305 Q164.445 71.1009 162.616 67.5592 Q160.811 63.9944 157.177 63.9944 M157.177 60.2908 Q162.987 60.2908 166.042 64.8972 Q169.121 69.4805 169.121 78.2305 Q169.121 86.9573 166.042 91.5637 Q162.987 96.1471 157.177 96.1471 Q151.366 96.1471 148.288 91.5637 Q145.232 86.9573 145.232 78.2305 Q145.232 69.4805 148.288 64.8972 Q151.366 60.2908 157.177 60.2908 Z" fill="#000000" fill-rule="evenodd" fill-opacity="1" /><path clip-path="url(#clip070)" d="M 0 0 M16.4842 731.063 L16.4842 724.633 L64.0042 724.633 L64.0042 731.063 L16.4842 731.063 Z" fill="#000000" fill-rule="evenodd" fill-opacity="1" /><path clip-path="url(#clip070)" d="M 0 0 M42.4881 682.461 L64.0042 682.461 L64.0042 688.317 L42.679 688.317 Q37.6183 688.317 35.1038 690.29 Q32.5894 692.264 32.5894 696.211 Q32.5894 700.953 35.6131 703.69 Q38.6368 706.428 43.8567 706.428 L64.0042 706.428 L64.0042 712.316 L28.3562 712.316 L28.3562 706.428 L33.8944 706.428 Q30.6797 704.327 29.0883 701.494 Q27.4968 698.63 27.4968 694.906 Q27.4968 688.763 31.3163 685.612 Q35.1038 682.461 42.4881 682.461 Z" fill="#000000" fill-rule="evenodd" fill-opacity="1" /><path clip-path="url(#clip070)" d="M 0 0 M18.2347 664.987 L28.3562 664.987 L28.3562 652.924 L32.9077 652.924 L32.9077 664.987 L52.2594 664.987 Q56.6199 664.987 57.8613 663.809 Q59.1026 662.6 59.1026 658.939 L59.1026 652.924 L64.0042 652.924 L64.0042 658.939 Q64.0042 665.719 61.4897 668.297 Q58.9434 670.875 52.2594 670.875 L32.9077 670.875 L32.9077 675.172 L28.3562 675.172 L28.3562 670.875 L18.2347 670.875 L18.2347 664.987 Z" fill="#000000" fill-rule="evenodd" fill-opacity="1" /><path clip-path="url(#clip070)" d="M 0 0 M44.7161 614.73 L47.5806 614.73 L47.5806 641.656 Q53.6281 641.275 56.8109 638.028 Q59.9619 634.75 59.9619 628.925 Q59.9619 625.551 59.1344 622.4 Q58.3069 619.217 56.6518 616.098 L62.1899 616.098 Q63.5267 619.249 64.227 622.559 Q64.9272 625.87 64.9272 629.275 Q64.9272 637.805 59.9619 642.802 Q54.9967 647.768 46.5303 647.768 Q37.7774 647.768 32.6531 643.057 Q27.4968 638.314 27.4968 630.294 Q27.4968 623.1 32.1438 618.931 Q36.7589 614.73 44.7161 614.73 M42.9973 620.586 Q38.1912 620.65 35.3266 623.291 Q32.4621 625.901 32.4621 630.23 Q32.4621 635.132 35.2312 638.092 Q38.0002 641.02 43.0292 641.465 L42.9973 620.586 Z" fill="#000000" fill-rule="evenodd" fill-opacity="1" /><path clip-path="url(#clip070)" d="M 0 0 M33.8307 584.461 Q33.2578 585.447 33.0032 586.625 Q32.7167 587.771 32.7167 589.171 Q32.7167 594.136 35.9632 596.81 Q39.1779 599.452 45.2253 599.452 L64.0042 599.452 L64.0042 605.34 L28.3562 605.34 L28.3562 599.452 L33.8944 599.452 Q30.6479 597.606 29.0883 594.646 Q27.4968 591.686 27.4968 587.452 Q27.4968 586.848 27.5923 586.116 Q27.656 585.384 27.8151 584.492 L33.8307 584.461 Z" fill="#000000" fill-rule="evenodd" fill-opacity="1" /><path clip-path="url(#clip070)" d="M 0 0 M28.3562 582.519 L28.3562 576.312 L58.275 565.172 L28.3562 554.033 L28.3562 547.826 L64.0042 561.194 L64.0042 569.151 L28.3562 582.519 Z" fill="#000000" fill-rule="evenodd" fill-opacity="1" /><path clip-path="url(#clip070)" d="M 0 0 M46.0847 523.541 Q46.0847 530.639 47.7079 533.376 Q49.3312 536.113 53.2461 536.113 Q56.3653 536.113 58.2114 534.076 Q60.0256 532.007 60.0256 528.474 Q60.0256 523.604 56.5881 520.676 Q53.1188 517.716 47.3897 517.716 L46.0847 517.716 L46.0847 523.541 M43.6657 511.86 L64.0042 511.86 L64.0042 517.716 L58.5933 517.716 Q61.8398 519.721 63.3994 522.713 Q64.9272 525.705 64.9272 530.034 Q64.9272 535.508 61.8716 538.755 Q58.7843 541.969 53.6281 541.969 Q47.6125 541.969 44.5569 537.959 Q41.5014 533.917 41.5014 525.928 L41.5014 517.716 L40.9285 517.716 Q36.8862 517.716 34.6901 520.39 Q32.4621 523.032 32.4621 527.838 Q32.4621 530.893 33.1941 533.79 Q33.9262 536.686 35.3903 539.36 L29.9795 539.36 Q28.7381 536.145 28.1334 533.121 Q27.4968 530.097 27.4968 527.233 Q27.4968 519.499 31.5072 515.679 Q35.5176 511.86 43.6657 511.86 Z" fill="#000000" fill-rule="evenodd" fill-opacity="1" /><path clip-path="url(#clip070)" d="M 0 0 M14.479 499.797 L14.479 493.94 L64.0042 493.94 L64.0042 499.797 L14.479 499.797 Z" fill="#000000" fill-rule="evenodd" fill-opacity="1" /><path clip-path="url(#clip070)" d="M 0 0 M29.4065 458.961 L34.9447 458.961 Q33.6716 461.443 33.035 464.117 Q32.3984 466.79 32.3984 469.655 Q32.3984 474.016 33.7352 476.212 Q35.072 478.376 37.7456 478.376 Q39.7826 478.376 40.9603 476.816 Q42.1061 475.257 43.1565 470.546 L43.6021 468.541 Q44.9389 462.303 47.3897 459.693 Q49.8086 457.051 54.1691 457.051 Q59.1344 457.051 62.0308 460.998 Q64.9272 464.913 64.9272 471.788 Q64.9272 474.652 64.3543 477.771 Q63.8132 480.859 62.6992 484.296 L56.6518 484.296 Q58.3387 481.05 59.198 477.899 Q60.0256 474.748 60.0256 471.66 Q60.0256 467.523 58.6251 465.295 Q57.1929 463.067 54.6147 463.067 Q52.2276 463.067 50.9545 464.69 Q49.6813 466.281 48.5037 471.724 L48.0262 473.761 Q46.8804 479.204 44.5251 481.623 Q42.138 484.042 38.0002 484.042 Q32.9713 484.042 30.2341 480.477 Q27.4968 476.912 27.4968 470.355 Q27.4968 467.109 27.9743 464.244 Q28.4517 461.38 29.4065 458.961 Z" fill="#000000" fill-rule="evenodd" fill-opacity="1" /><path clip-path="url(#clip072)" d="
M265.903 1109.92 L571.181 1109.92 L571.181 1092.72 L265.903 1092.72  Z
  " fill="#009af9" fill-rule="evenodd" fill-opacity="1"/>
<polyline clip-path="url(#clip072)" style="stroke:#ffffff; stroke-width:4; stroke-opacity:1; fill:none" points="
  265.903,1109.92 571.181,1109.92 
  "/>
<path clip-path="url(#clip072)" d="
M273.298 1092.72 L273.298 1092.72 L273.298 1075.53 L273.298 1075.53  Z
  " fill="#009af9" fill-rule="evenodd" fill-opacity="1"/>
<polyline clip-path="url(#clip072)" style="stroke:#ffffff; stroke-width:4; stroke-opacity:1; fill:none" points="
  273.298,1092.72 273.298,1092.72 
  "/>
<path clip-path="url(#clip072)" d="
M349.356 1058.33 L517.317 1058.33 L517.317 1041.14 L349.356 1041.14  Z
  " fill="#e26f46" fill-rule="evenodd" fill-opacity="1"/>
<polyline clip-path="url(#clip072)" style="stroke:#ffffff; stroke-width:4; stroke-opacity:1; fill:none" points="
  349.356,1058.33 517.317,1058.33 
  "/>
<path clip-path="url(#clip072)" d="
M355.694 1041.14 L355.694 1041.14 L355.694 1023.94 L355.694 1023.94  Z
  " fill="#e26f46" fill-rule="evenodd" fill-opacity="1"/>
<polyline clip-path="url(#clip072)" style="stroke:#ffffff; stroke-width:4; stroke-opacity:1; fill:none" points="
  355.694,1041.14 355.694,1041.14 
  "/>
<path clip-path="url(#clip072)" d="
M400.061 1006.75 L681.043 1006.75 L681.043 989.55 L400.061 989.55  Z
  " fill="#3da44d" fill-rule="evenodd" fill-opacity="1"/>
<polyline clip-path="url(#clip072)" style="stroke:#ffffff; stroke-width:4; stroke-opacity:1; fill:none" points="
  400.061,1006.75 681.043,1006.75 
  "/>
<path clip-path="url(#clip072)" d="
M405.343 989.55 L558.505 989.55 L558.505 972.355 L405.343 972.355  Z
  " fill="#3da44d" fill-rule="evenodd" fill-opacity="1"/>
<polyline clip-path="url(#clip072)" style="stroke:#ffffff; stroke-width:4; stroke-opacity:1; fill:none" points="
  405.343,989.55 558.505,989.55 
  "/>
<path clip-path="url(#clip072)" d="
M410.625 972.355 L411.681 972.355 L411.681 955.16 L410.625 955.16  Z
  " fill="#3da44d" fill-rule="evenodd" fill-opacity="1"/>
<polyline clip-path="url(#clip072)" style="stroke:#ffffff; stroke-width:4; stroke-opacity:1; fill:none" points="
  410.625,972.355 411.681,972.355 
  "/>
<path clip-path="url(#clip072)" d="
M432.808 937.964 L656.746 937.964 L656.746 920.769 L432.808 920.769  Z
  " fill="#c271d2" fill-rule="evenodd" fill-opacity="1"/>
<polyline clip-path="url(#clip072)" style="stroke:#ffffff; stroke-width:4; stroke-opacity:1; fill:none" points="
  432.808,937.964 656.746,937.964 
  "/>
<path clip-path="url(#clip072)" d="
M438.09 920.769 L438.09 920.769 L438.09 903.574 L438.09 903.574  Z
  " fill="#c271d2" fill-rule="evenodd" fill-opacity="1"/>
<polyline clip-path="url(#clip072)" style="stroke:#ffffff; stroke-width:4; stroke-opacity:1; fill:none" points="
  438.09,920.769 438.09,920.769 
  "/>
<path clip-path="url(#clip072)" d="
M457.105 886.378 L458.161 886.378 L458.161 869.183 L457.105 869.183  Z
  " fill="#ac8d18" fill-rule="evenodd" fill-opacity="1"/>
<polyline clip-path="url(#clip072)" style="stroke:#ffffff; stroke-width:4; stroke-opacity:1; fill:none" points="
  457.105,886.378 458.161,886.378 
  "/>
<path clip-path="url(#clip072)" d="
M497.246 851.987 L498.303 851.987 L498.303 834.792 L497.246 834.792  Z
  " fill="#00a9ad" fill-rule="evenodd" fill-opacity="1"/>
<polyline clip-path="url(#clip072)" style="stroke:#ffffff; stroke-width:4; stroke-opacity:1; fill:none" points="
  497.246,851.987 498.303,851.987 
  "/>
<path clip-path="url(#clip072)" d="
M541.614 817.597 L632.45 817.597 L632.45 800.401 L541.614 800.401  Z
  " fill="#ed5d92" fill-rule="evenodd" fill-opacity="1"/>
<polyline clip-path="url(#clip072)" style="stroke:#ffffff; stroke-width:4; stroke-opacity:1; fill:none" points="
  541.614,817.597 632.45,817.597 
  "/>
<path clip-path="url(#clip072)" d="
M544.783 800.401 L545.839 800.401 L545.839 783.206 L544.783 783.206  Z
  " fill="#ed5d92" fill-rule="evenodd" fill-opacity="1"/>
<polyline clip-path="url(#clip072)" style="stroke:#ffffff; stroke-width:4; stroke-opacity:1; fill:none" points="
  544.783,800.401 545.839,800.401 
  "/>
<path clip-path="url(#clip072)" d="
M608.154 1109.92 L608.154 1109.92 L608.154 1092.72 L608.154 1092.72  Z
  " fill="#c68125" fill-rule="evenodd" fill-opacity="1"/>
<polyline clip-path="url(#clip072)" style="stroke:#ffffff; stroke-width:4; stroke-opacity:1; fill:none" points="
  608.154,1109.92 608.154,1109.92 
  "/>
<path clip-path="url(#clip072)" d="
M708.508 1109.92 L1042.32 1109.92 L1042.32 1092.72 L708.508 1092.72  Z
  " fill="#009af9" fill-rule="evenodd" fill-opacity="1"/>
<polyline clip-path="url(#clip072)" style="stroke:#ffffff; stroke-width:4; stroke-opacity:1; fill:none" points="
  708.508,1109.92 1042.32,1109.92 
  "/>
<path clip-path="url(#clip072)" d="
M713.79 1092.72 L856.399 1092.72 L856.399 1075.53 L713.79 1075.53  Z
  " fill="#009af9" fill-rule="evenodd" fill-opacity="1"/>
<polyline clip-path="url(#clip072)" style="stroke:#ffffff; stroke-width:4; stroke-opacity:1; fill:none" points="
  713.79,1092.72 856.399,1092.72 
  "/>
<path clip-path="url(#clip072)" d="
M716.959 1075.53 L718.015 1075.53 L718.015 1058.33 L716.959 1058.33  Z
  " fill="#009af9" fill-rule="evenodd" fill-opacity="1"/>
<polyline clip-path="url(#clip072)" style="stroke:#ffffff; stroke-width:4; stroke-opacity:1; fill:none" points="
  716.959,1075.53 718.015,1075.53 
  "/>
<path clip-path="url(#clip072)" d="
M732.805 1041.14 L1134.22 1041.14 L1134.22 1023.94 L732.805 1023.94  Z
  " fill="#00a98d" fill-rule="evenodd" fill-opacity="1"/>
<polyline clip-path="url(#clip072)" style="stroke:#ffffff; stroke-width:4; stroke-opacity:1; fill:none" points="
  732.805,1041.14 1134.22,1041.14 
  "/>
<path clip-path="url(#clip072)" d="
M735.974 1023.94 L948.302 1023.94 L948.302 1006.75 L735.974 1006.75  Z
  " fill="#00a98d" fill-rule="evenodd" fill-opacity="1"/>
<polyline clip-path="url(#clip072)" style="stroke:#ffffff; stroke-width:4; stroke-opacity:1; fill:none" points="
  735.974,1023.94 948.302,1023.94 
  "/>
<path clip-path="url(#clip072)" d="
M739.143 1006.75 L740.199 1006.75 L740.199 989.55 L739.143 989.55  Z
  " fill="#00a98d" fill-rule="evenodd" fill-opacity="1"/>
<polyline clip-path="url(#clip072)" style="stroke:#ffffff; stroke-width:4; stroke-opacity:1; fill:none" points="
  739.143,1006.75 740.199,1006.75 
  "/>
<path clip-path="url(#clip072)" d="
M766.608 972.355 L887.033 972.355 L887.033 955.16 L766.608 955.16  Z
  " fill="#8e971d" fill-rule="evenodd" fill-opacity="1"/>
<polyline clip-path="url(#clip072)" style="stroke:#ffffff; stroke-width:4; stroke-opacity:1; fill:none" points="
  766.608,972.355 887.033,972.355 
  "/>
<path clip-path="url(#clip072)" d="
M768.721 955.16 L769.777 955.16 L769.777 937.964 L768.721 937.964  Z
  " fill="#8e971d" fill-rule="evenodd" fill-opacity="1"/>
<polyline clip-path="url(#clip072)" style="stroke:#ffffff; stroke-width:4; stroke-opacity:1; fill:none" points="
  768.721,955.16 769.777,955.16 
  "/>
<path clip-path="url(#clip072)" d="
M780.341 920.769 L1004.29 920.769 L1004.29 903.574 L780.341 903.574  Z
  " fill="#00a8cb" fill-rule="evenodd" fill-opacity="1"/>
<polyline clip-path="url(#clip072)" style="stroke:#ffffff; stroke-width:4; stroke-opacity:1; fill:none" points="
  780.341,920.769 1004.29,920.769 
  "/>
<path clip-path="url(#clip072)" d="
M783.51 903.574 L784.566 903.574 L784.566 886.378 L783.51 886.378  Z
  " fill="#00a8cb" fill-rule="evenodd" fill-opacity="1"/>
<polyline clip-path="url(#clip072)" style="stroke:#ffffff; stroke-width:4; stroke-opacity:1; fill:none" points="
  783.51,903.574 784.566,903.574 
  "/>
<path clip-path="url(#clip072)" d="
M795.13 869.183 L795.13 869.183 L795.13 851.987 L795.13 851.987  Z
  " fill="#9b7fe8" fill-rule="evenodd" fill-opacity="1"/>
<polyline clip-path="url(#clip072)" style="stroke:#ffffff; stroke-width:4; stroke-opacity:1; fill:none" points="
  795.13,869.183 795.13,869.183 
  "/>
<path clip-path="url(#clip072)" d="
M818.37 834.792 L1110.98 834.792 L1110.98 817.597 L818.37 817.597  Z
  " fill="#608cf6" fill-rule="evenodd" fill-opacity="1"/>
<polyline clip-path="url(#clip072)" style="stroke:#ffffff; stroke-width:4; stroke-opacity:1; fill:none" points="
  818.37,834.792 1110.98,834.792 
  "/>
<path clip-path="url(#clip072)" d="
M823.652 817.597 L992.67 817.597 L992.67 800.401 L823.652 800.401  Z
  " fill="#608cf6" fill-rule="evenodd" fill-opacity="1"/>
<polyline clip-path="url(#clip072)" style="stroke:#ffffff; stroke-width:4; stroke-opacity:1; fill:none" points="
  823.652,817.597 992.67,817.597 
  "/>
<path clip-path="url(#clip072)" d="
M828.933 800.401 L829.99 800.401 L829.99 783.206 L828.933 783.206  Z
  " fill="#608cf6" fill-rule="evenodd" fill-opacity="1"/>
<polyline clip-path="url(#clip072)" style="stroke:#ffffff; stroke-width:4; stroke-opacity:1; fill:none" points="
  828.933,800.401 829.99,800.401 
  "/>
<path clip-path="url(#clip072)" d="
M834.215 766.011 L834.215 766.011 L834.215 748.815 L834.215 748.815  Z
  " fill="#f05f73" fill-rule="evenodd" fill-opacity="1"/>
<polyline clip-path="url(#clip072)" style="stroke:#ffffff; stroke-width:4; stroke-opacity:1; fill:none" points="
  834.215,766.011 834.215,766.011 
  "/>
<path clip-path="url(#clip072)" d="
M840.553 731.62 L960.979 731.62 L960.979 714.424 L840.553 714.424  Z
  " fill="#dd64b5" fill-rule="evenodd" fill-opacity="1"/>
<polyline clip-path="url(#clip072)" style="stroke:#ffffff; stroke-width:4; stroke-opacity:1; fill:none" points="
  840.553,731.62 960.979,731.62 
  "/>
<path clip-path="url(#clip072)" d="
M843.723 714.424 L843.723 714.424 L843.723 697.229 L843.723 697.229  Z
  " fill="#dd64b5" fill-rule="evenodd" fill-opacity="1"/>
<polyline clip-path="url(#clip072)" style="stroke:#ffffff; stroke-width:4; stroke-opacity:1; fill:none" points="
  843.723,714.424 843.723,714.424 
  "/>
<path clip-path="url(#clip072)" d="
M894.428 680.034 L895.484 680.034 L895.484 662.838 L894.428 662.838  Z
  " fill="#6b9e32" fill-rule="evenodd" fill-opacity="1"/>
<polyline clip-path="url(#clip072)" style="stroke:#ffffff; stroke-width:4; stroke-opacity:1; fill:none" points="
  894.428,680.034 895.484,680.034 
  "/>
<path clip-path="url(#clip072)" d="
M917.668 645.643 L1087.74 645.643 L1087.74 628.448 L917.668 628.448  Z
  " fill="#009af9" fill-rule="evenodd" fill-opacity="1"/>
<polyline clip-path="url(#clip072)" style="stroke:#ffffff; stroke-width:4; stroke-opacity:1; fill:none" points="
  917.668,645.643 1087.74,645.643 
  "/>
<path clip-path="url(#clip072)" d="
M921.893 628.448 L921.893 628.448 L921.893 611.252 L921.893 611.252  Z
  " fill="#009af9" fill-rule="evenodd" fill-opacity="1"/>
<polyline clip-path="url(#clip072)" style="stroke:#ffffff; stroke-width:4; stroke-opacity:1; fill:none" points="
  921.893,628.448 921.893,628.448 
  "/>
<path clip-path="url(#clip072)" d="
M933.513 594.057 L934.57 594.057 L934.57 576.862 L933.513 576.862  Z
  " fill="#e26f46" fill-rule="evenodd" fill-opacity="1"/>
<polyline clip-path="url(#clip072)" style="stroke:#ffffff; stroke-width:4; stroke-opacity:1; fill:none" points="
  933.513,594.057 934.57,594.057 
  "/>
<path clip-path="url(#clip072)" d="
M976.824 559.666 L1064.5 559.666 L1064.5 542.471 L976.824 542.471  Z
  " fill="#3da44d" fill-rule="evenodd" fill-opacity="1"/>
<polyline clip-path="url(#clip072)" style="stroke:#ffffff; stroke-width:4; stroke-opacity:1; fill:none" points="
  976.824,559.666 1064.5,559.666 
  "/>
<path clip-path="url(#clip072)" d="
M981.05 542.471 L981.05 542.471 L981.05 525.275 L981.05 525.275  Z
  " fill="#3da44d" fill-rule="evenodd" fill-opacity="1"/>
<polyline clip-path="url(#clip072)" style="stroke:#ffffff; stroke-width:4; stroke-opacity:1; fill:none" points="
  981.05,542.471 981.05,542.471 
  "/>
<path clip-path="url(#clip072)" d="
M1028.59 508.08 L1028.59 508.08 L1028.59 490.885 L1028.59 490.885  Z
  " fill="#c271d2" fill-rule="evenodd" fill-opacity="1"/>
<polyline clip-path="url(#clip072)" style="stroke:#ffffff; stroke-width:4; stroke-opacity:1; fill:none" points="
  1028.59,508.08 1028.59,508.08 
  "/>
<path clip-path="url(#clip072)" d="
M1161.69 1109.92 L2167.32 1109.92 L2167.32 1092.72 L1161.69 1092.72  Z
  " fill="#009af9" fill-rule="evenodd" fill-opacity="1"/>
<polyline clip-path="url(#clip072)" style="stroke:#ffffff; stroke-width:4; stroke-opacity:1; fill:none" points="
  1161.69,1109.92 2167.32,1109.92 
  "/>
<path clip-path="url(#clip072)" d="
M1162.74 1092.72 L1445.84 1092.72 L1445.84 1075.53 L1162.74 1075.53  Z
  " fill="#009af9" fill-rule="evenodd" fill-opacity="1"/>
<polyline clip-path="url(#clip072)" style="stroke:#ffffff; stroke-width:4; stroke-opacity:1; fill:none" points="
  1162.74,1092.72 1445.84,1092.72 
  "/>
<path clip-path="url(#clip072)" d="
M1165.91 1075.53 L1166.97 1075.53 L1166.97 1058.33 L1165.91 1058.33  Z
  " fill="#009af9" fill-rule="evenodd" fill-opacity="1"/>
<polyline clip-path="url(#clip072)" style="stroke:#ffffff; stroke-width:4; stroke-opacity:1; fill:none" points="
  1165.91,1075.53 1166.97,1075.53 
  "/>
<path clip-path="url(#clip072)" d="
M1183.87 1041.14 L2107.11 1041.14 L2107.11 1023.94 L1183.87 1023.94  Z
  " fill="#ac8d18" fill-rule="evenodd" fill-opacity="1"/>
<polyline clip-path="url(#clip072)" style="stroke:#ffffff; stroke-width:4; stroke-opacity:1; fill:none" points="
  1183.87,1041.14 2107.11,1041.14 
  "/>
<path clip-path="url(#clip072)" d="
M1187.04 1023.94 L1305.35 1023.94 L1305.35 1006.75 L1187.04 1006.75  Z
  " fill="#ac8d18" fill-rule="evenodd" fill-opacity="1"/>
<polyline clip-path="url(#clip072)" style="stroke:#ffffff; stroke-width:4; stroke-opacity:1; fill:none" points="
  1187.04,1023.94 1305.35,1023.94 
  "/>
<path clip-path="url(#clip072)" d="
M1190.21 1006.75 L1191.27 1006.75 L1191.27 989.55 L1190.21 989.55  Z
  " fill="#ac8d18" fill-rule="evenodd" fill-opacity="1"/>
<polyline clip-path="url(#clip072)" style="stroke:#ffffff; stroke-width:4; stroke-opacity:1; fill:none" points="
  1190.21,1006.75 1191.27,1006.75 
  "/>
<path clip-path="url(#clip072)" d="
M1214.51 972.355 L2280.35 972.355 L2280.35 955.16 L1214.51 955.16  Z
  " fill="#00a9ad" fill-rule="evenodd" fill-opacity="1"/>
<polyline clip-path="url(#clip072)" style="stroke:#ffffff; stroke-width:4; stroke-opacity:1; fill:none" points="
  1214.51,972.355 2280.35,972.355 
  "/>
<path clip-path="url(#clip072)" d="
M1217.67 955.16 L2155.7 955.16 L2155.7 937.964 L1217.67 937.964  Z
  " fill="#00a9ad" fill-rule="evenodd" fill-opacity="1"/>
<polyline clip-path="url(#clip072)" style="stroke:#ffffff; stroke-width:4; stroke-opacity:1; fill:none" points="
  1217.67,955.16 2155.7,955.16 
  "/>
<path clip-path="url(#clip072)" d="
M1220.84 937.964 L1358.16 937.964 L1358.16 920.769 L1220.84 920.769  Z
  " fill="#00a9ad" fill-rule="evenodd" fill-opacity="1"/>
<polyline clip-path="url(#clip072)" style="stroke:#ffffff; stroke-width:4; stroke-opacity:1; fill:none" points="
  1220.84,937.964 1358.16,937.964 
  "/>
<path clip-path="url(#clip072)" d="
M1222.96 920.769 L1222.96 920.769 L1222.96 903.574 L1222.96 903.574  Z
  " fill="#00a9ad" fill-rule="evenodd" fill-opacity="1"/>
<polyline clip-path="url(#clip072)" style="stroke:#ffffff; stroke-width:4; stroke-opacity:1; fill:none" points="
  1222.96,920.769 1222.96,920.769 
  "/>
<path clip-path="url(#clip072)" d="
M1230.35 886.378 L1230.35 886.378 L1230.35 869.183 L1230.35 869.183  Z
  " fill="#ed5d92" fill-rule="evenodd" fill-opacity="1"/>
<polyline clip-path="url(#clip072)" style="stroke:#ffffff; stroke-width:4; stroke-opacity:1; fill:none" points="
  1230.35,886.378 1230.35,886.378 
  "/>
<path clip-path="url(#clip072)" d="
M1243.03 851.987 L1380.34 851.987 L1380.34 834.792 L1243.03 834.792  Z
  " fill="#c68125" fill-rule="evenodd" fill-opacity="1"/>
<polyline clip-path="url(#clip072)" style="stroke:#ffffff; stroke-width:4; stroke-opacity:1; fill:none" points="
  1243.03,851.987 1380.34,851.987 
  "/>
<path clip-path="url(#clip072)" d="
M1250.42 834.792 L1250.42 834.792 L1250.42 817.597 L1250.42 817.597  Z
  " fill="#c68125" fill-rule="evenodd" fill-opacity="1"/>
<polyline clip-path="url(#clip072)" style="stroke:#ffffff; stroke-width:4; stroke-opacity:1; fill:none" points="
  1250.42,834.792 1250.42,834.792 
  "/>
<path clip-path="url(#clip072)" d="
M1269.44 800.401 L2094.43 800.401 L2094.43 783.206 L1269.44 783.206  Z
  " fill="#00a98d" fill-rule="evenodd" fill-opacity="1"/>
<polyline clip-path="url(#clip072)" style="stroke:#ffffff; stroke-width:4; stroke-opacity:1; fill:none" points="
  1269.44,800.401 2094.43,800.401 
  "/>
<path clip-path="url(#clip072)" d="
M1271.55 783.206 L1272.61 783.206 L1272.61 766.011 L1271.55 766.011  Z
  " fill="#00a98d" fill-rule="evenodd" fill-opacity="1"/>
<polyline clip-path="url(#clip072)" style="stroke:#ffffff; stroke-width:4; stroke-opacity:1; fill:none" points="
  1271.55,783.206 1272.61,783.206 
  "/>
<path clip-path="url(#clip072)" d="
M1276.83 748.815 L1276.83 748.815 L1276.83 731.62 L1276.83 731.62  Z
  " fill="#8e971d" fill-rule="evenodd" fill-opacity="1"/>
<polyline clip-path="url(#clip072)" style="stroke:#ffffff; stroke-width:4; stroke-opacity:1; fill:none" points="
  1276.83,748.815 1276.83,748.815 
  "/>
<path clip-path="url(#clip072)" d="
M1289.51 714.424 L2055.36 714.424 L2055.36 697.229 L1289.51 697.229  Z
  " fill="#00a8cb" fill-rule="evenodd" fill-opacity="1"/>
<polyline clip-path="url(#clip072)" style="stroke:#ffffff; stroke-width:4; stroke-opacity:1; fill:none" points="
  1289.51,714.424 2055.36,714.424 
  "/>
<path clip-path="url(#clip072)" d="
M1292.68 697.229 L1292.68 697.229 L1292.68 680.034 L1292.68 680.034  Z
  " fill="#00a8cb" fill-rule="evenodd" fill-opacity="1"/>
<polyline clip-path="url(#clip072)" style="stroke:#ffffff; stroke-width:4; stroke-opacity:1; fill:none" points="
  1292.68,697.229 1292.68,697.229 
  "/>
<path clip-path="url(#clip072)" d="
M1308.52 662.838 L1309.58 662.838 L1309.58 645.643 L1308.52 645.643  Z
  " fill="#9b7fe8" fill-rule="evenodd" fill-opacity="1"/>
<polyline clip-path="url(#clip072)" style="stroke:#ffffff; stroke-width:4; stroke-opacity:1; fill:none" points="
  1308.52,662.838 1309.58,662.838 
  "/>
<path clip-path="url(#clip072)" d="
M1332.81 628.448 L2258.17 628.448 L2258.17 611.252 L1332.81 611.252  Z
  " fill="#608cf6" fill-rule="evenodd" fill-opacity="1"/>
<polyline clip-path="url(#clip072)" style="stroke:#ffffff; stroke-width:4; stroke-opacity:1; fill:none" points="
  1332.81,628.448 2258.17,628.448 
  "/>
<path clip-path="url(#clip072)" d="
M1338.09 611.252 L2144.08 611.252 L2144.08 594.057 L1338.09 594.057  Z
  " fill="#608cf6" fill-rule="evenodd" fill-opacity="1"/>
<polyline clip-path="url(#clip072)" style="stroke:#ffffff; stroke-width:4; stroke-opacity:1; fill:none" points="
  1338.09,611.252 2144.08,611.252 
  "/>
<path clip-path="url(#clip072)" d="
M1343.37 594.057 L1343.37 594.057 L1343.37 576.862 L1343.37 576.862  Z
  " fill="#608cf6" fill-rule="evenodd" fill-opacity="1"/>
<polyline clip-path="url(#clip072)" style="stroke:#ffffff; stroke-width:4; stroke-opacity:1; fill:none" points="
  1343.37,594.057 1343.37,594.057 
  "/>
<path clip-path="url(#clip072)" d="
M1362.39 559.666 L1966.62 559.666 L1966.62 542.471 L1362.39 542.471  Z
  " fill="#f05f73" fill-rule="evenodd" fill-opacity="1"/>
<polyline clip-path="url(#clip072)" style="stroke:#ffffff; stroke-width:4; stroke-opacity:1; fill:none" points="
  1362.39,559.666 1966.62,559.666 
  "/>
<path clip-path="url(#clip072)" d="
M1367.67 542.471 L1367.67 542.471 L1367.67 525.275 L1367.67 525.275  Z
  " fill="#f05f73" fill-rule="evenodd" fill-opacity="1"/>
<polyline clip-path="url(#clip072)" style="stroke:#ffffff; stroke-width:4; stroke-opacity:1; fill:none" points="
  1367.67,542.471 1367.67,542.471 
  "/>
<path clip-path="url(#clip072)" d="
M1396.19 508.08 L2235.99 508.08 L2235.99 490.885 L1396.19 490.885  Z
  " fill="#dd64b5" fill-rule="evenodd" fill-opacity="1"/>
<polyline clip-path="url(#clip072)" style="stroke:#ffffff; stroke-width:4; stroke-opacity:1; fill:none" points="
  1396.19,508.08 2235.99,508.08 
  "/>
<path clip-path="url(#clip072)" d="
M1404.64 490.885 L1850.43 490.885 L1850.43 473.689 L1404.64 473.689  Z
  " fill="#dd64b5" fill-rule="evenodd" fill-opacity="1"/>
<polyline clip-path="url(#clip072)" style="stroke:#ffffff; stroke-width:4; stroke-opacity:1; fill:none" points="
  1404.64,490.885 1850.43,490.885 
  "/>
<path clip-path="url(#clip072)" d="
M1407.81 473.689 L1407.81 473.689 L1407.81 456.494 L1407.81 456.494  Z
  " fill="#dd64b5" fill-rule="evenodd" fill-opacity="1"/>
<polyline clip-path="url(#clip072)" style="stroke:#ffffff; stroke-width:4; stroke-opacity:1; fill:none" points="
  1407.81,473.689 1407.81,473.689 
  "/>
<path clip-path="url(#clip072)" d="
M1424.71 439.299 L2041.63 439.299 L2041.63 422.103 L1424.71 422.103  Z
  " fill="#6b9e32" fill-rule="evenodd" fill-opacity="1"/>
<polyline clip-path="url(#clip072)" style="stroke:#ffffff; stroke-width:4; stroke-opacity:1; fill:none" points="
  1424.71,439.299 2041.63,439.299 
  "/>
<path clip-path="url(#clip072)" d="
M1428.94 422.103 L1428.94 422.103 L1428.94 404.908 L1428.94 404.908  Z
  " fill="#6b9e32" fill-rule="evenodd" fill-opacity="1"/>
<polyline clip-path="url(#clip072)" style="stroke:#ffffff; stroke-width:4; stroke-opacity:1; fill:none" points="
  1428.94,422.103 1428.94,422.103 
  "/>
<path clip-path="url(#clip072)" d="
M1461.68 387.712 L2213.8 387.712 L2213.8 370.517 L1461.68 370.517  Z
  " fill="#009af9" fill-rule="evenodd" fill-opacity="1"/>
<polyline clip-path="url(#clip072)" style="stroke:#ffffff; stroke-width:4; stroke-opacity:1; fill:none" points="
  1461.68,387.712 2213.8,387.712 
  "/>
<path clip-path="url(#clip072)" d="
M1464.85 370.517 L1465.91 370.517 L1465.91 353.322 L1464.85 353.322  Z
  " fill="#009af9" fill-rule="evenodd" fill-opacity="1"/>
<polyline clip-path="url(#clip072)" style="stroke:#ffffff; stroke-width:4; stroke-opacity:1; fill:none" points="
  1464.85,370.517 1465.91,370.517 
  "/>
<path clip-path="url(#clip072)" d="
M1781.76 336.126 L1782.82 336.126 L1782.82 318.931 L1781.76 318.931  Z
  " fill="#e26f46" fill-rule="evenodd" fill-opacity="1"/>
<polyline clip-path="url(#clip072)" style="stroke:#ffffff; stroke-width:4; stroke-opacity:1; fill:none" points="
  1781.76,336.126 1782.82,336.126 
  "/>
<path clip-path="url(#clip072)" d="
M1801.83 301.736 L2081.76 301.736 L2081.76 284.54 L1801.83 284.54  Z
  " fill="#3da44d" fill-rule="evenodd" fill-opacity="1"/>
<polyline clip-path="url(#clip072)" style="stroke:#ffffff; stroke-width:4; stroke-opacity:1; fill:none" points="
  1801.83,301.736 2081.76,301.736 
  "/>
<path clip-path="url(#clip072)" d="
M1803.95 284.54 L1805 284.54 L1805 267.345 L1803.95 267.345  Z
  " fill="#3da44d" fill-rule="evenodd" fill-opacity="1"/>
<polyline clip-path="url(#clip072)" style="stroke:#ffffff; stroke-width:4; stroke-opacity:1; fill:none" points="
  1803.95,284.54 1805,284.54 
  "/>
<path clip-path="url(#clip072)" d="
M1821.9 250.149 L1822.96 250.149 L1822.96 232.954 L1821.9 232.954  Z
  " fill="#c271d2" fill-rule="evenodd" fill-opacity="1"/>
<polyline clip-path="url(#clip072)" style="stroke:#ffffff; stroke-width:4; stroke-opacity:1; fill:none" points="
  1821.9,250.149 1822.96,250.149 
  "/>
<path clip-path="url(#clip072)" d="
M1951.84 215.759 L1951.84 215.759 L1951.84 198.563 L1951.84 198.563  Z
  " fill="#ac8d18" fill-rule="evenodd" fill-opacity="1"/>
<polyline clip-path="url(#clip072)" style="stroke:#ffffff; stroke-width:4; stroke-opacity:1; fill:none" points="
  1951.84,215.759 1951.84,215.759 
  "/>
<path clip-path="url(#clip072)" d="
M1989.86 181.368 L2189.51 181.368 L2189.51 164.173 L1989.86 164.173  Z
  " fill="#00a9ad" fill-rule="evenodd" fill-opacity="1"/>
<polyline clip-path="url(#clip072)" style="stroke:#ffffff; stroke-width:4; stroke-opacity:1; fill:none" points="
  1989.86,181.368 2189.51,181.368 
  "/>
<path clip-path="url(#clip072)" d="
M1993.03 164.173 L1993.03 164.173 L1993.03 146.977 L1993.03 146.977  Z
  " fill="#00a9ad" fill-rule="evenodd" fill-opacity="1"/>
<polyline clip-path="url(#clip072)" style="stroke:#ffffff; stroke-width:4; stroke-opacity:1; fill:none" points="
  1993.03,164.173 1993.03,164.173 
  "/>
<path clip-path="url(#clip072)" d="
M2026.84 129.782 L2027.89 129.782 L2027.89 112.587 L2026.84 112.587  Z
  " fill="#ed5d92" fill-rule="evenodd" fill-opacity="1"/>
<polyline clip-path="url(#clip072)" style="stroke:#ffffff; stroke-width:4; stroke-opacity:1; fill:none" points="
  2026.84,129.782 2027.89,129.782 
  "/>
<path clip-path="url(#clip072)" d="
M2129.29 95.3911 L2130.35 95.3911 L2130.35 78.1958 L2129.29 78.1958  Z
  " fill="#c68125" fill-rule="evenodd" fill-opacity="1"/>
<polyline clip-path="url(#clip072)" style="stroke:#ffffff; stroke-width:4; stroke-opacity:1; fill:none" points="
  2129.29,95.3911 2130.35,95.3911 
  "/>
<circle clip-path="url(#clip072)" cx="265.903" cy="1109.92" r="14" fill="#ffffff" fill-rule="evenodd" fill-opacity="1" stroke="#000000" stroke-opacity="1" stroke-width="3.2"/>
<circle clip-path="url(#clip072)" cx="349.356" cy="1058.33" r="14" fill="#ffffff" fill-rule="evenodd" fill-opacity="1" stroke="#000000" stroke-opacity="1" stroke-width="3.2"/>
<circle clip-path="url(#clip072)" cx="400.061" cy="1006.75" r="14" fill="#ffffff" fill-rule="evenodd" fill-opacity="1" stroke="#000000" stroke-opacity="1" stroke-width="3.2"/>
<circle clip-path="url(#clip072)" cx="432.808" cy="937.964" r="14" fill="#ffffff" fill-rule="evenodd" fill-opacity="1" stroke="#000000" stroke-opacity="1" stroke-width="3.2"/>
<circle clip-path="url(#clip072)" cx="457.105" cy="886.378" r="14" fill="#ffffff" fill-rule="evenodd" fill-opacity="1" stroke="#000000" stroke-opacity="1" stroke-width="3.2"/>
<circle clip-path="url(#clip072)" cx="497.246" cy="851.987" r="14" fill="#ffffff" fill-rule="evenodd" fill-opacity="1" stroke="#000000" stroke-opacity="1" stroke-width="3.2"/>
<circle clip-path="url(#clip072)" cx="541.614" cy="817.597" r="14" fill="#ffffff" fill-rule="evenodd" fill-opacity="1" stroke="#000000" stroke-opacity="1" stroke-width="3.2"/>
<circle clip-path="url(#clip072)" cx="608.154" cy="1109.92" r="14" fill="#ffffff" fill-rule="evenodd" fill-opacity="1" stroke="#000000" stroke-opacity="1" stroke-width="3.2"/>
<circle clip-path="url(#clip072)" cx="708.508" cy="1109.92" r="14" fill="#ffffff" fill-rule="evenodd" fill-opacity="1" stroke="#000000" stroke-opacity="1" stroke-width="3.2"/>
<circle clip-path="url(#clip072)" cx="732.805" cy="1041.14" r="14" fill="#ffffff" fill-rule="evenodd" fill-opacity="1" stroke="#000000" stroke-opacity="1" stroke-width="3.2"/>
<circle clip-path="url(#clip072)" cx="766.608" cy="972.355" r="14" fill="#ffffff" fill-rule="evenodd" fill-opacity="1" stroke="#000000" stroke-opacity="1" stroke-width="3.2"/>
<circle clip-path="url(#clip072)" cx="780.341" cy="920.769" r="14" fill="#ffffff" fill-rule="evenodd" fill-opacity="1" stroke="#000000" stroke-opacity="1" stroke-width="3.2"/>
<circle clip-path="url(#clip072)" cx="795.13" cy="869.183" r="14" fill="#ffffff" fill-rule="evenodd" fill-opacity="1" stroke="#000000" stroke-opacity="1" stroke-width="3.2"/>
<circle clip-path="url(#clip072)" cx="818.37" cy="834.792" r="14" fill="#ffffff" fill-rule="evenodd" fill-opacity="1" stroke="#000000" stroke-opacity="1" stroke-width="3.2"/>
<circle clip-path="url(#clip072)" cx="834.215" cy="766.011" r="14" fill="#ffffff" fill-rule="evenodd" fill-opacity="1" stroke="#000000" stroke-opacity="1" stroke-width="3.2"/>
<circle clip-path="url(#clip072)" cx="840.553" cy="731.62" r="14" fill="#ffffff" fill-rule="evenodd" fill-opacity="1" stroke="#000000" stroke-opacity="1" stroke-width="3.2"/>
<circle clip-path="url(#clip072)" cx="894.428" cy="680.034" r="14" fill="#ffffff" fill-rule="evenodd" fill-opacity="1" stroke="#000000" stroke-opacity="1" stroke-width="3.2"/>
<circle clip-path="url(#clip072)" cx="917.668" cy="645.643" r="14" fill="#ffffff" fill-rule="evenodd" fill-opacity="1" stroke="#000000" stroke-opacity="1" stroke-width="3.2"/>
<circle clip-path="url(#clip072)" cx="933.513" cy="594.057" r="14" fill="#ffffff" fill-rule="evenodd" fill-opacity="1" stroke="#000000" stroke-opacity="1" stroke-width="3.2"/>
<circle clip-path="url(#clip072)" cx="976.824" cy="559.666" r="14" fill="#ffffff" fill-rule="evenodd" fill-opacity="1" stroke="#000000" stroke-opacity="1" stroke-width="3.2"/>
<circle clip-path="url(#clip072)" cx="1028.59" cy="508.08" r="14" fill="#ffffff" fill-rule="evenodd" fill-opacity="1" stroke="#000000" stroke-opacity="1" stroke-width="3.2"/>
<circle clip-path="url(#clip072)" cx="1161.69" cy="1109.92" r="14" fill="#ffffff" fill-rule="evenodd" fill-opacity="1" stroke="#000000" stroke-opacity="1" stroke-width="3.2"/>
<circle clip-path="url(#clip072)" cx="1183.87" cy="1041.14" r="14" fill="#ffffff" fill-rule="evenodd" fill-opacity="1" stroke="#000000" stroke-opacity="1" stroke-width="3.2"/>
<circle clip-path="url(#clip072)" cx="1214.51" cy="972.355" r="14" fill="#ffffff" fill-rule="evenodd" fill-opacity="1" stroke="#000000" stroke-opacity="1" stroke-width="3.2"/>
<circle clip-path="url(#clip072)" cx="1230.35" cy="886.378" r="14" fill="#ffffff" fill-rule="evenodd" fill-opacity="1" stroke="#000000" stroke-opacity="1" stroke-width="3.2"/>
<circle clip-path="url(#clip072)" cx="1243.03" cy="851.987" r="14" fill="#ffffff" fill-rule="evenodd" fill-opacity="1" stroke="#000000" stroke-opacity="1" stroke-width="3.2"/>
<circle clip-path="url(#clip072)" cx="1269.44" cy="800.401" r="14" fill="#ffffff" fill-rule="evenodd" fill-opacity="1" stroke="#000000" stroke-opacity="1" stroke-width="3.2"/>
<circle clip-path="url(#clip072)" cx="1276.83" cy="748.815" r="14" fill="#ffffff" fill-rule="evenodd" fill-opacity="1" stroke="#000000" stroke-opacity="1" stroke-width="3.2"/>
<circle clip-path="url(#clip072)" cx="1289.51" cy="714.424" r="14" fill="#ffffff" fill-rule="evenodd" fill-opacity="1" stroke="#000000" stroke-opacity="1" stroke-width="3.2"/>
<circle clip-path="url(#clip072)" cx="1308.52" cy="662.838" r="14" fill="#ffffff" fill-rule="evenodd" fill-opacity="1" stroke="#000000" stroke-opacity="1" stroke-width="3.2"/>
<circle clip-path="url(#clip072)" cx="1332.81" cy="628.448" r="14" fill="#ffffff" fill-rule="evenodd" fill-opacity="1" stroke="#000000" stroke-opacity="1" stroke-width="3.2"/>
<circle clip-path="url(#clip072)" cx="1362.39" cy="559.666" r="14" fill="#ffffff" fill-rule="evenodd" fill-opacity="1" stroke="#000000" stroke-opacity="1" stroke-width="3.2"/>
<circle clip-path="url(#clip072)" cx="1396.19" cy="508.08" r="14" fill="#ffffff" fill-rule="evenodd" fill-opacity="1" stroke="#000000" stroke-opacity="1" stroke-width="3.2"/>
<circle clip-path="url(#clip072)" cx="1424.71" cy="439.299" r="14" fill="#ffffff" fill-rule="evenodd" fill-opacity="1" stroke="#000000" stroke-opacity="1" stroke-width="3.2"/>
<circle clip-path="url(#clip072)" cx="1461.68" cy="387.712" r="14" fill="#ffffff" fill-rule="evenodd" fill-opacity="1" stroke="#000000" stroke-opacity="1" stroke-width="3.2"/>
<circle clip-path="url(#clip072)" cx="1781.76" cy="336.126" r="14" fill="#ffffff" fill-rule="evenodd" fill-opacity="1" stroke="#000000" stroke-opacity="1" stroke-width="3.2"/>
<circle clip-path="url(#clip072)" cx="1801.83" cy="301.736" r="14" fill="#ffffff" fill-rule="evenodd" fill-opacity="1" stroke="#000000" stroke-opacity="1" stroke-width="3.2"/>
<circle clip-path="url(#clip072)" cx="1821.9" cy="250.149" r="14" fill="#ffffff" fill-rule="evenodd" fill-opacity="1" stroke="#000000" stroke-opacity="1" stroke-width="3.2"/>
<circle clip-path="url(#clip072)" cx="1951.84" cy="215.759" r="14" fill="#ffffff" fill-rule="evenodd" fill-opacity="1" stroke="#000000" stroke-opacity="1" stroke-width="3.2"/>
<circle clip-path="url(#clip072)" cx="1989.86" cy="181.368" r="14" fill="#ffffff" fill-rule="evenodd" fill-opacity="1" stroke="#000000" stroke-opacity="1" stroke-width="3.2"/>
<circle clip-path="url(#clip072)" cx="2026.84" cy="129.782" r="14" fill="#ffffff" fill-rule="evenodd" fill-opacity="1" stroke="#000000" stroke-opacity="1" stroke-width="3.2"/>
<circle clip-path="url(#clip072)" cx="2129.29" cy="95.3911" r="14" fill="#ffffff" fill-rule="evenodd" fill-opacity="1" stroke="#000000" stroke-opacity="1" stroke-width="3.2"/>
<path clip-path="url(#clip070)" d="
M205.121 1423.18 L2352.76 1423.18 L2352.76 1301.67 L205.121 1301.67  Z
  " fill="#ffffff" fill-rule="evenodd" fill-opacity="1"/>
<defs>
  <clipPath id="clip073">
    <rect x="205" y="1301" width="2149" height="123"/>
  </clipPath>
</defs>
<polyline clip-path="url(#clip073)" style="stroke:#000000; stroke-width:2; stroke-opacity:0.1; fill:none" points="
  265.903,1423.18 265.903,1301.67 
  "/>
<polyline clip-path="url(#clip073)" style="stroke:#000000; stroke-width:2; stroke-opacity:0.1; fill:none" points="
  794.084,1423.18 794.084,1301.67 
  "/>
<polyline clip-path="url(#clip073)" style="stroke:#000000; stroke-width:2; stroke-opacity:0.1; fill:none" points="
  1322.27,1423.18 1322.27,1301.67 
  "/>
<polyline clip-path="url(#clip073)" style="stroke:#000000; stroke-width:2; stroke-opacity:0.1; fill:none" points="
  1850.45,1423.18 1850.45,1301.67 
  "/>
<polyline clip-path="url(#clip070)" style="stroke:#000000; stroke-width:4; stroke-opacity:1; fill:none" points="
  205.121,1423.18 2352.76,1423.18 
  "/>
<polyline clip-path="url(#clip070)" style="stroke:#000000; stroke-width:4; stroke-opacity:1; fill:none" points="
  265.903,1423.18 265.903,1421.72 
  "/>
<polyline clip-path="url(#clip070)" style="stroke:#000000; stroke-width:4; stroke-opacity:1; fill:none" points="
  794.084,1423.18 794.084,1421.72 
  "/>
<polyline clip-path="url(#clip070)" style="stroke:#000000; stroke-width:4; stroke-opacity:1; fill:none" points="
  1322.27,1423.18 1322.27,1421.72 
  "/>
<polyline clip-path="url(#clip070)" style="stroke:#000000; stroke-width:4; stroke-opacity:1; fill:none" points="
  1850.45,1423.18 1850.45,1421.72 
  "/>
<path clip-path="url(#clip070)" d="M 0 0 M182.964 1452.37 Q179.353 1452.37 177.524 1455.94 Q175.718 1459.48 175.718 1466.61 Q175.718 1473.71 177.524 1477.28 Q179.353 1480.82 182.964 1480.82 Q186.598 1480.82 188.404 1477.28 Q190.232 1473.71 190.232 1466.61 Q190.232 1459.48 188.404 1455.94 Q186.598 1452.37 182.964 1452.37 M182.964 1448.67 Q188.774 1448.67 191.829 1453.27 Q194.908 1457.86 194.908 1466.61 Q194.908 1475.33 191.829 1479.94 Q188.774 1484.52 182.964 1484.52 Q177.154 1484.52 174.075 1479.94 Q171.019 1475.33 171.019 1466.61 Q171.019 1457.86 174.075 1453.27 Q177.154 1448.67 182.964 1448.67 Z" fill="#000000" fill-rule="evenodd" fill-opacity="1" /><path clip-path="url(#clip070)" d="M 0 0 M203.126 1477.97 L208.01 1477.97 L208.01 1483.85 L203.126 1483.85 L203.126 1477.97 Z" fill="#000000" fill-rule="evenodd" fill-opacity="1" /><path clip-path="url(#clip070)" d="M 0 0 M228.195 1452.37 Q224.584 1452.37 222.755 1455.94 Q220.95 1459.48 220.95 1466.61 Q220.95 1473.71 222.755 1477.28 Q224.584 1480.82 228.195 1480.82 Q231.829 1480.82 233.635 1477.28 Q235.463 1473.71 235.463 1466.61 Q235.463 1459.48 233.635 1455.94 Q231.829 1452.37 228.195 1452.37 M228.195 1448.67 Q234.005 1448.67 237.061 1453.27 Q240.139 1457.86 240.139 1466.61 Q240.139 1475.33 237.061 1479.94 Q234.005 1484.52 228.195 1484.52 Q222.385 1484.52 219.306 1479.94 Q216.251 1475.33 216.251 1466.61 Q216.251 1457.86 219.306 1453.27 Q222.385 1448.67 228.195 1448.67 Z" fill="#000000" fill-rule="evenodd" fill-opacity="1" /><path clip-path="url(#clip070)" d="M 0 0 M258.357 1452.37 Q254.746 1452.37 252.917 1455.94 Q251.112 1459.48 251.112 1466.61 Q251.112 1473.71 252.917 1477.28 Q254.746 1480.82 258.357 1480.82 Q261.991 1480.82 263.797 1477.28 Q265.625 1473.71 265.625 1466.61 Q265.625 1459.48 263.797 1455.94 Q261.991 1452.37 258.357 1452.37 M258.357 1448.67 Q264.167 1448.67 267.223 1453.27 Q270.301 1457.86 270.301 1466.61 Q270.301 1475.33 267.223 1479.94 Q264.167 1484.52 258.357 1484.52 Q252.547 1484.52 249.468 1479.94 Q246.412 1475.33 246.412 1466.61 Q246.412 1457.86 249.468 1453.27 Q252.547 1448.67 258.357 1448.67 Z" fill="#000000" fill-rule="evenodd" fill-opacity="1" /><path clip-path="url(#clip070)" d="M 0 0 M288.519 1452.37 Q284.908 1452.37 283.079 1455.94 Q281.273 1459.48 281.273 1466.61 Q281.273 1473.71 283.079 1477.28 Q284.908 1480.82 288.519 1480.82 Q292.153 1480.82 293.959 1477.28 Q295.787 1473.71 295.787 1466.61 Q295.787 1459.48 293.959 1455.94 Q292.153 1452.37 288.519 1452.37 M288.519 1448.67 Q294.329 1448.67 297.384 1453.27 Q300.463 1457.86 300.463 1466.61 Q300.463 1475.33 297.384 1479.94 Q294.329 1484.52 288.519 1484.52 Q282.709 1484.52 279.63 1479.94 Q276.574 1475.33 276.574 1466.61 Q276.574 1457.86 279.63 1453.27 Q282.709 1448.67 288.519 1448.67 Z" fill="#000000" fill-rule="evenodd" fill-opacity="1" /><path clip-path="url(#clip070)" d="M 0 0 M318.681 1452.37 Q315.069 1452.37 313.241 1455.94 Q311.435 1459.48 311.435 1466.61 Q311.435 1473.71 313.241 1477.28 Q315.069 1480.82 318.681 1480.82 Q322.315 1480.82 324.12 1477.28 Q325.949 1473.71 325.949 1466.61 Q325.949 1459.48 324.12 1455.94 Q322.315 1452.37 318.681 1452.37 M318.681 1448.67 Q324.491 1448.67 327.546 1453.27 Q330.625 1457.86 330.625 1466.61 Q330.625 1475.33 327.546 1479.94 Q324.491 1484.52 318.681 1484.52 Q312.87 1484.52 309.792 1479.94 Q306.736 1475.33 306.736 1466.61 Q306.736 1457.86 309.792 1453.27 Q312.87 1448.67 318.681 1448.67 Z" fill="#000000" fill-rule="evenodd" fill-opacity="1" /><path clip-path="url(#clip070)" d="M 0 0 M348.842 1452.37 Q345.231 1452.37 343.403 1455.94 Q341.597 1459.48 341.597 1466.61 Q341.597 1473.71 343.403 1477.28 Q345.231 1480.82 348.842 1480.82 Q352.477 1480.82 354.282 1477.28 Q356.111 1473.71 356.111 1466.61 Q356.111 1459.48 354.282 1455.94 Q352.477 1452.37 348.842 1452.37 M348.842 1448.67 Q354.653 1448.67 357.708 1453.27 Q360.787 1457.86 360.787 1466.61 Q360.787 1475.33 357.708 1479.94 Q354.653 1484.52 348.842 1484.52 Q343.032 1484.52 339.954 1479.94 Q336.898 1475.33 336.898 1466.61 Q336.898 1457.86 339.954 1453.27 Q343.032 1448.67 348.842 1448.67 Z" fill="#000000" fill-rule="evenodd" fill-opacity="1" /><path clip-path="url(#clip070)" d="M 0 0 M711.642 1452.37 Q708.031 1452.37 706.203 1455.94 Q704.397 1459.48 704.397 1466.61 Q704.397 1473.71 706.203 1477.28 Q708.031 1480.82 711.642 1480.82 Q715.277 1480.82 717.082 1477.28 Q718.911 1473.71 718.911 1466.61 Q718.911 1459.48 717.082 1455.94 Q715.277 1452.37 711.642 1452.37 M711.642 1448.67 Q717.453 1448.67 720.508 1453.27 Q723.587 1457.86 723.587 1466.61 Q723.587 1475.33 720.508 1479.94 Q717.453 1484.52 711.642 1484.52 Q705.832 1484.52 702.754 1479.94 Q699.698 1475.33 699.698 1466.61 Q699.698 1457.86 702.754 1453.27 Q705.832 1448.67 711.642 1448.67 Z" fill="#000000" fill-rule="evenodd" fill-opacity="1" /><path clip-path="url(#clip070)" d="M 0 0 M731.804 1477.97 L736.689 1477.97 L736.689 1483.85 L731.804 1483.85 L731.804 1477.97 Z" fill="#000000" fill-rule="evenodd" fill-opacity="1" /><path clip-path="url(#clip070)" d="M 0 0 M756.874 1452.37 Q753.263 1452.37 751.434 1455.94 Q749.628 1459.48 749.628 1466.61 Q749.628 1473.71 751.434 1477.28 Q753.263 1480.82 756.874 1480.82 Q760.508 1480.82 762.313 1477.28 Q764.142 1473.71 764.142 1466.61 Q764.142 1459.48 762.313 1455.94 Q760.508 1452.37 756.874 1452.37 M756.874 1448.67 Q762.684 1448.67 765.739 1453.27 Q768.818 1457.86 768.818 1466.61 Q768.818 1475.33 765.739 1479.94 Q762.684 1484.52 756.874 1484.52 Q751.064 1484.52 747.985 1479.94 Q744.929 1475.33 744.929 1466.61 Q744.929 1457.86 747.985 1453.27 Q751.064 1448.67 756.874 1448.67 Z" fill="#000000" fill-rule="evenodd" fill-opacity="1" /><path clip-path="url(#clip070)" d="M 0 0 M787.036 1452.37 Q783.424 1452.37 781.596 1455.94 Q779.79 1459.48 779.79 1466.61 Q779.79 1473.71 781.596 1477.28 Q783.424 1480.82 787.036 1480.82 Q790.67 1480.82 792.475 1477.28 Q794.304 1473.71 794.304 1466.61 Q794.304 1459.48 792.475 1455.94 Q790.67 1452.37 787.036 1452.37 M787.036 1448.67 Q792.846 1448.67 795.901 1453.27 Q798.98 1457.86 798.98 1466.61 Q798.98 1475.33 795.901 1479.94 Q792.846 1484.52 787.036 1484.52 Q781.225 1484.52 778.147 1479.94 Q775.091 1475.33 775.091 1466.61 Q775.091 1457.86 778.147 1453.27 Q781.225 1448.67 787.036 1448.67 Z" fill="#000000" fill-rule="evenodd" fill-opacity="1" /><path clip-path="url(#clip070)" d="M 0 0 M817.197 1452.37 Q813.586 1452.37 811.758 1455.94 Q809.952 1459.48 809.952 1466.61 Q809.952 1473.71 811.758 1477.28 Q813.586 1480.82 817.197 1480.82 Q820.832 1480.82 822.637 1477.28 Q824.466 1473.71 824.466 1466.61 Q824.466 1459.48 822.637 1455.94 Q820.832 1452.37 817.197 1452.37 M817.197 1448.67 Q823.008 1448.67 826.063 1453.27 Q829.142 1457.86 829.142 1466.61 Q829.142 1475.33 826.063 1479.94 Q823.008 1484.52 817.197 1484.52 Q811.387 1484.52 808.309 1479.94 Q805.253 1475.33 805.253 1466.61 Q805.253 1457.86 808.309 1453.27 Q811.387 1448.67 817.197 1448.67 Z" fill="#000000" fill-rule="evenodd" fill-opacity="1" /><path clip-path="url(#clip070)" d="M 0 0 M847.359 1452.37 Q843.748 1452.37 841.92 1455.94 Q840.114 1459.48 840.114 1466.61 Q840.114 1473.71 841.92 1477.28 Q843.748 1480.82 847.359 1480.82 Q850.994 1480.82 852.799 1477.28 Q854.628 1473.71 854.628 1466.61 Q854.628 1459.48 852.799 1455.94 Q850.994 1452.37 847.359 1452.37 M847.359 1448.67 Q853.169 1448.67 856.225 1453.27 Q859.304 1457.86 859.304 1466.61 Q859.304 1475.33 856.225 1479.94 Q853.169 1484.52 847.359 1484.52 Q841.549 1484.52 838.47 1479.94 Q835.415 1475.33 835.415 1466.61 Q835.415 1457.86 838.47 1453.27 Q841.549 1448.67 847.359 1448.67 Z" fill="#000000" fill-rule="evenodd" fill-opacity="1" /><path clip-path="url(#clip070)" d="M 0 0 M867.568 1449.29 L885.924 1449.29 L885.924 1453.23 L871.85 1453.23 L871.85 1461.7 Q872.868 1461.35 873.887 1461.19 Q874.905 1461 875.924 1461 Q881.711 1461 885.091 1464.18 Q888.47 1467.35 888.47 1472.76 Q888.47 1478.34 884.998 1481.44 Q881.526 1484.52 875.206 1484.52 Q873.03 1484.52 870.762 1484.15 Q868.517 1483.78 866.109 1483.04 L866.109 1478.34 Q868.193 1479.48 870.415 1480.03 Q872.637 1480.59 875.114 1480.59 Q879.118 1480.59 881.456 1478.48 Q883.794 1476.38 883.794 1472.76 Q883.794 1469.15 881.456 1467.05 Q879.118 1464.94 875.114 1464.94 Q873.239 1464.94 871.364 1465.36 Q869.512 1465.77 867.568 1466.65 L867.568 1449.29 Z" fill="#000000" fill-rule="evenodd" fill-opacity="1" /><path clip-path="url(#clip070)" d="M 0 0 M1239.33 1452.37 Q1235.71 1452.37 1233.89 1455.94 Q1232.08 1459.48 1232.08 1466.61 Q1232.08 1473.71 1233.89 1477.28 Q1235.71 1480.82 1239.33 1480.82 Q1242.96 1480.82 1244.77 1477.28 Q1246.59 1473.71 1246.59 1466.61 Q1246.59 1459.48 1244.77 1455.94 Q1242.96 1452.37 1239.33 1452.37 M1239.33 1448.67 Q1245.14 1448.67 1248.19 1453.27 Q1251.27 1457.86 1251.27 1466.61 Q1251.27 1475.33 1248.19 1479.94 Q1245.14 1484.52 1239.33 1484.52 Q1233.52 1484.52 1230.44 1479.94 Q1227.38 1475.33 1227.38 1466.61 Q1227.38 1457.86 1230.44 1453.27 Q1233.52 1448.67 1239.33 1448.67 Z" fill="#000000" fill-rule="evenodd" fill-opacity="1" /><path clip-path="url(#clip070)" d="M 0 0 M1259.49 1477.97 L1264.37 1477.97 L1264.37 1483.85 L1259.49 1483.85 L1259.49 1477.97 Z" fill="#000000" fill-rule="evenodd" fill-opacity="1" /><path clip-path="url(#clip070)" d="M 0 0 M1284.56 1452.37 Q1280.95 1452.37 1279.12 1455.94 Q1277.31 1459.48 1277.31 1466.61 Q1277.31 1473.71 1279.12 1477.28 Q1280.95 1480.82 1284.56 1480.82 Q1288.19 1480.82 1290 1477.28 Q1291.83 1473.71 1291.83 1466.61 Q1291.83 1459.48 1290 1455.94 Q1288.19 1452.37 1284.56 1452.37 M1284.56 1448.67 Q1290.37 1448.67 1293.42 1453.27 Q1296.5 1457.86 1296.5 1466.61 Q1296.5 1475.33 1293.42 1479.94 Q1290.37 1484.52 1284.56 1484.52 Q1278.75 1484.52 1275.67 1479.94 Q1272.61 1475.33 1272.61 1466.61 Q1272.61 1457.86 1275.67 1453.27 Q1278.75 1448.67 1284.56 1448.67 Z" fill="#000000" fill-rule="evenodd" fill-opacity="1" /><path clip-path="url(#clip070)" d="M 0 0 M1314.72 1452.37 Q1311.11 1452.37 1309.28 1455.94 Q1307.47 1459.48 1307.47 1466.61 Q1307.47 1473.71 1309.28 1477.28 Q1311.11 1480.82 1314.72 1480.82 Q1318.35 1480.82 1320.16 1477.28 Q1321.99 1473.71 1321.99 1466.61 Q1321.99 1459.48 1320.16 1455.94 Q1318.35 1452.37 1314.72 1452.37 M1314.72 1448.67 Q1320.53 1448.67 1323.58 1453.27 Q1326.66 1457.86 1326.66 1466.61 Q1326.66 1475.33 1323.58 1479.94 Q1320.53 1484.52 1314.72 1484.52 Q1308.91 1484.52 1305.83 1479.94 Q1302.77 1475.33 1302.77 1466.61 Q1302.77 1457.86 1305.83 1453.27 Q1308.91 1448.67 1314.72 1448.67 Z" fill="#000000" fill-rule="evenodd" fill-opacity="1" /><path clip-path="url(#clip070)" d="M 0 0 M1344.88 1452.37 Q1341.27 1452.37 1339.44 1455.94 Q1337.64 1459.48 1337.64 1466.61 Q1337.64 1473.71 1339.44 1477.28 Q1341.27 1480.82 1344.88 1480.82 Q1348.51 1480.82 1350.32 1477.28 Q1352.15 1473.71 1352.15 1466.61 Q1352.15 1459.48 1350.32 1455.94 Q1348.51 1452.37 1344.88 1452.37 M1344.88 1448.67 Q1350.69 1448.67 1353.75 1453.27 Q1356.83 1457.86 1356.83 1466.61 Q1356.83 1475.33 1353.75 1479.94 Q1350.69 1484.52 1344.88 1484.52 Q1339.07 1484.52 1335.99 1479.94 Q1332.94 1475.33 1332.94 1466.61 Q1332.94 1457.86 1335.99 1453.27 Q1339.07 1448.67 1344.88 1448.67 Z" fill="#000000" fill-rule="evenodd" fill-opacity="1" /><path clip-path="url(#clip070)" d="M 0 0 M1365.85 1479.92 L1373.49 1479.92 L1373.49 1453.55 L1365.18 1455.22 L1365.18 1450.96 L1373.45 1449.29 L1378.12 1449.29 L1378.12 1479.92 L1385.76 1479.92 L1385.76 1483.85 L1365.85 1483.85 L1365.85 1479.92 Z" fill="#000000" fill-rule="evenodd" fill-opacity="1" /><path clip-path="url(#clip070)" d="M 0 0 M1405.2 1452.37 Q1401.59 1452.37 1399.76 1455.94 Q1397.96 1459.48 1397.96 1466.61 Q1397.96 1473.71 1399.76 1477.28 Q1401.59 1480.82 1405.2 1480.82 Q1408.84 1480.82 1410.64 1477.28 Q1412.47 1473.71 1412.47 1466.61 Q1412.47 1459.48 1410.64 1455.94 Q1408.84 1452.37 1405.2 1452.37 M1405.2 1448.67 Q1411.01 1448.67 1414.07 1453.27 Q1417.15 1457.86 1417.15 1466.61 Q1417.15 1475.33 1414.07 1479.94 Q1411.01 1484.52 1405.2 1484.52 Q1399.39 1484.52 1396.32 1479.94 Q1393.26 1475.33 1393.26 1466.61 Q1393.26 1457.86 1396.32 1453.27 Q1399.39 1448.67 1405.2 1448.67 Z" fill="#000000" fill-rule="evenodd" fill-opacity="1" /><path clip-path="url(#clip070)" d="M 0 0 M1768 1452.37 Q1764.39 1452.37 1762.56 1455.94 Q1760.76 1459.48 1760.76 1466.61 Q1760.76 1473.71 1762.56 1477.28 Q1764.39 1480.82 1768 1480.82 Q1771.64 1480.82 1773.44 1477.28 Q1775.27 1473.71 1775.27 1466.61 Q1775.27 1459.48 1773.44 1455.94 Q1771.64 1452.37 1768 1452.37 M1768 1448.67 Q1773.81 1448.67 1776.87 1453.27 Q1779.95 1457.86 1779.95 1466.61 Q1779.95 1475.33 1776.87 1479.94 Q1773.81 1484.52 1768 1484.52 Q1762.19 1484.52 1759.12 1479.94 Q1756.06 1475.33 1756.06 1466.61 Q1756.06 1457.86 1759.12 1453.27 Q1762.19 1448.67 1768 1448.67 Z" fill="#000000" fill-rule="evenodd" fill-opacity="1" /><path clip-path="url(#clip070)" d="M 0 0 M1788.17 1477.97 L1793.05 1477.97 L1793.05 1483.85 L1788.17 1483.85 L1788.17 1477.97 Z" fill="#000000" fill-rule="evenodd" fill-opacity="1" /><path clip-path="url(#clip070)" d="M 0 0 M1813.24 1452.37 Q1809.62 1452.37 1807.8 1455.94 Q1805.99 1459.48 1805.99 1466.61 Q1805.99 1473.71 1807.8 1477.28 Q1809.62 1480.82 1813.24 1480.82 Q1816.87 1480.82 1818.68 1477.28 Q1820.5 1473.71 1820.5 1466.61 Q1820.5 1459.48 1818.68 1455.94 Q1816.87 1452.37 1813.24 1452.37 M1813.24 1448.67 Q1819.05 1448.67 1822.1 1453.27 Q1825.18 1457.86 1825.18 1466.61 Q1825.18 1475.33 1822.1 1479.94 Q1819.05 1484.52 1813.24 1484.52 Q1807.43 1484.52 1804.35 1479.94 Q1801.29 1475.33 1801.29 1466.61 Q1801.29 1457.86 1804.35 1453.27 Q1807.43 1448.67 1813.24 1448.67 Z" fill="#000000" fill-rule="evenodd" fill-opacity="1" /><path clip-path="url(#clip070)" d="M 0 0 M1843.4 1452.37 Q1839.79 1452.37 1837.96 1455.94 Q1836.15 1459.48 1836.15 1466.61 Q1836.15 1473.71 1837.96 1477.28 Q1839.79 1480.82 1843.4 1480.82 Q1847.03 1480.82 1848.84 1477.28 Q1850.67 1473.71 1850.67 1466.61 Q1850.67 1459.48 1848.84 1455.94 Q1847.03 1452.37 1843.4 1452.37 M1843.4 1448.67 Q1849.21 1448.67 1852.26 1453.27 Q1855.34 1457.86 1855.34 1466.61 Q1855.34 1475.33 1852.26 1479.94 Q1849.21 1484.52 1843.4 1484.52 Q1837.59 1484.52 1834.51 1479.94 Q1831.45 1475.33 1831.45 1466.61 Q1831.45 1457.86 1834.51 1453.27 Q1837.59 1448.67 1843.4 1448.67 Z" fill="#000000" fill-rule="evenodd" fill-opacity="1" /><path clip-path="url(#clip070)" d="M 0 0 M1873.56 1452.37 Q1869.95 1452.37 1868.12 1455.94 Q1866.31 1459.48 1866.31 1466.61 Q1866.31 1473.71 1868.12 1477.28 Q1869.95 1480.82 1873.56 1480.82 Q1877.19 1480.82 1879 1477.28 Q1880.83 1473.71 1880.83 1466.61 Q1880.83 1459.48 1879 1455.94 Q1877.19 1452.37 1873.56 1452.37 M1873.56 1448.67 Q1879.37 1448.67 1882.43 1453.27 Q1885.5 1457.86 1885.5 1466.61 Q1885.5 1475.33 1882.43 1479.94 Q1879.37 1484.52 1873.56 1484.52 Q1867.75 1484.52 1864.67 1479.94 Q1861.62 1475.33 1861.62 1466.61 Q1861.62 1457.86 1864.67 1453.27 Q1867.75 1448.67 1873.56 1448.67 Z" fill="#000000" fill-rule="evenodd" fill-opacity="1" /><path clip-path="url(#clip070)" d="M 0 0 M1894.53 1479.92 L1902.17 1479.92 L1902.17 1453.55 L1893.86 1455.22 L1893.86 1450.96 L1902.12 1449.29 L1906.8 1449.29 L1906.8 1479.92 L1914.44 1479.92 L1914.44 1483.85 L1894.53 1483.85 L1894.53 1479.92 Z" fill="#000000" fill-rule="evenodd" fill-opacity="1" /><path clip-path="url(#clip070)" d="M 0 0 M1923.93 1449.29 L1942.29 1449.29 L1942.29 1453.23 L1928.21 1453.23 L1928.21 1461.7 Q1929.23 1461.35 1930.25 1461.19 Q1931.27 1461 1932.29 1461 Q1938.07 1461 1941.45 1464.18 Q1944.83 1467.35 1944.83 1472.76 Q1944.83 1478.34 1941.36 1481.44 Q1937.89 1484.52 1931.57 1484.52 Q1929.39 1484.52 1927.12 1484.15 Q1924.88 1483.78 1922.47 1483.04 L1922.47 1478.34 Q1924.55 1479.48 1926.78 1480.03 Q1929 1480.59 1931.48 1480.59 Q1935.48 1480.59 1937.82 1478.48 Q1940.16 1476.38 1940.16 1472.76 Q1940.16 1469.15 1937.82 1467.05 Q1935.48 1464.94 1931.48 1464.94 Q1929.6 1464.94 1927.73 1465.36 Q1925.87 1465.77 1923.93 1466.65 L1923.93 1449.29 Z" fill="#000000" fill-rule="evenodd" fill-opacity="1" /><path clip-path="url(#clip070)" d="M 0 0 M1107.43 1520.52 L1147.63 1520.52 L1147.63 1525.93 L1130.76 1525.93 L1130.76 1568.04 L1124.3 1568.04 L1124.3 1525.93 L1107.43 1525.93 L1107.43 1520.52 Z" fill="#000000" fill-rule="evenodd" fill-opacity="1" /><path clip-path="url(#clip070)" d="M 0 0 M1151.58 1532.4 L1157.43 1532.4 L1157.43 1568.04 L1151.58 1568.04 L1151.58 1532.4 M1151.58 1518.52 L1157.43 1518.52 L1157.43 1525.93 L1151.58 1525.93 L1151.58 1518.52 Z" fill="#000000" fill-rule="evenodd" fill-opacity="1" /><path clip-path="url(#clip070)" d="M 0 0 M1197.44 1539.24 Q1199.64 1535.29 1202.69 1533.41 Q1205.75 1531.54 1209.89 1531.54 Q1215.46 1531.54 1218.48 1535.45 Q1221.5 1539.33 1221.5 1546.53 L1221.5 1568.04 L1215.62 1568.04 L1215.62 1546.72 Q1215.62 1541.59 1213.8 1539.11 Q1211.99 1536.63 1208.26 1536.63 Q1203.71 1536.63 1201.07 1539.65 Q1198.43 1542.68 1198.43 1547.9 L1198.43 1568.04 L1192.54 1568.04 L1192.54 1546.72 Q1192.54 1541.56 1190.73 1539.11 Q1188.91 1536.63 1185.12 1536.63 Q1180.64 1536.63 1177.99 1539.68 Q1175.35 1542.71 1175.35 1547.9 L1175.35 1568.04 L1169.46 1568.04 L1169.46 1532.4 L1175.35 1532.4 L1175.35 1537.93 Q1177.36 1534.66 1180.16 1533.1 Q1182.96 1531.54 1186.81 1531.54 Q1190.69 1531.54 1193.4 1533.51 Q1196.14 1535.48 1197.44 1539.24 Z" fill="#000000" fill-rule="evenodd" fill-opacity="1" /><path clip-path="url(#clip070)" d="M 0 0 M1263.68 1548.76 L1263.68 1551.62 L1236.75 1551.62 Q1237.13 1557.67 1240.38 1560.85 Q1243.66 1564 1249.48 1564 Q1252.85 1564 1256.01 1563.17 Q1259.19 1562.35 1262.31 1560.69 L1262.31 1566.23 Q1259.16 1567.57 1255.85 1568.27 Q1252.54 1568.97 1249.13 1568.97 Q1240.6 1568.97 1235.6 1564 Q1230.64 1559.04 1230.64 1550.57 Q1230.64 1541.82 1235.35 1536.69 Q1240.09 1531.54 1248.11 1531.54 Q1255.31 1531.54 1259.48 1536.18 Q1263.68 1540.8 1263.68 1548.76 M1257.82 1547.04 Q1257.76 1542.23 1255.11 1539.37 Q1252.5 1536.5 1248.18 1536.5 Q1243.27 1536.5 1240.31 1539.27 Q1237.39 1542.04 1236.94 1547.07 L1257.82 1547.04 Z" fill="#000000" fill-rule="evenodd" fill-opacity="1" /><path clip-path="url(#clip070)" d="M 0 0 M1293.47 1518.52 L1306.96 1518.52 L1306.96 1523.07 L1299.32 1523.07 L1299.32 1572.09 L1306.96 1572.09 L1306.96 1576.64 L1293.47 1576.64 L1293.47 1518.52 Z" fill="#000000" fill-rule="evenodd" fill-opacity="1" /><path clip-path="url(#clip070)" d="M 0 0 M1348.18 1522.08 L1348.18 1528.35 Q1344.52 1526.6 1341.27 1525.74 Q1338.03 1524.88 1335 1524.88 Q1329.75 1524.88 1326.89 1526.92 Q1324.06 1528.96 1324.06 1532.71 Q1324.06 1535.87 1325.93 1537.49 Q1327.84 1539.08 1333.13 1540.07 L1337.01 1540.86 Q1344.2 1542.23 1347.61 1545.7 Q1351.05 1549.14 1351.05 1554.93 Q1351.05 1561.84 1346.4 1565.4 Q1341.78 1568.97 1332.84 1568.97 Q1329.47 1568.97 1325.65 1568.2 Q1321.86 1567.44 1317.79 1565.94 L1317.79 1559.32 Q1321.7 1561.52 1325.46 1562.63 Q1329.21 1563.75 1332.84 1563.75 Q1338.35 1563.75 1341.34 1561.58 Q1344.33 1559.42 1344.33 1555.41 Q1344.33 1551.91 1342.17 1549.93 Q1340.03 1547.96 1335.13 1546.97 L1331.22 1546.21 Q1324.02 1544.78 1320.81 1541.72 Q1317.59 1538.67 1317.59 1533.22 Q1317.59 1526.92 1322.02 1523.29 Q1326.47 1519.66 1334.27 1519.66 Q1337.61 1519.66 1341.08 1520.27 Q1344.55 1520.87 1348.18 1522.08 Z" fill="#000000" fill-rule="evenodd" fill-opacity="1" /><path clip-path="url(#clip070)" d="M 0 0 M1391.31 1548.76 L1391.31 1551.62 L1364.38 1551.62 Q1364.76 1557.67 1368.01 1560.85 Q1371.29 1564 1377.11 1564 Q1380.49 1564 1383.64 1563.17 Q1386.82 1562.35 1389.94 1560.69 L1389.94 1566.23 Q1386.79 1567.57 1383.48 1568.27 Q1380.17 1568.97 1376.76 1568.97 Q1368.23 1568.97 1363.24 1564 Q1358.27 1559.04 1358.27 1550.57 Q1358.27 1541.82 1362.98 1536.69 Q1367.72 1531.54 1375.74 1531.54 Q1382.94 1531.54 1387.11 1536.18 Q1391.31 1540.8 1391.31 1548.76 M1385.45 1547.04 Q1385.39 1542.23 1382.75 1539.37 Q1380.14 1536.5 1375.81 1536.5 Q1370.91 1536.5 1367.95 1539.27 Q1365.02 1542.04 1364.57 1547.07 L1385.45 1547.04 Z" fill="#000000" fill-rule="evenodd" fill-opacity="1" /><path clip-path="url(#clip070)" d="M 0 0 M1426.58 1533.76 L1426.58 1539.24 Q1424.09 1537.87 1421.58 1537.2 Q1419.1 1536.5 1416.55 1536.5 Q1410.85 1536.5 1407.7 1540.13 Q1404.55 1543.73 1404.55 1550.25 Q1404.55 1556.78 1407.7 1560.4 Q1410.85 1564 1416.55 1564 Q1419.1 1564 1421.58 1563.33 Q1424.09 1562.63 1426.58 1561.26 L1426.58 1566.68 Q1424.12 1567.82 1421.48 1568.39 Q1418.87 1568.97 1415.91 1568.97 Q1407.86 1568.97 1403.12 1563.91 Q1398.38 1558.85 1398.38 1550.25 Q1398.38 1541.53 1403.15 1536.53 Q1407.96 1531.54 1416.29 1531.54 Q1419 1531.54 1421.58 1532.11 Q1424.16 1532.65 1426.58 1533.76 Z" fill="#000000" fill-rule="evenodd" fill-opacity="1" /><path clip-path="url(#clip070)" d="M 0 0 M1450.45 1518.52 L1450.45 1576.64 L1436.95 1576.64 L1436.95 1572.09 L1444.56 1572.09 L1444.56 1523.07 L1436.95 1523.07 L1436.95 1518.52 L1450.45 1518.52 Z" fill="#000000" fill-rule="evenodd" fill-opacity="1" /><polyline clip-path="url(#clip070)" style="stroke:#000000; stroke-width:4; stroke-opacity:1; fill:none" points="
  205.121,1423.18 205.121,1301.67 
  "/>
<path clip-path="url(#clip070)" d="M 0 0 M76.6285 1392.07 L94.4843 1392.07 L94.4843 1383.99 Q94.4843 1379.5 92.1608 1377.05 Q89.8374 1374.6 85.5405 1374.6 Q81.2755 1374.6 78.952 1377.05 Q76.6285 1379.5 76.6285 1383.99 L76.6285 1392.07 M71.345 1398.5 L71.345 1383.99 Q71.345 1376 74.9734 1371.92 Q78.5701 1367.82 85.5405 1367.82 Q92.5746 1367.82 96.1712 1371.92 Q99.7679 1376 99.7679 1383.99 L99.7679 1392.07 L118.865 1392.07 L118.865 1398.5 L71.345 1398.5 Z" fill="#000000" fill-rule="evenodd" fill-opacity="1" /><path clip-path="url(#clip070)" d="M 0 0 M73.0955 1353.65 L83.217 1353.65 L83.217 1341.59 L87.7685 1341.59 L87.7685 1353.65 L107.12 1353.65 Q111.481 1353.65 112.722 1352.48 Q113.963 1351.27 113.963 1347.61 L113.963 1341.59 L118.865 1341.59 L118.865 1347.61 Q118.865 1354.39 116.351 1356.96 Q113.804 1359.54 107.12 1359.54 L87.7685 1359.54 L87.7685 1363.84 L83.217 1363.84 L83.217 1359.54 L73.0955 1359.54 L73.0955 1353.65 Z" fill="#000000" fill-rule="evenodd" fill-opacity="1" /><path clip-path="url(#clip070)" d="M 0 0 M110.781 1333.06 L110.781 1326.35 L118.865 1326.35 L118.865 1333.06 L110.781 1333.06 Z" fill="#000000" fill-rule="evenodd" fill-opacity="1" /><polyline clip-path="url(#clip073)" style="stroke:#009af9; stroke-width:4; stroke-opacity:1; fill:none" points="
  321.89,1544.69 321.89,1180.15 
  "/>
<polyline clip-path="url(#clip073)" style="stroke:#009af9; stroke-width:4; stroke-opacity:1; fill:none" points="
  388.441,1544.69 388.441,1180.15 
  "/>
<polyline clip-path="url(#clip073)" style="stroke:#009af9; stroke-width:4; stroke-opacity:1; fill:none" points="
  428.583,1544.69 428.583,1180.15 
  "/>
<polyline clip-path="url(#clip073)" style="stroke:#009af9; stroke-width:4; stroke-opacity:1; fill:none" points="
  482.457,1544.69 482.457,1180.15 
  "/>
<polyline clip-path="url(#clip073)" style="stroke:#009af9; stroke-width:4; stroke-opacity:1; fill:none" points="
  531.05,1544.69 531.05,1180.15 
  "/>
<polyline clip-path="url(#clip073)" style="stroke:#009af9; stroke-width:4; stroke-opacity:1; fill:none" points="
  581.745,1544.69 581.745,1180.15 
  "/>
<polyline clip-path="url(#clip073)" style="stroke:#009af9; stroke-width:4; stroke-opacity:1; fill:none" points="
  597.59,1544.69 597.59,1180.15 
  "/>
<polyline clip-path="url(#clip073)" style="stroke:#009af9; stroke-width:4; stroke-opacity:1; fill:none" points="
  620.83,1544.69 620.83,1180.15 
  "/>
<polyline clip-path="url(#clip073)" style="stroke:#009af9; stroke-width:4; stroke-opacity:1; fill:none" points="
  644.07,1544.69 644.07,1180.15 
  "/>
<polyline clip-path="url(#clip073)" style="stroke:#009af9; stroke-width:4; stroke-opacity:1; fill:none" points="
  668.366,1544.69 668.366,1180.15 
  "/>
<polyline clip-path="url(#clip073)" style="stroke:#009af9; stroke-width:4; stroke-opacity:1; fill:none" points="
  692.663,1544.69 692.663,1180.15 
  "/>
<polyline clip-path="url(#clip073)" style="stroke:#009af9; stroke-width:4; stroke-opacity:1; fill:none" points="
  729.635,1544.69 729.635,1180.15 
  "/>
<polyline clip-path="url(#clip073)" style="stroke:#009af9; stroke-width:4; stroke-opacity:1; fill:none" points="
  759.214,1544.69 759.214,1180.15 
  "/>
<polyline clip-path="url(#clip073)" style="stroke:#009af9; stroke-width:4; stroke-opacity:1; fill:none" points="
  807.806,1544.69 807.806,1180.15 
  "/>
<polyline clip-path="url(#clip073)" style="stroke:#009af9; stroke-width:4; stroke-opacity:1; fill:none" points="
  868.019,1544.69 868.019,1180.15 
  "/>
<polyline clip-path="url(#clip073)" style="stroke:#009af9; stroke-width:4; stroke-opacity:1; fill:none" points="
  907.104,1544.69 907.104,1180.15 
  "/>
<polyline clip-path="url(#clip073)" style="stroke:#009af9; stroke-width:4; stroke-opacity:1; fill:none" points="
  972.599,1544.69 972.599,1180.15 
  "/>
<polyline clip-path="url(#clip073)" style="stroke:#009af9; stroke-width:4; stroke-opacity:1; fill:none" points="
  1016.97,1544.69 1016.97,1180.15 
  "/>
<polyline clip-path="url(#clip073)" style="stroke:#009af9; stroke-width:4; stroke-opacity:1; fill:none" points="
  1052.88,1544.69 1052.88,1180.15 
  "/>
<polyline clip-path="url(#clip073)" style="stroke:#009af9; stroke-width:4; stroke-opacity:1; fill:none" points="
  1076.12,1544.69 1076.12,1180.15 
  "/>
<polyline clip-path="url(#clip073)" style="stroke:#009af9; stroke-width:4; stroke-opacity:1; fill:none" points="
  1099.36,1544.69 1099.36,1180.15 
  "/>
<polyline clip-path="url(#clip073)" style="stroke:#009af9; stroke-width:4; stroke-opacity:1; fill:none" points="
  1123.66,1544.69 1123.66,1180.15 
  "/>
<polyline clip-path="url(#clip073)" style="stroke:#009af9; stroke-width:4; stroke-opacity:1; fill:none" points="
  1146.9,1544.69 1146.9,1180.15 
  "/>
<polyline clip-path="url(#clip073)" style="stroke:#009af9; stroke-width:4; stroke-opacity:1; fill:none" points="
  1177.53,1544.69 1177.53,1180.15 
  "/>
<polyline clip-path="url(#clip073)" style="stroke:#009af9; stroke-width:4; stroke-opacity:1; fill:none" points="
  1205,1544.69 1205,1180.15 
  "/>
<polyline clip-path="url(#clip073)" style="stroke:#009af9; stroke-width:4; stroke-opacity:1; fill:none" points="
  1262.04,1544.69 1262.04,1180.15 
  "/>
<polyline clip-path="url(#clip073)" style="stroke:#009af9; stroke-width:4; stroke-opacity:1; fill:none" points="
  1322.24,1544.69 1322.24,1180.15 
  "/>
<polyline clip-path="url(#clip073)" style="stroke:#009af9; stroke-width:4; stroke-opacity:1; fill:none" points="
  1393.02,1544.69 1393.02,1180.15 
  "/>
<polyline clip-path="url(#clip073)" style="stroke:#009af9; stroke-width:4; stroke-opacity:1; fill:none" points="
  1457.46,1544.69 1457.46,1180.15 
  "/>
<polyline clip-path="url(#clip073)" style="stroke:#009af9; stroke-width:4; stroke-opacity:1; fill:none" points="
  1835.64,1544.69 1835.64,1180.15 
  "/>
<polyline clip-path="url(#clip073)" style="stroke:#009af9; stroke-width:4; stroke-opacity:1; fill:none" points="
  1979.3,1544.69 1979.3,1180.15 
  "/>
<polyline clip-path="url(#clip073)" style="stroke:#009af9; stroke-width:4; stroke-opacity:1; fill:none" points="
  2066.98,1544.69 2066.98,1180.15 
  "/>
<polyline clip-path="url(#clip073)" style="stroke:#009af9; stroke-width:4; stroke-opacity:1; fill:none" points="
  2118.73,1544.69 2118.73,1180.15 
  "/>
<polyline clip-path="url(#clip073)" style="stroke:#009af9; stroke-width:4; stroke-opacity:1; fill:none" points="
  2177.89,1544.69 2177.89,1180.15 
  "/>
<polyline clip-path="url(#clip073)" style="stroke:#009af9; stroke-width:4; stroke-opacity:1; fill:none" points="
  2201.13,1544.69 2201.13,1180.15 
  "/>
<polyline clip-path="url(#clip073)" style="stroke:#009af9; stroke-width:4; stroke-opacity:1; fill:none" points="
  2224.37,1544.69 2224.37,1180.15 
  "/>
<polyline clip-path="url(#clip073)" style="stroke:#009af9; stroke-width:4; stroke-opacity:1; fill:none" points="
  2247.61,1544.69 2247.61,1180.15 
  "/>
<polyline clip-path="url(#clip073)" style="stroke:#009af9; stroke-width:4; stroke-opacity:1; fill:none" points="
  2269.79,1544.69 2269.79,1180.15 
  "/>
<polyline clip-path="url(#clip073)" style="stroke:#009af9; stroke-width:4; stroke-opacity:1; fill:none" points="
  2291.97,1544.69 2291.97,1180.15 
  "/>
</svg>
