<?xml version="1.0" encoding="utf-8"?>
<svg xmlns="http://www.w3.org/2000/svg" xmlns:xlink="http://www.w3.org/1999/xlink" width="600" height="400" viewBox="0 0 2400 1600">
<defs>
  <clipPath id="clip480">
    <rect x="0" y="0" width="2400" height="1600"/>
  </clipPath>
</defs>
<path clip-path="url(#clip480)" d="
M0 1600 L2400 1600 L2400 0 L0 0  Z
  " fill="#ffffff" fill-rule="evenodd" fill-opacity="1"/>
<defs>
  <clipPath id="clip481">
    <rect x="480" y="0" width="1681" height="1600"/>
  </clipPath>
</defs>
<path clip-path="url(#clip480)" d="
M205.121 1140.87 L2352.76 1140.87 L2352.76 47.2441 L205.121 47.2441  Z
  " fill="#ffffff" fill-rule="evenodd" fill-opacity="1"/>
<defs>
  <clipPath id="clip482">
    <rect x="205" y="47" width="2149" height="1095"/>
  </clipPath>
</defs>
<polyline clip-path="url(#clip482)" style="stroke:#000000; stroke-width:2; stroke-opacity:0.1; fill:none" points="
  265.903,1140.87 265.903,47.2441 
  "/>
<polyline clip-path="url(#clip482)" style="stroke:#000000; stroke-width:2; stroke-opacity:0.1; fill:none" points="
  892.39,1140.87 892.39,47.2441 
  "/>
<polyline clip-path="url(#clip482)" style="stroke:#000000; stroke-width:2; stroke-opacity:0.1; fill:none" points="
  1518.88,1140.87 1518.88,47.2441 
  "/>
<polyline clip-path="url(#clip482)" style="stroke:#000000; stroke-width:2; stroke-opacity:0.1; fill:none" points="
  2145.36,1140.87 2145.36,47.2441 
  "/>
<polyline clip-path="url(#clip480)" style="stroke:#000000; stroke-width:4; stroke-opacity:1; fill:none" points="
  205.121,1140.87 2352.76,1140.87 
  "/>
<polyline clip-path="url(#clip480)" style="stroke:#000000; stroke-width:4; stroke-opacity:1; fill:none" points="
  265.903,1140.87 265.903,1127.75 
  "/>
<polyline clip-path="url(#clip480)" style="stroke:#000000; stroke-width:4; stroke-opacity:1; fill:none" points="
  892.39,1140.87 892.39,1127.75 
  "/>
<polyline clip-path="url(#clip480)" style="stroke:#000000; stroke-width:4; stroke-opacity:1; fill:none" points="
  1518.88,1140.87 1518.88,1127.75 
  "/>
<polyline clip-path="url(#clip480)" style="stroke:#000000; stroke-width:4; stroke-opacity:1; fill:none" points="
  2145.36,1140.87 2145.36,1127.75 
  "/>
<path clip-path="url(#clip480)" d="M 0 0 M182.964 1170.06 Q179.353 1170.06 177.524 1173.63 Q175.718 1177.17 175.718 1184.3 Q175.718 1191.4 177.524 1194.97 Q179.353 1198.51 182.964 1198.51 Q186.598 1198.51 188.404 1194.97 Q190.232 1191.4 190.232 1184.3 Q190.232 1177.17 188.404 1173.63 Q186.598 1170.06 182.964 1170.06 M182.964 1166.36 Q188.774 1166.36 191.829 1170.96 Q194.908 1175.55 194.908 1184.3 Q194.908 1193.02 191.829 1197.63 Q188.774 1202.21 182.964 1202.21 Q177.154 1202.21 174.075 1197.63 Q171.019 1193.02 171.019 1184.3 Q171.019 1175.55 174.075 1170.96 Q177.154 1166.36 182.964 1166.36 Z" fill="#000000" fill-rule="evenodd" fill-opacity="1" /><path clip-path="url(#clip480)" d="M 0 0 M203.126 1195.66 L208.01 1195.66 L208.01 1201.54 L203.126 1201.54 L203.126 1195.66 Z" fill="#000000" fill-rule="evenodd" fill-opacity="1" /><path clip-path="url(#clip480)" d="M 0 0 M228.195 1170.06 Q224.584 1170.06 222.755 1173.63 Q220.95 1177.17 220.95 1184.3 Q220.95 1191.4 222.755 1194.97 Q224.584 1198.51 228.195 1198.51 Q231.829 1198.51 233.635 1194.97 Q235.463 1191.4 235.463 1184.3 Q235.463 1177.17 233.635 1173.63 Q231.829 1170.06 228.195 1170.06 M228.195 1166.36 Q234.005 1166.36 237.061 1170.96 Q240.139 1175.55 240.139 1184.3 Q240.139 1193.02 237.061 1197.63 Q234.005 1202.21 228.195 1202.21 Q222.385 1202.21 219.306 1197.63 Q216.251 1193.02 216.251 1184.3 Q216.251 1175.55 219.306 1170.96 Q222.385 1166.36 228.195 1166.36 Z" fill="#000000" fill-rule="evenodd" fill-opacity="1" /><path clip-path="url(#clip480)" d="M 0 0 M258.357 1170.06 Q254.746 1170.06 252.917 1173.63 Q251.112 1177.17 251.112 1184.3 Q251.112 1191.4 252.917 1194.97 Q254.746 1198.51 258.357 1198.51 Q261.991 1198.51 263.797 1194.97 Q265.625 1191.4 265.625 1184.3 Q265.625 1177.17 263.797 1173.63 Q261.991 1170.06 258.357 1170.06 M258.357 1166.36 Q264.167 1166.36 267.223 1170.96 Q270.301 1175.55 270.301 1184.3 Q270.301 1193.02 267.223 1197.63 Q264.167 1202.21 258.357 1202.21 Q252.547 1202.21 249.468 1197.63 Q246.412 1193.02 246.412 1184.3 Q246.412 1175.55 249.468 1170.96 Q252.547 1166.36 258.357 1166.36 Z" fill="#000000" fill-rule="evenodd" fill-opacity="1" /><path clip-path="url(#clip480)" d="M 0 0 M288.519 1170.06 Q284.908 1170.06 283.079 1173.63 Q281.273 1177.17 281.273 1184.3 Q281.273 1191.4 283.079 1194.97 Q284.908 1198.51 288.519 1198.51 Q292.153 1198.51 293.959 1194.97 Q295.787 1191.4 295.787 1184.3 Q295.787 1177.17 293.959 1173.63 Q292.153 1170.06 288.519 1170.06 M288.519 1166.36 Q294.329 1166.36 297.384 1170.96 Q300.463 1175.55 300.463 1184.3 Q300.463 1193.02 297.384 1197.63 Q294.329 1202.21 288.519 1202.21 Q282.709 1202.21 279.63 1197.63 Q276.574 1193.02 276.574 1184.3 Q276.574 1175.55 279.63 1170.96 Q282.709 1166.36 288.519 1166.36 Z" fill="#000000" fill-rule="evenodd" fill-opacity="1" /><path clip-path="url(#clip480)" d="M 0 0 M318.681 1170.06 Q315.069 1170.06 313.241 1173.63 Q311.435 1177.17 311.435 1184.3 Q311.435 1191.4 313.241 1194.97 Q315.069 1198.51 318.681 1198.51 Q322.315 1198.51 324.12 1194.97 Q325.949 1191.4 325.949 1184.3 Q325.949 1177.17 324.12 1173.63 Q322.315 1170.06 318.681 1170.06 M318.681 1166.36 Q324.491 1166.36 327.546 1170.96 Q330.625 1175.55 330.625 1184.3 Q330.625 1193.02 327.546 1197.63 Q324.491 1202.21 318.681 1202.21 Q312.87 1202.21 309.792 1197.63 Q306.736 1193.02 306.736 1184.3 Q306.736 1175.55 309.792 1170.96 Q312.87 1166.36 318.681 1166.36 Z" fill="#000000" fill-rule="evenodd" fill-opacity="1" /><path clip-path="url(#clip480)" d="M 0 0 M348.842 1170.06 Q345.231 1170.06 343.403 1173.63 Q341.597 1177.17 341.597 1184.3 Q341.597 1191.4 343.403 1194.97 Q345.231 1198.51 348.842 1198.51 Q352.477 1198.51 354.282 1194.97 Q356.111 1191.4 356.111 1184.3 Q356.111 1177.17 354.282 1173.63 Q352.477 1170.06 348.842 1170.06 M348.842 1166.36 Q354.653 1166.36 357.708 1170.96 Q360.787 1175.55 360.787 1184.3 Q360.787 1193.02 357.708 1197.63 Q354.653 1202.21 348.842 1202.21 Q343.032 1202.21 339.954 1197.63 Q336.898 1193.02 336.898 1184.3 Q336.898 1175.55 339.954 1170.96 Q343.032 1166.36 348.842 1166.36 Z" fill="#000000" fill-rule="evenodd" fill-opacity="1" /><path clip-path="url(#clip480)" d="M 0 0 M809.948 1170.06 Q806.337 1170.06 804.508 1173.63 Q802.703 1177.17 802.703 1184.3 Q802.703 1191.4 804.508 1194.97 Q806.337 1198.51 809.948 1198.51 Q813.582 1198.51 815.388 1194.97 Q817.217 1191.4 817.217 1184.3 Q817.217 1177.17 815.388 1173.63 Q813.582 1170.06 809.948 1170.06 M809.948 1166.36 Q815.758 1166.36 818.814 1170.96 Q821.893 1175.55 821.893 1184.3 Q821.893 1193.02 818.814 1197.63 Q815.758 1202.21 809.948 1202.21 Q804.138 1202.21 801.059 1197.63 Q798.004 1193.02 798.004 1184.3 Q798.004 1175.55 801.059 1170.96 Q804.138 1166.36 809.948 1166.36 Z" fill="#000000" fill-rule="evenodd" fill-opacity="1" /><path clip-path="url(#clip480)" d="M 0 0 M830.11 1195.66 L834.994 1195.66 L834.994 1201.54 L830.11 1201.54 L830.11 1195.66 Z" fill="#000000" fill-rule="evenodd" fill-opacity="1" /><path clip-path="url(#clip480)" d="M 0 0 M855.179 1170.06 Q851.568 1170.06 849.74 1173.63 Q847.934 1177.17 847.934 1184.3 Q847.934 1191.4 849.74 1194.97 Q851.568 1198.51 855.179 1198.51 Q858.814 1198.51 860.619 1194.97 Q862.448 1191.4 862.448 1184.3 Q862.448 1177.17 860.619 1173.63 Q858.814 1170.06 855.179 1170.06 M855.179 1166.36 Q860.99 1166.36 864.045 1170.96 Q867.124 1175.55 867.124 1184.3 Q867.124 1193.02 864.045 1197.63 Q860.99 1202.21 855.179 1202.21 Q849.369 1202.21 846.291 1197.63 Q843.235 1193.02 843.235 1184.3 Q843.235 1175.55 846.291 1170.96 Q849.369 1166.36 855.179 1166.36 Z" fill="#000000" fill-rule="evenodd" fill-opacity="1" /><path clip-path="url(#clip480)" d="M 0 0 M885.341 1170.06 Q881.73 1170.06 879.901 1173.63 Q878.096 1177.17 878.096 1184.3 Q878.096 1191.4 879.901 1194.97 Q881.73 1198.51 885.341 1198.51 Q888.976 1198.51 890.781 1194.97 Q892.61 1191.4 892.61 1184.3 Q892.61 1177.17 890.781 1173.63 Q888.976 1170.06 885.341 1170.06 M885.341 1166.36 Q891.151 1166.36 894.207 1170.96 Q897.286 1175.55 897.286 1184.3 Q897.286 1193.02 894.207 1197.63 Q891.151 1202.21 885.341 1202.21 Q879.531 1202.21 876.452 1197.63 Q873.397 1193.02 873.397 1184.3 Q873.397 1175.55 876.452 1170.96 Q879.531 1166.36 885.341 1166.36 Z" fill="#000000" fill-rule="evenodd" fill-opacity="1" /><path clip-path="url(#clip480)" d="M 0 0 M915.503 1170.06 Q911.892 1170.06 910.063 1173.63 Q908.258 1177.17 908.258 1184.3 Q908.258 1191.4 910.063 1194.97 Q911.892 1198.51 915.503 1198.51 Q919.137 1198.51 920.943 1194.97 Q922.772 1191.4 922.772 1184.3 Q922.772 1177.17 920.943 1173.63 Q919.137 1170.06 915.503 1170.06 M915.503 1166.36 Q921.313 1166.36 924.369 1170.96 Q927.448 1175.55 927.448 1184.3 Q927.448 1193.02 924.369 1197.63 Q921.313 1202.21 915.503 1202.21 Q909.693 1202.21 906.614 1197.63 Q903.559 1193.02 903.559 1184.3 Q903.559 1175.55 906.614 1170.96 Q909.693 1166.36 915.503 1166.36 Z" fill="#000000" fill-rule="evenodd" fill-opacity="1" /><path clip-path="url(#clip480)" d="M 0 0 M945.665 1170.06 Q942.054 1170.06 940.225 1173.63 Q938.42 1177.17 938.42 1184.3 Q938.42 1191.4 940.225 1194.97 Q942.054 1198.51 945.665 1198.51 Q949.299 1198.51 951.105 1194.97 Q952.934 1191.4 952.934 1184.3 Q952.934 1177.17 951.105 1173.63 Q949.299 1170.06 945.665 1170.06 M945.665 1166.36 Q951.475 1166.36 954.531 1170.96 Q957.609 1175.55 957.609 1184.3 Q957.609 1193.02 954.531 1197.63 Q951.475 1202.21 945.665 1202.21 Q939.855 1202.21 936.776 1197.63 Q933.721 1193.02 933.721 1184.3 Q933.721 1175.55 936.776 1170.96 Q939.855 1166.36 945.665 1166.36 Z" fill="#000000" fill-rule="evenodd" fill-opacity="1" /><path clip-path="url(#clip480)" d="M 0 0 M965.873 1166.98 L984.23 1166.98 L984.23 1170.92 L970.156 1170.92 L970.156 1179.39 Q971.174 1179.04 972.193 1178.88 Q973.211 1178.69 974.23 1178.69 Q980.017 1178.69 983.396 1181.87 Q986.776 1185.04 986.776 1190.45 Q986.776 1196.03 983.304 1199.13 Q979.832 1202.21 973.512 1202.21 Q971.336 1202.21 969.068 1201.84 Q966.822 1201.47 964.415 1200.73 L964.415 1196.03 Q966.498 1197.17 968.72 1197.72 Q970.943 1198.28 973.42 1198.28 Q977.424 1198.28 979.762 1196.17 Q982.1 1194.06 982.1 1190.45 Q982.1 1186.84 979.762 1184.74 Q977.424 1182.63 973.42 1182.63 Q971.545 1182.63 969.67 1183.05 Q967.818 1183.46 965.873 1184.34 L965.873 1166.98 Z" fill="#000000" fill-rule="evenodd" fill-opacity="1" /><path clip-path="url(#clip480)" d="M 0 0 M1435.94 1170.06 Q1432.33 1170.06 1430.5 1173.63 Q1428.69 1177.17 1428.69 1184.3 Q1428.69 1191.4 1430.5 1194.97 Q1432.33 1198.51 1435.94 1198.51 Q1439.57 1198.51 1441.38 1194.97 Q1443.21 1191.4 1443.21 1184.3 Q1443.21 1177.17 1441.38 1173.63 Q1439.57 1170.06 1435.94 1170.06 M1435.94 1166.36 Q1441.75 1166.36 1444.8 1170.96 Q1447.88 1175.55 1447.88 1184.3 Q1447.88 1193.02 1444.8 1197.63 Q1441.75 1202.21 1435.94 1202.21 Q1430.13 1202.21 1427.05 1197.63 Q1423.99 1193.02 1423.99 1184.3 Q1423.99 1175.55 1427.05 1170.96 Q1430.13 1166.36 1435.94 1166.36 Z" fill="#000000" fill-rule="evenodd" fill-opacity="1" /><path clip-path="url(#clip480)" d="M 0 0 M1456.1 1195.66 L1460.98 1195.66 L1460.98 1201.54 L1456.1 1201.54 L1456.1 1195.66 Z" fill="#000000" fill-rule="evenodd" fill-opacity="1" /><path clip-path="url(#clip480)" d="M 0 0 M1481.17 1170.06 Q1477.56 1170.06 1475.73 1173.63 Q1473.92 1177.17 1473.92 1184.3 Q1473.92 1191.4 1475.73 1194.97 Q1477.56 1198.51 1481.17 1198.51 Q1484.8 1198.51 1486.61 1194.97 Q1488.44 1191.4 1488.44 1184.3 Q1488.44 1177.17 1486.61 1173.63 Q1484.8 1170.06 1481.17 1170.06 M1481.17 1166.36 Q1486.98 1166.36 1490.03 1170.96 Q1493.11 1175.55 1493.11 1184.3 Q1493.11 1193.02 1490.03 1197.63 Q1486.98 1202.21 1481.17 1202.21 Q1475.36 1202.21 1472.28 1197.63 Q1469.22 1193.02 1469.22 1184.3 Q1469.22 1175.55 1472.28 1170.96 Q1475.36 1166.36 1481.17 1166.36 Z" fill="#000000" fill-rule="evenodd" fill-opacity="1" /><path clip-path="url(#clip480)" d="M 0 0 M1511.33 1170.06 Q1507.72 1170.06 1505.89 1173.63 Q1504.09 1177.17 1504.09 1184.3 Q1504.09 1191.4 1505.89 1194.97 Q1507.72 1198.51 1511.33 1198.51 Q1514.96 1198.51 1516.77 1194.97 Q1518.6 1191.4 1518.6 1184.3 Q1518.6 1177.17 1516.77 1173.63 Q1514.96 1170.06 1511.33 1170.06 M1511.33 1166.36 Q1517.14 1166.36 1520.2 1170.96 Q1523.27 1175.55 1523.27 1184.3 Q1523.27 1193.02 1520.2 1197.63 Q1517.14 1202.21 1511.33 1202.21 Q1505.52 1202.21 1502.44 1197.63 Q1499.39 1193.02 1499.39 1184.3 Q1499.39 1175.55 1502.44 1170.96 Q1505.52 1166.36 1511.33 1166.36 Z" fill="#000000" fill-rule="evenodd" fill-opacity="1" /><path clip-path="url(#clip480)" d="M 0 0 M1541.49 1170.06 Q1537.88 1170.06 1536.05 1173.63 Q1534.25 1177.17 1534.25 1184.3 Q1534.25 1191.4 1536.05 1194.97 Q1537.88 1198.51 1541.49 1198.51 Q1545.13 1198.51 1546.93 1194.97 Q1548.76 1191.4 1548.76 1184.3 Q1548.76 1177.17 1546.93 1173.63 Q1545.13 1170.06 1541.49 1170.06 M1541.49 1166.36 Q1547.3 1166.36 1550.36 1170.96 Q1553.44 1175.55 1553.44 1184.3 Q1553.44 1193.02 1550.36 1197.63 Q1547.3 1202.21 1541.49 1202.21 Q1535.68 1202.21 1532.6 1197.63 Q1529.55 1193.02 1529.55 1184.3 Q1529.55 1175.55 1532.6 1170.96 Q1535.68 1166.36 1541.49 1166.36 Z" fill="#000000" fill-rule="evenodd" fill-opacity="1" /><path clip-path="url(#clip480)" d="M 0 0 M1562.46 1197.61 L1570.1 1197.61 L1570.1 1171.24 L1561.79 1172.91 L1561.79 1168.65 L1570.06 1166.98 L1574.73 1166.98 L1574.73 1197.61 L1582.37 1197.61 L1582.37 1201.54 L1562.46 1201.54 L1562.46 1197.61 Z" fill="#000000" fill-rule="evenodd" fill-opacity="1" /><path clip-path="url(#clip480)" d="M 0 0 M1601.82 1170.06 Q1598.2 1170.06 1596.38 1173.63 Q1594.57 1177.17 1594.57 1184.3 Q1594.57 1191.4 1596.38 1194.97 Q1598.2 1198.51 1601.82 1198.51 Q1605.45 1198.51 1607.26 1194.97 Q1609.08 1191.4 1609.08 1184.3 Q1609.08 1177.17 1607.26 1173.63 Q1605.45 1170.06 1601.82 1170.06 M1601.82 1166.36 Q1607.63 1166.36 1610.68 1170.96 Q1613.76 1175.55 1613.76 1184.3 Q1613.76 1193.02 1610.68 1197.63 Q1607.63 1202.21 1601.82 1202.21 Q1596.01 1202.21 1592.93 1197.63 Q1589.87 1193.02 1589.87 1184.3 Q1589.87 1175.55 1592.93 1170.96 Q1596.01 1166.36 1601.82 1166.36 Z" fill="#000000" fill-rule="evenodd" fill-opacity="1" /><path clip-path="url(#clip480)" d="M 0 0 M2062.92 1170.06 Q2059.31 1170.06 2057.48 1173.63 Q2055.68 1177.17 2055.68 1184.3 Q2055.68 1191.4 2057.48 1194.97 Q2059.31 1198.51 2062.92 1198.51 Q2066.56 1198.51 2068.36 1194.97 Q2070.19 1191.4 2070.19 1184.3 Q2070.19 1177.17 2068.36 1173.63 Q2066.56 1170.06 2062.92 1170.06 M2062.92 1166.36 Q2068.73 1166.36 2071.79 1170.96 Q2074.87 1175.55 2074.87 1184.3 Q2074.87 1193.02 2071.79 1197.63 Q2068.73 1202.21 2062.92 1202.21 Q2057.11 1202.21 2054.03 1197.63 Q2050.98 1193.02 2050.98 1184.3 Q2050.98 1175.55 2054.03 1170.96 Q2057.11 1166.36 2062.92 1166.36 Z" fill="#000000" fill-rule="evenodd" fill-opacity="1" /><path clip-path="url(#clip480)" d="M 0 0 M2083.08 1195.66 L2087.97 1195.66 L2087.97 1201.54 L2083.08 1201.54 L2083.08 1195.66 Z" fill="#000000" fill-rule="evenodd" fill-opacity="1" /><path clip-path="url(#clip480)" d="M 0 0 M2108.15 1170.06 Q2104.54 1170.06 2102.71 1173.63 Q2100.91 1177.17 2100.91 1184.3 Q2100.91 1191.4 2102.71 1194.97 Q2104.54 1198.51 2108.15 1198.51 Q2111.79 1198.51 2113.59 1194.97 Q2115.42 1191.4 2115.42 1184.3 Q2115.42 1177.17 2113.59 1173.63 Q2111.79 1170.06 2108.15 1170.06 M2108.15 1166.36 Q2113.96 1166.36 2117.02 1170.96 Q2120.1 1175.55 2120.1 1184.3 Q2120.1 1193.02 2117.02 1197.63 Q2113.96 1202.21 2108.15 1202.21 Q2102.34 1202.21 2099.26 1197.63 Q2096.21 1193.02 2096.21 1184.3 Q2096.21 1175.55 2099.26 1170.96 Q2102.34 1166.36 2108.15 1166.36 Z" fill="#000000" fill-rule="evenodd" fill-opacity="1" /><path clip-path="url(#clip480)" d="M 0 0 M2138.31 1170.06 Q2134.7 1170.06 2132.87 1173.63 Q2131.07 1177.17 2131.07 1184.3 Q2131.07 1191.4 2132.87 1194.97 Q2134.7 1198.51 2138.31 1198.51 Q2141.95 1198.51 2143.75 1194.97 Q2145.58 1191.4 2145.58 1184.3 Q2145.58 1177.17 2143.75 1173.63 Q2141.95 1170.06 2138.31 1170.06 M2138.31 1166.36 Q2144.12 1166.36 2147.18 1170.96 Q2150.26 1175.55 2150.26 1184.3 Q2150.26 1193.02 2147.18 1197.63 Q2144.12 1202.21 2138.31 1202.21 Q2132.5 1202.21 2129.43 1197.63 Q2126.37 1193.02 2126.37 1184.3 Q2126.37 1175.55 2129.43 1170.96 Q2132.5 1166.36 2138.31 1166.36 Z" fill="#000000" fill-rule="evenodd" fill-opacity="1" /><path clip-path="url(#clip480)" d="M 0 0 M2168.48 1170.06 Q2164.87 1170.06 2163.04 1173.63 Q2161.23 1177.17 2161.23 1184.3 Q2161.23 1191.4 2163.04 1194.97 Q2164.87 1198.51 2168.48 1198.51 Q2172.11 1198.51 2173.92 1194.97 Q2175.75 1191.4 2175.75 1184.3 Q2175.75 1177.17 2173.92 1173.63 Q2172.11 1170.06 2168.48 1170.06 M2168.48 1166.36 Q2174.29 1166.36 2177.34 1170.96 Q2180.42 1175.55 2180.42 1184.3 Q2180.42 1193.02 2177.34 1197.63 Q2174.29 1202.21 2168.48 1202.21 Q2162.67 1202.21 2159.59 1197.63 Q2156.53 1193.02 2156.53 1184.3 Q2156.53 1175.55 2159.59 1170.96 Q2162.67 1166.36 2168.48 1166.36 Z" fill="#000000" fill-rule="evenodd" fill-opacity="1" /><path clip-path="url(#clip480)" d="M 0 0 M2189.45 1197.61 L2197.09 1197.61 L2197.09 1171.24 L2188.78 1172.91 L2188.78 1168.65 L2197.04 1166.98 L2201.72 1166.98 L2201.72 1197.61 L2209.36 1197.61 L2209.36 1201.54 L2189.45 1201.54 L2189.45 1197.61 Z" fill="#000000" fill-rule="evenodd" fill-opacity="1" /><path clip-path="url(#clip480)" d="M 0 0 M2218.85 1166.98 L2237.2 1166.98 L2237.2 1170.92 L2223.13 1170.92 L2223.13 1179.39 Q2224.15 1179.04 2225.17 1178.88 Q2226.18 1178.69 2227.2 1178.69 Q2232.99 1178.69 2236.37 1181.87 Q2239.75 1185.04 2239.75 1190.45 Q2239.75 1196.03 2236.28 1199.13 Q2232.81 1202.21 2226.49 1202.21 Q2224.31 1202.21 2222.04 1201.84 Q2219.8 1201.47 2217.39 1200.73 L2217.39 1196.03 Q2219.47 1197.17 2221.69 1197.72 Q2223.92 1198.28 2226.39 1198.28 Q2230.4 1198.28 2232.74 1196.17 Q2235.07 1194.06 2235.07 1190.45 Q2235.07 1186.84 2232.74 1184.74 Q2230.4 1182.63 2226.39 1182.63 Q2224.52 1182.63 2222.64 1183.05 Q2220.79 1183.46 2218.85 1184.34 L2218.85 1166.98 Z" fill="#000000" fill-rule="evenodd" fill-opacity="1" /><polyline clip-path="url(#clip482)" style="stroke:#000000; stroke-width:2; stroke-opacity:0.1; fill:none" points="
  205.121,1109.92 2352.76,1109.92 
  "/>
<polyline clip-path="url(#clip482)" style="stroke:#000000; stroke-width:2; stroke-opacity:0.1; fill:none" points="
  205.121,937.964 2352.76,937.964 
  "/>
<polyline clip-path="url(#clip482)" style="stroke:#000000; stroke-width:2; stroke-opacity:0.1; fill:none" points="
  205.121,766.011 2352.76,766.011 
  "/>
<polyline clip-path="url(#clip482)" style="stroke:#000000; stroke-width:2; stroke-opacity:0.1; fill:none" points="
  205.121,594.057 2352.76,594.057 
  "/>
<polyline clip-path="url(#clip482)" style="stroke:#000000; stroke-width:2; stroke-opacity:0.1; fill:none" points="
  205.121,422.103 2352.76,422.103 
  "/>
<polyline clip-path="url(#clip482)" style="stroke:#000000; stroke-width:2; stroke-opacity:0.1; fill:none" points="
  205.121,250.149 2352.76,250.149 
  "/>
<polyline clip-path="url(#clip482)" style="stroke:#000000; stroke-width:2; stroke-opacity:0.1; fill:none" points="
  205.121,78.1958 2352.76,78.1958 
  "/>
<polyline clip-path="url(#clip480)" style="stroke:#000000; stroke-width:4; stroke-opacity:1; fill:none" points="
  205.121,1140.87 205.121,47.2441 
  "/>
<polyline clip-path="url(#clip480)" style="stroke:#000000; stroke-width:4; stroke-opacity:1; fill:none" points="
  205.121,1109.92 230.893,1109.92 
  "/>
<polyline clip-path="url(#clip480)" style="stroke:#000000; stroke-width:4; stroke-opacity:1; fill:none" points="
  205.121,937.964 230.893,937.964 
  "/>
<polyline clip-path="url(#clip480)" style="stroke:#000000; stroke-width:4; stroke-opacity:1; fill:none" points="
  205.121,766.011 230.893,766.011 
  "/>
<polyline clip-path="url(#clip480)" style="stroke:#000000; stroke-width:4; stroke-opacity:1; fill:none" points="
  205.121,594.057 230.893,594.057 
  "/>
<polyline clip-path="url(#clip480)" style="stroke:#000000; stroke-width:4; stroke-opacity:1; fill:none" points="
  205.121,422.103 230.893,422.103 
  "/>
<polyline clip-path="url(#clip480)" style="stroke:#000000; stroke-width:4; stroke-opacity:1; fill:none" points="
  205.121,250.149 230.893,250.149 
  "/>
<polyline clip-path="url(#clip480)" style="stroke:#000000; stroke-width:4; stroke-opacity:1; fill:none" points="
  205.121,78.1958 230.893,78.1958 
  "/>
<path clip-path="url(#clip480)" d="M 0 0 M157.177 1095.72 Q153.566 1095.72 151.737 1099.28 Q149.931 1102.82 149.931 1109.95 Q149.931 1117.06 151.737 1120.62 Q153.566 1124.17 157.177 1124.17 Q160.811 1124.17 162.616 1120.62 Q164.445 1117.06 164.445 1109.95 Q164.445 1102.82 162.616 1099.28 Q160.811 1095.72 157.177 1095.72 M157.177 1092.01 Q162.987 1092.01 166.042 1096.62 Q169.121 1101.2 169.121 1109.95 Q169.121 1118.68 166.042 1123.29 Q162.987 1127.87 157.177 1127.87 Q151.366 1127.87 148.288 1123.29 Q145.232 1118.68 145.232 1109.95 Q145.232 1101.2 148.288 1096.62 Q151.366 1092.01 157.177 1092.01 Z" fill="#000000" fill-rule="evenodd" fill-opacity="1" /><path clip-path="url(#clip480)" d="M 0 0 M117.825 951.309 L125.464 951.309 L125.464 924.944 L117.154 926.61 L117.154 922.351 L125.418 920.684 L130.093 920.684 L130.093 951.309 L137.732 951.309 L137.732 955.244 L117.825 955.244 L117.825 951.309 Z" fill="#000000" fill-rule="evenodd" fill-opacity="1" /><path clip-path="url(#clip480)" d="M 0 0 M157.177 923.763 Q153.566 923.763 151.737 927.328 Q149.931 930.869 149.931 937.999 Q149.931 945.105 151.737 948.67 Q153.566 952.212 157.177 952.212 Q160.811 952.212 162.616 948.67 Q164.445 945.105 164.445 937.999 Q164.445 930.869 162.616 927.328 Q160.811 923.763 157.177 923.763 M157.177 920.059 Q162.987 920.059 166.042 924.666 Q169.121 929.249 169.121 937.999 Q169.121 946.726 166.042 951.332 Q162.987 955.916 157.177 955.916 Q151.366 955.916 148.288 951.332 Q145.232 946.726 145.232 937.999 Q145.232 929.249 148.288 924.666 Q151.366 920.059 157.177 920.059 Z" fill="#000000" fill-rule="evenodd" fill-opacity="1" /><path clip-path="url(#clip480)" d="M 0 0 M121.043 779.355 L137.362 779.355 L137.362 783.291 L115.418 783.291 L115.418 779.355 Q118.08 776.601 122.663 771.971 Q127.269 767.318 128.45 765.976 Q130.695 763.453 131.575 761.717 Q132.478 759.957 132.478 758.268 Q132.478 755.513 130.533 753.777 Q128.612 752.041 125.51 752.041 Q123.311 752.041 120.857 752.805 Q118.427 753.569 115.649 755.119 L115.649 750.397 Q118.473 749.263 120.927 748.684 Q123.38 748.106 125.418 748.106 Q130.788 748.106 133.982 750.791 Q137.177 753.476 137.177 757.967 Q137.177 760.096 136.367 762.018 Q135.579 763.916 133.473 766.508 Q132.894 767.18 129.792 770.397 Q126.691 773.592 121.043 779.355 Z" fill="#000000" fill-rule="evenodd" fill-opacity="1" /><path clip-path="url(#clip480)" d="M 0 0 M157.177 751.809 Q153.566 751.809 151.737 755.374 Q149.931 758.916 149.931 766.045 Q149.931 773.152 151.737 776.717 Q153.566 780.258 157.177 780.258 Q160.811 780.258 162.616 776.717 Q164.445 773.152 164.445 766.045 Q164.445 758.916 162.616 755.374 Q160.811 751.809 157.177 751.809 M157.177 748.106 Q162.987 748.106 166.042 752.712 Q169.121 757.295 169.121 766.045 Q169.121 774.772 166.042 779.379 Q162.987 783.962 157.177 783.962 Q151.366 783.962 148.288 779.379 Q145.232 774.772 145.232 766.045 Q145.232 757.295 148.288 752.712 Q151.366 748.106 157.177 748.106 Z" fill="#000000" fill-rule="evenodd" fill-opacity="1" /><path clip-path="url(#clip480)" d="M 0 0 M131.181 592.703 Q134.538 593.42 136.413 595.689 Q138.311 597.957 138.311 601.291 Q138.311 606.406 134.792 609.207 Q131.274 612.008 124.793 612.008 Q122.617 612.008 120.302 611.568 Q118.01 611.152 115.556 610.295 L115.556 605.781 Q117.501 606.916 119.816 607.494 Q122.13 608.073 124.654 608.073 Q129.052 608.073 131.343 606.337 Q133.658 604.601 133.658 601.291 Q133.658 598.235 131.505 596.522 Q129.376 594.786 125.556 594.786 L121.529 594.786 L121.529 590.943 L125.742 590.943 Q129.191 590.943 131.019 589.578 Q132.848 588.189 132.848 585.596 Q132.848 582.934 130.95 581.522 Q129.075 580.087 125.556 580.087 Q123.635 580.087 121.436 580.504 Q119.237 580.92 116.598 581.8 L116.598 577.633 Q119.26 576.893 121.575 576.522 Q123.913 576.152 125.973 576.152 Q131.297 576.152 134.399 578.582 Q137.501 580.99 137.501 585.11 Q137.501 587.981 135.857 589.971 Q134.214 591.939 131.181 592.703 Z" fill="#000000" fill-rule="evenodd" fill-opacity="1" /><path clip-path="url(#clip480)" d="M 0 0 M157.177 579.856 Q153.566 579.856 151.737 583.42 Q149.931 586.962 149.931 594.092 Q149.931 601.198 151.737 604.763 Q153.566 608.304 157.177 608.304 Q160.811 608.304 162.616 604.763 Q164.445 601.198 164.445 594.092 Q164.445 586.962 162.616 583.42 Q160.811 579.856 157.177 579.856 M157.177 576.152 Q162.987 576.152 166.042 580.758 Q169.121 585.342 169.121 594.092 Q169.121 602.818 166.042 607.425 Q162.987 612.008 157.177 612.008 Q151.366 612.008 148.288 607.425 Q145.232 602.818 145.232 594.092 Q145.232 585.342 148.288 580.758 Q151.366 576.152 157.177 576.152 Z" fill="#000000" fill-rule="evenodd" fill-opacity="1" /><path clip-path="url(#clip480)" d="M 0 0 M129.862 408.897 L118.056 427.346 L129.862 427.346 L129.862 408.897 M128.635 404.823 L134.515 404.823 L134.515 427.346 L139.445 427.346 L139.445 431.235 L134.515 431.235 L134.515 439.383 L129.862 439.383 L129.862 431.235 L114.26 431.235 L114.26 426.721 L128.635 404.823 Z" fill="#000000" fill-rule="evenodd" fill-opacity="1" /><path clip-path="url(#clip480)" d="M 0 0 M157.177 407.902 Q153.566 407.902 151.737 411.467 Q149.931 415.008 149.931 422.138 Q149.931 429.244 151.737 432.809 Q153.566 436.351 157.177 436.351 Q160.811 436.351 162.616 432.809 Q164.445 429.244 164.445 422.138 Q164.445 415.008 162.616 411.467 Q160.811 407.902 157.177 407.902 M157.177 404.198 Q162.987 404.198 166.042 408.805 Q169.121 413.388 169.121 422.138 Q169.121 430.865 166.042 435.471 Q162.987 440.054 157.177 440.054 Q151.366 440.054 148.288 435.471 Q145.232 430.865 145.232 422.138 Q145.232 413.388 148.288 408.805 Q151.366 404.198 157.177 404.198 Z" fill="#000000" fill-rule="evenodd" fill-opacity="1" /><path clip-path="url(#clip480)" d="M 0 0 M117.061 232.869 L135.417 232.869 L135.417 236.805 L121.343 236.805 L121.343 245.277 Q122.362 244.93 123.38 244.768 Q124.399 244.582 125.418 244.582 Q131.205 244.582 134.584 247.754 Q137.964 250.925 137.964 256.342 Q137.964 261.92 134.492 265.022 Q131.019 268.101 124.7 268.101 Q122.524 268.101 120.255 267.73 Q118.01 267.36 115.603 266.619 L115.603 261.92 Q117.686 263.054 119.908 263.61 Q122.13 264.166 124.607 264.166 Q128.612 264.166 130.95 262.059 Q133.288 259.953 133.288 256.342 Q133.288 252.73 130.95 250.624 Q128.612 248.518 124.607 248.518 Q122.732 248.518 120.857 248.934 Q119.006 249.351 117.061 250.23 L117.061 232.869 Z" fill="#000000" fill-rule="evenodd" fill-opacity="1" /><path clip-path="url(#clip480)" d="M 0 0 M157.177 235.948 Q153.566 235.948 151.737 239.513 Q149.931 243.055 149.931 250.184 Q149.931 257.291 151.737 260.855 Q153.566 264.397 157.177 264.397 Q160.811 264.397 162.616 260.855 Q164.445 257.291 164.445 250.184 Q164.445 243.055 162.616 239.513 Q160.811 235.948 157.177 235.948 M157.177 232.244 Q162.987 232.244 166.042 236.851 Q169.121 241.434 169.121 250.184 Q169.121 258.911 166.042 263.517 Q162.987 268.101 157.177 268.101 Q151.366 268.101 148.288 263.517 Q145.232 258.911 145.232 250.184 Q145.232 241.434 148.288 236.851 Q151.366 232.244 157.177 232.244 Z" fill="#000000" fill-rule="evenodd" fill-opacity="1" /><path clip-path="url(#clip480)" d="M 0 0 M127.593 76.3323 Q124.445 76.3323 122.593 78.4851 Q120.765 80.6379 120.765 84.3879 Q120.765 88.1147 122.593 90.2906 Q124.445 92.4434 127.593 92.4434 Q130.742 92.4434 132.57 90.2906 Q134.422 88.1147 134.422 84.3879 Q134.422 80.6379 132.57 78.4851 Q130.742 76.3323 127.593 76.3323 M136.876 61.6796 L136.876 65.9389 Q135.117 65.1056 133.311 64.6657 Q131.529 64.2259 129.769 64.2259 Q125.14 64.2259 122.686 67.3509 Q120.255 70.4759 119.908 76.7953 Q121.274 74.7814 123.334 73.7166 Q125.394 72.6287 127.871 72.6287 Q133.08 72.6287 136.089 75.7999 Q139.121 78.9481 139.121 84.3879 Q139.121 89.7119 135.973 92.9295 Q132.825 96.1471 127.593 96.1471 Q121.598 96.1471 118.427 91.5637 Q115.256 86.9573 115.256 78.2305 Q115.256 70.0361 119.144 65.175 Q123.033 60.2908 129.584 60.2908 Q131.343 60.2908 133.126 60.638 Q134.931 60.9852 136.876 61.6796 Z" fill="#000000" fill-rule="evenodd" fill-opacity="1" /><path clip-path="url(#clip480)" d="M 0 0 M157.177 63.9944 Q153.566 63.9944 151.737 67.5592 Q149.931 71.1009 149.931 78.2305 Q149.931 85.3369 151.737 88.9017 Q153.566 92.4434 157.177 92.4434 Q160.811 92.4434 162.616 88.9017 Q164.445 85.3369 164.445 78.2305 Q164.445 71.1009 162.616 67.5592 Q160.811 63.9944 157.177 63.9944 M157.177 60.2908 Q162.987 60.2908 166.042 64.8972 Q169.121 69.4805 169.121 78.2305 Q169.121 86.9573 166.042 91.5637 Q162.987 96.1471 157.177 96.1471 Q151.366 96.1471 148.288 91.5637 Q145.232 86.9573 145.232 78.2305 Q145.232 69.4805 148.288 64.8972 Q151.366 60.2908 157.177 60.2908 Z" fill="#000000" fill-rule="evenodd" fill-opacity="1" /><path clip-path="url(#clip480)" d="M 0 0 M16.4842 731.063 L16.4842 724.633 L64.0042 724.633 L64.0042 731.063 L16.4842 731.063 Z" fill="#000000" fill-rule="evenodd" fill-opacity="1" /><path clip-path="url(#clip480)" d="M 0 0 M42.4881 682.461 L64.0042 682.461 L64.0042 688.317 L42.679 688.317 Q37.6183 688.317 35.1038 690.29 Q32.5894 692.264 32.5894 696.211 Q32.5894 700.953 35.6131 703.69 Q38.6368 706.428 43.8567 706.428 L64.0042 706.428 L64.0042 712.316 L28.3562 712.316 L28.3562 706.428 L33.8944 706.428 Q30.6797 704.327 29.0883 701.494 Q27.4968 698.63 27.4968 694.906 Q27.4968 688.763 31.3163 685.612 Q35.1038 682.461 42.4881 682.461 Z" fill="#000000" fill-rule="evenodd" fill-opacity="1" /><path clip-path="url(#clip480)" d="M 0 0 M18.2347 664.987 L28.3562 664.987 L28.3562 652.924 L32.9077 652.924 L32.9077 664.987 L52.2594 664.987 Q56.6199 664.987 57.8613 663.809 Q59.1026 662.6 59.1026 658.939 L59.1026 652.924 L64.0042 652.924 L64.0042 658.939 Q64.0042 665.719 61.4897 668.297 Q58.9434 670.875 52.2594 670.875 L32.9077 670.875 L32.9077 675.172 L28.3562 675.172 L28.3562 670.875 L18.2347 670.875 L18.2347 664.987 Z" fill="#000000" fill-rule="evenodd" fill-opacity="1" /><path clip-path="url(#clip480)" d="M 0 0 M44.7161 614.73 L47.5806 614.73 L47.5806 641.656 Q53.6281 641.275 56.8109 638.028 Q59.9619 634.75 59.9619 628.925 Q59.9619 625.551 59.1344 622.4 Q58.3069 619.217 56.6518 616.098 L62.1899 616.098 Q63.5267 619.249 64.227 622.559 Q64.9272 625.87 64.9272 629.275 Q64.9272 637.805 59.9619 642.802 Q54.9967 647.768 46.5303 647.768 Q37.7774 647.768 32.6531 643.057 Q27.4968 638.314 27.4968 630.294 Q27.4968 623.1 32.1438 618.931 Q36.7589 614.73 44.7161 614.73 M42.9973 620.586 Q38.1912 620.65 35.3266 623.291 Q32.4621 625.901 32.4621 630.23 Q32.4621 635.132 35.2312 638.092 Q38.0002 641.02 43.0292 641.465 L42.9973 620.586 Z" fill="#000000" fill-rule="evenodd" fill-opacity="1" /><path clip-path="url(#clip480)" d="M 0 0 M33.8307 584.461 Q33.2578 585.447 33.0032 586.625 Q32.7167 587.771 32.7167 589.171 Q32.7167 594.136 35.9632 596.81 Q39.1779 599.452 45.2253 599.452 L64.0042 599.452 L64.0042 605.34 L28.3562 605.34 L28.3562 599.452 L33.8944 599.452 Q30.6479 597.606 29.0883 594.646 Q27.4968 591.686 27.4968 587.452 Q27.4968 586.848 27.5923 586.116 Q27.656 585.384 27.8151 584.492 L33.8307 584.461 Z" fill="#000000" fill-rule="evenodd" fill-opacity="1" /><path clip-path="url(#clip480)" d="M 0 0 M28.3562 582.519 L28.3562 576.312 L58.275 565.172 L28.3562 554.033 L28.3562 547.826 L64.0042 561.194 L64.0042 569.151 L28.3562 582.519 Z" fill="#000000" fill-rule="evenodd" fill-opacity="1" /><path clip-path="url(#clip480)" d="M 0 0 M46.0847 523.541 Q46.0847 530.639 47.7079 533.376 Q49.3312 536.113 53.2461 536.113 Q56.3653 536.113 58.2114 534.076 Q60.0256 532.007 60.0256 528.474 Q60.0256 523.604 56.5881 520.676 Q53.1188 517.716 47.3897 517.716 L46.0847 517.716 L46.0847 523.541 M43.6657 511.86 L64.0042 511.86 L64.0042 517.716 L58.5933 517.716 Q61.8398 519.721 63.3994 522.713 Q64.9272 525.705 64.9272 530.034 Q64.9272 535.508 61.8716 538.755 Q58.7843 541.969 53.6281 541.969 Q47.6125 541.969 44.5569 537.959 Q41.5014 533.917 41.5014 525.928 L41.5014 517.716 L40.9285 517.716 Q36.8862 517.716 34.6901 520.39 Q32.4621 523.032 32.4621 527.838 Q32.4621 530.893 33.1941 533.79 Q33.9262 536.686 35.3903 539.36 L29.9795 539.36 Q28.7381 536.145 28.1334 533.121 Q27.4968 530.097 27.4968 527.233 Q27.4968 519.499 31.5072 515.679 Q35.5176 511.86 43.6657 511.86 Z" fill="#000000" fill-rule="evenodd" fill-opacity="1" /><path clip-path="url(#clip480)" d="M 0 0 M14.479 499.797 L14.479 493.94 L64.0042 493.94 L64.0042 499.797 L14.479 499.797 Z" fill="#000000" fill-rule="evenodd" fill-opacity="1" /><path clip-path="url(#clip480)" d="M 0 0 M29.4065 458.961 L34.9447 458.961 Q33.6716 461.443 33.035 464.117 Q32.3984 466.79 32.3984 469.655 Q32.3984 474.016 33.7352 476.212 Q35.072 478.376 37.7456 478.376 Q39.7826 478.376 40.9603 476.816 Q42.1061 475.257 43.1565 470.546 L43.6021 468.541 Q44.9389 462.303 47.3897 459.693 Q49.8086 457.051 54.1691 457.051 Q59.1344 457.051 62.0308 460.998 Q64.9272 464.913 64.9272 471.788 Q64.9272 474.652 64.3543 477.771 Q63.8132 480.859 62.6992 484.296 L56.6518 484.296 Q58.3387 481.05 59.198 477.899 Q60.0256 474.748 60.0256 471.66 Q60.0256 467.523 58.6251 465.295 Q57.1929 463.067 54.6147 463.067 Q52.2276 463.067 50.9545 464.69 Q49.6813 466.281 48.5037 471.724 L48.0262 473.761 Q46.8804 479.204 44.5251 481.623 Q42.138 484.042 38.0002 484.042 Q32.9713 484.042 30.2341 480.477 Q27.4968 476.912 27.4968 470.355 Q27.4968 467.109 27.9743 464.244 Q28.4517 461.38 29.4065 458.961 Z" fill="#000000" fill-rule="evenodd" fill-opacity="1" /><path clip-path="url(#clip482)" d="
M265.903 1109.92 L600.447 1109.92 L600.447 1092.72 L265.903 1092.72  Z
  " fill="#009af9" fill-rule="evenodd" fill-opacity="1"/>
<polyline clip-path="url(#clip482)" style="stroke:#ffffff; stroke-width:4; stroke-opacity:1; fill:none" points="
  265.903,1109.92 600.447,1109.92 
  "/>
<path clip-path="url(#clip482)" d="
M272.168 1092.72 L273.421 1092.72 L273.421 1075.53 L272.168 1075.53  Z
  " fill="#009af9" fill-rule="evenodd" fill-opacity="1"/>
<polyline clip-path="url(#clip482)" style="stroke:#ffffff; stroke-width:4; stroke-opacity:1; fill:none" points="
  272.168,1092.72 273.421,1092.72 
  "/>
<path clip-path="url(#clip482)" d="
M341.082 1058.33 L683.143 1058.33 L683.143 1041.14 L341.082 1041.14  Z
  " fill="#e26f46" fill-rule="evenodd" fill-opacity="1"/>
<polyline clip-path="url(#clip482)" style="stroke:#ffffff; stroke-width:4; stroke-opacity:1; fill:none" points="
  341.082,1058.33 683.143,1058.33 
  "/>
<path clip-path="url(#clip482)" d="
M343.587 1041.14 L481.415 1041.14 L481.415 1023.94 L343.587 1023.94  Z
  " fill="#e26f46" fill-rule="evenodd" fill-opacity="1"/>
<polyline clip-path="url(#clip482)" style="stroke:#ffffff; stroke-width:4; stroke-opacity:1; fill:none" points="
  343.587,1041.14 481.415,1041.14 
  "/>
<path clip-path="url(#clip482)" d="
M348.599 1023.94 L348.599 1023.94 L348.599 1006.75 L348.599 1006.75  Z
  " fill="#e26f46" fill-rule="evenodd" fill-opacity="1"/>
<polyline clip-path="url(#clip482)" style="stroke:#ffffff; stroke-width:4; stroke-opacity:1; fill:none" points="
  348.599,1023.94 348.599,1023.94 
  "/>
<path clip-path="url(#clip482)" d="
M391.2 989.55 L392.453 989.55 L392.453 972.355 L391.2 972.355  Z
  " fill="#3da44d" fill-rule="evenodd" fill-opacity="1"/>
<polyline clip-path="url(#clip482)" style="stroke:#ffffff; stroke-width:4; stroke-opacity:1; fill:none" points="
  391.2,989.55 392.453,989.55 
  "/>
<path clip-path="url(#clip482)" d="
M426.284 955.16 L564.111 955.16 L564.111 937.964 L426.284 937.964  Z
  " fill="#c271d2" fill-rule="evenodd" fill-opacity="1"/>
<polyline clip-path="url(#clip482)" style="stroke:#ffffff; stroke-width:4; stroke-opacity:1; fill:none" points="
  426.284,955.16 564.111,955.16 
  "/>
<path clip-path="url(#clip482)" d="
M430.043 937.964 L430.043 937.964 L430.043 920.769 L430.043 920.769  Z
  " fill="#c271d2" fill-rule="evenodd" fill-opacity="1"/>
<polyline clip-path="url(#clip482)" style="stroke:#ffffff; stroke-width:4; stroke-opacity:1; fill:none" points="
  430.043,937.964 430.043,937.964 
  "/>
<path clip-path="url(#clip482)" d="
M457.608 903.574 L656.831 903.574 L656.831 886.378 L457.608 886.378  Z
  " fill="#ac8d18" fill-rule="evenodd" fill-opacity="1"/>
<polyline clip-path="url(#clip482)" style="stroke:#ffffff; stroke-width:4; stroke-opacity:1; fill:none" points="
  457.608,903.574 656.831,903.574 
  "/>
<path clip-path="url(#clip482)" d="
M461.367 886.378 L461.367 886.378 L461.367 869.183 L461.367 869.183  Z
  " fill="#ac8d18" fill-rule="evenodd" fill-opacity="1"/>
<polyline clip-path="url(#clip482)" style="stroke:#ffffff; stroke-width:4; stroke-opacity:1; fill:none" points="
  461.367,886.378 461.367,886.378 
  "/>
<path clip-path="url(#clip482)" d="
M516.498 851.987 L516.498 851.987 L516.498 834.792 L516.498 834.792  Z
  " fill="#00a9ad" fill-rule="evenodd" fill-opacity="1"/>
<polyline clip-path="url(#clip482)" style="stroke:#ffffff; stroke-width:4; stroke-opacity:1; fill:none" points="
  516.498,851.987 516.498,851.987 
  "/>
<path clip-path="url(#clip482)" d="
M545.316 817.597 L628.012 817.597 L628.012 800.401 L545.316 800.401  Z
  " fill="#ed5d92" fill-rule="evenodd" fill-opacity="1"/>
<polyline clip-path="url(#clip482)" style="stroke:#ffffff; stroke-width:4; stroke-opacity:1; fill:none" points="
  545.316,817.597 628.012,817.597 
  "/>
<path clip-path="url(#clip482)" d="
M549.075 800.401 L549.075 800.401 L549.075 783.206 L549.075 783.206  Z
  " fill="#ed5d92" fill-rule="evenodd" fill-opacity="1"/>
<polyline clip-path="url(#clip482)" style="stroke:#ffffff; stroke-width:4; stroke-opacity:1; fill:none" points="
  549.075,800.401 549.075,800.401 
  "/>
<path clip-path="url(#clip482)" d="
M584.158 766.011 L584.158 766.011 L584.158 748.815 L584.158 748.815  Z
  " fill="#c68125" fill-rule="evenodd" fill-opacity="1"/>
<polyline clip-path="url(#clip482)" style="stroke:#ffffff; stroke-width:4; stroke-opacity:1; fill:none" points="
  584.158,766.011 584.158,766.011 
  "/>
<path clip-path="url(#clip482)" d="
M714.468 1109.92 L1151.77 1109.92 L1151.77 1092.72 L714.468 1092.72  Z
  " fill="#009af9" fill-rule="evenodd" fill-opacity="1"/>
<polyline clip-path="url(#clip482)" style="stroke:#ffffff; stroke-width:4; stroke-opacity:1; fill:none" points="
  714.468,1109.92 1151.77,1109.92 
  "/>
<path clip-path="url(#clip482)" d="
M718.227 1092.72 L857.307 1092.72 L857.307 1075.53 L718.227 1075.53  Z
  " fill="#009af9" fill-rule="evenodd" fill-opacity="1"/>
<polyline clip-path="url(#clip482)" style="stroke:#ffffff; stroke-width:4; stroke-opacity:1; fill:none" points="
  718.227,1092.72 857.307,1092.72 
  "/>
<path clip-path="url(#clip482)" d="
M721.985 1075.53 L721.985 1075.53 L721.985 1058.33 L721.985 1058.33  Z
  " fill="#009af9" fill-rule="evenodd" fill-opacity="1"/>
<polyline clip-path="url(#clip482)" style="stroke:#ffffff; stroke-width:4; stroke-opacity:1; fill:none" points="
  721.985,1075.53 721.985,1075.53 
  "/>
<path clip-path="url(#clip482)" d="
M769.598 1041.14 L1231.96 1041.14 L1231.96 1023.94 L769.598 1023.94  Z
  " fill="#00a98d" fill-rule="evenodd" fill-opacity="1"/>
<polyline clip-path="url(#clip482)" style="stroke:#ffffff; stroke-width:4; stroke-opacity:1; fill:none" points="
  769.598,1041.14 1231.96,1041.14 
  "/>
<path clip-path="url(#clip482)" d="
M772.104 1023.94 L1137.99 1023.94 L1137.99 1006.75 L772.104 1006.75  Z
  " fill="#00a98d" fill-rule="evenodd" fill-opacity="1"/>
<polyline clip-path="url(#clip482)" style="stroke:#ffffff; stroke-width:4; stroke-opacity:1; fill:none" points="
  772.104,1023.94 1137.99,1023.94 
  "/>
<path clip-path="url(#clip482)" d="
M778.369 1006.75 L779.622 1006.75 L779.622 989.55 L778.369 989.55  Z
  " fill="#00a98d" fill-rule="evenodd" fill-opacity="1"/>
<polyline clip-path="url(#clip482)" style="stroke:#ffffff; stroke-width:4; stroke-opacity:1; fill:none" points="
  778.369,1006.75 779.622,1006.75 
  "/>
<path clip-path="url(#clip482)" d="
M792.152 972.355 L1094.13 972.355 L1094.13 955.16 L792.152 955.16  Z
  " fill="#8e971d" fill-rule="evenodd" fill-opacity="1"/>
<polyline clip-path="url(#clip482)" style="stroke:#ffffff; stroke-width:4; stroke-opacity:1; fill:none" points="
  792.152,972.355 1094.13,972.355 
  "/>
<path clip-path="url(#clip482)" d="
M795.911 955.16 L795.911 955.16 L795.911 937.964 L795.911 937.964  Z
  " fill="#8e971d" fill-rule="evenodd" fill-opacity="1"/>
<polyline clip-path="url(#clip482)" style="stroke:#ffffff; stroke-width:4; stroke-opacity:1; fill:none" points="
  795.911,955.16 795.911,955.16 
  "/>
<path clip-path="url(#clip482)" d="
M809.694 920.769 L809.694 920.769 L809.694 903.574 L809.694 903.574  Z
  " fill="#00a8cb" fill-rule="evenodd" fill-opacity="1"/>
<polyline clip-path="url(#clip482)" style="stroke:#ffffff; stroke-width:4; stroke-opacity:1; fill:none" points="
  809.694,920.769 809.694,920.769 
  "/>
<path clip-path="url(#clip482)" d="
M829.741 886.378 L1205.65 886.378 L1205.65 869.183 L829.741 869.183  Z
  " fill="#9b7fe8" fill-rule="evenodd" fill-opacity="1"/>
<polyline clip-path="url(#clip482)" style="stroke:#ffffff; stroke-width:4; stroke-opacity:1; fill:none" points="
  829.741,886.378 1205.65,886.378 
  "/>
<path clip-path="url(#clip482)" d="
M832.247 869.183 L1005.17 869.183 L1005.17 851.987 L832.247 851.987  Z
  " fill="#9b7fe8" fill-rule="evenodd" fill-opacity="1"/>
<polyline clip-path="url(#clip482)" style="stroke:#ffffff; stroke-width:4; stroke-opacity:1; fill:none" points="
  832.247,869.183 1005.17,869.183 
  "/>
<path clip-path="url(#clip482)" d="
M836.006 851.987 L836.006 851.987 L836.006 834.792 L836.006 834.792  Z
  " fill="#9b7fe8" fill-rule="evenodd" fill-opacity="1"/>
<polyline clip-path="url(#clip482)" style="stroke:#ffffff; stroke-width:4; stroke-opacity:1; fill:none" points="
  836.006,851.987 836.006,851.987 
  "/>
<path clip-path="url(#clip482)" d="
M876.101 817.597 L1178.08 817.597 L1178.08 800.401 L876.101 800.401  Z
  " fill="#608cf6" fill-rule="evenodd" fill-opacity="1"/>
<polyline clip-path="url(#clip482)" style="stroke:#ffffff; stroke-width:4; stroke-opacity:1; fill:none" points="
  876.101,817.597 1178.08,817.597 
  "/>
<path clip-path="url(#clip482)" d="
M878.607 800.401 L878.607 800.401 L878.607 783.206 L878.607 783.206  Z
  " fill="#608cf6" fill-rule="evenodd" fill-opacity="1"/>
<polyline clip-path="url(#clip482)" style="stroke:#ffffff; stroke-width:4; stroke-opacity:1; fill:none" points="
  878.607,800.401 878.607,800.401 
  "/>
<path clip-path="url(#clip482)" d="
M897.402 766.011 L1077.84 766.011 L1077.84 748.815 L897.402 748.815  Z
  " fill="#f05f73" fill-rule="evenodd" fill-opacity="1"/>
<polyline clip-path="url(#clip482)" style="stroke:#ffffff; stroke-width:4; stroke-opacity:1; fill:none" points="
  897.402,766.011 1077.84,766.011 
  "/>
<path clip-path="url(#clip482)" d="
M901.161 748.815 L901.161 748.815 L901.161 731.62 L901.161 731.62  Z
  " fill="#f05f73" fill-rule="evenodd" fill-opacity="1"/>
<polyline clip-path="url(#clip482)" style="stroke:#ffffff; stroke-width:4; stroke-opacity:1; fill:none" points="
  901.161,748.815 901.161,748.815 
  "/>
<path clip-path="url(#clip482)" d="
M913.69 714.424 L1035.24 714.424 L1035.24 697.229 L913.69 697.229  Z
  " fill="#dd64b5" fill-rule="evenodd" fill-opacity="1"/>
<polyline clip-path="url(#clip482)" style="stroke:#ffffff; stroke-width:4; stroke-opacity:1; fill:none" points="
  913.69,714.424 1035.24,714.424 
  "/>
<path clip-path="url(#clip482)" d="
M917.449 697.229 L917.449 697.229 L917.449 680.034 L917.449 680.034  Z
  " fill="#dd64b5" fill-rule="evenodd" fill-opacity="1"/>
<polyline clip-path="url(#clip482)" style="stroke:#ffffff; stroke-width:4; stroke-opacity:1; fill:none" points="
  917.449,697.229 917.449,697.229 
  "/>
<path clip-path="url(#clip482)" d="
M934.991 662.838 L1121.7 662.838 L1121.7 645.643 L934.991 645.643  Z
  " fill="#6b9e32" fill-rule="evenodd" fill-opacity="1"/>
<polyline clip-path="url(#clip482)" style="stroke:#ffffff; stroke-width:4; stroke-opacity:1; fill:none" points="
  934.991,662.838 1121.7,662.838 
  "/>
<path clip-path="url(#clip482)" d="
M936.244 645.643 L937.497 645.643 L937.497 628.448 L936.244 628.448  Z
  " fill="#6b9e32" fill-rule="evenodd" fill-opacity="1"/>
<polyline clip-path="url(#clip482)" style="stroke:#ffffff; stroke-width:4; stroke-opacity:1; fill:none" points="
  936.244,645.643 937.497,645.643 
  "/>
<path clip-path="url(#clip482)" d="
M950.027 611.252 L951.28 611.252 L951.28 594.057 L950.027 594.057  Z
  " fill="#009af9" fill-rule="evenodd" fill-opacity="1"/>
<polyline clip-path="url(#clip482)" style="stroke:#ffffff; stroke-width:4; stroke-opacity:1; fill:none" points="
  950.027,611.252 951.28,611.252 
  "/>
<path clip-path="url(#clip482)" d="
M962.556 576.862 L962.556 576.862 L962.556 559.666 L962.556 559.666  Z
  " fill="#e26f46" fill-rule="evenodd" fill-opacity="1"/>
<polyline clip-path="url(#clip482)" style="stroke:#ffffff; stroke-width:4; stroke-opacity:1; fill:none" points="
  962.556,576.862 962.556,576.862 
  "/>
<path clip-path="url(#clip482)" d="
M1018.95 542.471 L1018.95 542.471 L1018.95 525.275 L1018.95 525.275  Z
  " fill="#3da44d" fill-rule="evenodd" fill-opacity="1"/>
<polyline clip-path="url(#clip482)" style="stroke:#ffffff; stroke-width:4; stroke-opacity:1; fill:none" points="
  1018.95,542.471 1018.95,542.471 
  "/>
<path clip-path="url(#clip482)" d="
M1061.55 508.08 L1062.81 508.08 L1062.81 490.885 L1061.55 490.885  Z
  " fill="#c271d2" fill-rule="evenodd" fill-opacity="1"/>
<polyline clip-path="url(#clip482)" style="stroke:#ffffff; stroke-width:4; stroke-opacity:1; fill:none" points="
  1061.55,508.08 1062.81,508.08 
  "/>
<path clip-path="url(#clip482)" d="
M1262.03 1109.92 L2291.97 1109.92 L2291.97 1092.72 L1262.03 1092.72  Z
  " fill="#009af9" fill-rule="evenodd" fill-opacity="1"/>
<polyline clip-path="url(#clip482)" style="stroke:#ffffff; stroke-width:4; stroke-opacity:1; fill:none" points="
  1262.03,1109.92 2291.97,1109.92 
  "/>
<path clip-path="url(#clip482)" d="
M1263.28 1092.72 L1982.49 1092.72 L1982.49 1075.53 L1263.28 1075.53  Z
  " fill="#009af9" fill-rule="evenodd" fill-opacity="1"/>
<polyline clip-path="url(#clip482)" style="stroke:#ffffff; stroke-width:4; stroke-opacity:1; fill:none" points="
  1263.28,1092.72 1982.49,1092.72 
  "/>
<path clip-path="url(#clip482)" d="
M1265.79 1075.53 L1265.79 1075.53 L1265.79 1058.33 L1265.79 1058.33  Z
  " fill="#009af9" fill-rule="evenodd" fill-opacity="1"/>
<polyline clip-path="url(#clip482)" style="stroke:#ffffff; stroke-width:4; stroke-opacity:1; fill:none" points="
  1265.79,1075.53 1265.79,1075.53 
  "/>
<path clip-path="url(#clip482)" d="
M1283.33 1041.14 L2275.69 1041.14 L2275.69 1023.94 L1283.33 1023.94  Z
  " fill="#ac8d18" fill-rule="evenodd" fill-opacity="1"/>
<polyline clip-path="url(#clip482)" style="stroke:#ffffff; stroke-width:4; stroke-opacity:1; fill:none" points="
  1283.33,1041.14 2275.69,1041.14 
  "/>
<path clip-path="url(#clip482)" d="
M1284.58 1023.94 L2144.12 1023.94 L2144.12 1006.75 L1284.58 1006.75  Z
  " fill="#ac8d18" fill-rule="evenodd" fill-opacity="1"/>
<polyline clip-path="url(#clip482)" style="stroke:#ffffff; stroke-width:4; stroke-opacity:1; fill:none" points="
  1284.58,1023.94 2144.12,1023.94 
  "/>
<path clip-path="url(#clip482)" d="
M1287.09 1006.75 L1428.68 1006.75 L1428.68 989.55 L1287.09 989.55  Z
  " fill="#ac8d18" fill-rule="evenodd" fill-opacity="1"/>
<polyline clip-path="url(#clip482)" style="stroke:#ffffff; stroke-width:4; stroke-opacity:1; fill:none" points="
  1287.09,1006.75 1428.68,1006.75 
  "/>
<path clip-path="url(#clip482)" d="
M1290.85 989.55 L1290.85 989.55 L1290.85 972.355 L1290.85 972.355  Z
  " fill="#ac8d18" fill-rule="evenodd" fill-opacity="1"/>
<polyline clip-path="url(#clip482)" style="stroke:#ffffff; stroke-width:4; stroke-opacity:1; fill:none" points="
  1290.85,989.55 1290.85,989.55 
  "/>
<path clip-path="url(#clip482)" d="
M1317.16 955.16 L2231.83 955.16 L2231.83 937.964 L1317.16 937.964  Z
  " fill="#00a9ad" fill-rule="evenodd" fill-opacity="1"/>
<polyline clip-path="url(#clip482)" style="stroke:#ffffff; stroke-width:4; stroke-opacity:1; fill:none" points="
  1317.16,955.16 2231.83,955.16 
  "/>
<path clip-path="url(#clip482)" d="
M1319.67 937.964 L2130.34 937.964 L2130.34 920.769 L1319.67 920.769  Z
  " fill="#00a9ad" fill-rule="evenodd" fill-opacity="1"/>
<polyline clip-path="url(#clip482)" style="stroke:#ffffff; stroke-width:4; stroke-opacity:1; fill:none" points="
  1319.67,937.964 2130.34,937.964 
  "/>
<path clip-path="url(#clip482)" d="
M1322.17 920.769 L1322.17 920.769 L1322.17 903.574 L1322.17 903.574  Z
  " fill="#00a9ad" fill-rule="evenodd" fill-opacity="1"/>
<polyline clip-path="url(#clip482)" style="stroke:#ffffff; stroke-width:4; stroke-opacity:1; fill:none" points="
  1322.17,920.769 1322.17,920.769 
  "/>
<path clip-path="url(#clip482)" d="
M1327.18 886.378 L2042.63 886.378 L2042.63 869.183 L1327.18 869.183  Z
  " fill="#ed5d92" fill-rule="evenodd" fill-opacity="1"/>
<polyline clip-path="url(#clip482)" style="stroke:#ffffff; stroke-width:4; stroke-opacity:1; fill:none" points="
  1327.18,886.378 2042.63,886.378 
  "/>
<path clip-path="url(#clip482)" d="
M1328.44 869.183 L1329.69 869.183 L1329.69 851.987 L1328.44 851.987  Z
  " fill="#ed5d92" fill-rule="evenodd" fill-opacity="1"/>
<polyline clip-path="url(#clip482)" style="stroke:#ffffff; stroke-width:4; stroke-opacity:1; fill:none" points="
  1328.44,869.183 1329.69,869.183 
  "/>
<path clip-path="url(#clip482)" d="
M1333.45 834.792 L1334.7 834.792 L1334.7 817.597 L1333.45 817.597  Z
  " fill="#c68125" fill-rule="evenodd" fill-opacity="1"/>
<polyline clip-path="url(#clip482)" style="stroke:#ffffff; stroke-width:4; stroke-opacity:1; fill:none" points="
  1333.45,834.792 1334.7,834.792 
  "/>
<path clip-path="url(#clip482)" d="
M1349.74 800.401 L2246.87 800.401 L2246.87 783.206 L1349.74 783.206  Z
  " fill="#00a98d" fill-rule="evenodd" fill-opacity="1"/>
<polyline clip-path="url(#clip482)" style="stroke:#ffffff; stroke-width:4; stroke-opacity:1; fill:none" points="
  1349.74,800.401 2246.87,800.401 
  "/>
<path clip-path="url(#clip482)" d="
M1352.24 783.206 L1898.54 783.206 L1898.54 766.011 L1352.24 766.011  Z
  " fill="#00a98d" fill-rule="evenodd" fill-opacity="1"/>
<polyline clip-path="url(#clip482)" style="stroke:#ffffff; stroke-width:4; stroke-opacity:1; fill:none" points="
  1352.24,783.206 1898.54,783.206 
  "/>
<path clip-path="url(#clip482)" d="
M1353.5 766.011 L1354.75 766.011 L1354.75 748.815 L1353.5 748.815  Z
  " fill="#00a98d" fill-rule="evenodd" fill-opacity="1"/>
<polyline clip-path="url(#clip482)" style="stroke:#ffffff; stroke-width:4; stroke-opacity:1; fill:none" points="
  1353.5,766.011 1354.75,766.011 
  "/>
<path clip-path="url(#clip482)" d="
M1367.28 731.62 L1912.32 731.62 L1912.32 714.424 L1367.28 714.424  Z
  " fill="#8e971d" fill-rule="evenodd" fill-opacity="1"/>
<polyline clip-path="url(#clip482)" style="stroke:#ffffff; stroke-width:4; stroke-opacity:1; fill:none" points="
  1367.28,731.62 1912.32,731.62 
  "/>
<path clip-path="url(#clip482)" d="
M1369.79 714.424 L1371.04 714.424 L1371.04 697.229 L1369.79 697.229  Z
  " fill="#8e971d" fill-rule="evenodd" fill-opacity="1"/>
<polyline clip-path="url(#clip482)" style="stroke:#ffffff; stroke-width:4; stroke-opacity:1; fill:none" points="
  1369.79,714.424 1371.04,714.424 
  "/>
<path clip-path="url(#clip482)" d="
M1387.33 680.034 L2186.72 680.034 L2186.72 662.838 L1387.33 662.838  Z
  " fill="#00a8cb" fill-rule="evenodd" fill-opacity="1"/>
<polyline clip-path="url(#clip482)" style="stroke:#ffffff; stroke-width:4; stroke-opacity:1; fill:none" points="
  1387.33,680.034 2186.72,680.034 
  "/>
<path clip-path="url(#clip482)" d="
M1389.83 662.838 L1793.29 662.838 L1793.29 645.643 L1389.83 645.643  Z
  " fill="#00a8cb" fill-rule="evenodd" fill-opacity="1"/>
<polyline clip-path="url(#clip482)" style="stroke:#ffffff; stroke-width:4; stroke-opacity:1; fill:none" points="
  1389.83,662.838 1793.29,662.838 
  "/>
<path clip-path="url(#clip482)" d="
M1398.6 645.643 L1399.86 645.643 L1399.86 628.448 L1398.6 628.448  Z
  " fill="#00a8cb" fill-rule="evenodd" fill-opacity="1"/>
<polyline clip-path="url(#clip482)" style="stroke:#ffffff; stroke-width:4; stroke-opacity:1; fill:none" points="
  1398.6,645.643 1399.86,645.643 
  "/>
<path clip-path="url(#clip482)" d="
M1408.63 611.252 L1963.69 611.252 L1963.69 594.057 L1408.63 594.057  Z
  " fill="#9b7fe8" fill-rule="evenodd" fill-opacity="1"/>
<polyline clip-path="url(#clip482)" style="stroke:#ffffff; stroke-width:4; stroke-opacity:1; fill:none" points="
  1408.63,611.252 1963.69,611.252 
  "/>
<path clip-path="url(#clip482)" d="
M1413.64 594.057 L1414.89 594.057 L1414.89 576.862 L1413.64 576.862  Z
  " fill="#9b7fe8" fill-rule="evenodd" fill-opacity="1"/>
<polyline clip-path="url(#clip482)" style="stroke:#ffffff; stroke-width:4; stroke-opacity:1; fill:none" points="
  1413.64,594.057 1414.89,594.057 
  "/>
<path clip-path="url(#clip482)" d="
M1433.69 559.666 L2204.27 559.666 L2204.27 542.471 L1433.69 542.471  Z
  " fill="#608cf6" fill-rule="evenodd" fill-opacity="1"/>
<polyline clip-path="url(#clip482)" style="stroke:#ffffff; stroke-width:4; stroke-opacity:1; fill:none" points="
  1433.69,559.666 2204.27,559.666 
  "/>
<path clip-path="url(#clip482)" d="
M1436.19 542.471 L1436.19 542.471 L1436.19 525.275 L1436.19 525.275  Z
  " fill="#608cf6" fill-rule="evenodd" fill-opacity="1"/>
<polyline clip-path="url(#clip482)" style="stroke:#ffffff; stroke-width:4; stroke-opacity:1; fill:none" points="
  1436.19,542.471 1436.19,542.471 
  "/>
<path clip-path="url(#clip482)" d="
M1465.01 508.08 L2114.05 508.08 L2114.05 490.885 L1465.01 490.885  Z
  " fill="#f05f73" fill-rule="evenodd" fill-opacity="1"/>
<polyline clip-path="url(#clip482)" style="stroke:#ffffff; stroke-width:4; stroke-opacity:1; fill:none" points="
  1465.01,508.08 2114.05,508.08 
  "/>
<path clip-path="url(#clip482)" d="
M1467.52 490.885 L1468.77 490.885 L1468.77 473.689 L1467.52 473.689  Z
  " fill="#f05f73" fill-rule="evenodd" fill-opacity="1"/>
<polyline clip-path="url(#clip482)" style="stroke:#ffffff; stroke-width:4; stroke-opacity:1; fill:none" points="
  1467.52,490.885 1468.77,490.885 
  "/>
<path clip-path="url(#clip482)" d="
M1619.13 456.494 L1620.38 456.494 L1620.38 439.299 L1619.13 439.299  Z
  " fill="#dd64b5" fill-rule="evenodd" fill-opacity="1"/>
<polyline clip-path="url(#clip482)" style="stroke:#ffffff; stroke-width:4; stroke-opacity:1; fill:none" points="
  1619.13,456.494 1620.38,456.494 
  "/>
<path clip-path="url(#clip482)" d="
M1635.42 422.103 L2026.34 422.103 L2026.34 404.908 L1635.42 404.908  Z
  " fill="#6b9e32" fill-rule="evenodd" fill-opacity="1"/>
<polyline clip-path="url(#clip482)" style="stroke:#ffffff; stroke-width:4; stroke-opacity:1; fill:none" points="
  1635.42,422.103 2026.34,422.103 
  "/>
<path clip-path="url(#clip482)" d="
M1637.92 404.908 L1639.17 404.908 L1639.17 387.712 L1637.92 387.712  Z
  " fill="#6b9e32" fill-rule="evenodd" fill-opacity="1"/>
<polyline clip-path="url(#clip482)" style="stroke:#ffffff; stroke-width:4; stroke-opacity:1; fill:none" points="
  1637.92,404.908 1639.17,404.908 
  "/>
<path clip-path="url(#clip482)" d="
M1730.64 370.517 L1730.64 370.517 L1730.64 353.322 L1730.64 353.322  Z
  " fill="#009af9" fill-rule="evenodd" fill-opacity="1"/>
<polyline clip-path="url(#clip482)" style="stroke:#ffffff; stroke-width:4; stroke-opacity:1; fill:none" points="
  1730.64,370.517 1730.64,370.517 
  "/>
<path clip-path="url(#clip482)" d="
M1753.2 336.126 L1753.2 336.126 L1753.2 318.931 L1753.2 318.931  Z
  " fill="#e26f46" fill-rule="evenodd" fill-opacity="1"/>
<polyline clip-path="url(#clip482)" style="stroke:#ffffff; stroke-width:4; stroke-opacity:1; fill:none" points="
  1753.2,336.126 1753.2,336.126 
  "/>
<path clip-path="url(#clip482)" d="
M1773.24 301.736 L2010.05 301.736 L2010.05 284.54 L1773.24 284.54  Z
  " fill="#3da44d" fill-rule="evenodd" fill-opacity="1"/>
<polyline clip-path="url(#clip482)" style="stroke:#ffffff; stroke-width:4; stroke-opacity:1; fill:none" points="
  1773.24,301.736 2010.05,301.736 
  "/>
<path clip-path="url(#clip482)" d="
M1777 284.54 L1777 284.54 L1777 267.345 L1777 267.345  Z
  " fill="#3da44d" fill-rule="evenodd" fill-opacity="1"/>
<polyline clip-path="url(#clip482)" style="stroke:#ffffff; stroke-width:4; stroke-opacity:1; fill:none" points="
  1777,284.54 1777,284.54 
  "/>
<path clip-path="url(#clip482)" d="
M1837.14 250.149 L1837.14 250.149 L1837.14 232.954 L1837.14 232.954  Z
  " fill="#c271d2" fill-rule="evenodd" fill-opacity="1"/>
<polyline clip-path="url(#clip482)" style="stroke:#ffffff; stroke-width:4; stroke-opacity:1; fill:none" points="
  1837.14,250.149 1837.14,250.149 
  "/>
<path clip-path="url(#clip482)" d="
M1878.49 215.759 L2157.91 215.759 L2157.91 198.563 L1878.49 198.563  Z
  " fill="#ac8d18" fill-rule="evenodd" fill-opacity="1"/>
<polyline clip-path="url(#clip482)" style="stroke:#ffffff; stroke-width:4; stroke-opacity:1; fill:none" points="
  1878.49,215.759 2157.91,215.759 
  "/>
<path clip-path="url(#clip482)" d="
M1882.25 198.563 L1883.5 198.563 L1883.5 181.368 L1882.25 181.368  Z
  " fill="#ac8d18" fill-rule="evenodd" fill-opacity="1"/>
<polyline clip-path="url(#clip482)" style="stroke:#ffffff; stroke-width:4; stroke-opacity:1; fill:none" points="
  1882.25,198.563 1883.5,198.563 
  "/>
<path clip-path="url(#clip482)" d="
M1932.37 164.173 L1933.62 164.173 L1933.62 146.977 L1932.37 146.977  Z
  " fill="#00a9ad" fill-rule="evenodd" fill-opacity="1"/>
<polyline clip-path="url(#clip482)" style="stroke:#ffffff; stroke-width:4; stroke-opacity:1; fill:none" points="
  1932.37,164.173 1933.62,164.173 
  "/>
<path clip-path="url(#clip482)" d="
M1947.41 129.782 L1948.66 129.782 L1948.66 112.587 L1947.41 112.587  Z
  " fill="#ed5d92" fill-rule="evenodd" fill-opacity="1"/>
<polyline clip-path="url(#clip482)" style="stroke:#ffffff; stroke-width:4; stroke-opacity:1; fill:none" points="
  1947.41,129.782 1948.66,129.782 
  "/>
<path clip-path="url(#clip482)" d="
M2057.67 95.3911 L2058.92 95.3911 L2058.92 78.1958 L2057.67 78.1958  Z
  " fill="#c68125" fill-rule="evenodd" fill-opacity="1"/>
<polyline clip-path="url(#clip482)" style="stroke:#ffffff; stroke-width:4; stroke-opacity:1; fill:none" points="
  2057.67,95.3911 2058.92,95.3911 
  "/>
<circle clip-path="url(#clip482)" cx="265.903" cy="1109.92" r="14" fill="#ffffff" fill-rule="evenodd" fill-opacity="1" stroke="#000000" stroke-opacity="1" stroke-width="3.2"/>
<circle clip-path="url(#clip482)" cx="341.082" cy="1058.33" r="14" fill="#ffffff" fill-rule="evenodd" fill-opacity="1" stroke="#000000" stroke-opacity="1" stroke-width="3.2"/>
<circle clip-path="url(#clip482)" cx="391.2" cy="989.55" r="14" fill="#ffffff" fill-rule="evenodd" fill-opacity="1" stroke="#000000" stroke-opacity="1" stroke-width="3.2"/>
<circle clip-path="url(#clip482)" cx="426.284" cy="955.16" r="14" fill="#ffffff" fill-rule="evenodd" fill-opacity="1" stroke="#000000" stroke-opacity="1" stroke-width="3.2"/>
<circle clip-path="url(#clip482)" cx="457.608" cy="903.574" r="14" fill="#ffffff" fill-rule="evenodd" fill-opacity="1" stroke="#000000" stroke-opacity="1" stroke-width="3.2"/>
<circle clip-path="url(#clip482)" cx="516.498" cy="851.987" r="14" fill="#ffffff" fill-rule="evenodd" fill-opacity="1" stroke="#000000" stroke-opacity="1" stroke-width="3.2"/>
<circle clip-path="url(#clip482)" cx="545.316" cy="817.597" r="14" fill="#ffffff" fill-rule="evenodd" fill-opacity="1" stroke="#000000" stroke-opacity="1" stroke-width="3.2"/>
<circle clip-path="url(#clip482)" cx="584.158" cy="766.011" r="14" fill="#ffffff" fill-rule="evenodd" fill-opacity="1" stroke="#000000" stroke-opacity="1" stroke-width="3.2"/>
<circle clip-path="url(#clip482)" cx="714.468" cy="1109.92" r="14" fill="#ffffff" fill-rule="evenodd" fill-opacity="1" stroke="#000000" stroke-opacity="1" stroke-width="3.2"/>
<circle clip-path="url(#clip482)" cx="769.598" cy="1041.14" r="14" fill="#ffffff" fill-rule="evenodd" fill-opacity="1" stroke="#000000" stroke-opacity="1" stroke-width="3.2"/>
<circle clip-path="url(#clip482)" cx="792.152" cy="972.355" r="14" fill="#ffffff" fill-rule="evenodd" fill-opacity="1" stroke="#000000" stroke-opacity="1" stroke-width="3.2"/>
<circle clip-path="url(#clip482)" cx="809.694" cy="920.769" r="14" fill="#ffffff" fill-rule="evenodd" fill-opacity="1" stroke="#000000" stroke-opacity="1" stroke-width="3.2"/>
<circle clip-path="url(#clip482)" cx="829.741" cy="886.378" r="14" fill="#ffffff" fill-rule="evenodd" fill-opacity="1" stroke="#000000" stroke-opacity="1" stroke-width="3.2"/>
<circle clip-path="url(#clip482)" cx="876.101" cy="817.597" r="14" fill="#ffffff" fill-rule="evenodd" fill-opacity="1" stroke="#000000" stroke-opacity="1" stroke-width="3.2"/>
<circle clip-path="url(#clip482)" cx="897.402" cy="766.011" r="14" fill="#ffffff" fill-rule="evenodd" fill-opacity="1" stroke="#000000" stroke-opacity="1" stroke-width="3.2"/>
<circle clip-path="url(#clip482)" cx="913.69" cy="714.424" r="14" fill="#ffffff" fill-rule="evenodd" fill-opacity="1" stroke="#000000" stroke-opacity="1" stroke-width="3.2"/>
<circle clip-path="url(#clip482)" cx="934.991" cy="662.838" r="14" fill="#ffffff" fill-rule="evenodd" fill-opacity="1" stroke="#000000" stroke-opacity="1" stroke-width="3.2"/>
<circle clip-path="url(#clip482)" cx="950.027" cy="611.252" r="14" fill="#ffffff" fill-rule="evenodd" fill-opacity="1" stroke="#000000" stroke-opacity="1" stroke-width="3.2"/>
<circle clip-path="url(#clip482)" cx="962.556" cy="576.862" r="14" fill="#ffffff" fill-rule="evenodd" fill-opacity="1" stroke="#000000" stroke-opacity="1" stroke-width="3.2"/>
<circle clip-path="url(#clip482)" cx="1018.95" cy="542.471" r="14" fill="#ffffff" fill-rule="evenodd" fill-opacity="1" stroke="#000000" stroke-opacity="1" stroke-width="3.2"/>
<circle clip-path="url(#clip482)" cx="1061.55" cy="508.08" r="14" fill="#ffffff" fill-rule="evenodd" fill-opacity="1" stroke="#000000" stroke-opacity="1" stroke-width="3.2"/>
<circle clip-path="url(#clip482)" cx="1262.03" cy="1109.92" r="14" fill="#ffffff" fill-rule="evenodd" fill-opacity="1" stroke="#000000" stroke-opacity="1" stroke-width="3.2"/>
<circle clip-path="url(#clip482)" cx="1283.33" cy="1041.14" r="14" fill="#ffffff" fill-rule="evenodd" fill-opacity="1" stroke="#000000" stroke-opacity="1" stroke-width="3.2"/>
<circle clip-path="url(#clip482)" cx="1317.16" cy="955.16" r="14" fill="#ffffff" fill-rule="evenodd" fill-opacity="1" stroke="#000000" stroke-opacity="1" stroke-width="3.2"/>
<circle clip-path="url(#clip482)" cx="1327.18" cy="886.378" r="14" fill="#ffffff" fill-rule="evenodd" fill-opacity="1" stroke="#000000" stroke-opacity="1" stroke-width="3.2"/>
<circle clip-path="url(#clip482)" cx="1333.45" cy="834.792" r="14" fill="#ffffff" fill-rule="evenodd" fill-opacity="1" stroke="#000000" stroke-opacity="1" stroke-width="3.2"/>
<circle clip-path="url(#clip482)" cx="1349.74" cy="800.401" r="14" fill="#ffffff" fill-rule="evenodd" fill-opacity="1" stroke="#000000" stroke-opacity="1" stroke-width="3.2"/>
<circle clip-path="url(#clip482)" cx="1367.28" cy="731.62" r="14" fill="#ffffff" fill-rule="evenodd" fill-opacity="1" stroke="#000000" stroke-opacity="1" stroke-width="3.2"/>
<circle clip-path="url(#clip482)" cx="1387.33" cy="680.034" r="14" fill="#ffffff" fill-rule="evenodd" fill-opacity="1" stroke="#000000" stroke-opacity="1" stroke-width="3.2"/>
<circle clip-path="url(#clip482)" cx="1408.63" cy="611.252" r="14" fill="#ffffff" fill-rule="evenodd" fill-opacity="1" stroke="#000000" stroke-opacity="1" stroke-width="3.2"/>
<circle clip-path="url(#clip482)" cx="1433.69" cy="559.666" r="14" fill="#ffffff" fill-rule="evenodd" fill-opacity="1" stroke="#000000" stroke-opacity="1" stroke-width="3.2"/>
<circle clip-path="url(#clip482)" cx="1465.01" cy="508.08" r="14" fill="#ffffff" fill-rule="evenodd" fill-opacity="1" stroke="#000000" stroke-opacity="1" stroke-width="3.2"/>
<circle clip-path="url(#clip482)" cx="1619.13" cy="456.494" r="14" fill="#ffffff" fill-rule="evenodd" fill-opacity="1" stroke="#000000" stroke-opacity="1" stroke-width="3.2"/>
<circle clip-path="url(#clip482)" cx="1635.42" cy="422.103" r="14" fill="#ffffff" fill-rule="evenodd" fill-opacity="1" stroke="#000000" stroke-opacity="1" stroke-width="3.2"/>
<circle clip-path="url(#clip482)" cx="1730.64" cy="370.517" r="14" fill="#ffffff" fill-rule="evenodd" fill-opacity="1" stroke="#000000" stroke-opacity="1" stroke-width="3.2"/>
<circle clip-path="url(#clip482)" cx="1753.2" cy="336.126" r="14" fill="#ffffff" fill-rule="evenodd" fill-opacity="1" stroke="#000000" stroke-opacity="1" stroke-width="3.2"/>
<circle clip-path="url(#clip482)" cx="1773.24" cy="301.736" r="14" fill="#ffffff" fill-rule="evenodd" fill-opacity="1" stroke="#000000" stroke-opacity="1" stroke-width="3.2"/>
<circle clip-path="url(#clip482)" cx="1837.14" cy="250.149" r="14" fill="#ffffff" fill-rule="evenodd" fill-opacity="1" stroke="#000000" stroke-opacity="1" stroke-width="3.2"/>
<circle clip-path="url(#clip482)" cx="1878.49" cy="215.759" r="14" fill="#ffffff" fill-rule="evenodd" fill-opacity="1" stroke="#000000" stroke-opacity="1" stroke-width="3.2"/>
<circle clip-path="url(#clip482)" cx="1932.37" cy="164.173" r="14" fill="#ffffff" fill-rule="evenodd" fill-opacity="1" stroke="#000000" stroke-opacity="1" stroke-width="3.2"/>
<circle clip-path="url(#clip482)" cx="1947.41" cy="129.782" r="14" fill="#ffffff" fill-rule="evenodd" fill-opacity="1" stroke="#000000" stroke-opacity="1" stroke-width="3.2"/>
<circle clip-path="url(#clip482)" cx="2057.67" cy="95.3911" r="14" fill="#ffffff" fill-rule="evenodd" fill-opacity="1" stroke="#000000" stroke-opacity="1" stroke-width="3.2"/>
<path clip-path="url(#clip480)" d="
M205.121 1423.18 L2352.76 1423.18 L2352.76 1301.67 L205.121 1301.67  Z
  " fill="#ffffff" fill-rule="evenodd" fill-opacity="1"/>
<defs>
  <clipPath id="clip483">
    <rect x="205" y="1301" width="2149" height="123"/>
  </clipPath>
</defs>
<polyline clip-path="url(#clip483)" style="stroke:#000000; stroke-width:2; stroke-opacity:0.1; fill:none" points="
  265.903,1423.18 265.903,1301.67 
  "/>
<polyline clip-path="url(#clip483)" style="stroke:#000000; stroke-width:2; stroke-opacity:0.1; fill:none" points="
  892.39,1423.18 892.39,1301.67 
  "/>
<polyline clip-path="url(#clip483)" style="stroke:#000000; stroke-width:2; stroke-opacity:0.1; fill:none" points="
  1518.88,1423.18 1518.88,1301.67 
  "/>
<polyline clip-path="url(#clip483)" style="stroke:#000000; stroke-width:2; stroke-opacity:0.1; fill:none" points="
  2145.36,1423.18 2145.36,1301.67 
  "/>
<polyline clip-path="url(#clip480)" style="stroke:#000000; stroke-width:4; stroke-opacity:1; fill:none" points="
  205.121,1423.18 2352.76,1423.18 
  "/>
<polyline clip-path="url(#clip480)" style="stroke:#000000; stroke-width:4; stroke-opacity:1; fill:none" points="
  265.903,1423.18 265.903,1421.72 
  "/>
<polyline clip-path="url(#clip480)" style="stroke:#000000; stroke-width:4; stroke-opacity:1; fill:none" points="
  892.39,1423.18 892.39,1421.72 
  "/>
<polyline clip-path="url(#clip480)" style="stroke:#000000; stroke-width:4; stroke-opacity:1; fill:none" points="
  1518.88,1423.18 1518.88,1421.72 
  "/>
<polyline clip-path="url(#clip480)" style="stroke:#000000; stroke-width:4; stroke-opacity:1; fill:none" points="
  2145.36,1423.18 2145.36,1421.72 
  "/>
<path clip-path="url(#clip480)" d="M 0 0 M182.964 1452.37 Q179.353 1452.37 177.524 1455.94 Q175.718 1459.48 175.718 1466.61 Q175.718 1473.71 177.524 1477.28 Q179.353 1480.82 182.964 1480.82 Q186.598 1480.82 188.404 1477.28 Q190.232 1473.71 190.232 1466.61 Q190.232 1459.48 188.404 1455.94 Q186.598 1452.37 182.964 1452.37 M182.964 1448.67 Q188.774 1448.67 191.829 1453.27 Q194.908 1457.86 194.908 1466.61 Q194.908 1475.33 191.829 1479.94 Q188.774 1484.52 182.964 1484.52 Q177.154 1484.52 174.075 1479.94 Q171.019 1475.33 171.019 1466.61 Q171.019 1457.86 174.075 1453.27 Q177.154 1448.67 182.964 1448.67 Z" fill="#000000" fill-rule="evenodd" fill-opacity="1" /><path clip-path="url(#clip480)" d="M 0 0 M203.126 1477.97 L208.01 1477.97 L208.01 1483.85 L203.126 1483.85 L203.126 1477.97 Z" fill="#000000" fill-rule="evenodd" fill-opacity="1" /><path clip-path="url(#clip480)" d="M 0 0 M228.195 1452.37 Q224.584 1452.37 222.755 1455.94 Q220.95 1459.48 220.95 1466.61 Q220.95 1473.71 222.755 1477.28 Q224.584 1480.82 228.195 1480.82 Q231.829 1480.82 233.635 1477.28 Q235.463 1473.71 235.463 1466.61 Q235.463 1459.48 233.635 1455.94 Q231.829 1452.37 228.195 1452.37 M228.195 1448.67 Q234.005 1448.67 237.061 1453.27 Q240.139 1457.86 240.139 1466.61 Q240.139 1475.33 237.061 1479.94 Q234.005 1484.52 228.195 1484.52 Q222.385 1484.52 219.306 1479.94 Q216.251 1475.33 216.251 1466.61 Q216.251 1457.86 219.306 1453.27 Q222.385 1448.67 228.195 1448.67 Z" fill="#000000" fill-rule="evenodd" fill-opacity="1" /><path clip-path="url(#clip480)" d="M 0 0 M258.357 1452.37 Q254.746 1452.37 252.917 1455.94 Q251.112 1459.48 251.112 1466.61 Q251.112 1473.71 252.917 1477.28 Q254.746 1480.82 258.357 1480.82 Q261.991 1480.82 263.797 1477.28 Q265.625 1473.71 265.625 1466.61 Q265.625 1459.48 263.797 1455.94 Q261.991 1452.37 258.357 1452.37 M258.357 1448.67 Q264.167 1448.67 267.223 1453.27 Q270.301 1457.86 270.301 1466.61 Q270.301 1475.33 267.223 1479.94 Q264.167 1484.52 258.357 1484.52 Q252.547 1484.52 249.468 1479.94 Q246.412 1475.33 246.412 1466.61 Q246.412 1457.86 249.468 1453.27 Q252.547 1448.67 258.357 1448.67 Z" fill="#000000" fill-rule="evenodd" fill-opacity="1" /><path clip-path="url(#clip480)" d="M 0 0 M288.519 1452.37 Q284.908 1452.37 283.079 1455.94 Q281.273 1459.48 281.273 1466.61 Q281.273 1473.71 283.079 1477.28 Q284.908 1480.82 288.519 1480.82 Q292.153 1480.82 293.959 1477.28 Q295.787 1473.71 295.787 1466.61 Q295.787 1459.48 293.959 1455.94 Q292.153 1452.37 288.519 1452.37 M288.519 1448.67 Q294.329 1448.67 297.384 1453.27 Q300.463 1457.86 300.463 1466.61 Q300.463 1475.33 297.384 1479.94 Q294.329 1484.52 288.519 1484.52 Q282.709 1484.52 279.63 1479.94 Q276.574 1475.33 276.574 1466.61 Q276.574 1457.86 279.63 1453.27 Q282.709 1448.67 288.519 1448.67 Z" fill="#000000" fill-rule="evenodd" fill-opacity="1" /><path clip-path="url(#clip480)" d="M 0 0 M318.681 1452.37 Q315.069 1452.37 313.241 1455.94 Q311.435 1459.48 311.435 1466.61 Q311.435 1473.71 313.241 1477.28 Q315.069 1480.82 318.681 1480.82 Q322.315 1480.82 324.12 1477.28 Q325.949 1473.71 325.949 1466.61 Q325.949 1459.48 324.12 1455.94 Q322.315 1452.37 318.681 1452.37 M318.681 1448.67 Q324.491 1448.67 327.546 1453.27 Q330.625 1457.86 330.625 1466.61 Q330.625 1475.33 327.546 1479.94 Q324.491 1484.52 318.681 1484.52 Q312.87 1484.52 309.792 1479.94 Q306.736 1475.33 306.736 1466.61 Q306.736 1457.86 309.792 1453.27 Q312.87 1448.67 318.681 1448.67 Z" fill="#000000" fill-rule="evenodd" fill-opacity="1" /><path clip-path="url(#clip480)" d="M 0 0 M348.842 1452.37 Q345.231 1452.37 343.403 1455.94 Q341.597 1459.48 341.597 1466.61 Q341.597 1473.71 343.403 1477.28 Q345.231 1480.82 348.842 1480.82 Q352.477 1480.82 354.282 1477.28 Q356.111 1473.71 356.111 1466.61 Q356.111 1459.48 354.282 1455.94 Q352.477 1452.37 348.842 1452.37 M348.842 1448.67 Q354.653 1448.67 357.708 1453.27 Q360.787 1457.86 360.787 1466.61 Q360.787 1475.33 357.708 1479.94 Q354.653 1484.52 348.842 1484.52 Q343.032 1484.52 339.954 1479.94 Q336.898 1475.33 336.898 1466.61 Q336.898 1457.86 339.954 1453.27 Q343.032 1448.67 348.842 1448.67 Z" fill="#000000" fill-rule="evenodd" fill-opacity="1" /><path clip-path="url(#clip480)" d="M 0 0 M809.948 1452.37 Q806.337 1452.37 804.508 1455.94 Q802.703 1459.48 802.703 1466.61 Q802.703 1473.71 804.508 1477.28 Q806.337 1480.82 809.948 1480.82 Q813.582 1480.82 815.388 1477.28 Q817.217 1473.71 817.217 1466.61 Q817.217 1459.48 815.388 1455.94 Q813.582 1452.37 809.948 1452.37 M809.948 1448.67 Q815.758 1448.67 818.814 1453.27 Q821.893 1457.86 821.893 1466.61 Q821.893 1475.33 818.814 1479.94 Q815.758 1484.52 809.948 1484.52 Q804.138 1484.52 801.059 1479.94 Q798.004 1475.33 798.004 1466.61 Q798.004 1457.86 801.059 1453.27 Q804.138 1448.67 809.948 1448.67 Z" fill="#000000" fill-rule="evenodd" fill-opacity="1" /><path clip-path="url(#clip480)" d="M 0 0 M830.11 1477.97 L834.994 1477.97 L834.994 1483.85 L830.11 1483.85 L830.11 1477.97 Z" fill="#000000" fill-rule="evenodd" fill-opacity="1" /><path clip-path="url(#clip480)" d="M 0 0 M855.179 1452.37 Q851.568 1452.37 849.74 1455.94 Q847.934 1459.48 847.934 1466.61 Q847.934 1473.71 849.74 1477.28 Q851.568 1480.82 855.179 1480.82 Q858.814 1480.82 860.619 1477.28 Q862.448 1473.71 862.448 1466.61 Q862.448 1459.48 860.619 1455.94 Q858.814 1452.37 855.179 1452.37 M855.179 1448.67 Q860.99 1448.67 864.045 1453.27 Q867.124 1457.86 867.124 1466.61 Q867.124 1475.33 864.045 1479.94 Q860.99 1484.52 855.179 1484.52 Q849.369 1484.52 846.291 1479.94 Q843.235 1475.33 843.235 1466.61 Q843.235 1457.86 846.291 1453.27 Q849.369 1448.67 855.179 1448.67 Z" fill="#000000" fill-rule="evenodd" fill-opacity="1" /><path clip-path="url(#clip480)" d="M 0 0 M885.341 1452.37 Q881.73 1452.37 879.901 1455.94 Q878.096 1459.48 878.096 1466.61 Q878.096 1473.71 879.901 1477.28 Q881.73 1480.82 885.341 1480.82 Q888.976 1480.82 890.781 1477.28 Q892.61 1473.71 892.61 1466.61 Q892.61 1459.48 890.781 1455.94 Q888.976 1452.37 885.341 1452.37 M885.341 1448.67 Q891.151 1448.67 894.207 1453.27 Q897.286 1457.86 897.286 1466.61 Q897.286 1475.33 894.207 1479.94 Q891.151 1484.52 885.341 1484.52 Q879.531 1484.52 876.452 1479.94 Q873.397 1475.33 873.397 1466.61 Q873.397 1457.86 876.452 1453.27 Q879.531 1448.67 885.341 1448.67 Z" fill="#000000" fill-rule="evenodd" fill-opacity="1" /><path clip-path="url(#clip480)" d="M 0 0 M915.503 1452.37 Q911.892 1452.37 910.063 1455.94 Q908.258 1459.48 908.258 1466.61 Q908.258 1473.71 910.063 1477.28 Q911.892 1480.82 915.503 1480.82 Q919.137 1480.82 920.943 1477.28 Q922.772 1473.71 922.772 1466.61 Q922.772 1459.48 920.943 1455.94 Q919.137 1452.37 915.503 1452.37 M915.503 1448.67 Q921.313 1448.67 924.369 1453.27 Q927.448 1457.86 927.448 1466.61 Q927.448 1475.33 924.369 1479.94 Q921.313 1484.52 915.503 1484.52 Q909.693 1484.52 906.614 1479.94 Q903.559 1475.33 903.559 1466.61 Q903.559 1457.86 906.614 1453.27 Q909.693 1448.67 915.503 1448.67 Z" fill="#000000" fill-rule="evenodd" fill-opacity="1" /><path clip-path="url(#clip480)" d="M 0 0 M945.665 1452.37 Q942.054 1452.37 940.225 1455.94 Q938.42 1459.48 938.42 1466.61 Q938.42 1473.71 940.225 1477.28 Q942.054 1480.82 945.665 1480.82 Q949.299 1480.82 951.105 1477.28 Q952.934 1473.71 952.934 1466.61 Q952.934 1459.48 951.105 1455.94 Q949.299 1452.37 945.665 1452.37 M945.665 1448.67 Q951.475 1448.67 954.531 1453.27 Q957.609 1457.86 957.609 1466.61 Q957.609 1475.33 954.531 1479.94 Q951.475 1484.52 945.665 1484.52 Q939.855 1484.52 936.776 1479.94 Q933.721 1475.33 933.721 1466.61 Q933.721 1457.86 936.776 1453.27 Q939.855 1448.67 945.665 1448.67 Z" fill="#000000" fill-rule="evenodd" fill-opacity="1" /><path clip-path="url(#clip480)" d="M 0 0 M965.873 1449.29 L984.23 1449.29 L984.23 1453.23 L970.156 1453.23 L970.156 1461.7 Q971.174 1461.35 972.193 1461.19 Q973.211 1461 974.23 1461 Q980.017 1461 983.396 1464.18 Q986.776 1467.35 986.776 1472.76 Q986.776 1478.34 983.304 1481.44 Q979.832 1484.52 973.512 1484.52 Q971.336 1484.52 969.068 1484.15 Q966.822 1483.78 964.415 1483.04 L964.415 1478.34 Q966.498 1479.48 968.72 1480.03 Q970.943 1480.59 973.42 1480.59 Q977.424 1480.59 979.762 1478.48 Q982.1 1476.38 982.1 1472.76 Q982.1 1469.15 979.762 1467.05 Q977.424 1464.94 973.42 1464.94 Q971.545 1464.94 969.67 1465.36 Q967.818 1465.77 965.873 1466.65 L965.873 1449.29 Z" fill="#000000" fill-rule="evenodd" fill-opacity="1" /><path clip-path="url(#clip480)" d="M 0 0 M1435.94 1452.37 Q1432.33 1452.37 1430.5 1455.94 Q1428.69 1459.48 1428.69 1466.61 Q1428.69 1473.71 1430.5 1477.28 Q1432.33 1480.82 1435.94 1480.82 Q1439.57 1480.82 1441.38 1477.28 Q1443.21 1473.71 1443.21 1466.61 Q1443.21 1459.48 1441.38 1455.94 Q1439.57 1452.37 1435.94 1452.37 M1435.94 1448.67 Q1441.75 1448.67 1444.8 1453.27 Q1447.88 1457.86 1447.88 1466.61 Q1447.88 1475.33 1444.8 1479.94 Q1441.75 1484.52 1435.94 1484.52 Q1430.13 1484.52 1427.05 1479.94 Q1423.99 1475.33 1423.99 1466.61 Q1423.99 1457.86 1427.05 1453.27 Q1430.13 1448.67 1435.94 1448.67 Z" fill="#000000" fill-rule="evenodd" fill-opacity="1" /><path clip-path="url(#clip480)" d="M 0 0 M1456.1 1477.97 L1460.98 1477.97 L1460.98 1483.85 L1456.1 1483.85 L1456.1 1477.97 Z" fill="#000000" fill-rule="evenodd" fill-opacity="1" /><path clip-path="url(#clip480)" d="M 0 0 M1481.17 1452.37 Q1477.56 1452.37 1475.73 1455.94 Q1473.92 1459.48 1473.92 1466.61 Q1473.92 1473.71 1475.73 1477.28 Q1477.56 1480.82 1481.17 1480.82 Q1484.8 1480.82 1486.61 1477.28 Q1488.44 1473.71 1488.44 1466.61 Q1488.44 1459.48 1486.61 1455.94 Q1484.8 1452.37 1481.17 1452.37 M1481.17 1448.67 Q1486.98 1448.67 1490.03 1453.27 Q1493.11 1457.86 1493.11 1466.61 Q1493.11 1475.33 1490.03 1479.94 Q1486.98 1484.52 1481.17 1484.52 Q1475.36 1484.52 1472.28 1479.94 Q1469.22 1475.33 1469.22 1466.61 Q1469.22 1457.86 1472.28 1453.27 Q1475.36 1448.67 1481.17 1448.67 Z" fill="#000000" fill-rule="evenodd" fill-opacity="1" /><path clip-path="url(#clip480)" d="M 0 0 M1511.33 1452.37 Q1507.72 1452.37 1505.89 1455.94 Q1504.09 1459.48 1504.09 1466.61 Q1504.09 1473.71 1505.89 1477.28 Q1507.72 1480.82 1511.33 1480.82 Q1514.96 1480.82 1516.77 1477.28 Q1518.6 1473.71 1518.6 1466.61 Q1518.6 1459.48 1516.77 1455.94 Q1514.96 1452.37 1511.33 1452.37 M1511.33 1448.67 Q1517.14 1448.67 1520.2 1453.27 Q1523.27 1457.86 1523.27 1466.61 Q1523.27 1475.33 1520.2 1479.94 Q1517.14 1484.52 1511.33 1484.52 Q1505.52 1484.52 1502.44 1479.94 Q1499.39 1475.33 1499.39 1466.61 Q1499.39 1457.86 1502.44 1453.27 Q1505.52 1448.67 1511.33 1448.67 Z" fill="#000000" fill-rule="evenodd" fill-opacity="1" /><path clip-path="url(#clip480)" d="M 0 0 M1541.49 1452.37 Q1537.88 1452.37 1536.05 1455.94 Q1534.25 1459.48 1534.25 1466.61 Q1534.25 1473.71 1536.05 1477.28 Q1537.88 1480.82 1541.49 1480.82 Q1545.13 1480.82 1546.93 1477.28 Q1548.76 1473.71 1548.76 1466.61 Q1548.76 1459.48 1546.93 1455.94 Q1545.13 1452.37 1541.49 1452.37 M1541.49 1448.67 Q1547.3 1448.67 1550.36 1453.27 Q1553.44 1457.86 1553.44 1466.61 Q1553.44 1475.33 1550.36 1479.94 Q1547.3 1484.52 1541.49 1484.52 Q1535.68 1484.52 1532.6 1479.94 Q1529.55 1475.33 1529.55 1466.61 Q1529.55 1457.86 1532.6 1453.27 Q1535.68 1448.67 1541.49 1448.67 Z" fill="#000000" fill-rule="evenodd" fill-opacity="1" /><path clip-path="url(#clip480)" d="M 0 0 M1562.46 1479.92 L1570.1 1479.92 L1570.1 1453.55 L1561.79 1455.22 L1561.79 1450.96 L1570.06 1449.29 L1574.73 1449.29 L1574.73 1479.92 L1582.37 1479.92 L1582.37 1483.85 L1562.46 1483.85 L1562.46 1479.92 Z" fill="#000000" fill-rule="evenodd" fill-opacity="1" /><path clip-path="url(#clip480)" d="M 0 0 M1601.82 1452.37 Q1598.2 1452.37 1596.38 1455.94 Q1594.57 1459.48 1594.57 1466.61 Q1594.57 1473.71 1596.38 1477.28 Q1598.2 1480.82 1601.82 1480.82 Q1605.45 1480.82 1607.26 1477.28 Q1609.08 1473.71 1609.08 1466.61 Q1609.08 1459.48 1607.26 1455.94 Q1605.45 1452.37 1601.82 1452.37 M1601.82 1448.67 Q1607.63 1448.67 1610.68 1453.27 Q1613.76 1457.86 1613.76 1466.61 Q1613.76 1475.33 1610.68 1479.94 Q1607.63 1484.52 1601.82 1484.52 Q1596.01 1484.52 1592.93 1479.94 Q1589.87 1475.33 1589.87 1466.61 Q1589.87 1457.86 1592.93 1453.27 Q1596.01 1448.67 1601.82 1448.67 Z" fill="#000000" fill-rule="evenodd" fill-opacity="1" /><path clip-path="url(#clip480)" d="M 0 0 M2062.92 1452.37 Q2059.31 1452.37 2057.48 1455.94 Q2055.68 1459.48 2055.68 1466.61 Q2055.68 1473.71 2057.48 1477.28 Q2059.31 1480.82 2062.92 1480.82 Q2066.56 1480.82 2068.36 1477.28 Q2070.19 1473.71 2070.19 1466.61 Q2070.19 1459.48 2068.36 1455.94 Q2066.56 1452.37 2062.92 1452.37 M2062.92 1448.67 Q2068.73 1448.67 2071.79 1453.27 Q2074.87 1457.86 2074.87 1466.61 Q2074.87 1475.33 2071.79 1479.94 Q2068.73 1484.52 2062.92 1484.52 Q2057.11 1484.52 2054.03 1479.94 Q2050.98 1475.33 2050.98 1466.61 Q2050.98 1457.86 2054.03 1453.27 Q2057.11 1448.67 2062.92 1448.67 Z" fill="#000000" fill-rule="evenodd" fill-opacity="1" /><path clip-path="url(#clip480)" d="M 0 0 M2083.08 1477.97 L2087.97 1477.97 L2087.97 1483.85 L2083.08 1483.85 L2083.08 1477.97 Z" fill="#000000" fill-rule="evenodd" fill-opacity="1" /><path clip-path="url(#clip480)" d="M 0 0 M2108.15 1452.37 Q2104.54 1452.37 2102.71 1455.94 Q2100.91 1459.48 2100.91 1466.61 Q2100.91 1473.71 2102.71 1477.28 Q2104.54 1480.82 2108.15 1480.82 Q2111.79 1480.82 2113.59 1477.28 Q2115.42 1473.71 2115.42 1466.61 Q2115.42 1459.48 2113.59 1455.94 Q2111.79 1452.37 2108.15 1452.37 M2108.15 1448.67 Q2113.96 1448.67 2117.02 1453.27 Q2120.1 1457.86 2120.1 1466.61 Q2120.1 1475.33 2117.02 1479.94 Q2113.96 1484.52 2108.15 1484.52 Q2102.34 1484.52 2099.26 1479.94 Q2096.21 1475.33 2096.21 1466.61 Q2096.21 1457.86 2099.26 1453.27 Q2102.34 1448.67 2108.15 1448.67 Z" fill="#000000" fill-rule="evenodd" fill-opacity="1" /><path clip-path="url(#clip480)" d="M 0 0 M2138.31 1452.37 Q2134.7 1452.37 2132.87 1455.94 Q2131.07 1459.48 2131.07 1466.61 Q2131.07 1473.71 2132.87 1477.28 Q2134.7 1480.82 2138.31 1480.82 Q2141.95 1480.82 2143.75 1477.28 Q2145.58 1473.71 2145.58 1466.61 Q2145.58 1459.48 2143.75 1455.94 Q2141.95 1452.37 2138.31 1452.37 M2138.31 1448.67 Q2144.12 1448.67 2147.18 1453.27 Q2150.26 1457.86 2150.26 1466.61 Q2150.26 1475.33 2147.18 1479.94 Q2144.12 1484.52 2138.31 1484.52 Q2132.5 1484.52 2129.43 1479.94 Q2126.37 1475.33 2126.37 1466.61 Q2126.37 1457.86 2129.43 1453.27 Q2132.5 1448.67 2138.31 1448.67 Z" fill="#000000" fill-rule="evenodd" fill-opacity="1" /><path clip-path="url(#clip480)" d="M 0 0 M2168.48 1452.37 Q2164.87 1452.37 2163.04 1455.94 Q2161.23 1459.48 2161.23 1466.61 Q2161.23 1473.71 2163.04 1477.28 Q2164.87 1480.82 2168.48 1480.82 Q2172.11 1480.82 2173.92 1477.28 Q2175.75 1473.71 2175.75 1466.61 Q2175.75 1459.48 2173.92 1455.94 Q2172.11 1452.37 2168.48 1452.37 M2168.48 1448.67 Q2174.29 1448.67 2177.34 1453.27 Q2180.42 1457.86 2180.42 1466.61 Q2180.42 1475.33 2177.34 1479.94 Q2174.29 1484.52 2168.48 1484.52 Q2162.67 1484.52 2159.59 1479.94 Q2156.53 1475.33 2156.53 1466.61 Q2156.53 1457.86 2159.59 1453.27 Q2162.67 1448.67 2168.48 1448.67 Z" fill="#000000" fill-rule="evenodd" fill-opacity="1" /><path clip-path="url(#clip480)" d="M 0 0 M2189.45 1479.92 L2197.09 1479.92 L2197.09 1453.55 L2188.78 1455.22 L2188.78 1450.96 L2197.04 1449.29 L2201.72 1449.29 L2201.72 1479.92 L2209.36 1479.92 L2209.36 1483.85 L2189.45 1483.85 L2189.45 1479.92 Z" fill="#000000" fill-rule="evenodd" fill-opacity="1" /><path clip-path="url(#clip480)" d="M 0 0 M2218.85 1449.29 L2237.2 1449.29 L2237.2 1453.23 L2223.13 1453.23 L2223.13 1461.7 Q2224.15 1461.35 2225.17 1461.19 Q2226.18 1461 2227.2 1461 Q2232.99 1461 2236.37 1464.18 Q2239.75 1467.35 2239.75 1472.76 Q2239.75 1478.34 2236.28 1481.44 Q2232.81 1484.52 2226.49 1484.52 Q2224.31 1484.52 2222.04 1484.15 Q2219.8 1483.78 2217.39 1483.04 L2217.39 1478.34 Q2219.47 1479.48 2221.69 1480.03 Q2223.92 1480.59 2226.39 1480.59 Q2230.4 1480.59 2232.74 1478.48 Q2235.07 1476.38 2235.07 1472.76 Q2235.07 1469.15 2232.74 1467.05 Q2230.4 1464.94 2226.39 1464.94 Q2224.52 1464.94 2222.64 1465.36 Q2220.79 1465.77 2218.85 1466.65 L2218.85 1449.29 Z" fill="#000000" fill-rule="evenodd" fill-opacity="1" /><path clip-path="url(#clip480)" d="M 0 0 M1107.43 1520.52 L1147.63 1520.52 L1147.63 1525.93 L1130.76 1525.93 L1130.76 1568.04 L1124.3 1568.04 L1124.3 1525.93 L1107.43 1525.93 L1107.43 1520.52 Z" fill="#000000" fill-rule="evenodd" fill-opacity="1" /><path clip-path="url(#clip480)" d="M 0 0 M1151.58 1532.4 L1157.43 1532.4 L1157.43 1568.04 L1151.58 1568.04 L1151.58 1532.4 M1151.58 1518.52 L1157.43 1518.52 L1157.43 1525.93 L1151.58 1525.93 L1151.58 1518.52 Z" fill="#000000" fill-rule="evenodd" fill-opacity="1" /><path clip-path="url(#clip480)" d="M 0 0 M1197.44 1539.24 Q1199.64 1535.29 1202.69 1533.41 Q1205.75 1531.54 1209.89 1531.54 Q1215.46 1531.54 1218.48 1535.45 Q1221.5 1539.33 1221.5 1546.53 L1221.5 1568.04 L1215.62 1568.04 L1215.62 1546.72 Q1215.62 1541.59 1213.8 1539.11 Q1211.99 1536.63 1208.26 1536.63 Q1203.71 1536.63 1201.07 1539.65 Q1198.43 1542.68 1198.43 1547.9 L1198.43 1568.04 L1192.54 1568.04 L1192.54 1546.72 Q1192.54 1541.56 1190.73 1539.11 Q1188.91 1536.63 1185.12 1536.63 Q1180.64 1536.63 1177.99 1539.68 Q1175.35 1542.71 1175.35 1547.9 L1175.35 1568.04 L1169.46 1568.04 L1169.46 1532.4 L1175.35 1532.4 L1175.35 1537.93 Q1177.36 1534.66 1180.16 1533.1 Q1182.96 1531.54 1186.81 1531.54 Q1190.69 1531.54 1193.4 1533.51 Q1196.14 1535.48 1197.44 1539.24 Z" fill="#000000" fill-rule="evenodd" fill-opacity="1" /><path clip-path="url(#clip480)" d="M 0 0 M1263.68 1548.76 L1263.68 1551.62 L1236.75 1551.62 Q1237.13 1557.67 1240.38 1560.85 Q1243.66 1564 1249.48 1564 Q1252.85 1564 1256.01 1563.17 Q1259.19 1562.35 1262.31 1560.69 L1262.31 1566.23 Q1259.16 1567.57 1255.85 1568.27 Q1252.54 1568.97 1249.13 1568.97 Q1240.6 1568.97 1235.6 1564 Q1230.64 1559.04 1230.64 1550.57 Q1230.64 1541.82 1235.35 1536.69 Q1240.09 1531.54 1248.11 1531.54 Q1255.31 1531.54 1259.48 1536.18 Q1263.68 1540.8 1263.68 1548.76 M1257.82 1547.04 Q1257.76 1542.23 1255.11 1539.37 Q1252.5 1536.5 1248.18 1536.5 Q1243.27 1536.5 1240.31 1539.27 Q1237.39 1542.04 1236.94 1547.07 L1257.82 1547.04 Z" fill="#000000" fill-rule="evenodd" fill-opacity="1" /><path clip-path="url(#clip480)" d="M 0 0 M1293.47 1518.52 L1306.96 1518.52 L1306.96 1523.07 L1299.32 1523.07 L1299.32 1572.09 L1306.96 1572.09 L1306.96 1576.64 L1293.47 1576.64 L1293.47 1518.52 Z" fill="#000000" fill-rule="evenodd" fill-opacity="1" /><path clip-path="url(#clip480)" d="M 0 0 M1348.18 1522.08 L1348.18 1528.35 Q1344.52 1526.6 1341.27 1525.74 Q1338.03 1524.88 1335 1524.88 Q1329.75 1524.88 1326.89 1526.92 Q1324.06 1528.96 1324.06 1532.71 Q1324.06 1535.87 1325.93 1537.49 Q1327.84 1539.08 1333.13 1540.07 L1337.01 1540.86 Q1344.2 1542.23 1347.61 1545.7 Q1351.05 1549.14 1351.05 1554.93 Q1351.05 1561.84 1346.4 1565.4 Q1341.78 1568.97 1332.84 1568.97 Q1329.47 1568.97 1325.65 1568.2 Q1321.86 1567.44 1317.79 1565.94 L1317.79 1559.32 Q1321.7 1561.52 1325.46 1562.63 Q1329.21 1563.75 1332.84 1563.75 Q1338.35 1563.75 1341.34 1561.58 Q1344.33 1559.42 1344.33 1555.41 Q1344.33 1551.91 1342.17 1549.93 Q1340.03 1547.96 1335.13 1546.97 L1331.22 1546.21 Q1324.02 1544.78 1320.81 1541.72 Q1317.59 1538.67 1317.59 1533.22 Q1317.59 1526.92 1322.02 1523.29 Q1326.47 1519.66 1334.27 1519.66 Q1337.61 1519.66 1341.08 1520.27 Q1344.55 1520.87 1348.18 1522.08 Z" fill="#000000" fill-rule="evenodd" fill-opacity="1" /><path clip-path="url(#clip480)" d="M 0 0 M1391.31 1548.76 L1391.31 1551.62 L1364.38 1551.62 Q1364.76 1557.67 1368.01 1560.85 Q1371.29 1564 1377.11 1564 Q1380.49 1564 1383.64 1563.17 Q1386.82 1562.35 1389.94 1560.69 L1389.94 1566.23 Q1386.79 1567.57 1383.48 1568.27 Q1380.17 1568.97 1376.76 1568.97 Q1368.23 1568.97 1363.24 1564 Q1358.27 1559.04 1358.27 1550.57 Q1358.27 1541.82 1362.98 1536.69 Q1367.72 1531.54 1375.74 1531.54 Q1382.94 1531.54 1387.11 1536.18 Q1391.31 1540.8 1391.31 1548.76 M1385.45 1547.04 Q1385.39 1542.23 1382.75 1539.37 Q1380.14 1536.5 1375.81 1536.5 Q1370.91 1536.5 1367.95 1539.27 Q1365.02 1542.04 1364.57 1547.07 L1385.45 1547.04 Z" fill="#000000" fill-rule="evenodd" fill-opacity="1" /><path clip-path="url(#clip480)" d="M 0 0 M1426.58 1533.76 L1426.58 1539.24 Q1424.09 1537.87 1421.58 1537.2 Q1419.1 1536.5 1416.55 1536.5 Q1410.85 1536.5 1407.7 1540.13 Q1404.55 1543.73 1404.55 1550.25 Q1404.55 1556.78 1407.7 1560.4 Q1410.85 1564 1416.55 1564 Q1419.1 1564 1421.58 1563.33 Q1424.09 1562.63 1426.58 1561.26 L1426.58 1566.68 Q1424.12 1567.82 1421.48 1568.39 Q1418.87 1568.97 1415.91 1568.97 Q1407.86 1568.97 1403.12 1563.91 Q1398.38 1558.85 1398.38 1550.25 Q1398.38 1541.53 1403.15 1536.53 Q1407.96 1531.54 1416.29 1531.54 Q1419 1531.54 1421.58 1532.11 Q1424.16 1532.65 1426.58 1533.76 Z" fill="#000000" fill-rule="evenodd" fill-opacity="1" /><path clip-path="url(#clip480)" d="M 0 0 M1450.45 1518.52 L1450.45 1576.64 L1436.95 1576.64 L1436.95 1572.09 L1444.56 1572.09 L1444.56 1523.07 L1436.95 1523.07 L1436.95 1518.52 L1450.45 1518.52 Z" fill="#000000" fill-rule="evenodd" fill-opacity="1" /><polyline clip-path="url(#clip480)" style="stroke:#000000; stroke-width:4; stroke-opacity:1; fill:none" points="
  205.121,1423.18 205.121,1301.67 
  "/>
<path clip-path="url(#clip480)" d="M 0 0 M76.6285 1392.07 L94.4843 1392.07 L94.4843 1383.99 Q94.4843 1379.5 92.1608 1377.05 Q89.8374 1374.6 85.5405 1374.6 Q81.2755 1374.6 78.952 1377.05 Q76.6285 1379.5 76.6285 1383.99 L76.6285 1392.07 M71.345 1398.5 L71.345 1383.99 Q71.345 1376 74.9734 1371.92 Q78.5701 1367.82 85.5405 1367.82 Q92.5746 1367.82 96.1712 1371.92 Q99.7679 1376 99.7679 1383.99 L99.7679 1392.07 L118.865 1392.07 L118.865 1398.5 L71.345 1398.5 Z" fill="#000000" fill-rule="evenodd" fill-opacity="1" /><path clip-path="url(#clip480)" d="M 0 0 M73.0955 1353.65 L83.217 1353.65 L83.217 1341.59 L87.7685 1341.59 L87.7685 1353.65 L107.12 1353.65 Q111.481 1353.65 112.722 1352.48 Q113.963 1351.27 113.963 1347.61 L113.963 1341.59 L118.865 1341.59 L118.865 1347.61 Q118.865 1354.39 116.351 1356.96 Q113.804 1359.54 107.12 1359.54 L87.7685 1359.54 L87.7685 1363.84 L83.217 1363.84 L83.217 1359.54 L73.0955 1359.54 L73.0955 1353.65 Z" fill="#000000" fill-rule="evenodd" fill-opacity="1" /><path clip-path="url(#clip480)" d="M 0 0 M110.781 1333.06 L110.781 1326.35 L118.865 1326.35 L118.865 1333.06 L110.781 1333.06 Z" fill="#000000" fill-rule="evenodd" fill-opacity="1" /><polyline clip-path="url(#clip483)" style="stroke:#009af9; stroke-width:4; stroke-opacity:1; fill:none" points="
  322.287,1544.69 322.287,1180.15 
  "/>
<polyline clip-path="url(#clip483)" style="stroke:#009af9; stroke-width:4; stroke-opacity:1; fill:none" points="
  379.924,1544.69 379.924,1180.15 
  "/>
<polyline clip-path="url(#clip483)" style="stroke:#009af9; stroke-width:4; stroke-opacity:1; fill:none" points="
  443.825,1544.69 443.825,1180.15 
  "/>
<polyline clip-path="url(#clip483)" style="stroke:#009af9; stroke-width:4; stroke-opacity:1; fill:none" points="
  498.956,1544.69 498.956,1180.15 
  "/>
<polyline clip-path="url(#clip483)" style="stroke:#009af9; stroke-width:4; stroke-opacity:1; fill:none" points="
  532.786,1544.69 532.786,1180.15 
  "/>
<polyline clip-path="url(#clip483)" style="stroke:#009af9; stroke-width:4; stroke-opacity:1; fill:none" points="
  579.146,1544.69 579.146,1180.15 
  "/>
<polyline clip-path="url(#clip483)" style="stroke:#009af9; stroke-width:4; stroke-opacity:1; fill:none" points="
  614.23,1544.69 614.23,1180.15 
  "/>
<polyline clip-path="url(#clip483)" style="stroke:#009af9; stroke-width:4; stroke-opacity:1; fill:none" points="
  641.795,1544.69 641.795,1180.15 
  "/>
<polyline clip-path="url(#clip483)" style="stroke:#009af9; stroke-width:4; stroke-opacity:1; fill:none" points="
  670.614,1544.69 670.614,1180.15 
  "/>
<polyline clip-path="url(#clip483)" style="stroke:#009af9; stroke-width:4; stroke-opacity:1; fill:none" points="
  698.179,1544.69 698.179,1180.15 
  "/>
<polyline clip-path="url(#clip483)" style="stroke:#009af9; stroke-width:4; stroke-opacity:1; fill:none" points="
  735.768,1544.69 735.768,1180.15 
  "/>
<polyline clip-path="url(#clip483)" style="stroke:#009af9; stroke-width:4; stroke-opacity:1; fill:none" points="
  757.069,1544.69 757.069,1180.15 
  "/>
<polyline clip-path="url(#clip483)" style="stroke:#009af9; stroke-width:4; stroke-opacity:1; fill:none" points="
  824.729,1544.69 824.729,1180.15 
  "/>
<polyline clip-path="url(#clip483)" style="stroke:#009af9; stroke-width:4; stroke-opacity:1; fill:none" points="
  871.089,1544.69 871.089,1180.15 
  "/>
<polyline clip-path="url(#clip483)" style="stroke:#009af9; stroke-width:4; stroke-opacity:1; fill:none" points="
  929.979,1544.69 929.979,1180.15 
  "/>
<polyline clip-path="url(#clip483)" style="stroke:#009af9; stroke-width:4; stroke-opacity:1; fill:none" points="
  976.339,1544.69 976.339,1180.15 
  "/>
<polyline clip-path="url(#clip483)" style="stroke:#009af9; stroke-width:4; stroke-opacity:1; fill:none" points="
  1050.28,1544.69 1050.28,1180.15 
  "/>
<polyline clip-path="url(#clip483)" style="stroke:#009af9; stroke-width:4; stroke-opacity:1; fill:none" points="
  1107.91,1544.69 1107.91,1180.15 
  "/>
<polyline clip-path="url(#clip483)" style="stroke:#009af9; stroke-width:4; stroke-opacity:1; fill:none" points="
  1164.3,1544.69 1164.3,1180.15 
  "/>
<polyline clip-path="url(#clip483)" style="stroke:#009af9; stroke-width:4; stroke-opacity:1; fill:none" points="
  1191.86,1544.69 1191.86,1180.15 
  "/>
<polyline clip-path="url(#clip483)" style="stroke:#009af9; stroke-width:4; stroke-opacity:1; fill:none" points="
  1219.43,1544.69 1219.43,1180.15 
  "/>
<polyline clip-path="url(#clip483)" style="stroke:#009af9; stroke-width:4; stroke-opacity:1; fill:none" points="
  1246.99,1544.69 1246.99,1180.15 
  "/>
<polyline clip-path="url(#clip483)" style="stroke:#009af9; stroke-width:4; stroke-opacity:1; fill:none" points="
  1278.32,1544.69 1278.32,1180.15 
  "/>
<polyline clip-path="url(#clip483)" style="stroke:#009af9; stroke-width:4; stroke-opacity:1; fill:none" points="
  1309.64,1544.69 1309.64,1180.15 
  "/>
<polyline clip-path="url(#clip483)" style="stroke:#009af9; stroke-width:4; stroke-opacity:1; fill:none" points="
  1383.57,1544.69 1383.57,1180.15 
  "/>
<polyline clip-path="url(#clip483)" style="stroke:#009af9; stroke-width:4; stroke-opacity:1; fill:none" points="
  1458.75,1544.69 1458.75,1180.15 
  "/>
<polyline clip-path="url(#clip483)" style="stroke:#009af9; stroke-width:4; stroke-opacity:1; fill:none" points="
  1768.23,1544.69 1768.23,1180.15 
  "/>
<polyline clip-path="url(#clip483)" style="stroke:#009af9; stroke-width:4; stroke-opacity:1; fill:none" points="
  1927.36,1544.69 1927.36,1180.15 
  "/>
<polyline clip-path="url(#clip483)" style="stroke:#009af9; stroke-width:4; stroke-opacity:1; fill:none" points="
  1996.27,1544.69 1996.27,1180.15 
  "/>
<polyline clip-path="url(#clip483)" style="stroke:#009af9; stroke-width:4; stroke-opacity:1; fill:none" points="
  2072.7,1544.69 2072.7,1180.15 
  "/>
<polyline clip-path="url(#clip483)" style="stroke:#009af9; stroke-width:4; stroke-opacity:1; fill:none" points="
  2172.94,1544.69 2172.94,1180.15 
  "/>
<polyline clip-path="url(#clip483)" style="stroke:#009af9; stroke-width:4; stroke-opacity:1; fill:none" points="
  2218.05,1544.69 2218.05,1180.15 
  "/>
<polyline clip-path="url(#clip483)" style="stroke:#009af9; stroke-width:4; stroke-opacity:1; fill:none" points="
  2261.9,1544.69 2261.9,1180.15 
  "/>
</svg>
