<?xml version="1.0" encoding="utf-8"?>
<svg xmlns="http://www.w3.org/2000/svg" xmlns:xlink="http://www.w3.org/1999/xlink" width="600" height="400" viewBox="0 0 2400 1600">
<defs>
  <clipPath id="clip260">
    <rect x="0" y="0" width="2400" height="1600"/>
  </clipPath>
</defs>
<path clip-path="url(#clip260)" d="
M0 1600 L2400 1600 L2400 0 L0 0  Z
  " fill="#ffffff" fill-rule="evenodd" fill-opacity="1"/>
<defs>
  <clipPath id="clip261">
    <rect x="480" y="0" width="1681" height="1600"/>
  </clipPath>
</defs>
<path clip-path="url(#clip260)" d="
M205.121 1140.87 L2352.76 1140.87 L2352.76 47.2441 L205.121 47.2441  Z
  " fill="#ffffff" fill-rule="evenodd" fill-opacity="1"/>
<defs>
  <clipPath id="clip262">
    <rect x="205" y="47" width="2149" height="1095"/>
  </clipPath>
</defs>
<polyline clip-path="url(#clip262)" style="stroke:#000000; stroke-width:2; stroke-opacity:0.1; fill:none" points="
  265.903,1140.87 265.903,47.2441 
  "/>
<polyline clip-path="url(#clip262)" style="stroke:#000000; stroke-width:2; stroke-opacity:0.1; fill:none" points="
  916.916,1140.87 916.916,47.2441 
  "/>
<polyline clip-path="url(#clip262)" style="stroke:#000000; stroke-width:2; stroke-opacity:0.1; fill:none" points="
  1567.93,1140.87 1567.93,47.2441 
  "/>
<polyline clip-path="url(#clip262)" style="stroke:#000000; stroke-width:2; stroke-opacity:0.1; fill:none" points="
  2218.94,1140.87 2218.94,47.2441 
  "/>
<polyline clip-path="url(#clip260)" style="stroke:#000000; stroke-width:4; stroke-opacity:1; fill:none" points="
  205.121,1140.87 2352.76,1140.87 
  "/>
<polyline clip-path="url(#clip260)" style="stroke:#000000; stroke-width:4; stroke-opacity:1; fill:none" points="
  265.903,1140.87 265.903,1127.75 
  "/>
<polyline clip-path="url(#clip260)" style="stroke:#000000; stroke-width:4; stroke-opacity:1; fill:none" points="
  916.916,1140.87 916.916,1127.75 
  "/>
<polyline clip-path="url(#clip260)" style="stroke:#000000; stroke-width:4; stroke-opacity:1; fill:none" points="
  1567.93,1140.87 1567.93,1127.75 
  "/>
<polyline clip-path="url(#clip260)" style="stroke:#000000; stroke-width:4; stroke-opacity:1; fill:none" points="
  2218.94,1140.87 2218.94,1127.75 
  "/>
<path clip-path="url(#clip260)" d="M 0 0 M182.964 1170.06 Q179.353 1170.06 177.524 1173.63 Q175.718 1177.17 175.718 1184.3 Q175.718 1191.4 177.524 1194.97 Q179.353 1198.51 182.964 1198.51 Q186.598 1198.51 188.404 1194.97 Q190.232 1191.4 190.232 1184.3 Q190.232 1177.17 188.404 1173.63 Q186.598 1170.06 182.964 1170.06 M182.964 1166.36 Q188.774 1166.36 191.829 1170.96 Q194.908 1175.55 194.908 1184.3 Q194.908 1193.02 191.829 1197.63 Q188.774 1202.21 182.964 1202.21 Q177.154 1202.21 174.075 1197.63 Q171.019 1193.02 171.019 1184.3 Q171.019 1175.55 174.075 1170.96 Q177.154 1166.36 182.964 1166.36 Z" fill="#000000" fill-rule="evenodd" fill-opacity="1" /><path clip-path="url(#clip260)" d="M 0 0 M203.126 1195.66 L208.01 1195.66 L208.01 1201.54 L203.126 1201.54 L203.126 1195.66 Z" fill="#000000" fill-rule="evenodd" fill-opacity="1" /><path clip-path="url(#clip260)" d="M 0 0 M228.195 1170.06 Q224.584 1170.06 222.755 1173.63 Q220.95 1177.17 220.95 1184.3 Q220.95 1191.4 222.755 1194.97 Q224.584 1198.51 228.195 1198.51 Q231.829 1198.51 233.635 1194.97 Q235.463 1191.4 235.463 1184.3 Q235.463 1177.17 233.635 1173.63 Q231.829 1170.06 228.195 1170.06 M228.195 1166.36 Q234.005 1166.36 237.061 1170.96 Q240.139 1175.55 240.139 1184.3 Q240.139 1193.02 237.061 1197.63 Q234.005 1202.21 228.195 1202.21 Q222.385 1202.21 219.306 1197.63 Q216.251 1193.02 216.251 1184.3 Q216.251 1175.55 219.306 1170.96 Q222.385 1166.36 228.195 1166.36 Z" fill="#000000" fill-rule="evenodd" fill-opacity="1" /><path clip-path="url(#clip260)" d="M 0 0 M258.357 1170.06 Q254.746 1170.06 252.917 1173.63 Q251.112 1177.17 251.112 1184.3 Q251.112 1191.4 252.917 1194.97 Q254.746 1198.51 258.357 1198.51 Q261.991 1198.51 263.797 1194.97 Q265.625 1191.4 265.625 1184.3 Q265.625 1177.17 263.797 1173.63 Q261.991 1170.06 258.357 1170.06 M258.357 1166.36 Q264.167 1166.36 267.223 1170.96 Q270.301 1175.55 270.301 1184.3 Q270.301 1193.02 267.223 1197.63 Q264.167 1202.21 258.357 1202.21 Q252.547 1202.21 249.468 1197.63 Q246.412 1193.02 246.412 1184.3 Q246.412 1175.55 249.468 1170.96 Q252.547 1166.36 258.357 1166.36 Z" fill="#000000" fill-rule="evenodd" fill-opacity="1" /><path clip-path="url(#clip260)" d="M 0 0 M288.519 1170.06 Q284.908 1170.06 283.079 1173.63 Q281.273 1177.17 281.273 1184.3 Q281.273 1191.4 283.079 1194.97 Q284.908 1198.51 288.519 1198.51 Q292.153 1198.51 293.959 1194.97 Q295.787 1191.4 295.787 1184.3 Q295.787 1177.17 293.959 1173.63 Q292.153 1170.06 288.519 1170.06 M288.519 1166.36 Q294.329 1166.36 297.384 1170.96 Q300.463 1175.55 300.463 1184.3 Q300.463 1193.02 297.384 1197.63 Q294.329 1202.21 288.519 1202.21 Q282.709 1202.21 279.63 1197.63 Q276.574 1193.02 276.574 1184.3 Q276.574 1175.55 279.63 1170.96 Q282.709 1166.36 288.519 1166.36 Z" fill="#000000" fill-rule="evenodd" fill-opacity="1" /><path clip-path="url(#clip260)" d="M 0 0 M318.681 1170.06 Q315.069 1170.06 313.241 1173.63 Q311.435 1177.17 311.435 1184.3 Q311.435 1191.4 313.241 1194.97 Q315.069 1198.51 318.681 1198.51 Q322.315 1198.51 324.12 1194.97 Q325.949 1191.4 325.949 1184.3 Q325.949 1177.17 324.12 1173.63 Q322.315 1170.06 318.681 1170.06 M318.681 1166.36 Q324.491 1166.36 327.546 1170.96 Q330.625 1175.55 330.625 1184.3 Q330.625 1193.02 327.546 1197.63 Q324.491 1202.21 318.681 1202.21 Q312.87 1202.21 309.792 1197.63 Q306.736 1193.02 306.736 1184.3 Q306.736 1175.55 309.792 1170.96 Q312.87 1166.36 318.681 1166.36 Z" fill="#000000" fill-rule="evenodd" fill-opacity="1" /><path clip-path="url(#clip260)" d="M 0 0 M348.842 1170.06 Q345.231 1170.06 343.403 1173.63 Q341.597 1177.17 341.597 1184.3 Q341.597 1191.4 343.403 1194.97 Q345.231 1198.51 348.842 1198.51 Q352.477 1198.51 354.282 1194.97 Q356.111 1191.4 356.111 1184.3 Q356.111 1177.17 354.282 1173.63 Q352.477 1170.06 348.842 1170.06 M348.842 1166.36 Q354.653 1166.36 357.708 1170.96 Q360.787 1175.55 360.787 1184.3 Q360.787 1193.02 357.708 1197.63 Q354.653 1202.21 348.842 1202.21 Q343.032 1202.21 339.954 1197.63 Q336.898 1193.02 336.898 1184.3 Q336.898 1175.55 339.954 1170.96 Q343.032 1166.36 348.842 1166.36 Z" fill="#000000" fill-rule="evenodd" fill-opacity="1" /><path clip-path="url(#clip260)" d="M 0 0 M834.475 1170.06 Q830.864 1170.06 829.035 1173.63 Q827.229 1177.17 827.229 1184.3 Q827.229 1191.4 829.035 1194.97 Q830.864 1198.51 834.475 1198.51 Q838.109 1198.51 839.915 1194.97 Q841.743 1191.4 841.743 1184.3 Q841.743 1177.17 839.915 1173.63 Q838.109 1170.06 834.475 1170.06 M834.475 1166.36 Q840.285 1166.36 843.34 1170.96 Q846.419 1175.55 846.419 1184.3 Q846.419 1193.02 843.34 1197.63 Q840.285 1202.21 834.475 1202.21 Q828.665 1202.21 825.586 1197.63 Q822.53 1193.02 822.53 1184.3 Q822.53 1175.55 825.586 1170.96 Q828.665 1166.36 834.475 1166.36 Z" fill="#000000" fill-rule="evenodd" fill-opacity="1" /><path clip-path="url(#clip260)" d="M 0 0 M854.637 1195.66 L859.521 1195.66 L859.521 1201.54 L854.637 1201.54 L854.637 1195.66 Z" fill="#000000" fill-rule="evenodd" fill-opacity="1" /><path clip-path="url(#clip260)" d="M 0 0 M879.706 1170.06 Q876.095 1170.06 874.266 1173.63 Q872.461 1177.17 872.461 1184.3 Q872.461 1191.4 874.266 1194.97 Q876.095 1198.51 879.706 1198.51 Q883.34 1198.51 885.146 1194.97 Q886.974 1191.4 886.974 1184.3 Q886.974 1177.17 885.146 1173.63 Q883.34 1170.06 879.706 1170.06 M879.706 1166.36 Q885.516 1166.36 888.572 1170.96 Q891.65 1175.55 891.65 1184.3 Q891.65 1193.02 888.572 1197.63 Q885.516 1202.21 879.706 1202.21 Q873.896 1202.21 870.817 1197.63 Q867.762 1193.02 867.762 1184.3 Q867.762 1175.55 870.817 1170.96 Q873.896 1166.36 879.706 1166.36 Z" fill="#000000" fill-rule="evenodd" fill-opacity="1" /><path clip-path="url(#clip260)" d="M 0 0 M909.868 1170.06 Q906.257 1170.06 904.428 1173.63 Q902.623 1177.17 902.623 1184.3 Q902.623 1191.4 904.428 1194.97 Q906.257 1198.51 909.868 1198.51 Q913.502 1198.51 915.308 1194.97 Q917.136 1191.4 917.136 1184.3 Q917.136 1177.17 915.308 1173.63 Q913.502 1170.06 909.868 1170.06 M909.868 1166.36 Q915.678 1166.36 918.734 1170.96 Q921.812 1175.55 921.812 1184.3 Q921.812 1193.02 918.734 1197.63 Q915.678 1202.21 909.868 1202.21 Q904.058 1202.21 900.979 1197.63 Q897.923 1193.02 897.923 1184.3 Q897.923 1175.55 900.979 1170.96 Q904.058 1166.36 909.868 1166.36 Z" fill="#000000" fill-rule="evenodd" fill-opacity="1" /><path clip-path="url(#clip260)" d="M 0 0 M940.03 1170.06 Q936.419 1170.06 934.59 1173.63 Q932.784 1177.17 932.784 1184.3 Q932.784 1191.4 934.59 1194.97 Q936.419 1198.51 940.03 1198.51 Q943.664 1198.51 945.47 1194.97 Q947.298 1191.4 947.298 1184.3 Q947.298 1177.17 945.47 1173.63 Q943.664 1170.06 940.03 1170.06 M940.03 1166.36 Q945.84 1166.36 948.895 1170.96 Q951.974 1175.55 951.974 1184.3 Q951.974 1193.02 948.895 1197.63 Q945.84 1202.21 940.03 1202.21 Q934.22 1202.21 931.141 1197.63 Q928.085 1193.02 928.085 1184.3 Q928.085 1175.55 931.141 1170.96 Q934.22 1166.36 940.03 1166.36 Z" fill="#000000" fill-rule="evenodd" fill-opacity="1" /><path clip-path="url(#clip260)" d="M 0 0 M970.192 1170.06 Q966.581 1170.06 964.752 1173.63 Q962.946 1177.17 962.946 1184.3 Q962.946 1191.4 964.752 1194.97 Q966.581 1198.51 970.192 1198.51 Q973.826 1198.51 975.631 1194.97 Q977.46 1191.4 977.46 1184.3 Q977.46 1177.17 975.631 1173.63 Q973.826 1170.06 970.192 1170.06 M970.192 1166.36 Q976.002 1166.36 979.057 1170.96 Q982.136 1175.55 982.136 1184.3 Q982.136 1193.02 979.057 1197.63 Q976.002 1202.21 970.192 1202.21 Q964.381 1202.21 961.303 1197.63 Q958.247 1193.02 958.247 1184.3 Q958.247 1175.55 961.303 1170.96 Q964.381 1166.36 970.192 1166.36 Z" fill="#000000" fill-rule="evenodd" fill-opacity="1" /><path clip-path="url(#clip260)" d="M 0 0 M990.4 1166.98 L1008.76 1166.98 L1008.76 1170.92 L994.682 1170.92 L994.682 1179.39 Q995.701 1179.04 996.719 1178.88 Q997.738 1178.69 998.756 1178.69 Q1004.54 1178.69 1007.92 1181.87 Q1011.3 1185.04 1011.3 1190.45 Q1011.3 1196.03 1007.83 1199.13 Q1004.36 1202.21 998.039 1202.21 Q995.863 1202.21 993.594 1201.84 Q991.349 1201.47 988.942 1200.73 L988.942 1196.03 Q991.025 1197.17 993.247 1197.72 Q995.469 1198.28 997.946 1198.28 Q1001.95 1198.28 1004.29 1196.17 Q1006.63 1194.06 1006.63 1190.45 Q1006.63 1186.84 1004.29 1184.74 Q1001.95 1182.63 997.946 1182.63 Q996.071 1182.63 994.196 1183.05 Q992.344 1183.46 990.4 1184.34 L990.4 1166.98 Z" fill="#000000" fill-rule="evenodd" fill-opacity="1" /><path clip-path="url(#clip260)" d="M 0 0 M1484.99 1170.06 Q1481.38 1170.06 1479.55 1173.63 Q1477.75 1177.17 1477.75 1184.3 Q1477.75 1191.4 1479.55 1194.97 Q1481.38 1198.51 1484.99 1198.51 Q1488.62 1198.51 1490.43 1194.97 Q1492.26 1191.4 1492.26 1184.3 Q1492.26 1177.17 1490.43 1173.63 Q1488.62 1170.06 1484.99 1170.06 M1484.99 1166.36 Q1490.8 1166.36 1493.86 1170.96 Q1496.93 1175.55 1496.93 1184.3 Q1496.93 1193.02 1493.86 1197.63 Q1490.8 1202.21 1484.99 1202.21 Q1479.18 1202.21 1476.1 1197.63 Q1473.05 1193.02 1473.05 1184.3 Q1473.05 1175.55 1476.1 1170.96 Q1479.18 1166.36 1484.99 1166.36 Z" fill="#000000" fill-rule="evenodd" fill-opacity="1" /><path clip-path="url(#clip260)" d="M 0 0 M1505.15 1195.66 L1510.04 1195.66 L1510.04 1201.54 L1505.15 1201.54 L1505.15 1195.66 Z" fill="#000000" fill-rule="evenodd" fill-opacity="1" /><path clip-path="url(#clip260)" d="M 0 0 M1530.22 1170.06 Q1526.61 1170.06 1524.78 1173.63 Q1522.98 1177.17 1522.98 1184.3 Q1522.98 1191.4 1524.78 1194.97 Q1526.61 1198.51 1530.22 1198.51 Q1533.86 1198.51 1535.66 1194.97 Q1537.49 1191.4 1537.49 1184.3 Q1537.49 1177.17 1535.66 1173.63 Q1533.86 1170.06 1530.22 1170.06 M1530.22 1166.36 Q1536.03 1166.36 1539.09 1170.96 Q1542.17 1175.55 1542.17 1184.3 Q1542.17 1193.02 1539.09 1197.63 Q1536.03 1202.21 1530.22 1202.21 Q1524.41 1202.21 1521.33 1197.63 Q1518.28 1193.02 1518.28 1184.3 Q1518.28 1175.55 1521.33 1170.96 Q1524.41 1166.36 1530.22 1166.36 Z" fill="#000000" fill-rule="evenodd" fill-opacity="1" /><path clip-path="url(#clip260)" d="M 0 0 M1560.38 1170.06 Q1556.77 1170.06 1554.94 1173.63 Q1553.14 1177.17 1553.14 1184.3 Q1553.14 1191.4 1554.94 1194.97 Q1556.77 1198.51 1560.38 1198.51 Q1564.02 1198.51 1565.82 1194.97 Q1567.65 1191.4 1567.65 1184.3 Q1567.65 1177.17 1565.82 1173.63 Q1564.02 1170.06 1560.38 1170.06 M1560.38 1166.36 Q1566.19 1166.36 1569.25 1170.96 Q1572.33 1175.55 1572.33 1184.3 Q1572.33 1193.02 1569.25 1197.63 Q1566.19 1202.21 1560.38 1202.21 Q1554.57 1202.21 1551.49 1197.63 Q1548.44 1193.02 1548.44 1184.3 Q1548.44 1175.55 1551.49 1170.96 Q1554.57 1166.36 1560.38 1166.36 Z" fill="#000000" fill-rule="evenodd" fill-opacity="1" /><path clip-path="url(#clip260)" d="M 0 0 M1590.55 1170.06 Q1586.93 1170.06 1585.11 1173.63 Q1583.3 1177.17 1583.3 1184.3 Q1583.3 1191.4 1585.11 1194.97 Q1586.93 1198.51 1590.55 1198.51 Q1594.18 1198.51 1595.99 1194.97 Q1597.81 1191.4 1597.81 1184.3 Q1597.81 1177.17 1595.99 1173.63 Q1594.18 1170.06 1590.55 1170.06 M1590.55 1166.36 Q1596.36 1166.36 1599.41 1170.96 Q1602.49 1175.55 1602.49 1184.3 Q1602.49 1193.02 1599.41 1197.63 Q1596.36 1202.21 1590.55 1202.21 Q1584.74 1202.21 1581.66 1197.63 Q1578.6 1193.02 1578.6 1184.3 Q1578.6 1175.55 1581.66 1170.96 Q1584.74 1166.36 1590.55 1166.36 Z" fill="#000000" fill-rule="evenodd" fill-opacity="1" /><path clip-path="url(#clip260)" d="M 0 0 M1611.52 1197.61 L1619.16 1197.61 L1619.16 1171.24 L1610.85 1172.91 L1610.85 1168.65 L1619.11 1166.98 L1623.79 1166.98 L1623.79 1197.61 L1631.42 1197.61 L1631.42 1201.54 L1611.52 1201.54 L1611.52 1197.61 Z" fill="#000000" fill-rule="evenodd" fill-opacity="1" /><path clip-path="url(#clip260)" d="M 0 0 M1650.87 1170.06 Q1647.26 1170.06 1645.43 1173.63 Q1643.62 1177.17 1643.62 1184.3 Q1643.62 1191.4 1645.43 1194.97 Q1647.26 1198.51 1650.87 1198.51 Q1654.5 1198.51 1656.31 1194.97 Q1658.14 1191.4 1658.14 1184.3 Q1658.14 1177.17 1656.31 1173.63 Q1654.5 1170.06 1650.87 1170.06 M1650.87 1166.36 Q1656.68 1166.36 1659.73 1170.96 Q1662.81 1175.55 1662.81 1184.3 Q1662.81 1193.02 1659.73 1197.63 Q1656.68 1202.21 1650.87 1202.21 Q1645.06 1202.21 1641.98 1197.63 Q1638.92 1193.02 1638.92 1184.3 Q1638.92 1175.55 1641.98 1170.96 Q1645.06 1166.36 1650.87 1166.36 Z" fill="#000000" fill-rule="evenodd" fill-opacity="1" /><path clip-path="url(#clip260)" d="M 0 0 M2136.5 1170.06 Q2132.89 1170.06 2131.06 1173.63 Q2129.26 1177.17 2129.26 1184.3 Q2129.26 1191.4 2131.06 1194.97 Q2132.89 1198.51 2136.5 1198.51 Q2140.14 1198.51 2141.94 1194.97 Q2143.77 1191.4 2143.77 1184.3 Q2143.77 1177.17 2141.94 1173.63 Q2140.14 1170.06 2136.5 1170.06 M2136.5 1166.36 Q2142.31 1166.36 2145.37 1170.96 Q2148.45 1175.55 2148.45 1184.3 Q2148.45 1193.02 2145.37 1197.63 Q2142.31 1202.21 2136.5 1202.21 Q2130.69 1202.21 2127.61 1197.63 Q2124.56 1193.02 2124.56 1184.3 Q2124.56 1175.55 2127.61 1170.96 Q2130.69 1166.36 2136.5 1166.36 Z" fill="#000000" fill-rule="evenodd" fill-opacity="1" /><path clip-path="url(#clip260)" d="M 0 0 M2156.66 1195.66 L2161.55 1195.66 L2161.55 1201.54 L2156.66 1201.54 L2156.66 1195.66 Z" fill="#000000" fill-rule="evenodd" fill-opacity="1" /><path clip-path="url(#clip260)" d="M 0 0 M2181.73 1170.06 Q2178.12 1170.06 2176.29 1173.63 Q2174.49 1177.17 2174.49 1184.3 Q2174.49 1191.4 2176.29 1194.97 Q2178.12 1198.51 2181.73 1198.51 Q2185.37 1198.51 2187.17 1194.97 Q2189 1191.4 2189 1184.3 Q2189 1177.17 2187.17 1173.63 Q2185.37 1170.06 2181.73 1170.06 M2181.73 1166.36 Q2187.54 1166.36 2190.6 1170.96 Q2193.68 1175.55 2193.68 1184.3 Q2193.68 1193.02 2190.6 1197.63 Q2187.54 1202.21 2181.73 1202.21 Q2175.92 1202.21 2172.84 1197.63 Q2169.79 1193.02 2169.79 1184.3 Q2169.79 1175.55 2172.84 1170.96 Q2175.92 1166.36 2181.73 1166.36 Z" fill="#000000" fill-rule="evenodd" fill-opacity="1" /><path clip-path="url(#clip260)" d="M 0 0 M2211.89 1170.06 Q2208.28 1170.06 2206.45 1173.63 Q2204.65 1177.17 2204.65 1184.3 Q2204.65 1191.4 2206.45 1194.97 Q2208.28 1198.51 2211.89 1198.51 Q2215.53 1198.51 2217.33 1194.97 Q2219.16 1191.4 2219.16 1184.3 Q2219.16 1177.17 2217.33 1173.63 Q2215.53 1170.06 2211.89 1170.06 M2211.89 1166.36 Q2217.7 1166.36 2220.76 1170.96 Q2223.84 1175.55 2223.84 1184.3 Q2223.84 1193.02 2220.76 1197.63 Q2217.7 1202.21 2211.89 1202.21 Q2206.08 1202.21 2203.01 1197.63 Q2199.95 1193.02 2199.95 1184.3 Q2199.95 1175.55 2203.01 1170.96 Q2206.08 1166.36 2211.89 1166.36 Z" fill="#000000" fill-rule="evenodd" fill-opacity="1" /><path clip-path="url(#clip260)" d="M 0 0 M2242.06 1170.06 Q2238.45 1170.06 2236.62 1173.63 Q2234.81 1177.17 2234.81 1184.3 Q2234.81 1191.4 2236.62 1194.97 Q2238.45 1198.51 2242.06 1198.51 Q2245.69 1198.51 2247.5 1194.97 Q2249.32 1191.4 2249.32 1184.3 Q2249.32 1177.17 2247.5 1173.63 Q2245.69 1170.06 2242.06 1170.06 M2242.06 1166.36 Q2247.87 1166.36 2250.92 1170.96 Q2254 1175.55 2254 1184.3 Q2254 1193.02 2250.92 1197.63 Q2247.87 1202.21 2242.06 1202.21 Q2236.25 1202.21 2233.17 1197.63 Q2230.11 1193.02 2230.11 1184.3 Q2230.11 1175.55 2233.17 1170.96 Q2236.25 1166.36 2242.06 1166.36 Z" fill="#000000" fill-rule="evenodd" fill-opacity="1" /><path clip-path="url(#clip260)" d="M 0 0 M2263.03 1197.61 L2270.67 1197.61 L2270.67 1171.24 L2262.36 1172.91 L2262.36 1168.65 L2270.62 1166.98 L2275.3 1166.98 L2275.3 1197.61 L2282.94 1197.61 L2282.94 1201.54 L2263.03 1201.54 L2263.03 1197.61 Z" fill="#000000" fill-rule="evenodd" fill-opacity="1" /><path clip-path="url(#clip260)" d="M 0 0 M2292.43 1166.98 L2310.78 1166.98 L2310.78 1170.92 L2296.71 1170.92 L2296.71 1179.39 Q2297.73 1179.04 2298.75 1178.88 Q2299.76 1178.69 2300.78 1178.69 Q2306.57 1178.69 2309.95 1181.87 Q2313.33 1185.04 2313.33 1190.45 Q2313.33 1196.03 2309.86 1199.13 Q2306.38 1202.21 2300.07 1202.21 Q2297.89 1202.21 2295.62 1201.84 Q2293.38 1201.47 2290.97 1200.73 L2290.97 1196.03 Q2293.05 1197.17 2295.27 1197.72 Q2297.5 1198.28 2299.97 1198.28 Q2303.98 1198.28 2306.32 1196.17 Q2308.65 1194.06 2308.65 1190.45 Q2308.65 1186.84 2306.32 1184.74 Q2303.98 1182.63 2299.97 1182.63 Q2298.1 1182.63 2296.22 1183.05 Q2294.37 1183.46 2292.43 1184.34 L2292.43 1166.98 Z" fill="#000000" fill-rule="evenodd" fill-opacity="1" /><polyline clip-path="url(#clip262)" style="stroke:#000000; stroke-width:2; stroke-opacity:0.1; fill:none" points="
  205.121,1109.92 2352.76,1109.92 
  "/>
<polyline clip-path="url(#clip262)" style="stroke:#000000; stroke-width:2; stroke-opacity:0.1; fill:none" points="
  205.121,937.964 2352.76,937.964 
  "/>
<polyline clip-path="url(#clip262)" style="stroke:#000000; stroke-width:2; stroke-opacity:0.1; fill:none" points="
  205.121,766.011 2352.76,766.011 
  "/>
<polyline clip-path="url(#clip262)" style="stroke:#000000; stroke-width:2; stroke-opacity:0.1; fill:none" points="
  205.121,594.057 2352.76,594.057 
  "/>
<polyline clip-path="url(#clip262)" style="stroke:#000000; stroke-width:2; stroke-opacity:0.1; fill:none" points="
  205.121,422.103 2352.76,422.103 
  "/>
<polyline clip-path="url(#clip262)" style="stroke:#000000; stroke-width:2; stroke-opacity:0.1; fill:none" points="
  205.121,250.149 2352.76,250.149 
  "/>
<polyline clip-path="url(#clip262)" style="stroke:#000000; stroke-width:2; stroke-opacity:0.1; fill:none" points="
  205.121,78.1958 2352.76,78.1958 
  "/>
<polyline clip-path="url(#clip260)" style="stroke:#000000; stroke-width:4; stroke-opacity:1; fill:none" points="
  205.121,1140.87 205.121,47.2441 
  "/>
<polyline clip-path="url(#clip260)" style="stroke:#000000; stroke-width:4; stroke-opacity:1; fill:none" points="
  205.121,1109.92 230.893,1109.92 
  "/>
<polyline clip-path="url(#clip260)" style="stroke:#000000; stroke-width:4; stroke-opacity:1; fill:none" points="
  205.121,937.964 230.893,937.964 
  "/>
<polyline clip-path="url(#clip260)" style="stroke:#000000; stroke-width:4; stroke-opacity:1; fill:none" points="
  205.121,766.011 230.893,766.011 
  "/>
<polyline clip-path="url(#clip260)" style="stroke:#000000; stroke-width:4; stroke-opacity:1; fill:none" points="
  205.121,594.057 230.893,594.057 
  "/>
<polyline clip-path="url(#clip260)" style="stroke:#000000; stroke-width:4; stroke-opacity:1; fill:none" points="
  205.121,422.103 230.893,422.103 
  "/>
<polyline clip-path="url(#clip260)" style="stroke:#000000; stroke-width:4; stroke-opacity:1; fill:none" points="
  205.121,250.149 230.893,250.149 
  "/>
<polyline clip-path="url(#clip260)" style="stroke:#000000; stroke-width:4; stroke-opacity:1; fill:none" points="
  205.121,78.1958 230.893,78.1958 
  "/>
<path clip-path="url(#clip260)" d="M 0 0 M157.177 1095.72 Q153.566 1095.72 151.737 1099.28 Q149.931 1102.82 149.931 1109.95 Q149.931 1117.06 151.737 1120.62 Q153.566 1124.17 157.177 1124.17 Q160.811 1124.17 162.616 1120.62 Q164.445 1117.06 164.445 1109.95 Q164.445 1102.82 162.616 1099.28 Q160.811 1095.72 157.177 1095.72 M157.177 1092.01 Q162.987 1092.01 166.042 1096.62 Q169.121 1101.2 169.121 1109.95 Q169.121 1118.68 166.042 1123.29 Q162.987 1127.87 157.177 1127.87 Q151.366 1127.87 148.288 1123.29 Q145.232 1118.68 145.232 1109.95 Q145.232 1101.2 148.288 1096.62 Q151.366 1092.01 157.177 1092.01 Z" fill="#000000" fill-rule="evenodd" fill-opacity="1" /><path clip-path="url(#clip260)" d="M 0 0 M117.825 951.309 L125.464 951.309 L125.464 924.944 L117.154 926.61 L117.154 922.351 L125.418 920.684 L130.093 920.684 L130.093 951.309 L137.732 951.309 L137.732 955.244 L117.825 955.244 L117.825 951.309 Z" fill="#000000" fill-rule="evenodd" fill-opacity="1" /><path clip-path="url(#clip260)" d="M 0 0 M157.177 923.763 Q153.566 923.763 151.737 927.328 Q149.931 930.869 149.931 937.999 Q149.931 945.105 151.737 948.67 Q153.566 952.212 157.177 952.212 Q160.811 952.212 162.616 948.67 Q164.445 945.105 164.445 937.999 Q164.445 930.869 162.616 927.328 Q160.811 923.763 157.177 923.763 M157.177 920.059 Q162.987 920.059 166.042 924.666 Q169.121 929.249 169.121 937.999 Q169.121 946.726 166.042 951.332 Q162.987 955.916 157.177 955.916 Q151.366 955.916 148.288 951.332 Q145.232 946.726 145.232 937.999 Q145.232 929.249 148.288 924.666 Q151.366 920.059 157.177 920.059 Z" fill="#000000" fill-rule="evenodd" fill-opacity="1" /><path clip-path="url(#clip260)" d="M 0 0 M121.043 779.355 L137.362 779.355 L137.362 783.291 L115.418 783.291 L115.418 779.355 Q118.08 776.601 122.663 771.971 Q127.269 767.318 128.45 765.976 Q130.695 763.453 131.575 761.717 Q132.478 759.957 132.478 758.268 Q132.478 755.513 130.533 753.777 Q128.612 752.041 125.51 752.041 Q123.311 752.041 120.857 752.805 Q118.427 753.569 115.649 755.119 L115.649 750.397 Q118.473 749.263 120.927 748.684 Q123.38 748.106 125.418 748.106 Q130.788 748.106 133.982 750.791 Q137.177 753.476 137.177 757.967 Q137.177 760.096 136.367 762.018 Q135.579 763.916 133.473 766.508 Q132.894 767.18 129.792 770.397 Q126.691 773.592 121.043 779.355 Z" fill="#000000" fill-rule="evenodd" fill-opacity="1" /><path clip-path="url(#clip260)" d="M 0 0 M157.177 751.809 Q153.566 751.809 151.737 755.374 Q149.931 758.916 149.931 766.045 Q149.931 773.152 151.737 776.717 Q153.566 780.258 157.177 780.258 Q160.811 780.258 162.616 776.717 Q164.445 773.152 164.445 766.045 Q164.445 758.916 162.616 755.374 Q160.811 751.809 157.177 751.809 M157.177 748.106 Q162.987 748.106 166.042 752.712 Q169.121 757.295 169.121 766.045 Q169.121 774.772 166.042 779.379 Q162.987 783.962 157.177 783.962 Q151.366 783.962 148.288 779.379 Q145.232 774.772 145.232 766.045 Q145.232 757.295 148.288 752.712 Q151.366 748.106 157.177 748.106 Z" fill="#000000" fill-rule="evenodd" fill-opacity="1" /><path clip-path="url(#clip260)" d="M 0 0 M131.181 592.703 Q134.538 593.42 136.413 595.689 Q138.311 597.957 138.311 601.291 Q138.311 606.406 134.792 609.207 Q131.274 612.008 124.793 612.008 Q122.617 612.008 120.302 611.568 Q118.01 611.152 115.556 610.295 L115.556 605.781 Q117.501 606.916 119.816 607.494 Q122.13 608.073 124.654 608.073 Q129.052 608.073 131.343 606.337 Q133.658 604.601 133.658 601.291 Q133.658 598.235 131.505 596.522 Q129.376 594.786 125.556 594.786 L121.529 594.786 L121.529 590.943 L125.742 590.943 Q129.191 590.943 131.019 589.578 Q132.848 588.189 132.848 585.596 Q132.848 582.934 130.95 581.522 Q129.075 580.087 125.556 580.087 Q123.635 580.087 121.436 580.504 Q119.237 580.92 116.598 581.8 L116.598 577.633 Q119.26 576.893 121.575 576.522 Q123.913 576.152 125.973 576.152 Q131.297 576.152 134.399 578.582 Q137.501 580.99 137.501 585.11 Q137.501 587.981 135.857 589.971 Q134.214 591.939 131.181 592.703 Z" fill="#000000" fill-rule="evenodd" fill-opacity="1" /><path clip-path="url(#clip260)" d="M 0 0 M157.177 579.856 Q153.566 579.856 151.737 583.42 Q149.931 586.962 149.931 594.092 Q149.931 601.198 151.737 604.763 Q153.566 608.304 157.177 608.304 Q160.811 608.304 162.616 604.763 Q164.445 601.198 164.445 594.092 Q164.445 586.962 162.616 583.42 Q160.811 579.856 157.177 579.856 M157.177 576.152 Q162.987 576.152 166.042 580.758 Q169.121 585.342 169.121 594.092 Q169.121 602.818 166.042 607.425 Q162.987 612.008 157.177 612.008 Q151.366 612.008 148.288 607.425 Q145.232 602.818 145.232 594.092 Q145.232 585.342 148.288 580.758 Q151.366 576.152 157.177 576.152 Z" fill="#000000" fill-rule="evenodd" fill-opacity="1" /><path clip-path="url(#clip260)" d="M 0 0 M129.862 408.897 L118.056 427.346 L129.862 427.346 L129.862 408.897 M128.635 404.823 L134.515 404.823 L134.515 427.346 L139.445 427.346 L139.445 431.235 L134.515 431.235 L134.515 439.383 L129.862 439.383 L129.862 431.235 L114.26 431.235 L114.26 426.721 L128.635 404.823 Z" fill="#000000" fill-rule="evenodd" fill-opacity="1" /><path clip-path="url(#clip260)" d="M 0 0 M157.177 407.902 Q153.566 407.902 151.737 411.467 Q149.931 415.008 149.931 422.138 Q149.931 429.244 151.737 432.809 Q153.566 436.351 157.177 436.351 Q160.811 436.351 162.616 432.809 Q164.445 429.244 164.445 422.138 Q164.445 415.008 162.616 411.467 Q160.811 407.902 157.177 407.902 M157.177 404.198 Q162.987 404.198 166.042 408.805 Q169.121 413.388 169.121 422.138 Q169.121 430.865 166.042 435.471 Q162.987 440.054 157.177 440.054 Q151.366 440.054 148.288 435.471 Q145.232 430.865 145.232 422.138 Q145.232 413.388 148.288 408.805 Q151.366 404.198 157.177 404.198 Z" fill="#000000" fill-rule="evenodd" fill-opacity="1" /><path clip-path="url(#clip260)" d="M 0 0 M117.061 232.869 L135.417 232.869 L135.417 236.805 L121.343 236.805 L121.343 245.277 Q122.362 244.93 123.38 244.768 Q124.399 244.582 125.418 244.582 Q131.205 244.582 134.584 247.754 Q137.964 250.925 137.964 256.342 Q137.964 261.92 134.492 265.022 Q131.019 268.101 124.7 268.101 Q122.524 268.101 120.255 267.73 Q118.01 267.36 115.603 266.619 L115.603 261.92 Q117.686 263.054 119.908 263.61 Q122.13 264.166 124.607 264.166 Q128.612 264.166 130.95 262.059 Q133.288 259.953 133.288 256.342 Q133.288 252.73 130.95 250.624 Q128.612 248.518 124.607 248.518 Q122.732 248.518 120.857 248.934 Q119.006 249.351 117.061 250.23 L117.061 232.869 Z" fill="#000000" fill-rule="evenodd" fill-opacity="1" /><path clip-path="url(#clip260)" d="M 0 0 M157.177 235.948 Q153.566 235.948 151.737 239.513 Q149.931 243.055 149.931 250.184 Q149.931 257.291 151.737 260.855 Q153.566 264.397 157.177 264.397 Q160.811 264.397 162.616 260.855 Q164.445 257.291 164.445 250.184 Q164.445 243.055 162.616 239.513 Q160.811 235.948 157.177 235.948 M157.177 232.244 Q162.987 232.244 166.042 236.851 Q169.121 241.434 169.121 250.184 Q169.121 258.911 166.042 263.517 Q162.987 268.101 157.177 268.101 Q151.366 268.101 148.288 263.517 Q145.232 258.911 145.232 250.184 Q145.232 241.434 148.288 236.851 Q151.366 232.244 157.177 232.244 Z" fill="#000000" fill-rule="evenodd" fill-opacity="1" /><path clip-path="url(#clip260)" d="M 0 0 M127.593 76.3323 Q124.445 76.3323 122.593 78.4851 Q120.765 80.6379 120.765 84.3879 Q120.765 88.1147 122.593 90.2906 Q124.445 92.4434 127.593 92.4434 Q130.742 92.4434 132.57 90.2906 Q134.422 88.1147 134.422 84.3879 Q134.422 80.6379 132.57 78.4851 Q130.742 76.3323 127.593 76.3323 M136.876 61.6796 L136.876 65.9389 Q135.117 65.1056 133.311 64.6657 Q131.529 64.2259 129.769 64.2259 Q125.14 64.2259 122.686 67.3509 Q120.255 70.4759 119.908 76.7953 Q121.274 74.7814 123.334 73.7166 Q125.394 72.6287 127.871 72.6287 Q133.08 72.6287 136.089 75.7999 Q139.121 78.9481 139.121 84.3879 Q139.121 89.7119 135.973 92.9295 Q132.825 96.1471 127.593 96.1471 Q121.598 96.1471 118.427 91.5637 Q115.256 86.9573 115.256 78.2305 Q115.256 70.0361 119.144 65.175 Q123.033 60.2908 129.584 60.2908 Q131.343 60.2908 133.126 60.638 Q134.931 60.9852 136.876 61.6796 Z" fill="#000000" fill-rule="evenodd" fill-opacity="1" /><path clip-path="url(#clip260)" d="M 0 0 M157.177 63.9944 Q153.566 63.9944 151.737 67.5592 Q149.931 71.1009 149.931 78.2305 Q149.931 85.3369 151.737 88.9017 Q153.566 92.4434 157.177 92.4434 Q160.811 92.4434 162.616 88.9017 Q164.445 85.3369 164.445 78.2305 Q164.445 71.1009 162.616 67.5592 Q160.811 63.9944 157.177 63.9944 M157.177 60.2908 Q162.987 60.2908 166.042 64.8972 Q169.121 69.4805 169.121 78.2305 Q169.121 86.9573 166.042 91.5637 Q162.987 96.1471 157.177 96.1471 Q151.366 96.1471 148.288 91.5637 Q145.232 86.9573 145.232 78.2305 Q145.232 69.4805 148.288 64.8972 Q151.366 60.2908 157.177 60.2908 Z" fill="#000000" fill-rule="evenodd" fill-opacity="1" /><path clip-path="url(#clip260)" d="M 0 0 M16.4842 731.063 L16.4842 724.633 L64.0042 724.633 L64.0042 731.063 L16.4842 731.063 Z" fill="#000000" fill-rule="evenodd" fill-opacity="1" /><path clip-path="url(#clip260)" d="M 0 0 M42.4881 682.461 L64.0042 682.461 L64.0042 688.317 L42.679 688.317 Q37.6183 688.317 35.1038 690.29 Q32.5894 692.264 32.5894 696.211 Q32.5894 700.953 35.6131 703.69 Q38.6368 706.428 43.8567 706.428 L64.0042 706.428 L64.0042 712.316 L28.3562 712.316 L28.3562 706.428 L33.8944 706.428 Q30.6797 704.327 29.0883 701.494 Q27.4968 698.63 27.4968 694.906 Q27.4968 688.763 31.3163 685.612 Q35.1038 682.461 42.4881 682.461 Z" fill="#000000" fill-rule="evenodd" fill-opacity="1" /><path clip-path="url(#clip260)" d="M 0 0 M18.2347 664.987 L28.3562 664.987 L28.3562 652.924 L32.9077 652.924 L32.9077 664.987 L52.2594 664.987 Q56.6199 664.987 57.8613 663.809 Q59.1026 662.6 59.1026 658.939 L59.1026 652.924 L64.0042 652.924 L64.0042 658.939 Q64.0042 665.719 61.4897 668.297 Q58.9434 670.875 52.2594 670.875 L32.9077 670.875 L32.9077 675.172 L28.3562 675.172 L28.3562 670.875 L18.2347 670.875 L18.2347 664.987 Z" fill="#000000" fill-rule="evenodd" fill-opacity="1" /><path clip-path="url(#clip260)" d="M 0 0 M44.7161 614.73 L47.5806 614.73 L47.5806 641.656 Q53.6281 641.275 56.8109 638.028 Q59.9619 634.75 59.9619 628.925 Q59.9619 625.551 59.1344 622.4 Q58.3069 619.217 56.6518 616.098 L62.1899 616.098 Q63.5267 619.249 64.227 622.559 Q64.9272 625.87 64.9272 629.275 Q64.9272 637.805 59.9619 642.802 Q54.9967 647.768 46.5303 647.768 Q37.7774 647.768 32.6531 643.057 Q27.4968 638.314 27.4968 630.294 Q27.4968 623.1 32.1438 618.931 Q36.7589 614.73 44.7161 614.73 M42.9973 620.586 Q38.1912 620.65 35.3266 623.291 Q32.4621 625.901 32.4621 630.23 Q32.4621 635.132 35.2312 638.092 Q38.0002 641.02 43.0292 641.465 L42.9973 620.586 Z" fill="#000000" fill-rule="evenodd" fill-opacity="1" /><path clip-path="url(#clip260)" d="M 0 0 M33.8307 584.461 Q33.2578 585.447 33.0032 586.625 Q32.7167 587.771 32.7167 589.171 Q32.7167 594.136 35.9632 596.81 Q39.1779 599.452 45.2253 599.452 L64.0042 599.452 L64.0042 605.34 L28.3562 605.34 L28.3562 599.452 L33.8944 599.452 Q30.6479 597.606 29.0883 594.646 Q27.4968 591.686 27.4968 587.452 Q27.4968 586.848 27.5923 586.116 Q27.656 585.384 27.8151 584.492 L33.8307 584.461 Z" fill="#000000" fill-rule="evenodd" fill-opacity="1" /><path clip-path="url(#clip260)" d="M 0 0 M28.3562 582.519 L28.3562 576.312 L58.275 565.172 L28.3562 554.033 L28.3562 547.826 L64.0042 561.194 L64.0042 569.151 L28.3562 582.519 Z" fill="#000000" fill-rule="evenodd" fill-opacity="1" /><path clip-path="url(#clip260)" d="M 0 0 M46.0847 523.541 Q46.0847 530.639 47.7079 533.376 Q49.3312 536.113 53.2461 536.113 Q56.3653 536.113 58.2114 534.076 Q60.0256 532.007 60.0256 528.474 Q60.0256 523.604 56.5881 520.676 Q53.1188 517.716 47.3897 517.716 L46.0847 517.716 L46.0847 523.541 M43.6657 511.86 L64.0042 511.86 L64.0042 517.716 L58.5933 517.716 Q61.8398 519.721 63.3994 522.713 Q64.9272 525.705 64.9272 530.034 Q64.9272 535.508 61.8716 538.755 Q58.7843 541.969 53.6281 541.969 Q47.6125 541.969 44.5569 537.959 Q41.5014 533.917 41.5014 525.928 L41.5014 517.716 L40.9285 517.716 Q36.8862 517.716 34.6901 520.39 Q32.4621 523.032 32.4621 527.838 Q32.4621 530.893 33.1941 533.79 Q33.9262 536.686 35.3903 539.36 L29.9795 539.36 Q28.7381 536.145 28.1334 533.121 Q27.4968 530.097 27.4968 527.233 Q27.4968 519.499 31.5072 515.679 Q35.5176 511.86 43.6657 511.86 Z" fill="#000000" fill-rule="evenodd" fill-opacity="1" /><path clip-path="url(#clip260)" d="M 0 0 M14.479 499.797 L14.479 493.94 L64.0042 493.94 L64.0042 499.797 L14.479 499.797 Z" fill="#000000" fill-rule="evenodd" fill-opacity="1" /><path clip-path="url(#clip260)" d="M 0 0 M29.4065 458.961 L34.9447 458.961 Q33.6716 461.443 33.035 464.117 Q32.3984 466.79 32.3984 469.655 Q32.3984 474.016 33.7352 476.212 Q35.072 478.376 37.7456 478.376 Q39.7826 478.376 40.9603 476.816 Q42.1061 475.257 43.1565 470.546 L43.6021 468.541 Q44.9389 462.303 47.3897 459.693 Q49.8086 457.051 54.1691 457.051 Q59.1344 457.051 62.0308 460.998 Q64.9272 464.913 64.9272 471.788 Q64.9272 474.652 64.3543 477.771 Q63.8132 480.859 62.6992 484.296 L56.6518 484.296 Q58.3387 481.05 59.198 477.899 Q60.0256 474.748 60.0256 471.66 Q60.0256 467.523 58.6251 465.295 Q57.1929 463.067 54.6147 463.067 Q52.2276 463.067 50.9545 464.69 Q49.6813 466.281 48.5037 471.724 L48.0262 473.761 Q46.8804 479.204 44.5251 481.623 Q42.138 484.042 38.0002 484.042 Q32.9713 484.042 30.2341 480.477 Q27.4968 476.912 27.4968 470.355 Q27.4968 467.109 27.9743 464.244 Q28.4517 461.38 29.4065 458.961 Z" fill="#000000" fill-rule="evenodd" fill-opacity="1" /><path clip-path="url(#clip262)" d="
M265.903 1109.92 L627.893 1109.92 L627.893 1092.72 L265.903 1092.72  Z
  " fill="#009af9" fill-rule="evenodd" fill-opacity="1"/>
<polyline clip-path="url(#clip262)" style="stroke:#ffffff; stroke-width:4; stroke-opacity:1; fill:none" points="
  265.903,1109.92 627.893,1109.92 
  "/>
<path clip-path="url(#clip262)" d="
M272.426 1092.72 L273.728 1092.72 L273.728 1075.53 L272.426 1075.53  Z
  " fill="#009af9" fill-rule="evenodd" fill-opacity="1"/>
<polyline clip-path="url(#clip262)" style="stroke:#ffffff; stroke-width:4; stroke-opacity:1; fill:none" points="
  272.426,1092.72 273.728,1092.72 
  "/>
<path clip-path="url(#clip262)" d="
M362.266 1058.33 L574.509 1058.33 L574.509 1041.14 L362.266 1041.14  Z
  " fill="#e26f46" fill-rule="evenodd" fill-opacity="1"/>
<polyline clip-path="url(#clip262)" style="stroke:#ffffff; stroke-width:4; stroke-opacity:1; fill:none" points="
  362.266,1058.33 574.509,1058.33 
  "/>
<path clip-path="url(#clip262)" d="
M373.984 1041.14 L375.286 1041.14 L375.286 1023.94 L373.984 1023.94  Z
  " fill="#e26f46" fill-rule="evenodd" fill-opacity="1"/>
<polyline clip-path="url(#clip262)" style="stroke:#ffffff; stroke-width:4; stroke-opacity:1; fill:none" points="
  373.984,1041.14 375.286,1041.14 
  "/>
<path clip-path="url(#clip262)" d="
M419.555 1006.75 L752.9 1006.75 L752.9 989.55 L419.555 989.55  Z
  " fill="#3da44d" fill-rule="evenodd" fill-opacity="1"/>
<polyline clip-path="url(#clip262)" style="stroke:#ffffff; stroke-width:4; stroke-opacity:1; fill:none" points="
  419.555,1006.75 752.9,1006.75 
  "/>
<path clip-path="url(#clip262)" d="
M426.065 989.55 L556.281 989.55 L556.281 972.355 L426.065 972.355  Z
  " fill="#3da44d" fill-rule="evenodd" fill-opacity="1"/>
<polyline clip-path="url(#clip262)" style="stroke:#ffffff; stroke-width:4; stroke-opacity:1; fill:none" points="
  426.065,989.55 556.281,989.55 
  "/>
<path clip-path="url(#clip262)" d="
M429.971 972.355 L429.971 972.355 L429.971 955.16 L429.971 955.16  Z
  " fill="#3da44d" fill-rule="evenodd" fill-opacity="1"/>
<polyline clip-path="url(#clip262)" style="stroke:#ffffff; stroke-width:4; stroke-opacity:1; fill:none" points="
  429.971,972.355 429.971,972.355 
  "/>
<path clip-path="url(#clip262)" d="
M462.522 937.964 L720.349 937.964 L720.349 920.769 L462.522 920.769  Z
  " fill="#c271d2" fill-rule="evenodd" fill-opacity="1"/>
<polyline clip-path="url(#clip262)" style="stroke:#ffffff; stroke-width:4; stroke-opacity:1; fill:none" points="
  462.522,937.964 720.349,937.964 
  "/>
<path clip-path="url(#clip262)" d="
M466.428 920.769 L466.428 920.769 L466.428 903.574 L466.428 903.574  Z
  " fill="#c271d2" fill-rule="evenodd" fill-opacity="1"/>
<polyline clip-path="url(#clip262)" style="stroke:#ffffff; stroke-width:4; stroke-opacity:1; fill:none" points="
  466.428,920.769 466.428,920.769 
  "/>
<path clip-path="url(#clip262)" d="
M472.938 886.378 L474.24 886.378 L474.24 869.183 L472.938 869.183  Z
  " fill="#ac8d18" fill-rule="evenodd" fill-opacity="1"/>
<polyline clip-path="url(#clip262)" style="stroke:#ffffff; stroke-width:4; stroke-opacity:1; fill:none" points="
  472.938,886.378 474.24,886.378 
  "/>
<path clip-path="url(#clip262)" d="
M509.408 851.987 L510.71 851.987 L510.71 834.792 L509.408 834.792  Z
  " fill="#00a9ad" fill-rule="evenodd" fill-opacity="1"/>
<polyline clip-path="url(#clip262)" style="stroke:#ffffff; stroke-width:4; stroke-opacity:1; fill:none" points="
  509.408,851.987 510.71,851.987 
  "/>
<path clip-path="url(#clip262)" d="
M605.758 817.597 L686.484 817.597 L686.484 800.401 L605.758 800.401  Z
  " fill="#ed5d92" fill-rule="evenodd" fill-opacity="1"/>
<polyline clip-path="url(#clip262)" style="stroke:#ffffff; stroke-width:4; stroke-opacity:1; fill:none" points="
  605.758,817.597 686.484,817.597 
  "/>
<path clip-path="url(#clip262)" d="
M609.664 800.401 L610.966 800.401 L610.966 783.206 L609.664 783.206  Z
  " fill="#ed5d92" fill-rule="evenodd" fill-opacity="1"/>
<polyline clip-path="url(#clip262)" style="stroke:#ffffff; stroke-width:4; stroke-opacity:1; fill:none" points="
  609.664,800.401 610.966,800.401 
  "/>
<path clip-path="url(#clip262)" d="
M651.329 1109.92 L652.631 1109.92 L652.631 1092.72 L651.329 1092.72  Z
  " fill="#c68125" fill-rule="evenodd" fill-opacity="1"/>
<polyline clip-path="url(#clip262)" style="stroke:#ffffff; stroke-width:4; stroke-opacity:1; fill:none" points="
  651.329,1109.92 652.631,1109.92 
  "/>
<path clip-path="url(#clip262)" d="
M788.055 1109.92 L1293.27 1109.92 L1293.27 1092.72 L788.055 1092.72  Z
  " fill="#009af9" fill-rule="evenodd" fill-opacity="1"/>
<polyline clip-path="url(#clip262)" style="stroke:#ffffff; stroke-width:4; stroke-opacity:1; fill:none" points="
  788.055,1109.92 1293.27,1109.92 
  "/>
<path clip-path="url(#clip262)" d="
M791.961 1092.72 L897.425 1092.72 L897.425 1075.53 L791.961 1075.53  Z
  " fill="#009af9" fill-rule="evenodd" fill-opacity="1"/>
<polyline clip-path="url(#clip262)" style="stroke:#ffffff; stroke-width:4; stroke-opacity:1; fill:none" points="
  791.961,1092.72 897.425,1092.72 
  "/>
<path clip-path="url(#clip262)" d="
M797.169 1075.53 L797.169 1075.53 L797.169 1058.33 L797.169 1058.33  Z
  " fill="#009af9" fill-rule="evenodd" fill-opacity="1"/>
<polyline clip-path="url(#clip262)" style="stroke:#ffffff; stroke-width:4; stroke-opacity:1; fill:none" points="
  797.169,1075.53 797.169,1075.53 
  "/>
<path clip-path="url(#clip262)" d="
M821.908 1041.14 L1224.26 1041.14 L1224.26 1023.94 L821.908 1023.94  Z
  " fill="#00a98d" fill-rule="evenodd" fill-opacity="1"/>
<polyline clip-path="url(#clip262)" style="stroke:#ffffff; stroke-width:4; stroke-opacity:1; fill:none" points="
  821.908,1041.14 1224.26,1041.14 
  "/>
<path clip-path="url(#clip262)" d="
M825.814 1023.94 L827.116 1023.94 L827.116 1006.75 L825.814 1006.75  Z
  " fill="#00a98d" fill-rule="evenodd" fill-opacity="1"/>
<polyline clip-path="url(#clip262)" style="stroke:#ffffff; stroke-width:4; stroke-opacity:1; fill:none" points="
  825.814,1023.94 827.116,1023.94 
  "/>
<path clip-path="url(#clip262)" d="
M833.626 989.55 L833.626 989.55 L833.626 972.355 L833.626 972.355  Z
  " fill="#8e971d" fill-rule="evenodd" fill-opacity="1"/>
<polyline clip-path="url(#clip262)" style="stroke:#ffffff; stroke-width:4; stroke-opacity:1; fill:none" points="
  833.626,989.55 833.626,989.55 
  "/>
<path clip-path="url(#clip262)" d="
M866.176 955.16 L1419.58 955.16 L1419.58 937.964 L866.176 937.964  Z
  " fill="#00a8cb" fill-rule="evenodd" fill-opacity="1"/>
<polyline clip-path="url(#clip262)" style="stroke:#ffffff; stroke-width:4; stroke-opacity:1; fill:none" points="
  866.176,955.16 1419.58,955.16 
  "/>
<path clip-path="url(#clip262)" d="
M870.083 937.964 L1277.64 937.964 L1277.64 920.769 L870.083 920.769  Z
  " fill="#00a8cb" fill-rule="evenodd" fill-opacity="1"/>
<polyline clip-path="url(#clip262)" style="stroke:#ffffff; stroke-width:4; stroke-opacity:1; fill:none" points="
  870.083,937.964 1277.64,937.964 
  "/>
<path clip-path="url(#clip262)" d="
M875.291 920.769 L875.291 920.769 L875.291 903.574 L875.291 903.574  Z
  " fill="#00a8cb" fill-rule="evenodd" fill-opacity="1"/>
<polyline clip-path="url(#clip262)" style="stroke:#ffffff; stroke-width:4; stroke-opacity:1; fill:none" points="
  875.291,920.769 875.291,920.769 
  "/>
<path clip-path="url(#clip262)" d="
M933.882 886.378 L1147.43 886.378 L1147.43 869.183 L933.882 869.183  Z
  " fill="#9b7fe8" fill-rule="evenodd" fill-opacity="1"/>
<polyline clip-path="url(#clip262)" style="stroke:#ffffff; stroke-width:4; stroke-opacity:1; fill:none" points="
  933.882,886.378 1147.43,886.378 
  "/>
<path clip-path="url(#clip262)" d="
M940.392 869.183 L940.392 869.183 L940.392 851.987 L940.392 851.987  Z
  " fill="#9b7fe8" fill-rule="evenodd" fill-opacity="1"/>
<polyline clip-path="url(#clip262)" style="stroke:#ffffff; stroke-width:4; stroke-opacity:1; fill:none" points="
  940.392,869.183 940.392,869.183 
  "/>
<path clip-path="url(#clip262)" d="
M970.352 834.792 L1388.32 834.792 L1388.32 817.597 L970.352 817.597  Z
  " fill="#608cf6" fill-rule="evenodd" fill-opacity="1"/>
<polyline clip-path="url(#clip262)" style="stroke:#ffffff; stroke-width:4; stroke-opacity:1; fill:none" points="
  970.352,834.792 1388.32,834.792 
  "/>
<path clip-path="url(#clip262)" d="
M975.56 817.597 L1190.41 817.597 L1190.41 800.401 L975.56 800.401  Z
  " fill="#608cf6" fill-rule="evenodd" fill-opacity="1"/>
<polyline clip-path="url(#clip262)" style="stroke:#ffffff; stroke-width:4; stroke-opacity:1; fill:none" points="
  975.56,817.597 1190.41,817.597 
  "/>
<path clip-path="url(#clip262)" d="
M978.164 800.401 L979.466 800.401 L979.466 783.206 L978.164 783.206  Z
  " fill="#608cf6" fill-rule="evenodd" fill-opacity="1"/>
<polyline clip-path="url(#clip262)" style="stroke:#ffffff; stroke-width:4; stroke-opacity:1; fill:none" points="
  978.164,800.401 979.466,800.401 
  "/>
<path clip-path="url(#clip262)" d="
M993.788 766.011 L1206.03 766.011 L1206.03 748.815 L993.788 748.815  Z
  " fill="#f05f73" fill-rule="evenodd" fill-opacity="1"/>
<polyline clip-path="url(#clip262)" style="stroke:#ffffff; stroke-width:4; stroke-opacity:1; fill:none" points="
  993.788,766.011 1206.03,766.011 
  "/>
<path clip-path="url(#clip262)" d="
M996.392 748.815 L996.392 748.815 L996.392 731.62 L996.392 731.62  Z
  " fill="#f05f73" fill-rule="evenodd" fill-opacity="1"/>
<polyline clip-path="url(#clip262)" style="stroke:#ffffff; stroke-width:4; stroke-opacity:1; fill:none" points="
  996.392,748.815 996.392,748.815 
  "/>
<path clip-path="url(#clip262)" d="
M1052.38 714.424 L1053.68 714.424 L1053.68 697.229 L1052.38 697.229  Z
  " fill="#dd64b5" fill-rule="evenodd" fill-opacity="1"/>
<polyline clip-path="url(#clip262)" style="stroke:#ffffff; stroke-width:4; stroke-opacity:1; fill:none" points="
  1052.38,714.424 1053.68,714.424 
  "/>
<path clip-path="url(#clip262)" d="
M1090.14 680.034 L1357.07 680.034 L1357.07 662.838 L1090.14 662.838  Z
  " fill="#6b9e32" fill-rule="evenodd" fill-opacity="1"/>
<polyline clip-path="url(#clip262)" style="stroke:#ffffff; stroke-width:4; stroke-opacity:1; fill:none" points="
  1090.14,680.034 1357.07,680.034 
  "/>
<path clip-path="url(#clip262)" d="
M1092.74 662.838 L1092.74 662.838 L1092.74 645.643 L1092.74 645.643  Z
  " fill="#6b9e32" fill-rule="evenodd" fill-opacity="1"/>
<polyline clip-path="url(#clip262)" style="stroke:#ffffff; stroke-width:4; stroke-opacity:1; fill:none" points="
  1092.74,662.838 1092.74,662.838 
  "/>
<path clip-path="url(#clip262)" d="
M1109.67 628.448 L1112.27 628.448 L1112.27 611.252 L1109.67 611.252  Z
  " fill="#009af9" fill-rule="evenodd" fill-opacity="1"/>
<polyline clip-path="url(#clip262)" style="stroke:#ffffff; stroke-width:4; stroke-opacity:1; fill:none" points="
  1109.67,628.448 1112.27,628.448 
  "/>
<path clip-path="url(#clip262)" d="
M1129.2 594.057 L1130.5 594.057 L1130.5 576.862 L1129.2 576.862  Z
  " fill="#e26f46" fill-rule="evenodd" fill-opacity="1"/>
<polyline clip-path="url(#clip262)" style="stroke:#ffffff; stroke-width:4; stroke-opacity:1; fill:none" points="
  1129.2,594.057 1130.5,594.057 
  "/>
<path clip-path="url(#clip262)" d="
M1168.26 559.666 L1325.82 559.666 L1325.82 542.471 L1168.26 542.471  Z
  " fill="#3da44d" fill-rule="evenodd" fill-opacity="1"/>
<polyline clip-path="url(#clip262)" style="stroke:#ffffff; stroke-width:4; stroke-opacity:1; fill:none" points="
  1168.26,559.666 1325.82,559.666 
  "/>
<path clip-path="url(#clip262)" d="
M1173.48 542.471 L1173.48 542.471 L1173.48 525.275 L1173.48 525.275  Z
  " fill="#3da44d" fill-rule="evenodd" fill-opacity="1"/>
<polyline clip-path="url(#clip262)" style="stroke:#ffffff; stroke-width:4; stroke-opacity:1; fill:none" points="
  1173.48,542.471 1173.48,542.471 
  "/>
<path clip-path="url(#clip262)" d="
M1258.11 508.08 L1258.11 508.08 L1258.11 490.885 L1258.11 490.885  Z
  " fill="#c271d2" fill-rule="evenodd" fill-opacity="1"/>
<polyline clip-path="url(#clip262)" style="stroke:#ffffff; stroke-width:4; stroke-opacity:1; fill:none" points="
  1258.11,508.08 1258.11,508.08 
  "/>
<path clip-path="url(#clip262)" d="
M1454.73 1109.92 L2118.8 1109.92 L2118.8 1092.72 L1454.73 1092.72  Z
  " fill="#009af9" fill-rule="evenodd" fill-opacity="1"/>
<polyline clip-path="url(#clip262)" style="stroke:#ffffff; stroke-width:4; stroke-opacity:1; fill:none" points="
  1454.73,1109.92 2118.8,1109.92 
  "/>
<path clip-path="url(#clip262)" d="
M1459.94 1092.72 L1747.7 1092.72 L1747.7 1075.53 L1459.94 1075.53  Z
  " fill="#009af9" fill-rule="evenodd" fill-opacity="1"/>
<polyline clip-path="url(#clip262)" style="stroke:#ffffff; stroke-width:4; stroke-opacity:1; fill:none" points="
  1459.94,1092.72 1747.7,1092.72 
  "/>
<path clip-path="url(#clip262)" d="
M1467.75 1075.53 L1467.75 1075.53 L1467.75 1058.33 L1467.75 1058.33  Z
  " fill="#009af9" fill-rule="evenodd" fill-opacity="1"/>
<polyline clip-path="url(#clip262)" style="stroke:#ffffff; stroke-width:4; stroke-opacity:1; fill:none" points="
  1467.75,1075.53 1467.75,1075.53 
  "/>
<path clip-path="url(#clip262)" d="
M1488.58 1041.14 L2276.35 1041.14 L2276.35 1023.94 L1488.58 1023.94  Z
  " fill="#ac8d18" fill-rule="evenodd" fill-opacity="1"/>
<polyline clip-path="url(#clip262)" style="stroke:#ffffff; stroke-width:4; stroke-opacity:1; fill:none" points="
  1488.58,1041.14 2276.35,1041.14 
  "/>
<path clip-path="url(#clip262)" d="
M1491.19 1023.94 L2103.18 1023.94 L2103.18 1006.75 L1491.19 1006.75  Z
  " fill="#ac8d18" fill-rule="evenodd" fill-opacity="1"/>
<polyline clip-path="url(#clip262)" style="stroke:#ffffff; stroke-width:4; stroke-opacity:1; fill:none" points="
  1491.19,1023.94 2103.18,1023.94 
  "/>
<path clip-path="url(#clip262)" d="
M1493.79 1006.75 L1642.24 1006.75 L1642.24 989.55 L1493.79 989.55  Z
  " fill="#ac8d18" fill-rule="evenodd" fill-opacity="1"/>
<polyline clip-path="url(#clip262)" style="stroke:#ffffff; stroke-width:4; stroke-opacity:1; fill:none" points="
  1493.79,1006.75 1642.24,1006.75 
  "/>
<path clip-path="url(#clip262)" d="
M1496.4 989.55 L1496.4 989.55 L1496.4 972.355 L1496.4 972.355  Z
  " fill="#ac8d18" fill-rule="evenodd" fill-opacity="1"/>
<polyline clip-path="url(#clip262)" style="stroke:#ffffff; stroke-width:4; stroke-opacity:1; fill:none" points="
  1496.4,989.55 1496.4,989.55 
  "/>
<path clip-path="url(#clip262)" d="
M1502.91 955.16 L2052.39 955.16 L2052.39 937.964 L1502.91 937.964  Z
  " fill="#00a9ad" fill-rule="evenodd" fill-opacity="1"/>
<polyline clip-path="url(#clip262)" style="stroke:#ffffff; stroke-width:4; stroke-opacity:1; fill:none" points="
  1502.91,955.16 2052.39,955.16 
  "/>
<path clip-path="url(#clip262)" d="
M1505.51 937.964 L1663.07 937.964 L1663.07 920.769 L1505.51 920.769  Z
  " fill="#00a9ad" fill-rule="evenodd" fill-opacity="1"/>
<polyline clip-path="url(#clip262)" style="stroke:#ffffff; stroke-width:4; stroke-opacity:1; fill:none" points="
  1505.51,937.964 1663.07,937.964 
  "/>
<path clip-path="url(#clip262)" d="
M1508.11 920.769 L1508.11 920.769 L1508.11 903.574 L1508.11 903.574  Z
  " fill="#00a9ad" fill-rule="evenodd" fill-opacity="1"/>
<polyline clip-path="url(#clip262)" style="stroke:#ffffff; stroke-width:4; stroke-opacity:1; fill:none" points="
  1508.11,920.769 1508.11,920.769 
  "/>
<path clip-path="url(#clip262)" d="
M1513.32 886.378 L1678.69 886.378 L1678.69 869.183 L1513.32 869.183  Z
  " fill="#ed5d92" fill-rule="evenodd" fill-opacity="1"/>
<polyline clip-path="url(#clip262)" style="stroke:#ffffff; stroke-width:4; stroke-opacity:1; fill:none" points="
  1513.32,886.378 1678.69,886.378 
  "/>
<path clip-path="url(#clip262)" d="
M1515.93 869.183 L1515.93 869.183 L1515.93 851.987 L1515.93 851.987  Z
  " fill="#ed5d92" fill-rule="evenodd" fill-opacity="1"/>
<polyline clip-path="url(#clip262)" style="stroke:#ffffff; stroke-width:4; stroke-opacity:1; fill:none" points="
  1515.93,869.183 1515.93,869.183 
  "/>
<path clip-path="url(#clip262)" d="
M1543.27 834.792 L1544.57 834.792 L1544.57 817.597 L1543.27 817.597  Z
  " fill="#c68125" fill-rule="evenodd" fill-opacity="1"/>
<polyline clip-path="url(#clip262)" style="stroke:#ffffff; stroke-width:4; stroke-opacity:1; fill:none" points="
  1543.27,834.792 1544.57,834.792 
  "/>
<path clip-path="url(#clip262)" d="
M1551.08 800.401 L1983.38 800.401 L1983.38 783.206 L1551.08 783.206  Z
  " fill="#00a98d" fill-rule="evenodd" fill-opacity="1"/>
<polyline clip-path="url(#clip262)" style="stroke:#ffffff; stroke-width:4; stroke-opacity:1; fill:none" points="
  1551.08,800.401 1983.38,800.401 
  "/>
<path clip-path="url(#clip262)" d="
M1553.69 783.206 L1553.69 783.206 L1553.69 766.011 L1553.69 766.011  Z
  " fill="#00a98d" fill-rule="evenodd" fill-opacity="1"/>
<polyline clip-path="url(#clip262)" style="stroke:#ffffff; stroke-width:4; stroke-opacity:1; fill:none" points="
  1553.69,783.206 1553.69,783.206 
  "/>
<path clip-path="url(#clip262)" d="
M1560.2 748.815 L1561.5 748.815 L1561.5 731.62 L1560.2 731.62  Z
  " fill="#8e971d" fill-rule="evenodd" fill-opacity="1"/>
<polyline clip-path="url(#clip262)" style="stroke:#ffffff; stroke-width:4; stroke-opacity:1; fill:none" points="
  1560.2,748.815 1561.5,748.815 
  "/>
<path clip-path="url(#clip262)" d="
M1566.71 714.424 L1566.71 714.424 L1566.71 697.229 L1566.71 697.229  Z
  " fill="#00a8cb" fill-rule="evenodd" fill-opacity="1"/>
<polyline clip-path="url(#clip262)" style="stroke:#ffffff; stroke-width:4; stroke-opacity:1; fill:none" points="
  1566.71,714.424 1566.71,714.424 
  "/>
<path clip-path="url(#clip262)" d="
M1599.26 680.034 L2245.1 680.034 L2245.1 662.838 L1599.26 662.838  Z
  " fill="#9b7fe8" fill-rule="evenodd" fill-opacity="1"/>
<polyline clip-path="url(#clip262)" style="stroke:#ffffff; stroke-width:4; stroke-opacity:1; fill:none" points="
  1599.26,680.034 2245.1,680.034 
  "/>
<path clip-path="url(#clip262)" d="
M1601.86 662.838 L2019.84 662.838 L2019.84 645.643 L1601.86 645.643  Z
  " fill="#9b7fe8" fill-rule="evenodd" fill-opacity="1"/>
<polyline clip-path="url(#clip262)" style="stroke:#ffffff; stroke-width:4; stroke-opacity:1; fill:none" points="
  1601.86,662.838 2019.84,662.838 
  "/>
<path clip-path="url(#clip262)" d="
M1605.77 645.643 L1607.07 645.643 L1607.07 628.448 L1605.77 628.448  Z
  " fill="#9b7fe8" fill-rule="evenodd" fill-opacity="1"/>
<polyline clip-path="url(#clip262)" style="stroke:#ffffff; stroke-width:4; stroke-opacity:1; fill:none" points="
  1605.77,645.643 1607.07,645.643 
  "/>
<path clip-path="url(#clip262)" d="
M1622.71 611.252 L2034.16 611.252 L2034.16 594.057 L1622.71 594.057  Z
  " fill="#608cf6" fill-rule="evenodd" fill-opacity="1"/>
<polyline clip-path="url(#clip262)" style="stroke:#ffffff; stroke-width:4; stroke-opacity:1; fill:none" points="
  1622.71,611.252 2034.16,611.252 
  "/>
<path clip-path="url(#clip262)" d="
M1625.31 594.057 L1625.31 594.057 L1625.31 576.862 L1625.31 576.862  Z
  " fill="#608cf6" fill-rule="evenodd" fill-opacity="1"/>
<polyline clip-path="url(#clip262)" style="stroke:#ffffff; stroke-width:4; stroke-opacity:1; fill:none" points="
  1625.31,594.057 1625.31,594.057 
  "/>
<path clip-path="url(#clip262)" d="
M1700.83 559.666 L2213.85 559.666 L2213.85 542.471 L1700.83 542.471  Z
  " fill="#f05f73" fill-rule="evenodd" fill-opacity="1"/>
<polyline clip-path="url(#clip262)" style="stroke:#ffffff; stroke-width:4; stroke-opacity:1; fill:none" points="
  1700.83,559.666 2213.85,559.666 
  "/>
<path clip-path="url(#clip262)" d="
M1702.13 542.471 L1860.99 542.471 L1860.99 525.275 L1702.13 525.275  Z
  " fill="#f05f73" fill-rule="evenodd" fill-opacity="1"/>
<polyline clip-path="url(#clip262)" style="stroke:#ffffff; stroke-width:4; stroke-opacity:1; fill:none" points="
  1702.13,542.471 1860.99,542.471 
  "/>
<path clip-path="url(#clip262)" d="
M1704.73 525.275 L1706.04 525.275 L1706.04 508.08 L1704.73 508.08  Z
  " fill="#f05f73" fill-rule="evenodd" fill-opacity="1"/>
<polyline clip-path="url(#clip262)" style="stroke:#ffffff; stroke-width:4; stroke-opacity:1; fill:none" points="
  1704.73,525.275 1706.04,525.275 
  "/>
<path clip-path="url(#clip262)" d="
M1729.47 490.885 L1897.45 490.885 L1897.45 473.689 L1729.47 473.689  Z
  " fill="#dd64b5" fill-rule="evenodd" fill-opacity="1"/>
<polyline clip-path="url(#clip262)" style="stroke:#ffffff; stroke-width:4; stroke-opacity:1; fill:none" points="
  1729.47,490.885 1897.45,490.885 
  "/>
<path clip-path="url(#clip262)" d="
M1730.77 473.689 L1732.08 473.689 L1732.08 456.494 L1730.77 456.494  Z
  " fill="#dd64b5" fill-rule="evenodd" fill-opacity="1"/>
<polyline clip-path="url(#clip262)" style="stroke:#ffffff; stroke-width:4; stroke-opacity:1; fill:none" points="
  1730.77,473.689 1732.08,473.689 
  "/>
<path clip-path="url(#clip262)" d="
M1769.84 439.299 L2182.6 439.299 L2182.6 422.103 L1769.84 422.103  Z
  " fill="#6b9e32" fill-rule="evenodd" fill-opacity="1"/>
<polyline clip-path="url(#clip262)" style="stroke:#ffffff; stroke-width:4; stroke-opacity:1; fill:none" points="
  1769.84,439.299 2182.6,439.299 
  "/>
<path clip-path="url(#clip262)" d="
M1772.44 422.103 L1773.74 422.103 L1773.74 404.908 L1772.44 404.908  Z
  " fill="#6b9e32" fill-rule="evenodd" fill-opacity="1"/>
<polyline clip-path="url(#clip262)" style="stroke:#ffffff; stroke-width:4; stroke-opacity:1; fill:none" points="
  1772.44,422.103 1773.74,422.103 
  "/>
<path clip-path="url(#clip262)" d="
M1780.25 387.712 L1780.25 387.712 L1780.25 370.517 L1780.25 370.517  Z
  " fill="#009af9" fill-rule="evenodd" fill-opacity="1"/>
<polyline clip-path="url(#clip262)" style="stroke:#ffffff; stroke-width:4; stroke-opacity:1; fill:none" points="
  1780.25,387.712 1780.25,387.712 
  "/>
<path clip-path="url(#clip262)" d="
M1798.48 353.322 L1948.23 353.322 L1948.23 336.126 L1798.48 336.126  Z
  " fill="#e26f46" fill-rule="evenodd" fill-opacity="1"/>
<polyline clip-path="url(#clip262)" style="stroke:#ffffff; stroke-width:4; stroke-opacity:1; fill:none" points="
  1798.48,353.322 1948.23,353.322 
  "/>
<path clip-path="url(#clip262)" d="
M1801.08 336.126 L1801.08 336.126 L1801.08 318.931 L1801.08 318.931  Z
  " fill="#e26f46" fill-rule="evenodd" fill-opacity="1"/>
<polyline clip-path="url(#clip262)" style="stroke:#ffffff; stroke-width:4; stroke-opacity:1; fill:none" points="
  1801.08,336.126 1801.08,336.126 
  "/>
<path clip-path="url(#clip262)" d="
M1816.71 301.736 L1965.15 301.736 L1965.15 284.54 L1816.71 284.54  Z
  " fill="#3da44d" fill-rule="evenodd" fill-opacity="1"/>
<polyline clip-path="url(#clip262)" style="stroke:#ffffff; stroke-width:4; stroke-opacity:1; fill:none" points="
  1816.71,301.736 1965.15,301.736 
  "/>
<path clip-path="url(#clip262)" d="
M1818.01 284.54 L1819.31 284.54 L1819.31 267.345 L1818.01 267.345  Z
  " fill="#3da44d" fill-rule="evenodd" fill-opacity="1"/>
<polyline clip-path="url(#clip262)" style="stroke:#ffffff; stroke-width:4; stroke-opacity:1; fill:none" points="
  1818.01,284.54 1819.31,284.54 
  "/>
<path clip-path="url(#clip262)" d="
M1824.52 250.149 L1824.52 250.149 L1824.52 232.954 L1824.52 232.954  Z
  " fill="#c271d2" fill-rule="evenodd" fill-opacity="1"/>
<polyline clip-path="url(#clip262)" style="stroke:#ffffff; stroke-width:4; stroke-opacity:1; fill:none" points="
  1824.52,250.149 1824.52,250.149 
  "/>
<path clip-path="url(#clip262)" d="
M1870.1 215.759 L1870.1 215.759 L1870.1 198.563 L1870.1 198.563  Z
  " fill="#ac8d18" fill-rule="evenodd" fill-opacity="1"/>
<polyline clip-path="url(#clip262)" style="stroke:#ffffff; stroke-width:4; stroke-opacity:1; fill:none" points="
  1870.1,215.759 1870.1,215.759 
  "/>
<path clip-path="url(#clip262)" d="
M1877.92 181.368 L1877.92 181.368 L1877.92 164.173 L1877.92 164.173  Z
  " fill="#00a9ad" fill-rule="evenodd" fill-opacity="1"/>
<polyline clip-path="url(#clip262)" style="stroke:#ffffff; stroke-width:4; stroke-opacity:1; fill:none" points="
  1877.92,181.368 1877.92,181.368 
  "/>
<path clip-path="url(#clip262)" d="
M1930 146.977 L2147.45 146.977 L2147.45 129.782 L1930 129.782  Z
  " fill="#ed5d92" fill-rule="evenodd" fill-opacity="1"/>
<polyline clip-path="url(#clip262)" style="stroke:#ffffff; stroke-width:4; stroke-opacity:1; fill:none" points="
  1930,146.977 2147.45,146.977 
  "/>
<path clip-path="url(#clip262)" d="
M1931.3 129.782 L1932.6 129.782 L1932.6 112.587 L1931.3 112.587  Z
  " fill="#ed5d92" fill-rule="evenodd" fill-opacity="1"/>
<polyline clip-path="url(#clip262)" style="stroke:#ffffff; stroke-width:4; stroke-opacity:1; fill:none" points="
  1931.3,129.782 1932.6,129.782 
  "/>
<path clip-path="url(#clip262)" d="
M2083.65 95.3911 L2083.65 95.3911 L2083.65 78.1958 L2083.65 78.1958  Z
  " fill="#c68125" fill-rule="evenodd" fill-opacity="1"/>
<polyline clip-path="url(#clip262)" style="stroke:#ffffff; stroke-width:4; stroke-opacity:1; fill:none" points="
  2083.65,95.3911 2083.65,95.3911 
  "/>
<circle clip-path="url(#clip262)" cx="265.903" cy="1109.92" r="14" fill="#ffffff" fill-rule="evenodd" fill-opacity="1" stroke="#000000" stroke-opacity="1" stroke-width="3.2"/>
<circle clip-path="url(#clip262)" cx="362.266" cy="1058.33" r="14" fill="#ffffff" fill-rule="evenodd" fill-opacity="1" stroke="#000000" stroke-opacity="1" stroke-width="3.2"/>
<circle clip-path="url(#clip262)" cx="419.555" cy="1006.75" r="14" fill="#ffffff" fill-rule="evenodd" fill-opacity="1" stroke="#000000" stroke-opacity="1" stroke-width="3.2"/>
<circle clip-path="url(#clip262)" cx="462.522" cy="937.964" r="14" fill="#ffffff" fill-rule="evenodd" fill-opacity="1" stroke="#000000" stroke-opacity="1" stroke-width="3.2"/>
<circle clip-path="url(#clip262)" cx="472.938" cy="886.378" r="14" fill="#ffffff" fill-rule="evenodd" fill-opacity="1" stroke="#000000" stroke-opacity="1" stroke-width="3.2"/>
<circle clip-path="url(#clip262)" cx="509.408" cy="851.987" r="14" fill="#ffffff" fill-rule="evenodd" fill-opacity="1" stroke="#000000" stroke-opacity="1" stroke-width="3.2"/>
<circle clip-path="url(#clip262)" cx="605.758" cy="817.597" r="14" fill="#ffffff" fill-rule="evenodd" fill-opacity="1" stroke="#000000" stroke-opacity="1" stroke-width="3.2"/>
<circle clip-path="url(#clip262)" cx="651.329" cy="1109.92" r="14" fill="#ffffff" fill-rule="evenodd" fill-opacity="1" stroke="#000000" stroke-opacity="1" stroke-width="3.2"/>
<circle clip-path="url(#clip262)" cx="788.055" cy="1109.92" r="14" fill="#ffffff" fill-rule="evenodd" fill-opacity="1" stroke="#000000" stroke-opacity="1" stroke-width="3.2"/>
<circle clip-path="url(#clip262)" cx="821.908" cy="1041.14" r="14" fill="#ffffff" fill-rule="evenodd" fill-opacity="1" stroke="#000000" stroke-opacity="1" stroke-width="3.2"/>
<circle clip-path="url(#clip262)" cx="833.626" cy="989.55" r="14" fill="#ffffff" fill-rule="evenodd" fill-opacity="1" stroke="#000000" stroke-opacity="1" stroke-width="3.2"/>
<circle clip-path="url(#clip262)" cx="866.176" cy="955.16" r="14" fill="#ffffff" fill-rule="evenodd" fill-opacity="1" stroke="#000000" stroke-opacity="1" stroke-width="3.2"/>
<circle clip-path="url(#clip262)" cx="933.882" cy="886.378" r="14" fill="#ffffff" fill-rule="evenodd" fill-opacity="1" stroke="#000000" stroke-opacity="1" stroke-width="3.2"/>
<circle clip-path="url(#clip262)" cx="970.352" cy="834.792" r="14" fill="#ffffff" fill-rule="evenodd" fill-opacity="1" stroke="#000000" stroke-opacity="1" stroke-width="3.2"/>
<circle clip-path="url(#clip262)" cx="993.788" cy="766.011" r="14" fill="#ffffff" fill-rule="evenodd" fill-opacity="1" stroke="#000000" stroke-opacity="1" stroke-width="3.2"/>
<circle clip-path="url(#clip262)" cx="1052.38" cy="714.424" r="14" fill="#ffffff" fill-rule="evenodd" fill-opacity="1" stroke="#000000" stroke-opacity="1" stroke-width="3.2"/>
<circle clip-path="url(#clip262)" cx="1090.14" cy="680.034" r="14" fill="#ffffff" fill-rule="evenodd" fill-opacity="1" stroke="#000000" stroke-opacity="1" stroke-width="3.2"/>
<circle clip-path="url(#clip262)" cx="1109.67" cy="628.448" r="14" fill="#ffffff" fill-rule="evenodd" fill-opacity="1" stroke="#000000" stroke-opacity="1" stroke-width="3.2"/>
<circle clip-path="url(#clip262)" cx="1129.2" cy="594.057" r="14" fill="#ffffff" fill-rule="evenodd" fill-opacity="1" stroke="#000000" stroke-opacity="1" stroke-width="3.2"/>
<circle clip-path="url(#clip262)" cx="1168.26" cy="559.666" r="14" fill="#ffffff" fill-rule="evenodd" fill-opacity="1" stroke="#000000" stroke-opacity="1" stroke-width="3.2"/>
<circle clip-path="url(#clip262)" cx="1258.11" cy="508.08" r="14" fill="#ffffff" fill-rule="evenodd" fill-opacity="1" stroke="#000000" stroke-opacity="1" stroke-width="3.2"/>
<circle clip-path="url(#clip262)" cx="1454.73" cy="1109.92" r="14" fill="#ffffff" fill-rule="evenodd" fill-opacity="1" stroke="#000000" stroke-opacity="1" stroke-width="3.2"/>
<circle clip-path="url(#clip262)" cx="1488.58" cy="1041.14" r="14" fill="#ffffff" fill-rule="evenodd" fill-opacity="1" stroke="#000000" stroke-opacity="1" stroke-width="3.2"/>
<circle clip-path="url(#clip262)" cx="1502.91" cy="955.16" r="14" fill="#ffffff" fill-rule="evenodd" fill-opacity="1" stroke="#000000" stroke-opacity="1" stroke-width="3.2"/>
<circle clip-path="url(#clip262)" cx="1513.32" cy="886.378" r="14" fill="#ffffff" fill-rule="evenodd" fill-opacity="1" stroke="#000000" stroke-opacity="1" stroke-width="3.2"/>
<circle clip-path="url(#clip262)" cx="1543.27" cy="834.792" r="14" fill="#ffffff" fill-rule="evenodd" fill-opacity="1" stroke="#000000" stroke-opacity="1" stroke-width="3.2"/>
<circle clip-path="url(#clip262)" cx="1551.08" cy="800.401" r="14" fill="#ffffff" fill-rule="evenodd" fill-opacity="1" stroke="#000000" stroke-opacity="1" stroke-width="3.2"/>
<circle clip-path="url(#clip262)" cx="1560.2" cy="748.815" r="14" fill="#ffffff" fill-rule="evenodd" fill-opacity="1" stroke="#000000" stroke-opacity="1" stroke-width="3.2"/>
<circle clip-path="url(#clip262)" cx="1566.71" cy="714.424" r="14" fill="#ffffff" fill-rule="evenodd" fill-opacity="1" stroke="#000000" stroke-opacity="1" stroke-width="3.2"/>
<circle clip-path="url(#clip262)" cx="1599.26" cy="680.034" r="14" fill="#ffffff" fill-rule="evenodd" fill-opacity="1" stroke="#000000" stroke-opacity="1" stroke-width="3.2"/>
<circle clip-path="url(#clip262)" cx="1622.71" cy="611.252" r="14" fill="#ffffff" fill-rule="evenodd" fill-opacity="1" stroke="#000000" stroke-opacity="1" stroke-width="3.2"/>
<circle clip-path="url(#clip262)" cx="1700.83" cy="559.666" r="14" fill="#ffffff" fill-rule="evenodd" fill-opacity="1" stroke="#000000" stroke-opacity="1" stroke-width="3.2"/>
<circle clip-path="url(#clip262)" cx="1729.47" cy="490.885" r="14" fill="#ffffff" fill-rule="evenodd" fill-opacity="1" stroke="#000000" stroke-opacity="1" stroke-width="3.2"/>
<circle clip-path="url(#clip262)" cx="1769.84" cy="439.299" r="14" fill="#ffffff" fill-rule="evenodd" fill-opacity="1" stroke="#000000" stroke-opacity="1" stroke-width="3.2"/>
<circle clip-path="url(#clip262)" cx="1780.25" cy="387.712" r="14" fill="#ffffff" fill-rule="evenodd" fill-opacity="1" stroke="#000000" stroke-opacity="1" stroke-width="3.2"/>
<circle clip-path="url(#clip262)" cx="1798.48" cy="353.322" r="14" fill="#ffffff" fill-rule="evenodd" fill-opacity="1" stroke="#000000" stroke-opacity="1" stroke-width="3.2"/>
<circle clip-path="url(#clip262)" cx="1816.71" cy="301.736" r="14" fill="#ffffff" fill-rule="evenodd" fill-opacity="1" stroke="#000000" stroke-opacity="1" stroke-width="3.2"/>
<circle clip-path="url(#clip262)" cx="1824.52" cy="250.149" r="14" fill="#ffffff" fill-rule="evenodd" fill-opacity="1" stroke="#000000" stroke-opacity="1" stroke-width="3.2"/>
<circle clip-path="url(#clip262)" cx="1870.1" cy="215.759" r="14" fill="#ffffff" fill-rule="evenodd" fill-opacity="1" stroke="#000000" stroke-opacity="1" stroke-width="3.2"/>
<circle clip-path="url(#clip262)" cx="1877.92" cy="181.368" r="14" fill="#ffffff" fill-rule="evenodd" fill-opacity="1" stroke="#000000" stroke-opacity="1" stroke-width="3.2"/>
<circle clip-path="url(#clip262)" cx="1930" cy="146.977" r="14" fill="#ffffff" fill-rule="evenodd" fill-opacity="1" stroke="#000000" stroke-opacity="1" stroke-width="3.2"/>
<circle clip-path="url(#clip262)" cx="2083.65" cy="95.3911" r="14" fill="#ffffff" fill-rule="evenodd" fill-opacity="1" stroke="#000000" stroke-opacity="1" stroke-width="3.2"/>
<path clip-path="url(#clip260)" d="
M205.121 1423.18 L2352.76 1423.18 L2352.76 1301.67 L205.121 1301.67  Z
  " fill="#ffffff" fill-rule="evenodd" fill-opacity="1"/>
<defs>
  <clipPath id="clip263">
    <rect x="205" y="1301" width="2149" height="123"/>
  </clipPath>
</defs>
<polyline clip-path="url(#clip263)" style="stroke:#000000; stroke-width:2; stroke-opacity:0.1; fill:none" points="
  265.903,1423.18 265.903,1301.67 
  "/>
<polyline clip-path="url(#clip263)" style="stroke:#000000; stroke-width:2; stroke-opacity:0.1; fill:none" points="
  916.916,1423.18 916.916,1301.67 
  "/>
<polyline clip-path="url(#clip263)" style="stroke:#000000; stroke-width:2; stroke-opacity:0.1; fill:none" points="
  1567.93,1423.18 1567.93,1301.67 
  "/>
<polyline clip-path="url(#clip263)" style="stroke:#000000; stroke-width:2; stroke-opacity:0.1; fill:none" points="
  2218.94,1423.18 2218.94,1301.67 
  "/>
<polyline clip-path="url(#clip260)" style="stroke:#000000; stroke-width:4; stroke-opacity:1; fill:none" points="
  205.121,1423.18 2352.76,1423.18 
  "/>
<polyline clip-path="url(#clip260)" style="stroke:#000000; stroke-width:4; stroke-opacity:1; fill:none" points="
  265.903,1423.18 265.903,1421.72 
  "/>
<polyline clip-path="url(#clip260)" style="stroke:#000000; stroke-width:4; stroke-opacity:1; fill:none" points="
  916.916,1423.18 916.916,1421.72 
  "/>
<polyline clip-path="url(#clip260)" style="stroke:#000000; stroke-width:4; stroke-opacity:1; fill:none" points="
  1567.93,1423.18 1567.93,1421.72 
  "/>
<polyline clip-path="url(#clip260)" style="stroke:#000000; stroke-width:4; stroke-opacity:1; fill:none" points="
  2218.94,1423.18 2218.94,1421.72 
  "/>
<path clip-path="url(#clip260)" d="M 0 0 M182.964 1452.37 Q179.353 1452.37 177.524 1455.94 Q175.718 1459.48 175.718 1466.61 Q175.718 1473.71 177.524 1477.28 Q179.353 1480.82 182.964 1480.82 Q186.598 1480.82 188.404 1477.28 Q190.232 1473.71 190.232 1466.61 Q190.232 1459.48 188.404 1455.94 Q186.598 1452.37 182.964 1452.37 M182.964 1448.67 Q188.774 1448.67 191.829 1453.27 Q194.908 1457.86 194.908 1466.61 Q194.908 1475.33 191.829 1479.94 Q188.774 1484.52 182.964 1484.52 Q177.154 1484.52 174.075 1479.94 Q171.019 1475.33 171.019 1466.61 Q171.019 1457.86 174.075 1453.27 Q177.154 1448.67 182.964 1448.67 Z" fill="#000000" fill-rule="evenodd" fill-opacity="1" /><path clip-path="url(#clip260)" d="M 0 0 M203.126 1477.97 L208.01 1477.97 L208.01 1483.85 L203.126 1483.85 L203.126 1477.97 Z" fill="#000000" fill-rule="evenodd" fill-opacity="1" /><path clip-path="url(#clip260)" d="M 0 0 M228.195 1452.37 Q224.584 1452.37 222.755 1455.94 Q220.95 1459.48 220.95 1466.61 Q220.95 1473.71 222.755 1477.28 Q224.584 1480.82 228.195 1480.82 Q231.829 1480.82 233.635 1477.28 Q235.463 1473.71 235.463 1466.61 Q235.463 1459.48 233.635 1455.94 Q231.829 1452.37 228.195 1452.37 M228.195 1448.67 Q234.005 1448.67 237.061 1453.27 Q240.139 1457.86 240.139 1466.61 Q240.139 1475.33 237.061 1479.94 Q234.005 1484.52 228.195 1484.52 Q222.385 1484.52 219.306 1479.94 Q216.251 1475.33 216.251 1466.61 Q216.251 1457.86 219.306 1453.27 Q222.385 1448.67 228.195 1448.67 Z" fill="#000000" fill-rule="evenodd" fill-opacity="1" /><path clip-path="url(#clip260)" d="M 0 0 M258.357 1452.37 Q254.746 1452.37 252.917 1455.94 Q251.112 1459.48 251.112 1466.61 Q251.112 1473.71 252.917 1477.28 Q254.746 1480.82 258.357 1480.82 Q261.991 1480.82 263.797 1477.28 Q265.625 1473.71 265.625 1466.61 Q265.625 1459.48 263.797 1455.94 Q261.991 1452.37 258.357 1452.37 M258.357 1448.67 Q264.167 1448.67 267.223 1453.27 Q270.301 1457.86 270.301 1466.61 Q270.301 1475.33 267.223 1479.94 Q264.167 1484.52 258.357 1484.52 Q252.547 1484.52 249.468 1479.94 Q246.412 1475.33 246.412 1466.61 Q246.412 1457.86 249.468 1453.27 Q252.547 1448.67 258.357 1448.67 Z" fill="#000000" fill-rule="evenodd" fill-opacity="1" /><path clip-path="url(#clip260)" d="M 0 0 M288.519 1452.37 Q284.908 1452.37 283.079 1455.94 Q281.273 1459.48 281.273 1466.61 Q281.273 1473.71 283.079 1477.28 Q284.908 1480.82 288.519 1480.82 Q292.153 1480.82 293.959 1477.28 Q295.787 1473.71 295.787 1466.61 Q295.787 1459.48 293.959 1455.94 Q292.153 1452.37 288.519 1452.37 M288.519 1448.67 Q294.329 1448.67 297.384 1453.27 Q300.463 1457.86 300.463 1466.61 Q300.463 1475.33 297.384 1479.94 Q294.329 1484.52 288.519 1484.52 Q282.709 1484.52 279.63 1479.94 Q276.574 1475.33 276.574 1466.61 Q276.574 1457.86 279.63 1453.27 Q282.709 1448.67 288.519 1448.67 Z" fill="#000000" fill-rule="evenodd" fill-opacity="1" /><path clip-path="url(#clip260)" d="M 0 0 M318.681 1452.37 Q315.069 1452.37 313.241 1455.94 Q311.435 1459.48 311.435 1466.61 Q311.435 1473.71 313.241 1477.28 Q315.069 1480.82 318.681 1480.82 Q322.315 1480.82 324.12 1477.28 Q325.949 1473.71 325.949 1466.61 Q325.949 1459.48 324.12 1455.94 Q322.315 1452.37 318.681 1452.37 M318.681 1448.67 Q324.491 1448.67 327.546 1453.27 Q330.625 1457.86 330.625 1466.61 Q330.625 1475.33 327.546 1479.94 Q324.491 1484.52 318.681 1484.52 Q312.87 1484.52 309.792 1479.94 Q306.736 1475.33 306.736 1466.61 Q306.736 1457.86 309.792 1453.27 Q312.87 1448.67 318.681 1448.67 Z" fill="#000000" fill-rule="evenodd" fill-opacity="1" /><path clip-path="url(#clip260)" d="M 0 0 M348.842 1452.37 Q345.231 1452.37 343.403 1455.94 Q341.597 1459.48 341.597 1466.61 Q341.597 1473.71 343.403 1477.28 Q345.231 1480.82 348.842 1480.82 Q352.477 1480.82 354.282 1477.28 Q356.111 1473.71 356.111 1466.61 Q356.111 1459.48 354.282 1455.94 Q352.477 1452.37 348.842 1452.37 M348.842 1448.67 Q354.653 1448.67 357.708 1453.27 Q360.787 1457.86 360.787 1466.61 Q360.787 1475.33 357.708 1479.94 Q354.653 1484.52 348.842 1484.52 Q343.032 1484.52 339.954 1479.94 Q336.898 1475.33 336.898 1466.61 Q336.898 1457.86 339.954 1453.27 Q343.032 1448.67 348.842 1448.67 Z" fill="#000000" fill-rule="evenodd" fill-opacity="1" /><path clip-path="url(#clip260)" d="M 0 0 M834.475 1452.37 Q830.864 1452.37 829.035 1455.94 Q827.229 1459.48 827.229 1466.61 Q827.229 1473.71 829.035 1477.28 Q830.864 1480.82 834.475 1480.82 Q838.109 1480.82 839.915 1477.28 Q841.743 1473.71 841.743 1466.61 Q841.743 1459.48 839.915 1455.94 Q838.109 1452.37 834.475 1452.37 M834.475 1448.67 Q840.285 1448.67 843.34 1453.27 Q846.419 1457.86 846.419 1466.61 Q846.419 1475.33 843.34 1479.94 Q840.285 1484.52 834.475 1484.52 Q828.665 1484.52 825.586 1479.94 Q822.53 1475.33 822.53 1466.61 Q822.53 1457.86 825.586 1453.27 Q828.665 1448.67 834.475 1448.67 Z" fill="#000000" fill-rule="evenodd" fill-opacity="1" /><path clip-path="url(#clip260)" d="M 0 0 M854.637 1477.97 L859.521 1477.97 L859.521 1483.85 L854.637 1483.85 L854.637 1477.97 Z" fill="#000000" fill-rule="evenodd" fill-opacity="1" /><path clip-path="url(#clip260)" d="M 0 0 M879.706 1452.37 Q876.095 1452.37 874.266 1455.94 Q872.461 1459.48 872.461 1466.61 Q872.461 1473.71 874.266 1477.28 Q876.095 1480.82 879.706 1480.82 Q883.34 1480.82 885.146 1477.28 Q886.974 1473.71 886.974 1466.61 Q886.974 1459.48 885.146 1455.94 Q883.34 1452.37 879.706 1452.37 M879.706 1448.67 Q885.516 1448.67 888.572 1453.27 Q891.65 1457.86 891.65 1466.61 Q891.65 1475.33 888.572 1479.94 Q885.516 1484.52 879.706 1484.52 Q873.896 1484.52 870.817 1479.94 Q867.762 1475.33 867.762 1466.61 Q867.762 1457.86 870.817 1453.27 Q873.896 1448.67 879.706 1448.67 Z" fill="#000000" fill-rule="evenodd" fill-opacity="1" /><path clip-path="url(#clip260)" d="M 0 0 M909.868 1452.37 Q906.257 1452.37 904.428 1455.94 Q902.623 1459.48 902.623 1466.61 Q902.623 1473.71 904.428 1477.28 Q906.257 1480.82 909.868 1480.82 Q913.502 1480.82 915.308 1477.28 Q917.136 1473.71 917.136 1466.61 Q917.136 1459.48 915.308 1455.94 Q913.502 1452.37 909.868 1452.37 M909.868 1448.67 Q915.678 1448.67 918.734 1453.27 Q921.812 1457.86 921.812 1466.61 Q921.812 1475.33 918.734 1479.94 Q915.678 1484.52 909.868 1484.52 Q904.058 1484.52 900.979 1479.94 Q897.923 1475.33 897.923 1466.61 Q897.923 1457.86 900.979 1453.27 Q904.058 1448.67 909.868 1448.67 Z" fill="#000000" fill-rule="evenodd" fill-opacity="1" /><path clip-path="url(#clip260)" d="M 0 0 M940.03 1452.37 Q936.419 1452.37 934.59 1455.94 Q932.784 1459.48 932.784 1466.61 Q932.784 1473.71 934.59 1477.28 Q936.419 1480.82 940.03 1480.82 Q943.664 1480.82 945.47 1477.28 Q947.298 1473.71 947.298 1466.61 Q947.298 1459.48 945.47 1455.94 Q943.664 1452.37 940.03 1452.37 M940.03 1448.67 Q945.84 1448.67 948.895 1453.27 Q951.974 1457.86 951.974 1466.61 Q951.974 1475.33 948.895 1479.94 Q945.84 1484.52 940.03 1484.52 Q934.22 1484.52 931.141 1479.94 Q928.085 1475.33 928.085 1466.61 Q928.085 1457.86 931.141 1453.27 Q934.22 1448.67 940.03 1448.67 Z" fill="#000000" fill-rule="evenodd" fill-opacity="1" /><path clip-path="url(#clip260)" d="M 0 0 M970.192 1452.37 Q966.581 1452.37 964.752 1455.94 Q962.946 1459.48 962.946 1466.61 Q962.946 1473.71 964.752 1477.28 Q966.581 1480.82 970.192 1480.82 Q973.826 1480.82 975.631 1477.28 Q977.46 1473.71 977.46 1466.61 Q977.46 1459.48 975.631 1455.94 Q973.826 1452.37 970.192 1452.37 M970.192 1448.67 Q976.002 1448.67 979.057 1453.27 Q982.136 1457.86 982.136 1466.61 Q982.136 1475.33 979.057 1479.94 Q976.002 1484.52 970.192 1484.52 Q964.381 1484.52 961.303 1479.94 Q958.247 1475.33 958.247 1466.61 Q958.247 1457.86 961.303 1453.27 Q964.381 1448.67 970.192 1448.67 Z" fill="#000000" fill-rule="evenodd" fill-opacity="1" /><path clip-path="url(#clip260)" d="M 0 0 M990.4 1449.29 L1008.76 1449.29 L1008.76 1453.23 L994.682 1453.23 L994.682 1461.7 Q995.701 1461.35 996.719 1461.19 Q997.738 1461 998.756 1461 Q1004.54 1461 1007.92 1464.18 Q1011.3 1467.35 1011.3 1472.76 Q1011.3 1478.34 1007.83 1481.44 Q1004.36 1484.52 998.039 1484.52 Q995.863 1484.52 993.594 1484.15 Q991.349 1483.78 988.942 1483.04 L988.942 1478.34 Q991.025 1479.48 993.247 1480.03 Q995.469 1480.59 997.946 1480.59 Q1001.95 1480.59 1004.29 1478.48 Q1006.63 1476.38 1006.63 1472.76 Q1006.63 1469.15 1004.29 1467.05 Q1001.95 1464.94 997.946 1464.94 Q996.071 1464.94 994.196 1465.36 Q992.344 1465.77 990.4 1466.65 L990.4 1449.29 Z" fill="#000000" fill-rule="evenodd" fill-opacity="1" /><path clip-path="url(#clip260)" d="M 0 0 M1484.99 1452.37 Q1481.38 1452.37 1479.55 1455.94 Q1477.75 1459.48 1477.75 1466.61 Q1477.75 1473.71 1479.55 1477.28 Q1481.38 1480.82 1484.99 1480.82 Q1488.62 1480.82 1490.43 1477.28 Q1492.26 1473.71 1492.26 1466.61 Q1492.26 1459.48 1490.43 1455.94 Q1488.62 1452.37 1484.99 1452.37 M1484.99 1448.67 Q1490.8 1448.67 1493.86 1453.27 Q1496.93 1457.86 1496.93 1466.61 Q1496.93 1475.33 1493.86 1479.94 Q1490.8 1484.52 1484.99 1484.52 Q1479.18 1484.52 1476.1 1479.94 Q1473.05 1475.33 1473.05 1466.61 Q1473.05 1457.86 1476.1 1453.27 Q1479.18 1448.67 1484.99 1448.67 Z" fill="#000000" fill-rule="evenodd" fill-opacity="1" /><path clip-path="url(#clip260)" d="M 0 0 M1505.15 1477.97 L1510.04 1477.97 L1510.04 1483.85 L1505.15 1483.85 L1505.15 1477.97 Z" fill="#000000" fill-rule="evenodd" fill-opacity="1" /><path clip-path="url(#clip260)" d="M 0 0 M1530.22 1452.37 Q1526.61 1452.37 1524.78 1455.94 Q1522.98 1459.48 1522.98 1466.61 Q1522.98 1473.71 1524.78 1477.28 Q1526.61 1480.82 1530.22 1480.82 Q1533.86 1480.82 1535.66 1477.28 Q1537.49 1473.71 1537.49 1466.61 Q1537.49 1459.48 1535.66 1455.94 Q1533.86 1452.37 1530.22 1452.37 M1530.22 1448.67 Q1536.03 1448.67 1539.09 1453.27 Q1542.17 1457.86 1542.17 1466.61 Q1542.17 1475.33 1539.09 1479.94 Q1536.03 1484.52 1530.22 1484.52 Q1524.41 1484.52 1521.33 1479.94 Q1518.28 1475.33 1518.28 1466.61 Q1518.28 1457.86 1521.33 1453.27 Q1524.41 1448.67 1530.22 1448.67 Z" fill="#000000" fill-rule="evenodd" fill-opacity="1" /><path clip-path="url(#clip260)" d="M 0 0 M1560.38 1452.37 Q1556.77 1452.37 1554.94 1455.94 Q1553.14 1459.48 1553.14 1466.61 Q1553.14 1473.71 1554.94 1477.28 Q1556.77 1480.82 1560.38 1480.82 Q1564.02 1480.82 1565.82 1477.28 Q1567.65 1473.71 1567.65 1466.61 Q1567.65 1459.48 1565.82 1455.94 Q1564.02 1452.37 1560.38 1452.37 M1560.38 1448.67 Q1566.19 1448.67 1569.25 1453.27 Q1572.33 1457.86 1572.33 1466.61 Q1572.33 1475.33 1569.25 1479.94 Q1566.19 1484.52 1560.38 1484.52 Q1554.57 1484.52 1551.49 1479.94 Q1548.44 1475.33 1548.44 1466.61 Q1548.44 1457.86 1551.49 1453.27 Q1554.57 1448.67 1560.38 1448.67 Z" fill="#000000" fill-rule="evenodd" fill-opacity="1" /><path clip-path="url(#clip260)" d="M 0 0 M1590.55 1452.37 Q1586.93 1452.37 1585.11 1455.94 Q1583.3 1459.48 1583.3 1466.61 Q1583.3 1473.71 1585.11 1477.28 Q1586.93 1480.82 1590.55 1480.82 Q1594.18 1480.82 1595.99 1477.28 Q1597.81 1473.71 1597.81 1466.61 Q1597.81 1459.48 1595.99 1455.94 Q1594.18 1452.37 1590.55 1452.37 M1590.55 1448.67 Q1596.36 1448.67 1599.41 1453.27 Q1602.49 1457.86 1602.49 1466.61 Q1602.49 1475.33 1599.41 1479.94 Q1596.36 1484.52 1590.55 1484.52 Q1584.74 1484.52 1581.66 1479.94 Q1578.6 1475.33 1578.6 1466.61 Q1578.6 1457.86 1581.66 1453.27 Q1584.74 1448.67 1590.55 1448.67 Z" fill="#000000" fill-rule="evenodd" fill-opacity="1" /><path clip-path="url(#clip260)" d="M 0 0 M1611.52 1479.92 L1619.16 1479.92 L1619.16 1453.55 L1610.85 1455.22 L1610.85 1450.96 L1619.11 1449.29 L1623.79 1449.29 L1623.79 1479.92 L1631.42 1479.92 L1631.42 1483.85 L1611.52 1483.85 L1611.52 1479.92 Z" fill="#000000" fill-rule="evenodd" fill-opacity="1" /><path clip-path="url(#clip260)" d="M 0 0 M1650.87 1452.37 Q1647.26 1452.37 1645.43 1455.94 Q1643.62 1459.48 1643.62 1466.61 Q1643.62 1473.71 1645.43 1477.28 Q1647.26 1480.82 1650.87 1480.82 Q1654.5 1480.82 1656.31 1477.28 Q1658.14 1473.71 1658.14 1466.61 Q1658.14 1459.48 1656.31 1455.94 Q1654.5 1452.37 1650.87 1452.37 M1650.87 1448.67 Q1656.68 1448.67 1659.73 1453.27 Q1662.81 1457.86 1662.81 1466.61 Q1662.81 1475.33 1659.73 1479.94 Q1656.68 1484.52 1650.87 1484.52 Q1645.06 1484.52 1641.98 1479.94 Q1638.92 1475.33 1638.92 1466.61 Q1638.92 1457.86 1641.98 1453.27 Q1645.06 1448.67 1650.87 1448.67 Z" fill="#000000" fill-rule="evenodd" fill-opacity="1" /><path clip-path="url(#clip260)" d="M 0 0 M2136.5 1452.37 Q2132.89 1452.37 2131.06 1455.94 Q2129.26 1459.48 2129.26 1466.61 Q2129.26 1473.71 2131.06 1477.28 Q2132.89 1480.82 2136.5 1480.82 Q2140.14 1480.82 2141.94 1477.28 Q2143.77 1473.71 2143.77 1466.61 Q2143.77 1459.48 2141.94 1455.94 Q2140.14 1452.37 2136.5 1452.37 M2136.5 1448.67 Q2142.31 1448.67 2145.37 1453.27 Q2148.45 1457.86 2148.45 1466.61 Q2148.45 1475.33 2145.37 1479.94 Q2142.31 1484.52 2136.5 1484.52 Q2130.69 1484.52 2127.61 1479.94 Q2124.56 1475.33 2124.56 1466.61 Q2124.56 1457.86 2127.61 1453.27 Q2130.69 1448.67 2136.5 1448.67 Z" fill="#000000" fill-rule="evenodd" fill-opacity="1" /><path clip-path="url(#clip260)" d="M 0 0 M2156.66 1477.97 L2161.55 1477.97 L2161.55 1483.85 L2156.66 1483.85 L2156.66 1477.97 Z" fill="#000000" fill-rule="evenodd" fill-opacity="1" /><path clip-path="url(#clip260)" d="M 0 0 M2181.73 1452.37 Q2178.12 1452.37 2176.29 1455.94 Q2174.49 1459.48 2174.49 1466.61 Q2174.49 1473.71 2176.29 1477.28 Q2178.12 1480.82 2181.73 1480.82 Q2185.37 1480.82 2187.17 1477.28 Q2189 1473.71 2189 1466.61 Q2189 1459.48 2187.17 1455.94 Q2185.37 1452.37 2181.73 1452.37 M2181.73 1448.67 Q2187.54 1448.67 2190.6 1453.27 Q2193.68 1457.86 2193.68 1466.61 Q2193.68 1475.33 2190.6 1479.94 Q2187.54 1484.52 2181.73 1484.52 Q2175.92 1484.52 2172.84 1479.94 Q2169.79 1475.33 2169.79 1466.61 Q2169.79 1457.86 2172.84 1453.27 Q2175.92 1448.67 2181.73 1448.67 Z" fill="#000000" fill-rule="evenodd" fill-opacity="1" /><path clip-path="url(#clip260)" d="M 0 0 M2211.89 1452.37 Q2208.28 1452.37 2206.45 1455.94 Q2204.65 1459.48 2204.65 1466.61 Q2204.65 1473.71 2206.45 1477.28 Q2208.28 1480.82 2211.89 1480.82 Q2215.53 1480.82 2217.33 1477.28 Q2219.16 1473.71 2219.16 1466.61 Q2219.16 1459.48 2217.33 1455.94 Q2215.53 1452.37 2211.89 1452.37 M2211.89 1448.67 Q2217.7 1448.67 2220.76 1453.27 Q2223.84 1457.86 2223.84 1466.61 Q2223.84 1475.33 2220.76 1479.94 Q2217.7 1484.52 2211.89 1484.52 Q2206.08 1484.52 2203.01 1479.94 Q2199.95 1475.33 2199.95 1466.61 Q2199.95 1457.86 2203.01 1453.27 Q2206.08 1448.67 2211.89 1448.67 Z" fill="#000000" fill-rule="evenodd" fill-opacity="1" /><path clip-path="url(#clip260)" d="M 0 0 M2242.06 1452.37 Q2238.45 1452.37 2236.62 1455.94 Q2234.81 1459.48 2234.81 1466.61 Q2234.81 1473.71 2236.62 1477.28 Q2238.45 1480.82 2242.06 1480.82 Q2245.69 1480.82 2247.5 1477.28 Q2249.32 1473.71 2249.32 1466.61 Q2249.32 1459.48 2247.5 1455.94 Q2245.69 1452.37 2242.06 1452.37 M2242.06 1448.67 Q2247.87 1448.67 2250.92 1453.27 Q2254 1457.86 2254 1466.61 Q2254 1475.33 2250.92 1479.94 Q2247.87 1484.52 2242.06 1484.52 Q2236.25 1484.52 2233.17 1479.94 Q2230.11 1475.33 2230.11 1466.61 Q2230.11 1457.86 2233.17 1453.27 Q2236.25 1448.67 2242.06 1448.67 Z" fill="#000000" fill-rule="evenodd" fill-opacity="1" /><path clip-path="url(#clip260)" d="M 0 0 M2263.03 1479.92 L2270.67 1479.92 L2270.67 1453.55 L2262.36 1455.22 L2262.36 1450.96 L2270.62 1449.29 L2275.3 1449.29 L2275.3 1479.92 L2282.94 1479.92 L2282.94 1483.85 L2263.03 1483.85 L2263.03 1479.92 Z" fill="#000000" fill-rule="evenodd" fill-opacity="1" /><path clip-path="url(#clip260)" d="M 0 0 M2292.43 1449.29 L2310.78 1449.29 L2310.78 1453.23 L2296.71 1453.23 L2296.71 1461.7 Q2297.73 1461.35 2298.75 1461.19 Q2299.76 1461 2300.78 1461 Q2306.57 1461 2309.95 1464.18 Q2313.33 1467.35 2313.33 1472.76 Q2313.33 1478.34 2309.86 1481.44 Q2306.38 1484.52 2300.07 1484.52 Q2297.89 1484.52 2295.62 1484.15 Q2293.38 1483.78 2290.97 1483.04 L2290.97 1478.34 Q2293.05 1479.48 2295.27 1480.03 Q2297.5 1480.59 2299.97 1480.59 Q2303.98 1480.59 2306.32 1478.48 Q2308.65 1476.38 2308.65 1472.76 Q2308.65 1469.15 2306.32 1467.05 Q2303.98 1464.94 2299.97 1464.94 Q2298.1 1464.94 2296.22 1465.36 Q2294.37 1465.77 2292.43 1466.65 L2292.43 1449.29 Z" fill="#000000" fill-rule="evenodd" fill-opacity="1" /><path clip-path="url(#clip260)" d="M 0 0 M1107.43 1520.52 L1147.63 1520.52 L1147.63 1525.93 L1130.76 1525.93 L1130.76 1568.04 L1124.3 1568.04 L1124.3 1525.93 L1107.43 1525.93 L1107.43 1520.52 Z" fill="#000000" fill-rule="evenodd" fill-opacity="1" /><path clip-path="url(#clip260)" d="M 0 0 M1151.58 1532.4 L1157.43 1532.4 L1157.43 1568.04 L1151.58 1568.04 L1151.58 1532.4 M1151.58 1518.52 L1157.43 1518.52 L1157.43 1525.93 L1151.58 1525.93 L1151.58 1518.52 Z" fill="#000000" fill-rule="evenodd" fill-opacity="1" /><path clip-path="url(#clip260)" d="M 0 0 M1197.44 1539.24 Q1199.64 1535.29 1202.69 1533.41 Q1205.75 1531.54 1209.89 1531.54 Q1215.46 1531.54 1218.48 1535.45 Q1221.5 1539.33 1221.5 1546.53 L1221.5 1568.04 L1215.62 1568.04 L1215.62 1546.72 Q1215.62 1541.59 1213.8 1539.11 Q1211.99 1536.63 1208.26 1536.63 Q1203.71 1536.63 1201.07 1539.65 Q1198.43 1542.68 1198.43 1547.9 L1198.43 1568.04 L1192.54 1568.04 L1192.54 1546.72 Q1192.54 1541.56 1190.73 1539.11 Q1188.91 1536.63 1185.12 1536.63 Q1180.64 1536.63 1177.99 1539.68 Q1175.35 1542.71 1175.35 1547.9 L1175.35 1568.04 L1169.46 1568.04 L1169.46 1532.4 L1175.35 1532.4 L1175.35 1537.93 Q1177.36 1534.66 1180.16 1533.1 Q1182.96 1531.54 1186.81 1531.54 Q1190.69 1531.54 1193.4 1533.51 Q1196.14 1535.48 1197.44 1539.24 Z" fill="#000000" fill-rule="evenodd" fill-opacity="1" /><path clip-path="url(#clip260)" d="M 0 0 M1263.68 1548.76 L1263.68 1551.62 L1236.75 1551.62 Q1237.13 1557.67 1240.38 1560.85 Q1243.66 1564 1249.48 1564 Q1252.85 1564 1256.01 1563.17 Q1259.19 1562.35 1262.31 1560.69 L1262.31 1566.23 Q1259.16 1567.57 1255.85 1568.27 Q1252.54 1568.97 1249.13 1568.97 Q1240.6 1568.97 1235.6 1564 Q1230.64 1559.04 1230.64 1550.57 Q1230.64 1541.82 1235.35 1536.69 Q1240.09 1531.54 1248.11 1531.54 Q1255.31 1531.54 1259.48 1536.18 Q1263.68 1540.8 1263.68 1548.76 M1257.82 1547.04 Q1257.76 1542.23 1255.11 1539.37 Q1252.5 1536.5 1248.18 1536.5 Q1243.27 1536.5 1240.31 1539.27 Q1237.39 1542.04 1236.94 1547.07 L1257.82 1547.04 Z" fill="#000000" fill-rule="evenodd" fill-opacity="1" /><path clip-path="url(#clip260)" d="M 0 0 M1293.47 1518.52 L1306.96 1518.52 L1306.96 1523.07 L1299.32 1523.07 L1299.32 1572.09 L1306.96 1572.09 L1306.96 1576.64 L1293.47 1576.64 L1293.47 1518.52 Z" fill="#000000" fill-rule="evenodd" fill-opacity="1" /><path clip-path="url(#clip260)" d="M 0 0 M1348.18 1522.08 L1348.18 1528.35 Q1344.52 1526.6 1341.27 1525.74 Q1338.03 1524.88 1335 1524.88 Q1329.75 1524.88 1326.89 1526.92 Q1324.06 1528.96 1324.06 1532.71 Q1324.06 1535.87 1325.93 1537.49 Q1327.84 1539.08 1333.13 1540.07 L1337.01 1540.86 Q1344.2 1542.23 1347.61 1545.7 Q1351.05 1549.14 1351.05 1554.93 Q1351.05 1561.84 1346.4 1565.4 Q1341.78 1568.97 1332.84 1568.97 Q1329.47 1568.97 1325.65 1568.2 Q1321.86 1567.44 1317.79 1565.94 L1317.79 1559.32 Q1321.7 1561.52 1325.46 1562.63 Q1329.21 1563.75 1332.84 1563.75 Q1338.35 1563.75 1341.34 1561.58 Q1344.33 1559.42 1344.33 1555.41 Q1344.33 1551.91 1342.17 1549.93 Q1340.03 1547.96 1335.13 1546.97 L1331.22 1546.21 Q1324.02 1544.78 1320.81 1541.72 Q1317.59 1538.67 1317.59 1533.22 Q1317.59 1526.92 1322.02 1523.29 Q1326.47 1519.66 1334.27 1519.66 Q1337.61 1519.66 1341.08 1520.27 Q1344.55 1520.87 1348.18 1522.08 Z" fill="#000000" fill-rule="evenodd" fill-opacity="1" /><path clip-path="url(#clip260)" d="M 0 0 M1391.31 1548.76 L1391.31 1551.62 L1364.38 1551.62 Q1364.76 1557.67 1368.01 1560.85 Q1371.29 1564 1377.11 1564 Q1380.49 1564 1383.64 1563.17 Q1386.82 1562.35 1389.94 1560.69 L1389.94 1566.23 Q1386.79 1567.57 1383.48 1568.27 Q1380.17 1568.97 1376.76 1568.97 Q1368.23 1568.97 1363.24 1564 Q1358.27 1559.04 1358.27 1550.57 Q1358.27 1541.82 1362.98 1536.69 Q1367.72 1531.54 1375.74 1531.54 Q1382.94 1531.54 1387.11 1536.18 Q1391.31 1540.8 1391.31 1548.76 M1385.45 1547.04 Q1385.39 1542.23 1382.75 1539.37 Q1380.14 1536.5 1375.81 1536.5 Q1370.91 1536.5 1367.95 1539.27 Q1365.02 1542.04 1364.57 1547.07 L1385.45 1547.04 Z" fill="#000000" fill-rule="evenodd" fill-opacity="1" /><path clip-path="url(#clip260)" d="M 0 0 M1426.58 1533.76 L1426.58 1539.24 Q1424.09 1537.87 1421.58 1537.2 Q1419.1 1536.5 1416.55 1536.5 Q1410.85 1536.5 1407.7 1540.13 Q1404.55 1543.73 1404.55 1550.25 Q1404.55 1556.78 1407.7 1560.4 Q1410.85 1564 1416.55 1564 Q1419.1 1564 1421.58 1563.33 Q1424.09 1562.63 1426.58 1561.26 L1426.58 1566.68 Q1424.12 1567.82 1421.48 1568.39 Q1418.87 1568.97 1415.91 1568.97 Q1407.86 1568.97 1403.12 1563.91 Q1398.38 1558.85 1398.38 1550.25 Q1398.38 1541.53 1403.15 1536.53 Q1407.96 1531.54 1416.29 1531.54 Q1419 1531.54 1421.58 1532.11 Q1424.16 1532.65 1426.58 1533.76 Z" fill="#000000" fill-rule="evenodd" fill-opacity="1" /><path clip-path="url(#clip260)" d="M 0 0 M1450.45 1518.52 L1450.45 1576.64 L1436.95 1576.64 L1436.95 1572.09 L1444.56 1572.09 L1444.56 1523.07 L1436.95 1523.07 L1436.95 1518.52 L1450.45 1518.52 Z" fill="#000000" fill-rule="evenodd" fill-opacity="1" /><polyline clip-path="url(#clip260)" style="stroke:#000000; stroke-width:4; stroke-opacity:1; fill:none" points="
  205.121,1423.18 205.121,1301.67 
  "/>
<path clip-path="url(#clip260)" d="M 0 0 M76.6285 1392.07 L94.4843 1392.07 L94.4843 1383.99 Q94.4843 1379.5 92.1608 1377.05 Q89.8374 1374.6 85.5405 1374.6 Q81.2755 1374.6 78.952 1377.05 Q76.6285 1379.5 76.6285 1383.99 L76.6285 1392.07 M71.345 1398.5 L71.345 1383.99 Q71.345 1376 74.9734 1371.92 Q78.5701 1367.82 85.5405 1367.82 Q92.5746 1367.82 96.1712 1371.92 Q99.7679 1376 99.7679 1383.99 L99.7679 1392.07 L118.865 1392.07 L118.865 1398.5 L71.345 1398.5 Z" fill="#000000" fill-rule="evenodd" fill-opacity="1" /><path clip-path="url(#clip260)" d="M 0 0 M73.0955 1353.65 L83.217 1353.65 L83.217 1341.59 L87.7685 1341.59 L87.7685 1353.65 L107.12 1353.65 Q111.481 1353.65 112.722 1352.48 Q113.963 1351.27 113.963 1347.61 L113.963 1341.59 L118.865 1341.59 L118.865 1347.61 Q118.865 1354.39 116.351 1356.96 Q113.804 1359.54 107.12 1359.54 L87.7685 1359.54 L87.7685 1363.84 L83.217 1363.84 L83.217 1359.54 L73.0955 1359.54 L73.0955 1353.65 Z" fill="#000000" fill-rule="evenodd" fill-opacity="1" /><path clip-path="url(#clip260)" d="M 0 0 M110.781 1333.06 L110.781 1326.35 L118.865 1326.35 L118.865 1333.06 L110.781 1333.06 Z" fill="#000000" fill-rule="evenodd" fill-opacity="1" /><polyline clip-path="url(#clip263)" style="stroke:#009af9; stroke-width:4; stroke-opacity:1; fill:none" points="
  328.413,1544.69 328.413,1180.15 
  "/>
<polyline clip-path="url(#clip263)" style="stroke:#009af9; stroke-width:4; stroke-opacity:1; fill:none" points="
  402.629,1544.69 402.629,1180.15 
  "/>
<polyline clip-path="url(#clip263)" style="stroke:#009af9; stroke-width:4; stroke-opacity:1; fill:none" points="
  454.71,1544.69 454.71,1180.15 
  "/>
<polyline clip-path="url(#clip263)" style="stroke:#009af9; stroke-width:4; stroke-opacity:1; fill:none" points="
  528.939,1544.69 528.939,1180.15 
  "/>
<polyline clip-path="url(#clip263)" style="stroke:#009af9; stroke-width:4; stroke-opacity:1; fill:none" points="
  592.738,1544.69 592.738,1180.15 
  "/>
<polyline clip-path="url(#clip263)" style="stroke:#009af9; stroke-width:4; stroke-opacity:1; fill:none" points="
  643.517,1544.69 643.517,1180.15 
  "/>
<polyline clip-path="url(#clip263)" style="stroke:#009af9; stroke-width:4; stroke-opacity:1; fill:none" points="
  669.557,1544.69 669.557,1180.15 
  "/>
<polyline clip-path="url(#clip263)" style="stroke:#009af9; stroke-width:4; stroke-opacity:1; fill:none" points="
  702.108,1544.69 702.108,1180.15 
  "/>
<polyline clip-path="url(#clip263)" style="stroke:#009af9; stroke-width:4; stroke-opacity:1; fill:none" points="
  737.276,1544.69 737.276,1180.15 
  "/>
<polyline clip-path="url(#clip263)" style="stroke:#009af9; stroke-width:4; stroke-opacity:1; fill:none" points="
  768.524,1544.69 768.524,1180.15 
  "/>
<polyline clip-path="url(#clip263)" style="stroke:#009af9; stroke-width:4; stroke-opacity:1; fill:none" points="
  814.095,1544.69 814.095,1180.15 
  "/>
<polyline clip-path="url(#clip263)" style="stroke:#009af9; stroke-width:4; stroke-opacity:1; fill:none" points="
  850.552,1544.69 850.552,1180.15 
  "/>
<polyline clip-path="url(#clip263)" style="stroke:#009af9; stroke-width:4; stroke-opacity:1; fill:none" points="
  911.747,1544.69 911.747,1180.15 
  "/>
<polyline clip-path="url(#clip263)" style="stroke:#009af9; stroke-width:4; stroke-opacity:1; fill:none" points="
  956.029,1544.69 956.029,1180.15 
  "/>
<polyline clip-path="url(#clip263)" style="stroke:#009af9; stroke-width:4; stroke-opacity:1; fill:none" points="
  1018.53,1544.69 1018.53,1180.15 
  "/>
<polyline clip-path="url(#clip263)" style="stroke:#009af9; stroke-width:4; stroke-opacity:1; fill:none" points="
  1070.61,1544.69 1070.61,1180.15 
  "/>
<polyline clip-path="url(#clip263)" style="stroke:#009af9; stroke-width:4; stroke-opacity:1; fill:none" points="
  1163.05,1544.69 1163.05,1180.15 
  "/>
<polyline clip-path="url(#clip263)" style="stroke:#009af9; stroke-width:4; stroke-opacity:1; fill:none" points="
  1239.88,1544.69 1239.88,1180.15 
  "/>
<polyline clip-path="url(#clip263)" style="stroke:#009af9; stroke-width:4; stroke-opacity:1; fill:none" points="
  1308.89,1544.69 1308.89,1180.15 
  "/>
<polyline clip-path="url(#clip263)" style="stroke:#009af9; stroke-width:4; stroke-opacity:1; fill:none" points="
  1341.44,1544.69 1341.44,1180.15 
  "/>
<polyline clip-path="url(#clip263)" style="stroke:#009af9; stroke-width:4; stroke-opacity:1; fill:none" points="
  1372.69,1544.69 1372.69,1180.15 
  "/>
<polyline clip-path="url(#clip263)" style="stroke:#009af9; stroke-width:4; stroke-opacity:1; fill:none" points="
  1405.25,1544.69 1405.25,1180.15 
  "/>
<polyline clip-path="url(#clip263)" style="stroke:#009af9; stroke-width:4; stroke-opacity:1; fill:none" points="
  1436.5,1544.69 1436.5,1180.15 
  "/>
<polyline clip-path="url(#clip263)" style="stroke:#009af9; stroke-width:4; stroke-opacity:1; fill:none" points="
  1483.38,1544.69 1483.38,1180.15 
  "/>
<polyline clip-path="url(#clip263)" style="stroke:#009af9; stroke-width:4; stroke-opacity:1; fill:none" points="
  1531.55,1544.69 1531.55,1180.15 
  "/>
<polyline clip-path="url(#clip263)" style="stroke:#009af9; stroke-width:4; stroke-opacity:1; fill:none" points="
  1584.93,1544.69 1584.93,1180.15 
  "/>
<polyline clip-path="url(#clip263)" style="stroke:#009af9; stroke-width:4; stroke-opacity:1; fill:none" points="
  1695.62,1544.69 1695.62,1180.15 
  "/>
<polyline clip-path="url(#clip263)" style="stroke:#009af9; stroke-width:4; stroke-opacity:1; fill:none" points="
  1763.32,1544.69 1763.32,1180.15 
  "/>
<polyline clip-path="url(#clip263)" style="stroke:#009af9; stroke-width:4; stroke-opacity:1; fill:none" points="
  1841.45,1544.69 1841.45,1180.15 
  "/>
<polyline clip-path="url(#clip263)" style="stroke:#009af9; stroke-width:4; stroke-opacity:1; fill:none" points="
  1913.07,1544.69 1913.07,1180.15 
  "/>
<polyline clip-path="url(#clip263)" style="stroke:#009af9; stroke-width:4; stroke-opacity:1; fill:none" points="
  1999,1544.69 1999,1180.15 
  "/>
<polyline clip-path="url(#clip263)" style="stroke:#009af9; stroke-width:4; stroke-opacity:1; fill:none" points="
  2069.31,1544.69 2069.31,1180.15 
  "/>
<polyline clip-path="url(#clip263)" style="stroke:#009af9; stroke-width:4; stroke-opacity:1; fill:none" points="
  2133.13,1544.69 2133.13,1180.15 
  "/>
<polyline clip-path="url(#clip263)" style="stroke:#009af9; stroke-width:4; stroke-opacity:1; fill:none" points="
  2164.38,1544.69 2164.38,1180.15 
  "/>
<polyline clip-path="url(#clip263)" style="stroke:#009af9; stroke-width:4; stroke-opacity:1; fill:none" points="
  2198.23,1544.69 2198.23,1180.15 
  "/>
<polyline clip-path="url(#clip263)" style="stroke:#009af9; stroke-width:4; stroke-opacity:1; fill:none" points="
  2229.48,1544.69 2229.48,1180.15 
  "/>
<polyline clip-path="url(#clip263)" style="stroke:#009af9; stroke-width:4; stroke-opacity:1; fill:none" points="
  2260.73,1544.69 2260.73,1180.15 
  "/>
<polyline clip-path="url(#clip263)" style="stroke:#009af9; stroke-width:4; stroke-opacity:1; fill:none" points="
  2291.97,1544.69 2291.97,1180.15 
  "/>
</svg>
