<?xml version="1.0" encoding="utf-8"?>
<svg xmlns="http://www.w3.org/2000/svg" xmlns:xlink="http://www.w3.org/1999/xlink" width="600" height="400" viewBox="0 0 2400 1600">
<defs>
  <clipPath id="clip300">
    <rect x="0" y="0" width="2400" height="1600"/>
  </clipPath>
</defs>
<path clip-path="url(#clip300)" d="
M0 1600 L2400 1600 L2400 0 L0 0  Z
  " fill="#ffffff" fill-rule="evenodd" fill-opacity="1"/>
<defs>
  <clipPath id="clip301">
    <rect x="480" y="0" width="1681" height="1600"/>
  </clipPath>
</defs>
<path clip-path="url(#clip300)" d="
M205.121 1140.87 L2352.76 1140.87 L2352.76 47.2441 L205.121 47.2441  Z
  " fill="#ffffff" fill-rule="evenodd" fill-opacity="1"/>
<defs>
  <clipPath id="clip302">
    <rect x="205" y="47" width="2149" height="1095"/>
  </clipPath>
</defs>
<polyline clip-path="url(#clip302)" style="stroke:#000000; stroke-width:2; stroke-opacity:0.1; fill:none" points="
  265.903,1140.87 265.903,47.2441 
  "/>
<polyline clip-path="url(#clip302)" style="stroke:#000000; stroke-width:2; stroke-opacity:0.1; fill:none" points="
  857.28,1140.87 857.28,47.2441 
  "/>
<polyline clip-path="url(#clip302)" style="stroke:#000000; stroke-width:2; stroke-opacity:0.1; fill:none" points="
  1448.66,1140.87 1448.66,47.2441 
  "/>
<polyline clip-path="url(#clip302)" style="stroke:#000000; stroke-width:2; stroke-opacity:0.1; fill:none" points="
  2040.04,1140.87 2040.04,47.2441 
  "/>
<polyline clip-path="url(#clip300)" style="stroke:#000000; stroke-width:4; stroke-opacity:1; fill:none" points="
  205.121,1140.87 2352.76,1140.87 
  "/>
<polyline clip-path="url(#clip300)" style="stroke:#000000; stroke-width:4; stroke-opacity:1; fill:none" points="
  265.903,1140.87 265.903,1127.75 
  "/>
<polyline clip-path="url(#clip300)" style="stroke:#000000; stroke-width:4; stroke-opacity:1; fill:none" points="
  857.28,1140.87 857.28,1127.75 
  "/>
<polyline clip-path="url(#clip300)" style="stroke:#000000; stroke-width:4; stroke-opacity:1; fill:none" points="
  1448.66,1140.87 1448.66,1127.75 
  "/>
<polyline clip-path="url(#clip300)" style="stroke:#000000; stroke-width:4; stroke-opacity:1; fill:none" points="
  2040.04,1140.87 2040.04,1127.75 
  "/>
<path clip-path="url(#clip300)" d="M 0 0 M182.964 1170.06 Q179.353 1170.06 177.524 1173.63 Q175.718 1177.17 175.718 1184.3 Q175.718 1191.4 177.524 1194.97 Q179.353 1198.51 182.964 1198.51 Q186.598 1198.51 188.404 1194.97 Q190.232 1191.4 190.232 1184.3 Q190.232 1177.17 188.404 1173.63 Q186.598 1170.06 182.964 1170.06 M182.964 1166.36 Q188.774 1166.36 191.829 1170.96 Q194.908 1175.55 194.908 1184.3 Q194.908 1193.02 191.829 1197.63 Q188.774 1202.21 182.964 1202.21 Q177.154 1202.21 174.075 1197.63 Q171.019 1193.02 171.019 1184.3 Q171.019 1175.55 174.075 1170.96 Q177.154 1166.36 182.964 1166.36 Z" fill="#000000" fill-rule="evenodd" fill-opacity="1" /><path clip-path="url(#clip300)" d="M 0 0 M203.126 1195.66 L208.01 1195.66 L208.01 1201.54 L203.126 1201.54 L203.126 1195.66 Z" fill="#000000" fill-rule="evenodd" fill-opacity="1" /><path clip-path="url(#clip300)" d="M 0 0 M228.195 1170.06 Q224.584 1170.06 222.755 1173.63 Q220.95 1177.17 220.95 1184.3 Q220.95 1191.4 222.755 1194.97 Q224.584 1198.51 228.195 1198.51 Q231.829 1198.51 233.635 1194.97 Q235.463 1191.4 235.463 1184.3 Q235.463 1177.17 233.635 1173.63 Q231.829 1170.06 228.195 1170.06 M228.195 1166.36 Q234.005 1166.36 237.061 1170.96 Q240.139 1175.55 240.139 1184.3 Q240.139 1193.02 237.061 1197.63 Q234.005 1202.21 228.195 1202.21 Q222.385 1202.21 219.306 1197.63 Q216.251 1193.02 216.251 1184.3 Q216.251 1175.55 219.306 1170.96 Q222.385 1166.36 228.195 1166.36 Z" fill="#000000" fill-rule="evenodd" fill-opacity="1" /><path clip-path="url(#clip300)" d="M 0 0 M258.357 1170.06 Q254.746 1170.06 252.917 1173.63 Q251.112 1177.17 251.112 1184.3 Q251.112 1191.4 252.917 1194.97 Q254.746 1198.51 258.357 1198.51 Q261.991 1198.51 263.797 1194.97 Q265.625 1191.4 265.625 1184.3 Q265.625 1177.17 263.797 1173.63 Q261.991 1170.06 258.357 1170.06 M258.357 1166.36 Q264.167 1166.36 267.223 1170.96 Q270.301 1175.55 270.301 1184.3 Q270.301 1193.02 267.223 1197.63 Q264.167 1202.21 258.357 1202.21 Q252.547 1202.21 249.468 1197.63 Q246.412 1193.02 246.412 1184.3 Q246.412 1175.55 249.468 1170.96 Q252.547 1166.36 258.357 1166.36 Z" fill="#000000" fill-rule="evenodd" fill-opacity="1" /><path clip-path="url(#clip300)" d="M 0 0 M288.519 1170.06 Q284.908 1170.06 283.079 1173.63 Q281.273 1177.17 281.273 1184.3 Q281.273 1191.4 283.079 1194.97 Q284.908 1198.51 288.519 1198.51 Q292.153 1198.51 293.959 1194.97 Q295.787 1191.4 295.787 1184.3 Q295.787 1177.17 293.959 1173.63 Q292.153 1170.06 288.519 1170.06 M288.519 1166.36 Q294.329 1166.36 297.384 1170.96 Q300.463 1175.55 300.463 1184.3 Q300.463 1193.02 297.384 1197.63 Q294.329 1202.21 288.519 1202.21 Q282.709 1202.21 279.63 1197.63 Q276.574 1193.02 276.574 1184.3 Q276.574 1175.55 279.63 1170.96 Q282.709 1166.36 288.519 1166.36 Z" fill="#000000" fill-rule="evenodd" fill-opacity="1" /><path clip-path="url(#clip300)" d="M 0 0 M318.681 1170.06 Q315.069 1170.06 313.241 1173.63 Q311.435 1177.17 311.435 1184.3 Q311.435 1191.4 313.241 1194.97 Q315.069 1198.51 318.681 1198.51 Q322.315 1198.51 324.12 1194.97 Q325.949 1191.4 325.949 1184.3 Q325.949 1177.17 324.12 1173.63 Q322.315 1170.06 318.681 1170.06 M318.681 1166.36 Q324.491 1166.36 327.546 1170.96 Q330.625 1175.55 330.625 1184.3 Q330.625 1193.02 327.546 1197.63 Q324.491 1202.21 318.681 1202.21 Q312.87 1202.21 309.792 1197.63 Q306.736 1193.02 306.736 1184.3 Q306.736 1175.55 309.792 1170.96 Q312.87 1166.36 318.681 1166.36 Z" fill="#000000" fill-rule="evenodd" fill-opacity="1" /><path clip-path="url(#clip300)" d="M 0 0 M348.842 1170.06 Q345.231 1170.06 343.403 1173.63 Q341.597 1177.17 341.597 1184.3 Q341.597 1191.4 343.403 1194.97 Q345.231 1198.51 348.842 1198.51 Q352.477 1198.51 354.282 1194.97 Q356.111 1191.4 356.111 1184.3 Q356.111 1177.17 354.282 1173.63 Q352.477 1170.06 348.842 1170.06 M348.842 1166.36 Q354.653 1166.36 357.708 1170.96 Q360.787 1175.55 360.787 1184.3 Q360.787 1193.02 357.708 1197.63 Q354.653 1202.21 348.842 1202.21 Q343.032 1202.21 339.954 1197.63 Q336.898 1193.02 336.898 1184.3 Q336.898 1175.55 339.954 1170.96 Q343.032 1166.36 348.842 1166.36 Z" fill="#000000" fill-rule="evenodd" fill-opacity="1" /><path clip-path="url(#clip300)" d="M 0 0 M774.839 1170.06 Q771.228 1170.06 769.399 1173.63 Q767.593 1177.17 767.593 1184.3 Q767.593 1191.4 769.399 1194.97 Q771.228 1198.51 774.839 1198.51 Q778.473 1198.51 780.279 1194.97 Q782.107 1191.4 782.107 1184.3 Q782.107 1177.17 780.279 1173.63 Q778.473 1170.06 774.839 1170.06 M774.839 1166.36 Q780.649 1166.36 783.704 1170.96 Q786.783 1175.55 786.783 1184.3 Q786.783 1193.02 783.704 1197.63 Q780.649 1202.21 774.839 1202.21 Q769.029 1202.21 765.95 1197.63 Q762.894 1193.02 762.894 1184.3 Q762.894 1175.55 765.95 1170.96 Q769.029 1166.36 774.839 1166.36 Z" fill="#000000" fill-rule="evenodd" fill-opacity="1" /><path clip-path="url(#clip300)" d="M 0 0 M795.001 1195.66 L799.885 1195.66 L799.885 1201.54 L795.001 1201.54 L795.001 1195.66 Z" fill="#000000" fill-rule="evenodd" fill-opacity="1" /><path clip-path="url(#clip300)" d="M 0 0 M820.07 1170.06 Q816.459 1170.06 814.63 1173.63 Q812.825 1177.17 812.825 1184.3 Q812.825 1191.4 814.63 1194.97 Q816.459 1198.51 820.07 1198.51 Q823.704 1198.51 825.51 1194.97 Q827.338 1191.4 827.338 1184.3 Q827.338 1177.17 825.51 1173.63 Q823.704 1170.06 820.07 1170.06 M820.07 1166.36 Q825.88 1166.36 828.936 1170.96 Q832.014 1175.55 832.014 1184.3 Q832.014 1193.02 828.936 1197.63 Q825.88 1202.21 820.07 1202.21 Q814.26 1202.21 811.181 1197.63 Q808.126 1193.02 808.126 1184.3 Q808.126 1175.55 811.181 1170.96 Q814.26 1166.36 820.07 1166.36 Z" fill="#000000" fill-rule="evenodd" fill-opacity="1" /><path clip-path="url(#clip300)" d="M 0 0 M850.232 1170.06 Q846.621 1170.06 844.792 1173.63 Q842.987 1177.17 842.987 1184.3 Q842.987 1191.4 844.792 1194.97 Q846.621 1198.51 850.232 1198.51 Q853.866 1198.51 855.672 1194.97 Q857.5 1191.4 857.5 1184.3 Q857.5 1177.17 855.672 1173.63 Q853.866 1170.06 850.232 1170.06 M850.232 1166.36 Q856.042 1166.36 859.098 1170.96 Q862.176 1175.55 862.176 1184.3 Q862.176 1193.02 859.098 1197.63 Q856.042 1202.21 850.232 1202.21 Q844.422 1202.21 841.343 1197.63 Q838.288 1193.02 838.288 1184.3 Q838.288 1175.55 841.343 1170.96 Q844.422 1166.36 850.232 1166.36 Z" fill="#000000" fill-rule="evenodd" fill-opacity="1" /><path clip-path="url(#clip300)" d="M 0 0 M880.394 1170.06 Q876.783 1170.06 874.954 1173.63 Q873.148 1177.17 873.148 1184.3 Q873.148 1191.4 874.954 1194.97 Q876.783 1198.51 880.394 1198.51 Q884.028 1198.51 885.834 1194.97 Q887.662 1191.4 887.662 1184.3 Q887.662 1177.17 885.834 1173.63 Q884.028 1170.06 880.394 1170.06 M880.394 1166.36 Q886.204 1166.36 889.259 1170.96 Q892.338 1175.55 892.338 1184.3 Q892.338 1193.02 889.259 1197.63 Q886.204 1202.21 880.394 1202.21 Q874.584 1202.21 871.505 1197.63 Q868.449 1193.02 868.449 1184.3 Q868.449 1175.55 871.505 1170.96 Q874.584 1166.36 880.394 1166.36 Z" fill="#000000" fill-rule="evenodd" fill-opacity="1" /><path clip-path="url(#clip300)" d="M 0 0 M910.556 1170.06 Q906.945 1170.06 905.116 1173.63 Q903.31 1177.17 903.31 1184.3 Q903.31 1191.4 905.116 1194.97 Q906.945 1198.51 910.556 1198.51 Q914.19 1198.51 915.995 1194.97 Q917.824 1191.4 917.824 1184.3 Q917.824 1177.17 915.995 1173.63 Q914.19 1170.06 910.556 1170.06 M910.556 1166.36 Q916.366 1166.36 919.421 1170.96 Q922.5 1175.55 922.5 1184.3 Q922.5 1193.02 919.421 1197.63 Q916.366 1202.21 910.556 1202.21 Q904.745 1202.21 901.667 1197.63 Q898.611 1193.02 898.611 1184.3 Q898.611 1175.55 901.667 1170.96 Q904.745 1166.36 910.556 1166.36 Z" fill="#000000" fill-rule="evenodd" fill-opacity="1" /><path clip-path="url(#clip300)" d="M 0 0 M930.764 1166.98 L949.12 1166.98 L949.12 1170.92 L935.046 1170.92 L935.046 1179.39 Q936.065 1179.04 937.083 1178.88 Q938.102 1178.69 939.12 1178.69 Q944.907 1178.69 948.287 1181.87 Q951.667 1185.04 951.667 1190.45 Q951.667 1196.03 948.194 1199.13 Q944.722 1202.21 938.403 1202.21 Q936.227 1202.21 933.958 1201.84 Q931.713 1201.47 929.306 1200.73 L929.306 1196.03 Q931.389 1197.17 933.611 1197.72 Q935.833 1198.28 938.31 1198.28 Q942.315 1198.28 944.653 1196.17 Q946.991 1194.06 946.991 1190.45 Q946.991 1186.84 944.653 1184.74 Q942.315 1182.63 938.31 1182.63 Q936.435 1182.63 934.56 1183.05 Q932.708 1183.46 930.764 1184.34 L930.764 1166.98 Z" fill="#000000" fill-rule="evenodd" fill-opacity="1" /><path clip-path="url(#clip300)" d="M 0 0 M1365.72 1170.06 Q1362.11 1170.06 1360.28 1173.63 Q1358.47 1177.17 1358.47 1184.3 Q1358.47 1191.4 1360.28 1194.97 Q1362.11 1198.51 1365.72 1198.51 Q1369.35 1198.51 1371.16 1194.97 Q1372.99 1191.4 1372.99 1184.3 Q1372.99 1177.17 1371.16 1173.63 Q1369.35 1170.06 1365.72 1170.06 M1365.72 1166.36 Q1371.53 1166.36 1374.58 1170.96 Q1377.66 1175.55 1377.66 1184.3 Q1377.66 1193.02 1374.58 1197.63 Q1371.53 1202.21 1365.72 1202.21 Q1359.91 1202.21 1356.83 1197.63 Q1353.77 1193.02 1353.77 1184.3 Q1353.77 1175.55 1356.83 1170.96 Q1359.91 1166.36 1365.72 1166.36 Z" fill="#000000" fill-rule="evenodd" fill-opacity="1" /><path clip-path="url(#clip300)" d="M 0 0 M1385.88 1195.66 L1390.76 1195.66 L1390.76 1201.54 L1385.88 1201.54 L1385.88 1195.66 Z" fill="#000000" fill-rule="evenodd" fill-opacity="1" /><path clip-path="url(#clip300)" d="M 0 0 M1410.95 1170.06 Q1407.34 1170.06 1405.51 1173.63 Q1403.7 1177.17 1403.7 1184.3 Q1403.7 1191.4 1405.51 1194.97 Q1407.34 1198.51 1410.95 1198.51 Q1414.58 1198.51 1416.39 1194.97 Q1418.22 1191.4 1418.22 1184.3 Q1418.22 1177.17 1416.39 1173.63 Q1414.58 1170.06 1410.95 1170.06 M1410.95 1166.36 Q1416.76 1166.36 1419.82 1170.96 Q1422.89 1175.55 1422.89 1184.3 Q1422.89 1193.02 1419.82 1197.63 Q1416.76 1202.21 1410.95 1202.21 Q1405.14 1202.21 1402.06 1197.63 Q1399.01 1193.02 1399.01 1184.3 Q1399.01 1175.55 1402.06 1170.96 Q1405.14 1166.36 1410.95 1166.36 Z" fill="#000000" fill-rule="evenodd" fill-opacity="1" /><path clip-path="url(#clip300)" d="M 0 0 M1441.11 1170.06 Q1437.5 1170.06 1435.67 1173.63 Q1433.87 1177.17 1433.87 1184.3 Q1433.87 1191.4 1435.67 1194.97 Q1437.5 1198.51 1441.11 1198.51 Q1444.75 1198.51 1446.55 1194.97 Q1448.38 1191.4 1448.38 1184.3 Q1448.38 1177.17 1446.55 1173.63 Q1444.75 1170.06 1441.11 1170.06 M1441.11 1166.36 Q1446.92 1166.36 1449.98 1170.96 Q1453.06 1175.55 1453.06 1184.3 Q1453.06 1193.02 1449.98 1197.63 Q1446.92 1202.21 1441.11 1202.21 Q1435.3 1202.21 1432.22 1197.63 Q1429.17 1193.02 1429.17 1184.3 Q1429.17 1175.55 1432.22 1170.96 Q1435.3 1166.36 1441.11 1166.36 Z" fill="#000000" fill-rule="evenodd" fill-opacity="1" /><path clip-path="url(#clip300)" d="M 0 0 M1471.27 1170.06 Q1467.66 1170.06 1465.83 1173.63 Q1464.03 1177.17 1464.03 1184.3 Q1464.03 1191.4 1465.83 1194.97 Q1467.66 1198.51 1471.27 1198.51 Q1474.91 1198.51 1476.71 1194.97 Q1478.54 1191.4 1478.54 1184.3 Q1478.54 1177.17 1476.71 1173.63 Q1474.91 1170.06 1471.27 1170.06 M1471.27 1166.36 Q1477.08 1166.36 1480.14 1170.96 Q1483.22 1175.55 1483.22 1184.3 Q1483.22 1193.02 1480.14 1197.63 Q1477.08 1202.21 1471.27 1202.21 Q1465.46 1202.21 1462.38 1197.63 Q1459.33 1193.02 1459.33 1184.3 Q1459.33 1175.55 1462.38 1170.96 Q1465.46 1166.36 1471.27 1166.36 Z" fill="#000000" fill-rule="evenodd" fill-opacity="1" /><path clip-path="url(#clip300)" d="M 0 0 M1492.25 1197.61 L1499.88 1197.61 L1499.88 1171.24 L1491.57 1172.91 L1491.57 1168.65 L1499.84 1166.98 L1504.51 1166.98 L1504.51 1197.61 L1512.15 1197.61 L1512.15 1201.54 L1492.25 1201.54 L1492.25 1197.61 Z" fill="#000000" fill-rule="evenodd" fill-opacity="1" /><path clip-path="url(#clip300)" d="M 0 0 M1531.6 1170.06 Q1527.99 1170.06 1526.16 1173.63 Q1524.35 1177.17 1524.35 1184.3 Q1524.35 1191.4 1526.16 1194.97 Q1527.99 1198.51 1531.6 1198.51 Q1535.23 1198.51 1537.04 1194.97 Q1538.87 1191.4 1538.87 1184.3 Q1538.87 1177.17 1537.04 1173.63 Q1535.23 1170.06 1531.6 1170.06 M1531.6 1166.36 Q1537.41 1166.36 1540.46 1170.96 Q1543.54 1175.55 1543.54 1184.3 Q1543.54 1193.02 1540.46 1197.63 Q1537.41 1202.21 1531.6 1202.21 Q1525.79 1202.21 1522.71 1197.63 Q1519.65 1193.02 1519.65 1184.3 Q1519.65 1175.55 1522.71 1170.96 Q1525.79 1166.36 1531.6 1166.36 Z" fill="#000000" fill-rule="evenodd" fill-opacity="1" /><path clip-path="url(#clip300)" d="M 0 0 M1957.59 1170.06 Q1953.98 1170.06 1952.15 1173.63 Q1950.35 1177.17 1950.35 1184.3 Q1950.35 1191.4 1952.15 1194.97 Q1953.98 1198.51 1957.59 1198.51 Q1961.23 1198.51 1963.03 1194.97 Q1964.86 1191.4 1964.86 1184.3 Q1964.86 1177.17 1963.03 1173.63 Q1961.23 1170.06 1957.59 1170.06 M1957.59 1166.36 Q1963.4 1166.36 1966.46 1170.96 Q1969.54 1175.55 1969.54 1184.3 Q1969.54 1193.02 1966.46 1197.63 Q1963.4 1202.21 1957.59 1202.21 Q1951.78 1202.21 1948.7 1197.63 Q1945.65 1193.02 1945.65 1184.3 Q1945.65 1175.55 1948.7 1170.96 Q1951.78 1166.36 1957.59 1166.36 Z" fill="#000000" fill-rule="evenodd" fill-opacity="1" /><path clip-path="url(#clip300)" d="M 0 0 M1977.76 1195.66 L1982.64 1195.66 L1982.64 1201.54 L1977.76 1201.54 L1977.76 1195.66 Z" fill="#000000" fill-rule="evenodd" fill-opacity="1" /><path clip-path="url(#clip300)" d="M 0 0 M2002.82 1170.06 Q1999.21 1170.06 1997.38 1173.63 Q1995.58 1177.17 1995.58 1184.3 Q1995.58 1191.4 1997.38 1194.97 Q1999.21 1198.51 2002.82 1198.51 Q2006.46 1198.51 2008.26 1194.97 Q2010.09 1191.4 2010.09 1184.3 Q2010.09 1177.17 2008.26 1173.63 Q2006.46 1170.06 2002.82 1170.06 M2002.82 1166.36 Q2008.63 1166.36 2011.69 1170.96 Q2014.77 1175.55 2014.77 1184.3 Q2014.77 1193.02 2011.69 1197.63 Q2008.63 1202.21 2002.82 1202.21 Q1997.01 1202.21 1993.94 1197.63 Q1990.88 1193.02 1990.88 1184.3 Q1990.88 1175.55 1993.94 1170.96 Q1997.01 1166.36 2002.82 1166.36 Z" fill="#000000" fill-rule="evenodd" fill-opacity="1" /><path clip-path="url(#clip300)" d="M 0 0 M2032.99 1170.06 Q2029.38 1170.06 2027.55 1173.63 Q2025.74 1177.17 2025.74 1184.3 Q2025.74 1191.4 2027.55 1194.97 Q2029.38 1198.51 2032.99 1198.51 Q2036.62 1198.51 2038.43 1194.97 Q2040.26 1191.4 2040.26 1184.3 Q2040.26 1177.17 2038.43 1173.63 Q2036.62 1170.06 2032.99 1170.06 M2032.99 1166.36 Q2038.8 1166.36 2041.85 1170.96 Q2044.93 1175.55 2044.93 1184.3 Q2044.93 1193.02 2041.85 1197.63 Q2038.8 1202.21 2032.99 1202.21 Q2027.18 1202.21 2024.1 1197.63 Q2021.04 1193.02 2021.04 1184.3 Q2021.04 1175.55 2024.1 1170.96 Q2027.18 1166.36 2032.99 1166.36 Z" fill="#000000" fill-rule="evenodd" fill-opacity="1" /><path clip-path="url(#clip300)" d="M 0 0 M2063.15 1170.06 Q2059.54 1170.06 2057.71 1173.63 Q2055.9 1177.17 2055.9 1184.3 Q2055.9 1191.4 2057.71 1194.97 Q2059.54 1198.51 2063.15 1198.51 Q2066.78 1198.51 2068.59 1194.97 Q2070.42 1191.4 2070.42 1184.3 Q2070.42 1177.17 2068.59 1173.63 Q2066.78 1170.06 2063.15 1170.06 M2063.15 1166.36 Q2068.96 1166.36 2072.01 1170.96 Q2075.09 1175.55 2075.09 1184.3 Q2075.09 1193.02 2072.01 1197.63 Q2068.96 1202.21 2063.15 1202.21 Q2057.34 1202.21 2054.26 1197.63 Q2051.2 1193.02 2051.2 1184.3 Q2051.2 1175.55 2054.26 1170.96 Q2057.34 1166.36 2063.15 1166.36 Z" fill="#000000" fill-rule="evenodd" fill-opacity="1" /><path clip-path="url(#clip300)" d="M 0 0 M2084.12 1197.61 L2091.76 1197.61 L2091.76 1171.24 L2083.45 1172.91 L2083.45 1168.65 L2091.71 1166.98 L2096.39 1166.98 L2096.39 1197.61 L2104.03 1197.61 L2104.03 1201.54 L2084.12 1201.54 L2084.12 1197.61 Z" fill="#000000" fill-rule="evenodd" fill-opacity="1" /><path clip-path="url(#clip300)" d="M 0 0 M2113.52 1166.98 L2131.87 1166.98 L2131.87 1170.92 L2117.8 1170.92 L2117.8 1179.39 Q2118.82 1179.04 2119.84 1178.88 Q2120.86 1178.69 2121.88 1178.69 Q2127.66 1178.69 2131.04 1181.87 Q2134.42 1185.04 2134.42 1190.45 Q2134.42 1196.03 2130.95 1199.13 Q2127.48 1202.21 2121.16 1202.21 Q2118.98 1202.21 2116.71 1201.84 Q2114.47 1201.47 2112.06 1200.73 L2112.06 1196.03 Q2114.14 1197.17 2116.37 1197.72 Q2118.59 1198.28 2121.06 1198.28 Q2125.07 1198.28 2127.41 1196.17 Q2129.75 1194.06 2129.75 1190.45 Q2129.75 1186.84 2127.41 1184.74 Q2125.07 1182.63 2121.06 1182.63 Q2119.19 1182.63 2117.31 1183.05 Q2115.46 1183.46 2113.52 1184.34 L2113.52 1166.98 Z" fill="#000000" fill-rule="evenodd" fill-opacity="1" /><polyline clip-path="url(#clip302)" style="stroke:#000000; stroke-width:2; stroke-opacity:0.1; fill:none" points="
  205.121,1109.92 2352.76,1109.92 
  "/>
<polyline clip-path="url(#clip302)" style="stroke:#000000; stroke-width:2; stroke-opacity:0.1; fill:none" points="
  205.121,937.964 2352.76,937.964 
  "/>
<polyline clip-path="url(#clip302)" style="stroke:#000000; stroke-width:2; stroke-opacity:0.1; fill:none" points="
  205.121,766.011 2352.76,766.011 
  "/>
<polyline clip-path="url(#clip302)" style="stroke:#000000; stroke-width:2; stroke-opacity:0.1; fill:none" points="
  205.121,594.057 2352.76,594.057 
  "/>
<polyline clip-path="url(#clip302)" style="stroke:#000000; stroke-width:2; stroke-opacity:0.1; fill:none" points="
  205.121,422.103 2352.76,422.103 
  "/>
<polyline clip-path="url(#clip302)" style="stroke:#000000; stroke-width:2; stroke-opacity:0.1; fill:none" points="
  205.121,250.149 2352.76,250.149 
  "/>
<polyline clip-path="url(#clip302)" style="stroke:#000000; stroke-width:2; stroke-opacity:0.1; fill:none" points="
  205.121,78.1958 2352.76,78.1958 
  "/>
<polyline clip-path="url(#clip300)" style="stroke:#000000; stroke-width:4; stroke-opacity:1; fill:none" points="
  205.121,1140.87 205.121,47.2441 
  "/>
<polyline clip-path="url(#clip300)" style="stroke:#000000; stroke-width:4; stroke-opacity:1; fill:none" points="
  205.121,1109.92 230.893,1109.92 
  "/>
<polyline clip-path="url(#clip300)" style="stroke:#000000; stroke-width:4; stroke-opacity:1; fill:none" points="
  205.121,937.964 230.893,937.964 
  "/>
<polyline clip-path="url(#clip300)" style="stroke:#000000; stroke-width:4; stroke-opacity:1; fill:none" points="
  205.121,766.011 230.893,766.011 
  "/>
<polyline clip-path="url(#clip300)" style="stroke:#000000; stroke-width:4; stroke-opacity:1; fill:none" points="
  205.121,594.057 230.893,594.057 
  "/>
<polyline clip-path="url(#clip300)" style="stroke:#000000; stroke-width:4; stroke-opacity:1; fill:none" points="
  205.121,422.103 230.893,422.103 
  "/>
<polyline clip-path="url(#clip300)" style="stroke:#000000; stroke-width:4; stroke-opacity:1; fill:none" points="
  205.121,250.149 230.893,250.149 
  "/>
<polyline clip-path="url(#clip300)" style="stroke:#000000; stroke-width:4; stroke-opacity:1; fill:none" points="
  205.121,78.1958 230.893,78.1958 
  "/>
<path clip-path="url(#clip300)" d="M 0 0 M157.177 1095.72 Q153.566 1095.72 151.737 1099.28 Q149.931 1102.82 149.931 1109.95 Q149.931 1117.06 151.737 1120.62 Q153.566 1124.17 157.177 1124.17 Q160.811 1124.17 162.616 1120.62 Q164.445 1117.06 164.445 1109.95 Q164.445 1102.82 162.616 1099.28 Q160.811 1095.72 157.177 1095.72 M157.177 1092.01 Q162.987 1092.01 166.042 1096.62 Q169.121 1101.2 169.121 1109.95 Q169.121 1118.68 166.042 1123.29 Q162.987 1127.87 157.177 1127.87 Q151.366 1127.87 148.288 1123.29 Q145.232 1118.68 145.232 1109.95 Q145.232 1101.2 148.288 1096.62 Q151.366 1092.01 157.177 1092.01 Z" fill="#000000" fill-rule="evenodd" fill-opacity="1" /><path clip-path="url(#clip300)" d="M 0 0 M117.825 951.309 L125.464 951.309 L125.464 924.944 L117.154 926.61 L117.154 922.351 L125.418 920.684 L130.093 920.684 L130.093 951.309 L137.732 951.309 L137.732 955.244 L117.825 955.244 L117.825 951.309 Z" fill="#000000" fill-rule="evenodd" fill-opacity="1" /><path clip-path="url(#clip300)" d="M 0 0 M157.177 923.763 Q153.566 923.763 151.737 927.328 Q149.931 930.869 149.931 937.999 Q149.931 945.105 151.737 948.67 Q153.566 952.212 157.177 952.212 Q160.811 952.212 162.616 948.67 Q164.445 945.105 164.445 937.999 Q164.445 930.869 162.616 927.328 Q160.811 923.763 157.177 923.763 M157.177 920.059 Q162.987 920.059 166.042 924.666 Q169.121 929.249 169.121 937.999 Q169.121 946.726 166.042 951.332 Q162.987 955.916 157.177 955.916 Q151.366 955.916 148.288 951.332 Q145.232 946.726 145.232 937.999 Q145.232 929.249 148.288 924.666 Q151.366 920.059 157.177 920.059 Z" fill="#000000" fill-rule="evenodd" fill-opacity="1" /><path clip-path="url(#clip300)" d="M 0 0 M121.043 779.355 L137.362 779.355 L137.362 783.291 L115.418 783.291 L115.418 779.355 Q118.08 776.601 122.663 771.971 Q127.269 767.318 128.45 765.976 Q130.695 763.453 131.575 761.717 Q132.478 759.957 132.478 758.268 Q132.478 755.513 130.533 753.777 Q128.612 752.041 125.51 752.041 Q123.311 752.041 120.857 752.805 Q118.427 753.569 115.649 755.119 L115.649 750.397 Q118.473 749.263 120.927 748.684 Q123.38 748.106 125.418 748.106 Q130.788 748.106 133.982 750.791 Q137.177 753.476 137.177 757.967 Q137.177 760.096 136.367 762.018 Q135.579 763.916 133.473 766.508 Q132.894 767.18 129.792 770.397 Q126.691 773.592 121.043 779.355 Z" fill="#000000" fill-rule="evenodd" fill-opacity="1" /><path clip-path="url(#clip300)" d="M 0 0 M157.177 751.809 Q153.566 751.809 151.737 755.374 Q149.931 758.916 149.931 766.045 Q149.931 773.152 151.737 776.717 Q153.566 780.258 157.177 780.258 Q160.811 780.258 162.616 776.717 Q164.445 773.152 164.445 766.045 Q164.445 758.916 162.616 755.374 Q160.811 751.809 157.177 751.809 M157.177 748.106 Q162.987 748.106 166.042 752.712 Q169.121 757.295 169.121 766.045 Q169.121 774.772 166.042 779.379 Q162.987 783.962 157.177 783.962 Q151.366 783.962 148.288 779.379 Q145.232 774.772 145.232 766.045 Q145.232 757.295 148.288 752.712 Q151.366 748.106 157.177 748.106 Z" fill="#000000" fill-rule="evenodd" fill-opacity="1" /><path clip-path="url(#clip300)" d="M 0 0 M131.181 592.703 Q134.538 593.42 136.413 595.689 Q138.311 597.957 138.311 601.291 Q138.311 606.406 134.792 609.207 Q131.274 612.008 124.793 612.008 Q122.617 612.008 120.302 611.568 Q118.01 611.152 115.556 610.295 L115.556 605.781 Q117.501 606.916 119.816 607.494 Q122.13 608.073 124.654 608.073 Q129.052 608.073 131.343 606.337 Q133.658 604.601 133.658 601.291 Q133.658 598.235 131.505 596.522 Q129.376 594.786 125.556 594.786 L121.529 594.786 L121.529 590.943 L125.742 590.943 Q129.191 590.943 131.019 589.578 Q132.848 588.189 132.848 585.596 Q132.848 582.934 130.95 581.522 Q129.075 580.087 125.556 580.087 Q123.635 580.087 121.436 580.504 Q119.237 580.92 116.598 581.8 L116.598 577.633 Q119.26 576.893 121.575 576.522 Q123.913 576.152 125.973 576.152 Q131.297 576.152 134.399 578.582 Q137.501 580.99 137.501 585.11 Q137.501 587.981 135.857 589.971 Q134.214 591.939 131.181 592.703 Z" fill="#000000" fill-rule="evenodd" fill-opacity="1" /><path clip-path="url(#clip300)" d="M 0 0 M157.177 579.856 Q153.566 579.856 151.737 583.42 Q149.931 586.962 149.931 594.092 Q149.931 601.198 151.737 604.763 Q153.566 608.304 157.177 608.304 Q160.811 608.304 162.616 604.763 Q164.445 601.198 164.445 594.092 Q164.445 586.962 162.616 583.42 Q160.811 579.856 157.177 579.856 M157.177 576.152 Q162.987 576.152 166.042 580.758 Q169.121 585.342 169.121 594.092 Q169.121 602.818 166.042 607.425 Q162.987 612.008 157.177 612.008 Q151.366 612.008 148.288 607.425 Q145.232 602.818 145.232 594.092 Q145.232 585.342 148.288 580.758 Q151.366 576.152 157.177 576.152 Z" fill="#000000" fill-rule="evenodd" fill-opacity="1" /><path clip-path="url(#clip300)" d="M 0 0 M129.862 408.897 L118.056 427.346 L129.862 427.346 L129.862 408.897 M128.635 404.823 L134.515 404.823 L134.515 427.346 L139.445 427.346 L139.445 431.235 L134.515 431.235 L134.515 439.383 L129.862 439.383 L129.862 431.235 L114.26 431.235 L114.26 426.721 L128.635 404.823 Z" fill="#000000" fill-rule="evenodd" fill-opacity="1" /><path clip-path="url(#clip300)" d="M 0 0 M157.177 407.902 Q153.566 407.902 151.737 411.467 Q149.931 415.008 149.931 422.138 Q149.931 429.244 151.737 432.809 Q153.566 436.351 157.177 436.351 Q160.811 436.351 162.616 432.809 Q164.445 429.244 164.445 422.138 Q164.445 415.008 162.616 411.467 Q160.811 407.902 157.177 407.902 M157.177 404.198 Q162.987 404.198 166.042 408.805 Q169.121 413.388 169.121 422.138 Q169.121 430.865 166.042 435.471 Q162.987 440.054 157.177 440.054 Q151.366 440.054 148.288 435.471 Q145.232 430.865 145.232 422.138 Q145.232 413.388 148.288 408.805 Q151.366 404.198 157.177 404.198 Z" fill="#000000" fill-rule="evenodd" fill-opacity="1" /><path clip-path="url(#clip300)" d="M 0 0 M117.061 232.869 L135.417 232.869 L135.417 236.805 L121.343 236.805 L121.343 245.277 Q122.362 244.93 123.38 244.768 Q124.399 244.582 125.418 244.582 Q131.205 244.582 134.584 247.754 Q137.964 250.925 137.964 256.342 Q137.964 261.92 134.492 265.022 Q131.019 268.101 124.7 268.101 Q122.524 268.101 120.255 267.73 Q118.01 267.36 115.603 266.619 L115.603 261.92 Q117.686 263.054 119.908 263.61 Q122.13 264.166 124.607 264.166 Q128.612 264.166 130.95 262.059 Q133.288 259.953 133.288 256.342 Q133.288 252.73 130.95 250.624 Q128.612 248.518 124.607 248.518 Q122.732 248.518 120.857 248.934 Q119.006 249.351 117.061 250.23 L117.061 232.869 Z" fill="#000000" fill-rule="evenodd" fill-opacity="1" /><path clip-path="url(#clip300)" d="M 0 0 M157.177 235.948 Q153.566 235.948 151.737 239.513 Q149.931 243.055 149.931 250.184 Q149.931 257.291 151.737 260.855 Q153.566 264.397 157.177 264.397 Q160.811 264.397 162.616 260.855 Q164.445 257.291 164.445 250.184 Q164.445 243.055 162.616 239.513 Q160.811 235.948 157.177 235.948 M157.177 232.244 Q162.987 232.244 166.042 236.851 Q169.121 241.434 169.121 250.184 Q169.121 258.911 166.042 263.517 Q162.987 268.101 157.177 268.101 Q151.366 268.101 148.288 263.517 Q145.232 258.911 145.232 250.184 Q145.232 241.434 148.288 236.851 Q151.366 232.244 157.177 232.244 Z" fill="#000000" fill-rule="evenodd" fill-opacity="1" /><path clip-path="url(#clip300)" d="M 0 0 M127.593 76.3323 Q124.445 76.3323 122.593 78.4851 Q120.765 80.6379 120.765 84.3879 Q120.765 88.1147 122.593 90.2906 Q124.445 92.4434 127.593 92.4434 Q130.742 92.4434 132.57 90.2906 Q134.422 88.1147 134.422 84.3879 Q134.422 80.6379 132.57 78.4851 Q130.742 76.3323 127.593 76.3323 M136.876 61.6796 L136.876 65.9389 Q135.117 65.1056 133.311 64.6657 Q131.529 64.2259 129.769 64.2259 Q125.14 64.2259 122.686 67.3509 Q120.255 70.4759 119.908 76.7953 Q121.274 74.7814 123.334 73.7166 Q125.394 72.6287 127.871 72.6287 Q133.08 72.6287 136.089 75.7999 Q139.121 78.9481 139.121 84.3879 Q139.121 89.7119 135.973 92.9295 Q132.825 96.1471 127.593 96.1471 Q121.598 96.1471 118.427 91.5637 Q115.256 86.9573 115.256 78.2305 Q115.256 70.0361 119.144 65.175 Q123.033 60.2908 129.584 60.2908 Q131.343 60.2908 133.126 60.638 Q134.931 60.9852 136.876 61.6796 Z" fill="#000000" fill-rule="evenodd" fill-opacity="1" /><path clip-path="url(#clip300)" d="M 0 0 M157.177 63.9944 Q153.566 63.9944 151.737 67.5592 Q149.931 71.1009 149.931 78.2305 Q149.931 85.3369 151.737 88.9017 Q153.566 92.4434 157.177 92.4434 Q160.811 92.4434 162.616 88.9017 Q164.445 85.3369 164.445 78.2305 Q164.445 71.1009 162.616 67.5592 Q160.811 63.9944 157.177 63.9944 M157.177 60.2908 Q162.987 60.2908 166.042 64.8972 Q169.121 69.4805 169.121 78.2305 Q169.121 86.9573 166.042 91.5637 Q162.987 96.1471 157.177 96.1471 Q151.366 96.1471 148.288 91.5637 Q145.232 86.9573 145.232 78.2305 Q145.232 69.4805 148.288 64.8972 Q151.366 60.2908 157.177 60.2908 Z" fill="#000000" fill-rule="evenodd" fill-opacity="1" /><path clip-path="url(#clip300)" d="M 0 0 M16.4842 731.063 L16.4842 724.633 L64.0042 724.633 L64.0042 731.063 L16.4842 731.063 Z" fill="#000000" fill-rule="evenodd" fill-opacity="1" /><path clip-path="url(#clip300)" d="M 0 0 M42.4881 682.461 L64.0042 682.461 L64.0042 688.317 L42.679 688.317 Q37.6183 688.317 35.1038 690.29 Q32.5894 692.264 32.5894 696.211 Q32.5894 700.953 35.6131 703.69 Q38.6368 706.428 43.8567 706.428 L64.0042 706.428 L64.0042 712.316 L28.3562 712.316 L28.3562 706.428 L33.8944 706.428 Q30.6797 704.327 29.0883 701.494 Q27.4968 698.63 27.4968 694.906 Q27.4968 688.763 31.3163 685.612 Q35.1038 682.461 42.4881 682.461 Z" fill="#000000" fill-rule="evenodd" fill-opacity="1" /><path clip-path="url(#clip300)" d="M 0 0 M18.2347 664.987 L28.3562 664.987 L28.3562 652.924 L32.9077 652.924 L32.9077 664.987 L52.2594 664.987 Q56.6199 664.987 57.8613 663.809 Q59.1026 662.6 59.1026 658.939 L59.1026 652.924 L64.0042 652.924 L64.0042 658.939 Q64.0042 665.719 61.4897 668.297 Q58.9434 670.875 52.2594 670.875 L32.9077 670.875 L32.9077 675.172 L28.3562 675.172 L28.3562 670.875 L18.2347 670.875 L18.2347 664.987 Z" fill="#000000" fill-rule="evenodd" fill-opacity="1" /><path clip-path="url(#clip300)" d="M 0 0 M44.7161 614.73 L47.5806 614.73 L47.5806 641.656 Q53.6281 641.275 56.8109 638.028 Q59.9619 634.75 59.9619 628.925 Q59.9619 625.551 59.1344 622.4 Q58.3069 619.217 56.6518 616.098 L62.1899 616.098 Q63.5267 619.249 64.227 622.559 Q64.9272 625.87 64.9272 629.275 Q64.9272 637.805 59.9619 642.802 Q54.9967 647.768 46.5303 647.768 Q37.7774 647.768 32.6531 643.057 Q27.4968 638.314 27.4968 630.294 Q27.4968 623.1 32.1438 618.931 Q36.7589 614.73 44.7161 614.73 M42.9973 620.586 Q38.1912 620.65 35.3266 623.291 Q32.4621 625.901 32.4621 630.23 Q32.4621 635.132 35.2312 638.092 Q38.0002 641.02 43.0292 641.465 L42.9973 620.586 Z" fill="#000000" fill-rule="evenodd" fill-opacity="1" /><path clip-path="url(#clip300)" d="M 0 0 M33.8307 584.461 Q33.2578 585.447 33.0032 586.625 Q32.7167 587.771 32.7167 589.171 Q32.7167 594.136 35.9632 596.81 Q39.1779 599.452 45.2253 599.452 L64.0042 599.452 L64.0042 605.34 L28.3562 605.34 L28.3562 599.452 L33.8944 599.452 Q30.6479 597.606 29.0883 594.646 Q27.4968 591.686 27.4968 587.452 Q27.4968 586.848 27.5923 586.116 Q27.656 585.384 27.8151 584.492 L33.8307 584.461 Z" fill="#000000" fill-rule="evenodd" fill-opacity="1" /><path clip-path="url(#clip300)" d="M 0 0 M28.3562 582.519 L28.3562 576.312 L58.275 565.172 L28.3562 554.033 L28.3562 547.826 L64.0042 561.194 L64.0042 569.151 L28.3562 582.519 Z" fill="#000000" fill-rule="evenodd" fill-opacity="1" /><path clip-path="url(#clip300)" d="M 0 0 M46.0847 523.541 Q46.0847 530.639 47.7079 533.376 Q49.3312 536.113 53.2461 536.113 Q56.3653 536.113 58.2114 534.076 Q60.0256 532.007 60.0256 528.474 Q60.0256 523.604 56.5881 520.676 Q53.1188 517.716 47.3897 517.716 L46.0847 517.716 L46.0847 523.541 M43.6657 511.86 L64.0042 511.86 L64.0042 517.716 L58.5933 517.716 Q61.8398 519.721 63.3994 522.713 Q64.9272 525.705 64.9272 530.034 Q64.9272 535.508 61.8716 538.755 Q58.7843 541.969 53.6281 541.969 Q47.6125 541.969 44.5569 537.959 Q41.5014 533.917 41.5014 525.928 L41.5014 517.716 L40.9285 517.716 Q36.8862 517.716 34.6901 520.39 Q32.4621 523.032 32.4621 527.838 Q32.4621 530.893 33.1941 533.79 Q33.9262 536.686 35.3903 539.36 L29.9795 539.36 Q28.7381 536.145 28.1334 533.121 Q27.4968 530.097 27.4968 527.233 Q27.4968 519.499 31.5072 515.679 Q35.5176 511.86 43.6657 511.86 Z" fill="#000000" fill-rule="evenodd" fill-opacity="1" /><path clip-path="url(#clip300)" d="M 0 0 M14.479 499.797 L14.479 493.94 L64.0042 493.94 L64.0042 499.797 L14.479 499.797 Z" fill="#000000" fill-rule="evenodd" fill-opacity="1" /><path clip-path="url(#clip300)" d="M 0 0 M29.4065 458.961 L34.9447 458.961 Q33.6716 461.443 33.035 464.117 Q32.3984 466.79 32.3984 469.655 Q32.3984 474.016 33.7352 476.212 Q35.072 478.376 37.7456 478.376 Q39.7826 478.376 40.9603 476.816 Q42.1061 475.257 43.1565 470.546 L43.6021 468.541 Q44.9389 462.303 47.3897 459.693 Q49.8086 457.051 54.1691 457.051 Q59.1344 457.051 62.0308 460.998 Q64.9272 464.913 64.9272 471.788 Q64.9272 474.652 64.3543 477.771 Q63.8132 480.859 62.6992 484.296 L56.6518 484.296 Q58.3387 481.05 59.198 477.899 Q60.0256 474.748 60.0256 471.66 Q60.0256 467.523 58.6251 465.295 Q57.1929 463.067 54.6147 463.067 Q52.2276 463.067 50.9545 464.69 Q49.6813 466.281 48.5037 471.724 L48.0262 473.761 Q46.8804 479.204 44.5251 481.623 Q42.138 484.042 38.0002 484.042 Q32.9713 484.042 30.2341 480.477 Q27.4968 476.912 27.4968 470.355 Q27.4968 467.109 27.9743 464.244 Q28.4517 461.38 29.4065 458.961 Z" fill="#000000" fill-rule="evenodd" fill-opacity="1" /><path clip-path="url(#clip302)" d="
M265.903 1109.92 L664.491 1109.92 L664.491 1092.72 L265.903 1092.72  Z
  " fill="#009af9" fill-rule="evenodd" fill-opacity="1"/>
<polyline clip-path="url(#clip302)" style="stroke:#ffffff; stroke-width:4; stroke-opacity:1; fill:none" points="
  265.903,1109.92 664.491,1109.92 
  "/>
<path clip-path="url(#clip302)" d="
M277.731 1092.72 L278.913 1092.72 L278.913 1075.53 L277.731 1075.53  Z
  " fill="#009af9" fill-rule="evenodd" fill-opacity="1"/>
<polyline clip-path="url(#clip302)" style="stroke:#ffffff; stroke-width:4; stroke-opacity:1; fill:none" points="
  277.731,1092.72 278.913,1092.72 
  "/>
<path clip-path="url(#clip302)" d="
M378.265 1058.33 L807.605 1058.33 L807.605 1041.14 L378.265 1041.14  Z
  " fill="#e26f46" fill-rule="evenodd" fill-opacity="1"/>
<polyline clip-path="url(#clip302)" style="stroke:#ffffff; stroke-width:4; stroke-opacity:1; fill:none" points="
  378.265,1058.33 807.605,1058.33 
  "/>
<path clip-path="url(#clip302)" d="
M384.179 1041.14 L593.526 1041.14 L593.526 1023.94 L384.179 1023.94  Z
  " fill="#e26f46" fill-rule="evenodd" fill-opacity="1"/>
<polyline clip-path="url(#clip302)" style="stroke:#ffffff; stroke-width:4; stroke-opacity:1; fill:none" points="
  384.179,1041.14 593.526,1041.14 
  "/>
<path clip-path="url(#clip302)" d="
M388.91 1023.94 L390.092 1023.94 L390.092 1006.75 L388.91 1006.75  Z
  " fill="#e26f46" fill-rule="evenodd" fill-opacity="1"/>
<polyline clip-path="url(#clip302)" style="stroke:#ffffff; stroke-width:4; stroke-opacity:1; fill:none" points="
  388.91,1023.94 390.092,1023.94 
  "/>
<path clip-path="url(#clip302)" d="
M399.554 989.55 L612.45 989.55 L612.45 972.355 L399.554 972.355  Z
  " fill="#3da44d" fill-rule="evenodd" fill-opacity="1"/>
<polyline clip-path="url(#clip302)" style="stroke:#ffffff; stroke-width:4; stroke-opacity:1; fill:none" points="
  399.554,989.55 612.45,989.55 
  "/>
<path clip-path="url(#clip302)" d="
M405.468 972.355 L406.651 972.355 L406.651 955.16 L405.468 955.16  Z
  " fill="#3da44d" fill-rule="evenodd" fill-opacity="1"/>
<polyline clip-path="url(#clip302)" style="stroke:#ffffff; stroke-width:4; stroke-opacity:1; fill:none" points="
  405.468,972.355 406.651,972.355 
  "/>
<path clip-path="url(#clip302)" d="
M492.992 937.964 L776.853 937.964 L776.853 920.769 L492.992 920.769  Z
  " fill="#c271d2" fill-rule="evenodd" fill-opacity="1"/>
<polyline clip-path="url(#clip302)" style="stroke:#ffffff; stroke-width:4; stroke-opacity:1; fill:none" points="
  492.992,937.964 776.853,937.964 
  "/>
<path clip-path="url(#clip302)" d="
M498.906 920.769 L500.089 920.769 L500.089 903.574 L498.906 903.574  Z
  " fill="#c271d2" fill-rule="evenodd" fill-opacity="1"/>
<polyline clip-path="url(#clip302)" style="stroke:#ffffff; stroke-width:4; stroke-opacity:1; fill:none" points="
  498.906,920.769 500.089,920.769 
  "/>
<path clip-path="url(#clip302)" d="
M515.464 886.378 L516.647 886.378 L516.647 869.183 L515.464 869.183  Z
  " fill="#ac8d18" fill-rule="evenodd" fill-opacity="1"/>
<polyline clip-path="url(#clip302)" style="stroke:#ffffff; stroke-width:4; stroke-opacity:1; fill:none" points="
  515.464,886.378 516.647,886.378 
  "/>
<path clip-path="url(#clip302)" d="
M546.216 851.987 L548.581 851.987 L548.581 834.792 L546.216 834.792  Z
  " fill="#00a9ad" fill-rule="evenodd" fill-opacity="1"/>
<polyline clip-path="url(#clip302)" style="stroke:#ffffff; stroke-width:4; stroke-opacity:1; fill:none" points="
  546.216,851.987 548.581,851.987 
  "/>
<path clip-path="url(#clip302)" d="
M642.019 817.597 L744.919 817.597 L744.919 800.401 L642.019 800.401  Z
  " fill="#ed5d92" fill-rule="evenodd" fill-opacity="1"/>
<polyline clip-path="url(#clip302)" style="stroke:#ffffff; stroke-width:4; stroke-opacity:1; fill:none" points="
  642.019,817.597 744.919,817.597 
  "/>
<path clip-path="url(#clip302)" d="
M647.933 800.401 L649.116 800.401 L649.116 783.206 L647.933 783.206  Z
  " fill="#ed5d92" fill-rule="evenodd" fill-opacity="1"/>
<polyline clip-path="url(#clip302)" style="stroke:#ffffff; stroke-width:4; stroke-opacity:1; fill:none" points="
  647.933,800.401 649.116,800.401 
  "/>
<path clip-path="url(#clip302)" d="
M711.802 1109.92 L712.984 1109.92 L712.984 1092.72 L711.802 1092.72  Z
  " fill="#c68125" fill-rule="evenodd" fill-opacity="1"/>
<polyline clip-path="url(#clip302)" style="stroke:#ffffff; stroke-width:4; stroke-opacity:1; fill:none" points="
  711.802,1109.92 712.984,1109.92 
  "/>
<path clip-path="url(#clip302)" d="
M843.087 1109.92 L1249.97 1109.92 L1249.97 1092.72 L843.087 1092.72  Z
  " fill="#009af9" fill-rule="evenodd" fill-opacity="1"/>
<polyline clip-path="url(#clip302)" style="stroke:#ffffff; stroke-width:4; stroke-opacity:1; fill:none" points="
  843.087,1109.92 1249.97,1109.92 
  "/>
<path clip-path="url(#clip302)" d="
M847.818 1092.72 L964.911 1092.72 L964.911 1075.53 L847.818 1075.53  Z
  " fill="#009af9" fill-rule="evenodd" fill-opacity="1"/>
<polyline clip-path="url(#clip302)" style="stroke:#ffffff; stroke-width:4; stroke-opacity:1; fill:none" points="
  847.818,1092.72 964.911,1092.72 
  "/>
<path clip-path="url(#clip302)" d="
M852.549 1075.53 L852.549 1075.53 L852.549 1058.33 L852.549 1058.33  Z
  " fill="#009af9" fill-rule="evenodd" fill-opacity="1"/>
<polyline clip-path="url(#clip302)" style="stroke:#ffffff; stroke-width:4; stroke-opacity:1; fill:none" points="
  852.549,1075.53 852.549,1075.53 
  "/>
<path clip-path="url(#clip302)" d="
M882.118 1041.14 L883.301 1041.14 L883.301 1023.94 L882.118 1023.94  Z
  " fill="#00a98d" fill-rule="evenodd" fill-opacity="1"/>
<polyline clip-path="url(#clip302)" style="stroke:#ffffff; stroke-width:4; stroke-opacity:1; fill:none" points="
  882.118,1041.14 883.301,1041.14 
  "/>
<path clip-path="url(#clip302)" d="
M915.235 1006.75 L1443.94 1006.75 L1443.94 989.55 L915.235 989.55  Z
  " fill="#8e971d" fill-rule="evenodd" fill-opacity="1"/>
<polyline clip-path="url(#clip302)" style="stroke:#ffffff; stroke-width:4; stroke-opacity:1; fill:none" points="
  915.235,1006.75 1443.94,1006.75 
  "/>
<path clip-path="url(#clip302)" d="
M918.784 989.55 L1296.09 989.55 L1296.09 972.355 L918.784 972.355  Z
  " fill="#8e971d" fill-rule="evenodd" fill-opacity="1"/>
<polyline clip-path="url(#clip302)" style="stroke:#ffffff; stroke-width:4; stroke-opacity:1; fill:none" points="
  918.784,989.55 1296.09,989.55 
  "/>
<path clip-path="url(#clip302)" d="
M925.88 972.355 L927.063 972.355 L927.063 955.16 L925.88 955.16  Z
  " fill="#8e971d" fill-rule="evenodd" fill-opacity="1"/>
<polyline clip-path="url(#clip302)" style="stroke:#ffffff; stroke-width:4; stroke-opacity:1; fill:none" points="
  925.88,972.355 927.063,972.355 
  "/>
<path clip-path="url(#clip302)" d="
M941.256 937.964 L1194.37 937.964 L1194.37 920.769 L941.256 920.769  Z
  " fill="#00a8cb" fill-rule="evenodd" fill-opacity="1"/>
<polyline clip-path="url(#clip302)" style="stroke:#ffffff; stroke-width:4; stroke-opacity:1; fill:none" points="
  941.256,937.964 1194.37,937.964 
  "/>
<path clip-path="url(#clip302)" d="
M948.353 920.769 L949.535 920.769 L949.535 903.574 L948.353 903.574  Z
  " fill="#00a8cb" fill-rule="evenodd" fill-opacity="1"/>
<polyline clip-path="url(#clip302)" style="stroke:#ffffff; stroke-width:4; stroke-opacity:1; fill:none" points="
  948.353,920.769 949.535,920.769 
  "/>
<path clip-path="url(#clip302)" d="
M989.749 886.378 L1109.21 886.378 L1109.21 869.183 L989.749 869.183  Z
  " fill="#9b7fe8" fill-rule="evenodd" fill-opacity="1"/>
<polyline clip-path="url(#clip302)" style="stroke:#ffffff; stroke-width:4; stroke-opacity:1; fill:none" points="
  989.749,886.378 1109.21,886.378 
  "/>
<path clip-path="url(#clip302)" d="
M995.663 869.183 L996.846 869.183 L996.846 851.987 L995.663 851.987  Z
  " fill="#9b7fe8" fill-rule="evenodd" fill-opacity="1"/>
<polyline clip-path="url(#clip302)" style="stroke:#ffffff; stroke-width:4; stroke-opacity:1; fill:none" points="
  995.663,869.183 996.846,869.183 
  "/>
<path clip-path="url(#clip302)" d="
M1024.05 834.792 L1413.19 834.792 L1413.19 817.597 L1024.05 817.597  Z
  " fill="#608cf6" fill-rule="evenodd" fill-opacity="1"/>
<polyline clip-path="url(#clip302)" style="stroke:#ffffff; stroke-width:4; stroke-opacity:1; fill:none" points="
  1024.05,834.792 1413.19,834.792 
  "/>
<path clip-path="url(#clip302)" d="
M1027.6 817.597 L1160.07 817.597 L1160.07 800.401 L1027.6 800.401  Z
  " fill="#608cf6" fill-rule="evenodd" fill-opacity="1"/>
<polyline clip-path="url(#clip302)" style="stroke:#ffffff; stroke-width:4; stroke-opacity:1; fill:none" points="
  1027.6,817.597 1160.07,817.597 
  "/>
<path clip-path="url(#clip302)" d="
M1029.96 800.401 L1029.96 800.401 L1029.96 783.206 L1029.96 783.206  Z
  " fill="#608cf6" fill-rule="evenodd" fill-opacity="1"/>
<polyline clip-path="url(#clip302)" style="stroke:#ffffff; stroke-width:4; stroke-opacity:1; fill:none" points="
  1029.96,800.401 1029.96,800.401 
  "/>
<path clip-path="url(#clip302)" d="
M1044.16 766.011 L1232.23 766.011 L1232.23 748.815 L1044.16 748.815  Z
  " fill="#f05f73" fill-rule="evenodd" fill-opacity="1"/>
<polyline clip-path="url(#clip302)" style="stroke:#ffffff; stroke-width:4; stroke-opacity:1; fill:none" points="
  1044.16,766.011 1232.23,766.011 
  "/>
<path clip-path="url(#clip302)" d="
M1047.7 748.815 L1048.89 748.815 L1048.89 731.62 L1047.7 731.62  Z
  " fill="#f05f73" fill-rule="evenodd" fill-opacity="1"/>
<polyline clip-path="url(#clip302)" style="stroke:#ffffff; stroke-width:4; stroke-opacity:1; fill:none" points="
  1047.7,748.815 1048.89,748.815 
  "/>
<path clip-path="url(#clip302)" d="
M1054.8 714.424 L1055.98 714.424 L1055.98 697.229 L1054.8 697.229  Z
  " fill="#dd64b5" fill-rule="evenodd" fill-opacity="1"/>
<polyline clip-path="url(#clip302)" style="stroke:#ffffff; stroke-width:4; stroke-opacity:1; fill:none" points="
  1054.8,714.424 1055.98,714.424 
  "/>
<path clip-path="url(#clip302)" d="
M1082 680.034 L1083.19 680.034 L1083.19 662.838 L1082 662.838  Z
  " fill="#6b9e32" fill-rule="evenodd" fill-opacity="1"/>
<polyline clip-path="url(#clip302)" style="stroke:#ffffff; stroke-width:4; stroke-opacity:1; fill:none" points="
  1082,680.034 1083.19,680.034 
  "/>
<path clip-path="url(#clip302)" d="
M1141.14 645.643 L1383.62 645.643 L1383.62 628.448 L1141.14 628.448  Z
  " fill="#009af9" fill-rule="evenodd" fill-opacity="1"/>
<polyline clip-path="url(#clip302)" style="stroke:#ffffff; stroke-width:4; stroke-opacity:1; fill:none" points="
  1141.14,645.643 1383.62,645.643 
  "/>
<path clip-path="url(#clip302)" d="
M1142.32 628.448 L1143.51 628.448 L1143.51 611.252 L1142.32 611.252  Z
  " fill="#009af9" fill-rule="evenodd" fill-opacity="1"/>
<polyline clip-path="url(#clip302)" style="stroke:#ffffff; stroke-width:4; stroke-opacity:1; fill:none" points="
  1142.32,628.448 1143.51,628.448 
  "/>
<path clip-path="url(#clip302)" d="
M1176.62 594.057 L1176.62 594.057 L1176.62 576.862 L1176.62 576.862  Z
  " fill="#e26f46" fill-rule="evenodd" fill-opacity="1"/>
<polyline clip-path="url(#clip302)" style="stroke:#ffffff; stroke-width:4; stroke-opacity:1; fill:none" points="
  1176.62,594.057 1176.62,594.057 
  "/>
<path clip-path="url(#clip302)" d="
M1214.48 559.666 L1354.05 559.666 L1354.05 542.471 L1214.48 542.471  Z
  " fill="#3da44d" fill-rule="evenodd" fill-opacity="1"/>
<polyline clip-path="url(#clip302)" style="stroke:#ffffff; stroke-width:4; stroke-opacity:1; fill:none" points="
  1214.48,559.666 1354.05,559.666 
  "/>
<path clip-path="url(#clip302)" d="
M1216.85 542.471 L1218.03 542.471 L1218.03 525.275 L1216.85 525.275  Z
  " fill="#3da44d" fill-rule="evenodd" fill-opacity="1"/>
<polyline clip-path="url(#clip302)" style="stroke:#ffffff; stroke-width:4; stroke-opacity:1; fill:none" points="
  1216.85,542.471 1218.03,542.471 
  "/>
<path clip-path="url(#clip302)" d="
M1323.3 1109.92 L1324.48 1109.92 L1324.48 1092.72 L1323.3 1092.72  Z
  " fill="#c271d2" fill-rule="evenodd" fill-opacity="1"/>
<polyline clip-path="url(#clip302)" style="stroke:#ffffff; stroke-width:4; stroke-opacity:1; fill:none" points="
  1323.3,1109.92 1324.48,1109.92 
  "/>
<path clip-path="url(#clip302)" d="
M1475.87 1109.92 L2187.89 1109.92 L2187.89 1092.72 L1475.87 1092.72  Z
  " fill="#009af9" fill-rule="evenodd" fill-opacity="1"/>
<polyline clip-path="url(#clip302)" style="stroke:#ffffff; stroke-width:4; stroke-opacity:1; fill:none" points="
  1475.87,1109.92 2187.89,1109.92 
  "/>
<path clip-path="url(#clip302)" d="
M1478.24 1092.72 L1792.85 1092.72 L1792.85 1075.53 L1478.24 1075.53  Z
  " fill="#009af9" fill-rule="evenodd" fill-opacity="1"/>
<polyline clip-path="url(#clip302)" style="stroke:#ffffff; stroke-width:4; stroke-opacity:1; fill:none" points="
  1478.24,1092.72 1792.85,1092.72 
  "/>
<path clip-path="url(#clip302)" d="
M1480.6 1075.53 L1481.79 1075.53 L1481.79 1058.33 L1480.6 1058.33  Z
  " fill="#009af9" fill-rule="evenodd" fill-opacity="1"/>
<polyline clip-path="url(#clip302)" style="stroke:#ffffff; stroke-width:4; stroke-opacity:1; fill:none" points="
  1480.6,1075.53 1481.79,1075.53 
  "/>
<path clip-path="url(#clip302)" d="
M1500.71 1041.14 L2276.6 1041.14 L2276.6 1023.94 L1500.71 1023.94  Z
  " fill="#ac8d18" fill-rule="evenodd" fill-opacity="1"/>
<polyline clip-path="url(#clip302)" style="stroke:#ffffff; stroke-width:4; stroke-opacity:1; fill:none" points="
  1500.71,1041.14 2276.6,1041.14 
  "/>
<path clip-path="url(#clip302)" d="
M1505.44 1023.94 L2126.39 1023.94 L2126.39 1006.75 L1505.44 1006.75  Z
  " fill="#ac8d18" fill-rule="evenodd" fill-opacity="1"/>
<polyline clip-path="url(#clip302)" style="stroke:#ffffff; stroke-width:4; stroke-opacity:1; fill:none" points="
  1505.44,1023.94 2126.39,1023.94 
  "/>
<path clip-path="url(#clip302)" d="
M1510.17 1006.75 L1655.65 1006.75 L1655.65 989.55 L1510.17 989.55  Z
  " fill="#ac8d18" fill-rule="evenodd" fill-opacity="1"/>
<polyline clip-path="url(#clip302)" style="stroke:#ffffff; stroke-width:4; stroke-opacity:1; fill:none" points="
  1510.17,1006.75 1655.65,1006.75 
  "/>
<path clip-path="url(#clip302)" d="
M1513.72 989.55 L1513.72 989.55 L1513.72 972.355 L1513.72 972.355  Z
  " fill="#ac8d18" fill-rule="evenodd" fill-opacity="1"/>
<polyline clip-path="url(#clip302)" style="stroke:#ffffff; stroke-width:4; stroke-opacity:1; fill:none" points="
  1513.72,989.55 1513.72,989.55 
  "/>
<path clip-path="url(#clip302)" d="
M1518.45 955.16 L2140.58 955.16 L2140.58 937.964 L1518.45 937.964  Z
  " fill="#00a9ad" fill-rule="evenodd" fill-opacity="1"/>
<polyline clip-path="url(#clip302)" style="stroke:#ffffff; stroke-width:4; stroke-opacity:1; fill:none" points="
  1518.45,955.16 2140.58,955.16 
  "/>
<path clip-path="url(#clip302)" d="
M1520.82 937.964 L1678.12 937.964 L1678.12 920.769 L1520.82 920.769  Z
  " fill="#00a9ad" fill-rule="evenodd" fill-opacity="1"/>
<polyline clip-path="url(#clip302)" style="stroke:#ffffff; stroke-width:4; stroke-opacity:1; fill:none" points="
  1520.82,937.964 1678.12,937.964 
  "/>
<path clip-path="url(#clip302)" d="
M1523.18 920.769 L1524.37 920.769 L1524.37 903.574 L1523.18 903.574  Z
  " fill="#00a9ad" fill-rule="evenodd" fill-opacity="1"/>
<polyline clip-path="url(#clip302)" style="stroke:#ffffff; stroke-width:4; stroke-opacity:1; fill:none" points="
  1523.18,920.769 1524.37,920.769 
  "/>
<path clip-path="url(#clip302)" d="
M1529.1 886.378 L1692.32 886.378 L1692.32 869.183 L1529.1 869.183  Z
  " fill="#ed5d92" fill-rule="evenodd" fill-opacity="1"/>
<polyline clip-path="url(#clip302)" style="stroke:#ffffff; stroke-width:4; stroke-opacity:1; fill:none" points="
  1529.1,886.378 1692.32,886.378 
  "/>
<path clip-path="url(#clip302)" d="
M1532.65 869.183 L1532.65 869.183 L1532.65 851.987 L1532.65 851.987  Z
  " fill="#ed5d92" fill-rule="evenodd" fill-opacity="1"/>
<polyline clip-path="url(#clip302)" style="stroke:#ffffff; stroke-width:4; stroke-opacity:1; fill:none" points="
  1532.65,869.183 1532.65,869.183 
  "/>
<path clip-path="url(#clip302)" d="
M1552.75 834.792 L2245.85 834.792 L2245.85 817.597 L1552.75 817.597  Z
  " fill="#c68125" fill-rule="evenodd" fill-opacity="1"/>
<polyline clip-path="url(#clip302)" style="stroke:#ffffff; stroke-width:4; stroke-opacity:1; fill:none" points="
  1552.75,834.792 2245.85,834.792 
  "/>
<path clip-path="url(#clip302)" d="
M1555.12 817.597 L1979.73 817.597 L1979.73 800.401 L1555.12 800.401  Z
  " fill="#c68125" fill-rule="evenodd" fill-opacity="1"/>
<polyline clip-path="url(#clip302)" style="stroke:#ffffff; stroke-width:4; stroke-opacity:1; fill:none" points="
  1555.12,817.597 1979.73,817.597 
  "/>
<path clip-path="url(#clip302)" d="
M1557.48 800.401 L1557.48 800.401 L1557.48 783.206 L1557.48 783.206  Z
  " fill="#c68125" fill-rule="evenodd" fill-opacity="1"/>
<polyline clip-path="url(#clip302)" style="stroke:#ffffff; stroke-width:4; stroke-opacity:1; fill:none" points="
  1557.48,800.401 1557.48,800.401 
  "/>
<path clip-path="url(#clip302)" d="
M1562.21 766.011 L2060.15 766.011 L2060.15 748.815 L1562.21 748.815  Z
  " fill="#00a98d" fill-rule="evenodd" fill-opacity="1"/>
<polyline clip-path="url(#clip302)" style="stroke:#ffffff; stroke-width:4; stroke-opacity:1; fill:none" points="
  1562.21,766.011 2060.15,766.011 
  "/>
<path clip-path="url(#clip302)" d="
M1565.76 748.815 L1565.76 748.815 L1565.76 731.62 L1565.76 731.62  Z
  " fill="#00a98d" fill-rule="evenodd" fill-opacity="1"/>
<polyline clip-path="url(#clip302)" style="stroke:#ffffff; stroke-width:4; stroke-opacity:1; fill:none" points="
  1565.76,748.815 1565.76,748.815 
  "/>
<path clip-path="url(#clip302)" d="
M1570.49 714.424 L1570.49 714.424 L1570.49 697.229 L1570.49 697.229  Z
  " fill="#8e971d" fill-rule="evenodd" fill-opacity="1"/>
<polyline clip-path="url(#clip302)" style="stroke:#ffffff; stroke-width:4; stroke-opacity:1; fill:none" points="
  1570.49,714.424 1570.49,714.424 
  "/>
<path clip-path="url(#clip302)" d="
M1577.59 680.034 L2077.9 680.034 L2077.9 662.838 L1577.59 662.838  Z
  " fill="#00a8cb" fill-rule="evenodd" fill-opacity="1"/>
<polyline clip-path="url(#clip302)" style="stroke:#ffffff; stroke-width:4; stroke-opacity:1; fill:none" points="
  1577.59,680.034 2077.9,680.034 
  "/>
<path clip-path="url(#clip302)" d="
M1581.14 662.838 L1582.32 662.838 L1582.32 645.643 L1581.14 645.643  Z
  " fill="#00a8cb" fill-rule="evenodd" fill-opacity="1"/>
<polyline clip-path="url(#clip302)" style="stroke:#ffffff; stroke-width:4; stroke-opacity:1; fill:none" points="
  1581.14,662.838 1582.32,662.838 
  "/>
<path clip-path="url(#clip302)" d="
M1588.23 628.448 L1588.23 628.448 L1588.23 611.252 L1588.23 611.252  Z
  " fill="#9b7fe8" fill-rule="evenodd" fill-opacity="1"/>
<polyline clip-path="url(#clip302)" style="stroke:#ffffff; stroke-width:4; stroke-opacity:1; fill:none" points="
  1588.23,628.448 1588.23,628.448 
  "/>
<path clip-path="url(#clip302)" d="
M1594.15 594.057 L1594.15 594.057 L1594.15 576.862 L1594.15 576.862  Z
  " fill="#608cf6" fill-rule="evenodd" fill-opacity="1"/>
<polyline clip-path="url(#clip302)" style="stroke:#ffffff; stroke-width:4; stroke-opacity:1; fill:none" points="
  1594.15,594.057 1594.15,594.057 
  "/>
<path clip-path="url(#clip302)" d="
M1615.44 559.666 L2216.28 559.666 L2216.28 542.471 L1615.44 542.471  Z
  " fill="#f05f73" fill-rule="evenodd" fill-opacity="1"/>
<polyline clip-path="url(#clip302)" style="stroke:#ffffff; stroke-width:4; stroke-opacity:1; fill:none" points="
  1615.44,559.666 2216.28,559.666 
  "/>
<path clip-path="url(#clip302)" d="
M1618.99 542.471 L1827.15 542.471 L1827.15 525.275 L1618.99 525.275  Z
  " fill="#f05f73" fill-rule="evenodd" fill-opacity="1"/>
<polyline clip-path="url(#clip302)" style="stroke:#ffffff; stroke-width:4; stroke-opacity:1; fill:none" points="
  1618.99,542.471 1827.15,542.471 
  "/>
<path clip-path="url(#clip302)" d="
M1621.35 525.275 L1621.35 525.275 L1621.35 508.08 L1621.35 508.08  Z
  " fill="#f05f73" fill-rule="evenodd" fill-opacity="1"/>
<polyline clip-path="url(#clip302)" style="stroke:#ffffff; stroke-width:4; stroke-opacity:1; fill:none" points="
  1621.35,525.275 1621.35,525.275 
  "/>
<path clip-path="url(#clip302)" d="
M1627.27 490.885 L1909.94 490.885 L1909.94 473.689 L1627.27 473.689  Z
  " fill="#dd64b5" fill-rule="evenodd" fill-opacity="1"/>
<polyline clip-path="url(#clip302)" style="stroke:#ffffff; stroke-width:4; stroke-opacity:1; fill:none" points="
  1627.27,490.885 1909.94,490.885 
  "/>
<path clip-path="url(#clip302)" d="
M1633.18 473.689 L1634.36 473.689 L1634.36 456.494 L1633.18 456.494  Z
  " fill="#dd64b5" fill-rule="evenodd" fill-opacity="1"/>
<polyline clip-path="url(#clip302)" style="stroke:#ffffff; stroke-width:4; stroke-opacity:1; fill:none" points="
  1633.18,473.689 1634.36,473.689 
  "/>
<path clip-path="url(#clip302)" d="
M1713.61 439.299 L2171.33 439.299 L2171.33 422.103 L1713.61 422.103  Z
  " fill="#6b9e32" fill-rule="evenodd" fill-opacity="1"/>
<polyline clip-path="url(#clip302)" style="stroke:#ffffff; stroke-width:4; stroke-opacity:1; fill:none" points="
  1713.61,439.299 2171.33,439.299 
  "/>
<path clip-path="url(#clip302)" d="
M1719.52 422.103 L1719.52 422.103 L1719.52 404.908 L1719.52 404.908  Z
  " fill="#6b9e32" fill-rule="evenodd" fill-opacity="1"/>
<polyline clip-path="url(#clip302)" style="stroke:#ffffff; stroke-width:4; stroke-opacity:1; fill:none" points="
  1719.52,422.103 1719.52,422.103 
  "/>
<path clip-path="url(#clip302)" d="
M1726.62 387.712 L1727.8 387.712 L1727.8 370.517 L1726.62 370.517  Z
  " fill="#009af9" fill-rule="evenodd" fill-opacity="1"/>
<polyline clip-path="url(#clip302)" style="stroke:#ffffff; stroke-width:4; stroke-opacity:1; fill:none" points="
  1726.62,387.712 1727.8,387.712 
  "/>
<path clip-path="url(#clip302)" d="
M1750.27 353.322 L1995.1 353.322 L1995.1 336.126 L1750.27 336.126  Z
  " fill="#e26f46" fill-rule="evenodd" fill-opacity="1"/>
<polyline clip-path="url(#clip302)" style="stroke:#ffffff; stroke-width:4; stroke-opacity:1; fill:none" points="
  1750.27,353.322 1995.1,353.322 
  "/>
<path clip-path="url(#clip302)" d="
M1755 336.126 L1755 336.126 L1755 318.931 L1755 318.931  Z
  " fill="#e26f46" fill-rule="evenodd" fill-opacity="1"/>
<polyline clip-path="url(#clip302)" style="stroke:#ffffff; stroke-width:4; stroke-opacity:1; fill:none" points="
  1755,336.126 1755,336.126 
  "/>
<path clip-path="url(#clip302)" d="
M1772.74 301.736 L2014.03 301.736 L2014.03 284.54 L1772.74 284.54  Z
  " fill="#3da44d" fill-rule="evenodd" fill-opacity="1"/>
<polyline clip-path="url(#clip302)" style="stroke:#ffffff; stroke-width:4; stroke-opacity:1; fill:none" points="
  1772.74,301.736 2014.03,301.736 
  "/>
<path clip-path="url(#clip302)" d="
M1777.48 284.54 L1777.48 284.54 L1777.48 267.345 L1777.48 267.345  Z
  " fill="#3da44d" fill-rule="evenodd" fill-opacity="1"/>
<polyline clip-path="url(#clip302)" style="stroke:#ffffff; stroke-width:4; stroke-opacity:1; fill:none" points="
  1777.48,284.54 1777.48,284.54 
  "/>
<path clip-path="url(#clip302)" d="
M1844.89 250.149 L1844.89 250.149 L1844.89 232.954 L1844.89 232.954  Z
  " fill="#c271d2" fill-rule="evenodd" fill-opacity="1"/>
<polyline clip-path="url(#clip302)" style="stroke:#ffffff; stroke-width:4; stroke-opacity:1; fill:none" points="
  1844.89,250.149 1844.89,250.149 
  "/>
<path clip-path="url(#clip302)" d="
M1891.02 215.759 L2108.65 215.759 L2108.65 198.563 L1891.02 198.563  Z
  " fill="#ac8d18" fill-rule="evenodd" fill-opacity="1"/>
<polyline clip-path="url(#clip302)" style="stroke:#ffffff; stroke-width:4; stroke-opacity:1; fill:none" points="
  1891.02,215.759 2108.65,215.759 
  "/>
<path clip-path="url(#clip302)" d="
M1893.39 198.563 L1894.57 198.563 L1894.57 181.368 L1893.39 181.368  Z
  " fill="#ac8d18" fill-rule="evenodd" fill-opacity="1"/>
<polyline clip-path="url(#clip302)" style="stroke:#ffffff; stroke-width:4; stroke-opacity:1; fill:none" points="
  1893.39,198.563 1894.57,198.563 
  "/>
<path clip-path="url(#clip302)" d="
M1927.69 164.173 L1928.87 164.173 L1928.87 146.977 L1927.69 146.977  Z
  " fill="#00a9ad" fill-rule="evenodd" fill-opacity="1"/>
<polyline clip-path="url(#clip302)" style="stroke:#ffffff; stroke-width:4; stroke-opacity:1; fill:none" points="
  1927.69,164.173 1928.87,164.173 
  "/>
<path clip-path="url(#clip302)" d="
M1944.24 129.782 L1945.43 129.782 L1945.43 112.587 L1944.24 112.587  Z
  " fill="#ed5d92" fill-rule="evenodd" fill-opacity="1"/>
<polyline clip-path="url(#clip302)" style="stroke:#ffffff; stroke-width:4; stroke-opacity:1; fill:none" points="
  1944.24,129.782 1945.43,129.782 
  "/>
<path clip-path="url(#clip302)" d="
M2042.41 95.3911 L2042.41 95.3911 L2042.41 78.1958 L2042.41 78.1958  Z
  " fill="#c68125" fill-rule="evenodd" fill-opacity="1"/>
<polyline clip-path="url(#clip302)" style="stroke:#ffffff; stroke-width:4; stroke-opacity:1; fill:none" points="
  2042.41,95.3911 2042.41,95.3911 
  "/>
<circle clip-path="url(#clip302)" cx="265.903" cy="1109.92" r="14" fill="#ffffff" fill-rule="evenodd" fill-opacity="1" stroke="#000000" stroke-opacity="1" stroke-width="3.2"/>
<circle clip-path="url(#clip302)" cx="378.265" cy="1058.33" r="14" fill="#ffffff" fill-rule="evenodd" fill-opacity="1" stroke="#000000" stroke-opacity="1" stroke-width="3.2"/>
<circle clip-path="url(#clip302)" cx="399.554" cy="989.55" r="14" fill="#ffffff" fill-rule="evenodd" fill-opacity="1" stroke="#000000" stroke-opacity="1" stroke-width="3.2"/>
<circle clip-path="url(#clip302)" cx="492.992" cy="937.964" r="14" fill="#ffffff" fill-rule="evenodd" fill-opacity="1" stroke="#000000" stroke-opacity="1" stroke-width="3.2"/>
<circle clip-path="url(#clip302)" cx="515.464" cy="886.378" r="14" fill="#ffffff" fill-rule="evenodd" fill-opacity="1" stroke="#000000" stroke-opacity="1" stroke-width="3.2"/>
<circle clip-path="url(#clip302)" cx="546.216" cy="851.987" r="14" fill="#ffffff" fill-rule="evenodd" fill-opacity="1" stroke="#000000" stroke-opacity="1" stroke-width="3.2"/>
<circle clip-path="url(#clip302)" cx="642.019" cy="817.597" r="14" fill="#ffffff" fill-rule="evenodd" fill-opacity="1" stroke="#000000" stroke-opacity="1" stroke-width="3.2"/>
<circle clip-path="url(#clip302)" cx="711.802" cy="1109.92" r="14" fill="#ffffff" fill-rule="evenodd" fill-opacity="1" stroke="#000000" stroke-opacity="1" stroke-width="3.2"/>
<circle clip-path="url(#clip302)" cx="843.087" cy="1109.92" r="14" fill="#ffffff" fill-rule="evenodd" fill-opacity="1" stroke="#000000" stroke-opacity="1" stroke-width="3.2"/>
<circle clip-path="url(#clip302)" cx="882.118" cy="1041.14" r="14" fill="#ffffff" fill-rule="evenodd" fill-opacity="1" stroke="#000000" stroke-opacity="1" stroke-width="3.2"/>
<circle clip-path="url(#clip302)" cx="915.235" cy="1006.75" r="14" fill="#ffffff" fill-rule="evenodd" fill-opacity="1" stroke="#000000" stroke-opacity="1" stroke-width="3.2"/>
<circle clip-path="url(#clip302)" cx="941.256" cy="937.964" r="14" fill="#ffffff" fill-rule="evenodd" fill-opacity="1" stroke="#000000" stroke-opacity="1" stroke-width="3.2"/>
<circle clip-path="url(#clip302)" cx="989.749" cy="886.378" r="14" fill="#ffffff" fill-rule="evenodd" fill-opacity="1" stroke="#000000" stroke-opacity="1" stroke-width="3.2"/>
<circle clip-path="url(#clip302)" cx="1024.05" cy="834.792" r="14" fill="#ffffff" fill-rule="evenodd" fill-opacity="1" stroke="#000000" stroke-opacity="1" stroke-width="3.2"/>
<circle clip-path="url(#clip302)" cx="1044.16" cy="766.011" r="14" fill="#ffffff" fill-rule="evenodd" fill-opacity="1" stroke="#000000" stroke-opacity="1" stroke-width="3.2"/>
<circle clip-path="url(#clip302)" cx="1054.8" cy="714.424" r="14" fill="#ffffff" fill-rule="evenodd" fill-opacity="1" stroke="#000000" stroke-opacity="1" stroke-width="3.2"/>
<circle clip-path="url(#clip302)" cx="1082" cy="680.034" r="14" fill="#ffffff" fill-rule="evenodd" fill-opacity="1" stroke="#000000" stroke-opacity="1" stroke-width="3.2"/>
<circle clip-path="url(#clip302)" cx="1141.14" cy="645.643" r="14" fill="#ffffff" fill-rule="evenodd" fill-opacity="1" stroke="#000000" stroke-opacity="1" stroke-width="3.2"/>
<circle clip-path="url(#clip302)" cx="1176.62" cy="594.057" r="14" fill="#ffffff" fill-rule="evenodd" fill-opacity="1" stroke="#000000" stroke-opacity="1" stroke-width="3.2"/>
<circle clip-path="url(#clip302)" cx="1214.48" cy="559.666" r="14" fill="#ffffff" fill-rule="evenodd" fill-opacity="1" stroke="#000000" stroke-opacity="1" stroke-width="3.2"/>
<circle clip-path="url(#clip302)" cx="1323.3" cy="1109.92" r="14" fill="#ffffff" fill-rule="evenodd" fill-opacity="1" stroke="#000000" stroke-opacity="1" stroke-width="3.2"/>
<circle clip-path="url(#clip302)" cx="1475.87" cy="1109.92" r="14" fill="#ffffff" fill-rule="evenodd" fill-opacity="1" stroke="#000000" stroke-opacity="1" stroke-width="3.2"/>
<circle clip-path="url(#clip302)" cx="1500.71" cy="1041.14" r="14" fill="#ffffff" fill-rule="evenodd" fill-opacity="1" stroke="#000000" stroke-opacity="1" stroke-width="3.2"/>
<circle clip-path="url(#clip302)" cx="1518.45" cy="955.16" r="14" fill="#ffffff" fill-rule="evenodd" fill-opacity="1" stroke="#000000" stroke-opacity="1" stroke-width="3.2"/>
<circle clip-path="url(#clip302)" cx="1529.1" cy="886.378" r="14" fill="#ffffff" fill-rule="evenodd" fill-opacity="1" stroke="#000000" stroke-opacity="1" stroke-width="3.2"/>
<circle clip-path="url(#clip302)" cx="1552.75" cy="834.792" r="14" fill="#ffffff" fill-rule="evenodd" fill-opacity="1" stroke="#000000" stroke-opacity="1" stroke-width="3.2"/>
<circle clip-path="url(#clip302)" cx="1562.21" cy="766.011" r="14" fill="#ffffff" fill-rule="evenodd" fill-opacity="1" stroke="#000000" stroke-opacity="1" stroke-width="3.2"/>
<circle clip-path="url(#clip302)" cx="1570.49" cy="714.424" r="14" fill="#ffffff" fill-rule="evenodd" fill-opacity="1" stroke="#000000" stroke-opacity="1" stroke-width="3.2"/>
<circle clip-path="url(#clip302)" cx="1577.59" cy="680.034" r="14" fill="#ffffff" fill-rule="evenodd" fill-opacity="1" stroke="#000000" stroke-opacity="1" stroke-width="3.2"/>
<circle clip-path="url(#clip302)" cx="1588.23" cy="628.448" r="14" fill="#ffffff" fill-rule="evenodd" fill-opacity="1" stroke="#000000" stroke-opacity="1" stroke-width="3.2"/>
<circle clip-path="url(#clip302)" cx="1594.15" cy="594.057" r="14" fill="#ffffff" fill-rule="evenodd" fill-opacity="1" stroke="#000000" stroke-opacity="1" stroke-width="3.2"/>
<circle clip-path="url(#clip302)" cx="1615.44" cy="559.666" r="14" fill="#ffffff" fill-rule="evenodd" fill-opacity="1" stroke="#000000" stroke-opacity="1" stroke-width="3.2"/>
<circle clip-path="url(#clip302)" cx="1627.27" cy="490.885" r="14" fill="#ffffff" fill-rule="evenodd" fill-opacity="1" stroke="#000000" stroke-opacity="1" stroke-width="3.2"/>
<circle clip-path="url(#clip302)" cx="1713.61" cy="439.299" r="14" fill="#ffffff" fill-rule="evenodd" fill-opacity="1" stroke="#000000" stroke-opacity="1" stroke-width="3.2"/>
<circle clip-path="url(#clip302)" cx="1726.62" cy="387.712" r="14" fill="#ffffff" fill-rule="evenodd" fill-opacity="1" stroke="#000000" stroke-opacity="1" stroke-width="3.2"/>
<circle clip-path="url(#clip302)" cx="1750.27" cy="353.322" r="14" fill="#ffffff" fill-rule="evenodd" fill-opacity="1" stroke="#000000" stroke-opacity="1" stroke-width="3.2"/>
<circle clip-path="url(#clip302)" cx="1772.74" cy="301.736" r="14" fill="#ffffff" fill-rule="evenodd" fill-opacity="1" stroke="#000000" stroke-opacity="1" stroke-width="3.2"/>
<circle clip-path="url(#clip302)" cx="1844.89" cy="250.149" r="14" fill="#ffffff" fill-rule="evenodd" fill-opacity="1" stroke="#000000" stroke-opacity="1" stroke-width="3.2"/>
<circle clip-path="url(#clip302)" cx="1891.02" cy="215.759" r="14" fill="#ffffff" fill-rule="evenodd" fill-opacity="1" stroke="#000000" stroke-opacity="1" stroke-width="3.2"/>
<circle clip-path="url(#clip302)" cx="1927.69" cy="164.173" r="14" fill="#ffffff" fill-rule="evenodd" fill-opacity="1" stroke="#000000" stroke-opacity="1" stroke-width="3.2"/>
<circle clip-path="url(#clip302)" cx="1944.24" cy="129.782" r="14" fill="#ffffff" fill-rule="evenodd" fill-opacity="1" stroke="#000000" stroke-opacity="1" stroke-width="3.2"/>
<circle clip-path="url(#clip302)" cx="2042.41" cy="95.3911" r="14" fill="#ffffff" fill-rule="evenodd" fill-opacity="1" stroke="#000000" stroke-opacity="1" stroke-width="3.2"/>
<path clip-path="url(#clip300)" d="
M205.121 1423.18 L2352.76 1423.18 L2352.76 1301.67 L205.121 1301.67  Z
  " fill="#ffffff" fill-rule="evenodd" fill-opacity="1"/>
<defs>
  <clipPath id="clip303">
    <rect x="205" y="1301" width="2149" height="123"/>
  </clipPath>
</defs>
<polyline clip-path="url(#clip303)" style="stroke:#000000; stroke-width:2; stroke-opacity:0.1; fill:none" points="
  265.903,1423.18 265.903,1301.67 
  "/>
<polyline clip-path="url(#clip303)" style="stroke:#000000; stroke-width:2; stroke-opacity:0.1; fill:none" points="
  857.28,1423.18 857.28,1301.67 
  "/>
<polyline clip-path="url(#clip303)" style="stroke:#000000; stroke-width:2; stroke-opacity:0.1; fill:none" points="
  1448.66,1423.18 1448.66,1301.67 
  "/>
<polyline clip-path="url(#clip303)" style="stroke:#000000; stroke-width:2; stroke-opacity:0.1; fill:none" points="
  2040.04,1423.18 2040.04,1301.67 
  "/>
<polyline clip-path="url(#clip300)" style="stroke:#000000; stroke-width:4; stroke-opacity:1; fill:none" points="
  205.121,1423.18 2352.76,1423.18 
  "/>
<polyline clip-path="url(#clip300)" style="stroke:#000000; stroke-width:4; stroke-opacity:1; fill:none" points="
  265.903,1423.18 265.903,1421.72 
  "/>
<polyline clip-path="url(#clip300)" style="stroke:#000000; stroke-width:4; stroke-opacity:1; fill:none" points="
  857.28,1423.18 857.28,1421.72 
  "/>
<polyline clip-path="url(#clip300)" style="stroke:#000000; stroke-width:4; stroke-opacity:1; fill:none" points="
  1448.66,1423.18 1448.66,1421.72 
  "/>
<polyline clip-path="url(#clip300)" style="stroke:#000000; stroke-width:4; stroke-opacity:1; fill:none" points="
  2040.04,1423.18 2040.04,1421.72 
  "/>
<path clip-path="url(#clip300)" d="M 0 0 M182.964 1452.37 Q179.353 1452.37 177.524 1455.94 Q175.718 1459.48 175.718 1466.61 Q175.718 1473.71 177.524 1477.28 Q179.353 1480.82 182.964 1480.82 Q186.598 1480.82 188.404 1477.28 Q190.232 1473.71 190.232 1466.61 Q190.232 1459.48 188.404 1455.94 Q186.598 1452.37 182.964 1452.37 M182.964 1448.67 Q188.774 1448.67 191.829 1453.27 Q194.908 1457.86 194.908 1466.61 Q194.908 1475.33 191.829 1479.94 Q188.774 1484.52 182.964 1484.52 Q177.154 1484.52 174.075 1479.94 Q171.019 1475.33 171.019 1466.61 Q171.019 1457.86 174.075 1453.27 Q177.154 1448.67 182.964 1448.67 Z" fill="#000000" fill-rule="evenodd" fill-opacity="1" /><path clip-path="url(#clip300)" d="M 0 0 M203.126 1477.97 L208.01 1477.97 L208.01 1483.85 L203.126 1483.85 L203.126 1477.97 Z" fill="#000000" fill-rule="evenodd" fill-opacity="1" /><path clip-path="url(#clip300)" d="M 0 0 M228.195 1452.37 Q224.584 1452.37 222.755 1455.94 Q220.95 1459.48 220.95 1466.61 Q220.95 1473.71 222.755 1477.28 Q224.584 1480.82 228.195 1480.82 Q231.829 1480.82 233.635 1477.28 Q235.463 1473.71 235.463 1466.61 Q235.463 1459.48 233.635 1455.94 Q231.829 1452.37 228.195 1452.37 M228.195 1448.67 Q234.005 1448.67 237.061 1453.27 Q240.139 1457.86 240.139 1466.61 Q240.139 1475.33 237.061 1479.94 Q234.005 1484.52 228.195 1484.52 Q222.385 1484.52 219.306 1479.94 Q216.251 1475.33 216.251 1466.61 Q216.251 1457.86 219.306 1453.27 Q222.385 1448.67 228.195 1448.67 Z" fill="#000000" fill-rule="evenodd" fill-opacity="1" /><path clip-path="url(#clip300)" d="M 0 0 M258.357 1452.37 Q254.746 1452.37 252.917 1455.94 Q251.112 1459.48 251.112 1466.61 Q251.112 1473.71 252.917 1477.28 Q254.746 1480.82 258.357 1480.82 Q261.991 1480.82 263.797 1477.28 Q265.625 1473.71 265.625 1466.61 Q265.625 1459.48 263.797 1455.94 Q261.991 1452.37 258.357 1452.37 M258.357 1448.67 Q264.167 1448.67 267.223 1453.27 Q270.301 1457.86 270.301 1466.61 Q270.301 1475.33 267.223 1479.94 Q264.167 1484.52 258.357 1484.52 Q252.547 1484.52 249.468 1479.94 Q246.412 1475.33 246.412 1466.61 Q246.412 1457.86 249.468 1453.27 Q252.547 1448.67 258.357 1448.67 Z" fill="#000000" fill-rule="evenodd" fill-opacity="1" /><path clip-path="url(#clip300)" d="M 0 0 M288.519 1452.37 Q284.908 1452.37 283.079 1455.94 Q281.273 1459.48 281.273 1466.61 Q281.273 1473.71 283.079 1477.28 Q284.908 1480.82 288.519 1480.82 Q292.153 1480.82 293.959 1477.28 Q295.787 1473.71 295.787 1466.61 Q295.787 1459.48 293.959 1455.94 Q292.153 1452.37 288.519 1452.37 M288.519 1448.67 Q294.329 1448.67 297.384 1453.27 Q300.463 1457.86 300.463 1466.61 Q300.463 1475.33 297.384 1479.94 Q294.329 1484.52 288.519 1484.52 Q282.709 1484.52 279.63 1479.94 Q276.574 1475.33 276.574 1466.61 Q276.574 1457.86 279.63 1453.27 Q282.709 1448.67 288.519 1448.67 Z" fill="#000000" fill-rule="evenodd" fill-opacity="1" /><path clip-path="url(#clip300)" d="M 0 0 M318.681 1452.37 Q315.069 1452.37 313.241 1455.94 Q311.435 1459.48 311.435 1466.61 Q311.435 1473.71 313.241 1477.28 Q315.069 1480.82 318.681 1480.82 Q322.315 1480.82 324.12 1477.28 Q325.949 1473.71 325.949 1466.61 Q325.949 1459.48 324.12 1455.94 Q322.315 1452.37 318.681 1452.37 M318.681 1448.67 Q324.491 1448.67 327.546 1453.27 Q330.625 1457.86 330.625 1466.61 Q330.625 1475.33 327.546 1479.94 Q324.491 1484.52 318.681 1484.52 Q312.87 1484.52 309.792 1479.94 Q306.736 1475.33 306.736 1466.61 Q306.736 1457.86 309.792 1453.27 Q312.87 1448.67 318.681 1448.67 Z" fill="#000000" fill-rule="evenodd" fill-opacity="1" /><path clip-path="url(#clip300)" d="M 0 0 M348.842 1452.37 Q345.231 1452.37 343.403 1455.94 Q341.597 1459.48 341.597 1466.61 Q341.597 1473.71 343.403 1477.28 Q345.231 1480.82 348.842 1480.82 Q352.477 1480.82 354.282 1477.28 Q356.111 1473.71 356.111 1466.61 Q356.111 1459.48 354.282 1455.94 Q352.477 1452.37 348.842 1452.37 M348.842 1448.67 Q354.653 1448.67 357.708 1453.27 Q360.787 1457.86 360.787 1466.61 Q360.787 1475.33 357.708 1479.94 Q354.653 1484.52 348.842 1484.52 Q343.032 1484.52 339.954 1479.94 Q336.898 1475.33 336.898 1466.61 Q336.898 1457.86 339.954 1453.27 Q343.032 1448.67 348.842 1448.67 Z" fill="#000000" fill-rule="evenodd" fill-opacity="1" /><path clip-path="url(#clip300)" d="M 0 0 M774.839 1452.37 Q771.228 1452.37 769.399 1455.94 Q767.593 1459.48 767.593 1466.61 Q767.593 1473.71 769.399 1477.28 Q771.228 1480.82 774.839 1480.82 Q778.473 1480.82 780.279 1477.28 Q782.107 1473.71 782.107 1466.61 Q782.107 1459.48 780.279 1455.94 Q778.473 1452.37 774.839 1452.37 M774.839 1448.67 Q780.649 1448.67 783.704 1453.27 Q786.783 1457.86 786.783 1466.61 Q786.783 1475.33 783.704 1479.94 Q780.649 1484.52 774.839 1484.52 Q769.029 1484.52 765.95 1479.94 Q762.894 1475.33 762.894 1466.61 Q762.894 1457.86 765.95 1453.27 Q769.029 1448.67 774.839 1448.67 Z" fill="#000000" fill-rule="evenodd" fill-opacity="1" /><path clip-path="url(#clip300)" d="M 0 0 M795.001 1477.97 L799.885 1477.97 L799.885 1483.85 L795.001 1483.85 L795.001 1477.97 Z" fill="#000000" fill-rule="evenodd" fill-opacity="1" /><path clip-path="url(#clip300)" d="M 0 0 M820.07 1452.37 Q816.459 1452.37 814.63 1455.94 Q812.825 1459.48 812.825 1466.61 Q812.825 1473.71 814.63 1477.28 Q816.459 1480.82 820.07 1480.82 Q823.704 1480.82 825.51 1477.28 Q827.338 1473.71 827.338 1466.61 Q827.338 1459.48 825.51 1455.94 Q823.704 1452.37 820.07 1452.37 M820.07 1448.67 Q825.88 1448.67 828.936 1453.27 Q832.014 1457.86 832.014 1466.61 Q832.014 1475.33 828.936 1479.94 Q825.88 1484.52 820.07 1484.52 Q814.26 1484.52 811.181 1479.94 Q808.126 1475.33 808.126 1466.61 Q808.126 1457.86 811.181 1453.27 Q814.26 1448.67 820.07 1448.67 Z" fill="#000000" fill-rule="evenodd" fill-opacity="1" /><path clip-path="url(#clip300)" d="M 0 0 M850.232 1452.37 Q846.621 1452.37 844.792 1455.94 Q842.987 1459.48 842.987 1466.61 Q842.987 1473.71 844.792 1477.28 Q846.621 1480.82 850.232 1480.82 Q853.866 1480.82 855.672 1477.28 Q857.5 1473.71 857.5 1466.61 Q857.5 1459.48 855.672 1455.94 Q853.866 1452.37 850.232 1452.37 M850.232 1448.67 Q856.042 1448.67 859.098 1453.27 Q862.176 1457.86 862.176 1466.61 Q862.176 1475.33 859.098 1479.94 Q856.042 1484.52 850.232 1484.52 Q844.422 1484.52 841.343 1479.94 Q838.288 1475.33 838.288 1466.61 Q838.288 1457.86 841.343 1453.27 Q844.422 1448.67 850.232 1448.67 Z" fill="#000000" fill-rule="evenodd" fill-opacity="1" /><path clip-path="url(#clip300)" d="M 0 0 M880.394 1452.37 Q876.783 1452.37 874.954 1455.94 Q873.148 1459.48 873.148 1466.61 Q873.148 1473.71 874.954 1477.28 Q876.783 1480.82 880.394 1480.82 Q884.028 1480.82 885.834 1477.28 Q887.662 1473.71 887.662 1466.61 Q887.662 1459.48 885.834 1455.94 Q884.028 1452.37 880.394 1452.37 M880.394 1448.67 Q886.204 1448.67 889.259 1453.27 Q892.338 1457.86 892.338 1466.61 Q892.338 1475.33 889.259 1479.94 Q886.204 1484.52 880.394 1484.52 Q874.584 1484.52 871.505 1479.94 Q868.449 1475.33 868.449 1466.61 Q868.449 1457.86 871.505 1453.27 Q874.584 1448.67 880.394 1448.67 Z" fill="#000000" fill-rule="evenodd" fill-opacity="1" /><path clip-path="url(#clip300)" d="M 0 0 M910.556 1452.37 Q906.945 1452.37 905.116 1455.94 Q903.31 1459.48 903.31 1466.61 Q903.31 1473.71 905.116 1477.28 Q906.945 1480.82 910.556 1480.82 Q914.19 1480.82 915.995 1477.28 Q917.824 1473.71 917.824 1466.61 Q917.824 1459.48 915.995 1455.94 Q914.19 1452.37 910.556 1452.37 M910.556 1448.67 Q916.366 1448.67 919.421 1453.27 Q922.5 1457.86 922.5 1466.61 Q922.5 1475.33 919.421 1479.94 Q916.366 1484.52 910.556 1484.52 Q904.745 1484.52 901.667 1479.94 Q898.611 1475.33 898.611 1466.61 Q898.611 1457.86 901.667 1453.27 Q904.745 1448.67 910.556 1448.67 Z" fill="#000000" fill-rule="evenodd" fill-opacity="1" /><path clip-path="url(#clip300)" d="M 0 0 M930.764 1449.29 L949.12 1449.29 L949.12 1453.23 L935.046 1453.23 L935.046 1461.7 Q936.065 1461.35 937.083 1461.19 Q938.102 1461 939.12 1461 Q944.907 1461 948.287 1464.18 Q951.667 1467.35 951.667 1472.76 Q951.667 1478.34 948.194 1481.44 Q944.722 1484.52 938.403 1484.52 Q936.227 1484.52 933.958 1484.15 Q931.713 1483.78 929.306 1483.04 L929.306 1478.34 Q931.389 1479.48 933.611 1480.03 Q935.833 1480.59 938.31 1480.59 Q942.315 1480.59 944.653 1478.48 Q946.991 1476.38 946.991 1472.76 Q946.991 1469.15 944.653 1467.05 Q942.315 1464.94 938.31 1464.94 Q936.435 1464.94 934.56 1465.36 Q932.708 1465.77 930.764 1466.65 L930.764 1449.29 Z" fill="#000000" fill-rule="evenodd" fill-opacity="1" /><path clip-path="url(#clip300)" d="M 0 0 M1365.72 1452.37 Q1362.11 1452.37 1360.28 1455.94 Q1358.47 1459.48 1358.47 1466.61 Q1358.47 1473.71 1360.28 1477.28 Q1362.11 1480.82 1365.72 1480.82 Q1369.35 1480.82 1371.16 1477.28 Q1372.99 1473.71 1372.99 1466.61 Q1372.99 1459.48 1371.16 1455.94 Q1369.35 1452.37 1365.72 1452.37 M1365.72 1448.67 Q1371.53 1448.67 1374.58 1453.27 Q1377.66 1457.86 1377.66 1466.61 Q1377.66 1475.33 1374.58 1479.94 Q1371.53 1484.52 1365.72 1484.52 Q1359.91 1484.52 1356.83 1479.94 Q1353.77 1475.33 1353.77 1466.61 Q1353.77 1457.86 1356.83 1453.27 Q1359.91 1448.67 1365.72 1448.67 Z" fill="#000000" fill-rule="evenodd" fill-opacity="1" /><path clip-path="url(#clip300)" d="M 0 0 M1385.88 1477.97 L1390.76 1477.97 L1390.76 1483.85 L1385.88 1483.85 L1385.88 1477.97 Z" fill="#000000" fill-rule="evenodd" fill-opacity="1" /><path clip-path="url(#clip300)" d="M 0 0 M1410.95 1452.37 Q1407.34 1452.37 1405.51 1455.94 Q1403.7 1459.48 1403.7 1466.61 Q1403.7 1473.71 1405.51 1477.28 Q1407.34 1480.82 1410.95 1480.82 Q1414.58 1480.82 1416.39 1477.28 Q1418.22 1473.71 1418.22 1466.61 Q1418.22 1459.48 1416.39 1455.94 Q1414.58 1452.37 1410.95 1452.37 M1410.95 1448.67 Q1416.76 1448.67 1419.82 1453.27 Q1422.89 1457.86 1422.89 1466.61 Q1422.89 1475.33 1419.82 1479.94 Q1416.76 1484.52 1410.95 1484.52 Q1405.14 1484.52 1402.06 1479.94 Q1399.01 1475.33 1399.01 1466.61 Q1399.01 1457.86 1402.06 1453.27 Q1405.14 1448.67 1410.95 1448.67 Z" fill="#000000" fill-rule="evenodd" fill-opacity="1" /><path clip-path="url(#clip300)" d="M 0 0 M1441.11 1452.37 Q1437.5 1452.37 1435.67 1455.94 Q1433.87 1459.48 1433.87 1466.61 Q1433.87 1473.71 1435.67 1477.28 Q1437.5 1480.82 1441.11 1480.82 Q1444.75 1480.82 1446.55 1477.28 Q1448.38 1473.71 1448.38 1466.61 Q1448.38 1459.48 1446.55 1455.94 Q1444.75 1452.37 1441.11 1452.37 M1441.11 1448.67 Q1446.92 1448.67 1449.98 1453.27 Q1453.06 1457.86 1453.06 1466.61 Q1453.06 1475.33 1449.98 1479.94 Q1446.92 1484.52 1441.11 1484.52 Q1435.3 1484.52 1432.22 1479.94 Q1429.17 1475.33 1429.17 1466.61 Q1429.17 1457.86 1432.22 1453.27 Q1435.3 1448.67 1441.11 1448.67 Z" fill="#000000" fill-rule="evenodd" fill-opacity="1" /><path clip-path="url(#clip300)" d="M 0 0 M1471.27 1452.37 Q1467.66 1452.37 1465.83 1455.94 Q1464.03 1459.48 1464.03 1466.61 Q1464.03 1473.71 1465.83 1477.28 Q1467.66 1480.82 1471.27 1480.82 Q1474.91 1480.82 1476.71 1477.28 Q1478.54 1473.71 1478.54 1466.61 Q1478.54 1459.48 1476.71 1455.94 Q1474.91 1452.37 1471.27 1452.37 M1471.27 1448.67 Q1477.08 1448.67 1480.14 1453.27 Q1483.22 1457.86 1483.22 1466.61 Q1483.22 1475.33 1480.14 1479.94 Q1477.08 1484.52 1471.27 1484.52 Q1465.46 1484.52 1462.38 1479.94 Q1459.33 1475.33 1459.33 1466.61 Q1459.33 1457.86 1462.38 1453.27 Q1465.46 1448.67 1471.27 1448.67 Z" fill="#000000" fill-rule="evenodd" fill-opacity="1" /><path clip-path="url(#clip300)" d="M 0 0 M1492.25 1479.92 L1499.88 1479.92 L1499.88 1453.55 L1491.57 1455.22 L1491.57 1450.96 L1499.84 1449.29 L1504.51 1449.29 L1504.51 1479.92 L1512.15 1479.92 L1512.15 1483.85 L1492.25 1483.85 L1492.25 1479.92 Z" fill="#000000" fill-rule="evenodd" fill-opacity="1" /><path clip-path="url(#clip300)" d="M 0 0 M1531.6 1452.37 Q1527.99 1452.37 1526.16 1455.94 Q1524.35 1459.48 1524.35 1466.61 Q1524.35 1473.71 1526.16 1477.28 Q1527.99 1480.82 1531.6 1480.82 Q1535.23 1480.82 1537.04 1477.28 Q1538.87 1473.71 1538.87 1466.61 Q1538.87 1459.48 1537.04 1455.94 Q1535.23 1452.37 1531.6 1452.37 M1531.6 1448.67 Q1537.41 1448.67 1540.46 1453.27 Q1543.54 1457.86 1543.54 1466.61 Q1543.54 1475.33 1540.46 1479.94 Q1537.41 1484.52 1531.6 1484.52 Q1525.79 1484.52 1522.71 1479.94 Q1519.65 1475.33 1519.65 1466.61 Q1519.65 1457.86 1522.71 1453.27 Q1525.79 1448.67 1531.6 1448.67 Z" fill="#000000" fill-rule="evenodd" fill-opacity="1" /><path clip-path="url(#clip300)" d="M 0 0 M1957.59 1452.37 Q1953.98 1452.37 1952.15 1455.94 Q1950.35 1459.48 1950.35 1466.61 Q1950.35 1473.71 1952.15 1477.28 Q1953.98 1480.82 1957.59 1480.82 Q1961.23 1480.82 1963.03 1477.28 Q1964.86 1473.71 1964.86 1466.61 Q1964.86 1459.48 1963.03 1455.94 Q1961.23 1452.37 1957.59 1452.37 M1957.59 1448.67 Q1963.4 1448.67 1966.46 1453.27 Q1969.54 1457.86 1969.54 1466.61 Q1969.54 1475.33 1966.46 1479.94 Q1963.4 1484.52 1957.59 1484.52 Q1951.78 1484.52 1948.7 1479.94 Q1945.65 1475.33 1945.65 1466.61 Q1945.65 1457.86 1948.7 1453.27 Q1951.78 1448.67 1957.59 1448.67 Z" fill="#000000" fill-rule="evenodd" fill-opacity="1" /><path clip-path="url(#clip300)" d="M 0 0 M1977.76 1477.97 L1982.64 1477.97 L1982.64 1483.85 L1977.76 1483.85 L1977.76 1477.97 Z" fill="#000000" fill-rule="evenodd" fill-opacity="1" /><path clip-path="url(#clip300)" d="M 0 0 M2002.82 1452.37 Q1999.21 1452.37 1997.38 1455.94 Q1995.58 1459.48 1995.58 1466.61 Q1995.58 1473.71 1997.38 1477.28 Q1999.21 1480.82 2002.82 1480.82 Q2006.46 1480.82 2008.26 1477.28 Q2010.09 1473.71 2010.09 1466.61 Q2010.09 1459.48 2008.26 1455.94 Q2006.46 1452.37 2002.82 1452.37 M2002.82 1448.67 Q2008.63 1448.67 2011.69 1453.27 Q2014.77 1457.86 2014.77 1466.61 Q2014.77 1475.33 2011.69 1479.94 Q2008.63 1484.52 2002.82 1484.52 Q1997.01 1484.52 1993.94 1479.94 Q1990.88 1475.33 1990.88 1466.61 Q1990.88 1457.86 1993.94 1453.27 Q1997.01 1448.67 2002.82 1448.67 Z" fill="#000000" fill-rule="evenodd" fill-opacity="1" /><path clip-path="url(#clip300)" d="M 0 0 M2032.99 1452.37 Q2029.38 1452.37 2027.55 1455.94 Q2025.74 1459.48 2025.74 1466.61 Q2025.74 1473.71 2027.55 1477.28 Q2029.38 1480.82 2032.99 1480.82 Q2036.62 1480.82 2038.43 1477.28 Q2040.26 1473.71 2040.26 1466.61 Q2040.26 1459.48 2038.43 1455.94 Q2036.62 1452.37 2032.99 1452.37 M2032.99 1448.67 Q2038.8 1448.67 2041.85 1453.27 Q2044.93 1457.86 2044.93 1466.61 Q2044.93 1475.33 2041.85 1479.94 Q2038.8 1484.52 2032.99 1484.52 Q2027.18 1484.52 2024.1 1479.94 Q2021.04 1475.33 2021.04 1466.61 Q2021.04 1457.86 2024.1 1453.27 Q2027.18 1448.67 2032.99 1448.67 Z" fill="#000000" fill-rule="evenodd" fill-opacity="1" /><path clip-path="url(#clip300)" d="M 0 0 M2063.15 1452.37 Q2059.54 1452.37 2057.71 1455.94 Q2055.9 1459.48 2055.9 1466.61 Q2055.9 1473.71 2057.71 1477.28 Q2059.54 1480.82 2063.15 1480.82 Q2066.78 1480.82 2068.59 1477.28 Q2070.42 1473.71 2070.42 1466.61 Q2070.42 1459.48 2068.59 1455.94 Q2066.78 1452.37 2063.15 1452.37 M2063.15 1448.67 Q2068.96 1448.67 2072.01 1453.27 Q2075.09 1457.86 2075.09 1466.61 Q2075.09 1475.33 2072.01 1479.94 Q2068.96 1484.52 2063.15 1484.52 Q2057.34 1484.52 2054.26 1479.94 Q2051.2 1475.33 2051.2 1466.61 Q2051.2 1457.86 2054.26 1453.27 Q2057.34 1448.67 2063.15 1448.67 Z" fill="#000000" fill-rule="evenodd" fill-opacity="1" /><path clip-path="url(#clip300)" d="M 0 0 M2084.12 1479.92 L2091.76 1479.92 L2091.76 1453.55 L2083.45 1455.22 L2083.45 1450.96 L2091.71 1449.29 L2096.39 1449.29 L2096.39 1479.92 L2104.03 1479.92 L2104.03 1483.85 L2084.12 1483.85 L2084.12 1479.92 Z" fill="#000000" fill-rule="evenodd" fill-opacity="1" /><path clip-path="url(#clip300)" d="M 0 0 M2113.52 1449.29 L2131.87 1449.29 L2131.87 1453.23 L2117.8 1453.23 L2117.8 1461.7 Q2118.82 1461.35 2119.84 1461.19 Q2120.86 1461 2121.88 1461 Q2127.66 1461 2131.04 1464.18 Q2134.42 1467.35 2134.42 1472.76 Q2134.42 1478.34 2130.95 1481.44 Q2127.48 1484.52 2121.16 1484.52 Q2118.98 1484.52 2116.71 1484.15 Q2114.47 1483.78 2112.06 1483.04 L2112.06 1478.34 Q2114.14 1479.48 2116.37 1480.03 Q2118.59 1480.59 2121.06 1480.59 Q2125.07 1480.59 2127.41 1478.48 Q2129.75 1476.38 2129.75 1472.76 Q2129.75 1469.15 2127.41 1467.05 Q2125.07 1464.94 2121.06 1464.94 Q2119.19 1464.94 2117.31 1465.36 Q2115.46 1465.77 2113.52 1466.65 L2113.52 1449.29 Z" fill="#000000" fill-rule="evenodd" fill-opacity="1" /><path clip-path="url(#clip300)" d="M 0 0 M1107.43 1520.52 L1147.63 1520.52 L1147.63 1525.93 L1130.76 1525.93 L1130.76 1568.04 L1124.3 1568.04 L1124.3 1525.93 L1107.43 1525.93 L1107.43 1520.52 Z" fill="#000000" fill-rule="evenodd" fill-opacity="1" /><path clip-path="url(#clip300)" d="M 0 0 M1151.58 1532.4 L1157.43 1532.4 L1157.43 1568.04 L1151.58 1568.04 L1151.58 1532.4 M1151.58 1518.52 L1157.43 1518.52 L1157.43 1525.93 L1151.58 1525.93 L1151.58 1518.52 Z" fill="#000000" fill-rule="evenodd" fill-opacity="1" /><path clip-path="url(#clip300)" d="M 0 0 M1197.44 1539.24 Q1199.64 1535.29 1202.69 1533.41 Q1205.75 1531.54 1209.89 1531.54 Q1215.46 1531.54 1218.48 1535.45 Q1221.5 1539.33 1221.5 1546.53 L1221.5 1568.04 L1215.62 1568.04 L1215.62 1546.72 Q1215.62 1541.59 1213.8 1539.11 Q1211.99 1536.63 1208.26 1536.63 Q1203.71 1536.63 1201.07 1539.65 Q1198.43 1542.68 1198.43 1547.9 L1198.43 1568.04 L1192.54 1568.04 L1192.54 1546.72 Q1192.54 1541.56 1190.73 1539.11 Q1188.91 1536.63 1185.12 1536.63 Q1180.64 1536.63 1177.99 1539.68 Q1175.35 1542.71 1175.35 1547.9 L1175.35 1568.04 L1169.46 1568.04 L1169.46 1532.4 L1175.35 1532.4 L1175.35 1537.93 Q1177.36 1534.66 1180.16 1533.1 Q1182.96 1531.54 1186.81 1531.54 Q1190.69 1531.54 1193.4 1533.51 Q1196.14 1535.48 1197.44 1539.24 Z" fill="#000000" fill-rule="evenodd" fill-opacity="1" /><path clip-path="url(#clip300)" d="M 0 0 M1263.68 1548.76 L1263.68 1551.62 L1236.75 1551.62 Q1237.13 1557.67 1240.38 1560.85 Q1243.66 1564 1249.48 1564 Q1252.85 1564 1256.01 1563.17 Q1259.19 1562.35 1262.31 1560.69 L1262.31 1566.23 Q1259.16 1567.57 1255.85 1568.27 Q1252.54 1568.97 1249.13 1568.97 Q1240.6 1568.97 1235.6 1564 Q1230.64 1559.04 1230.64 1550.57 Q1230.64 1541.82 1235.35 1536.69 Q1240.09 1531.54 1248.11 1531.54 Q1255.31 1531.54 1259.48 1536.18 Q1263.68 1540.8 1263.68 1548.76 M1257.82 1547.04 Q1257.76 1542.23 1255.11 1539.37 Q1252.5 1536.5 1248.18 1536.5 Q1243.27 1536.5 1240.31 1539.27 Q1237.39 1542.04 1236.94 1547.07 L1257.82 1547.04 Z" fill="#000000" fill-rule="evenodd" fill-opacity="1" /><path clip-path="url(#clip300)" d="M 0 0 M1293.47 1518.52 L1306.96 1518.52 L1306.96 1523.07 L1299.32 1523.07 L1299.32 1572.09 L1306.96 1572.09 L1306.96 1576.64 L1293.47 1576.64 L1293.47 1518.52 Z" fill="#000000" fill-rule="evenodd" fill-opacity="1" /><path clip-path="url(#clip300)" d="M 0 0 M1348.18 1522.08 L1348.18 1528.35 Q1344.52 1526.6 1341.27 1525.74 Q1338.03 1524.88 1335 1524.88 Q1329.75 1524.88 1326.89 1526.92 Q1324.06 1528.96 1324.06 1532.71 Q1324.06 1535.87 1325.93 1537.49 Q1327.84 1539.08 1333.13 1540.07 L1337.01 1540.86 Q1344.2 1542.23 1347.61 1545.7 Q1351.05 1549.14 1351.05 1554.93 Q1351.05 1561.84 1346.4 1565.4 Q1341.78 1568.97 1332.84 1568.97 Q1329.47 1568.97 1325.65 1568.2 Q1321.86 1567.44 1317.79 1565.94 L1317.79 1559.32 Q1321.7 1561.52 1325.46 1562.63 Q1329.21 1563.75 1332.84 1563.75 Q1338.35 1563.75 1341.34 1561.58 Q1344.33 1559.42 1344.33 1555.41 Q1344.33 1551.91 1342.17 1549.93 Q1340.03 1547.96 1335.13 1546.97 L1331.22 1546.21 Q1324.02 1544.78 1320.81 1541.72 Q1317.59 1538.67 1317.59 1533.22 Q1317.59 1526.92 1322.02 1523.29 Q1326.47 1519.66 1334.27 1519.66 Q1337.61 1519.66 1341.08 1520.27 Q1344.55 1520.87 1348.18 1522.08 Z" fill="#000000" fill-rule="evenodd" fill-opacity="1" /><path clip-path="url(#clip300)" d="M 0 0 M1391.31 1548.76 L1391.31 1551.62 L1364.38 1551.62 Q1364.76 1557.67 1368.01 1560.85 Q1371.29 1564 1377.11 1564 Q1380.49 1564 1383.64 1563.17 Q1386.82 1562.35 1389.94 1560.69 L1389.94 1566.23 Q1386.79 1567.57 1383.48 1568.27 Q1380.17 1568.97 1376.76 1568.97 Q1368.23 1568.97 1363.24 1564 Q1358.27 1559.04 1358.27 1550.57 Q1358.27 1541.82 1362.98 1536.69 Q1367.72 1531.54 1375.74 1531.54 Q1382.94 1531.54 1387.11 1536.18 Q1391.31 1540.8 1391.31 1548.76 M1385.45 1547.04 Q1385.39 1542.23 1382.75 1539.37 Q1380.14 1536.5 1375.81 1536.5 Q1370.91 1536.5 1367.95 1539.27 Q1365.02 1542.04 1364.57 1547.07 L1385.45 1547.04 Z" fill="#000000" fill-rule="evenodd" fill-opacity="1" /><path clip-path="url(#clip300)" d="M 0 0 M1426.58 1533.76 L1426.58 1539.24 Q1424.09 1537.87 1421.58 1537.2 Q1419.1 1536.5 1416.55 1536.5 Q1410.85 1536.5 1407.7 1540.13 Q1404.55 1543.73 1404.55 1550.25 Q1404.55 1556.78 1407.7 1560.4 Q1410.85 1564 1416.55 1564 Q1419.1 1564 1421.58 1563.33 Q1424.09 1562.63 1426.58 1561.26 L1426.58 1566.68 Q1424.12 1567.82 1421.48 1568.39 Q1418.87 1568.97 1415.91 1568.97 Q1407.86 1568.97 1403.12 1563.91 Q1398.38 1558.85 1398.38 1550.25 Q1398.38 1541.53 1403.15 1536.53 Q1407.96 1531.54 1416.29 1531.54 Q1419 1531.54 1421.58 1532.11 Q1424.16 1532.65 1426.58 1533.76 Z" fill="#000000" fill-rule="evenodd" fill-opacity="1" /><path clip-path="url(#clip300)" d="M 0 0 M1450.45 1518.52 L1450.45 1576.64 L1436.95 1576.64 L1436.95 1572.09 L1444.56 1572.09 L1444.56 1523.07 L1436.95 1523.07 L1436.95 1518.52 L1450.45 1518.52 Z" fill="#000000" fill-rule="evenodd" fill-opacity="1" /><polyline clip-path="url(#clip300)" style="stroke:#000000; stroke-width:4; stroke-opacity:1; fill:none" points="
  205.121,1423.18 205.121,1301.67 
  "/>
<path clip-path="url(#clip300)" d="M 0 0 M76.6285 1392.07 L94.4843 1392.07 L94.4843 1383.99 Q94.4843 1379.5 92.1608 1377.05 Q89.8374 1374.6 85.5405 1374.6 Q81.2755 1374.6 78.952 1377.05 Q76.6285 1379.5 76.6285 1383.99 L76.6285 1392.07 M71.345 1398.5 L71.345 1383.99 Q71.345 1376 74.9734 1371.92 Q78.5701 1367.82 85.5405 1367.82 Q92.5746 1367.82 96.1712 1371.92 Q99.7679 1376 99.7679 1383.99 L99.7679 1392.07 L118.865 1392.07 L118.865 1398.5 L71.345 1398.5 Z" fill="#000000" fill-rule="evenodd" fill-opacity="1" /><path clip-path="url(#clip300)" d="M 0 0 M73.0955 1353.65 L83.217 1353.65 L83.217 1341.59 L87.7685 1341.59 L87.7685 1353.65 L107.12 1353.65 Q111.481 1353.65 112.722 1352.48 Q113.963 1351.27 113.963 1347.61 L113.963 1341.59 L118.865 1341.59 L118.865 1347.61 Q118.865 1354.39 116.351 1356.96 Q113.804 1359.54 107.12 1359.54 L87.7685 1359.54 L87.7685 1363.84 L83.217 1363.84 L83.217 1359.54 L73.0955 1359.54 L73.0955 1353.65 Z" fill="#000000" fill-rule="evenodd" fill-opacity="1" /><path clip-path="url(#clip300)" d="M 0 0 M110.781 1333.06 L110.781 1326.35 L118.865 1326.35 L118.865 1333.06 L110.781 1333.06 Z" fill="#000000" fill-rule="evenodd" fill-opacity="1" /><polyline clip-path="url(#clip303)" style="stroke:#009af9; stroke-width:4; stroke-opacity:1; fill:none" points="
  352.244,1544.69 352.244,1180.15 
  "/>
<polyline clip-path="url(#clip303)" style="stroke:#009af9; stroke-width:4; stroke-opacity:1; fill:none" points="
  438.585,1544.69 438.585,1180.15 
  "/>
<polyline clip-path="url(#clip303)" style="stroke:#009af9; stroke-width:4; stroke-opacity:1; fill:none" points="
  476.433,1544.69 476.433,1180.15 
  "/>
<polyline clip-path="url(#clip303)" style="stroke:#009af9; stroke-width:4; stroke-opacity:1; fill:none" points="
  565.14,1544.69 565.14,1180.15 
  "/>
<polyline clip-path="url(#clip303)" style="stroke:#009af9; stroke-width:4; stroke-opacity:1; fill:none" points="
  629.009,1544.69 629.009,1180.15 
  "/>
<polyline clip-path="url(#clip303)" style="stroke:#009af9; stroke-width:4; stroke-opacity:1; fill:none" points="
  678.684,1544.69 678.684,1180.15 
  "/>
<polyline clip-path="url(#clip303)" style="stroke:#009af9; stroke-width:4; stroke-opacity:1; fill:none" points="
  698.791,1544.69 698.791,1180.15 
  "/>
<polyline clip-path="url(#clip303)" style="stroke:#009af9; stroke-width:4; stroke-opacity:1; fill:none" points="
  728.36,1544.69 728.36,1180.15 
  "/>
<polyline clip-path="url(#clip303)" style="stroke:#009af9; stroke-width:4; stroke-opacity:1; fill:none" points="
  760.295,1544.69 760.295,1180.15 
  "/>
<polyline clip-path="url(#clip303)" style="stroke:#009af9; stroke-width:4; stroke-opacity:1; fill:none" points="
  792.229,1544.69 792.229,1180.15 
  "/>
<polyline clip-path="url(#clip303)" style="stroke:#009af9; stroke-width:4; stroke-opacity:1; fill:none" points="
  822.981,1544.69 822.981,1180.15 
  "/>
<polyline clip-path="url(#clip303)" style="stroke:#009af9; stroke-width:4; stroke-opacity:1; fill:none" points="
  866.743,1544.69 866.743,1180.15 
  "/>
<polyline clip-path="url(#clip303)" style="stroke:#009af9; stroke-width:4; stroke-opacity:1; fill:none" points="
  899.86,1544.69 899.86,1180.15 
  "/>
<polyline clip-path="url(#clip303)" style="stroke:#009af9; stroke-width:4; stroke-opacity:1; fill:none" points="
  979.104,1544.69 979.104,1180.15 
  "/>
<polyline clip-path="url(#clip303)" style="stroke:#009af9; stroke-width:4; stroke-opacity:1; fill:none" points="
  1011.04,1544.69 1011.04,1180.15 
  "/>
<polyline clip-path="url(#clip303)" style="stroke:#009af9; stroke-width:4; stroke-opacity:1; fill:none" points="
  1071.36,1544.69 1071.36,1180.15 
  "/>
<polyline clip-path="url(#clip303)" style="stroke:#009af9; stroke-width:4; stroke-opacity:1; fill:none" points="
  1124.58,1544.69 1124.58,1180.15 
  "/>
<polyline clip-path="url(#clip303)" style="stroke:#009af9; stroke-width:4; stroke-opacity:1; fill:none" points="
  1209.74,1544.69 1209.74,1180.15 
  "/>
<polyline clip-path="url(#clip303)" style="stroke:#009af9; stroke-width:4; stroke-opacity:1; fill:none" points="
  1264.16,1544.69 1264.16,1180.15 
  "/>
<polyline clip-path="url(#clip303)" style="stroke:#009af9; stroke-width:4; stroke-opacity:1; fill:none" points="
  1310.29,1544.69 1310.29,1180.15 
  "/>
<polyline clip-path="url(#clip303)" style="stroke:#009af9; stroke-width:4; stroke-opacity:1; fill:none" points="
  1339.86,1544.69 1339.86,1180.15 
  "/>
<polyline clip-path="url(#clip303)" style="stroke:#009af9; stroke-width:4; stroke-opacity:1; fill:none" points="
  1369.43,1544.69 1369.43,1180.15 
  "/>
<polyline clip-path="url(#clip303)" style="stroke:#009af9; stroke-width:4; stroke-opacity:1; fill:none" points="
  1398.99,1544.69 1398.99,1180.15 
  "/>
<polyline clip-path="url(#clip303)" style="stroke:#009af9; stroke-width:4; stroke-opacity:1; fill:none" points="
  1429.75,1544.69 1429.75,1180.15 
  "/>
<polyline clip-path="url(#clip303)" style="stroke:#009af9; stroke-width:4; stroke-opacity:1; fill:none" points="
  1459.31,1544.69 1459.31,1180.15 
  "/>
<polyline clip-path="url(#clip303)" style="stroke:#009af9; stroke-width:4; stroke-opacity:1; fill:none" points="
  1495.98,1544.69 1495.98,1180.15 
  "/>
<polyline clip-path="url(#clip303)" style="stroke:#009af9; stroke-width:4; stroke-opacity:1; fill:none" points="
  1548.02,1544.69 1548.02,1180.15 
  "/>
<polyline clip-path="url(#clip303)" style="stroke:#009af9; stroke-width:4; stroke-opacity:1; fill:none" points="
  1610.71,1544.69 1610.71,1180.15 
  "/>
<polyline clip-path="url(#clip303)" style="stroke:#009af9; stroke-width:4; stroke-opacity:1; fill:none" points="
  1708.88,1544.69 1708.88,1180.15 
  "/>
<polyline clip-path="url(#clip303)" style="stroke:#009af9; stroke-width:4; stroke-opacity:1; fill:none" points="
  1807.04,1544.69 1807.04,1180.15 
  "/>
<polyline clip-path="url(#clip303)" style="stroke:#009af9; stroke-width:4; stroke-opacity:1; fill:none" points="
  1874.46,1544.69 1874.46,1180.15 
  "/>
<polyline clip-path="url(#clip303)" style="stroke:#009af9; stroke-width:4; stroke-opacity:1; fill:none" points="
  1960.8,1544.69 1960.8,1180.15 
  "/>
<polyline clip-path="url(#clip303)" style="stroke:#009af9; stroke-width:4; stroke-opacity:1; fill:none" points="
  2029.4,1544.69 2029.4,1180.15 
  "/>
<polyline clip-path="url(#clip303)" style="stroke:#009af9; stroke-width:4; stroke-opacity:1; fill:none" points="
  2093.27,1544.69 2093.27,1180.15 
  "/>
<polyline clip-path="url(#clip303)" style="stroke:#009af9; stroke-width:4; stroke-opacity:1; fill:none" points="
  2157.14,1544.69 2157.14,1180.15 
  "/>
<polyline clip-path="url(#clip303)" style="stroke:#009af9; stroke-width:4; stroke-opacity:1; fill:none" points="
  2202.08,1544.69 2202.08,1180.15 
  "/>
<polyline clip-path="url(#clip303)" style="stroke:#009af9; stroke-width:4; stroke-opacity:1; fill:none" points="
  2231.65,1544.69 2231.65,1180.15 
  "/>
<polyline clip-path="url(#clip303)" style="stroke:#009af9; stroke-width:4; stroke-opacity:1; fill:none" points="
  2262.4,1544.69 2262.4,1180.15 
  "/>
<polyline clip-path="url(#clip303)" style="stroke:#009af9; stroke-width:4; stroke-opacity:1; fill:none" points="
  2291.97,1544.69 2291.97,1180.15 
  "/>
</svg>
