<?xml version="1.0" encoding="utf-8"?>
<svg xmlns="http://www.w3.org/2000/svg" xmlns:xlink="http://www.w3.org/1999/xlink" width="600" height="400" viewBox="0 0 2400 1600">
<defs>
  <clipPath id="clip250">
    <rect x="0" y="0" width="2400" height="1600"/>
  </clipPath>
</defs>
<path clip-path="url(#clip250)" d="
M0 1600 L2400 1600 L2400 0 L0 0  Z
  " fill="#ffffff" fill-rule="evenodd" fill-opacity="1"/>
<defs>
  <clipPath id="clip251">
    <rect x="480" y="0" width="1681" height="1600"/>
  </clipPath>
</defs>
<path clip-path="url(#clip250)" d="
M205.121 1140.87 L2352.76 1140.87 L2352.76 47.2441 L205.121 47.2441  Z
  " fill="#ffffff" fill-rule="evenodd" fill-opacity="1"/>
<defs>
  <clipPath id="clip252">
    <rect x="205" y="47" width="2149" height="1095"/>
  </clipPath>
</defs>
<polyline clip-path="url(#clip252)" style="stroke:#000000; stroke-width:2; stroke-opacity:0.1; fill:none" points="
  265.903,1140.87 265.903,47.2441 
  "/>
<polyline clip-path="url(#clip252)" style="stroke:#000000; stroke-width:2; stroke-opacity:0.1; fill:none" points="
  866.747,1140.87 866.747,47.2441 
  "/>
<polyline clip-path="url(#clip252)" style="stroke:#000000; stroke-width:2; stroke-opacity:0.1; fill:none" points="
  1467.59,1140.87 1467.59,47.2441 
  "/>
<polyline clip-path="url(#clip252)" style="stroke:#000000; stroke-width:2; stroke-opacity:0.1; fill:none" points="
  2068.44,1140.87 2068.44,47.2441 
  "/>
<polyline clip-path="url(#clip250)" style="stroke:#000000; stroke-width:4; stroke-opacity:1; fill:none" points="
  205.121,1140.87 2352.76,1140.87 
  "/>
<polyline clip-path="url(#clip250)" style="stroke:#000000; stroke-width:4; stroke-opacity:1; fill:none" points="
  265.903,1140.87 265.903,1127.75 
  "/>
<polyline clip-path="url(#clip250)" style="stroke:#000000; stroke-width:4; stroke-opacity:1; fill:none" points="
  866.747,1140.87 866.747,1127.75 
  "/>
<polyline clip-path="url(#clip250)" style="stroke:#000000; stroke-width:4; stroke-opacity:1; fill:none" points="
  1467.59,1140.87 1467.59,1127.75 
  "/>
<polyline clip-path="url(#clip250)" style="stroke:#000000; stroke-width:4; stroke-opacity:1; fill:none" points="
  2068.44,1140.87 2068.44,1127.75 
  "/>
<path clip-path="url(#clip250)" d="M 0 0 M182.964 1170.06 Q179.353 1170.06 177.524 1173.63 Q175.718 1177.17 175.718 1184.3 Q175.718 1191.4 177.524 1194.97 Q179.353 1198.51 182.964 1198.51 Q186.598 1198.51 188.404 1194.97 Q190.232 1191.4 190.232 1184.3 Q190.232 1177.17 188.404 1173.63 Q186.598 1170.06 182.964 1170.06 M182.964 1166.36 Q188.774 1166.36 191.829 1170.96 Q194.908 1175.55 194.908 1184.3 Q194.908 1193.02 191.829 1197.63 Q188.774 1202.21 182.964 1202.21 Q177.154 1202.21 174.075 1197.63 Q171.019 1193.02 171.019 1184.3 Q171.019 1175.55 174.075 1170.96 Q177.154 1166.36 182.964 1166.36 Z" fill="#000000" fill-rule="evenodd" fill-opacity="1" /><path clip-path="url(#clip250)" d="M 0 0 M203.126 1195.66 L208.01 1195.66 L208.01 1201.54 L203.126 1201.54 L203.126 1195.66 Z" fill="#000000" fill-rule="evenodd" fill-opacity="1" /><path clip-path="url(#clip250)" d="M 0 0 M228.195 1170.06 Q224.584 1170.06 222.755 1173.63 Q220.95 1177.17 220.95 1184.3 Q220.95 1191.4 222.755 1194.97 Q224.584 1198.51 228.195 1198.51 Q231.829 1198.51 233.635 1194.97 Q235.463 1191.4 235.463 1184.3 Q235.463 1177.17 233.635 1173.63 Q231.829 1170.06 228.195 1170.06 M228.195 1166.36 Q234.005 1166.36 237.061 1170.96 Q240.139 1175.55 240.139 1184.3 Q240.139 1193.02 237.061 1197.63 Q234.005 1202.21 228.195 1202.21 Q222.385 1202.21 219.306 1197.63 Q216.251 1193.02 216.251 1184.3 Q216.251 1175.55 219.306 1170.96 Q222.385 1166.36 228.195 1166.36 Z" fill="#000000" fill-rule="evenodd" fill-opacity="1" /><path clip-path="url(#clip250)" d="M 0 0 M258.357 1170.06 Q254.746 1170.06 252.917 1173.63 Q251.112 1177.17 251.112 1184.3 Q251.112 1191.4 252.917 1194.97 Q254.746 1198.51 258.357 1198.51 Q261.991 1198.51 263.797 1194.97 Q265.625 1191.4 265.625 1184.3 Q265.625 1177.17 263.797 1173.63 Q261.991 1170.06 258.357 1170.06 M258.357 1166.36 Q264.167 1166.36 267.223 1170.96 Q270.301 1175.55 270.301 1184.3 Q270.301 1193.02 267.223 1197.63 Q264.167 1202.21 258.357 1202.21 Q252.547 1202.21 249.468 1197.63 Q246.412 1193.02 246.412 1184.3 Q246.412 1175.55 249.468 1170.96 Q252.547 1166.36 258.357 1166.36 Z" fill="#000000" fill-rule="evenodd" fill-opacity="1" /><path clip-path="url(#clip250)" d="M 0 0 M288.519 1170.06 Q284.908 1170.06 283.079 1173.63 Q281.273 1177.17 281.273 1184.3 Q281.273 1191.4 283.079 1194.97 Q284.908 1198.51 288.519 1198.51 Q292.153 1198.51 293.959 1194.97 Q295.787 1191.4 295.787 1184.3 Q295.787 1177.17 293.959 1173.63 Q292.153 1170.06 288.519 1170.06 M288.519 1166.36 Q294.329 1166.36 297.384 1170.96 Q300.463 1175.55 300.463 1184.3 Q300.463 1193.02 297.384 1197.63 Q294.329 1202.21 288.519 1202.21 Q282.709 1202.21 279.63 1197.63 Q276.574 1193.02 276.574 1184.3 Q276.574 1175.55 279.63 1170.96 Q282.709 1166.36 288.519 1166.36 Z" fill="#000000" fill-rule="evenodd" fill-opacity="1" /><path clip-path="url(#clip250)" d="M 0 0 M318.681 1170.06 Q315.069 1170.06 313.241 1173.63 Q311.435 1177.17 311.435 1184.3 Q311.435 1191.4 313.241 1194.97 Q315.069 1198.51 318.681 1198.51 Q322.315 1198.51 324.12 1194.97 Q325.949 1191.4 325.949 1184.3 Q325.949 1177.17 324.12 1173.63 Q322.315 1170.06 318.681 1170.06 M318.681 1166.36 Q324.491 1166.36 327.546 1170.96 Q330.625 1175.55 330.625 1184.3 Q330.625 1193.02 327.546 1197.63 Q324.491 1202.21 318.681 1202.21 Q312.87 1202.21 309.792 1197.63 Q306.736 1193.02 306.736 1184.3 Q306.736 1175.55 309.792 1170.96 Q312.87 1166.36 318.681 1166.36 Z" fill="#000000" fill-rule="evenodd" fill-opacity="1" /><path clip-path="url(#clip250)" d="M 0 0 M348.842 1170.06 Q345.231 1170.06 343.403 1173.63 Q341.597 1177.17 341.597 1184.3 Q341.597 1191.4 343.403 1194.97 Q345.231 1198.51 348.842 1198.51 Q352.477 1198.51 354.282 1194.97 Q356.111 1191.4 356.111 1184.3 Q356.111 1177.17 354.282 1173.63 Q352.477 1170.06 348.842 1170.06 M348.842 1166.36 Q354.653 1166.36 357.708 1170.96 Q360.787 1175.55 360.787 1184.3 Q360.787 1193.02 357.708 1197.63 Q354.653 1202.21 348.842 1202.21 Q343.032 1202.21 339.954 1197.63 Q336.898 1193.02 336.898 1184.3 Q336.898 1175.55 339.954 1170.96 Q343.032 1166.36 348.842 1166.36 Z" fill="#000000" fill-rule="evenodd" fill-opacity="1" /><path clip-path="url(#clip250)" d="M 0 0 M784.306 1170.06 Q780.695 1170.06 778.866 1173.63 Q777.06 1177.17 777.06 1184.3 Q777.06 1191.4 778.866 1194.97 Q780.695 1198.51 784.306 1198.51 Q787.94 1198.51 789.745 1194.97 Q791.574 1191.4 791.574 1184.3 Q791.574 1177.17 789.745 1173.63 Q787.94 1170.06 784.306 1170.06 M784.306 1166.36 Q790.116 1166.36 793.171 1170.96 Q796.25 1175.55 796.25 1184.3 Q796.25 1193.02 793.171 1197.63 Q790.116 1202.21 784.306 1202.21 Q778.495 1202.21 775.417 1197.63 Q772.361 1193.02 772.361 1184.3 Q772.361 1175.55 775.417 1170.96 Q778.495 1166.36 784.306 1166.36 Z" fill="#000000" fill-rule="evenodd" fill-opacity="1" /><path clip-path="url(#clip250)" d="M 0 0 M804.468 1195.66 L809.352 1195.66 L809.352 1201.54 L804.468 1201.54 L804.468 1195.66 Z" fill="#000000" fill-rule="evenodd" fill-opacity="1" /><path clip-path="url(#clip250)" d="M 0 0 M829.537 1170.06 Q825.926 1170.06 824.097 1173.63 Q822.292 1177.17 822.292 1184.3 Q822.292 1191.4 824.097 1194.97 Q825.926 1198.51 829.537 1198.51 Q833.171 1198.51 834.977 1194.97 Q836.805 1191.4 836.805 1184.3 Q836.805 1177.17 834.977 1173.63 Q833.171 1170.06 829.537 1170.06 M829.537 1166.36 Q835.347 1166.36 838.403 1170.96 Q841.481 1175.55 841.481 1184.3 Q841.481 1193.02 838.403 1197.63 Q835.347 1202.21 829.537 1202.21 Q823.727 1202.21 820.648 1197.63 Q817.592 1193.02 817.592 1184.3 Q817.592 1175.55 820.648 1170.96 Q823.727 1166.36 829.537 1166.36 Z" fill="#000000" fill-rule="evenodd" fill-opacity="1" /><path clip-path="url(#clip250)" d="M 0 0 M859.699 1170.06 Q856.088 1170.06 854.259 1173.63 Q852.453 1177.17 852.453 1184.3 Q852.453 1191.4 854.259 1194.97 Q856.088 1198.51 859.699 1198.51 Q863.333 1198.51 865.139 1194.97 Q866.967 1191.4 866.967 1184.3 Q866.967 1177.17 865.139 1173.63 Q863.333 1170.06 859.699 1170.06 M859.699 1166.36 Q865.509 1166.36 868.564 1170.96 Q871.643 1175.55 871.643 1184.3 Q871.643 1193.02 868.564 1197.63 Q865.509 1202.21 859.699 1202.21 Q853.889 1202.21 850.81 1197.63 Q847.754 1193.02 847.754 1184.3 Q847.754 1175.55 850.81 1170.96 Q853.889 1166.36 859.699 1166.36 Z" fill="#000000" fill-rule="evenodd" fill-opacity="1" /><path clip-path="url(#clip250)" d="M 0 0 M889.861 1170.06 Q886.25 1170.06 884.421 1173.63 Q882.615 1177.17 882.615 1184.3 Q882.615 1191.4 884.421 1194.97 Q886.25 1198.51 889.861 1198.51 Q893.495 1198.51 895.3 1194.97 Q897.129 1191.4 897.129 1184.3 Q897.129 1177.17 895.3 1173.63 Q893.495 1170.06 889.861 1170.06 M889.861 1166.36 Q895.671 1166.36 898.726 1170.96 Q901.805 1175.55 901.805 1184.3 Q901.805 1193.02 898.726 1197.63 Q895.671 1202.21 889.861 1202.21 Q884.05 1202.21 880.972 1197.63 Q877.916 1193.02 877.916 1184.3 Q877.916 1175.55 880.972 1170.96 Q884.05 1166.36 889.861 1166.36 Z" fill="#000000" fill-rule="evenodd" fill-opacity="1" /><path clip-path="url(#clip250)" d="M 0 0 M920.022 1170.06 Q916.411 1170.06 914.583 1173.63 Q912.777 1177.17 912.777 1184.3 Q912.777 1191.4 914.583 1194.97 Q916.411 1198.51 920.022 1198.51 Q923.657 1198.51 925.462 1194.97 Q927.291 1191.4 927.291 1184.3 Q927.291 1177.17 925.462 1173.63 Q923.657 1170.06 920.022 1170.06 M920.022 1166.36 Q925.833 1166.36 928.888 1170.96 Q931.967 1175.55 931.967 1184.3 Q931.967 1193.02 928.888 1197.63 Q925.833 1202.21 920.022 1202.21 Q914.212 1202.21 911.134 1197.63 Q908.078 1193.02 908.078 1184.3 Q908.078 1175.55 911.134 1170.96 Q914.212 1166.36 920.022 1166.36 Z" fill="#000000" fill-rule="evenodd" fill-opacity="1" /><path clip-path="url(#clip250)" d="M 0 0 M940.231 1166.98 L958.587 1166.98 L958.587 1170.92 L944.513 1170.92 L944.513 1179.39 Q945.532 1179.04 946.55 1178.88 Q947.569 1178.69 948.587 1178.69 Q954.374 1178.69 957.754 1181.87 Q961.133 1185.04 961.133 1190.45 Q961.133 1196.03 957.661 1199.13 Q954.189 1202.21 947.87 1202.21 Q945.694 1202.21 943.425 1201.84 Q941.18 1201.47 938.772 1200.73 L938.772 1196.03 Q940.856 1197.17 943.078 1197.72 Q945.3 1198.28 947.777 1198.28 Q951.782 1198.28 954.12 1196.17 Q956.457 1194.06 956.457 1190.45 Q956.457 1186.84 954.12 1184.74 Q951.782 1182.63 947.777 1182.63 Q945.902 1182.63 944.027 1183.05 Q942.175 1183.46 940.231 1184.34 L940.231 1166.98 Z" fill="#000000" fill-rule="evenodd" fill-opacity="1" /><path clip-path="url(#clip250)" d="M 0 0 M1384.65 1170.06 Q1381.04 1170.06 1379.21 1173.63 Q1377.41 1177.17 1377.41 1184.3 Q1377.41 1191.4 1379.21 1194.97 Q1381.04 1198.51 1384.65 1198.51 Q1388.29 1198.51 1390.09 1194.97 Q1391.92 1191.4 1391.92 1184.3 Q1391.92 1177.17 1390.09 1173.63 Q1388.29 1170.06 1384.65 1170.06 M1384.65 1166.36 Q1390.46 1166.36 1393.52 1170.96 Q1396.6 1175.55 1396.6 1184.3 Q1396.6 1193.02 1393.52 1197.63 Q1390.46 1202.21 1384.65 1202.21 Q1378.84 1202.21 1375.76 1197.63 Q1372.71 1193.02 1372.71 1184.3 Q1372.71 1175.55 1375.76 1170.96 Q1378.84 1166.36 1384.65 1166.36 Z" fill="#000000" fill-rule="evenodd" fill-opacity="1" /><path clip-path="url(#clip250)" d="M 0 0 M1404.81 1195.66 L1409.7 1195.66 L1409.7 1201.54 L1404.81 1201.54 L1404.81 1195.66 Z" fill="#000000" fill-rule="evenodd" fill-opacity="1" /><path clip-path="url(#clip250)" d="M 0 0 M1429.88 1170.06 Q1426.27 1170.06 1424.44 1173.63 Q1422.64 1177.17 1422.64 1184.3 Q1422.64 1191.4 1424.44 1194.97 Q1426.27 1198.51 1429.88 1198.51 Q1433.52 1198.51 1435.32 1194.97 Q1437.15 1191.4 1437.15 1184.3 Q1437.15 1177.17 1435.32 1173.63 Q1433.52 1170.06 1429.88 1170.06 M1429.88 1166.36 Q1435.69 1166.36 1438.75 1170.96 Q1441.83 1175.55 1441.83 1184.3 Q1441.83 1193.02 1438.75 1197.63 Q1435.69 1202.21 1429.88 1202.21 Q1424.07 1202.21 1420.99 1197.63 Q1417.94 1193.02 1417.94 1184.3 Q1417.94 1175.55 1420.99 1170.96 Q1424.07 1166.36 1429.88 1166.36 Z" fill="#000000" fill-rule="evenodd" fill-opacity="1" /><path clip-path="url(#clip250)" d="M 0 0 M1460.05 1170.06 Q1456.43 1170.06 1454.61 1173.63 Q1452.8 1177.17 1452.8 1184.3 Q1452.8 1191.4 1454.61 1194.97 Q1456.43 1198.51 1460.05 1198.51 Q1463.68 1198.51 1465.49 1194.97 Q1467.31 1191.4 1467.31 1184.3 Q1467.31 1177.17 1465.49 1173.63 Q1463.68 1170.06 1460.05 1170.06 M1460.05 1166.36 Q1465.86 1166.36 1468.91 1170.96 Q1471.99 1175.55 1471.99 1184.3 Q1471.99 1193.02 1468.91 1197.63 Q1465.86 1202.21 1460.05 1202.21 Q1454.24 1202.21 1451.16 1197.63 Q1448.1 1193.02 1448.1 1184.3 Q1448.1 1175.55 1451.16 1170.96 Q1454.24 1166.36 1460.05 1166.36 Z" fill="#000000" fill-rule="evenodd" fill-opacity="1" /><path clip-path="url(#clip250)" d="M 0 0 M1490.21 1170.06 Q1486.6 1170.06 1484.77 1173.63 Q1482.96 1177.17 1482.96 1184.3 Q1482.96 1191.4 1484.77 1194.97 Q1486.6 1198.51 1490.21 1198.51 Q1493.84 1198.51 1495.65 1194.97 Q1497.48 1191.4 1497.48 1184.3 Q1497.48 1177.17 1495.65 1173.63 Q1493.84 1170.06 1490.21 1170.06 M1490.21 1166.36 Q1496.02 1166.36 1499.07 1170.96 Q1502.15 1175.55 1502.15 1184.3 Q1502.15 1193.02 1499.07 1197.63 Q1496.02 1202.21 1490.21 1202.21 Q1484.4 1202.21 1481.32 1197.63 Q1478.26 1193.02 1478.26 1184.3 Q1478.26 1175.55 1481.32 1170.96 Q1484.4 1166.36 1490.21 1166.36 Z" fill="#000000" fill-rule="evenodd" fill-opacity="1" /><path clip-path="url(#clip250)" d="M 0 0 M1511.18 1197.61 L1518.82 1197.61 L1518.82 1171.24 L1510.51 1172.91 L1510.51 1168.65 L1518.77 1166.98 L1523.45 1166.98 L1523.45 1197.61 L1531.09 1197.61 L1531.09 1201.54 L1511.18 1201.54 L1511.18 1197.61 Z" fill="#000000" fill-rule="evenodd" fill-opacity="1" /><path clip-path="url(#clip250)" d="M 0 0 M1550.53 1170.06 Q1546.92 1170.06 1545.09 1173.63 Q1543.29 1177.17 1543.29 1184.3 Q1543.29 1191.4 1545.09 1194.97 Q1546.92 1198.51 1550.53 1198.51 Q1554.17 1198.51 1555.97 1194.97 Q1557.8 1191.4 1557.8 1184.3 Q1557.8 1177.17 1555.97 1173.63 Q1554.17 1170.06 1550.53 1170.06 M1550.53 1166.36 Q1556.34 1166.36 1559.4 1170.96 Q1562.48 1175.55 1562.48 1184.3 Q1562.48 1193.02 1559.4 1197.63 Q1556.34 1202.21 1550.53 1202.21 Q1544.72 1202.21 1541.64 1197.63 Q1538.59 1193.02 1538.59 1184.3 Q1538.59 1175.55 1541.64 1170.96 Q1544.72 1166.36 1550.53 1166.36 Z" fill="#000000" fill-rule="evenodd" fill-opacity="1" /><path clip-path="url(#clip250)" d="M 0 0 M1985.99 1170.06 Q1982.38 1170.06 1980.55 1173.63 Q1978.75 1177.17 1978.75 1184.3 Q1978.75 1191.4 1980.55 1194.97 Q1982.38 1198.51 1985.99 1198.51 Q1989.63 1198.51 1991.43 1194.97 Q1993.26 1191.4 1993.26 1184.3 Q1993.26 1177.17 1991.43 1173.63 Q1989.63 1170.06 1985.99 1170.06 M1985.99 1166.36 Q1991.8 1166.36 1994.86 1170.96 Q1997.94 1175.55 1997.94 1184.3 Q1997.94 1193.02 1994.86 1197.63 Q1991.8 1202.21 1985.99 1202.21 Q1980.18 1202.21 1977.11 1197.63 Q1974.05 1193.02 1974.05 1184.3 Q1974.05 1175.55 1977.11 1170.96 Q1980.18 1166.36 1985.99 1166.36 Z" fill="#000000" fill-rule="evenodd" fill-opacity="1" /><path clip-path="url(#clip250)" d="M 0 0 M2006.16 1195.66 L2011.04 1195.66 L2011.04 1201.54 L2006.16 1201.54 L2006.16 1195.66 Z" fill="#000000" fill-rule="evenodd" fill-opacity="1" /><path clip-path="url(#clip250)" d="M 0 0 M2031.23 1170.06 Q2027.61 1170.06 2025.79 1173.63 Q2023.98 1177.17 2023.98 1184.3 Q2023.98 1191.4 2025.79 1194.97 Q2027.61 1198.51 2031.23 1198.51 Q2034.86 1198.51 2036.67 1194.97 Q2038.49 1191.4 2038.49 1184.3 Q2038.49 1177.17 2036.67 1173.63 Q2034.86 1170.06 2031.23 1170.06 M2031.23 1166.36 Q2037.04 1166.36 2040.09 1170.96 Q2043.17 1175.55 2043.17 1184.3 Q2043.17 1193.02 2040.09 1197.63 Q2037.04 1202.21 2031.23 1202.21 Q2025.42 1202.21 2022.34 1197.63 Q2019.28 1193.02 2019.28 1184.3 Q2019.28 1175.55 2022.34 1170.96 Q2025.42 1166.36 2031.23 1166.36 Z" fill="#000000" fill-rule="evenodd" fill-opacity="1" /><path clip-path="url(#clip250)" d="M 0 0 M2061.39 1170.06 Q2057.78 1170.06 2055.95 1173.63 Q2054.14 1177.17 2054.14 1184.3 Q2054.14 1191.4 2055.95 1194.97 Q2057.78 1198.51 2061.39 1198.51 Q2065.02 1198.51 2066.83 1194.97 Q2068.66 1191.4 2068.66 1184.3 Q2068.66 1177.17 2066.83 1173.63 Q2065.02 1170.06 2061.39 1170.06 M2061.39 1166.36 Q2067.2 1166.36 2070.25 1170.96 Q2073.33 1175.55 2073.33 1184.3 Q2073.33 1193.02 2070.25 1197.63 Q2067.2 1202.21 2061.39 1202.21 Q2055.58 1202.21 2052.5 1197.63 Q2049.44 1193.02 2049.44 1184.3 Q2049.44 1175.55 2052.5 1170.96 Q2055.58 1166.36 2061.39 1166.36 Z" fill="#000000" fill-rule="evenodd" fill-opacity="1" /><path clip-path="url(#clip250)" d="M 0 0 M2091.55 1170.06 Q2087.94 1170.06 2086.11 1173.63 Q2084.3 1177.17 2084.3 1184.3 Q2084.3 1191.4 2086.11 1194.97 Q2087.94 1198.51 2091.55 1198.51 Q2095.18 1198.51 2096.99 1194.97 Q2098.82 1191.4 2098.82 1184.3 Q2098.82 1177.17 2096.99 1173.63 Q2095.18 1170.06 2091.55 1170.06 M2091.55 1166.36 Q2097.36 1166.36 2100.41 1170.96 Q2103.49 1175.55 2103.49 1184.3 Q2103.49 1193.02 2100.41 1197.63 Q2097.36 1202.21 2091.55 1202.21 Q2085.74 1202.21 2082.66 1197.63 Q2079.6 1193.02 2079.6 1184.3 Q2079.6 1175.55 2082.66 1170.96 Q2085.74 1166.36 2091.55 1166.36 Z" fill="#000000" fill-rule="evenodd" fill-opacity="1" /><path clip-path="url(#clip250)" d="M 0 0 M2112.52 1197.61 L2120.16 1197.61 L2120.16 1171.24 L2111.85 1172.91 L2111.85 1168.65 L2120.11 1166.98 L2124.79 1166.98 L2124.79 1197.61 L2132.43 1197.61 L2132.43 1201.54 L2112.52 1201.54 L2112.52 1197.61 Z" fill="#000000" fill-rule="evenodd" fill-opacity="1" /><path clip-path="url(#clip250)" d="M 0 0 M2141.92 1166.98 L2160.28 1166.98 L2160.28 1170.92 L2146.2 1170.92 L2146.2 1179.39 Q2147.22 1179.04 2148.24 1178.88 Q2149.26 1178.69 2150.28 1178.69 Q2156.06 1178.69 2159.44 1181.87 Q2162.82 1185.04 2162.82 1190.45 Q2162.82 1196.03 2159.35 1199.13 Q2155.88 1202.21 2149.56 1202.21 Q2147.38 1202.21 2145.11 1201.84 Q2142.87 1201.47 2140.46 1200.73 L2140.46 1196.03 Q2142.54 1197.17 2144.77 1197.72 Q2146.99 1198.28 2149.47 1198.28 Q2153.47 1198.28 2155.81 1196.17 Q2158.15 1194.06 2158.15 1190.45 Q2158.15 1186.84 2155.81 1184.74 Q2153.47 1182.63 2149.47 1182.63 Q2147.59 1182.63 2145.72 1183.05 Q2143.86 1183.46 2141.92 1184.34 L2141.92 1166.98 Z" fill="#000000" fill-rule="evenodd" fill-opacity="1" /><polyline clip-path="url(#clip252)" style="stroke:#000000; stroke-width:2; stroke-opacity:0.1; fill:none" points="
  205.121,1109.92 2352.76,1109.92 
  "/>
<polyline clip-path="url(#clip252)" style="stroke:#000000; stroke-width:2; stroke-opacity:0.1; fill:none" points="
  205.121,937.964 2352.76,937.964 
  "/>
<polyline clip-path="url(#clip252)" style="stroke:#000000; stroke-width:2; stroke-opacity:0.1; fill:none" points="
  205.121,766.011 2352.76,766.011 
  "/>
<polyline clip-path="url(#clip252)" style="stroke:#000000; stroke-width:2; stroke-opacity:0.1; fill:none" points="
  205.121,594.057 2352.76,594.057 
  "/>
<polyline clip-path="url(#clip252)" style="stroke:#000000; stroke-width:2; stroke-opacity:0.1; fill:none" points="
  205.121,422.103 2352.76,422.103 
  "/>
<polyline clip-path="url(#clip252)" style="stroke:#000000; stroke-width:2; stroke-opacity:0.1; fill:none" points="
  205.121,250.149 2352.76,250.149 
  "/>
<polyline clip-path="url(#clip252)" style="stroke:#000000; stroke-width:2; stroke-opacity:0.1; fill:none" points="
  205.121,78.1958 2352.76,78.1958 
  "/>
<polyline clip-path="url(#clip250)" style="stroke:#000000; stroke-width:4; stroke-opacity:1; fill:none" points="
  205.121,1140.87 205.121,47.2441 
  "/>
<polyline clip-path="url(#clip250)" style="stroke:#000000; stroke-width:4; stroke-opacity:1; fill:none" points="
  205.121,1109.92 230.893,1109.92 
  "/>
<polyline clip-path="url(#clip250)" style="stroke:#000000; stroke-width:4; stroke-opacity:1; fill:none" points="
  205.121,937.964 230.893,937.964 
  "/>
<polyline clip-path="url(#clip250)" style="stroke:#000000; stroke-width:4; stroke-opacity:1; fill:none" points="
  205.121,766.011 230.893,766.011 
  "/>
<polyline clip-path="url(#clip250)" style="stroke:#000000; stroke-width:4; stroke-opacity:1; fill:none" points="
  205.121,594.057 230.893,594.057 
  "/>
<polyline clip-path="url(#clip250)" style="stroke:#000000; stroke-width:4; stroke-opacity:1; fill:none" points="
  205.121,422.103 230.893,422.103 
  "/>
<polyline clip-path="url(#clip250)" style="stroke:#000000; stroke-width:4; stroke-opacity:1; fill:none" points="
  205.121,250.149 230.893,250.149 
  "/>
<polyline clip-path="url(#clip250)" style="stroke:#000000; stroke-width:4; stroke-opacity:1; fill:none" points="
  205.121,78.1958 230.893,78.1958 
  "/>
<path clip-path="url(#clip250)" d="M 0 0 M157.177 1095.72 Q153.566 1095.72 151.737 1099.28 Q149.931 1102.82 149.931 1109.95 Q149.931 1117.06 151.737 1120.62 Q153.566 1124.17 157.177 1124.17 Q160.811 1124.17 162.616 1120.62 Q164.445 1117.06 164.445 1109.95 Q164.445 1102.82 162.616 1099.28 Q160.811 1095.72 157.177 1095.72 M157.177 1092.01 Q162.987 1092.01 166.042 1096.62 Q169.121 1101.2 169.121 1109.95 Q169.121 1118.68 166.042 1123.29 Q162.987 1127.87 157.177 1127.87 Q151.366 1127.87 148.288 1123.29 Q145.232 1118.68 145.232 1109.95 Q145.232 1101.2 148.288 1096.62 Q151.366 1092.01 157.177 1092.01 Z" fill="#000000" fill-rule="evenodd" fill-opacity="1" /><path clip-path="url(#clip250)" d="M 0 0 M117.825 951.309 L125.464 951.309 L125.464 924.944 L117.154 926.61 L117.154 922.351 L125.418 920.684 L130.093 920.684 L130.093 951.309 L137.732 951.309 L137.732 955.244 L117.825 955.244 L117.825 951.309 Z" fill="#000000" fill-rule="evenodd" fill-opacity="1" /><path clip-path="url(#clip250)" d="M 0 0 M157.177 923.763 Q153.566 923.763 151.737 927.328 Q149.931 930.869 149.931 937.999 Q149.931 945.105 151.737 948.67 Q153.566 952.212 157.177 952.212 Q160.811 952.212 162.616 948.67 Q164.445 945.105 164.445 937.999 Q164.445 930.869 162.616 927.328 Q160.811 923.763 157.177 923.763 M157.177 920.059 Q162.987 920.059 166.042 924.666 Q169.121 929.249 169.121 937.999 Q169.121 946.726 166.042 951.332 Q162.987 955.916 157.177 955.916 Q151.366 955.916 148.288 951.332 Q145.232 946.726 145.232 937.999 Q145.232 929.249 148.288 924.666 Q151.366 920.059 157.177 920.059 Z" fill="#000000" fill-rule="evenodd" fill-opacity="1" /><path clip-path="url(#clip250)" d="M 0 0 M121.043 779.355 L137.362 779.355 L137.362 783.291 L115.418 783.291 L115.418 779.355 Q118.08 776.601 122.663 771.971 Q127.269 767.318 128.45 765.976 Q130.695 763.453 131.575 761.717 Q132.478 759.957 132.478 758.268 Q132.478 755.513 130.533 753.777 Q128.612 752.041 125.51 752.041 Q123.311 752.041 120.857 752.805 Q118.427 753.569 115.649 755.119 L115.649 750.397 Q118.473 749.263 120.927 748.684 Q123.38 748.106 125.418 748.106 Q130.788 748.106 133.982 750.791 Q137.177 753.476 137.177 757.967 Q137.177 760.096 136.367 762.018 Q135.579 763.916 133.473 766.508 Q132.894 767.18 129.792 770.397 Q126.691 773.592 121.043 779.355 Z" fill="#000000" fill-rule="evenodd" fill-opacity="1" /><path clip-path="url(#clip250)" d="M 0 0 M157.177 751.809 Q153.566 751.809 151.737 755.374 Q149.931 758.916 149.931 766.045 Q149.931 773.152 151.737 776.717 Q153.566 780.258 157.177 780.258 Q160.811 780.258 162.616 776.717 Q164.445 773.152 164.445 766.045 Q164.445 758.916 162.616 755.374 Q160.811 751.809 157.177 751.809 M157.177 748.106 Q162.987 748.106 166.042 752.712 Q169.121 757.295 169.121 766.045 Q169.121 774.772 166.042 779.379 Q162.987 783.962 157.177 783.962 Q151.366 783.962 148.288 779.379 Q145.232 774.772 145.232 766.045 Q145.232 757.295 148.288 752.712 Q151.366 748.106 157.177 748.106 Z" fill="#000000" fill-rule="evenodd" fill-opacity="1" /><path clip-path="url(#clip250)" d="M 0 0 M131.181 592.703 Q134.538 593.42 136.413 595.689 Q138.311 597.957 138.311 601.291 Q138.311 606.406 134.792 609.207 Q131.274 612.008 124.793 612.008 Q122.617 612.008 120.302 611.568 Q118.01 611.152 115.556 610.295 L115.556 605.781 Q117.501 606.916 119.816 607.494 Q122.13 608.073 124.654 608.073 Q129.052 608.073 131.343 606.337 Q133.658 604.601 133.658 601.291 Q133.658 598.235 131.505 596.522 Q129.376 594.786 125.556 594.786 L121.529 594.786 L121.529 590.943 L125.742 590.943 Q129.191 590.943 131.019 589.578 Q132.848 588.189 132.848 585.596 Q132.848 582.934 130.95 581.522 Q129.075 580.087 125.556 580.087 Q123.635 580.087 121.436 580.504 Q119.237 580.92 116.598 581.8 L116.598 577.633 Q119.26 576.893 121.575 576.522 Q123.913 576.152 125.973 576.152 Q131.297 576.152 134.399 578.582 Q137.501 580.99 137.501 585.11 Q137.501 587.981 135.857 589.971 Q134.214 591.939 131.181 592.703 Z" fill="#000000" fill-rule="evenodd" fill-opacity="1" /><path clip-path="url(#clip250)" d="M 0 0 M157.177 579.856 Q153.566 579.856 151.737 583.42 Q149.931 586.962 149.931 594.092 Q149.931 601.198 151.737 604.763 Q153.566 608.304 157.177 608.304 Q160.811 608.304 162.616 604.763 Q164.445 601.198 164.445 594.092 Q164.445 586.962 162.616 583.42 Q160.811 579.856 157.177 579.856 M157.177 576.152 Q162.987 576.152 166.042 580.758 Q169.121 585.342 169.121 594.092 Q169.121 602.818 166.042 607.425 Q162.987 612.008 157.177 612.008 Q151.366 612.008 148.288 607.425 Q145.232 602.818 145.232 594.092 Q145.232 585.342 148.288 580.758 Q151.366 576.152 157.177 576.152 Z" fill="#000000" fill-rule="evenodd" fill-opacity="1" /><path clip-path="url(#clip250)" d="M 0 0 M129.862 408.897 L118.056 427.346 L129.862 427.346 L129.862 408.897 M128.635 404.823 L134.515 404.823 L134.515 427.346 L139.445 427.346 L139.445 431.235 L134.515 431.235 L134.515 439.383 L129.862 439.383 L129.862 431.235 L114.26 431.235 L114.26 426.721 L128.635 404.823 Z" fill="#000000" fill-rule="evenodd" fill-opacity="1" /><path clip-path="url(#clip250)" d="M 0 0 M157.177 407.902 Q153.566 407.902 151.737 411.467 Q149.931 415.008 149.931 422.138 Q149.931 429.244 151.737 432.809 Q153.566 436.351 157.177 436.351 Q160.811 436.351 162.616 432.809 Q164.445 429.244 164.445 422.138 Q164.445 415.008 162.616 411.467 Q160.811 407.902 157.177 407.902 M157.177 404.198 Q162.987 404.198 166.042 408.805 Q169.121 413.388 169.121 422.138 Q169.121 430.865 166.042 435.471 Q162.987 440.054 157.177 440.054 Q151.366 440.054 148.288 435.471 Q145.232 430.865 145.232 422.138 Q145.232 413.388 148.288 408.805 Q151.366 404.198 157.177 404.198 Z" fill="#000000" fill-rule="evenodd" fill-opacity="1" /><path clip-path="url(#clip250)" d="M 0 0 M117.061 232.869 L135.417 232.869 L135.417 236.805 L121.343 236.805 L121.343 245.277 Q122.362 244.93 123.38 244.768 Q124.399 244.582 125.418 244.582 Q131.205 244.582 134.584 247.754 Q137.964 250.925 137.964 256.342 Q137.964 261.92 134.492 265.022 Q131.019 268.101 124.7 268.101 Q122.524 268.101 120.255 267.73 Q118.01 267.36 115.603 266.619 L115.603 261.92 Q117.686 263.054 119.908 263.61 Q122.13 264.166 124.607 264.166 Q128.612 264.166 130.95 262.059 Q133.288 259.953 133.288 256.342 Q133.288 252.73 130.95 250.624 Q128.612 248.518 124.607 248.518 Q122.732 248.518 120.857 248.934 Q119.006 249.351 117.061 250.23 L117.061 232.869 Z" fill="#000000" fill-rule="evenodd" fill-opacity="1" /><path clip-path="url(#clip250)" d="M 0 0 M157.177 235.948 Q153.566 235.948 151.737 239.513 Q149.931 243.055 149.931 250.184 Q149.931 257.291 151.737 260.855 Q153.566 264.397 157.177 264.397 Q160.811 264.397 162.616 260.855 Q164.445 257.291 164.445 250.184 Q164.445 243.055 162.616 239.513 Q160.811 235.948 157.177 235.948 M157.177 232.244 Q162.987 232.244 166.042 236.851 Q169.121 241.434 169.121 250.184 Q169.121 258.911 166.042 263.517 Q162.987 268.101 157.177 268.101 Q151.366 268.101 148.288 263.517 Q145.232 258.911 145.232 250.184 Q145.232 241.434 148.288 236.851 Q151.366 232.244 157.177 232.244 Z" fill="#000000" fill-rule="evenodd" fill-opacity="1" /><path clip-path="url(#clip250)" d="M 0 0 M127.593 76.3323 Q124.445 76.3323 122.593 78.4851 Q120.765 80.6379 120.765 84.3879 Q120.765 88.1147 122.593 90.2906 Q124.445 92.4434 127.593 92.4434 Q130.742 92.4434 132.57 90.2906 Q134.422 88.1147 134.422 84.3879 Q134.422 80.6379 132.57 78.4851 Q130.742 76.3323 127.593 76.3323 M136.876 61.6796 L136.876 65.9389 Q135.117 65.1056 133.311 64.6657 Q131.529 64.2259 129.769 64.2259 Q125.14 64.2259 122.686 67.3509 Q120.255 70.4759 119.908 76.7953 Q121.274 74.7814 123.334 73.7166 Q125.394 72.6287 127.871 72.6287 Q133.08 72.6287 136.089 75.7999 Q139.121 78.9481 139.121 84.3879 Q139.121 89.7119 135.973 92.9295 Q132.825 96.1471 127.593 96.1471 Q121.598 96.1471 118.427 91.5637 Q115.256 86.9573 115.256 78.2305 Q115.256 70.0361 119.144 65.175 Q123.033 60.2908 129.584 60.2908 Q131.343 60.2908 133.126 60.638 Q134.931 60.9852 136.876 61.6796 Z" fill="#000000" fill-rule="evenodd" fill-opacity="1" /><path clip-path="url(#clip250)" d="M 0 0 M157.177 63.9944 Q153.566 63.9944 151.737 67.5592 Q149.931 71.1009 149.931 78.2305 Q149.931 85.3369 151.737 88.9017 Q153.566 92.4434 157.177 92.4434 Q160.811 92.4434 162.616 88.9017 Q164.445 85.3369 164.445 78.2305 Q164.445 71.1009 162.616 67.5592 Q160.811 63.9944 157.177 63.9944 M157.177 60.2908 Q162.987 60.2908 166.042 64.8972 Q169.121 69.4805 169.121 78.2305 Q169.121 86.9573 166.042 91.5637 Q162.987 96.1471 157.177 96.1471 Q151.366 96.1471 148.288 91.5637 Q145.232 86.9573 145.232 78.2305 Q145.232 69.4805 148.288 64.8972 Q151.366 60.2908 157.177 60.2908 Z" fill="#000000" fill-rule="evenodd" fill-opacity="1" /><path clip-path="url(#clip250)" d="M 0 0 M16.4842 731.063 L16.4842 724.633 L64.0042 724.633 L64.0042 731.063 L16.4842 731.063 Z" fill="#000000" fill-rule="evenodd" fill-opacity="1" /><path clip-path="url(#clip250)" d="M 0 0 M42.4881 682.461 L64.0042 682.461 L64.0042 688.317 L42.679 688.317 Q37.6183 688.317 35.1038 690.29 Q32.5894 692.264 32.5894 696.211 Q32.5894 700.953 35.6131 703.69 Q38.6368 706.428 43.8567 706.428 L64.0042 706.428 L64.0042 712.316 L28.3562 712.316 L28.3562 706.428 L33.8944 706.428 Q30.6797 704.327 29.0883 701.494 Q27.4968 698.63 27.4968 694.906 Q27.4968 688.763 31.3163 685.612 Q35.1038 682.461 42.4881 682.461 Z" fill="#000000" fill-rule="evenodd" fill-opacity="1" /><path clip-path="url(#clip250)" d="M 0 0 M18.2347 664.987 L28.3562 664.987 L28.3562 652.924 L32.9077 652.924 L32.9077 664.987 L52.2594 664.987 Q56.6199 664.987 57.8613 663.809 Q59.1026 662.6 59.1026 658.939 L59.1026 652.924 L64.0042 652.924 L64.0042 658.939 Q64.0042 665.719 61.4897 668.297 Q58.9434 670.875 52.2594 670.875 L32.9077 670.875 L32.9077 675.172 L28.3562 675.172 L28.3562 670.875 L18.2347 670.875 L18.2347 664.987 Z" fill="#000000" fill-rule="evenodd" fill-opacity="1" /><path clip-path="url(#clip250)" d="M 0 0 M44.7161 614.73 L47.5806 614.73 L47.5806 641.656 Q53.6281 641.275 56.8109 638.028 Q59.9619 634.75 59.9619 628.925 Q59.9619 625.551 59.1344 622.4 Q58.3069 619.217 56.6518 616.098 L62.1899 616.098 Q63.5267 619.249 64.227 622.559 Q64.9272 625.87 64.9272 629.275 Q64.9272 637.805 59.9619 642.802 Q54.9967 647.768 46.5303 647.768 Q37.7774 647.768 32.6531 643.057 Q27.4968 638.314 27.4968 630.294 Q27.4968 623.1 32.1438 618.931 Q36.7589 614.73 44.7161 614.73 M42.9973 620.586 Q38.1912 620.65 35.3266 623.291 Q32.4621 625.901 32.4621 630.23 Q32.4621 635.132 35.2312 638.092 Q38.0002 641.02 43.0292 641.465 L42.9973 620.586 Z" fill="#000000" fill-rule="evenodd" fill-opacity="1" /><path clip-path="url(#clip250)" d="M 0 0 M33.8307 584.461 Q33.2578 585.447 33.0032 586.625 Q32.7167 587.771 32.7167 589.171 Q32.7167 594.136 35.9632 596.81 Q39.1779 599.452 45.2253 599.452 L64.0042 599.452 L64.0042 605.34 L28.3562 605.34 L28.3562 599.452 L33.8944 599.452 Q30.6479 597.606 29.0883 594.646 Q27.4968 591.686 27.4968 587.452 Q27.4968 586.848 27.5923 586.116 Q27.656 585.384 27.8151 584.492 L33.8307 584.461 Z" fill="#000000" fill-rule="evenodd" fill-opacity="1" /><path clip-path="url(#clip250)" d="M 0 0 M28.3562 582.519 L28.3562 576.312 L58.275 565.172 L28.3562 554.033 L28.3562 547.826 L64.0042 561.194 L64.0042 569.151 L28.3562 582.519 Z" fill="#000000" fill-rule="evenodd" fill-opacity="1" /><path clip-path="url(#clip250)" d="M 0 0 M46.0847 523.541 Q46.0847 530.639 47.7079 533.376 Q49.3312 536.113 53.2461 536.113 Q56.3653 536.113 58.2114 534.076 Q60.0256 532.007 60.0256 528.474 Q60.0256 523.604 56.5881 520.676 Q53.1188 517.716 47.3897 517.716 L46.0847 517.716 L46.0847 523.541 M43.6657 511.86 L64.0042 511.86 L64.0042 517.716 L58.5933 517.716 Q61.8398 519.721 63.3994 522.713 Q64.9272 525.705 64.9272 530.034 Q64.9272 535.508 61.8716 538.755 Q58.7843 541.969 53.6281 541.969 Q47.6125 541.969 44.5569 537.959 Q41.5014 533.917 41.5014 525.928 L41.5014 517.716 L40.9285 517.716 Q36.8862 517.716 34.6901 520.39 Q32.4621 523.032 32.4621 527.838 Q32.4621 530.893 33.1941 533.79 Q33.9262 536.686 35.3903 539.36 L29.9795 539.36 Q28.7381 536.145 28.1334 533.121 Q27.4968 530.097 27.4968 527.233 Q27.4968 519.499 31.5072 515.679 Q35.5176 511.86 43.6657 511.86 Z" fill="#000000" fill-rule="evenodd" fill-opacity="1" /><path clip-path="url(#clip250)" d="M 0 0 M14.479 499.797 L14.479 493.94 L64.0042 493.94 L64.0042 499.797 L14.479 499.797 Z" fill="#000000" fill-rule="evenodd" fill-opacity="1" /><path clip-path="url(#clip250)" d="M 0 0 M29.4065 458.961 L34.9447 458.961 Q33.6716 461.443 33.035 464.117 Q32.3984 466.79 32.3984 469.655 Q32.3984 474.016 33.7352 476.212 Q35.072 478.376 37.7456 478.376 Q39.7826 478.376 40.9603 476.816 Q42.1061 475.257 43.1565 470.546 L43.6021 468.541 Q44.9389 462.303 47.3897 459.693 Q49.8086 457.051 54.1691 457.051 Q59.1344 457.051 62.0308 460.998 Q64.9272 464.913 64.9272 471.788 Q64.9272 474.652 64.3543 477.771 Q63.8132 480.859 62.6992 484.296 L56.6518 484.296 Q58.3387 481.05 59.198 477.899 Q60.0256 474.748 60.0256 471.66 Q60.0256 467.523 58.6251 465.295 Q57.1929 463.067 54.6147 463.067 Q52.2276 463.067 50.9545 464.69 Q49.6813 466.281 48.5037 471.724 L48.0262 473.761 Q46.8804 479.204 44.5251 481.623 Q42.138 484.042 38.0002 484.042 Q32.9713 484.042 30.2341 480.477 Q27.4968 476.912 27.4968 470.355 Q27.4968 467.109 27.9743 464.244 Q28.4517 461.38 29.4065 458.961 Z" fill="#000000" fill-rule="evenodd" fill-opacity="1" /><path clip-path="url(#clip252)" d="
M265.903 1109.92 L636.035 1109.92 L636.035 1092.72 L265.903 1092.72  Z
  " fill="#009af9" fill-rule="evenodd" fill-opacity="1"/>
<polyline clip-path="url(#clip252)" style="stroke:#ffffff; stroke-width:4; stroke-opacity:1; fill:none" points="
  265.903,1109.92 636.035,1109.92 
  "/>
<path clip-path="url(#clip252)" d="
M270.71 1092.72 L270.71 1092.72 L270.71 1075.53 L270.71 1075.53  Z
  " fill="#009af9" fill-rule="evenodd" fill-opacity="1"/>
<polyline clip-path="url(#clip252)" style="stroke:#ffffff; stroke-width:4; stroke-opacity:1; fill:none" points="
  270.71,1092.72 270.71,1092.72 
  "/>
<path clip-path="url(#clip252)" d="
M405.299 1058.33 L745.389 1058.33 L745.389 1041.14 L405.299 1041.14  Z
  " fill="#e26f46" fill-rule="evenodd" fill-opacity="1"/>
<polyline clip-path="url(#clip252)" style="stroke:#ffffff; stroke-width:4; stroke-opacity:1; fill:none" points="
  405.299,1058.33 745.389,1058.33 
  "/>
<path clip-path="url(#clip252)" d="
M408.904 1041.14 L590.359 1041.14 L590.359 1023.94 L408.904 1023.94  Z
  " fill="#e26f46" fill-rule="evenodd" fill-opacity="1"/>
<polyline clip-path="url(#clip252)" style="stroke:#ffffff; stroke-width:4; stroke-opacity:1; fill:none" points="
  408.904,1041.14 590.359,1041.14 
  "/>
<path clip-path="url(#clip252)" d="
M413.711 1023.94 L414.912 1023.94 L414.912 1006.75 L413.711 1006.75  Z
  " fill="#e26f46" fill-rule="evenodd" fill-opacity="1"/>
<polyline clip-path="url(#clip252)" style="stroke:#ffffff; stroke-width:4; stroke-opacity:1; fill:none" points="
  413.711,1023.94 414.912,1023.94 
  "/>
<path clip-path="url(#clip252)" d="
M434.139 989.55 L604.779 989.55 L604.779 972.355 L434.139 972.355  Z
  " fill="#3da44d" fill-rule="evenodd" fill-opacity="1"/>
<polyline clip-path="url(#clip252)" style="stroke:#ffffff; stroke-width:4; stroke-opacity:1; fill:none" points="
  434.139,989.55 604.779,989.55 
  "/>
<path clip-path="url(#clip252)" d="
M437.745 972.355 L438.946 972.355 L438.946 955.16 L437.745 955.16  Z
  " fill="#3da44d" fill-rule="evenodd" fill-opacity="1"/>
<polyline clip-path="url(#clip252)" style="stroke:#ffffff; stroke-width:4; stroke-opacity:1; fill:none" points="
  437.745,972.355 438.946,972.355 
  "/>
<path clip-path="url(#clip252)" d="
M494.224 937.964 L717.75 937.964 L717.75 920.769 L494.224 920.769  Z
  " fill="#c271d2" fill-rule="evenodd" fill-opacity="1"/>
<polyline clip-path="url(#clip252)" style="stroke:#ffffff; stroke-width:4; stroke-opacity:1; fill:none" points="
  494.224,937.964 717.75,937.964 
  "/>
<path clip-path="url(#clip252)" d="
M500.232 920.769 L501.434 920.769 L501.434 903.574 L500.232 903.574  Z
  " fill="#c271d2" fill-rule="evenodd" fill-opacity="1"/>
<polyline clip-path="url(#clip252)" style="stroke:#ffffff; stroke-width:4; stroke-opacity:1; fill:none" points="
  500.232,920.769 501.434,920.769 
  "/>
<path clip-path="url(#clip252)" d="
M514.653 886.378 L515.854 886.378 L515.854 869.183 L514.653 869.183  Z
  " fill="#ac8d18" fill-rule="evenodd" fill-opacity="1"/>
<polyline clip-path="url(#clip252)" style="stroke:#ffffff; stroke-width:4; stroke-opacity:1; fill:none" points="
  514.653,886.378 515.854,886.378 
  "/>
<path clip-path="url(#clip252)" d="
M543.493 851.987 L543.493 851.987 L543.493 834.792 L543.493 834.792  Z
  " fill="#00a9ad" fill-rule="evenodd" fill-opacity="1"/>
<polyline clip-path="url(#clip252)" style="stroke:#ffffff; stroke-width:4; stroke-opacity:1; fill:none" points="
  543.493,851.987 543.493,851.987 
  "/>
<path clip-path="url(#clip252)" d="
M563.922 817.597 L691.313 817.597 L691.313 800.401 L563.922 800.401  Z
  " fill="#ed5d92" fill-rule="evenodd" fill-opacity="1"/>
<polyline clip-path="url(#clip252)" style="stroke:#ffffff; stroke-width:4; stroke-opacity:1; fill:none" points="
  563.922,817.597 691.313,817.597 
  "/>
<path clip-path="url(#clip252)" d="
M566.325 800.401 L567.527 800.401 L567.527 783.206 L566.325 783.206  Z
  " fill="#ed5d92" fill-rule="evenodd" fill-opacity="1"/>
<polyline clip-path="url(#clip252)" style="stroke:#ffffff; stroke-width:4; stroke-opacity:1; fill:none" points="
  566.325,800.401 567.527,800.401 
  "/>
<path clip-path="url(#clip252)" d="
M662.472 1109.92 L662.472 1109.92 L662.472 1092.72 L662.472 1092.72  Z
  " fill="#c68125" fill-rule="evenodd" fill-opacity="1"/>
<polyline clip-path="url(#clip252)" style="stroke:#ffffff; stroke-width:4; stroke-opacity:1; fill:none" points="
  662.472,1109.92 662.472,1109.92 
  "/>
<path clip-path="url(#clip252)" d="
M775.431 1109.92 L1193.62 1109.92 L1193.62 1092.72 L775.431 1092.72  Z
  " fill="#009af9" fill-rule="evenodd" fill-opacity="1"/>
<polyline clip-path="url(#clip252)" style="stroke:#ffffff; stroke-width:4; stroke-opacity:1; fill:none" points="
  775.431,1109.92 1193.62,1109.92 
  "/>
<path clip-path="url(#clip252)" d="
M780.238 1092.72 L925.642 1092.72 L925.642 1075.53 L780.238 1075.53  Z
  " fill="#009af9" fill-rule="evenodd" fill-opacity="1"/>
<polyline clip-path="url(#clip252)" style="stroke:#ffffff; stroke-width:4; stroke-opacity:1; fill:none" points="
  780.238,1092.72 925.642,1092.72 
  "/>
<path clip-path="url(#clip252)" d="
M783.843 1075.53 L785.045 1075.53 L785.045 1058.33 L783.843 1058.33  Z
  " fill="#009af9" fill-rule="evenodd" fill-opacity="1"/>
<polyline clip-path="url(#clip252)" style="stroke:#ffffff; stroke-width:4; stroke-opacity:1; fill:none" points="
  783.843,1075.53 785.045,1075.53 
  "/>
<path clip-path="url(#clip252)" d="
M834.314 1041.14 L1304.17 1041.14 L1304.17 1023.94 L834.314 1023.94  Z
  " fill="#00a98d" fill-rule="evenodd" fill-opacity="1"/>
<polyline clip-path="url(#clip252)" style="stroke:#ffffff; stroke-width:4; stroke-opacity:1; fill:none" points="
  834.314,1041.14 1304.17,1041.14 
  "/>
<path clip-path="url(#clip252)" d="
M837.919 1023.94 L1137.14 1023.94 L1137.14 1006.75 L837.919 1006.75  Z
  " fill="#00a98d" fill-rule="evenodd" fill-opacity="1"/>
<polyline clip-path="url(#clip252)" style="stroke:#ffffff; stroke-width:4; stroke-opacity:1; fill:none" points="
  837.919,1023.94 1137.14,1023.94 
  "/>
<path clip-path="url(#clip252)" d="
M847.532 1006.75 L848.734 1006.75 L848.734 989.55 L847.532 989.55  Z
  " fill="#00a98d" fill-rule="evenodd" fill-opacity="1"/>
<polyline clip-path="url(#clip252)" style="stroke:#ffffff; stroke-width:4; stroke-opacity:1; fill:none" points="
  847.532,1006.75 848.734,1006.75 
  "/>
<path clip-path="url(#clip252)" d="
M861.953 972.355 L1151.56 972.355 L1151.56 955.16 L861.953 955.16  Z
  " fill="#8e971d" fill-rule="evenodd" fill-opacity="1"/>
<polyline clip-path="url(#clip252)" style="stroke:#ffffff; stroke-width:4; stroke-opacity:1; fill:none" points="
  861.953,972.355 1151.56,972.355 
  "/>
<path clip-path="url(#clip252)" d="
M865.558 955.16 L865.558 955.16 L865.558 937.964 L865.558 937.964  Z
  " fill="#8e971d" fill-rule="evenodd" fill-opacity="1"/>
<polyline clip-path="url(#clip252)" style="stroke:#ffffff; stroke-width:4; stroke-opacity:1; fill:none" points="
  865.558,955.16 865.558,955.16 
  "/>
<path clip-path="url(#clip252)" d="
M877.575 920.769 L878.776 920.769 L878.776 903.574 L877.575 903.574  Z
  " fill="#00a8cb" fill-rule="evenodd" fill-opacity="1"/>
<polyline clip-path="url(#clip252)" style="stroke:#ffffff; stroke-width:4; stroke-opacity:1; fill:none" points="
  877.575,920.769 878.776,920.769 
  "/>
<path clip-path="url(#clip252)" d="
M896.802 886.378 L1276.54 886.378 L1276.54 869.183 L896.802 869.183  Z
  " fill="#9b7fe8" fill-rule="evenodd" fill-opacity="1"/>
<polyline clip-path="url(#clip252)" style="stroke:#ffffff; stroke-width:4; stroke-opacity:1; fill:none" points="
  896.802,886.378 1276.54,886.378 
  "/>
<path clip-path="url(#clip252)" d="
M899.205 869.183 L1069.84 869.183 L1069.84 851.987 L899.205 851.987  Z
  " fill="#9b7fe8" fill-rule="evenodd" fill-opacity="1"/>
<polyline clip-path="url(#clip252)" style="stroke:#ffffff; stroke-width:4; stroke-opacity:1; fill:none" points="
  899.205,869.183 1069.84,869.183 
  "/>
<path clip-path="url(#clip252)" d="
M901.608 851.987 L901.608 851.987 L901.608 834.792 L901.608 834.792  Z
  " fill="#9b7fe8" fill-rule="evenodd" fill-opacity="1"/>
<polyline clip-path="url(#clip252)" style="stroke:#ffffff; stroke-width:4; stroke-opacity:1; fill:none" points="
  901.608,851.987 901.608,851.987 
  "/>
<path clip-path="url(#clip252)" d="
M908.818 817.597 L1098.69 817.597 L1098.69 800.401 L908.818 800.401  Z
  " fill="#608cf6" fill-rule="evenodd" fill-opacity="1"/>
<polyline clip-path="url(#clip252)" style="stroke:#ffffff; stroke-width:4; stroke-opacity:1; fill:none" points="
  908.818,817.597 1098.69,817.597 
  "/>
<path clip-path="url(#clip252)" d="
M911.222 800.401 L911.222 800.401 L911.222 783.206 L911.222 783.206  Z
  " fill="#608cf6" fill-rule="evenodd" fill-opacity="1"/>
<polyline clip-path="url(#clip252)" style="stroke:#ffffff; stroke-width:4; stroke-opacity:1; fill:none" points="
  911.222,800.401 911.222,800.401 
  "/>
<path clip-path="url(#clip252)" d="
M960.491 766.011 L1083.06 766.011 L1083.06 748.815 L960.491 748.815  Z
  " fill="#f05f73" fill-rule="evenodd" fill-opacity="1"/>
<polyline clip-path="url(#clip252)" style="stroke:#ffffff; stroke-width:4; stroke-opacity:1; fill:none" points="
  960.491,766.011 1083.06,766.011 
  "/>
<path clip-path="url(#clip252)" d="
M962.894 748.815 L962.894 748.815 L962.894 731.62 L962.894 731.62  Z
  " fill="#f05f73" fill-rule="evenodd" fill-opacity="1"/>
<polyline clip-path="url(#clip252)" style="stroke:#ffffff; stroke-width:4; stroke-opacity:1; fill:none" points="
  962.894,748.815 962.894,748.815 
  "/>
<path clip-path="url(#clip252)" d="
M992.937 714.424 L1248.9 714.424 L1248.9 697.229 L992.937 697.229  Z
  " fill="#dd64b5" fill-rule="evenodd" fill-opacity="1"/>
<polyline clip-path="url(#clip252)" style="stroke:#ffffff; stroke-width:4; stroke-opacity:1; fill:none" points="
  992.937,714.424 1248.9,714.424 
  "/>
<path clip-path="url(#clip252)" d="
M995.34 697.229 L995.34 697.229 L995.34 680.034 L995.34 680.034  Z
  " fill="#dd64b5" fill-rule="evenodd" fill-opacity="1"/>
<polyline clip-path="url(#clip252)" style="stroke:#ffffff; stroke-width:4; stroke-opacity:1; fill:none" points="
  995.34,697.229 995.34,697.229 
  "/>
<path clip-path="url(#clip252)" d="
M1009.76 662.838 L1009.76 662.838 L1009.76 645.643 L1009.76 645.643  Z
  " fill="#6b9e32" fill-rule="evenodd" fill-opacity="1"/>
<polyline clip-path="url(#clip252)" style="stroke:#ffffff; stroke-width:4; stroke-opacity:1; fill:none" points="
  1009.76,662.838 1009.76,662.838 
  "/>
<path clip-path="url(#clip252)" d="
M1018.17 628.448 L1019.37 628.448 L1019.37 611.252 L1018.17 611.252  Z
  " fill="#009af9" fill-rule="evenodd" fill-opacity="1"/>
<polyline clip-path="url(#clip252)" style="stroke:#ffffff; stroke-width:4; stroke-opacity:1; fill:none" points="
  1018.17,628.448 1019.37,628.448 
  "/>
<path clip-path="url(#clip252)" d="
M1033.79 594.057 L1033.79 594.057 L1033.79 576.862 L1033.79 576.862  Z
  " fill="#e26f46" fill-rule="evenodd" fill-opacity="1"/>
<polyline clip-path="url(#clip252)" style="stroke:#ffffff; stroke-width:4; stroke-opacity:1; fill:none" points="
  1033.79,594.057 1033.79,594.057 
  "/>
<path clip-path="url(#clip252)" d="
M1053.02 559.666 L1220.06 559.666 L1220.06 542.471 L1053.02 542.471  Z
  " fill="#3da44d" fill-rule="evenodd" fill-opacity="1"/>
<polyline clip-path="url(#clip252)" style="stroke:#ffffff; stroke-width:4; stroke-opacity:1; fill:none" points="
  1053.02,559.666 1220.06,559.666 
  "/>
<path clip-path="url(#clip252)" d="
M1054.22 542.471 L1055.42 542.471 L1055.42 525.275 L1054.22 525.275  Z
  " fill="#3da44d" fill-rule="evenodd" fill-opacity="1"/>
<polyline clip-path="url(#clip252)" style="stroke:#ffffff; stroke-width:4; stroke-opacity:1; fill:none" points="
  1054.22,542.471 1055.42,542.471 
  "/>
<path clip-path="url(#clip252)" d="
M1178 508.08 L1178 508.08 L1178 490.885 L1178 490.885  Z
  " fill="#c271d2" fill-rule="evenodd" fill-opacity="1"/>
<polyline clip-path="url(#clip252)" style="stroke:#ffffff; stroke-width:4; stroke-opacity:1; fill:none" points="
  1178,508.08 1178,508.08 
  "/>
<path clip-path="url(#clip252)" d="
M1341.43 1109.92 L2251.12 1109.92 L2251.12 1092.72 L1341.43 1092.72  Z
  " fill="#009af9" fill-rule="evenodd" fill-opacity="1"/>
<polyline clip-path="url(#clip252)" style="stroke:#ffffff; stroke-width:4; stroke-opacity:1; fill:none" points="
  1341.43,1109.92 2251.12,1109.92 
  "/>
<path clip-path="url(#clip252)" d="
M1349.84 1092.72 L1900.22 1092.72 L1900.22 1075.53 L1349.84 1075.53  Z
  " fill="#009af9" fill-rule="evenodd" fill-opacity="1"/>
<polyline clip-path="url(#clip252)" style="stroke:#ffffff; stroke-width:4; stroke-opacity:1; fill:none" points="
  1349.84,1092.72 1900.22,1092.72 
  "/>
<path clip-path="url(#clip252)" d="
M1355.85 1075.53 L1357.05 1075.53 L1357.05 1058.33 L1355.85 1058.33  Z
  " fill="#009af9" fill-rule="evenodd" fill-opacity="1"/>
<polyline clip-path="url(#clip252)" style="stroke:#ffffff; stroke-width:4; stroke-opacity:1; fill:none" points="
  1355.85,1075.53 1357.05,1075.53 
  "/>
<path clip-path="url(#clip252)" d="
M1376.28 1041.14 L2277.55 1041.14 L2277.55 1023.94 L1376.28 1023.94  Z
  " fill="#ac8d18" fill-rule="evenodd" fill-opacity="1"/>
<polyline clip-path="url(#clip252)" style="stroke:#ffffff; stroke-width:4; stroke-opacity:1; fill:none" points="
  1376.28,1041.14 2277.55,1041.14 
  "/>
<path clip-path="url(#clip252)" d="
M1378.68 1023.94 L2111.72 1023.94 L2111.72 1006.75 L1378.68 1006.75  Z
  " fill="#ac8d18" fill-rule="evenodd" fill-opacity="1"/>
<polyline clip-path="url(#clip252)" style="stroke:#ffffff; stroke-width:4; stroke-opacity:1; fill:none" points="
  1378.68,1023.94 2111.72,1023.94 
  "/>
<path clip-path="url(#clip252)" d="
M1383.49 1006.75 L1515.67 1006.75 L1515.67 989.55 L1383.49 989.55  Z
  " fill="#ac8d18" fill-rule="evenodd" fill-opacity="1"/>
<polyline clip-path="url(#clip252)" style="stroke:#ffffff; stroke-width:4; stroke-opacity:1; fill:none" points="
  1383.49,1006.75 1515.67,1006.75 
  "/>
<path clip-path="url(#clip252)" d="
M1389.49 989.55 L1390.7 989.55 L1390.7 972.355 L1389.49 972.355  Z
  " fill="#ac8d18" fill-rule="evenodd" fill-opacity="1"/>
<polyline clip-path="url(#clip252)" style="stroke:#ffffff; stroke-width:4; stroke-opacity:1; fill:none" points="
  1389.49,989.55 1390.7,989.55 
  "/>
<path clip-path="url(#clip252)" d="
M1414.73 955.16 L2236.7 955.16 L2236.7 937.964 L1414.73 937.964  Z
  " fill="#00a9ad" fill-rule="evenodd" fill-opacity="1"/>
<polyline clip-path="url(#clip252)" style="stroke:#ffffff; stroke-width:4; stroke-opacity:1; fill:none" points="
  1414.73,955.16 2236.7,955.16 
  "/>
<path clip-path="url(#clip252)" d="
M1418.33 937.964 L2049.23 937.964 L2049.23 920.769 L1418.33 920.769  Z
  " fill="#00a9ad" fill-rule="evenodd" fill-opacity="1"/>
<polyline clip-path="url(#clip252)" style="stroke:#ffffff; stroke-width:4; stroke-opacity:1; fill:none" points="
  1418.33,937.964 2049.23,937.964 
  "/>
<path clip-path="url(#clip252)" d="
M1421.94 920.769 L1421.94 920.769 L1421.94 903.574 L1421.94 903.574  Z
  " fill="#00a9ad" fill-rule="evenodd" fill-opacity="1"/>
<polyline clip-path="url(#clip252)" style="stroke:#ffffff; stroke-width:4; stroke-opacity:1; fill:none" points="
  1421.94,920.769 1421.94,920.769 
  "/>
<path clip-path="url(#clip252)" d="
M1426.75 886.378 L2063.65 886.378 L2063.65 869.183 L1426.75 869.183  Z
  " fill="#ed5d92" fill-rule="evenodd" fill-opacity="1"/>
<polyline clip-path="url(#clip252)" style="stroke:#ffffff; stroke-width:4; stroke-opacity:1; fill:none" points="
  1426.75,886.378 2063.65,886.378 
  "/>
<path clip-path="url(#clip252)" d="
M1429.15 869.183 L1430.35 869.183 L1430.35 851.987 L1429.15 851.987  Z
  " fill="#ed5d92" fill-rule="evenodd" fill-opacity="1"/>
<polyline clip-path="url(#clip252)" style="stroke:#ffffff; stroke-width:4; stroke-opacity:1; fill:none" points="
  1429.15,869.183 1430.35,869.183 
  "/>
<path clip-path="url(#clip252)" d="
M1435.16 834.792 L1435.16 834.792 L1435.16 817.597 L1435.16 817.597  Z
  " fill="#c68125" fill-rule="evenodd" fill-opacity="1"/>
<polyline clip-path="url(#clip252)" style="stroke:#ffffff; stroke-width:4; stroke-opacity:1; fill:none" points="
  1435.16,834.792 1435.16,834.792 
  "/>
<path clip-path="url(#clip252)" d="
M1449.58 800.401 L2209.06 800.401 L2209.06 783.206 L1449.58 783.206  Z
  " fill="#00a98d" fill-rule="evenodd" fill-opacity="1"/>
<polyline clip-path="url(#clip252)" style="stroke:#ffffff; stroke-width:4; stroke-opacity:1; fill:none" points="
  1449.58,800.401 2209.06,800.401 
  "/>
<path clip-path="url(#clip252)" d="
M1453.18 783.206 L1605.8 783.206 L1605.8 766.011 L1453.18 766.011  Z
  " fill="#00a98d" fill-rule="evenodd" fill-opacity="1"/>
<polyline clip-path="url(#clip252)" style="stroke:#ffffff; stroke-width:4; stroke-opacity:1; fill:none" points="
  1453.18,783.206 1605.8,783.206 
  "/>
<path clip-path="url(#clip252)" d="
M1455.59 766.011 L1455.59 766.011 L1455.59 748.815 L1455.59 748.815  Z
  " fill="#00a98d" fill-rule="evenodd" fill-opacity="1"/>
<polyline clip-path="url(#clip252)" style="stroke:#ffffff; stroke-width:4; stroke-opacity:1; fill:none" points="
  1455.59,766.011 1455.59,766.011 
  "/>
<path clip-path="url(#clip252)" d="
M1468.81 731.62 L1619.02 731.62 L1619.02 714.424 L1468.81 714.424  Z
  " fill="#8e971d" fill-rule="evenodd" fill-opacity="1"/>
<polyline clip-path="url(#clip252)" style="stroke:#ffffff; stroke-width:4; stroke-opacity:1; fill:none" points="
  1468.81,731.62 1619.02,731.62 
  "/>
<path clip-path="url(#clip252)" d="
M1470.01 714.424 L1471.21 714.424 L1471.21 697.229 L1470.01 697.229  Z
  " fill="#8e971d" fill-rule="evenodd" fill-opacity="1"/>
<polyline clip-path="url(#clip252)" style="stroke:#ffffff; stroke-width:4; stroke-opacity:1; fill:none" points="
  1470.01,714.424 1471.21,714.424 
  "/>
<path clip-path="url(#clip252)" d="
M1488.03 680.034 L2194.64 680.034 L2194.64 662.838 L1488.03 662.838  Z
  " fill="#00a8cb" fill-rule="evenodd" fill-opacity="1"/>
<polyline clip-path="url(#clip252)" style="stroke:#ffffff; stroke-width:4; stroke-opacity:1; fill:none" points="
  1488.03,680.034 2194.64,680.034 
  "/>
<path clip-path="url(#clip252)" d="
M1490.44 662.838 L1941.08 662.838 L1941.08 645.643 L1490.44 645.643  Z
  " fill="#00a8cb" fill-rule="evenodd" fill-opacity="1"/>
<polyline clip-path="url(#clip252)" style="stroke:#ffffff; stroke-width:4; stroke-opacity:1; fill:none" points="
  1490.44,662.838 1941.08,662.838 
  "/>
<path clip-path="url(#clip252)" d="
M1492.84 645.643 L1492.84 645.643 L1492.84 628.448 L1492.84 628.448  Z
  " fill="#00a8cb" fill-rule="evenodd" fill-opacity="1"/>
<polyline clip-path="url(#clip252)" style="stroke:#ffffff; stroke-width:4; stroke-opacity:1; fill:none" points="
  1492.84,645.643 1492.84,645.643 
  "/>
<path clip-path="url(#clip252)" d="
M1500.05 611.252 L1969.92 611.252 L1969.92 594.057 L1500.05 594.057  Z
  " fill="#9b7fe8" fill-rule="evenodd" fill-opacity="1"/>
<polyline clip-path="url(#clip252)" style="stroke:#ffffff; stroke-width:4; stroke-opacity:1; fill:none" points="
  1500.05,611.252 1969.92,611.252 
  "/>
<path clip-path="url(#clip252)" d="
M1501.25 594.057 L1502.45 594.057 L1502.45 576.862 L1501.25 576.862  Z
  " fill="#9b7fe8" fill-rule="evenodd" fill-opacity="1"/>
<polyline clip-path="url(#clip252)" style="stroke:#ffffff; stroke-width:4; stroke-opacity:1; fill:none" points="
  1501.25,594.057 1502.45,594.057 
  "/>
<path clip-path="url(#clip252)" d="
M1524.08 559.666 L1524.08 559.666 L1524.08 542.471 L1524.08 542.471  Z
  " fill="#608cf6" fill-rule="evenodd" fill-opacity="1"/>
<polyline clip-path="url(#clip252)" style="stroke:#ffffff; stroke-width:4; stroke-opacity:1; fill:none" points="
  1524.08,559.666 1524.08,559.666 
  "/>
<path clip-path="url(#clip252)" d="
M1531.29 525.275 L1531.29 525.275 L1531.29 508.08 L1531.29 508.08  Z
  " fill="#f05f73" fill-rule="evenodd" fill-opacity="1"/>
<polyline clip-path="url(#clip252)" style="stroke:#ffffff; stroke-width:4; stroke-opacity:1; fill:none" points="
  1531.29,525.275 1531.29,525.275 
  "/>
<path clip-path="url(#clip252)" d="
M1549.32 490.885 L2152.58 490.885 L2152.58 473.689 L1549.32 473.689  Z
  " fill="#dd64b5" fill-rule="evenodd" fill-opacity="1"/>
<polyline clip-path="url(#clip252)" style="stroke:#ffffff; stroke-width:4; stroke-opacity:1; fill:none" points="
  1549.32,490.885 2152.58,490.885 
  "/>
<path clip-path="url(#clip252)" d="
M1551.72 473.689 L1551.72 473.689 L1551.72 456.494 L1551.72 456.494  Z
  " fill="#dd64b5" fill-rule="evenodd" fill-opacity="1"/>
<polyline clip-path="url(#clip252)" style="stroke:#ffffff; stroke-width:4; stroke-opacity:1; fill:none" points="
  1551.72,473.689 1551.72,473.689 
  "/>
<path clip-path="url(#clip252)" d="
M1567.34 439.299 L1954.3 439.299 L1954.3 422.103 L1567.34 422.103  Z
  " fill="#6b9e32" fill-rule="evenodd" fill-opacity="1"/>
<polyline clip-path="url(#clip252)" style="stroke:#ffffff; stroke-width:4; stroke-opacity:1; fill:none" points="
  1567.34,439.299 1954.3,439.299 
  "/>
<path clip-path="url(#clip252)" d="
M1570.95 422.103 L1570.95 422.103 L1570.95 404.908 L1570.95 404.908  Z
  " fill="#6b9e32" fill-rule="evenodd" fill-opacity="1"/>
<polyline clip-path="url(#clip252)" style="stroke:#ffffff; stroke-width:4; stroke-opacity:1; fill:none" points="
  1570.95,422.103 1570.95,422.103 
  "/>
<path clip-path="url(#clip252)" d="
M1588.97 387.712 L2168.2 387.712 L2168.2 370.517 L1588.97 370.517  Z
  " fill="#009af9" fill-rule="evenodd" fill-opacity="1"/>
<polyline clip-path="url(#clip252)" style="stroke:#ffffff; stroke-width:4; stroke-opacity:1; fill:none" points="
  1588.97,387.712 2168.2,387.712 
  "/>
<path clip-path="url(#clip252)" d="
M1591.38 370.517 L1591.38 370.517 L1591.38 353.322 L1591.38 353.322  Z
  " fill="#009af9" fill-rule="evenodd" fill-opacity="1"/>
<polyline clip-path="url(#clip252)" style="stroke:#ffffff; stroke-width:4; stroke-opacity:1; fill:none" points="
  1591.38,370.517 1591.38,370.517 
  "/>
<path clip-path="url(#clip252)" d="
M1649.06 336.126 L1650.26 336.126 L1650.26 318.931 L1649.06 318.931  Z
  " fill="#e26f46" fill-rule="evenodd" fill-opacity="1"/>
<polyline clip-path="url(#clip252)" style="stroke:#ffffff; stroke-width:4; stroke-opacity:1; fill:none" points="
  1649.06,336.126 1650.26,336.126 
  "/>
<path clip-path="url(#clip252)" d="
M1862.97 301.736 L1864.17 301.736 L1864.17 284.54 L1862.97 284.54  Z
  " fill="#3da44d" fill-rule="evenodd" fill-opacity="1"/>
<polyline clip-path="url(#clip252)" style="stroke:#ffffff; stroke-width:4; stroke-opacity:1; fill:none" points="
  1862.97,301.736 1864.17,301.736 
  "/>
<path clip-path="url(#clip252)" d="
M1881 267.345 L1881 267.345 L1881 250.149 L1881 250.149  Z
  " fill="#c271d2" fill-rule="evenodd" fill-opacity="1"/>
<polyline clip-path="url(#clip252)" style="stroke:#ffffff; stroke-width:4; stroke-opacity:1; fill:none" points="
  1881,267.345 1881,267.345 
  "/>
<path clip-path="url(#clip252)" d="
M1924.26 232.954 L2097.3 232.954 L2097.3 215.759 L1924.26 215.759  Z
  " fill="#ac8d18" fill-rule="evenodd" fill-opacity="1"/>
<polyline clip-path="url(#clip252)" style="stroke:#ffffff; stroke-width:4; stroke-opacity:1; fill:none" points="
  1924.26,232.954 2097.3,232.954 
  "/>
<path clip-path="url(#clip252)" d="
M1926.66 215.759 L1927.86 215.759 L1927.86 198.563 L1926.66 198.563  Z
  " fill="#ac8d18" fill-rule="evenodd" fill-opacity="1"/>
<polyline clip-path="url(#clip252)" style="stroke:#ffffff; stroke-width:4; stroke-opacity:1; fill:none" points="
  1926.66,215.759 1927.86,215.759 
  "/>
<path clip-path="url(#clip252)" d="
M2013.18 181.368 L2124.94 181.368 L2124.94 164.173 L2013.18 164.173  Z
  " fill="#00a9ad" fill-rule="evenodd" fill-opacity="1"/>
<polyline clip-path="url(#clip252)" style="stroke:#ffffff; stroke-width:4; stroke-opacity:1; fill:none" points="
  2013.18,181.368 2124.94,181.368 
  "/>
<path clip-path="url(#clip252)" d="
M2015.59 164.173 L2016.79 164.173 L2016.79 146.977 L2015.59 146.977  Z
  " fill="#00a9ad" fill-rule="evenodd" fill-opacity="1"/>
<polyline clip-path="url(#clip252)" style="stroke:#ffffff; stroke-width:4; stroke-opacity:1; fill:none" points="
  2015.59,164.173 2016.79,164.173 
  "/>
<path clip-path="url(#clip252)" d="
M2033.61 129.782 L2033.61 129.782 L2033.61 112.587 L2033.61 112.587  Z
  " fill="#ed5d92" fill-rule="evenodd" fill-opacity="1"/>
<polyline clip-path="url(#clip252)" style="stroke:#ffffff; stroke-width:4; stroke-opacity:1; fill:none" points="
  2033.61,129.782 2033.61,129.782 
  "/>
<path clip-path="url(#clip252)" d="
M2068.46 95.3911 L2069.66 95.3911 L2069.66 78.1958 L2068.46 78.1958  Z
  " fill="#c68125" fill-rule="evenodd" fill-opacity="1"/>
<polyline clip-path="url(#clip252)" style="stroke:#ffffff; stroke-width:4; stroke-opacity:1; fill:none" points="
  2068.46,95.3911 2069.66,95.3911 
  "/>
<circle clip-path="url(#clip252)" cx="265.903" cy="1109.92" r="14" fill="#ffffff" fill-rule="evenodd" fill-opacity="1" stroke="#000000" stroke-opacity="1" stroke-width="3.2"/>
<circle clip-path="url(#clip252)" cx="405.299" cy="1058.33" r="14" fill="#ffffff" fill-rule="evenodd" fill-opacity="1" stroke="#000000" stroke-opacity="1" stroke-width="3.2"/>
<circle clip-path="url(#clip252)" cx="434.139" cy="989.55" r="14" fill="#ffffff" fill-rule="evenodd" fill-opacity="1" stroke="#000000" stroke-opacity="1" stroke-width="3.2"/>
<circle clip-path="url(#clip252)" cx="494.224" cy="937.964" r="14" fill="#ffffff" fill-rule="evenodd" fill-opacity="1" stroke="#000000" stroke-opacity="1" stroke-width="3.2"/>
<circle clip-path="url(#clip252)" cx="514.653" cy="886.378" r="14" fill="#ffffff" fill-rule="evenodd" fill-opacity="1" stroke="#000000" stroke-opacity="1" stroke-width="3.2"/>
<circle clip-path="url(#clip252)" cx="543.493" cy="851.987" r="14" fill="#ffffff" fill-rule="evenodd" fill-opacity="1" stroke="#000000" stroke-opacity="1" stroke-width="3.2"/>
<circle clip-path="url(#clip252)" cx="563.922" cy="817.597" r="14" fill="#ffffff" fill-rule="evenodd" fill-opacity="1" stroke="#000000" stroke-opacity="1" stroke-width="3.2"/>
<circle clip-path="url(#clip252)" cx="662.472" cy="1109.92" r="14" fill="#ffffff" fill-rule="evenodd" fill-opacity="1" stroke="#000000" stroke-opacity="1" stroke-width="3.2"/>
<circle clip-path="url(#clip252)" cx="775.431" cy="1109.92" r="14" fill="#ffffff" fill-rule="evenodd" fill-opacity="1" stroke="#000000" stroke-opacity="1" stroke-width="3.2"/>
<circle clip-path="url(#clip252)" cx="834.314" cy="1041.14" r="14" fill="#ffffff" fill-rule="evenodd" fill-opacity="1" stroke="#000000" stroke-opacity="1" stroke-width="3.2"/>
<circle clip-path="url(#clip252)" cx="861.953" cy="972.355" r="14" fill="#ffffff" fill-rule="evenodd" fill-opacity="1" stroke="#000000" stroke-opacity="1" stroke-width="3.2"/>
<circle clip-path="url(#clip252)" cx="877.575" cy="920.769" r="14" fill="#ffffff" fill-rule="evenodd" fill-opacity="1" stroke="#000000" stroke-opacity="1" stroke-width="3.2"/>
<circle clip-path="url(#clip252)" cx="896.802" cy="886.378" r="14" fill="#ffffff" fill-rule="evenodd" fill-opacity="1" stroke="#000000" stroke-opacity="1" stroke-width="3.2"/>
<circle clip-path="url(#clip252)" cx="908.818" cy="817.597" r="14" fill="#ffffff" fill-rule="evenodd" fill-opacity="1" stroke="#000000" stroke-opacity="1" stroke-width="3.2"/>
<circle clip-path="url(#clip252)" cx="960.491" cy="766.011" r="14" fill="#ffffff" fill-rule="evenodd" fill-opacity="1" stroke="#000000" stroke-opacity="1" stroke-width="3.2"/>
<circle clip-path="url(#clip252)" cx="992.937" cy="714.424" r="14" fill="#ffffff" fill-rule="evenodd" fill-opacity="1" stroke="#000000" stroke-opacity="1" stroke-width="3.2"/>
<circle clip-path="url(#clip252)" cx="1009.76" cy="662.838" r="14" fill="#ffffff" fill-rule="evenodd" fill-opacity="1" stroke="#000000" stroke-opacity="1" stroke-width="3.2"/>
<circle clip-path="url(#clip252)" cx="1018.17" cy="628.448" r="14" fill="#ffffff" fill-rule="evenodd" fill-opacity="1" stroke="#000000" stroke-opacity="1" stroke-width="3.2"/>
<circle clip-path="url(#clip252)" cx="1033.79" cy="594.057" r="14" fill="#ffffff" fill-rule="evenodd" fill-opacity="1" stroke="#000000" stroke-opacity="1" stroke-width="3.2"/>
<circle clip-path="url(#clip252)" cx="1053.02" cy="559.666" r="14" fill="#ffffff" fill-rule="evenodd" fill-opacity="1" stroke="#000000" stroke-opacity="1" stroke-width="3.2"/>
<circle clip-path="url(#clip252)" cx="1178" cy="508.08" r="14" fill="#ffffff" fill-rule="evenodd" fill-opacity="1" stroke="#000000" stroke-opacity="1" stroke-width="3.2"/>
<circle clip-path="url(#clip252)" cx="1341.43" cy="1109.92" r="14" fill="#ffffff" fill-rule="evenodd" fill-opacity="1" stroke="#000000" stroke-opacity="1" stroke-width="3.2"/>
<circle clip-path="url(#clip252)" cx="1376.28" cy="1041.14" r="14" fill="#ffffff" fill-rule="evenodd" fill-opacity="1" stroke="#000000" stroke-opacity="1" stroke-width="3.2"/>
<circle clip-path="url(#clip252)" cx="1414.73" cy="955.16" r="14" fill="#ffffff" fill-rule="evenodd" fill-opacity="1" stroke="#000000" stroke-opacity="1" stroke-width="3.2"/>
<circle clip-path="url(#clip252)" cx="1426.75" cy="886.378" r="14" fill="#ffffff" fill-rule="evenodd" fill-opacity="1" stroke="#000000" stroke-opacity="1" stroke-width="3.2"/>
<circle clip-path="url(#clip252)" cx="1435.16" cy="834.792" r="14" fill="#ffffff" fill-rule="evenodd" fill-opacity="1" stroke="#000000" stroke-opacity="1" stroke-width="3.2"/>
<circle clip-path="url(#clip252)" cx="1449.58" cy="800.401" r="14" fill="#ffffff" fill-rule="evenodd" fill-opacity="1" stroke="#000000" stroke-opacity="1" stroke-width="3.2"/>
<circle clip-path="url(#clip252)" cx="1468.81" cy="731.62" r="14" fill="#ffffff" fill-rule="evenodd" fill-opacity="1" stroke="#000000" stroke-opacity="1" stroke-width="3.2"/>
<circle clip-path="url(#clip252)" cx="1488.03" cy="680.034" r="14" fill="#ffffff" fill-rule="evenodd" fill-opacity="1" stroke="#000000" stroke-opacity="1" stroke-width="3.2"/>
<circle clip-path="url(#clip252)" cx="1500.05" cy="611.252" r="14" fill="#ffffff" fill-rule="evenodd" fill-opacity="1" stroke="#000000" stroke-opacity="1" stroke-width="3.2"/>
<circle clip-path="url(#clip252)" cx="1524.08" cy="559.666" r="14" fill="#ffffff" fill-rule="evenodd" fill-opacity="1" stroke="#000000" stroke-opacity="1" stroke-width="3.2"/>
<circle clip-path="url(#clip252)" cx="1531.29" cy="525.275" r="14" fill="#ffffff" fill-rule="evenodd" fill-opacity="1" stroke="#000000" stroke-opacity="1" stroke-width="3.2"/>
<circle clip-path="url(#clip252)" cx="1549.32" cy="490.885" r="14" fill="#ffffff" fill-rule="evenodd" fill-opacity="1" stroke="#000000" stroke-opacity="1" stroke-width="3.2"/>
<circle clip-path="url(#clip252)" cx="1567.34" cy="439.299" r="14" fill="#ffffff" fill-rule="evenodd" fill-opacity="1" stroke="#000000" stroke-opacity="1" stroke-width="3.2"/>
<circle clip-path="url(#clip252)" cx="1588.97" cy="387.712" r="14" fill="#ffffff" fill-rule="evenodd" fill-opacity="1" stroke="#000000" stroke-opacity="1" stroke-width="3.2"/>
<circle clip-path="url(#clip252)" cx="1649.06" cy="336.126" r="14" fill="#ffffff" fill-rule="evenodd" fill-opacity="1" stroke="#000000" stroke-opacity="1" stroke-width="3.2"/>
<circle clip-path="url(#clip252)" cx="1862.97" cy="301.736" r="14" fill="#ffffff" fill-rule="evenodd" fill-opacity="1" stroke="#000000" stroke-opacity="1" stroke-width="3.2"/>
<circle clip-path="url(#clip252)" cx="1881" cy="267.345" r="14" fill="#ffffff" fill-rule="evenodd" fill-opacity="1" stroke="#000000" stroke-opacity="1" stroke-width="3.2"/>
<circle clip-path="url(#clip252)" cx="1924.26" cy="232.954" r="14" fill="#ffffff" fill-rule="evenodd" fill-opacity="1" stroke="#000000" stroke-opacity="1" stroke-width="3.2"/>
<circle clip-path="url(#clip252)" cx="2013.18" cy="181.368" r="14" fill="#ffffff" fill-rule="evenodd" fill-opacity="1" stroke="#000000" stroke-opacity="1" stroke-width="3.2"/>
<circle clip-path="url(#clip252)" cx="2033.61" cy="129.782" r="14" fill="#ffffff" fill-rule="evenodd" fill-opacity="1" stroke="#000000" stroke-opacity="1" stroke-width="3.2"/>
<circle clip-path="url(#clip252)" cx="2068.46" cy="95.3911" r="14" fill="#ffffff" fill-rule="evenodd" fill-opacity="1" stroke="#000000" stroke-opacity="1" stroke-width="3.2"/>
<path clip-path="url(#clip250)" d="
M205.121 1423.18 L2352.76 1423.18 L2352.76 1301.67 L205.121 1301.67  Z
  " fill="#ffffff" fill-rule="evenodd" fill-opacity="1"/>
<defs>
  <clipPath id="clip253">
    <rect x="205" y="1301" width="2149" height="123"/>
  </clipPath>
</defs>
<polyline clip-path="url(#clip253)" style="stroke:#000000; stroke-width:2; stroke-opacity:0.1; fill:none" points="
  265.903,1423.18 265.903,1301.67 
  "/>
<polyline clip-path="url(#clip253)" style="stroke:#000000; stroke-width:2; stroke-opacity:0.1; fill:none" points="
  866.747,1423.18 866.747,1301.67 
  "/>
<polyline clip-path="url(#clip253)" style="stroke:#000000; stroke-width:2; stroke-opacity:0.1; fill:none" points="
  1467.59,1423.18 1467.59,1301.67 
  "/>
<polyline clip-path="url(#clip253)" style="stroke:#000000; stroke-width:2; stroke-opacity:0.1; fill:none" points="
  2068.44,1423.18 2068.44,1301.67 
  "/>
<polyline clip-path="url(#clip250)" style="stroke:#000000; stroke-width:4; stroke-opacity:1; fill:none" points="
  205.121,1423.18 2352.76,1423.18 
  "/>
<polyline clip-path="url(#clip250)" style="stroke:#000000; stroke-width:4; stroke-opacity:1; fill:none" points="
  265.903,1423.18 265.903,1421.72 
  "/>
<polyline clip-path="url(#clip250)" style="stroke:#000000; stroke-width:4; stroke-opacity:1; fill:none" points="
  866.747,1423.18 866.747,1421.72 
  "/>
<polyline clip-path="url(#clip250)" style="stroke:#000000; stroke-width:4; stroke-opacity:1; fill:none" points="
  1467.59,1423.18 1467.59,1421.72 
  "/>
<polyline clip-path="url(#clip250)" style="stroke:#000000; stroke-width:4; stroke-opacity:1; fill:none" points="
  2068.44,1423.18 2068.44,1421.72 
  "/>
<path clip-path="url(#clip250)" d="M 0 0 M182.964 1452.37 Q179.353 1452.37 177.524 1455.94 Q175.718 1459.48 175.718 1466.61 Q175.718 1473.71 177.524 1477.28 Q179.353 1480.82 182.964 1480.82 Q186.598 1480.82 188.404 1477.28 Q190.232 1473.71 190.232 1466.61 Q190.232 1459.48 188.404 1455.94 Q186.598 1452.37 182.964 1452.37 M182.964 1448.67 Q188.774 1448.67 191.829 1453.27 Q194.908 1457.86 194.908 1466.61 Q194.908 1475.33 191.829 1479.94 Q188.774 1484.52 182.964 1484.52 Q177.154 1484.52 174.075 1479.94 Q171.019 1475.33 171.019 1466.61 Q171.019 1457.86 174.075 1453.27 Q177.154 1448.67 182.964 1448.67 Z" fill="#000000" fill-rule="evenodd" fill-opacity="1" /><path clip-path="url(#clip250)" d="M 0 0 M203.126 1477.97 L208.01 1477.97 L208.01 1483.85 L203.126 1483.85 L203.126 1477.97 Z" fill="#000000" fill-rule="evenodd" fill-opacity="1" /><path clip-path="url(#clip250)" d="M 0 0 M228.195 1452.37 Q224.584 1452.37 222.755 1455.94 Q220.95 1459.48 220.95 1466.61 Q220.95 1473.71 222.755 1477.28 Q224.584 1480.82 228.195 1480.82 Q231.829 1480.82 233.635 1477.28 Q235.463 1473.71 235.463 1466.61 Q235.463 1459.48 233.635 1455.94 Q231.829 1452.37 228.195 1452.37 M228.195 1448.67 Q234.005 1448.67 237.061 1453.27 Q240.139 1457.86 240.139 1466.61 Q240.139 1475.33 237.061 1479.94 Q234.005 1484.52 228.195 1484.52 Q222.385 1484.52 219.306 1479.94 Q216.251 1475.33 216.251 1466.61 Q216.251 1457.86 219.306 1453.27 Q222.385 1448.67 228.195 1448.67 Z" fill="#000000" fill-rule="evenodd" fill-opacity="1" /><path clip-path="url(#clip250)" d="M 0 0 M258.357 1452.37 Q254.746 1452.37 252.917 1455.94 Q251.112 1459.48 251.112 1466.61 Q251.112 1473.71 252.917 1477.28 Q254.746 1480.82 258.357 1480.82 Q261.991 1480.82 263.797 1477.28 Q265.625 1473.71 265.625 1466.61 Q265.625 1459.48 263.797 1455.94 Q261.991 1452.37 258.357 1452.37 M258.357 1448.67 Q264.167 1448.67 267.223 1453.27 Q270.301 1457.86 270.301 1466.61 Q270.301 1475.33 267.223 1479.94 Q264.167 1484.52 258.357 1484.52 Q252.547 1484.52 249.468 1479.94 Q246.412 1475.33 246.412 1466.61 Q246.412 1457.86 249.468 1453.27 Q252.547 1448.67 258.357 1448.67 Z" fill="#000000" fill-rule="evenodd" fill-opacity="1" /><path clip-path="url(#clip250)" d="M 0 0 M288.519 1452.37 Q284.908 1452.37 283.079 1455.94 Q281.273 1459.48 281.273 1466.61 Q281.273 1473.71 283.079 1477.28 Q284.908 1480.82 288.519 1480.82 Q292.153 1480.82 293.959 1477.28 Q295.787 1473.71 295.787 1466.61 Q295.787 1459.48 293.959 1455.94 Q292.153 1452.37 288.519 1452.37 M288.519 1448.67 Q294.329 1448.67 297.384 1453.27 Q300.463 1457.86 300.463 1466.61 Q300.463 1475.33 297.384 1479.94 Q294.329 1484.52 288.519 1484.52 Q282.709 1484.52 279.63 1479.94 Q276.574 1475.33 276.574 1466.61 Q276.574 1457.86 279.63 1453.27 Q282.709 1448.67 288.519 1448.67 Z" fill="#000000" fill-rule="evenodd" fill-opacity="1" /><path clip-path="url(#clip250)" d="M 0 0 M318.681 1452.37 Q315.069 1452.37 313.241 1455.94 Q311.435 1459.48 311.435 1466.61 Q311.435 1473.71 313.241 1477.28 Q315.069 1480.82 318.681 1480.82 Q322.315 1480.82 324.12 1477.28 Q325.949 1473.71 325.949 1466.61 Q325.949 1459.48 324.12 1455.94 Q322.315 1452.37 318.681 1452.37 M318.681 1448.67 Q324.491 1448.67 327.546 1453.27 Q330.625 1457.86 330.625 1466.61 Q330.625 1475.33 327.546 1479.94 Q324.491 1484.52 318.681 1484.52 Q312.87 1484.52 309.792 1479.94 Q306.736 1475.33 306.736 1466.61 Q306.736 1457.86 309.792 1453.27 Q312.87 1448.67 318.681 1448.67 Z" fill="#000000" fill-rule="evenodd" fill-opacity="1" /><path clip-path="url(#clip250)" d="M 0 0 M348.842 1452.37 Q345.231 1452.37 343.403 1455.94 Q341.597 1459.48 341.597 1466.61 Q341.597 1473.71 343.403 1477.28 Q345.231 1480.82 348.842 1480.82 Q352.477 1480.82 354.282 1477.28 Q356.111 1473.71 356.111 1466.61 Q356.111 1459.48 354.282 1455.94 Q352.477 1452.37 348.842 1452.37 M348.842 1448.67 Q354.653 1448.67 357.708 1453.27 Q360.787 1457.86 360.787 1466.61 Q360.787 1475.33 357.708 1479.94 Q354.653 1484.52 348.842 1484.52 Q343.032 1484.52 339.954 1479.94 Q336.898 1475.33 336.898 1466.61 Q336.898 1457.86 339.954 1453.27 Q343.032 1448.67 348.842 1448.67 Z" fill="#000000" fill-rule="evenodd" fill-opacity="1" /><path clip-path="url(#clip250)" d="M 0 0 M784.306 1452.37 Q780.695 1452.37 778.866 1455.94 Q777.06 1459.48 777.06 1466.61 Q777.06 1473.71 778.866 1477.28 Q780.695 1480.82 784.306 1480.82 Q787.94 1480.82 789.745 1477.28 Q791.574 1473.71 791.574 1466.61 Q791.574 1459.48 789.745 1455.94 Q787.94 1452.37 784.306 1452.37 M784.306 1448.67 Q790.116 1448.67 793.171 1453.27 Q796.25 1457.86 796.25 1466.61 Q796.25 1475.33 793.171 1479.94 Q790.116 1484.52 784.306 1484.52 Q778.495 1484.52 775.417 1479.94 Q772.361 1475.33 772.361 1466.61 Q772.361 1457.86 775.417 1453.27 Q778.495 1448.67 784.306 1448.67 Z" fill="#000000" fill-rule="evenodd" fill-opacity="1" /><path clip-path="url(#clip250)" d="M 0 0 M804.468 1477.97 L809.352 1477.97 L809.352 1483.85 L804.468 1483.85 L804.468 1477.97 Z" fill="#000000" fill-rule="evenodd" fill-opacity="1" /><path clip-path="url(#clip250)" d="M 0 0 M829.537 1452.37 Q825.926 1452.37 824.097 1455.94 Q822.292 1459.48 822.292 1466.61 Q822.292 1473.71 824.097 1477.28 Q825.926 1480.82 829.537 1480.82 Q833.171 1480.82 834.977 1477.28 Q836.805 1473.71 836.805 1466.61 Q836.805 1459.48 834.977 1455.94 Q833.171 1452.37 829.537 1452.37 M829.537 1448.67 Q835.347 1448.67 838.403 1453.27 Q841.481 1457.86 841.481 1466.61 Q841.481 1475.33 838.403 1479.94 Q835.347 1484.52 829.537 1484.52 Q823.727 1484.52 820.648 1479.94 Q817.592 1475.33 817.592 1466.61 Q817.592 1457.86 820.648 1453.27 Q823.727 1448.67 829.537 1448.67 Z" fill="#000000" fill-rule="evenodd" fill-opacity="1" /><path clip-path="url(#clip250)" d="M 0 0 M859.699 1452.37 Q856.088 1452.37 854.259 1455.94 Q852.453 1459.48 852.453 1466.61 Q852.453 1473.71 854.259 1477.28 Q856.088 1480.82 859.699 1480.82 Q863.333 1480.82 865.139 1477.28 Q866.967 1473.71 866.967 1466.61 Q866.967 1459.48 865.139 1455.94 Q863.333 1452.37 859.699 1452.37 M859.699 1448.67 Q865.509 1448.67 868.564 1453.27 Q871.643 1457.86 871.643 1466.61 Q871.643 1475.33 868.564 1479.94 Q865.509 1484.52 859.699 1484.52 Q853.889 1484.52 850.81 1479.94 Q847.754 1475.33 847.754 1466.61 Q847.754 1457.86 850.81 1453.27 Q853.889 1448.67 859.699 1448.67 Z" fill="#000000" fill-rule="evenodd" fill-opacity="1" /><path clip-path="url(#clip250)" d="M 0 0 M889.861 1452.37 Q886.25 1452.37 884.421 1455.94 Q882.615 1459.48 882.615 1466.61 Q882.615 1473.71 884.421 1477.28 Q886.25 1480.82 889.861 1480.82 Q893.495 1480.82 895.3 1477.28 Q897.129 1473.71 897.129 1466.61 Q897.129 1459.48 895.3 1455.94 Q893.495 1452.37 889.861 1452.37 M889.861 1448.67 Q895.671 1448.67 898.726 1453.27 Q901.805 1457.86 901.805 1466.61 Q901.805 1475.33 898.726 1479.94 Q895.671 1484.52 889.861 1484.52 Q884.05 1484.52 880.972 1479.94 Q877.916 1475.33 877.916 1466.61 Q877.916 1457.86 880.972 1453.27 Q884.05 1448.67 889.861 1448.67 Z" fill="#000000" fill-rule="evenodd" fill-opacity="1" /><path clip-path="url(#clip250)" d="M 0 0 M920.022 1452.37 Q916.411 1452.37 914.583 1455.94 Q912.777 1459.48 912.777 1466.61 Q912.777 1473.71 914.583 1477.28 Q916.411 1480.82 920.022 1480.82 Q923.657 1480.82 925.462 1477.28 Q927.291 1473.71 927.291 1466.61 Q927.291 1459.48 925.462 1455.94 Q923.657 1452.37 920.022 1452.37 M920.022 1448.67 Q925.833 1448.67 928.888 1453.27 Q931.967 1457.86 931.967 1466.61 Q931.967 1475.33 928.888 1479.94 Q925.833 1484.52 920.022 1484.52 Q914.212 1484.52 911.134 1479.94 Q908.078 1475.33 908.078 1466.61 Q908.078 1457.86 911.134 1453.27 Q914.212 1448.67 920.022 1448.67 Z" fill="#000000" fill-rule="evenodd" fill-opacity="1" /><path clip-path="url(#clip250)" d="M 0 0 M940.231 1449.29 L958.587 1449.29 L958.587 1453.23 L944.513 1453.23 L944.513 1461.7 Q945.532 1461.35 946.55 1461.19 Q947.569 1461 948.587 1461 Q954.374 1461 957.754 1464.18 Q961.133 1467.35 961.133 1472.76 Q961.133 1478.34 957.661 1481.44 Q954.189 1484.52 947.87 1484.52 Q945.694 1484.52 943.425 1484.15 Q941.18 1483.78 938.772 1483.04 L938.772 1478.34 Q940.856 1479.48 943.078 1480.03 Q945.3 1480.59 947.777 1480.59 Q951.782 1480.59 954.12 1478.48 Q956.457 1476.38 956.457 1472.76 Q956.457 1469.15 954.12 1467.05 Q951.782 1464.94 947.777 1464.94 Q945.902 1464.94 944.027 1465.36 Q942.175 1465.77 940.231 1466.65 L940.231 1449.29 Z" fill="#000000" fill-rule="evenodd" fill-opacity="1" /><path clip-path="url(#clip250)" d="M 0 0 M1384.65 1452.37 Q1381.04 1452.37 1379.21 1455.94 Q1377.41 1459.48 1377.41 1466.61 Q1377.41 1473.71 1379.21 1477.28 Q1381.04 1480.82 1384.65 1480.82 Q1388.29 1480.82 1390.09 1477.28 Q1391.92 1473.71 1391.92 1466.61 Q1391.92 1459.48 1390.09 1455.94 Q1388.29 1452.37 1384.65 1452.37 M1384.65 1448.67 Q1390.46 1448.67 1393.52 1453.27 Q1396.6 1457.86 1396.6 1466.61 Q1396.6 1475.33 1393.52 1479.94 Q1390.46 1484.52 1384.65 1484.52 Q1378.84 1484.52 1375.76 1479.94 Q1372.71 1475.33 1372.71 1466.61 Q1372.71 1457.86 1375.76 1453.27 Q1378.84 1448.67 1384.65 1448.67 Z" fill="#000000" fill-rule="evenodd" fill-opacity="1" /><path clip-path="url(#clip250)" d="M 0 0 M1404.81 1477.97 L1409.7 1477.97 L1409.7 1483.85 L1404.81 1483.85 L1404.81 1477.97 Z" fill="#000000" fill-rule="evenodd" fill-opacity="1" /><path clip-path="url(#clip250)" d="M 0 0 M1429.88 1452.37 Q1426.27 1452.37 1424.44 1455.94 Q1422.64 1459.48 1422.64 1466.61 Q1422.64 1473.71 1424.44 1477.28 Q1426.27 1480.82 1429.88 1480.82 Q1433.52 1480.82 1435.32 1477.28 Q1437.15 1473.71 1437.15 1466.61 Q1437.15 1459.48 1435.32 1455.94 Q1433.52 1452.37 1429.88 1452.37 M1429.88 1448.67 Q1435.69 1448.67 1438.75 1453.27 Q1441.83 1457.86 1441.83 1466.61 Q1441.83 1475.33 1438.75 1479.94 Q1435.69 1484.52 1429.88 1484.52 Q1424.07 1484.52 1420.99 1479.94 Q1417.94 1475.33 1417.94 1466.61 Q1417.94 1457.86 1420.99 1453.27 Q1424.07 1448.67 1429.88 1448.67 Z" fill="#000000" fill-rule="evenodd" fill-opacity="1" /><path clip-path="url(#clip250)" d="M 0 0 M1460.05 1452.37 Q1456.43 1452.37 1454.61 1455.94 Q1452.8 1459.48 1452.8 1466.61 Q1452.8 1473.71 1454.61 1477.28 Q1456.43 1480.82 1460.05 1480.82 Q1463.68 1480.82 1465.49 1477.28 Q1467.31 1473.71 1467.31 1466.61 Q1467.31 1459.48 1465.49 1455.94 Q1463.68 1452.37 1460.05 1452.37 M1460.05 1448.67 Q1465.86 1448.67 1468.91 1453.27 Q1471.99 1457.86 1471.99 1466.61 Q1471.99 1475.33 1468.91 1479.94 Q1465.86 1484.52 1460.05 1484.52 Q1454.24 1484.52 1451.16 1479.94 Q1448.1 1475.33 1448.1 1466.61 Q1448.1 1457.86 1451.16 1453.27 Q1454.24 1448.67 1460.05 1448.67 Z" fill="#000000" fill-rule="evenodd" fill-opacity="1" /><path clip-path="url(#clip250)" d="M 0 0 M1490.21 1452.37 Q1486.6 1452.37 1484.77 1455.94 Q1482.96 1459.48 1482.96 1466.61 Q1482.96 1473.71 1484.77 1477.28 Q1486.6 1480.82 1490.21 1480.82 Q1493.84 1480.82 1495.65 1477.28 Q1497.48 1473.71 1497.48 1466.61 Q1497.48 1459.48 1495.65 1455.94 Q1493.84 1452.37 1490.21 1452.37 M1490.21 1448.67 Q1496.02 1448.67 1499.07 1453.27 Q1502.15 1457.86 1502.15 1466.61 Q1502.15 1475.33 1499.07 1479.94 Q1496.02 1484.52 1490.21 1484.52 Q1484.4 1484.52 1481.32 1479.94 Q1478.26 1475.33 1478.26 1466.61 Q1478.26 1457.86 1481.32 1453.27 Q1484.4 1448.67 1490.21 1448.67 Z" fill="#000000" fill-rule="evenodd" fill-opacity="1" /><path clip-path="url(#clip250)" d="M 0 0 M1511.18 1479.92 L1518.82 1479.92 L1518.82 1453.55 L1510.51 1455.22 L1510.51 1450.96 L1518.77 1449.29 L1523.45 1449.29 L1523.45 1479.92 L1531.09 1479.92 L1531.09 1483.85 L1511.18 1483.85 L1511.18 1479.92 Z" fill="#000000" fill-rule="evenodd" fill-opacity="1" /><path clip-path="url(#clip250)" d="M 0 0 M1550.53 1452.37 Q1546.92 1452.37 1545.09 1455.94 Q1543.29 1459.48 1543.29 1466.61 Q1543.29 1473.71 1545.09 1477.28 Q1546.92 1480.82 1550.53 1480.82 Q1554.17 1480.82 1555.97 1477.28 Q1557.8 1473.71 1557.8 1466.61 Q1557.8 1459.48 1555.97 1455.94 Q1554.17 1452.37 1550.53 1452.37 M1550.53 1448.67 Q1556.34 1448.67 1559.4 1453.27 Q1562.48 1457.86 1562.48 1466.61 Q1562.48 1475.33 1559.4 1479.94 Q1556.34 1484.52 1550.53 1484.52 Q1544.72 1484.52 1541.64 1479.94 Q1538.59 1475.33 1538.59 1466.61 Q1538.59 1457.86 1541.64 1453.27 Q1544.72 1448.67 1550.53 1448.67 Z" fill="#000000" fill-rule="evenodd" fill-opacity="1" /><path clip-path="url(#clip250)" d="M 0 0 M1985.99 1452.37 Q1982.38 1452.37 1980.55 1455.94 Q1978.75 1459.48 1978.75 1466.61 Q1978.75 1473.71 1980.55 1477.28 Q1982.38 1480.82 1985.99 1480.82 Q1989.63 1480.82 1991.43 1477.28 Q1993.26 1473.71 1993.26 1466.61 Q1993.26 1459.48 1991.43 1455.94 Q1989.63 1452.37 1985.99 1452.37 M1985.99 1448.67 Q1991.8 1448.67 1994.86 1453.27 Q1997.94 1457.86 1997.94 1466.61 Q1997.94 1475.33 1994.86 1479.94 Q1991.8 1484.52 1985.99 1484.52 Q1980.18 1484.52 1977.11 1479.94 Q1974.05 1475.33 1974.05 1466.61 Q1974.05 1457.86 1977.11 1453.27 Q1980.18 1448.67 1985.99 1448.67 Z" fill="#000000" fill-rule="evenodd" fill-opacity="1" /><path clip-path="url(#clip250)" d="M 0 0 M2006.16 1477.97 L2011.04 1477.97 L2011.04 1483.85 L2006.16 1483.85 L2006.16 1477.97 Z" fill="#000000" fill-rule="evenodd" fill-opacity="1" /><path clip-path="url(#clip250)" d="M 0 0 M2031.23 1452.37 Q2027.61 1452.37 2025.79 1455.94 Q2023.98 1459.48 2023.98 1466.61 Q2023.98 1473.71 2025.79 1477.28 Q2027.61 1480.82 2031.23 1480.82 Q2034.86 1480.82 2036.67 1477.28 Q2038.49 1473.71 2038.49 1466.61 Q2038.49 1459.48 2036.67 1455.94 Q2034.86 1452.37 2031.23 1452.37 M2031.23 1448.67 Q2037.04 1448.67 2040.09 1453.27 Q2043.17 1457.86 2043.17 1466.61 Q2043.17 1475.33 2040.09 1479.94 Q2037.04 1484.52 2031.23 1484.52 Q2025.42 1484.52 2022.34 1479.94 Q2019.28 1475.33 2019.28 1466.61 Q2019.28 1457.86 2022.34 1453.27 Q2025.42 1448.67 2031.23 1448.67 Z" fill="#000000" fill-rule="evenodd" fill-opacity="1" /><path clip-path="url(#clip250)" d="M 0 0 M2061.39 1452.37 Q2057.78 1452.37 2055.95 1455.94 Q2054.14 1459.48 2054.14 1466.61 Q2054.14 1473.71 2055.95 1477.28 Q2057.78 1480.82 2061.39 1480.82 Q2065.02 1480.82 2066.83 1477.28 Q2068.66 1473.71 2068.66 1466.61 Q2068.66 1459.48 2066.83 1455.94 Q2065.02 1452.37 2061.39 1452.37 M2061.39 1448.67 Q2067.2 1448.67 2070.25 1453.27 Q2073.33 1457.86 2073.33 1466.61 Q2073.33 1475.33 2070.25 1479.94 Q2067.2 1484.52 2061.39 1484.52 Q2055.58 1484.52 2052.5 1479.94 Q2049.44 1475.33 2049.44 1466.61 Q2049.44 1457.86 2052.5 1453.27 Q2055.58 1448.67 2061.39 1448.67 Z" fill="#000000" fill-rule="evenodd" fill-opacity="1" /><path clip-path="url(#clip250)" d="M 0 0 M2091.55 1452.37 Q2087.94 1452.37 2086.11 1455.94 Q2084.3 1459.48 2084.3 1466.61 Q2084.3 1473.71 2086.11 1477.28 Q2087.94 1480.82 2091.55 1480.82 Q2095.18 1480.82 2096.99 1477.28 Q2098.82 1473.71 2098.82 1466.61 Q2098.82 1459.48 2096.99 1455.94 Q2095.18 1452.37 2091.55 1452.37 M2091.55 1448.67 Q2097.36 1448.67 2100.41 1453.27 Q2103.49 1457.86 2103.49 1466.61 Q2103.49 1475.33 2100.41 1479.94 Q2097.36 1484.52 2091.55 1484.52 Q2085.74 1484.52 2082.66 1479.94 Q2079.6 1475.33 2079.6 1466.61 Q2079.6 1457.86 2082.66 1453.27 Q2085.74 1448.67 2091.55 1448.67 Z" fill="#000000" fill-rule="evenodd" fill-opacity="1" /><path clip-path="url(#clip250)" d="M 0 0 M2112.52 1479.92 L2120.16 1479.92 L2120.16 1453.55 L2111.85 1455.22 L2111.85 1450.96 L2120.11 1449.29 L2124.79 1449.29 L2124.79 1479.92 L2132.43 1479.92 L2132.43 1483.85 L2112.52 1483.85 L2112.52 1479.92 Z" fill="#000000" fill-rule="evenodd" fill-opacity="1" /><path clip-path="url(#clip250)" d="M 0 0 M2141.92 1449.29 L2160.28 1449.29 L2160.28 1453.23 L2146.2 1453.23 L2146.2 1461.7 Q2147.22 1461.35 2148.24 1461.19 Q2149.26 1461 2150.28 1461 Q2156.06 1461 2159.44 1464.18 Q2162.82 1467.35 2162.82 1472.76 Q2162.82 1478.34 2159.35 1481.44 Q2155.88 1484.52 2149.56 1484.52 Q2147.38 1484.52 2145.11 1484.15 Q2142.87 1483.78 2140.46 1483.04 L2140.46 1478.34 Q2142.54 1479.48 2144.77 1480.03 Q2146.99 1480.59 2149.47 1480.59 Q2153.47 1480.59 2155.81 1478.48 Q2158.15 1476.38 2158.15 1472.76 Q2158.15 1469.15 2155.81 1467.05 Q2153.47 1464.94 2149.47 1464.94 Q2147.59 1464.94 2145.72 1465.36 Q2143.86 1465.77 2141.92 1466.65 L2141.92 1449.29 Z" fill="#000000" fill-rule="evenodd" fill-opacity="1" /><path clip-path="url(#clip250)" d="M 0 0 M1107.43 1520.52 L1147.63 1520.52 L1147.63 1525.93 L1130.76 1525.93 L1130.76 1568.04 L1124.3 1568.04 L1124.3 1525.93 L1107.43 1525.93 L1107.43 1520.52 Z" fill="#000000" fill-rule="evenodd" fill-opacity="1" /><path clip-path="url(#clip250)" d="M 0 0 M1151.58 1532.4 L1157.43 1532.4 L1157.43 1568.04 L1151.58 1568.04 L1151.58 1532.4 M1151.58 1518.52 L1157.43 1518.52 L1157.43 1525.93 L1151.58 1525.93 L1151.58 1518.52 Z" fill="#000000" fill-rule="evenodd" fill-opacity="1" /><path clip-path="url(#clip250)" d="M 0 0 M1197.44 1539.24 Q1199.64 1535.29 1202.69 1533.41 Q1205.75 1531.54 1209.89 1531.54 Q1215.46 1531.54 1218.48 1535.45 Q1221.5 1539.33 1221.5 1546.53 L1221.5 1568.04 L1215.62 1568.04 L1215.62 1546.72 Q1215.62 1541.59 1213.8 1539.11 Q1211.99 1536.63 1208.26 1536.63 Q1203.71 1536.63 1201.07 1539.65 Q1198.43 1542.68 1198.43 1547.9 L1198.43 1568.04 L1192.54 1568.04 L1192.54 1546.72 Q1192.54 1541.56 1190.73 1539.11 Q1188.91 1536.63 1185.12 1536.63 Q1180.64 1536.63 1177.99 1539.68 Q1175.35 1542.71 1175.35 1547.9 L1175.35 1568.04 L1169.46 1568.04 L1169.46 1532.4 L1175.35 1532.4 L1175.35 1537.93 Q1177.36 1534.66 1180.16 1533.1 Q1182.96 1531.54 1186.81 1531.54 Q1190.69 1531.54 1193.4 1533.51 Q1196.14 1535.48 1197.44 1539.24 Z" fill="#000000" fill-rule="evenodd" fill-opacity="1" /><path clip-path="url(#clip250)" d="M 0 0 M1263.68 1548.76 L1263.68 1551.62 L1236.75 1551.62 Q1237.13 1557.67 1240.38 1560.85 Q1243.66 1564 1249.48 1564 Q1252.85 1564 1256.01 1563.17 Q1259.19 1562.35 1262.31 1560.69 L1262.31 1566.23 Q1259.16 1567.57 1255.85 1568.27 Q1252.54 1568.97 1249.13 1568.97 Q1240.6 1568.97 1235.6 1564 Q1230.64 1559.04 1230.64 1550.57 Q1230.64 1541.82 1235.35 1536.69 Q1240.09 1531.54 1248.11 1531.54 Q1255.31 1531.54 1259.48 1536.18 Q1263.68 1540.8 1263.68 1548.76 M1257.82 1547.04 Q1257.76 1542.23 1255.11 1539.37 Q1252.5 1536.5 1248.18 1536.5 Q1243.27 1536.5 1240.31 1539.27 Q1237.39 1542.04 1236.94 1547.07 L1257.82 1547.04 Z" fill="#000000" fill-rule="evenodd" fill-opacity="1" /><path clip-path="url(#clip250)" d="M 0 0 M1293.47 1518.52 L1306.96 1518.52 L1306.96 1523.07 L1299.32 1523.07 L1299.32 1572.09 L1306.96 1572.09 L1306.96 1576.64 L1293.47 1576.64 L1293.47 1518.52 Z" fill="#000000" fill-rule="evenodd" fill-opacity="1" /><path clip-path="url(#clip250)" d="M 0 0 M1348.18 1522.08 L1348.18 1528.35 Q1344.52 1526.6 1341.27 1525.74 Q1338.03 1524.88 1335 1524.88 Q1329.75 1524.88 1326.89 1526.92 Q1324.06 1528.96 1324.06 1532.71 Q1324.06 1535.87 1325.93 1537.49 Q1327.84 1539.08 1333.13 1540.07 L1337.01 1540.86 Q1344.2 1542.23 1347.61 1545.7 Q1351.05 1549.14 1351.05 1554.93 Q1351.05 1561.84 1346.4 1565.4 Q1341.78 1568.97 1332.84 1568.97 Q1329.47 1568.97 1325.65 1568.2 Q1321.86 1567.44 1317.79 1565.94 L1317.79 1559.32 Q1321.7 1561.52 1325.46 1562.63 Q1329.21 1563.75 1332.84 1563.75 Q1338.35 1563.75 1341.34 1561.58 Q1344.33 1559.42 1344.33 1555.41 Q1344.33 1551.91 1342.17 1549.93 Q1340.03 1547.96 1335.13 1546.97 L1331.22 1546.21 Q1324.02 1544.78 1320.81 1541.72 Q1317.59 1538.67 1317.59 1533.22 Q1317.59 1526.92 1322.02 1523.29 Q1326.47 1519.66 1334.27 1519.66 Q1337.61 1519.66 1341.08 1520.27 Q1344.55 1520.87 1348.18 1522.08 Z" fill="#000000" fill-rule="evenodd" fill-opacity="1" /><path clip-path="url(#clip250)" d="M 0 0 M1391.31 1548.76 L1391.31 1551.62 L1364.38 1551.62 Q1364.76 1557.67 1368.01 1560.85 Q1371.29 1564 1377.11 1564 Q1380.49 1564 1383.64 1563.17 Q1386.82 1562.35 1389.94 1560.69 L1389.94 1566.23 Q1386.79 1567.57 1383.48 1568.27 Q1380.17 1568.97 1376.76 1568.97 Q1368.23 1568.97 1363.24 1564 Q1358.27 1559.04 1358.27 1550.57 Q1358.27 1541.82 1362.98 1536.69 Q1367.72 1531.54 1375.74 1531.54 Q1382.94 1531.54 1387.11 1536.18 Q1391.31 1540.8 1391.31 1548.76 M1385.45 1547.04 Q1385.39 1542.23 1382.75 1539.37 Q1380.14 1536.5 1375.81 1536.5 Q1370.91 1536.5 1367.95 1539.27 Q1365.02 1542.04 1364.57 1547.07 L1385.45 1547.04 Z" fill="#000000" fill-rule="evenodd" fill-opacity="1" /><path clip-path="url(#clip250)" d="M 0 0 M1426.58 1533.76 L1426.58 1539.24 Q1424.09 1537.87 1421.58 1537.2 Q1419.1 1536.5 1416.55 1536.5 Q1410.85 1536.5 1407.7 1540.13 Q1404.55 1543.73 1404.55 1550.25 Q1404.55 1556.78 1407.7 1560.4 Q1410.85 1564 1416.55 1564 Q1419.1 1564 1421.58 1563.33 Q1424.09 1562.63 1426.58 1561.26 L1426.58 1566.68 Q1424.12 1567.82 1421.48 1568.39 Q1418.87 1568.97 1415.91 1568.97 Q1407.86 1568.97 1403.12 1563.91 Q1398.38 1558.85 1398.38 1550.25 Q1398.38 1541.53 1403.15 1536.53 Q1407.96 1531.54 1416.29 1531.54 Q1419 1531.54 1421.58 1532.11 Q1424.16 1532.65 1426.58 1533.76 Z" fill="#000000" fill-rule="evenodd" fill-opacity="1" /><path clip-path="url(#clip250)" d="M 0 0 M1450.45 1518.52 L1450.45 1576.64 L1436.95 1576.64 L1436.95 1572.09 L1444.56 1572.09 L1444.56 1523.07 L1436.95 1523.07 L1436.95 1518.52 L1450.45 1518.52 Z" fill="#000000" fill-rule="evenodd" fill-opacity="1" /><polyline clip-path="url(#clip250)" style="stroke:#000000; stroke-width:4; stroke-opacity:1; fill:none" points="
  205.121,1423.18 205.121,1301.67 
  "/>
<path clip-path="url(#clip250)" d="M 0 0 M76.6285 1392.07 L94.4843 1392.07 L94.4843 1383.99 Q94.4843 1379.5 92.1608 1377.05 Q89.8374 1374.6 85.5405 1374.6 Q81.2755 1374.6 78.952 1377.05 Q76.6285 1379.5 76.6285 1383.99 L76.6285 1392.07 M71.345 1398.5 L71.345 1383.99 Q71.345 1376 74.9734 1371.92 Q78.5701 1367.82 85.5405 1367.82 Q92.5746 1367.82 96.1712 1371.92 Q99.7679 1376 99.7679 1383.99 L99.7679 1392.07 L118.865 1392.07 L118.865 1398.5 L71.345 1398.5 Z" fill="#000000" fill-rule="evenodd" fill-opacity="1" /><path clip-path="url(#clip250)" d="M 0 0 M73.0955 1353.65 L83.217 1353.65 L83.217 1341.59 L87.7685 1341.59 L87.7685 1353.65 L107.12 1353.65 Q111.481 1353.65 112.722 1352.48 Q113.963 1351.27 113.963 1347.61 L113.963 1341.59 L118.865 1341.59 L118.865 1347.61 Q118.865 1354.39 116.351 1356.96 Q113.804 1359.54 107.12 1359.54 L87.7685 1359.54 L87.7685 1363.84 L83.217 1363.84 L83.217 1359.54 L73.0955 1359.54 L73.0955 1353.65 Z" fill="#000000" fill-rule="evenodd" fill-opacity="1" /><path clip-path="url(#clip250)" d="M 0 0 M110.781 1333.06 L110.781 1326.35 L118.865 1326.35 L118.865 1333.06 L110.781 1333.06 Z" fill="#000000" fill-rule="evenodd" fill-opacity="1" /><polyline clip-path="url(#clip253)" style="stroke:#009af9; stroke-width:4; stroke-opacity:1; fill:none" points="
  345.215,1544.69 345.215,1180.15 
  "/>
<polyline clip-path="url(#clip253)" style="stroke:#009af9; stroke-width:4; stroke-opacity:1; fill:none" points="
  392.08,1544.69 392.08,1180.15 
  "/>
<polyline clip-path="url(#clip253)" style="stroke:#009af9; stroke-width:4; stroke-opacity:1; fill:none" points="
  452.165,1544.69 452.165,1180.15 
  "/>
<polyline clip-path="url(#clip253)" style="stroke:#009af9; stroke-width:4; stroke-opacity:1; fill:none" points="
  479.804,1544.69 479.804,1180.15 
  "/>
<polyline clip-path="url(#clip253)" style="stroke:#009af9; stroke-width:4; stroke-opacity:1; fill:none" points="
  557.913,1544.69 557.913,1180.15 
  "/>
<polyline clip-path="url(#clip253)" style="stroke:#009af9; stroke-width:4; stroke-opacity:1; fill:none" points="
  619.212,1544.69 619.212,1180.15 
  "/>
<polyline clip-path="url(#clip253)" style="stroke:#009af9; stroke-width:4; stroke-opacity:1; fill:none" points="
  650.455,1544.69 650.455,1180.15 
  "/>
<polyline clip-path="url(#clip253)" style="stroke:#009af9; stroke-width:4; stroke-opacity:1; fill:none" points="
  678.094,1544.69 678.094,1180.15 
  "/>
<polyline clip-path="url(#clip253)" style="stroke:#009af9; stroke-width:4; stroke-opacity:1; fill:none" points="
  705.733,1544.69 705.733,1180.15 
  "/>
<polyline clip-path="url(#clip253)" style="stroke:#009af9; stroke-width:4; stroke-opacity:1; fill:none" points="
  732.17,1544.69 732.17,1180.15 
  "/>
<polyline clip-path="url(#clip253)" style="stroke:#009af9; stroke-width:4; stroke-opacity:1; fill:none" points="
  759.809,1544.69 759.809,1180.15 
  "/>
<polyline clip-path="url(#clip253)" style="stroke:#009af9; stroke-width:4; stroke-opacity:1; fill:none" points="
  798.263,1544.69 798.263,1180.15 
  "/>
<polyline clip-path="url(#clip253)" style="stroke:#009af9; stroke-width:4; stroke-opacity:1; fill:none" points="
  821.095,1544.69 821.095,1180.15 
  "/>
<polyline clip-path="url(#clip253)" style="stroke:#009af9; stroke-width:4; stroke-opacity:1; fill:none" points="
  893.196,1544.69 893.196,1180.15 
  "/>
<polyline clip-path="url(#clip253)" style="stroke:#009af9; stroke-width:4; stroke-opacity:1; fill:none" points="
  938.861,1544.69 938.861,1180.15 
  "/>
<polyline clip-path="url(#clip253)" style="stroke:#009af9; stroke-width:4; stroke-opacity:1; fill:none" points="
  980.92,1544.69 980.92,1180.15 
  "/>
<polyline clip-path="url(#clip253)" style="stroke:#009af9; stroke-width:4; stroke-opacity:1; fill:none" points="
  1048.21,1544.69 1048.21,1180.15 
  "/>
<polyline clip-path="url(#clip253)" style="stroke:#009af9; stroke-width:4; stroke-opacity:1; fill:none" points="
  1114.31,1544.69 1114.31,1180.15 
  "/>
<polyline clip-path="url(#clip253)" style="stroke:#009af9; stroke-width:4; stroke-opacity:1; fill:none" points="
  1165.98,1544.69 1165.98,1180.15 
  "/>
<polyline clip-path="url(#clip253)" style="stroke:#009af9; stroke-width:4; stroke-opacity:1; fill:none" points="
  1206.84,1544.69 1206.84,1180.15 
  "/>
<polyline clip-path="url(#clip253)" style="stroke:#009af9; stroke-width:4; stroke-opacity:1; fill:none" points="
  1234.48,1544.69 1234.48,1180.15 
  "/>
<polyline clip-path="url(#clip253)" style="stroke:#009af9; stroke-width:4; stroke-opacity:1; fill:none" points="
  1263.32,1544.69 1263.32,1180.15 
  "/>
<polyline clip-path="url(#clip253)" style="stroke:#009af9; stroke-width:4; stroke-opacity:1; fill:none" points="
  1290.96,1544.69 1290.96,1180.15 
  "/>
<polyline clip-path="url(#clip253)" style="stroke:#009af9; stroke-width:4; stroke-opacity:1; fill:none" points="
  1318.59,1544.69 1318.59,1180.15 
  "/>
<polyline clip-path="url(#clip253)" style="stroke:#009af9; stroke-width:4; stroke-opacity:1; fill:none" points="
  1371.47,1544.69 1371.47,1180.15 
  "/>
<polyline clip-path="url(#clip253)" style="stroke:#009af9; stroke-width:4; stroke-opacity:1; fill:none" points="
  1411.12,1544.69 1411.12,1180.15 
  "/>
<polyline clip-path="url(#clip253)" style="stroke:#009af9; stroke-width:4; stroke-opacity:1; fill:none" points="
  1483.23,1544.69 1483.23,1180.15 
  "/>
<polyline clip-path="url(#clip253)" style="stroke:#009af9; stroke-width:4; stroke-opacity:1; fill:none" points="
  1545.71,1544.69 1545.71,1180.15 
  "/>
<polyline clip-path="url(#clip253)" style="stroke:#009af9; stroke-width:4; stroke-opacity:1; fill:none" points="
  1632.23,1544.69 1632.23,1180.15 
  "/>
<polyline clip-path="url(#clip253)" style="stroke:#009af9; stroke-width:4; stroke-opacity:1; fill:none" points="
  1913.44,1544.69 1913.44,1180.15 
  "/>
<polyline clip-path="url(#clip253)" style="stroke:#009af9; stroke-width:4; stroke-opacity:1; fill:none" points="
  2030.01,1544.69 2030.01,1180.15 
  "/>
<polyline clip-path="url(#clip253)" style="stroke:#009af9; stroke-width:4; stroke-opacity:1; fill:none" points="
  2084.08,1544.69 2084.08,1180.15 
  "/>
<polyline clip-path="url(#clip253)" style="stroke:#009af9; stroke-width:4; stroke-opacity:1; fill:none" points="
  2139.36,1544.69 2139.36,1180.15 
  "/>
<polyline clip-path="url(#clip253)" style="stroke:#009af9; stroke-width:4; stroke-opacity:1; fill:none" points="
  2181.42,1544.69 2181.42,1180.15 
  "/>
<polyline clip-path="url(#clip253)" style="stroke:#009af9; stroke-width:4; stroke-opacity:1; fill:none" points="
  2223.48,1544.69 2223.48,1180.15 
  "/>
<polyline clip-path="url(#clip253)" style="stroke:#009af9; stroke-width:4; stroke-opacity:1; fill:none" points="
  2264.33,1544.69 2264.33,1180.15 
  "/>
<polyline clip-path="url(#clip253)" style="stroke:#009af9; stroke-width:4; stroke-opacity:1; fill:none" points="
  2291.97,1544.69 2291.97,1180.15 
  "/>
</svg>
