<?xml version="1.0" encoding="utf-8"?>
<svg xmlns="http://www.w3.org/2000/svg" xmlns:xlink="http://www.w3.org/1999/xlink" width="600" height="400" viewBox="0 0 2400 1600">
<defs>
  <clipPath id="clip620">
    <rect x="0" y="0" width="2400" height="1600"/>
  </clipPath>
</defs>
<path clip-path="url(#clip620)" d="
M0 1600 L2400 1600 L2400 0 L0 0  Z
  " fill="#ffffff" fill-rule="evenodd" fill-opacity="1"/>
<defs>
  <clipPath id="clip621">
    <rect x="480" y="0" width="1681" height="1600"/>
  </clipPath>
</defs>
<path clip-path="url(#clip620)" d="
M102.74 1245.85 L2352.76 1245.85 L2352.76 47.2441 L102.74 47.2441  Z
  " fill="#ffffff" fill-rule="evenodd" fill-opacity="1"/>
<defs>
  <clipPath id="clip622">
    <rect x="102" y="47" width="2251" height="1200"/>
  </clipPath>
</defs>
<polyline clip-path="url(#clip622)" style="stroke:#000000; stroke-width:2; stroke-opacity:0.1; fill:none" points="
  166.42,1245.85 166.42,47.2441 
  "/>
<polyline clip-path="url(#clip622)" style="stroke:#000000; stroke-width:2; stroke-opacity:0.1; fill:none" points="
  752.462,1245.85 752.462,47.2441 
  "/>
<polyline clip-path="url(#clip622)" style="stroke:#000000; stroke-width:2; stroke-opacity:0.1; fill:none" points="
  1338.5,1245.85 1338.5,47.2441 
  "/>
<polyline clip-path="url(#clip622)" style="stroke:#000000; stroke-width:2; stroke-opacity:0.1; fill:none" points="
  1924.55,1245.85 1924.55,47.2441 
  "/>
<polyline clip-path="url(#clip620)" style="stroke:#000000; stroke-width:4; stroke-opacity:1; fill:none" points="
  102.74,1245.85 2352.76,1245.85 
  "/>
<polyline clip-path="url(#clip620)" style="stroke:#000000; stroke-width:4; stroke-opacity:1; fill:none" points="
  166.42,1245.85 166.42,1231.46 
  "/>
<polyline clip-path="url(#clip620)" style="stroke:#000000; stroke-width:4; stroke-opacity:1; fill:none" points="
  752.462,1245.85 752.462,1231.46 
  "/>
<polyline clip-path="url(#clip620)" style="stroke:#000000; stroke-width:4; stroke-opacity:1; fill:none" points="
  1338.5,1245.85 1338.5,1231.46 
  "/>
<polyline clip-path="url(#clip620)" style="stroke:#000000; stroke-width:4; stroke-opacity:1; fill:none" points="
  1924.55,1245.85 1924.55,1231.46 
  "/>
<path clip-path="url(#clip620)" d="M 0 0 M83.4805 1275.04 Q79.8694 1275.04 78.0407 1278.6 Q76.2351 1282.14 76.2351 1289.27 Q76.2351 1296.38 78.0407 1299.94 Q79.8694 1303.49 83.4805 1303.49 Q87.1147 1303.49 88.9203 1299.94 Q90.749 1296.38 90.749 1289.27 Q90.749 1282.14 88.9203 1278.6 Q87.1147 1275.04 83.4805 1275.04 M83.4805 1271.33 Q89.2906 1271.33 92.3462 1275.94 Q95.4249 1280.52 95.4249 1289.27 Q95.4249 1298 92.3462 1302.61 Q89.2906 1307.19 83.4805 1307.19 Q77.6703 1307.19 74.5916 1302.61 Q71.5361 1298 71.5361 1289.27 Q71.5361 1280.52 74.5916 1275.94 Q77.6703 1271.33 83.4805 1271.33 Z" fill="#000000" fill-rule="evenodd" fill-opacity="1" /><path clip-path="url(#clip620)" d="M 0 0 M103.642 1300.64 L108.527 1300.64 L108.527 1306.52 L103.642 1306.52 L103.642 1300.64 Z" fill="#000000" fill-rule="evenodd" fill-opacity="1" /><path clip-path="url(#clip620)" d="M 0 0 M128.712 1275.04 Q125.101 1275.04 123.272 1278.6 Q121.466 1282.14 121.466 1289.27 Q121.466 1296.38 123.272 1299.94 Q125.101 1303.49 128.712 1303.49 Q132.346 1303.49 134.152 1299.94 Q135.98 1296.38 135.98 1289.27 Q135.98 1282.14 134.152 1278.6 Q132.346 1275.04 128.712 1275.04 M128.712 1271.33 Q134.522 1271.33 137.577 1275.94 Q140.656 1280.52 140.656 1289.27 Q140.656 1298 137.577 1302.61 Q134.522 1307.19 128.712 1307.19 Q122.902 1307.19 119.823 1302.61 Q116.767 1298 116.767 1289.27 Q116.767 1280.52 119.823 1275.94 Q122.902 1271.33 128.712 1271.33 Z" fill="#000000" fill-rule="evenodd" fill-opacity="1" /><path clip-path="url(#clip620)" d="M 0 0 M158.874 1275.04 Q155.263 1275.04 153.434 1278.6 Q151.628 1282.14 151.628 1289.27 Q151.628 1296.38 153.434 1299.94 Q155.263 1303.49 158.874 1303.49 Q162.508 1303.49 164.313 1299.94 Q166.142 1296.38 166.142 1289.27 Q166.142 1282.14 164.313 1278.6 Q162.508 1275.04 158.874 1275.04 M158.874 1271.33 Q164.684 1271.33 167.739 1275.94 Q170.818 1280.52 170.818 1289.27 Q170.818 1298 167.739 1302.61 Q164.684 1307.19 158.874 1307.19 Q153.063 1307.19 149.985 1302.61 Q146.929 1298 146.929 1289.27 Q146.929 1280.52 149.985 1275.94 Q153.063 1271.33 158.874 1271.33 Z" fill="#000000" fill-rule="evenodd" fill-opacity="1" /><path clip-path="url(#clip620)" d="M 0 0 M189.035 1275.04 Q185.424 1275.04 183.596 1278.6 Q181.79 1282.14 181.79 1289.27 Q181.79 1296.38 183.596 1299.94 Q185.424 1303.49 189.035 1303.49 Q192.67 1303.49 194.475 1299.94 Q196.304 1296.38 196.304 1289.27 Q196.304 1282.14 194.475 1278.6 Q192.67 1275.04 189.035 1275.04 M189.035 1271.33 Q194.846 1271.33 197.901 1275.94 Q200.98 1280.52 200.98 1289.27 Q200.98 1298 197.901 1302.61 Q194.846 1307.19 189.035 1307.19 Q183.225 1307.19 180.147 1302.61 Q177.091 1298 177.091 1289.27 Q177.091 1280.52 180.147 1275.94 Q183.225 1271.33 189.035 1271.33 Z" fill="#000000" fill-rule="evenodd" fill-opacity="1" /><path clip-path="url(#clip620)" d="M 0 0 M219.197 1275.04 Q215.586 1275.04 213.758 1278.6 Q211.952 1282.14 211.952 1289.27 Q211.952 1296.38 213.758 1299.94 Q215.586 1303.49 219.197 1303.49 Q222.832 1303.49 224.637 1299.94 Q226.466 1296.38 226.466 1289.27 Q226.466 1282.14 224.637 1278.6 Q222.832 1275.04 219.197 1275.04 M219.197 1271.33 Q225.007 1271.33 228.063 1275.94 Q231.142 1280.52 231.142 1289.27 Q231.142 1298 228.063 1302.61 Q225.007 1307.19 219.197 1307.19 Q213.387 1307.19 210.309 1302.61 Q207.253 1298 207.253 1289.27 Q207.253 1280.52 210.309 1275.94 Q213.387 1271.33 219.197 1271.33 Z" fill="#000000" fill-rule="evenodd" fill-opacity="1" /><path clip-path="url(#clip620)" d="M 0 0 M249.359 1275.04 Q245.748 1275.04 243.919 1278.6 Q242.114 1282.14 242.114 1289.27 Q242.114 1296.38 243.919 1299.94 Q245.748 1303.49 249.359 1303.49 Q252.993 1303.49 254.799 1299.94 Q256.628 1296.38 256.628 1289.27 Q256.628 1282.14 254.799 1278.6 Q252.993 1275.04 249.359 1275.04 M249.359 1271.33 Q255.169 1271.33 258.225 1275.94 Q261.304 1280.52 261.304 1289.27 Q261.304 1298 258.225 1302.61 Q255.169 1307.19 249.359 1307.19 Q243.549 1307.19 240.47 1302.61 Q237.415 1298 237.415 1289.27 Q237.415 1280.52 240.47 1275.94 Q243.549 1271.33 249.359 1271.33 Z" fill="#000000" fill-rule="evenodd" fill-opacity="1" /><path clip-path="url(#clip620)" d="M 0 0 M670.02 1275.04 Q666.409 1275.04 664.581 1278.6 Q662.775 1282.14 662.775 1289.27 Q662.775 1296.38 664.581 1299.94 Q666.409 1303.49 670.02 1303.49 Q673.655 1303.49 675.46 1299.94 Q677.289 1296.38 677.289 1289.27 Q677.289 1282.14 675.46 1278.6 Q673.655 1275.04 670.02 1275.04 M670.02 1271.33 Q675.83 1271.33 678.886 1275.94 Q681.965 1280.52 681.965 1289.27 Q681.965 1298 678.886 1302.61 Q675.83 1307.19 670.02 1307.19 Q664.21 1307.19 661.131 1302.61 Q658.076 1298 658.076 1289.27 Q658.076 1280.52 661.131 1275.94 Q664.21 1271.33 670.02 1271.33 Z" fill="#000000" fill-rule="evenodd" fill-opacity="1" /><path clip-path="url(#clip620)" d="M 0 0 M690.182 1300.64 L695.066 1300.64 L695.066 1306.52 L690.182 1306.52 L690.182 1300.64 Z" fill="#000000" fill-rule="evenodd" fill-opacity="1" /><path clip-path="url(#clip620)" d="M 0 0 M715.252 1275.04 Q711.64 1275.04 709.812 1278.6 Q708.006 1282.14 708.006 1289.27 Q708.006 1296.38 709.812 1299.94 Q711.64 1303.49 715.252 1303.49 Q718.886 1303.49 720.691 1299.94 Q722.52 1296.38 722.52 1289.27 Q722.52 1282.14 720.691 1278.6 Q718.886 1275.04 715.252 1275.04 M715.252 1271.33 Q721.062 1271.33 724.117 1275.94 Q727.196 1280.52 727.196 1289.27 Q727.196 1298 724.117 1302.61 Q721.062 1307.19 715.252 1307.19 Q709.441 1307.19 706.363 1302.61 Q703.307 1298 703.307 1289.27 Q703.307 1280.52 706.363 1275.94 Q709.441 1271.33 715.252 1271.33 Z" fill="#000000" fill-rule="evenodd" fill-opacity="1" /><path clip-path="url(#clip620)" d="M 0 0 M745.413 1275.04 Q741.802 1275.04 739.974 1278.6 Q738.168 1282.14 738.168 1289.27 Q738.168 1296.38 739.974 1299.94 Q741.802 1303.49 745.413 1303.49 Q749.048 1303.49 750.853 1299.94 Q752.682 1296.38 752.682 1289.27 Q752.682 1282.14 750.853 1278.6 Q749.048 1275.04 745.413 1275.04 M745.413 1271.33 Q751.224 1271.33 754.279 1275.94 Q757.358 1280.52 757.358 1289.27 Q757.358 1298 754.279 1302.61 Q751.224 1307.19 745.413 1307.19 Q739.603 1307.19 736.525 1302.61 Q733.469 1298 733.469 1289.27 Q733.469 1280.52 736.525 1275.94 Q739.603 1271.33 745.413 1271.33 Z" fill="#000000" fill-rule="evenodd" fill-opacity="1" /><path clip-path="url(#clip620)" d="M 0 0 M775.575 1275.04 Q771.964 1275.04 770.136 1278.6 Q768.33 1282.14 768.33 1289.27 Q768.33 1296.38 770.136 1299.94 Q771.964 1303.49 775.575 1303.49 Q779.21 1303.49 781.015 1299.94 Q782.844 1296.38 782.844 1289.27 Q782.844 1282.14 781.015 1278.6 Q779.21 1275.04 775.575 1275.04 M775.575 1271.33 Q781.385 1271.33 784.441 1275.94 Q787.52 1280.52 787.52 1289.27 Q787.52 1298 784.441 1302.61 Q781.385 1307.19 775.575 1307.19 Q769.765 1307.19 766.686 1302.61 Q763.631 1298 763.631 1289.27 Q763.631 1280.52 766.686 1275.94 Q769.765 1271.33 775.575 1271.33 Z" fill="#000000" fill-rule="evenodd" fill-opacity="1" /><path clip-path="url(#clip620)" d="M 0 0 M805.737 1275.04 Q802.126 1275.04 800.297 1278.6 Q798.492 1282.14 798.492 1289.27 Q798.492 1296.38 800.297 1299.94 Q802.126 1303.49 805.737 1303.49 Q809.371 1303.49 811.177 1299.94 Q813.006 1296.38 813.006 1289.27 Q813.006 1282.14 811.177 1278.6 Q809.371 1275.04 805.737 1275.04 M805.737 1271.33 Q811.547 1271.33 814.603 1275.94 Q817.682 1280.52 817.682 1289.27 Q817.682 1298 814.603 1302.61 Q811.547 1307.19 805.737 1307.19 Q799.927 1307.19 796.848 1302.61 Q793.793 1298 793.793 1289.27 Q793.793 1280.52 796.848 1275.94 Q799.927 1271.33 805.737 1271.33 Z" fill="#000000" fill-rule="evenodd" fill-opacity="1" /><path clip-path="url(#clip620)" d="M 0 0 M825.945 1271.96 L844.302 1271.96 L844.302 1275.89 L830.228 1275.89 L830.228 1284.37 Q831.246 1284.02 832.265 1283.86 Q833.283 1283.67 834.302 1283.67 Q840.089 1283.67 843.468 1286.84 Q846.848 1290.01 846.848 1295.43 Q846.848 1301.01 843.376 1304.11 Q839.904 1307.19 833.584 1307.19 Q831.408 1307.19 829.14 1306.82 Q826.894 1306.45 824.487 1305.71 L824.487 1301.01 Q826.57 1302.14 828.793 1302.7 Q831.015 1303.25 833.492 1303.25 Q837.496 1303.25 839.834 1301.15 Q842.172 1299.04 842.172 1295.43 Q842.172 1291.82 839.834 1289.71 Q837.496 1287.61 833.492 1287.61 Q831.617 1287.61 829.742 1288.02 Q827.89 1288.44 825.945 1289.32 L825.945 1271.96 Z" fill="#000000" fill-rule="evenodd" fill-opacity="1" /><path clip-path="url(#clip620)" d="M 0 0 M1255.56 1275.04 Q1251.95 1275.04 1250.12 1278.6 Q1248.32 1282.14 1248.32 1289.27 Q1248.32 1296.38 1250.12 1299.94 Q1251.95 1303.49 1255.56 1303.49 Q1259.2 1303.49 1261 1299.94 Q1262.83 1296.38 1262.83 1289.27 Q1262.83 1282.14 1261 1278.6 Q1259.2 1275.04 1255.56 1275.04 M1255.56 1271.33 Q1261.37 1271.33 1264.43 1275.94 Q1267.51 1280.52 1267.51 1289.27 Q1267.51 1298 1264.43 1302.61 Q1261.37 1307.19 1255.56 1307.19 Q1249.75 1307.19 1246.68 1302.61 Q1243.62 1298 1243.62 1289.27 Q1243.62 1280.52 1246.68 1275.94 Q1249.75 1271.33 1255.56 1271.33 Z" fill="#000000" fill-rule="evenodd" fill-opacity="1" /><path clip-path="url(#clip620)" d="M 0 0 M1275.73 1300.64 L1280.61 1300.64 L1280.61 1306.52 L1275.73 1306.52 L1275.73 1300.64 Z" fill="#000000" fill-rule="evenodd" fill-opacity="1" /><path clip-path="url(#clip620)" d="M 0 0 M1300.8 1275.04 Q1297.18 1275.04 1295.36 1278.6 Q1293.55 1282.14 1293.55 1289.27 Q1293.55 1296.38 1295.36 1299.94 Q1297.18 1303.49 1300.8 1303.49 Q1304.43 1303.49 1306.24 1299.94 Q1308.06 1296.38 1308.06 1289.27 Q1308.06 1282.14 1306.24 1278.6 Q1304.43 1275.04 1300.8 1275.04 M1300.8 1271.33 Q1306.61 1271.33 1309.66 1275.94 Q1312.74 1280.52 1312.74 1289.27 Q1312.74 1298 1309.66 1302.61 Q1306.61 1307.19 1300.8 1307.19 Q1294.99 1307.19 1291.91 1302.61 Q1288.85 1298 1288.85 1289.27 Q1288.85 1280.52 1291.91 1275.94 Q1294.99 1271.33 1300.8 1271.33 Z" fill="#000000" fill-rule="evenodd" fill-opacity="1" /><path clip-path="url(#clip620)" d="M 0 0 M1330.96 1275.04 Q1327.35 1275.04 1325.52 1278.6 Q1323.71 1282.14 1323.71 1289.27 Q1323.71 1296.38 1325.52 1299.94 Q1327.35 1303.49 1330.96 1303.49 Q1334.59 1303.49 1336.4 1299.94 Q1338.23 1296.38 1338.23 1289.27 Q1338.23 1282.14 1336.4 1278.6 Q1334.59 1275.04 1330.96 1275.04 M1330.96 1271.33 Q1336.77 1271.33 1339.82 1275.94 Q1342.9 1280.52 1342.9 1289.27 Q1342.9 1298 1339.82 1302.61 Q1336.77 1307.19 1330.96 1307.19 Q1325.15 1307.19 1322.07 1302.61 Q1319.01 1298 1319.01 1289.27 Q1319.01 1280.52 1322.07 1275.94 Q1325.15 1271.33 1330.96 1271.33 Z" fill="#000000" fill-rule="evenodd" fill-opacity="1" /><path clip-path="url(#clip620)" d="M 0 0 M1361.12 1275.04 Q1357.51 1275.04 1355.68 1278.6 Q1353.87 1282.14 1353.87 1289.27 Q1353.87 1296.38 1355.68 1299.94 Q1357.51 1303.49 1361.12 1303.49 Q1364.75 1303.49 1366.56 1299.94 Q1368.39 1296.38 1368.39 1289.27 Q1368.39 1282.14 1366.56 1278.6 Q1364.75 1275.04 1361.12 1275.04 M1361.12 1271.33 Q1366.93 1271.33 1369.99 1275.94 Q1373.06 1280.52 1373.06 1289.27 Q1373.06 1298 1369.99 1302.61 Q1366.93 1307.19 1361.12 1307.19 Q1355.31 1307.19 1352.23 1302.61 Q1349.18 1298 1349.18 1289.27 Q1349.18 1280.52 1352.23 1275.94 Q1355.31 1271.33 1361.12 1271.33 Z" fill="#000000" fill-rule="evenodd" fill-opacity="1" /><path clip-path="url(#clip620)" d="M 0 0 M1382.09 1302.58 L1389.73 1302.58 L1389.73 1276.22 L1381.42 1277.88 L1381.42 1273.62 L1389.68 1271.96 L1394.36 1271.96 L1394.36 1302.58 L1402 1302.58 L1402 1306.52 L1382.09 1306.52 L1382.09 1302.58 Z" fill="#000000" fill-rule="evenodd" fill-opacity="1" /><path clip-path="url(#clip620)" d="M 0 0 M1421.44 1275.04 Q1417.83 1275.04 1416 1278.6 Q1414.2 1282.14 1414.2 1289.27 Q1414.2 1296.38 1416 1299.94 Q1417.83 1303.49 1421.44 1303.49 Q1425.08 1303.49 1426.88 1299.94 Q1428.71 1296.38 1428.71 1289.27 Q1428.71 1282.14 1426.88 1278.6 Q1425.08 1275.04 1421.44 1275.04 M1421.44 1271.33 Q1427.25 1271.33 1430.31 1275.94 Q1433.39 1280.52 1433.39 1289.27 Q1433.39 1298 1430.31 1302.61 Q1427.25 1307.19 1421.44 1307.19 Q1415.63 1307.19 1412.55 1302.61 Q1409.5 1298 1409.5 1289.27 Q1409.5 1280.52 1412.55 1275.94 Q1415.63 1271.33 1421.44 1271.33 Z" fill="#000000" fill-rule="evenodd" fill-opacity="1" /><path clip-path="url(#clip620)" d="M 0 0 M1842.1 1275.04 Q1838.49 1275.04 1836.66 1278.6 Q1834.86 1282.14 1834.86 1289.27 Q1834.86 1296.38 1836.66 1299.94 Q1838.49 1303.49 1842.1 1303.49 Q1845.74 1303.49 1847.54 1299.94 Q1849.37 1296.38 1849.37 1289.27 Q1849.37 1282.14 1847.54 1278.6 Q1845.74 1275.04 1842.1 1275.04 M1842.1 1271.33 Q1847.91 1271.33 1850.97 1275.94 Q1854.05 1280.52 1854.05 1289.27 Q1854.05 1298 1850.97 1302.61 Q1847.91 1307.19 1842.1 1307.19 Q1836.29 1307.19 1833.22 1302.61 Q1830.16 1298 1830.16 1289.27 Q1830.16 1280.52 1833.22 1275.94 Q1836.29 1271.33 1842.1 1271.33 Z" fill="#000000" fill-rule="evenodd" fill-opacity="1" /><path clip-path="url(#clip620)" d="M 0 0 M1862.27 1300.64 L1867.15 1300.64 L1867.15 1306.52 L1862.27 1306.52 L1862.27 1300.64 Z" fill="#000000" fill-rule="evenodd" fill-opacity="1" /><path clip-path="url(#clip620)" d="M 0 0 M1887.34 1275.04 Q1883.72 1275.04 1881.9 1278.6 Q1880.09 1282.14 1880.09 1289.27 Q1880.09 1296.38 1881.9 1299.94 Q1883.72 1303.49 1887.34 1303.49 Q1890.97 1303.49 1892.78 1299.94 Q1894.6 1296.38 1894.6 1289.27 Q1894.6 1282.14 1892.78 1278.6 Q1890.97 1275.04 1887.34 1275.04 M1887.34 1271.33 Q1893.15 1271.33 1896.2 1275.94 Q1899.28 1280.52 1899.28 1289.27 Q1899.28 1298 1896.2 1302.61 Q1893.15 1307.19 1887.34 1307.19 Q1881.53 1307.19 1878.45 1302.61 Q1875.39 1298 1875.39 1289.27 Q1875.39 1280.52 1878.45 1275.94 Q1881.53 1271.33 1887.34 1271.33 Z" fill="#000000" fill-rule="evenodd" fill-opacity="1" /><path clip-path="url(#clip620)" d="M 0 0 M1917.5 1275.04 Q1913.89 1275.04 1912.06 1278.6 Q1910.25 1282.14 1910.25 1289.27 Q1910.25 1296.38 1912.06 1299.94 Q1913.89 1303.49 1917.5 1303.49 Q1921.13 1303.49 1922.94 1299.94 Q1924.77 1296.38 1924.77 1289.27 Q1924.77 1282.14 1922.94 1278.6 Q1921.13 1275.04 1917.5 1275.04 M1917.5 1271.33 Q1923.31 1271.33 1926.36 1275.94 Q1929.44 1280.52 1929.44 1289.27 Q1929.44 1298 1926.36 1302.61 Q1923.31 1307.19 1917.5 1307.19 Q1911.69 1307.19 1908.61 1302.61 Q1905.55 1298 1905.55 1289.27 Q1905.55 1280.52 1908.61 1275.94 Q1911.69 1271.33 1917.5 1271.33 Z" fill="#000000" fill-rule="evenodd" fill-opacity="1" /><path clip-path="url(#clip620)" d="M 0 0 M1947.66 1275.04 Q1944.05 1275.04 1942.22 1278.6 Q1940.41 1282.14 1940.41 1289.27 Q1940.41 1296.38 1942.22 1299.94 Q1944.05 1303.49 1947.66 1303.49 Q1951.29 1303.49 1953.1 1299.94 Q1954.93 1296.38 1954.93 1289.27 Q1954.93 1282.14 1953.1 1278.6 Q1951.29 1275.04 1947.66 1275.04 M1947.66 1271.33 Q1953.47 1271.33 1956.53 1275.94 Q1959.6 1280.52 1959.6 1289.27 Q1959.6 1298 1956.53 1302.61 Q1953.47 1307.19 1947.66 1307.19 Q1941.85 1307.19 1938.77 1302.61 Q1935.72 1298 1935.72 1289.27 Q1935.72 1280.52 1938.77 1275.94 Q1941.85 1271.33 1947.66 1271.33 Z" fill="#000000" fill-rule="evenodd" fill-opacity="1" /><path clip-path="url(#clip620)" d="M 0 0 M1968.63 1302.58 L1976.27 1302.58 L1976.27 1276.22 L1967.96 1277.88 L1967.96 1273.62 L1976.22 1271.96 L1980.9 1271.96 L1980.9 1302.58 L1988.54 1302.58 L1988.54 1306.52 L1968.63 1306.52 L1968.63 1302.58 Z" fill="#000000" fill-rule="evenodd" fill-opacity="1" /><path clip-path="url(#clip620)" d="M 0 0 M1998.03 1271.96 L2016.39 1271.96 L2016.39 1275.89 L2002.31 1275.89 L2002.31 1284.37 Q2003.33 1284.02 2004.35 1283.86 Q2005.37 1283.67 2006.39 1283.67 Q2012.17 1283.67 2015.55 1286.84 Q2018.93 1290.01 2018.93 1295.43 Q2018.93 1301.01 2015.46 1304.11 Q2011.99 1307.19 2005.67 1307.19 Q2003.49 1307.19 2001.22 1306.82 Q1998.98 1306.45 1996.57 1305.71 L1996.57 1301.01 Q1998.65 1302.14 2000.88 1302.7 Q2003.1 1303.25 2005.58 1303.25 Q2009.58 1303.25 2011.92 1301.15 Q2014.26 1299.04 2014.26 1295.43 Q2014.26 1291.82 2011.92 1289.71 Q2009.58 1287.61 2005.58 1287.61 Q2003.7 1287.61 2001.83 1288.02 Q1999.97 1288.44 1998.03 1289.32 L1998.03 1271.96 Z" fill="#000000" fill-rule="evenodd" fill-opacity="1" /><polyline clip-path="url(#clip622)" style="stroke:#000000; stroke-width:2; stroke-opacity:0.1; fill:none" points="
  102.74,1211.92 2352.76,1211.92 
  "/>
<polyline clip-path="url(#clip622)" style="stroke:#000000; stroke-width:2; stroke-opacity:0.1; fill:none" points="
  102.74,1023.46 2352.76,1023.46 
  "/>
<polyline clip-path="url(#clip622)" style="stroke:#000000; stroke-width:2; stroke-opacity:0.1; fill:none" points="
  102.74,835.004 2352.76,835.004 
  "/>
<polyline clip-path="url(#clip622)" style="stroke:#000000; stroke-width:2; stroke-opacity:0.1; fill:none" points="
  102.74,646.545 2352.76,646.545 
  "/>
<polyline clip-path="url(#clip622)" style="stroke:#000000; stroke-width:2; stroke-opacity:0.1; fill:none" points="
  102.74,458.086 2352.76,458.086 
  "/>
<polyline clip-path="url(#clip622)" style="stroke:#000000; stroke-width:2; stroke-opacity:0.1; fill:none" points="
  102.74,269.626 2352.76,269.626 
  "/>
<polyline clip-path="url(#clip622)" style="stroke:#000000; stroke-width:2; stroke-opacity:0.1; fill:none" points="
  102.74,81.1668 2352.76,81.1668 
  "/>
<polyline clip-path="url(#clip620)" style="stroke:#000000; stroke-width:4; stroke-opacity:1; fill:none" points="
  102.74,1245.85 102.74,47.2441 
  "/>
<polyline clip-path="url(#clip620)" style="stroke:#000000; stroke-width:4; stroke-opacity:1; fill:none" points="
  102.74,1211.92 129.74,1211.92 
  "/>
<polyline clip-path="url(#clip620)" style="stroke:#000000; stroke-width:4; stroke-opacity:1; fill:none" points="
  102.74,1023.46 129.74,1023.46 
  "/>
<polyline clip-path="url(#clip620)" style="stroke:#000000; stroke-width:4; stroke-opacity:1; fill:none" points="
  102.74,835.004 129.74,835.004 
  "/>
<polyline clip-path="url(#clip620)" style="stroke:#000000; stroke-width:4; stroke-opacity:1; fill:none" points="
  102.74,646.545 129.74,646.545 
  "/>
<polyline clip-path="url(#clip620)" style="stroke:#000000; stroke-width:4; stroke-opacity:1; fill:none" points="
  102.74,458.086 129.74,458.086 
  "/>
<polyline clip-path="url(#clip620)" style="stroke:#000000; stroke-width:4; stroke-opacity:1; fill:none" points="
  102.74,269.626 129.74,269.626 
  "/>
<polyline clip-path="url(#clip620)" style="stroke:#000000; stroke-width:4; stroke-opacity:1; fill:none" points="
  102.74,81.1668 129.74,81.1668 
  "/>
<path clip-path="url(#clip620)" d="M 0 0 M54.7958 1197.72 Q51.1847 1197.72 49.356 1201.29 Q47.5504 1204.83 47.5504 1211.96 Q47.5504 1219.06 49.356 1222.63 Q51.1847 1226.17 54.7958 1226.17 Q58.43 1226.17 60.2356 1222.63 Q62.0643 1219.06 62.0643 1211.96 Q62.0643 1204.83 60.2356 1201.29 Q58.43 1197.72 54.7958 1197.72 M54.7958 1194.02 Q60.6059 1194.02 63.6615 1198.62 Q66.7402 1203.21 66.7402 1211.96 Q66.7402 1220.68 63.6615 1225.29 Q60.6059 1229.87 54.7958 1229.87 Q48.9856 1229.87 45.9069 1225.29 Q42.8514 1220.68 42.8514 1211.96 Q42.8514 1203.21 45.9069 1198.62 Q48.9856 1194.02 54.7958 1194.02 Z" fill="#000000" fill-rule="evenodd" fill-opacity="1" /><path clip-path="url(#clip620)" d="M 0 0 M15.4441 1036.81 L23.083 1036.81 L23.083 1010.44 L14.7728 1012.11 L14.7728 1007.85 L23.0367 1006.18 L27.7126 1006.18 L27.7126 1036.81 L35.3514 1036.81 L35.3514 1040.74 L15.4441 1040.74 L15.4441 1036.81 Z" fill="#000000" fill-rule="evenodd" fill-opacity="1" /><path clip-path="url(#clip620)" d="M 0 0 M54.7958 1009.26 Q51.1847 1009.26 49.356 1012.83 Q47.5504 1016.37 47.5504 1023.5 Q47.5504 1030.6 49.356 1034.17 Q51.1847 1037.71 54.7958 1037.71 Q58.43 1037.71 60.2356 1034.17 Q62.0643 1030.6 62.0643 1023.5 Q62.0643 1016.37 60.2356 1012.83 Q58.43 1009.26 54.7958 1009.26 M54.7958 1005.56 Q60.6059 1005.56 63.6615 1010.17 Q66.7402 1014.75 66.7402 1023.5 Q66.7402 1032.23 63.6615 1036.83 Q60.6059 1041.41 54.7958 1041.41 Q48.9856 1041.41 45.9069 1036.83 Q42.8514 1032.23 42.8514 1023.5 Q42.8514 1014.75 45.9069 1010.17 Q48.9856 1005.56 54.7958 1005.56 Z" fill="#000000" fill-rule="evenodd" fill-opacity="1" /><path clip-path="url(#clip620)" d="M 0 0 M18.6617 848.349 L34.9811 848.349 L34.9811 852.284 L13.0367 852.284 L13.0367 848.349 Q15.6988 845.594 20.2821 840.965 Q24.8885 836.312 26.0691 834.97 Q28.3144 832.446 29.1941 830.71 Q30.0968 828.951 30.0968 827.261 Q30.0968 824.507 28.1524 822.771 Q26.2311 821.034 23.1293 821.034 Q20.9302 821.034 18.4765 821.798 Q16.046 822.562 13.2682 824.113 L13.2682 819.391 Q16.0923 818.257 18.546 817.678 Q20.9997 817.099 23.0367 817.099 Q28.407 817.099 31.6015 819.784 Q34.7959 822.47 34.7959 826.96 Q34.7959 829.09 33.9857 831.011 Q33.1987 832.909 31.0922 835.502 Q30.5135 836.173 27.4117 839.391 Q24.3098 842.585 18.6617 848.349 Z" fill="#000000" fill-rule="evenodd" fill-opacity="1" /><path clip-path="url(#clip620)" d="M 0 0 M54.7958 820.803 Q51.1847 820.803 49.356 824.368 Q47.5504 827.909 47.5504 835.039 Q47.5504 842.145 49.356 845.71 Q51.1847 849.252 54.7958 849.252 Q58.43 849.252 60.2356 845.71 Q62.0643 842.145 62.0643 835.039 Q62.0643 827.909 60.2356 824.368 Q58.43 820.803 54.7958 820.803 M54.7958 817.099 Q60.6059 817.099 63.6615 821.706 Q66.7402 826.289 66.7402 835.039 Q66.7402 843.766 63.6615 848.372 Q60.6059 852.956 54.7958 852.956 Q48.9856 852.956 45.9069 848.372 Q42.8514 843.766 42.8514 835.039 Q42.8514 826.289 45.9069 821.706 Q48.9856 817.099 54.7958 817.099 Z" fill="#000000" fill-rule="evenodd" fill-opacity="1" /><path clip-path="url(#clip620)" d="M 0 0 M28.8005 645.191 Q32.157 645.908 34.032 648.177 Q35.9301 650.445 35.9301 653.779 Q35.9301 658.894 32.4116 661.695 Q28.8931 664.496 22.4117 664.496 Q20.2358 664.496 17.921 664.056 Q15.6293 663.64 13.1756 662.783 L13.1756 658.269 Q15.1201 659.404 17.4349 659.982 Q19.7497 660.561 22.2728 660.561 Q26.6709 660.561 28.9626 658.825 Q31.2774 657.089 31.2774 653.779 Q31.2774 650.723 29.1246 649.01 Q26.995 647.274 23.1756 647.274 L19.1478 647.274 L19.1478 643.431 L23.3608 643.431 Q26.8098 643.431 28.6385 642.066 Q30.4672 640.677 30.4672 638.084 Q30.4672 635.422 28.5691 634.01 Q26.6941 632.575 23.1756 632.575 Q21.2543 632.575 19.0552 632.992 Q16.8562 633.408 14.2173 634.288 L14.2173 630.121 Q16.8793 629.381 19.1941 629.01 Q21.5321 628.64 23.5922 628.64 Q28.9163 628.64 32.0181 631.07 Q35.12 633.478 35.12 637.598 Q35.12 640.469 33.4764 642.459 Q31.8329 644.427 28.8005 645.191 Z" fill="#000000" fill-rule="evenodd" fill-opacity="1" /><path clip-path="url(#clip620)" d="M 0 0 M54.7958 632.344 Q51.1847 632.344 49.356 635.908 Q47.5504 639.45 47.5504 646.58 Q47.5504 653.686 49.356 657.251 Q51.1847 660.792 54.7958 660.792 Q58.43 660.792 60.2356 657.251 Q62.0643 653.686 62.0643 646.58 Q62.0643 639.45 60.2356 635.908 Q58.43 632.344 54.7958 632.344 M54.7958 628.64 Q60.6059 628.64 63.6615 633.246 Q66.7402 637.83 66.7402 646.58 Q66.7402 655.306 63.6615 659.913 Q60.6059 664.496 54.7958 664.496 Q48.9856 664.496 45.9069 659.913 Q42.8514 655.306 42.8514 646.58 Q42.8514 637.83 45.9069 633.246 Q48.9856 628.64 54.7958 628.64 Z" fill="#000000" fill-rule="evenodd" fill-opacity="1" /><path clip-path="url(#clip620)" d="M 0 0 M27.4811 444.88 L15.6756 463.329 L27.4811 463.329 L27.4811 444.88 M26.2543 440.806 L32.1339 440.806 L32.1339 463.329 L37.0644 463.329 L37.0644 467.217 L32.1339 467.217 L32.1339 475.366 L27.4811 475.366 L27.4811 467.217 L11.8793 467.217 L11.8793 462.704 L26.2543 440.806 Z" fill="#000000" fill-rule="evenodd" fill-opacity="1" /><path clip-path="url(#clip620)" d="M 0 0 M54.7958 443.884 Q51.1847 443.884 49.356 447.449 Q47.5504 450.991 47.5504 458.12 Q47.5504 465.227 49.356 468.791 Q51.1847 472.333 54.7958 472.333 Q58.43 472.333 60.2356 468.791 Q62.0643 465.227 62.0643 458.12 Q62.0643 450.991 60.2356 447.449 Q58.43 443.884 54.7958 443.884 M54.7958 440.181 Q60.6059 440.181 63.6615 444.787 Q66.7402 449.37 66.7402 458.12 Q66.7402 466.847 63.6615 471.453 Q60.6059 476.037 54.7958 476.037 Q48.9856 476.037 45.9069 471.453 Q42.8514 466.847 42.8514 458.12 Q42.8514 449.37 45.9069 444.787 Q48.9856 440.181 54.7958 440.181 Z" fill="#000000" fill-rule="evenodd" fill-opacity="1" /><path clip-path="url(#clip620)" d="M 0 0 M14.6803 252.346 L33.0366 252.346 L33.0366 256.281 L18.9626 256.281 L18.9626 264.753 Q19.9811 264.406 20.9997 264.244 Q22.0182 264.059 23.0367 264.059 Q28.8237 264.059 32.2033 267.23 Q35.5829 270.402 35.5829 275.818 Q35.5829 281.397 32.1107 284.499 Q28.6385 287.577 22.3191 287.577 Q20.1432 287.577 17.8747 287.207 Q15.6293 286.837 13.2219 286.096 L13.2219 281.397 Q15.3052 282.531 17.5275 283.087 Q19.7497 283.642 22.2265 283.642 Q26.2311 283.642 28.5691 281.536 Q30.907 279.429 30.907 275.818 Q30.907 272.207 28.5691 270.101 Q26.2311 267.994 22.2265 267.994 Q20.3515 267.994 18.4765 268.411 Q16.6247 268.828 14.6803 269.707 L14.6803 252.346 Z" fill="#000000" fill-rule="evenodd" fill-opacity="1" /><path clip-path="url(#clip620)" d="M 0 0 M54.7958 255.425 Q51.1847 255.425 49.356 258.99 Q47.5504 262.531 47.5504 269.661 Q47.5504 276.767 49.356 280.332 Q51.1847 283.874 54.7958 283.874 Q58.43 283.874 60.2356 280.332 Q62.0643 276.767 62.0643 269.661 Q62.0643 262.531 60.2356 258.99 Q58.43 255.425 54.7958 255.425 M54.7958 251.721 Q60.6059 251.721 63.6615 256.328 Q66.7402 260.911 66.7402 269.661 Q66.7402 278.388 63.6615 282.994 Q60.6059 287.577 54.7958 287.577 Q48.9856 287.577 45.9069 282.994 Q42.8514 278.388 42.8514 269.661 Q42.8514 260.911 45.9069 256.328 Q48.9856 251.721 54.7958 251.721 Z" fill="#000000" fill-rule="evenodd" fill-opacity="1" /><path clip-path="url(#clip620)" d="M 0 0 M25.2126 79.3034 Q22.0645 79.3034 20.2126 81.4561 Q18.3839 83.6089 18.3839 87.3589 Q18.3839 91.0857 20.2126 93.2616 Q22.0645 95.4144 25.2126 95.4144 Q28.3607 95.4144 30.1894 93.2616 Q32.0413 91.0857 32.0413 87.3589 Q32.0413 83.6089 30.1894 81.4561 Q28.3607 79.3034 25.2126 79.3034 M34.495 64.6507 L34.495 68.9099 Q32.7357 68.0766 30.9302 67.6368 Q29.1478 67.1969 27.3885 67.1969 Q22.7589 67.1969 20.3052 70.3219 Q17.8747 73.4469 17.5275 79.7663 Q18.8932 77.7524 20.9534 76.6876 Q23.0135 75.5997 25.4904 75.5997 Q30.6987 75.5997 33.7079 78.771 Q36.7403 81.9191 36.7403 87.3589 Q36.7403 92.6829 33.5922 95.9005 Q30.4441 99.1181 25.2126 99.1181 Q19.2173 99.1181 16.046 94.5348 Q12.8747 89.9283 12.8747 81.2015 Q12.8747 73.0071 16.7636 68.146 Q20.6524 63.2618 27.2033 63.2618 Q28.9626 63.2618 30.745 63.609 Q32.5505 63.9562 34.495 64.6507 Z" fill="#000000" fill-rule="evenodd" fill-opacity="1" /><path clip-path="url(#clip620)" d="M 0 0 M54.7958 66.9655 Q51.1847 66.9655 49.356 70.5303 Q47.5504 74.0719 47.5504 81.2015 Q47.5504 88.3079 49.356 91.8727 Q51.1847 95.4144 54.7958 95.4144 Q58.43 95.4144 60.2356 91.8727 Q62.0643 88.3079 62.0643 81.2015 Q62.0643 74.0719 60.2356 70.5303 Q58.43 66.9655 54.7958 66.9655 M54.7958 63.2618 Q60.6059 63.2618 63.6615 67.8682 Q66.7402 72.4515 66.7402 81.2015 Q66.7402 89.9283 63.6615 94.5348 Q60.6059 99.1181 54.7958 99.1181 Q48.9856 99.1181 45.9069 94.5348 Q42.8514 89.9283 42.8514 81.2015 Q42.8514 72.4515 45.9069 67.8682 Q48.9856 63.2618 54.7958 63.2618 Z" fill="#000000" fill-rule="evenodd" fill-opacity="1" /><path clip-path="url(#clip620)" d="M 0 0 M-85.8967 783.551 L-85.8967 777.121 L-38.3767 777.121 L-38.3767 783.551 L-85.8967 783.551 Z" fill="#000000" fill-rule="evenodd" fill-opacity="1" /><path clip-path="url(#clip620)" d="M 0 0 M-59.8927 734.949 L-38.3767 734.949 L-38.3767 740.805 L-59.7018 740.805 Q-64.7625 740.805 -67.277 742.778 Q-69.7914 744.752 -69.7914 748.699 Q-69.7914 753.441 -66.7677 756.178 Q-63.744 758.916 -58.5241 758.916 L-38.3767 758.916 L-38.3767 764.804 L-74.0246 764.804 L-74.0246 758.916 L-68.4865 758.916 Q-71.7011 756.815 -73.2926 753.982 Q-74.884 751.118 -74.884 747.394 Q-74.884 741.251 -71.0646 738.1 Q-67.277 734.949 -59.8927 734.949 Z" fill="#000000" fill-rule="evenodd" fill-opacity="1" /><path clip-path="url(#clip620)" d="M 0 0 M-84.1461 717.475 L-74.0246 717.475 L-74.0246 705.412 L-69.4731 705.412 L-69.4731 717.475 L-50.1214 717.475 Q-45.7609 717.475 -44.5196 716.297 Q-43.2783 715.088 -43.2783 711.427 L-43.2783 705.412 L-38.3767 705.412 L-38.3767 711.427 Q-38.3767 718.207 -40.8911 720.785 Q-43.4374 723.363 -50.1214 723.363 L-69.4731 723.363 L-69.4731 727.66 L-74.0246 727.66 L-74.0246 723.363 L-84.1461 723.363 L-84.1461 717.475 Z" fill="#000000" fill-rule="evenodd" fill-opacity="1" /><path clip-path="url(#clip620)" d="M 0 0 M-57.6648 667.218 L-54.8002 667.218 L-54.8002 694.144 Q-48.7528 693.763 -45.5699 690.516 Q-42.4189 687.238 -42.4189 681.413 Q-42.4189 678.039 -43.2464 674.888 Q-44.074 671.705 -45.7291 668.586 L-40.1909 668.586 Q-38.8541 671.737 -38.1539 675.047 Q-37.4536 678.358 -37.4536 681.763 Q-37.4536 690.293 -42.4189 695.29 Q-47.3841 700.256 -55.8505 700.256 Q-64.6034 700.256 -69.7278 695.545 Q-74.884 690.802 -74.884 682.782 Q-74.884 675.588 -70.237 671.419 Q-65.6219 667.218 -57.6648 667.218 M-59.3835 673.074 Q-64.1896 673.138 -67.0542 675.779 Q-69.9187 678.389 -69.9187 682.718 Q-69.9187 687.62 -67.1497 690.58 Q-64.3806 693.508 -59.3517 693.953 L-59.3835 673.074 Z" fill="#000000" fill-rule="evenodd" fill-opacity="1" /><path clip-path="url(#clip620)" d="M 0 0 M-68.5501 636.949 Q-69.123 637.935 -69.3777 639.113 Q-69.6641 640.259 -69.6641 641.659 Q-69.6641 646.624 -66.4176 649.298 Q-63.2029 651.94 -57.1555 651.94 L-38.3767 651.94 L-38.3767 657.828 L-74.0246 657.828 L-74.0246 651.94 L-68.4865 651.94 Q-71.733 650.094 -73.2926 647.134 Q-74.884 644.174 -74.884 639.94 Q-74.884 639.336 -74.7885 638.604 Q-74.7248 637.872 -74.5657 636.98 L-68.5501 636.949 Z" fill="#000000" fill-rule="evenodd" fill-opacity="1" /><path clip-path="url(#clip620)" d="M 0 0 M-74.0246 635.007 L-74.0246 628.8 L-44.1058 617.66 L-74.0246 606.521 L-74.0246 600.314 L-38.3767 613.682 L-38.3767 621.639 L-74.0246 635.007 Z" fill="#000000" fill-rule="evenodd" fill-opacity="1" /><path clip-path="url(#clip620)" d="M 0 0 M-56.2961 576.029 Q-56.2961 583.127 -54.6729 585.864 Q-53.0496 588.601 -49.1347 588.601 Q-46.0155 588.601 -44.1695 586.564 Q-42.3552 584.495 -42.3552 580.962 Q-42.3552 576.092 -45.7927 573.164 Q-49.262 570.204 -54.9912 570.204 L-56.2961 570.204 L-56.2961 576.029 M-58.7151 564.348 L-38.3767 564.348 L-38.3767 570.204 L-43.7875 570.204 Q-40.541 572.209 -38.9814 575.201 Q-37.4536 578.193 -37.4536 582.522 Q-37.4536 587.996 -40.5092 591.243 Q-43.5965 594.457 -48.7528 594.457 Q-54.7684 594.457 -57.8239 590.447 Q-60.8794 586.405 -60.8794 578.416 L-60.8794 570.204 L-61.4523 570.204 Q-65.4946 570.204 -67.6907 572.878 Q-69.9187 575.52 -69.9187 580.326 Q-69.9187 583.381 -69.1867 586.278 Q-68.4546 589.174 -66.9905 591.848 L-72.4014 591.848 Q-73.6427 588.633 -74.2474 585.609 Q-74.884 582.585 -74.884 579.721 Q-74.884 571.987 -70.8736 568.167 Q-66.8632 564.348 -58.7151 564.348 Z" fill="#000000" fill-rule="evenodd" fill-opacity="1" /><path clip-path="url(#clip620)" d="M 0 0 M-87.9019 552.285 L-87.9019 546.428 L-38.3767 546.428 L-38.3767 552.285 L-87.9019 552.285 Z" fill="#000000" fill-rule="evenodd" fill-opacity="1" /><path clip-path="url(#clip620)" d="M 0 0 M-72.9743 511.449 L-67.4361 511.449 Q-68.7093 513.931 -69.3458 516.605 Q-69.9824 519.278 -69.9824 522.143 Q-69.9824 526.504 -68.6456 528.7 Q-67.3088 530.864 -64.6352 530.864 Q-62.5982 530.864 -61.4205 529.304 Q-60.2747 527.745 -59.2243 523.034 L-58.7787 521.029 Q-57.442 514.791 -54.9912 512.181 Q-52.5722 509.539 -48.2117 509.539 Q-43.2464 509.539 -40.35 513.486 Q-37.4536 517.401 -37.4536 524.276 Q-37.4536 527.14 -38.0265 530.259 Q-38.5676 533.347 -39.6816 536.784 L-45.7291 536.784 Q-44.0421 533.538 -43.1828 530.387 Q-42.3552 527.236 -42.3552 524.148 Q-42.3552 520.011 -43.7557 517.783 Q-45.188 515.555 -47.7661 515.555 Q-50.1532 515.555 -51.4264 517.178 Q-52.6995 518.769 -53.8772 524.212 L-54.3546 526.249 Q-55.5004 531.692 -57.8557 534.111 Q-60.2429 536.53 -64.3806 536.53 Q-69.4095 536.53 -72.1467 532.965 Q-74.884 529.4 -74.884 522.843 Q-74.884 519.597 -74.4066 516.732 Q-73.9291 513.868 -72.9743 511.449 Z" fill="#000000" fill-rule="evenodd" fill-opacity="1" /><path clip-path="url(#clip622)" d="
M166.42 1211.92 L501.636 1211.92 L501.636 1193.08 L166.42 1193.08  Z
  " fill="#009af9" fill-rule="evenodd" fill-opacity="1"/>
<polyline clip-path="url(#clip622)" style="stroke:#ffffff; stroke-width:4; stroke-opacity:1; fill:none" points="
  166.42,1211.92 501.636,1211.92 
  "/>
<path clip-path="url(#clip622)" d="
M172.28 1193.08 L173.452 1193.08 L173.452 1174.23 L172.28 1174.23  Z
  " fill="#009af9" fill-rule="evenodd" fill-opacity="1"/>
<polyline clip-path="url(#clip622)" style="stroke:#ffffff; stroke-width:4; stroke-opacity:1; fill:none" points="
  172.28,1193.08 173.452,1193.08 
  "/>
<path clip-path="url(#clip622)" d="
M247.294 1155.39 L437.171 1155.39 L437.171 1136.54 L247.294 1136.54  Z
  " fill="#e26f46" fill-rule="evenodd" fill-opacity="1"/>
<polyline clip-path="url(#clip622)" style="stroke:#ffffff; stroke-width:4; stroke-opacity:1; fill:none" points="
  247.294,1155.39 437.171,1155.39 
  "/>
<path clip-path="url(#clip622)" d="
M250.81 1136.54 L251.982 1136.54 L251.982 1117.69 L250.81 1117.69  Z
  " fill="#e26f46" fill-rule="evenodd" fill-opacity="1"/>
<polyline clip-path="url(#clip622)" style="stroke:#ffffff; stroke-width:4; stroke-opacity:1; fill:none" points="
  250.81,1136.54 251.982,1136.54 
  "/>
<path clip-path="url(#clip622)" d="
M300.037 1098.85 L608.296 1098.85 L608.296 1080 L300.037 1080  Z
  " fill="#3da44d" fill-rule="evenodd" fill-opacity="1"/>
<polyline clip-path="url(#clip622)" style="stroke:#ffffff; stroke-width:4; stroke-opacity:1; fill:none" points="
  300.037,1098.85 608.296,1098.85 
  "/>
<path clip-path="url(#clip622)" d="
M304.726 1080 L486.399 1080 L486.399 1061.16 L304.726 1061.16  Z
  " fill="#3da44d" fill-rule="evenodd" fill-opacity="1"/>
<polyline clip-path="url(#clip622)" style="stroke:#ffffff; stroke-width:4; stroke-opacity:1; fill:none" points="
  304.726,1080 486.399,1080 
  "/>
<path clip-path="url(#clip622)" d="
M310.586 1061.16 L311.758 1061.16 L311.758 1042.31 L310.586 1042.31  Z
  " fill="#3da44d" fill-rule="evenodd" fill-opacity="1"/>
<polyline clip-path="url(#clip622)" style="stroke:#ffffff; stroke-width:4; stroke-opacity:1; fill:none" points="
  310.586,1061.16 311.758,1061.16 
  "/>
<path clip-path="url(#clip622)" d="
M338.716 1023.46 L580.166 1023.46 L580.166 1004.62 L338.716 1004.62  Z
  " fill="#c271d2" fill-rule="evenodd" fill-opacity="1"/>
<polyline clip-path="url(#clip622)" style="stroke:#ffffff; stroke-width:4; stroke-opacity:1; fill:none" points="
  338.716,1023.46 580.166,1023.46 
  "/>
<path clip-path="url(#clip622)" d="
M343.405 1004.62 L344.577 1004.62 L344.577 985.772 L343.405 985.772  Z
  " fill="#c271d2" fill-rule="evenodd" fill-opacity="1"/>
<polyline clip-path="url(#clip622)" style="stroke:#ffffff; stroke-width:4; stroke-opacity:1; fill:none" points="
  343.405,1004.62 344.577,1004.62 
  "/>
<path clip-path="url(#clip622)" d="
M364.502 966.926 L365.674 966.926 L365.674 948.08 L364.502 948.08  Z
  " fill="#ac8d18" fill-rule="evenodd" fill-opacity="1"/>
<polyline clip-path="url(#clip622)" style="stroke:#ffffff; stroke-width:4; stroke-opacity:1; fill:none" points="
  364.502,966.926 365.674,966.926 
  "/>
<path clip-path="url(#clip622)" d="
M413.73 929.234 L413.73 929.234 L413.73 910.388 L413.73 910.388  Z
  " fill="#00a9ad" fill-rule="evenodd" fill-opacity="1"/>
<polyline clip-path="url(#clip622)" style="stroke:#ffffff; stroke-width:4; stroke-opacity:1; fill:none" points="
  413.73,929.234 413.73,929.234 
  "/>
<path clip-path="url(#clip622)" d="
M465.301 891.542 L550.863 891.542 L550.863 872.696 L465.301 872.696  Z
  " fill="#ed5d92" fill-rule="evenodd" fill-opacity="1"/>
<polyline clip-path="url(#clip622)" style="stroke:#ffffff; stroke-width:4; stroke-opacity:1; fill:none" points="
  465.301,891.542 550.863,891.542 
  "/>
<path clip-path="url(#clip622)" d="
M468.818 872.696 L469.99 872.696 L469.99 853.85 L468.818 853.85  Z
  " fill="#ed5d92" fill-rule="evenodd" fill-opacity="1"/>
<polyline clip-path="url(#clip622)" style="stroke:#ffffff; stroke-width:4; stroke-opacity:1; fill:none" points="
  468.818,872.696 469.99,872.696 
  "/>
<path clip-path="url(#clip622)" d="
M521.561 1211.92 L521.561 1211.92 L521.561 1193.08 L521.561 1193.08  Z
  " fill="#c68125" fill-rule="evenodd" fill-opacity="1"/>
<polyline clip-path="url(#clip622)" style="stroke:#ffffff; stroke-width:4; stroke-opacity:1; fill:none" points="
  521.561,1211.92 521.561,1211.92 
  "/>
<path clip-path="url(#clip622)" d="
M639.942 1211.92 L1038.45 1211.92 L1038.45 1193.08 L639.942 1193.08  Z
  " fill="#009af9" fill-rule="evenodd" fill-opacity="1"/>
<polyline clip-path="url(#clip622)" style="stroke:#ffffff; stroke-width:4; stroke-opacity:1; fill:none" points="
  639.942,1211.92 1038.45,1211.92 
  "/>
<path clip-path="url(#clip622)" d="
M643.458 1193.08 L793.485 1193.08 L793.485 1174.23 L643.458 1174.23  Z
  " fill="#009af9" fill-rule="evenodd" fill-opacity="1"/>
<polyline clip-path="url(#clip622)" style="stroke:#ffffff; stroke-width:4; stroke-opacity:1; fill:none" points="
  643.458,1193.08 793.485,1193.08 
  "/>
<path clip-path="url(#clip622)" d="
M649.319 1174.23 L649.319 1174.23 L649.319 1155.39 L649.319 1155.39  Z
  " fill="#009af9" fill-rule="evenodd" fill-opacity="1"/>
<polyline clip-path="url(#clip622)" style="stroke:#ffffff; stroke-width:4; stroke-opacity:1; fill:none" points="
  649.319,1174.23 649.319,1174.23 
  "/>
<path clip-path="url(#clip622)" d="
M671.588 1136.54 L979.846 1136.54 L979.846 1117.69 L671.588 1117.69  Z
  " fill="#00a98d" fill-rule="evenodd" fill-opacity="1"/>
<polyline clip-path="url(#clip622)" style="stroke:#ffffff; stroke-width:4; stroke-opacity:1; fill:none" points="
  671.588,1136.54 979.846,1136.54 
  "/>
<path clip-path="url(#clip622)" d="
M676.277 1117.69 L677.449 1117.69 L677.449 1098.85 L676.277 1098.85  Z
  " fill="#00a98d" fill-rule="evenodd" fill-opacity="1"/>
<polyline clip-path="url(#clip622)" style="stroke:#ffffff; stroke-width:4; stroke-opacity:1; fill:none" points="
  676.277,1117.69 677.449,1117.69 
  "/>
<path clip-path="url(#clip622)" d="
M706.751 1080 L1150.97 1080 L1150.97 1061.16 L706.751 1061.16  Z
  " fill="#8e971d" fill-rule="evenodd" fill-opacity="1"/>
<polyline clip-path="url(#clip622)" style="stroke:#ffffff; stroke-width:4; stroke-opacity:1; fill:none" points="
  706.751,1080 1150.97,1080 
  "/>
<path clip-path="url(#clip622)" d="
M709.095 1061.16 L1024.39 1061.16 L1024.39 1042.31 L709.095 1042.31  Z
  " fill="#8e971d" fill-rule="evenodd" fill-opacity="1"/>
<polyline clip-path="url(#clip622)" style="stroke:#ffffff; stroke-width:4; stroke-opacity:1; fill:none" points="
  709.095,1061.16 1024.39,1061.16 
  "/>
<path clip-path="url(#clip622)" d="
M711.439 1042.31 L712.611 1042.31 L712.611 1023.46 L711.439 1023.46  Z
  " fill="#8e971d" fill-rule="evenodd" fill-opacity="1"/>
<polyline clip-path="url(#clip622)" style="stroke:#ffffff; stroke-width:4; stroke-opacity:1; fill:none" points="
  711.439,1042.31 712.611,1042.31 
  "/>
<path clip-path="url(#clip622)" d="
M729.02 1004.62 L729.02 1004.62 L729.02 985.772 L729.02 985.772  Z
  " fill="#00a8cb" fill-rule="evenodd" fill-opacity="1"/>
<polyline clip-path="url(#clip622)" style="stroke:#ffffff; stroke-width:4; stroke-opacity:1; fill:none" points="
  729.02,1004.62 729.02,1004.62 
  "/>
<path clip-path="url(#clip622)" d="
M747.774 966.926 L1122.84 966.926 L1122.84 948.08 L747.774 948.08  Z
  " fill="#9b7fe8" fill-rule="evenodd" fill-opacity="1"/>
<polyline clip-path="url(#clip622)" style="stroke:#ffffff; stroke-width:4; stroke-opacity:1; fill:none" points="
  747.774,966.926 1122.84,966.926 
  "/>
<path clip-path="url(#clip622)" d="
M751.29 948.08 L948.2 948.08 L948.2 929.234 L751.29 929.234  Z
  " fill="#9b7fe8" fill-rule="evenodd" fill-opacity="1"/>
<polyline clip-path="url(#clip622)" style="stroke:#ffffff; stroke-width:4; stroke-opacity:1; fill:none" points="
  751.29,948.08 948.2,948.08 
  "/>
<path clip-path="url(#clip622)" d="
M753.634 929.234 L753.634 929.234 L753.634 910.388 L753.634 910.388  Z
  " fill="#9b7fe8" fill-rule="evenodd" fill-opacity="1"/>
<polyline clip-path="url(#clip622)" style="stroke:#ffffff; stroke-width:4; stroke-opacity:1; fill:none" points="
  753.634,929.234 753.634,929.234 
  "/>
<path clip-path="url(#clip622)" d="
M758.322 891.542 L962.265 891.542 L962.265 872.696 L758.322 872.696  Z
  " fill="#608cf6" fill-rule="evenodd" fill-opacity="1"/>
<polyline clip-path="url(#clip622)" style="stroke:#ffffff; stroke-width:4; stroke-opacity:1; fill:none" points="
  758.322,891.542 962.265,891.542 
  "/>
<path clip-path="url(#clip622)" d="
M760.667 872.696 L761.839 872.696 L761.839 853.85 L760.667 853.85  Z
  " fill="#608cf6" fill-rule="evenodd" fill-opacity="1"/>
<polyline clip-path="url(#clip622)" style="stroke:#ffffff; stroke-width:4; stroke-opacity:1; fill:none" points="
  760.667,872.696 761.839,872.696 
  "/>
<path clip-path="url(#clip622)" d="
M774.732 835.004 L900.145 835.004 L900.145 816.158 L774.732 816.158  Z
  " fill="#f05f73" fill-rule="evenodd" fill-opacity="1"/>
<polyline clip-path="url(#clip622)" style="stroke:#ffffff; stroke-width:4; stroke-opacity:1; fill:none" points="
  774.732,835.004 900.145,835.004 
  "/>
<path clip-path="url(#clip622)" d="
M778.248 816.158 L778.248 816.158 L778.248 797.312 L778.248 797.312  Z
  " fill="#f05f73" fill-rule="evenodd" fill-opacity="1"/>
<polyline clip-path="url(#clip622)" style="stroke:#ffffff; stroke-width:4; stroke-opacity:1; fill:none" points="
  778.248,816.158 778.248,816.158 
  "/>
<path clip-path="url(#clip622)" d="
M812.238 778.466 L1094.71 778.466 L1094.71 759.621 L812.238 759.621  Z
  " fill="#dd64b5" fill-rule="evenodd" fill-opacity="1"/>
<polyline clip-path="url(#clip622)" style="stroke:#ffffff; stroke-width:4; stroke-opacity:1; fill:none" points="
  812.238,778.466 1094.71,778.466 
  "/>
<path clip-path="url(#clip622)" d="
M815.755 759.621 L815.755 759.621 L815.755 740.775 L815.755 740.775  Z
  " fill="#dd64b5" fill-rule="evenodd" fill-opacity="1"/>
<polyline clip-path="url(#clip622)" style="stroke:#ffffff; stroke-width:4; stroke-opacity:1; fill:none" points="
  815.755,759.621 815.755,759.621 
  "/>
<path clip-path="url(#clip622)" d="
M830.992 721.929 L830.992 721.929 L830.992 703.083 L830.992 703.083  Z
  " fill="#6b9e32" fill-rule="evenodd" fill-opacity="1"/>
<polyline clip-path="url(#clip622)" style="stroke:#ffffff; stroke-width:4; stroke-opacity:1; fill:none" points="
  830.992,721.929 830.992,721.929 
  "/>
<path clip-path="url(#clip622)" d="
M849.745 684.237 L1065.41 684.237 L1065.41 665.391 L849.745 665.391  Z
  " fill="#009af9" fill-rule="evenodd" fill-opacity="1"/>
<polyline clip-path="url(#clip622)" style="stroke:#ffffff; stroke-width:4; stroke-opacity:1; fill:none" points="
  849.745,684.237 1065.41,684.237 
  "/>
<path clip-path="url(#clip622)" d="
M853.261 665.391 L853.261 665.391 L853.261 646.545 L853.261 646.545  Z
  " fill="#009af9" fill-rule="evenodd" fill-opacity="1"/>
<polyline clip-path="url(#clip622)" style="stroke:#ffffff; stroke-width:4; stroke-opacity:1; fill:none" points="
  853.261,665.391 853.261,665.391 
  "/>
<path clip-path="url(#clip622)" d="
M867.326 627.699 L868.498 627.699 L868.498 608.853 L867.326 608.853  Z
  " fill="#e26f46" fill-rule="evenodd" fill-opacity="1"/>
<polyline clip-path="url(#clip622)" style="stroke:#ffffff; stroke-width:4; stroke-opacity:1; fill:none" points="
  867.326,627.699 868.498,627.699 
  "/>
<path clip-path="url(#clip622)" d="
M883.735 590.007 L884.908 590.007 L884.908 571.161 L883.735 571.161  Z
  " fill="#3da44d" fill-rule="evenodd" fill-opacity="1"/>
<polyline clip-path="url(#clip622)" style="stroke:#ffffff; stroke-width:4; stroke-opacity:1; fill:none" points="
  883.735,590.007 884.908,590.007 
  "/>
<path clip-path="url(#clip622)" d="
M1007.98 552.315 L1007.98 552.315 L1007.98 533.469 L1007.98 533.469  Z
  " fill="#c271d2" fill-rule="evenodd" fill-opacity="1"/>
<polyline clip-path="url(#clip622)" style="stroke:#ffffff; stroke-width:4; stroke-opacity:1; fill:none" points="
  1007.98,552.315 1007.98,552.315 
  "/>
<path clip-path="url(#clip622)" d="
M1183.79 1211.92 L2158.97 1211.92 L2158.97 1193.08 L1183.79 1193.08  Z
  " fill="#009af9" fill-rule="evenodd" fill-opacity="1"/>
<polyline clip-path="url(#clip622)" style="stroke:#ffffff; stroke-width:4; stroke-opacity:1; fill:none" points="
  1183.79,1211.92 2158.97,1211.92 
  "/>
<path clip-path="url(#clip622)" d="
M1187.31 1193.08 L1908.15 1193.08 L1908.15 1174.23 L1187.31 1174.23  Z
  " fill="#009af9" fill-rule="evenodd" fill-opacity="1"/>
<polyline clip-path="url(#clip622)" style="stroke:#ffffff; stroke-width:4; stroke-opacity:1; fill:none" points="
  1187.31,1193.08 1908.15,1193.08 
  "/>
<path clip-path="url(#clip622)" d="
M1190.82 1174.23 L1190.82 1174.23 L1190.82 1155.39 L1190.82 1155.39  Z
  " fill="#009af9" fill-rule="evenodd" fill-opacity="1"/>
<polyline clip-path="url(#clip622)" style="stroke:#ffffff; stroke-width:4; stroke-opacity:1; fill:none" points="
  1190.82,1174.23 1190.82,1174.23 
  "/>
<path clip-path="url(#clip622)" d="
M1209.57 1136.54 L2275.01 1136.54 L2275.01 1117.69 L1209.57 1117.69  Z
  " fill="#ac8d18" fill-rule="evenodd" fill-opacity="1"/>
<polyline clip-path="url(#clip622)" style="stroke:#ffffff; stroke-width:4; stroke-opacity:1; fill:none" points="
  1209.57,1136.54 2275.01,1136.54 
  "/>
<path clip-path="url(#clip622)" d="
M1211.92 1117.69 L2052.32 1117.69 L2052.32 1098.85 L1211.92 1098.85  Z
  " fill="#ac8d18" fill-rule="evenodd" fill-opacity="1"/>
<polyline clip-path="url(#clip622)" style="stroke:#ffffff; stroke-width:4; stroke-opacity:1; fill:none" points="
  1211.92,1117.69 2052.32,1117.69 
  "/>
<path clip-path="url(#clip622)" d="
M1214.26 1098.85 L1358.43 1098.85 L1358.43 1080 L1214.26 1080  Z
  " fill="#ac8d18" fill-rule="evenodd" fill-opacity="1"/>
<polyline clip-path="url(#clip622)" style="stroke:#ffffff; stroke-width:4; stroke-opacity:1; fill:none" points="
  1214.26,1098.85 1358.43,1098.85 
  "/>
<path clip-path="url(#clip622)" d="
M1220.12 1080 L1220.12 1080 L1220.12 1061.16 L1220.12 1061.16  Z
  " fill="#ac8d18" fill-rule="evenodd" fill-opacity="1"/>
<polyline clip-path="url(#clip622)" style="stroke:#ffffff; stroke-width:4; stroke-opacity:1; fill:none" points="
  1220.12,1080 1220.12,1080 
  "/>
<path clip-path="url(#clip622)" d="
M1224.81 1042.31 L2113.26 1042.31 L2113.26 1023.46 L1224.81 1023.46  Z
  " fill="#00a9ad" fill-rule="evenodd" fill-opacity="1"/>
<polyline clip-path="url(#clip622)" style="stroke:#ffffff; stroke-width:4; stroke-opacity:1; fill:none" points="
  1224.81,1042.31 2113.26,1042.31 
  "/>
<path clip-path="url(#clip622)" d="
M1228.33 1023.46 L1391.25 1023.46 L1391.25 1004.62 L1228.33 1004.62  Z
  " fill="#00a9ad" fill-rule="evenodd" fill-opacity="1"/>
<polyline clip-path="url(#clip622)" style="stroke:#ffffff; stroke-width:4; stroke-opacity:1; fill:none" points="
  1228.33,1023.46 1391.25,1023.46 
  "/>
<path clip-path="url(#clip622)" d="
M1230.67 1004.62 L1230.67 1004.62 L1230.67 985.772 L1230.67 985.772  Z
  " fill="#00a9ad" fill-rule="evenodd" fill-opacity="1"/>
<polyline clip-path="url(#clip622)" style="stroke:#ffffff; stroke-width:4; stroke-opacity:1; fill:none" points="
  1230.67,1004.62 1230.67,1004.62 
  "/>
<path clip-path="url(#clip622)" d="
M1251.77 966.926 L2245.71 966.926 L2245.71 948.08 L1251.77 948.08  Z
  " fill="#ed5d92" fill-rule="evenodd" fill-opacity="1"/>
<polyline clip-path="url(#clip622)" style="stroke:#ffffff; stroke-width:4; stroke-opacity:1; fill:none" points="
  1251.77,966.926 2245.71,966.926 
  "/>
<path clip-path="url(#clip622)" d="
M1254.11 948.08 L1960.89 948.08 L1960.89 929.234 L1254.11 929.234  Z
  " fill="#ed5d92" fill-rule="evenodd" fill-opacity="1"/>
<polyline clip-path="url(#clip622)" style="stroke:#ffffff; stroke-width:4; stroke-opacity:1; fill:none" points="
  1254.11,948.08 1960.89,948.08 
  "/>
<path clip-path="url(#clip622)" d="
M1256.46 929.234 L1257.63 929.234 L1257.63 910.388 L1256.46 910.388  Z
  " fill="#ed5d92" fill-rule="evenodd" fill-opacity="1"/>
<polyline clip-path="url(#clip622)" style="stroke:#ffffff; stroke-width:4; stroke-opacity:1; fill:none" points="
  1256.46,929.234 1257.63,929.234 
  "/>
<path clip-path="url(#clip622)" d="
M1265.83 891.542 L1267.01 891.542 L1267.01 872.696 L1265.83 872.696  Z
  " fill="#c68125" fill-rule="evenodd" fill-opacity="1"/>
<polyline clip-path="url(#clip622)" style="stroke:#ffffff; stroke-width:4; stroke-opacity:1; fill:none" points="
  1265.83,891.542 1267.01,891.542 
  "/>
<path clip-path="url(#clip622)" d="
M1277.56 853.85 L1277.56 853.85 L1277.56 835.004 L1277.56 835.004  Z
  " fill="#00a98d" fill-rule="evenodd" fill-opacity="1"/>
<polyline clip-path="url(#clip622)" style="stroke:#ffffff; stroke-width:4; stroke-opacity:1; fill:none" points="
  1277.56,853.85 1277.56,853.85 
  "/>
<path clip-path="url(#clip622)" d="
M1292.79 816.158 L1761.64 816.158 L1761.64 797.312 L1292.79 797.312  Z
  " fill="#8e971d" fill-rule="evenodd" fill-opacity="1"/>
<polyline clip-path="url(#clip622)" style="stroke:#ffffff; stroke-width:4; stroke-opacity:1; fill:none" points="
  1292.79,816.158 1761.64,816.158 
  "/>
<path clip-path="url(#clip622)" d="
M1295.14 797.312 L1296.31 797.312 L1296.31 778.466 L1295.14 778.466  Z
  " fill="#8e971d" fill-rule="evenodd" fill-opacity="1"/>
<polyline clip-path="url(#clip622)" style="stroke:#ffffff; stroke-width:4; stroke-opacity:1; fill:none" points="
  1295.14,797.312 1296.31,797.312 
  "/>
<path clip-path="url(#clip622)" d="
M1318.58 759.621 L1858.92 759.621 L1858.92 740.775 L1318.58 740.775  Z
  " fill="#00a8cb" fill-rule="evenodd" fill-opacity="1"/>
<polyline clip-path="url(#clip622)" style="stroke:#ffffff; stroke-width:4; stroke-opacity:1; fill:none" points="
  1318.58,759.621 1858.92,759.621 
  "/>
<path clip-path="url(#clip622)" d="
M1323.27 740.775 L1324.44 740.775 L1324.44 721.929 L1323.27 721.929  Z
  " fill="#00a8cb" fill-rule="evenodd" fill-opacity="1"/>
<polyline clip-path="url(#clip622)" style="stroke:#ffffff; stroke-width:4; stroke-opacity:1; fill:none" points="
  1323.27,740.775 1324.44,740.775 
  "/>
<path clip-path="url(#clip622)" d="
M1337.33 703.083 L1976.13 703.083 L1976.13 684.237 L1337.33 684.237  Z
  " fill="#9b7fe8" fill-rule="evenodd" fill-opacity="1"/>
<polyline clip-path="url(#clip622)" style="stroke:#ffffff; stroke-width:4; stroke-opacity:1; fill:none" points="
  1337.33,703.083 1976.13,703.083 
  "/>
<path clip-path="url(#clip622)" d="
M1343.19 684.237 L1344.36 684.237 L1344.36 665.391 L1343.19 665.391  Z
  " fill="#9b7fe8" fill-rule="evenodd" fill-opacity="1"/>
<polyline clip-path="url(#clip622)" style="stroke:#ffffff; stroke-width:4; stroke-opacity:1; fill:none" points="
  1343.19,684.237 1344.36,684.237 
  "/>
<path clip-path="url(#clip622)" d="
M1371.32 646.545 L2068.72 646.545 L2068.72 627.699 L1371.32 627.699  Z
  " fill="#608cf6" fill-rule="evenodd" fill-opacity="1"/>
<polyline clip-path="url(#clip622)" style="stroke:#ffffff; stroke-width:4; stroke-opacity:1; fill:none" points="
  1371.32,646.545 2068.72,646.545 
  "/>
<path clip-path="url(#clip622)" d="
M1376.01 627.699 L1377.18 627.699 L1377.18 608.853 L1376.01 608.853  Z
  " fill="#608cf6" fill-rule="evenodd" fill-opacity="1"/>
<polyline clip-path="url(#clip622)" style="stroke:#ffffff; stroke-width:4; stroke-opacity:1; fill:none" points="
  1376.01,627.699 1377.18,627.699 
  "/>
<path clip-path="url(#clip622)" d="
M1420.55 590.007 L2217.58 590.007 L2217.58 571.161 L1420.55 571.161  Z
  " fill="#f05f73" fill-rule="evenodd" fill-opacity="1"/>
<polyline clip-path="url(#clip622)" style="stroke:#ffffff; stroke-width:4; stroke-opacity:1; fill:none" points="
  1420.55,590.007 2217.58,590.007 
  "/>
<path clip-path="url(#clip622)" d="
M1424.07 571.161 L1945.66 571.161 L1945.66 552.315 L1424.07 552.315  Z
  " fill="#f05f73" fill-rule="evenodd" fill-opacity="1"/>
<polyline clip-path="url(#clip622)" style="stroke:#ffffff; stroke-width:4; stroke-opacity:1; fill:none" points="
  1424.07,571.161 1945.66,571.161 
  "/>
<path clip-path="url(#clip622)" d="
M1431.1 552.315 L1432.27 552.315 L1432.27 533.469 L1431.1 533.469  Z
  " fill="#f05f73" fill-rule="evenodd" fill-opacity="1"/>
<polyline clip-path="url(#clip622)" style="stroke:#ffffff; stroke-width:4; stroke-opacity:1; fill:none" points="
  1431.1,552.315 1432.27,552.315 
  "/>
<path clip-path="url(#clip622)" d="
M1442.82 514.623 L1875.33 514.623 L1875.33 495.777 L1442.82 495.777  Z
  " fill="#dd64b5" fill-rule="evenodd" fill-opacity="1"/>
<polyline clip-path="url(#clip622)" style="stroke:#ffffff; stroke-width:4; stroke-opacity:1; fill:none" points="
  1442.82,514.623 1875.33,514.623 
  "/>
<path clip-path="url(#clip622)" d="
M1448.68 495.777 L1448.68 495.777 L1448.68 476.931 L1448.68 476.931  Z
  " fill="#dd64b5" fill-rule="evenodd" fill-opacity="1"/>
<polyline clip-path="url(#clip622)" style="stroke:#ffffff; stroke-width:4; stroke-opacity:1; fill:none" points="
  1448.68,495.777 1448.68,495.777 
  "/>
<path clip-path="url(#clip622)" d="
M1454.54 458.086 L2019.5 458.086 L2019.5 439.24 L1454.54 439.24  Z
  " fill="#6b9e32" fill-rule="evenodd" fill-opacity="1"/>
<polyline clip-path="url(#clip622)" style="stroke:#ffffff; stroke-width:4; stroke-opacity:1; fill:none" points="
  1454.54,458.086 2019.5,458.086 
  "/>
<path clip-path="url(#clip622)" d="
M1458.06 439.24 L1459.23 439.24 L1459.23 420.394 L1458.06 420.394  Z
  " fill="#6b9e32" fill-rule="evenodd" fill-opacity="1"/>
<polyline clip-path="url(#clip622)" style="stroke:#ffffff; stroke-width:4; stroke-opacity:1; fill:none" points="
  1458.06,439.24 1459.23,439.24 
  "/>
<path clip-path="url(#clip622)" d="
M1473.29 401.548 L1473.29 401.548 L1473.29 382.702 L1473.29 382.702  Z
  " fill="#009af9" fill-rule="evenodd" fill-opacity="1"/>
<polyline clip-path="url(#clip622)" style="stroke:#ffffff; stroke-width:4; stroke-opacity:1; fill:none" points="
  1473.29,401.548 1473.29,401.548 
  "/>
<path clip-path="url(#clip622)" d="
M1656.15 363.856 L1657.32 363.856 L1657.32 345.01 L1656.15 345.01  Z
  " fill="#e26f46" fill-rule="evenodd" fill-opacity="1"/>
<polyline clip-path="url(#clip622)" style="stroke:#ffffff; stroke-width:4; stroke-opacity:1; fill:none" points="
  1656.15,363.856 1657.32,363.856 
  "/>
<path clip-path="url(#clip622)" d="
M1739.37 326.164 L1740.54 326.164 L1740.54 307.318 L1739.37 307.318  Z
  " fill="#3da44d" fill-rule="evenodd" fill-opacity="1"/>
<polyline clip-path="url(#clip622)" style="stroke:#ffffff; stroke-width:4; stroke-opacity:1; fill:none" points="
  1739.37,326.164 1740.54,326.164 
  "/>
<path clip-path="url(#clip622)" d="
M1792.11 288.472 L2188.28 288.472 L2188.28 269.626 L1792.11 269.626  Z
  " fill="#c271d2" fill-rule="evenodd" fill-opacity="1"/>
<polyline clip-path="url(#clip622)" style="stroke:#ffffff; stroke-width:4; stroke-opacity:1; fill:none" points="
  1792.11,288.472 2188.28,288.472 
  "/>
<path clip-path="url(#clip622)" d="
M1795.63 269.626 L1795.63 269.626 L1795.63 250.78 L1795.63 250.78  Z
  " fill="#c271d2" fill-rule="evenodd" fill-opacity="1"/>
<polyline clip-path="url(#clip622)" style="stroke:#ffffff; stroke-width:4; stroke-opacity:1; fill:none" points="
  1795.63,269.626 1795.63,269.626 
  "/>
<path clip-path="url(#clip622)" d="
M1837.82 231.934 L1839 231.934 L1839 213.088 L1837.82 213.088  Z
  " fill="#ac8d18" fill-rule="evenodd" fill-opacity="1"/>
<polyline clip-path="url(#clip622)" style="stroke:#ffffff; stroke-width:4; stroke-opacity:1; fill:none" points="
  1837.82,231.934 1839,231.934 
  "/>
<path clip-path="url(#clip622)" d="
M1891.74 194.242 L1891.74 194.242 L1891.74 175.396 L1891.74 175.396  Z
  " fill="#00a9ad" fill-rule="evenodd" fill-opacity="1"/>
<polyline clip-path="url(#clip622)" style="stroke:#ffffff; stroke-width:4; stroke-opacity:1; fill:none" points="
  1891.74,194.242 1891.74,194.242 
  "/>
<path clip-path="url(#clip622)" d="
M1926.9 156.551 L2142.57 156.551 L2142.57 137.705 L1926.9 137.705  Z
  " fill="#ed5d92" fill-rule="evenodd" fill-opacity="1"/>
<polyline clip-path="url(#clip622)" style="stroke:#ffffff; stroke-width:4; stroke-opacity:1; fill:none" points="
  1926.9,156.551 2142.57,156.551 
  "/>
<path clip-path="url(#clip622)" d="
M1929.25 137.705 L1929.25 137.705 L1929.25 118.859 L1929.25 118.859  Z
  " fill="#ed5d92" fill-rule="evenodd" fill-opacity="1"/>
<polyline clip-path="url(#clip622)" style="stroke:#ffffff; stroke-width:4; stroke-opacity:1; fill:none" points="
  1929.25,137.705 1929.25,137.705 
  "/>
<path clip-path="url(#clip622)" d="
M2095.68 100.013 L2096.85 100.013 L2096.85 81.1668 L2095.68 81.1668  Z
  " fill="#c68125" fill-rule="evenodd" fill-opacity="1"/>
<polyline clip-path="url(#clip622)" style="stroke:#ffffff; stroke-width:4; stroke-opacity:1; fill:none" points="
  2095.68,100.013 2096.85,100.013 
  "/>
<circle clip-path="url(#clip622)" cx="166.42" cy="1211.92" r="14" fill="#ffffff" fill-rule="evenodd" fill-opacity="1" stroke="#000000" stroke-opacity="1" stroke-width="3.2"/>
<circle clip-path="url(#clip622)" cx="247.294" cy="1155.39" r="14" fill="#ffffff" fill-rule="evenodd" fill-opacity="1" stroke="#000000" stroke-opacity="1" stroke-width="3.2"/>
<circle clip-path="url(#clip622)" cx="300.037" cy="1098.85" r="14" fill="#ffffff" fill-rule="evenodd" fill-opacity="1" stroke="#000000" stroke-opacity="1" stroke-width="3.2"/>
<circle clip-path="url(#clip622)" cx="338.716" cy="1023.46" r="14" fill="#ffffff" fill-rule="evenodd" fill-opacity="1" stroke="#000000" stroke-opacity="1" stroke-width="3.2"/>
<circle clip-path="url(#clip622)" cx="364.502" cy="966.926" r="14" fill="#ffffff" fill-rule="evenodd" fill-opacity="1" stroke="#000000" stroke-opacity="1" stroke-width="3.2"/>
<circle clip-path="url(#clip622)" cx="413.73" cy="929.234" r="14" fill="#ffffff" fill-rule="evenodd" fill-opacity="1" stroke="#000000" stroke-opacity="1" stroke-width="3.2"/>
<circle clip-path="url(#clip622)" cx="465.301" cy="891.542" r="14" fill="#ffffff" fill-rule="evenodd" fill-opacity="1" stroke="#000000" stroke-opacity="1" stroke-width="3.2"/>
<circle clip-path="url(#clip622)" cx="521.561" cy="1211.92" r="14" fill="#ffffff" fill-rule="evenodd" fill-opacity="1" stroke="#000000" stroke-opacity="1" stroke-width="3.2"/>
<circle clip-path="url(#clip622)" cx="639.942" cy="1211.92" r="14" fill="#ffffff" fill-rule="evenodd" fill-opacity="1" stroke="#000000" stroke-opacity="1" stroke-width="3.2"/>
<circle clip-path="url(#clip622)" cx="671.588" cy="1136.54" r="14" fill="#ffffff" fill-rule="evenodd" fill-opacity="1" stroke="#000000" stroke-opacity="1" stroke-width="3.2"/>
<circle clip-path="url(#clip622)" cx="706.751" cy="1080" r="14" fill="#ffffff" fill-rule="evenodd" fill-opacity="1" stroke="#000000" stroke-opacity="1" stroke-width="3.2"/>
<circle clip-path="url(#clip622)" cx="729.02" cy="1004.62" r="14" fill="#ffffff" fill-rule="evenodd" fill-opacity="1" stroke="#000000" stroke-opacity="1" stroke-width="3.2"/>
<circle clip-path="url(#clip622)" cx="747.774" cy="966.926" r="14" fill="#ffffff" fill-rule="evenodd" fill-opacity="1" stroke="#000000" stroke-opacity="1" stroke-width="3.2"/>
<circle clip-path="url(#clip622)" cx="758.322" cy="891.542" r="14" fill="#ffffff" fill-rule="evenodd" fill-opacity="1" stroke="#000000" stroke-opacity="1" stroke-width="3.2"/>
<circle clip-path="url(#clip622)" cx="774.732" cy="835.004" r="14" fill="#ffffff" fill-rule="evenodd" fill-opacity="1" stroke="#000000" stroke-opacity="1" stroke-width="3.2"/>
<circle clip-path="url(#clip622)" cx="812.238" cy="778.466" r="14" fill="#ffffff" fill-rule="evenodd" fill-opacity="1" stroke="#000000" stroke-opacity="1" stroke-width="3.2"/>
<circle clip-path="url(#clip622)" cx="830.992" cy="721.929" r="14" fill="#ffffff" fill-rule="evenodd" fill-opacity="1" stroke="#000000" stroke-opacity="1" stroke-width="3.2"/>
<circle clip-path="url(#clip622)" cx="849.745" cy="684.237" r="14" fill="#ffffff" fill-rule="evenodd" fill-opacity="1" stroke="#000000" stroke-opacity="1" stroke-width="3.2"/>
<circle clip-path="url(#clip622)" cx="867.326" cy="627.699" r="14" fill="#ffffff" fill-rule="evenodd" fill-opacity="1" stroke="#000000" stroke-opacity="1" stroke-width="3.2"/>
<circle clip-path="url(#clip622)" cx="883.735" cy="590.007" r="14" fill="#ffffff" fill-rule="evenodd" fill-opacity="1" stroke="#000000" stroke-opacity="1" stroke-width="3.2"/>
<circle clip-path="url(#clip622)" cx="1007.98" cy="552.315" r="14" fill="#ffffff" fill-rule="evenodd" fill-opacity="1" stroke="#000000" stroke-opacity="1" stroke-width="3.2"/>
<circle clip-path="url(#clip622)" cx="1183.79" cy="1211.92" r="14" fill="#ffffff" fill-rule="evenodd" fill-opacity="1" stroke="#000000" stroke-opacity="1" stroke-width="3.2"/>
<circle clip-path="url(#clip622)" cx="1209.57" cy="1136.54" r="14" fill="#ffffff" fill-rule="evenodd" fill-opacity="1" stroke="#000000" stroke-opacity="1" stroke-width="3.2"/>
<circle clip-path="url(#clip622)" cx="1224.81" cy="1042.31" r="14" fill="#ffffff" fill-rule="evenodd" fill-opacity="1" stroke="#000000" stroke-opacity="1" stroke-width="3.2"/>
<circle clip-path="url(#clip622)" cx="1251.77" cy="966.926" r="14" fill="#ffffff" fill-rule="evenodd" fill-opacity="1" stroke="#000000" stroke-opacity="1" stroke-width="3.2"/>
<circle clip-path="url(#clip622)" cx="1265.83" cy="891.542" r="14" fill="#ffffff" fill-rule="evenodd" fill-opacity="1" stroke="#000000" stroke-opacity="1" stroke-width="3.2"/>
<circle clip-path="url(#clip622)" cx="1277.56" cy="853.85" r="14" fill="#ffffff" fill-rule="evenodd" fill-opacity="1" stroke="#000000" stroke-opacity="1" stroke-width="3.2"/>
<circle clip-path="url(#clip622)" cx="1292.79" cy="816.158" r="14" fill="#ffffff" fill-rule="evenodd" fill-opacity="1" stroke="#000000" stroke-opacity="1" stroke-width="3.2"/>
<circle clip-path="url(#clip622)" cx="1318.58" cy="759.621" r="14" fill="#ffffff" fill-rule="evenodd" fill-opacity="1" stroke="#000000" stroke-opacity="1" stroke-width="3.2"/>
<circle clip-path="url(#clip622)" cx="1337.33" cy="703.083" r="14" fill="#ffffff" fill-rule="evenodd" fill-opacity="1" stroke="#000000" stroke-opacity="1" stroke-width="3.2"/>
<circle clip-path="url(#clip622)" cx="1371.32" cy="646.545" r="14" fill="#ffffff" fill-rule="evenodd" fill-opacity="1" stroke="#000000" stroke-opacity="1" stroke-width="3.2"/>
<circle clip-path="url(#clip622)" cx="1420.55" cy="590.007" r="14" fill="#ffffff" fill-rule="evenodd" fill-opacity="1" stroke="#000000" stroke-opacity="1" stroke-width="3.2"/>
<circle clip-path="url(#clip622)" cx="1442.82" cy="514.623" r="14" fill="#ffffff" fill-rule="evenodd" fill-opacity="1" stroke="#000000" stroke-opacity="1" stroke-width="3.2"/>
<circle clip-path="url(#clip622)" cx="1454.54" cy="458.086" r="14" fill="#ffffff" fill-rule="evenodd" fill-opacity="1" stroke="#000000" stroke-opacity="1" stroke-width="3.2"/>
<circle clip-path="url(#clip622)" cx="1473.29" cy="401.548" r="14" fill="#ffffff" fill-rule="evenodd" fill-opacity="1" stroke="#000000" stroke-opacity="1" stroke-width="3.2"/>
<circle clip-path="url(#clip622)" cx="1656.15" cy="363.856" r="14" fill="#ffffff" fill-rule="evenodd" fill-opacity="1" stroke="#000000" stroke-opacity="1" stroke-width="3.2"/>
<circle clip-path="url(#clip622)" cx="1739.37" cy="326.164" r="14" fill="#ffffff" fill-rule="evenodd" fill-opacity="1" stroke="#000000" stroke-opacity="1" stroke-width="3.2"/>
<circle clip-path="url(#clip622)" cx="1792.11" cy="288.472" r="14" fill="#ffffff" fill-rule="evenodd" fill-opacity="1" stroke="#000000" stroke-opacity="1" stroke-width="3.2"/>
<circle clip-path="url(#clip622)" cx="1837.82" cy="231.934" r="14" fill="#ffffff" fill-rule="evenodd" fill-opacity="1" stroke="#000000" stroke-opacity="1" stroke-width="3.2"/>
<circle clip-path="url(#clip622)" cx="1891.74" cy="194.242" r="14" fill="#ffffff" fill-rule="evenodd" fill-opacity="1" stroke="#000000" stroke-opacity="1" stroke-width="3.2"/>
<circle clip-path="url(#clip622)" cx="1926.9" cy="156.551" r="14" fill="#ffffff" fill-rule="evenodd" fill-opacity="1" stroke="#000000" stroke-opacity="1" stroke-width="3.2"/>
<circle clip-path="url(#clip622)" cx="2095.68" cy="100.013" r="14" fill="#ffffff" fill-rule="evenodd" fill-opacity="1" stroke="#000000" stroke-opacity="1" stroke-width="3.2"/>
<path clip-path="url(#clip620)" d="
M102.74 1505.26 L2352.76 1505.26 L2352.76 1372.08 L102.74 1372.08  Z
  " fill="#ffffff" fill-rule="evenodd" fill-opacity="1"/>
<defs>
  <clipPath id="clip623">
    <rect x="102" y="1372" width="2251" height="134"/>
  </clipPath>
</defs>
<polyline clip-path="url(#clip623)" style="stroke:#000000; stroke-width:2; stroke-opacity:0.1; fill:none" points="
  166.42,1505.26 166.42,1372.08 
  "/>
<polyline clip-path="url(#clip623)" style="stroke:#000000; stroke-width:2; stroke-opacity:0.1; fill:none" points="
  752.462,1505.26 752.462,1372.08 
  "/>
<polyline clip-path="url(#clip623)" style="stroke:#000000; stroke-width:2; stroke-opacity:0.1; fill:none" points="
  1338.5,1505.26 1338.5,1372.08 
  "/>
<polyline clip-path="url(#clip623)" style="stroke:#000000; stroke-width:2; stroke-opacity:0.1; fill:none" points="
  1924.55,1505.26 1924.55,1372.08 
  "/>
<polyline clip-path="url(#clip620)" style="stroke:#000000; stroke-width:4; stroke-opacity:1; fill:none" points="
  102.74,1505.26 2352.76,1505.26 
  "/>
<polyline clip-path="url(#clip620)" style="stroke:#000000; stroke-width:4; stroke-opacity:1; fill:none" points="
  166.42,1505.26 166.42,1503.66 
  "/>
<polyline clip-path="url(#clip620)" style="stroke:#000000; stroke-width:4; stroke-opacity:1; fill:none" points="
  752.462,1505.26 752.462,1503.66 
  "/>
<polyline clip-path="url(#clip620)" style="stroke:#000000; stroke-width:4; stroke-opacity:1; fill:none" points="
  1338.5,1505.26 1338.5,1503.66 
  "/>
<polyline clip-path="url(#clip620)" style="stroke:#000000; stroke-width:4; stroke-opacity:1; fill:none" points="
  1924.55,1505.26 1924.55,1503.66 
  "/>
<path clip-path="url(#clip620)" d="M 0 0 M83.4805 1534.45 Q79.8694 1534.45 78.0407 1538.02 Q76.2351 1541.56 76.2351 1548.69 Q76.2351 1555.79 78.0407 1559.36 Q79.8694 1562.9 83.4805 1562.9 Q87.1147 1562.9 88.9203 1559.36 Q90.749 1555.79 90.749 1548.69 Q90.749 1541.56 88.9203 1538.02 Q87.1147 1534.45 83.4805 1534.45 M83.4805 1530.75 Q89.2906 1530.75 92.3462 1535.35 Q95.4249 1539.94 95.4249 1548.69 Q95.4249 1557.41 92.3462 1562.02 Q89.2906 1566.6 83.4805 1566.6 Q77.6703 1566.6 74.5916 1562.02 Q71.5361 1557.41 71.5361 1548.69 Q71.5361 1539.94 74.5916 1535.35 Q77.6703 1530.75 83.4805 1530.75 Z" fill="#000000" fill-rule="evenodd" fill-opacity="1" /><path clip-path="url(#clip620)" d="M 0 0 M103.642 1560.05 L108.527 1560.05 L108.527 1565.93 L103.642 1565.93 L103.642 1560.05 Z" fill="#000000" fill-rule="evenodd" fill-opacity="1" /><path clip-path="url(#clip620)" d="M 0 0 M128.712 1534.45 Q125.101 1534.45 123.272 1538.02 Q121.466 1541.56 121.466 1548.69 Q121.466 1555.79 123.272 1559.36 Q125.101 1562.9 128.712 1562.9 Q132.346 1562.9 134.152 1559.36 Q135.98 1555.79 135.98 1548.69 Q135.98 1541.56 134.152 1538.02 Q132.346 1534.45 128.712 1534.45 M128.712 1530.75 Q134.522 1530.75 137.577 1535.35 Q140.656 1539.94 140.656 1548.69 Q140.656 1557.41 137.577 1562.02 Q134.522 1566.6 128.712 1566.6 Q122.902 1566.6 119.823 1562.02 Q116.767 1557.41 116.767 1548.69 Q116.767 1539.94 119.823 1535.35 Q122.902 1530.75 128.712 1530.75 Z" fill="#000000" fill-rule="evenodd" fill-opacity="1" /><path clip-path="url(#clip620)" d="M 0 0 M158.874 1534.45 Q155.263 1534.45 153.434 1538.02 Q151.628 1541.56 151.628 1548.69 Q151.628 1555.79 153.434 1559.36 Q155.263 1562.9 158.874 1562.9 Q162.508 1562.9 164.313 1559.36 Q166.142 1555.79 166.142 1548.69 Q166.142 1541.56 164.313 1538.02 Q162.508 1534.45 158.874 1534.45 M158.874 1530.75 Q164.684 1530.75 167.739 1535.35 Q170.818 1539.94 170.818 1548.69 Q170.818 1557.41 167.739 1562.02 Q164.684 1566.6 158.874 1566.6 Q153.063 1566.6 149.985 1562.02 Q146.929 1557.41 146.929 1548.69 Q146.929 1539.94 149.985 1535.35 Q153.063 1530.75 158.874 1530.75 Z" fill="#000000" fill-rule="evenodd" fill-opacity="1" /><path clip-path="url(#clip620)" d="M 0 0 M189.035 1534.45 Q185.424 1534.45 183.596 1538.02 Q181.79 1541.56 181.79 1548.69 Q181.79 1555.79 183.596 1559.36 Q185.424 1562.9 189.035 1562.9 Q192.67 1562.9 194.475 1559.36 Q196.304 1555.79 196.304 1548.69 Q196.304 1541.56 194.475 1538.02 Q192.67 1534.45 189.035 1534.45 M189.035 1530.75 Q194.846 1530.75 197.901 1535.35 Q200.98 1539.94 200.98 1548.69 Q200.98 1557.41 197.901 1562.02 Q194.846 1566.6 189.035 1566.6 Q183.225 1566.6 180.147 1562.02 Q177.091 1557.41 177.091 1548.69 Q177.091 1539.94 180.147 1535.35 Q183.225 1530.75 189.035 1530.75 Z" fill="#000000" fill-rule="evenodd" fill-opacity="1" /><path clip-path="url(#clip620)" d="M 0 0 M219.197 1534.45 Q215.586 1534.45 213.758 1538.02 Q211.952 1541.56 211.952 1548.69 Q211.952 1555.79 213.758 1559.36 Q215.586 1562.9 219.197 1562.9 Q222.832 1562.9 224.637 1559.36 Q226.466 1555.79 226.466 1548.69 Q226.466 1541.56 224.637 1538.02 Q222.832 1534.45 219.197 1534.45 M219.197 1530.75 Q225.007 1530.75 228.063 1535.35 Q231.142 1539.94 231.142 1548.69 Q231.142 1557.41 228.063 1562.02 Q225.007 1566.6 219.197 1566.6 Q213.387 1566.6 210.309 1562.02 Q207.253 1557.41 207.253 1548.69 Q207.253 1539.94 210.309 1535.35 Q213.387 1530.75 219.197 1530.75 Z" fill="#000000" fill-rule="evenodd" fill-opacity="1" /><path clip-path="url(#clip620)" d="M 0 0 M249.359 1534.45 Q245.748 1534.45 243.919 1538.02 Q242.114 1541.56 242.114 1548.69 Q242.114 1555.79 243.919 1559.36 Q245.748 1562.9 249.359 1562.9 Q252.993 1562.9 254.799 1559.36 Q256.628 1555.79 256.628 1548.69 Q256.628 1541.56 254.799 1538.02 Q252.993 1534.45 249.359 1534.45 M249.359 1530.75 Q255.169 1530.75 258.225 1535.35 Q261.304 1539.94 261.304 1548.69 Q261.304 1557.41 258.225 1562.02 Q255.169 1566.6 249.359 1566.6 Q243.549 1566.6 240.47 1562.02 Q237.415 1557.41 237.415 1548.69 Q237.415 1539.94 240.47 1535.35 Q243.549 1530.75 249.359 1530.75 Z" fill="#000000" fill-rule="evenodd" fill-opacity="1" /><path clip-path="url(#clip620)" d="M 0 0 M670.02 1534.45 Q666.409 1534.45 664.581 1538.02 Q662.775 1541.56 662.775 1548.69 Q662.775 1555.79 664.581 1559.36 Q666.409 1562.9 670.02 1562.9 Q673.655 1562.9 675.46 1559.36 Q677.289 1555.79 677.289 1548.69 Q677.289 1541.56 675.46 1538.02 Q673.655 1534.45 670.02 1534.45 M670.02 1530.75 Q675.83 1530.75 678.886 1535.35 Q681.965 1539.94 681.965 1548.69 Q681.965 1557.41 678.886 1562.02 Q675.83 1566.6 670.02 1566.6 Q664.21 1566.6 661.131 1562.02 Q658.076 1557.41 658.076 1548.69 Q658.076 1539.94 661.131 1535.35 Q664.21 1530.75 670.02 1530.75 Z" fill="#000000" fill-rule="evenodd" fill-opacity="1" /><path clip-path="url(#clip620)" d="M 0 0 M690.182 1560.05 L695.066 1560.05 L695.066 1565.93 L690.182 1565.93 L690.182 1560.05 Z" fill="#000000" fill-rule="evenodd" fill-opacity="1" /><path clip-path="url(#clip620)" d="M 0 0 M715.252 1534.45 Q711.64 1534.45 709.812 1538.02 Q708.006 1541.56 708.006 1548.69 Q708.006 1555.79 709.812 1559.36 Q711.64 1562.9 715.252 1562.9 Q718.886 1562.9 720.691 1559.36 Q722.52 1555.79 722.52 1548.69 Q722.52 1541.56 720.691 1538.02 Q718.886 1534.45 715.252 1534.45 M715.252 1530.75 Q721.062 1530.75 724.117 1535.35 Q727.196 1539.94 727.196 1548.69 Q727.196 1557.41 724.117 1562.02 Q721.062 1566.6 715.252 1566.6 Q709.441 1566.6 706.363 1562.02 Q703.307 1557.41 703.307 1548.69 Q703.307 1539.94 706.363 1535.35 Q709.441 1530.75 715.252 1530.75 Z" fill="#000000" fill-rule="evenodd" fill-opacity="1" /><path clip-path="url(#clip620)" d="M 0 0 M745.413 1534.45 Q741.802 1534.45 739.974 1538.02 Q738.168 1541.56 738.168 1548.69 Q738.168 1555.79 739.974 1559.36 Q741.802 1562.9 745.413 1562.9 Q749.048 1562.9 750.853 1559.36 Q752.682 1555.79 752.682 1548.69 Q752.682 1541.56 750.853 1538.02 Q749.048 1534.45 745.413 1534.45 M745.413 1530.75 Q751.224 1530.75 754.279 1535.35 Q757.358 1539.94 757.358 1548.69 Q757.358 1557.41 754.279 1562.02 Q751.224 1566.6 745.413 1566.6 Q739.603 1566.6 736.525 1562.02 Q733.469 1557.41 733.469 1548.69 Q733.469 1539.94 736.525 1535.35 Q739.603 1530.75 745.413 1530.75 Z" fill="#000000" fill-rule="evenodd" fill-opacity="1" /><path clip-path="url(#clip620)" d="M 0 0 M775.575 1534.45 Q771.964 1534.45 770.136 1538.02 Q768.33 1541.56 768.33 1548.69 Q768.33 1555.79 770.136 1559.36 Q771.964 1562.9 775.575 1562.9 Q779.21 1562.9 781.015 1559.36 Q782.844 1555.79 782.844 1548.69 Q782.844 1541.56 781.015 1538.02 Q779.21 1534.45 775.575 1534.45 M775.575 1530.75 Q781.385 1530.75 784.441 1535.35 Q787.52 1539.94 787.52 1548.69 Q787.52 1557.41 784.441 1562.02 Q781.385 1566.6 775.575 1566.6 Q769.765 1566.6 766.686 1562.02 Q763.631 1557.41 763.631 1548.69 Q763.631 1539.94 766.686 1535.35 Q769.765 1530.75 775.575 1530.75 Z" fill="#000000" fill-rule="evenodd" fill-opacity="1" /><path clip-path="url(#clip620)" d="M 0 0 M805.737 1534.45 Q802.126 1534.45 800.297 1538.02 Q798.492 1541.56 798.492 1548.69 Q798.492 1555.79 800.297 1559.36 Q802.126 1562.9 805.737 1562.9 Q809.371 1562.9 811.177 1559.36 Q813.006 1555.79 813.006 1548.69 Q813.006 1541.56 811.177 1538.02 Q809.371 1534.45 805.737 1534.45 M805.737 1530.75 Q811.547 1530.75 814.603 1535.35 Q817.682 1539.94 817.682 1548.69 Q817.682 1557.41 814.603 1562.02 Q811.547 1566.6 805.737 1566.6 Q799.927 1566.6 796.848 1562.02 Q793.793 1557.41 793.793 1548.69 Q793.793 1539.94 796.848 1535.35 Q799.927 1530.75 805.737 1530.75 Z" fill="#000000" fill-rule="evenodd" fill-opacity="1" /><path clip-path="url(#clip620)" d="M 0 0 M825.945 1531.37 L844.302 1531.37 L844.302 1535.31 L830.228 1535.31 L830.228 1543.78 Q831.246 1543.43 832.265 1543.27 Q833.283 1543.08 834.302 1543.08 Q840.089 1543.08 843.468 1546.26 Q846.848 1549.43 846.848 1554.84 Q846.848 1560.42 843.376 1563.52 Q839.904 1566.6 833.584 1566.6 Q831.408 1566.6 829.14 1566.23 Q826.894 1565.86 824.487 1565.12 L824.487 1560.42 Q826.57 1561.56 828.793 1562.11 Q831.015 1562.67 833.492 1562.67 Q837.496 1562.67 839.834 1560.56 Q842.172 1558.46 842.172 1554.84 Q842.172 1551.23 839.834 1549.13 Q837.496 1547.02 833.492 1547.02 Q831.617 1547.02 829.742 1547.44 Q827.89 1547.85 825.945 1548.73 L825.945 1531.37 Z" fill="#000000" fill-rule="evenodd" fill-opacity="1" /><path clip-path="url(#clip620)" d="M 0 0 M1255.56 1534.45 Q1251.95 1534.45 1250.12 1538.02 Q1248.32 1541.56 1248.32 1548.69 Q1248.32 1555.79 1250.12 1559.36 Q1251.95 1562.9 1255.56 1562.9 Q1259.2 1562.9 1261 1559.36 Q1262.83 1555.79 1262.83 1548.69 Q1262.83 1541.56 1261 1538.02 Q1259.2 1534.45 1255.56 1534.45 M1255.56 1530.75 Q1261.37 1530.75 1264.43 1535.35 Q1267.51 1539.94 1267.51 1548.69 Q1267.51 1557.41 1264.43 1562.02 Q1261.37 1566.6 1255.56 1566.6 Q1249.75 1566.6 1246.68 1562.02 Q1243.62 1557.41 1243.62 1548.69 Q1243.62 1539.94 1246.68 1535.35 Q1249.75 1530.75 1255.56 1530.75 Z" fill="#000000" fill-rule="evenodd" fill-opacity="1" /><path clip-path="url(#clip620)" d="M 0 0 M1275.73 1560.05 L1280.61 1560.05 L1280.61 1565.93 L1275.73 1565.93 L1275.73 1560.05 Z" fill="#000000" fill-rule="evenodd" fill-opacity="1" /><path clip-path="url(#clip620)" d="M 0 0 M1300.8 1534.45 Q1297.18 1534.45 1295.36 1538.02 Q1293.55 1541.56 1293.55 1548.69 Q1293.55 1555.79 1295.36 1559.36 Q1297.18 1562.9 1300.8 1562.9 Q1304.43 1562.9 1306.24 1559.36 Q1308.06 1555.79 1308.06 1548.69 Q1308.06 1541.56 1306.24 1538.02 Q1304.43 1534.45 1300.8 1534.45 M1300.8 1530.75 Q1306.61 1530.75 1309.66 1535.35 Q1312.74 1539.94 1312.74 1548.69 Q1312.74 1557.41 1309.66 1562.02 Q1306.61 1566.6 1300.8 1566.6 Q1294.99 1566.6 1291.91 1562.02 Q1288.85 1557.41 1288.85 1548.69 Q1288.85 1539.94 1291.91 1535.35 Q1294.99 1530.75 1300.8 1530.75 Z" fill="#000000" fill-rule="evenodd" fill-opacity="1" /><path clip-path="url(#clip620)" d="M 0 0 M1330.96 1534.45 Q1327.35 1534.45 1325.52 1538.02 Q1323.71 1541.56 1323.71 1548.69 Q1323.71 1555.79 1325.52 1559.36 Q1327.35 1562.9 1330.96 1562.9 Q1334.59 1562.9 1336.4 1559.36 Q1338.23 1555.79 1338.23 1548.69 Q1338.23 1541.56 1336.4 1538.02 Q1334.59 1534.45 1330.96 1534.45 M1330.96 1530.75 Q1336.77 1530.75 1339.82 1535.35 Q1342.9 1539.94 1342.9 1548.69 Q1342.9 1557.41 1339.82 1562.02 Q1336.77 1566.6 1330.96 1566.6 Q1325.15 1566.6 1322.07 1562.02 Q1319.01 1557.41 1319.01 1548.69 Q1319.01 1539.94 1322.07 1535.35 Q1325.15 1530.75 1330.96 1530.75 Z" fill="#000000" fill-rule="evenodd" fill-opacity="1" /><path clip-path="url(#clip620)" d="M 0 0 M1361.12 1534.45 Q1357.51 1534.45 1355.68 1538.02 Q1353.87 1541.56 1353.87 1548.69 Q1353.87 1555.79 1355.68 1559.36 Q1357.51 1562.9 1361.12 1562.9 Q1364.75 1562.9 1366.56 1559.36 Q1368.39 1555.79 1368.39 1548.69 Q1368.39 1541.56 1366.56 1538.02 Q1364.75 1534.45 1361.12 1534.45 M1361.12 1530.75 Q1366.93 1530.75 1369.99 1535.35 Q1373.06 1539.94 1373.06 1548.69 Q1373.06 1557.41 1369.99 1562.02 Q1366.93 1566.6 1361.12 1566.6 Q1355.31 1566.6 1352.23 1562.02 Q1349.18 1557.41 1349.18 1548.69 Q1349.18 1539.94 1352.23 1535.35 Q1355.31 1530.75 1361.12 1530.75 Z" fill="#000000" fill-rule="evenodd" fill-opacity="1" /><path clip-path="url(#clip620)" d="M 0 0 M1382.09 1562 L1389.73 1562 L1389.73 1535.63 L1381.42 1537.3 L1381.42 1533.04 L1389.68 1531.37 L1394.36 1531.37 L1394.36 1562 L1402 1562 L1402 1565.93 L1382.09 1565.93 L1382.09 1562 Z" fill="#000000" fill-rule="evenodd" fill-opacity="1" /><path clip-path="url(#clip620)" d="M 0 0 M1421.44 1534.45 Q1417.83 1534.45 1416 1538.02 Q1414.2 1541.56 1414.2 1548.69 Q1414.2 1555.79 1416 1559.36 Q1417.83 1562.9 1421.44 1562.9 Q1425.08 1562.9 1426.88 1559.36 Q1428.71 1555.79 1428.71 1548.69 Q1428.71 1541.56 1426.88 1538.02 Q1425.08 1534.45 1421.44 1534.45 M1421.44 1530.75 Q1427.25 1530.75 1430.31 1535.35 Q1433.39 1539.94 1433.39 1548.69 Q1433.39 1557.41 1430.31 1562.02 Q1427.25 1566.6 1421.44 1566.6 Q1415.63 1566.6 1412.55 1562.02 Q1409.5 1557.41 1409.5 1548.69 Q1409.5 1539.94 1412.55 1535.35 Q1415.63 1530.75 1421.44 1530.75 Z" fill="#000000" fill-rule="evenodd" fill-opacity="1" /><path clip-path="url(#clip620)" d="M 0 0 M1842.1 1534.45 Q1838.49 1534.45 1836.66 1538.02 Q1834.86 1541.56 1834.86 1548.69 Q1834.86 1555.79 1836.66 1559.36 Q1838.49 1562.9 1842.1 1562.9 Q1845.74 1562.9 1847.54 1559.36 Q1849.37 1555.79 1849.37 1548.69 Q1849.37 1541.56 1847.54 1538.02 Q1845.74 1534.45 1842.1 1534.45 M1842.1 1530.75 Q1847.91 1530.75 1850.97 1535.35 Q1854.05 1539.94 1854.05 1548.69 Q1854.05 1557.41 1850.97 1562.02 Q1847.91 1566.6 1842.1 1566.6 Q1836.29 1566.6 1833.22 1562.02 Q1830.16 1557.41 1830.16 1548.69 Q1830.16 1539.94 1833.22 1535.35 Q1836.29 1530.75 1842.1 1530.75 Z" fill="#000000" fill-rule="evenodd" fill-opacity="1" /><path clip-path="url(#clip620)" d="M 0 0 M1862.27 1560.05 L1867.15 1560.05 L1867.15 1565.93 L1862.27 1565.93 L1862.27 1560.05 Z" fill="#000000" fill-rule="evenodd" fill-opacity="1" /><path clip-path="url(#clip620)" d="M 0 0 M1887.34 1534.45 Q1883.72 1534.45 1881.9 1538.02 Q1880.09 1541.56 1880.09 1548.69 Q1880.09 1555.79 1881.9 1559.36 Q1883.72 1562.9 1887.34 1562.9 Q1890.97 1562.9 1892.78 1559.36 Q1894.6 1555.79 1894.6 1548.69 Q1894.6 1541.56 1892.78 1538.02 Q1890.97 1534.45 1887.34 1534.45 M1887.34 1530.75 Q1893.15 1530.75 1896.2 1535.35 Q1899.28 1539.94 1899.28 1548.69 Q1899.28 1557.41 1896.2 1562.02 Q1893.15 1566.6 1887.34 1566.6 Q1881.53 1566.6 1878.45 1562.02 Q1875.39 1557.41 1875.39 1548.69 Q1875.39 1539.94 1878.45 1535.35 Q1881.53 1530.75 1887.34 1530.75 Z" fill="#000000" fill-rule="evenodd" fill-opacity="1" /><path clip-path="url(#clip620)" d="M 0 0 M1917.5 1534.45 Q1913.89 1534.45 1912.06 1538.02 Q1910.25 1541.56 1910.25 1548.69 Q1910.25 1555.79 1912.06 1559.36 Q1913.89 1562.9 1917.5 1562.9 Q1921.13 1562.9 1922.94 1559.36 Q1924.77 1555.79 1924.77 1548.69 Q1924.77 1541.56 1922.94 1538.02 Q1921.13 1534.45 1917.5 1534.45 M1917.5 1530.75 Q1923.31 1530.75 1926.36 1535.35 Q1929.44 1539.94 1929.44 1548.69 Q1929.44 1557.41 1926.36 1562.02 Q1923.31 1566.6 1917.5 1566.6 Q1911.69 1566.6 1908.61 1562.02 Q1905.55 1557.41 1905.55 1548.69 Q1905.55 1539.94 1908.61 1535.35 Q1911.69 1530.75 1917.5 1530.75 Z" fill="#000000" fill-rule="evenodd" fill-opacity="1" /><path clip-path="url(#clip620)" d="M 0 0 M1947.66 1534.45 Q1944.05 1534.45 1942.22 1538.02 Q1940.41 1541.56 1940.41 1548.69 Q1940.41 1555.79 1942.22 1559.36 Q1944.05 1562.9 1947.66 1562.9 Q1951.29 1562.9 1953.1 1559.36 Q1954.93 1555.79 1954.93 1548.69 Q1954.93 1541.56 1953.1 1538.02 Q1951.29 1534.45 1947.66 1534.45 M1947.66 1530.75 Q1953.47 1530.75 1956.53 1535.35 Q1959.6 1539.94 1959.6 1548.69 Q1959.6 1557.41 1956.53 1562.02 Q1953.47 1566.6 1947.66 1566.6 Q1941.85 1566.6 1938.77 1562.02 Q1935.72 1557.41 1935.72 1548.69 Q1935.72 1539.94 1938.77 1535.35 Q1941.85 1530.75 1947.66 1530.75 Z" fill="#000000" fill-rule="evenodd" fill-opacity="1" /><path clip-path="url(#clip620)" d="M 0 0 M1968.63 1562 L1976.27 1562 L1976.27 1535.63 L1967.96 1537.3 L1967.96 1533.04 L1976.22 1531.37 L1980.9 1531.37 L1980.9 1562 L1988.54 1562 L1988.54 1565.93 L1968.63 1565.93 L1968.63 1562 Z" fill="#000000" fill-rule="evenodd" fill-opacity="1" /><path clip-path="url(#clip620)" d="M 0 0 M1998.03 1531.37 L2016.39 1531.37 L2016.39 1535.31 L2002.31 1535.31 L2002.31 1543.78 Q2003.33 1543.43 2004.35 1543.27 Q2005.37 1543.08 2006.39 1543.08 Q2012.17 1543.08 2015.55 1546.26 Q2018.93 1549.43 2018.93 1554.84 Q2018.93 1560.42 2015.46 1563.52 Q2011.99 1566.6 2005.67 1566.6 Q2003.49 1566.6 2001.22 1566.23 Q1998.98 1565.86 1996.57 1565.12 L1996.57 1560.42 Q1998.65 1561.56 2000.88 1562.11 Q2003.1 1562.67 2005.58 1562.67 Q2009.58 1562.67 2011.92 1560.56 Q2014.26 1558.46 2014.26 1554.84 Q2014.26 1551.23 2011.92 1549.13 Q2009.58 1547.02 2005.58 1547.02 Q2003.7 1547.02 2001.83 1547.44 Q1999.97 1547.85 1998.03 1548.73 L1998.03 1531.37 Z" fill="#000000" fill-rule="evenodd" fill-opacity="1" /><path clip-path="url(#clip620)" d="M 0 0 M1056.24 1602.6 L1096.44 1602.6 L1096.44 1608.01 L1079.57 1608.01 L1079.57 1650.12 L1073.11 1650.12 L1073.11 1608.01 L1056.24 1608.01 L1056.24 1602.6 Z" fill="#000000" fill-rule="evenodd" fill-opacity="1" /><path clip-path="url(#clip620)" d="M 0 0 M1100.39 1614.48 L1106.24 1614.48 L1106.24 1650.12 L1100.39 1650.12 L1100.39 1614.48 M1100.39 1600.6 L1106.24 1600.6 L1106.24 1608.01 L1100.39 1608.01 L1100.39 1600.6 Z" fill="#000000" fill-rule="evenodd" fill-opacity="1" /><path clip-path="url(#clip620)" d="M 0 0 M1146.25 1621.32 Q1148.45 1617.37 1151.5 1615.49 Q1154.56 1613.62 1158.7 1613.62 Q1164.27 1613.62 1167.29 1617.53 Q1170.31 1621.41 1170.31 1628.61 L1170.31 1650.12 L1164.43 1650.12 L1164.43 1628.8 Q1164.43 1623.67 1162.61 1621.19 Q1160.8 1618.71 1157.07 1618.71 Q1152.52 1618.71 1149.88 1621.73 Q1147.24 1624.76 1147.24 1629.98 L1147.24 1650.12 L1141.35 1650.12 L1141.35 1628.8 Q1141.35 1623.64 1139.54 1621.19 Q1137.72 1618.71 1133.93 1618.71 Q1129.45 1618.71 1126.8 1621.76 Q1124.16 1624.79 1124.16 1629.98 L1124.16 1650.12 L1118.27 1650.12 L1118.27 1614.48 L1124.16 1614.48 L1124.16 1620.01 Q1126.17 1616.74 1128.97 1615.18 Q1131.77 1613.62 1135.62 1613.62 Q1139.5 1613.62 1142.21 1615.59 Q1144.95 1617.56 1146.25 1621.32 Z" fill="#000000" fill-rule="evenodd" fill-opacity="1" /><path clip-path="url(#clip620)" d="M 0 0 M1212.49 1630.84 L1212.49 1633.7 L1185.56 1633.7 Q1185.94 1639.75 1189.19 1642.93 Q1192.47 1646.08 1198.29 1646.08 Q1201.66 1646.08 1204.82 1645.25 Q1208 1644.43 1211.12 1642.77 L1211.12 1648.31 Q1207.97 1649.65 1204.66 1650.35 Q1201.35 1651.05 1197.94 1651.05 Q1189.41 1651.05 1184.41 1646.08 Q1179.45 1641.12 1179.45 1632.65 Q1179.45 1623.9 1184.16 1618.77 Q1188.9 1613.62 1196.92 1613.62 Q1204.12 1613.62 1208.28 1618.26 Q1212.49 1622.88 1212.49 1630.84 M1206.63 1629.12 Q1206.57 1624.31 1203.92 1621.45 Q1201.31 1618.58 1196.99 1618.58 Q1192.08 1618.58 1189.12 1621.35 Q1186.2 1624.12 1185.75 1629.15 L1206.63 1629.12 Z" fill="#000000" fill-rule="evenodd" fill-opacity="1" /><path clip-path="url(#clip620)" d="M 0 0 M1242.28 1600.6 L1255.77 1600.6 L1255.77 1605.15 L1248.13 1605.15 L1248.13 1654.17 L1255.77 1654.17 L1255.77 1658.72 L1242.28 1658.72 L1242.28 1600.6 Z" fill="#000000" fill-rule="evenodd" fill-opacity="1" /><path clip-path="url(#clip620)" d="M 0 0 M1296.99 1604.16 L1296.99 1610.43 Q1293.33 1608.68 1290.08 1607.82 Q1286.84 1606.96 1283.81 1606.96 Q1278.56 1606.96 1275.7 1609 Q1272.86 1611.04 1272.86 1614.79 Q1272.86 1617.95 1274.74 1619.57 Q1276.65 1621.16 1281.94 1622.15 L1285.82 1622.94 Q1293.01 1624.31 1296.42 1627.78 Q1299.86 1631.22 1299.86 1637.01 Q1299.86 1643.92 1295.21 1647.48 Q1290.59 1651.05 1281.65 1651.05 Q1278.28 1651.05 1274.46 1650.28 Q1270.67 1649.52 1266.59 1648.02 L1266.59 1641.4 Q1270.51 1643.6 1274.27 1644.71 Q1278.02 1645.83 1281.65 1645.83 Q1287.16 1645.83 1290.15 1643.66 Q1293.14 1641.5 1293.14 1637.49 Q1293.14 1633.99 1290.98 1632.01 Q1288.84 1630.04 1283.94 1629.05 L1280.03 1628.29 Q1272.83 1626.86 1269.62 1623.8 Q1266.4 1620.75 1266.4 1615.3 Q1266.4 1609 1270.83 1605.37 Q1275.28 1601.74 1283.08 1601.74 Q1286.42 1601.74 1289.89 1602.35 Q1293.36 1602.95 1296.99 1604.16 Z" fill="#000000" fill-rule="evenodd" fill-opacity="1" /><path clip-path="url(#clip620)" d="M 0 0 M1340.12 1630.84 L1340.12 1633.7 L1313.19 1633.7 Q1313.57 1639.75 1316.82 1642.93 Q1320.1 1646.08 1325.92 1646.08 Q1329.3 1646.08 1332.45 1645.25 Q1335.63 1644.43 1338.75 1642.77 L1338.75 1648.31 Q1335.6 1649.65 1332.29 1650.35 Q1328.98 1651.05 1325.57 1651.05 Q1317.04 1651.05 1312.05 1646.08 Q1307.08 1641.12 1307.08 1632.65 Q1307.08 1623.9 1311.79 1618.77 Q1316.53 1613.62 1324.55 1613.62 Q1331.75 1613.62 1335.92 1618.26 Q1340.12 1622.88 1340.12 1630.84 M1334.26 1629.12 Q1334.2 1624.31 1331.56 1621.45 Q1328.95 1618.58 1324.62 1618.58 Q1319.72 1618.58 1316.76 1621.35 Q1313.83 1624.12 1313.38 1629.15 L1334.26 1629.12 Z" fill="#000000" fill-rule="evenodd" fill-opacity="1" /><path clip-path="url(#clip620)" d="M 0 0 M1375.38 1615.84 L1375.38 1621.32 Q1372.9 1619.95 1370.39 1619.28 Q1367.9 1618.58 1365.36 1618.58 Q1359.66 1618.58 1356.51 1622.21 Q1353.36 1625.81 1353.36 1632.33 Q1353.36 1638.86 1356.51 1642.48 Q1359.66 1646.08 1365.36 1646.08 Q1367.9 1646.08 1370.39 1645.41 Q1372.9 1644.71 1375.38 1643.34 L1375.38 1648.76 Q1372.93 1649.9 1370.29 1650.47 Q1367.68 1651.05 1364.72 1651.05 Q1356.67 1651.05 1351.93 1645.99 Q1347.18 1640.93 1347.18 1632.33 Q1347.18 1623.61 1351.96 1618.61 Q1356.76 1613.62 1365.1 1613.62 Q1367.81 1613.62 1370.39 1614.19 Q1372.97 1614.73 1375.38 1615.84 Z" fill="#000000" fill-rule="evenodd" fill-opacity="1" /><path clip-path="url(#clip620)" d="M 0 0 M1399.26 1600.6 L1399.26 1658.72 L1385.76 1658.72 L1385.76 1654.17 L1393.37 1654.17 L1393.37 1605.15 L1385.76 1605.15 L1385.76 1600.6 L1399.26 1600.6 Z" fill="#000000" fill-rule="evenodd" fill-opacity="1" /><polyline clip-path="url(#clip620)" style="stroke:#000000; stroke-width:4; stroke-opacity:1; fill:none" points="
  102.74,1505.26 102.74,1372.08 
  "/>
<path clip-path="url(#clip620)" d="M 0 0 M-25.7523 1468.32 L-7.8965 1468.32 L-7.8965 1460.23 Q-7.8965 1455.75 -10.22 1453.3 Q-12.5435 1450.85 -16.8403 1450.85 Q-21.1053 1450.85 -23.4288 1453.3 Q-25.7523 1455.75 -25.7523 1460.23 L-25.7523 1468.32 M-31.0358 1474.75 L-31.0358 1460.23 Q-31.0358 1452.25 -27.4074 1448.17 Q-23.8108 1444.07 -16.8403 1444.07 Q-9.80621 1444.07 -6.20959 1448.17 Q-2.61296 1452.25 -2.61296 1460.23 L-2.61296 1468.32 L16.4842 1468.32 L16.4842 1474.75 L-31.0358 1474.75 Z" fill="#000000" fill-rule="evenodd" fill-opacity="1" /><path clip-path="url(#clip620)" d="M 0 0 M-29.2853 1429.9 L-19.1638 1429.9 L-19.1638 1417.84 L-14.6123 1417.84 L-14.6123 1429.9 L4.73943 1429.9 Q9.09994 1429.9 10.3413 1428.72 Q11.5826 1427.51 11.5826 1423.85 L11.5826 1417.84 L16.4842 1417.84 L16.4842 1423.85 Q16.4842 1430.63 13.9697 1433.21 Q11.4234 1435.79 4.73943 1435.79 L-14.6123 1435.79 L-14.6123 1440.09 L-19.1638 1440.09 L-19.1638 1435.79 L-29.2853 1435.79 L-29.2853 1429.9 Z" fill="#000000" fill-rule="evenodd" fill-opacity="1" /><path clip-path="url(#clip620)" d="M 0 0 M8.39971 1409.31 L8.39971 1402.59 L16.4842 1402.59 L16.4842 1409.31 L8.39971 1409.31 Z" fill="#000000" fill-rule="evenodd" fill-opacity="1" /><polyline clip-path="url(#clip623)" style="stroke:#009af9; stroke-width:4; stroke-opacity:1; fill:none" points="
  227.368,1638.44 227.368,1238.9 
  "/>
<polyline clip-path="url(#clip623)" style="stroke:#009af9; stroke-width:4; stroke-opacity:1; fill:none" points="
  283.628,1638.44 283.628,1238.9 
  "/>
<polyline clip-path="url(#clip623)" style="stroke:#009af9; stroke-width:4; stroke-opacity:1; fill:none" points="
  331.684,1638.44 331.684,1238.9 
  "/>
<polyline clip-path="url(#clip623)" style="stroke:#009af9; stroke-width:4; stroke-opacity:1; fill:none" points="
  394.976,1638.44 394.976,1238.9 
  "/>
<polyline clip-path="url(#clip623)" style="stroke:#009af9; stroke-width:4; stroke-opacity:1; fill:none" points="
  452.408,1638.44 452.408,1238.9 
  "/>
<polyline clip-path="url(#clip623)" style="stroke:#009af9; stroke-width:4; stroke-opacity:1; fill:none" points="
  515.701,1638.44 515.701,1238.9 
  "/>
<polyline clip-path="url(#clip623)" style="stroke:#009af9; stroke-width:4; stroke-opacity:1; fill:none" points="
  536.798,1638.44 536.798,1238.9 
  "/>
<polyline clip-path="url(#clip623)" style="stroke:#009af9; stroke-width:4; stroke-opacity:1; fill:none" points="
  566.101,1638.44 566.101,1238.9 
  "/>
<polyline clip-path="url(#clip623)" style="stroke:#009af9; stroke-width:4; stroke-opacity:1; fill:none" points="
  594.231,1638.44 594.231,1238.9 
  "/>
<polyline clip-path="url(#clip623)" style="stroke:#009af9; stroke-width:4; stroke-opacity:1; fill:none" points="
  623.533,1638.44 623.533,1238.9 
  "/>
<polyline clip-path="url(#clip623)" style="stroke:#009af9; stroke-width:4; stroke-opacity:1; fill:none" points="
  663.384,1638.44 663.384,1238.9 
  "/>
<polyline clip-path="url(#clip623)" style="stroke:#009af9; stroke-width:4; stroke-opacity:1; fill:none" points="
  695.03,1638.44 695.03,1238.9 
  "/>
<polyline clip-path="url(#clip623)" style="stroke:#009af9; stroke-width:4; stroke-opacity:1; fill:none" points="
  744.257,1638.44 744.257,1238.9 
  "/>
<polyline clip-path="url(#clip623)" style="stroke:#009af9; stroke-width:4; stroke-opacity:1; fill:none" points="
  807.55,1638.44 807.55,1238.9 
  "/>
<polyline clip-path="url(#clip623)" style="stroke:#009af9; stroke-width:4; stroke-opacity:1; fill:none" points="
  846.229,1638.44 846.229,1238.9 
  "/>
<polyline clip-path="url(#clip623)" style="stroke:#009af9; stroke-width:4; stroke-opacity:1; fill:none" points="
  915.382,1638.44 915.382,1238.9 
  "/>
<polyline clip-path="url(#clip623)" style="stroke:#009af9; stroke-width:4; stroke-opacity:1; fill:none" points="
  995.083,1638.44 995.083,1238.9 
  "/>
<polyline clip-path="url(#clip623)" style="stroke:#009af9; stroke-width:4; stroke-opacity:1; fill:none" points="
  1051.34,1638.44 1051.34,1238.9 
  "/>
<polyline clip-path="url(#clip623)" style="stroke:#009af9; stroke-width:4; stroke-opacity:1; fill:none" points="
  1080.65,1638.44 1080.65,1238.9 
  "/>
<polyline clip-path="url(#clip623)" style="stroke:#009af9; stroke-width:4; stroke-opacity:1; fill:none" points="
  1109.95,1638.44 1109.95,1238.9 
  "/>
<polyline clip-path="url(#clip623)" style="stroke:#009af9; stroke-width:4; stroke-opacity:1; fill:none" points="
  1138.08,1638.44 1138.08,1238.9 
  "/>
<polyline clip-path="url(#clip623)" style="stroke:#009af9; stroke-width:4; stroke-opacity:1; fill:none" points="
  1165.04,1638.44 1165.04,1238.9 
  "/>
<polyline clip-path="url(#clip623)" style="stroke:#009af9; stroke-width:4; stroke-opacity:1; fill:none" points="
  1204.89,1638.44 1204.89,1238.9 
  "/>
<polyline clip-path="url(#clip623)" style="stroke:#009af9; stroke-width:4; stroke-opacity:1; fill:none" points="
  1247.08,1638.44 1247.08,1238.9 
  "/>
<polyline clip-path="url(#clip623)" style="stroke:#009af9; stroke-width:4; stroke-opacity:1; fill:none" points="
  1311.55,1638.44 1311.55,1238.9 
  "/>
<polyline clip-path="url(#clip623)" style="stroke:#009af9; stroke-width:4; stroke-opacity:1; fill:none" points="
  1407.66,1638.44 1407.66,1238.9 
  "/>
<polyline clip-path="url(#clip623)" style="stroke:#009af9; stroke-width:4; stroke-opacity:1; fill:none" points="
  1489.7,1638.44 1489.7,1238.9 
  "/>
<polyline clip-path="url(#clip623)" style="stroke:#009af9; stroke-width:4; stroke-opacity:1; fill:none" points="
  1778.05,1638.44 1778.05,1238.9 
  "/>
<polyline clip-path="url(#clip623)" style="stroke:#009af9; stroke-width:4; stroke-opacity:1; fill:none" points="
  1922.21,1638.44 1922.21,1238.9 
  "/>
<polyline clip-path="url(#clip623)" style="stroke:#009af9; stroke-width:4; stroke-opacity:1; fill:none" points="
  2034.73,1638.44 2034.73,1238.9 
  "/>
<polyline clip-path="url(#clip623)" style="stroke:#009af9; stroke-width:4; stroke-opacity:1; fill:none" points="
  2083.96,1638.44 2083.96,1238.9 
  "/>
<polyline clip-path="url(#clip623)" style="stroke:#009af9; stroke-width:4; stroke-opacity:1; fill:none" points="
  2128.5,1638.44 2128.5,1238.9 
  "/>
<polyline clip-path="url(#clip623)" style="stroke:#009af9; stroke-width:4; stroke-opacity:1; fill:none" points="
  2171.87,1638.44 2171.87,1238.9 
  "/>
<polyline clip-path="url(#clip623)" style="stroke:#009af9; stroke-width:4; stroke-opacity:1; fill:none" points="
  2203.51,1638.44 2203.51,1238.9 
  "/>
<polyline clip-path="url(#clip623)" style="stroke:#009af9; stroke-width:4; stroke-opacity:1; fill:none" points="
  2231.64,1638.44 2231.64,1238.9 
  "/>
<polyline clip-path="url(#clip623)" style="stroke:#009af9; stroke-width:4; stroke-opacity:1; fill:none" points="
  2260.95,1638.44 2260.95,1238.9 
  "/>
<polyline clip-path="url(#clip623)" style="stroke:#009af9; stroke-width:4; stroke-opacity:1; fill:none" points="
  2289.08,1638.44 2289.08,1238.9 
  "/>
</svg>
