<?xml version="1.0" encoding="utf-8"?>
<svg xmlns="http://www.w3.org/2000/svg" xmlns:xlink="http://www.w3.org/1999/xlink" width="600" height="400" viewBox="0 0 2400 1600">
<defs>
  <clipPath id="clip110">
    <rect x="0" y="0" width="2400" height="1600"/>
  </clipPath>
</defs>
<path clip-path="url(#clip110)" d="
M0 1600 L2400 1600 L2400 0 L0 0  Z
  " fill="#ffffff" fill-rule="evenodd" fill-opacity="1"/>
<defs>
  <clipPath id="clip111">
    <rect x="480" y="0" width="1681" height="1600"/>
  </clipPath>
</defs>
<path clip-path="url(#clip110)" d="
M205.121 1140.87 L2352.76 1140.87 L2352.76 47.2441 L205.121 47.2441  Z
  " fill="#ffffff" fill-rule="evenodd" fill-opacity="1"/>
<defs>
  <clipPath id="clip112">
    <rect x="205" y="47" width="2149" height="1095"/>
  </clipPath>
</defs>
<polyline clip-path="url(#clip112)" style="stroke:#000000; stroke-width:2; stroke-opacity:0.1; fill:none" points="
  265.903,1140.87 265.903,47.2441 
  "/>
<polyline clip-path="url(#clip112)" style="stroke:#000000; stroke-width:2; stroke-opacity:0.1; fill:none" points="
  886.632,1140.87 886.632,47.2441 
  "/>
<polyline clip-path="url(#clip112)" style="stroke:#000000; stroke-width:2; stroke-opacity:0.1; fill:none" points="
  1507.36,1140.87 1507.36,47.2441 
  "/>
<polyline clip-path="url(#clip112)" style="stroke:#000000; stroke-width:2; stroke-opacity:0.1; fill:none" points="
  2128.09,1140.87 2128.09,47.2441 
  "/>
<polyline clip-path="url(#clip110)" style="stroke:#000000; stroke-width:4; stroke-opacity:1; fill:none" points="
  205.121,1140.87 2352.76,1140.87 
  "/>
<polyline clip-path="url(#clip110)" style="stroke:#000000; stroke-width:4; stroke-opacity:1; fill:none" points="
  265.903,1140.87 265.903,1127.75 
  "/>
<polyline clip-path="url(#clip110)" style="stroke:#000000; stroke-width:4; stroke-opacity:1; fill:none" points="
  886.632,1140.87 886.632,1127.75 
  "/>
<polyline clip-path="url(#clip110)" style="stroke:#000000; stroke-width:4; stroke-opacity:1; fill:none" points="
  1507.36,1140.87 1507.36,1127.75 
  "/>
<polyline clip-path="url(#clip110)" style="stroke:#000000; stroke-width:4; stroke-opacity:1; fill:none" points="
  2128.09,1140.87 2128.09,1127.75 
  "/>
<path clip-path="url(#clip110)" d="M 0 0 M182.964 1170.06 Q179.353 1170.06 177.524 1173.63 Q175.718 1177.17 175.718 1184.3 Q175.718 1191.4 177.524 1194.97 Q179.353 1198.51 182.964 1198.51 Q186.598 1198.51 188.404 1194.97 Q190.232 1191.4 190.232 1184.3 Q190.232 1177.17 188.404 1173.63 Q186.598 1170.06 182.964 1170.06 M182.964 1166.36 Q188.774 1166.36 191.829 1170.96 Q194.908 1175.55 194.908 1184.3 Q194.908 1193.02 191.829 1197.63 Q188.774 1202.21 182.964 1202.21 Q177.154 1202.21 174.075 1197.63 Q171.019 1193.02 171.019 1184.3 Q171.019 1175.55 174.075 1170.96 Q177.154 1166.36 182.964 1166.36 Z" fill="#000000" fill-rule="evenodd" fill-opacity="1" /><path clip-path="url(#clip110)" d="M 0 0 M203.126 1195.66 L208.01 1195.66 L208.01 1201.54 L203.126 1201.54 L203.126 1195.66 Z" fill="#000000" fill-rule="evenodd" fill-opacity="1" /><path clip-path="url(#clip110)" d="M 0 0 M228.195 1170.06 Q224.584 1170.06 222.755 1173.63 Q220.95 1177.17 220.95 1184.3 Q220.95 1191.4 222.755 1194.97 Q224.584 1198.51 228.195 1198.51 Q231.829 1198.51 233.635 1194.97 Q235.463 1191.4 235.463 1184.3 Q235.463 1177.17 233.635 1173.63 Q231.829 1170.06 228.195 1170.06 M228.195 1166.36 Q234.005 1166.36 237.061 1170.96 Q240.139 1175.55 240.139 1184.3 Q240.139 1193.02 237.061 1197.63 Q234.005 1202.21 228.195 1202.21 Q222.385 1202.21 219.306 1197.63 Q216.251 1193.02 216.251 1184.3 Q216.251 1175.55 219.306 1170.96 Q222.385 1166.36 228.195 1166.36 Z" fill="#000000" fill-rule="evenodd" fill-opacity="1" /><path clip-path="url(#clip110)" d="M 0 0 M258.357 1170.06 Q254.746 1170.06 252.917 1173.63 Q251.112 1177.17 251.112 1184.3 Q251.112 1191.4 252.917 1194.97 Q254.746 1198.51 258.357 1198.51 Q261.991 1198.51 263.797 1194.97 Q265.625 1191.4 265.625 1184.3 Q265.625 1177.17 263.797 1173.63 Q261.991 1170.06 258.357 1170.06 M258.357 1166.36 Q264.167 1166.36 267.223 1170.96 Q270.301 1175.55 270.301 1184.3 Q270.301 1193.02 267.223 1197.63 Q264.167 1202.21 258.357 1202.21 Q252.547 1202.21 249.468 1197.63 Q246.412 1193.02 246.412 1184.3 Q246.412 1175.55 249.468 1170.96 Q252.547 1166.36 258.357 1166.36 Z" fill="#000000" fill-rule="evenodd" fill-opacity="1" /><path clip-path="url(#clip110)" d="M 0 0 M288.519 1170.06 Q284.908 1170.06 283.079 1173.63 Q281.273 1177.17 281.273 1184.3 Q281.273 1191.4 283.079 1194.97 Q284.908 1198.51 288.519 1198.51 Q292.153 1198.51 293.959 1194.97 Q295.787 1191.4 295.787 1184.3 Q295.787 1177.17 293.959 1173.63 Q292.153 1170.06 288.519 1170.06 M288.519 1166.36 Q294.329 1166.36 297.384 1170.96 Q300.463 1175.55 300.463 1184.3 Q300.463 1193.02 297.384 1197.63 Q294.329 1202.21 288.519 1202.21 Q282.709 1202.21 279.63 1197.63 Q276.574 1193.02 276.574 1184.3 Q276.574 1175.55 279.63 1170.96 Q282.709 1166.36 288.519 1166.36 Z" fill="#000000" fill-rule="evenodd" fill-opacity="1" /><path clip-path="url(#clip110)" d="M 0 0 M318.681 1170.06 Q315.069 1170.06 313.241 1173.63 Q311.435 1177.17 311.435 1184.3 Q311.435 1191.4 313.241 1194.97 Q315.069 1198.51 318.681 1198.51 Q322.315 1198.51 324.12 1194.97 Q325.949 1191.4 325.949 1184.3 Q325.949 1177.17 324.12 1173.63 Q322.315 1170.06 318.681 1170.06 M318.681 1166.36 Q324.491 1166.36 327.546 1170.96 Q330.625 1175.55 330.625 1184.3 Q330.625 1193.02 327.546 1197.63 Q324.491 1202.21 318.681 1202.21 Q312.87 1202.21 309.792 1197.63 Q306.736 1193.02 306.736 1184.3 Q306.736 1175.55 309.792 1170.96 Q312.87 1166.36 318.681 1166.36 Z" fill="#000000" fill-rule="evenodd" fill-opacity="1" /><path clip-path="url(#clip110)" d="M 0 0 M348.842 1170.06 Q345.231 1170.06 343.403 1173.63 Q341.597 1177.17 341.597 1184.3 Q341.597 1191.4 343.403 1194.97 Q345.231 1198.51 348.842 1198.51 Q352.477 1198.51 354.282 1194.97 Q356.111 1191.4 356.111 1184.3 Q356.111 1177.17 354.282 1173.63 Q352.477 1170.06 348.842 1170.06 M348.842 1166.36 Q354.653 1166.36 357.708 1170.96 Q360.787 1175.55 360.787 1184.3 Q360.787 1193.02 357.708 1197.63 Q354.653 1202.21 348.842 1202.21 Q343.032 1202.21 339.954 1197.63 Q336.898 1193.02 336.898 1184.3 Q336.898 1175.55 339.954 1170.96 Q343.032 1166.36 348.842 1166.36 Z" fill="#000000" fill-rule="evenodd" fill-opacity="1" /><path clip-path="url(#clip110)" d="M 0 0 M804.19 1170.06 Q800.579 1170.06 798.75 1173.63 Q796.945 1177.17 796.945 1184.3 Q796.945 1191.4 798.75 1194.97 Q800.579 1198.51 804.19 1198.51 Q807.824 1198.51 809.63 1194.97 Q811.459 1191.4 811.459 1184.3 Q811.459 1177.17 809.63 1173.63 Q807.824 1170.06 804.19 1170.06 M804.19 1166.36 Q810 1166.36 813.056 1170.96 Q816.134 1175.55 816.134 1184.3 Q816.134 1193.02 813.056 1197.63 Q810 1202.21 804.19 1202.21 Q798.38 1202.21 795.301 1197.63 Q792.246 1193.02 792.246 1184.3 Q792.246 1175.55 795.301 1170.96 Q798.38 1166.36 804.19 1166.36 Z" fill="#000000" fill-rule="evenodd" fill-opacity="1" /><path clip-path="url(#clip110)" d="M 0 0 M824.352 1195.66 L829.236 1195.66 L829.236 1201.54 L824.352 1201.54 L824.352 1195.66 Z" fill="#000000" fill-rule="evenodd" fill-opacity="1" /><path clip-path="url(#clip110)" d="M 0 0 M849.421 1170.06 Q845.81 1170.06 843.981 1173.63 Q842.176 1177.17 842.176 1184.3 Q842.176 1191.4 843.981 1194.97 Q845.81 1198.51 849.421 1198.51 Q853.056 1198.51 854.861 1194.97 Q856.69 1191.4 856.69 1184.3 Q856.69 1177.17 854.861 1173.63 Q853.056 1170.06 849.421 1170.06 M849.421 1166.36 Q855.231 1166.36 858.287 1170.96 Q861.366 1175.55 861.366 1184.3 Q861.366 1193.02 858.287 1197.63 Q855.231 1202.21 849.421 1202.21 Q843.611 1202.21 840.532 1197.63 Q837.477 1193.02 837.477 1184.3 Q837.477 1175.55 840.532 1170.96 Q843.611 1166.36 849.421 1166.36 Z" fill="#000000" fill-rule="evenodd" fill-opacity="1" /><path clip-path="url(#clip110)" d="M 0 0 M879.583 1170.06 Q875.972 1170.06 874.143 1173.63 Q872.338 1177.17 872.338 1184.3 Q872.338 1191.4 874.143 1194.97 Q875.972 1198.51 879.583 1198.51 Q883.217 1198.51 885.023 1194.97 Q886.852 1191.4 886.852 1184.3 Q886.852 1177.17 885.023 1173.63 Q883.217 1170.06 879.583 1170.06 M879.583 1166.36 Q885.393 1166.36 888.449 1170.96 Q891.528 1175.55 891.528 1184.3 Q891.528 1193.02 888.449 1197.63 Q885.393 1202.21 879.583 1202.21 Q873.773 1202.21 870.694 1197.63 Q867.639 1193.02 867.639 1184.3 Q867.639 1175.55 870.694 1170.96 Q873.773 1166.36 879.583 1166.36 Z" fill="#000000" fill-rule="evenodd" fill-opacity="1" /><path clip-path="url(#clip110)" d="M 0 0 M909.745 1170.06 Q906.134 1170.06 904.305 1173.63 Q902.5 1177.17 902.5 1184.3 Q902.5 1191.4 904.305 1194.97 Q906.134 1198.51 909.745 1198.51 Q913.379 1198.51 915.185 1194.97 Q917.014 1191.4 917.014 1184.3 Q917.014 1177.17 915.185 1173.63 Q913.379 1170.06 909.745 1170.06 M909.745 1166.36 Q915.555 1166.36 918.611 1170.96 Q921.689 1175.55 921.689 1184.3 Q921.689 1193.02 918.611 1197.63 Q915.555 1202.21 909.745 1202.21 Q903.935 1202.21 900.856 1197.63 Q897.801 1193.02 897.801 1184.3 Q897.801 1175.55 900.856 1170.96 Q903.935 1166.36 909.745 1166.36 Z" fill="#000000" fill-rule="evenodd" fill-opacity="1" /><path clip-path="url(#clip110)" d="M 0 0 M939.907 1170.06 Q936.296 1170.06 934.467 1173.63 Q932.662 1177.17 932.662 1184.3 Q932.662 1191.4 934.467 1194.97 Q936.296 1198.51 939.907 1198.51 Q943.541 1198.51 945.347 1194.97 Q947.175 1191.4 947.175 1184.3 Q947.175 1177.17 945.347 1173.63 Q943.541 1170.06 939.907 1170.06 M939.907 1166.36 Q945.717 1166.36 948.773 1170.96 Q951.851 1175.55 951.851 1184.3 Q951.851 1193.02 948.773 1197.63 Q945.717 1202.21 939.907 1202.21 Q934.097 1202.21 931.018 1197.63 Q927.963 1193.02 927.963 1184.3 Q927.963 1175.55 931.018 1170.96 Q934.097 1166.36 939.907 1166.36 Z" fill="#000000" fill-rule="evenodd" fill-opacity="1" /><path clip-path="url(#clip110)" d="M 0 0 M960.115 1166.98 L978.472 1166.98 L978.472 1170.92 L964.398 1170.92 L964.398 1179.39 Q965.416 1179.04 966.435 1178.88 Q967.453 1178.69 968.472 1178.69 Q974.259 1178.69 977.638 1181.87 Q981.018 1185.04 981.018 1190.45 Q981.018 1196.03 977.546 1199.13 Q974.073 1202.21 967.754 1202.21 Q965.578 1202.21 963.31 1201.84 Q961.064 1201.47 958.657 1200.73 L958.657 1196.03 Q960.74 1197.17 962.962 1197.72 Q965.185 1198.28 967.661 1198.28 Q971.666 1198.28 974.004 1196.17 Q976.342 1194.06 976.342 1190.45 Q976.342 1186.84 974.004 1184.74 Q971.666 1182.63 967.661 1182.63 Q965.786 1182.63 963.911 1183.05 Q962.06 1183.46 960.115 1184.34 L960.115 1166.98 Z" fill="#000000" fill-rule="evenodd" fill-opacity="1" /><path clip-path="url(#clip110)" d="M 0 0 M1424.42 1170.06 Q1420.81 1170.06 1418.98 1173.63 Q1417.18 1177.17 1417.18 1184.3 Q1417.18 1191.4 1418.98 1194.97 Q1420.81 1198.51 1424.42 1198.51 Q1428.06 1198.51 1429.86 1194.97 Q1431.69 1191.4 1431.69 1184.3 Q1431.69 1177.17 1429.86 1173.63 Q1428.06 1170.06 1424.42 1170.06 M1424.42 1166.36 Q1430.23 1166.36 1433.29 1170.96 Q1436.37 1175.55 1436.37 1184.3 Q1436.37 1193.02 1433.29 1197.63 Q1430.23 1202.21 1424.42 1202.21 Q1418.61 1202.21 1415.53 1197.63 Q1412.48 1193.02 1412.48 1184.3 Q1412.48 1175.55 1415.53 1170.96 Q1418.61 1166.36 1424.42 1166.36 Z" fill="#000000" fill-rule="evenodd" fill-opacity="1" /><path clip-path="url(#clip110)" d="M 0 0 M1444.58 1195.66 L1449.47 1195.66 L1449.47 1201.54 L1444.58 1201.54 L1444.58 1195.66 Z" fill="#000000" fill-rule="evenodd" fill-opacity="1" /><path clip-path="url(#clip110)" d="M 0 0 M1469.65 1170.06 Q1466.04 1170.06 1464.21 1173.63 Q1462.41 1177.17 1462.41 1184.3 Q1462.41 1191.4 1464.21 1194.97 Q1466.04 1198.51 1469.65 1198.51 Q1473.29 1198.51 1475.09 1194.97 Q1476.92 1191.4 1476.92 1184.3 Q1476.92 1177.17 1475.09 1173.63 Q1473.29 1170.06 1469.65 1170.06 M1469.65 1166.36 Q1475.46 1166.36 1478.52 1170.96 Q1481.6 1175.55 1481.6 1184.3 Q1481.6 1193.02 1478.52 1197.63 Q1475.46 1202.21 1469.65 1202.21 Q1463.84 1202.21 1460.76 1197.63 Q1457.71 1193.02 1457.71 1184.3 Q1457.71 1175.55 1460.76 1170.96 Q1463.84 1166.36 1469.65 1166.36 Z" fill="#000000" fill-rule="evenodd" fill-opacity="1" /><path clip-path="url(#clip110)" d="M 0 0 M1499.81 1170.06 Q1496.2 1170.06 1494.37 1173.63 Q1492.57 1177.17 1492.57 1184.3 Q1492.57 1191.4 1494.37 1194.97 Q1496.2 1198.51 1499.81 1198.51 Q1503.45 1198.51 1505.25 1194.97 Q1507.08 1191.4 1507.08 1184.3 Q1507.08 1177.17 1505.25 1173.63 Q1503.45 1170.06 1499.81 1170.06 M1499.81 1166.36 Q1505.62 1166.36 1508.68 1170.96 Q1511.76 1175.55 1511.76 1184.3 Q1511.76 1193.02 1508.68 1197.63 Q1505.62 1202.21 1499.81 1202.21 Q1494 1202.21 1490.93 1197.63 Q1487.87 1193.02 1487.87 1184.3 Q1487.87 1175.55 1490.93 1170.96 Q1494 1166.36 1499.81 1166.36 Z" fill="#000000" fill-rule="evenodd" fill-opacity="1" /><path clip-path="url(#clip110)" d="M 0 0 M1529.98 1170.06 Q1526.36 1170.06 1524.54 1173.63 Q1522.73 1177.17 1522.73 1184.3 Q1522.73 1191.4 1524.54 1194.97 Q1526.36 1198.51 1529.98 1198.51 Q1533.61 1198.51 1535.42 1194.97 Q1537.24 1191.4 1537.24 1184.3 Q1537.24 1177.17 1535.42 1173.63 Q1533.61 1170.06 1529.98 1170.06 M1529.98 1166.36 Q1535.79 1166.36 1538.84 1170.96 Q1541.92 1175.55 1541.92 1184.3 Q1541.92 1193.02 1538.84 1197.63 Q1535.79 1202.21 1529.98 1202.21 Q1524.17 1202.21 1521.09 1197.63 Q1518.03 1193.02 1518.03 1184.3 Q1518.03 1175.55 1521.09 1170.96 Q1524.17 1166.36 1529.98 1166.36 Z" fill="#000000" fill-rule="evenodd" fill-opacity="1" /><path clip-path="url(#clip110)" d="M 0 0 M1550.95 1197.61 L1558.59 1197.61 L1558.59 1171.24 L1550.28 1172.91 L1550.28 1168.65 L1558.54 1166.98 L1563.22 1166.98 L1563.22 1197.61 L1570.86 1197.61 L1570.86 1201.54 L1550.95 1201.54 L1550.95 1197.61 Z" fill="#000000" fill-rule="evenodd" fill-opacity="1" /><path clip-path="url(#clip110)" d="M 0 0 M1590.3 1170.06 Q1586.69 1170.06 1584.86 1173.63 Q1583.05 1177.17 1583.05 1184.3 Q1583.05 1191.4 1584.86 1194.97 Q1586.69 1198.51 1590.3 1198.51 Q1593.93 1198.51 1595.74 1194.97 Q1597.57 1191.4 1597.57 1184.3 Q1597.57 1177.17 1595.74 1173.63 Q1593.93 1170.06 1590.3 1170.06 M1590.3 1166.36 Q1596.11 1166.36 1599.17 1170.96 Q1602.24 1175.55 1602.24 1184.3 Q1602.24 1193.02 1599.17 1197.63 Q1596.11 1202.21 1590.3 1202.21 Q1584.49 1202.21 1581.41 1197.63 Q1578.36 1193.02 1578.36 1184.3 Q1578.36 1175.55 1581.41 1170.96 Q1584.49 1166.36 1590.3 1166.36 Z" fill="#000000" fill-rule="evenodd" fill-opacity="1" /><path clip-path="url(#clip110)" d="M 0 0 M2045.65 1170.06 Q2042.04 1170.06 2040.21 1173.63 Q2038.4 1177.17 2038.4 1184.3 Q2038.4 1191.4 2040.21 1194.97 Q2042.04 1198.51 2045.65 1198.51 Q2049.28 1198.51 2051.09 1194.97 Q2052.92 1191.4 2052.92 1184.3 Q2052.92 1177.17 2051.09 1173.63 Q2049.28 1170.06 2045.65 1170.06 M2045.65 1166.36 Q2051.46 1166.36 2054.51 1170.96 Q2057.59 1175.55 2057.59 1184.3 Q2057.59 1193.02 2054.51 1197.63 Q2051.46 1202.21 2045.65 1202.21 Q2039.84 1202.21 2036.76 1197.63 Q2033.7 1193.02 2033.7 1184.3 Q2033.7 1175.55 2036.76 1170.96 Q2039.84 1166.36 2045.65 1166.36 Z" fill="#000000" fill-rule="evenodd" fill-opacity="1" /><path clip-path="url(#clip110)" d="M 0 0 M2065.81 1195.66 L2070.69 1195.66 L2070.69 1201.54 L2065.81 1201.54 L2065.81 1195.66 Z" fill="#000000" fill-rule="evenodd" fill-opacity="1" /><path clip-path="url(#clip110)" d="M 0 0 M2090.88 1170.06 Q2087.27 1170.06 2085.44 1173.63 Q2083.63 1177.17 2083.63 1184.3 Q2083.63 1191.4 2085.44 1194.97 Q2087.27 1198.51 2090.88 1198.51 Q2094.51 1198.51 2096.32 1194.97 Q2098.15 1191.4 2098.15 1184.3 Q2098.15 1177.17 2096.32 1173.63 Q2094.51 1170.06 2090.88 1170.06 M2090.88 1166.36 Q2096.69 1166.36 2099.74 1170.96 Q2102.82 1175.55 2102.82 1184.3 Q2102.82 1193.02 2099.74 1197.63 Q2096.69 1202.21 2090.88 1202.21 Q2085.07 1202.21 2081.99 1197.63 Q2078.93 1193.02 2078.93 1184.3 Q2078.93 1175.55 2081.99 1170.96 Q2085.07 1166.36 2090.88 1166.36 Z" fill="#000000" fill-rule="evenodd" fill-opacity="1" /><path clip-path="url(#clip110)" d="M 0 0 M2121.04 1170.06 Q2117.43 1170.06 2115.6 1173.63 Q2113.8 1177.17 2113.8 1184.3 Q2113.8 1191.4 2115.6 1194.97 Q2117.43 1198.51 2121.04 1198.51 Q2124.67 1198.51 2126.48 1194.97 Q2128.31 1191.4 2128.31 1184.3 Q2128.31 1177.17 2126.48 1173.63 Q2124.67 1170.06 2121.04 1170.06 M2121.04 1166.36 Q2126.85 1166.36 2129.91 1170.96 Q2132.98 1175.55 2132.98 1184.3 Q2132.98 1193.02 2129.91 1197.63 Q2126.85 1202.21 2121.04 1202.21 Q2115.23 1202.21 2112.15 1197.63 Q2109.1 1193.02 2109.1 1184.3 Q2109.1 1175.55 2112.15 1170.96 Q2115.23 1166.36 2121.04 1166.36 Z" fill="#000000" fill-rule="evenodd" fill-opacity="1" /><path clip-path="url(#clip110)" d="M 0 0 M2151.2 1170.06 Q2147.59 1170.06 2145.76 1173.63 Q2143.96 1177.17 2143.96 1184.3 Q2143.96 1191.4 2145.76 1194.97 Q2147.59 1198.51 2151.2 1198.51 Q2154.84 1198.51 2156.64 1194.97 Q2158.47 1191.4 2158.47 1184.3 Q2158.47 1177.17 2156.64 1173.63 Q2154.84 1170.06 2151.2 1170.06 M2151.2 1166.36 Q2157.01 1166.36 2160.07 1170.96 Q2163.15 1175.55 2163.15 1184.3 Q2163.15 1193.02 2160.07 1197.63 Q2157.01 1202.21 2151.2 1202.21 Q2145.39 1202.21 2142.31 1197.63 Q2139.26 1193.02 2139.26 1184.3 Q2139.26 1175.55 2142.31 1170.96 Q2145.39 1166.36 2151.2 1166.36 Z" fill="#000000" fill-rule="evenodd" fill-opacity="1" /><path clip-path="url(#clip110)" d="M 0 0 M2172.17 1197.61 L2179.81 1197.61 L2179.81 1171.24 L2171.5 1172.91 L2171.5 1168.65 L2179.77 1166.98 L2184.44 1166.98 L2184.44 1197.61 L2192.08 1197.61 L2192.08 1201.54 L2172.17 1201.54 L2172.17 1197.61 Z" fill="#000000" fill-rule="evenodd" fill-opacity="1" /><path clip-path="url(#clip110)" d="M 0 0 M2201.57 1166.98 L2219.93 1166.98 L2219.93 1170.92 L2205.85 1170.92 L2205.85 1179.39 Q2206.87 1179.04 2207.89 1178.88 Q2208.91 1178.69 2209.93 1178.69 Q2215.72 1178.69 2219.1 1181.87 Q2222.48 1185.04 2222.48 1190.45 Q2222.48 1196.03 2219 1199.13 Q2215.53 1202.21 2209.21 1202.21 Q2207.04 1202.21 2204.77 1201.84 Q2202.52 1201.47 2200.11 1200.73 L2200.11 1196.03 Q2202.2 1197.17 2204.42 1197.72 Q2206.64 1198.28 2209.12 1198.28 Q2213.12 1198.28 2215.46 1196.17 Q2217.8 1194.06 2217.8 1190.45 Q2217.8 1186.84 2215.46 1184.74 Q2213.12 1182.63 2209.12 1182.63 Q2207.24 1182.63 2205.37 1183.05 Q2203.52 1183.46 2201.57 1184.34 L2201.57 1166.98 Z" fill="#000000" fill-rule="evenodd" fill-opacity="1" /><polyline clip-path="url(#clip112)" style="stroke:#000000; stroke-width:2; stroke-opacity:0.1; fill:none" points="
  205.121,1109.92 2352.76,1109.92 
  "/>
<polyline clip-path="url(#clip112)" style="stroke:#000000; stroke-width:2; stroke-opacity:0.1; fill:none" points="
  205.121,937.964 2352.76,937.964 
  "/>
<polyline clip-path="url(#clip112)" style="stroke:#000000; stroke-width:2; stroke-opacity:0.1; fill:none" points="
  205.121,766.011 2352.76,766.011 
  "/>
<polyline clip-path="url(#clip112)" style="stroke:#000000; stroke-width:2; stroke-opacity:0.1; fill:none" points="
  205.121,594.057 2352.76,594.057 
  "/>
<polyline clip-path="url(#clip112)" style="stroke:#000000; stroke-width:2; stroke-opacity:0.1; fill:none" points="
  205.121,422.103 2352.76,422.103 
  "/>
<polyline clip-path="url(#clip112)" style="stroke:#000000; stroke-width:2; stroke-opacity:0.1; fill:none" points="
  205.121,250.149 2352.76,250.149 
  "/>
<polyline clip-path="url(#clip112)" style="stroke:#000000; stroke-width:2; stroke-opacity:0.1; fill:none" points="
  205.121,78.1958 2352.76,78.1958 
  "/>
<polyline clip-path="url(#clip110)" style="stroke:#000000; stroke-width:4; stroke-opacity:1; fill:none" points="
  205.121,1140.87 205.121,47.2441 
  "/>
<polyline clip-path="url(#clip110)" style="stroke:#000000; stroke-width:4; stroke-opacity:1; fill:none" points="
  205.121,1109.92 230.893,1109.92 
  "/>
<polyline clip-path="url(#clip110)" style="stroke:#000000; stroke-width:4; stroke-opacity:1; fill:none" points="
  205.121,937.964 230.893,937.964 
  "/>
<polyline clip-path="url(#clip110)" style="stroke:#000000; stroke-width:4; stroke-opacity:1; fill:none" points="
  205.121,766.011 230.893,766.011 
  "/>
<polyline clip-path="url(#clip110)" style="stroke:#000000; stroke-width:4; stroke-opacity:1; fill:none" points="
  205.121,594.057 230.893,594.057 
  "/>
<polyline clip-path="url(#clip110)" style="stroke:#000000; stroke-width:4; stroke-opacity:1; fill:none" points="
  205.121,422.103 230.893,422.103 
  "/>
<polyline clip-path="url(#clip110)" style="stroke:#000000; stroke-width:4; stroke-opacity:1; fill:none" points="
  205.121,250.149 230.893,250.149 
  "/>
<polyline clip-path="url(#clip110)" style="stroke:#000000; stroke-width:4; stroke-opacity:1; fill:none" points="
  205.121,78.1958 230.893,78.1958 
  "/>
<path clip-path="url(#clip110)" d="M 0 0 M157.177 1095.72 Q153.566 1095.72 151.737 1099.28 Q149.931 1102.82 149.931 1109.95 Q149.931 1117.06 151.737 1120.62 Q153.566 1124.17 157.177 1124.17 Q160.811 1124.17 162.616 1120.62 Q164.445 1117.06 164.445 1109.95 Q164.445 1102.82 162.616 1099.28 Q160.811 1095.72 157.177 1095.72 M157.177 1092.01 Q162.987 1092.01 166.042 1096.62 Q169.121 1101.2 169.121 1109.95 Q169.121 1118.68 166.042 1123.29 Q162.987 1127.87 157.177 1127.87 Q151.366 1127.87 148.288 1123.29 Q145.232 1118.68 145.232 1109.95 Q145.232 1101.2 148.288 1096.62 Q151.366 1092.01 157.177 1092.01 Z" fill="#000000" fill-rule="evenodd" fill-opacity="1" /><path clip-path="url(#clip110)" d="M 0 0 M117.825 951.309 L125.464 951.309 L125.464 924.944 L117.154 926.61 L117.154 922.351 L125.418 920.684 L130.093 920.684 L130.093 951.309 L137.732 951.309 L137.732 955.244 L117.825 955.244 L117.825 951.309 Z" fill="#000000" fill-rule="evenodd" fill-opacity="1" /><path clip-path="url(#clip110)" d="M 0 0 M157.177 923.763 Q153.566 923.763 151.737 927.328 Q149.931 930.869 149.931 937.999 Q149.931 945.105 151.737 948.67 Q153.566 952.212 157.177 952.212 Q160.811 952.212 162.616 948.67 Q164.445 945.105 164.445 937.999 Q164.445 930.869 162.616 927.328 Q160.811 923.763 157.177 923.763 M157.177 920.059 Q162.987 920.059 166.042 924.666 Q169.121 929.249 169.121 937.999 Q169.121 946.726 166.042 951.332 Q162.987 955.916 157.177 955.916 Q151.366 955.916 148.288 951.332 Q145.232 946.726 145.232 937.999 Q145.232 929.249 148.288 924.666 Q151.366 920.059 157.177 920.059 Z" fill="#000000" fill-rule="evenodd" fill-opacity="1" /><path clip-path="url(#clip110)" d="M 0 0 M121.043 779.355 L137.362 779.355 L137.362 783.291 L115.418 783.291 L115.418 779.355 Q118.08 776.601 122.663 771.971 Q127.269 767.318 128.45 765.976 Q130.695 763.453 131.575 761.717 Q132.478 759.957 132.478 758.268 Q132.478 755.513 130.533 753.777 Q128.612 752.041 125.51 752.041 Q123.311 752.041 120.857 752.805 Q118.427 753.569 115.649 755.119 L115.649 750.397 Q118.473 749.263 120.927 748.684 Q123.38 748.106 125.418 748.106 Q130.788 748.106 133.982 750.791 Q137.177 753.476 137.177 757.967 Q137.177 760.096 136.367 762.018 Q135.579 763.916 133.473 766.508 Q132.894 767.18 129.792 770.397 Q126.691 773.592 121.043 779.355 Z" fill="#000000" fill-rule="evenodd" fill-opacity="1" /><path clip-path="url(#clip110)" d="M 0 0 M157.177 751.809 Q153.566 751.809 151.737 755.374 Q149.931 758.916 149.931 766.045 Q149.931 773.152 151.737 776.717 Q153.566 780.258 157.177 780.258 Q160.811 780.258 162.616 776.717 Q164.445 773.152 164.445 766.045 Q164.445 758.916 162.616 755.374 Q160.811 751.809 157.177 751.809 M157.177 748.106 Q162.987 748.106 166.042 752.712 Q169.121 757.295 169.121 766.045 Q169.121 774.772 166.042 779.379 Q162.987 783.962 157.177 783.962 Q151.366 783.962 148.288 779.379 Q145.232 774.772 145.232 766.045 Q145.232 757.295 148.288 752.712 Q151.366 748.106 157.177 748.106 Z" fill="#000000" fill-rule="evenodd" fill-opacity="1" /><path clip-path="url(#clip110)" d="M 0 0 M131.181 592.703 Q134.538 593.42 136.413 595.689 Q138.311 597.957 138.311 601.291 Q138.311 606.406 134.792 609.207 Q131.274 612.008 124.793 612.008 Q122.617 612.008 120.302 611.568 Q118.01 611.152 115.556 610.295 L115.556 605.781 Q117.501 606.916 119.816 607.494 Q122.13 608.073 124.654 608.073 Q129.052 608.073 131.343 606.337 Q133.658 604.601 133.658 601.291 Q133.658 598.235 131.505 596.522 Q129.376 594.786 125.556 594.786 L121.529 594.786 L121.529 590.943 L125.742 590.943 Q129.191 590.943 131.019 589.578 Q132.848 588.189 132.848 585.596 Q132.848 582.934 130.95 581.522 Q129.075 580.087 125.556 580.087 Q123.635 580.087 121.436 580.504 Q119.237 580.92 116.598 581.8 L116.598 577.633 Q119.26 576.893 121.575 576.522 Q123.913 576.152 125.973 576.152 Q131.297 576.152 134.399 578.582 Q137.501 580.99 137.501 585.11 Q137.501 587.981 135.857 589.971 Q134.214 591.939 131.181 592.703 Z" fill="#000000" fill-rule="evenodd" fill-opacity="1" /><path clip-path="url(#clip110)" d="M 0 0 M157.177 579.856 Q153.566 579.856 151.737 583.42 Q149.931 586.962 149.931 594.092 Q149.931 601.198 151.737 604.763 Q153.566 608.304 157.177 608.304 Q160.811 608.304 162.616 604.763 Q164.445 601.198 164.445 594.092 Q164.445 586.962 162.616 583.42 Q160.811 579.856 157.177 579.856 M157.177 576.152 Q162.987 576.152 166.042 580.758 Q169.121 585.342 169.121 594.092 Q169.121 602.818 166.042 607.425 Q162.987 612.008 157.177 612.008 Q151.366 612.008 148.288 607.425 Q145.232 602.818 145.232 594.092 Q145.232 585.342 148.288 580.758 Q151.366 576.152 157.177 576.152 Z" fill="#000000" fill-rule="evenodd" fill-opacity="1" /><path clip-path="url(#clip110)" d="M 0 0 M129.862 408.897 L118.056 427.346 L129.862 427.346 L129.862 408.897 M128.635 404.823 L134.515 404.823 L134.515 427.346 L139.445 427.346 L139.445 431.235 L134.515 431.235 L134.515 439.383 L129.862 439.383 L129.862 431.235 L114.26 431.235 L114.26 426.721 L128.635 404.823 Z" fill="#000000" fill-rule="evenodd" fill-opacity="1" /><path clip-path="url(#clip110)" d="M 0 0 M157.177 407.902 Q153.566 407.902 151.737 411.467 Q149.931 415.008 149.931 422.138 Q149.931 429.244 151.737 432.809 Q153.566 436.351 157.177 436.351 Q160.811 436.351 162.616 432.809 Q164.445 429.244 164.445 422.138 Q164.445 415.008 162.616 411.467 Q160.811 407.902 157.177 407.902 M157.177 404.198 Q162.987 404.198 166.042 408.805 Q169.121 413.388 169.121 422.138 Q169.121 430.865 166.042 435.471 Q162.987 440.054 157.177 440.054 Q151.366 440.054 148.288 435.471 Q145.232 430.865 145.232 422.138 Q145.232 413.388 148.288 408.805 Q151.366 404.198 157.177 404.198 Z" fill="#000000" fill-rule="evenodd" fill-opacity="1" /><path clip-path="url(#clip110)" d="M 0 0 M117.061 232.869 L135.417 232.869 L135.417 236.805 L121.343 236.805 L121.343 245.277 Q122.362 244.93 123.38 244.768 Q124.399 244.582 125.418 244.582 Q131.205 244.582 134.584 247.754 Q137.964 250.925 137.964 256.342 Q137.964 261.92 134.492 265.022 Q131.019 268.101 124.7 268.101 Q122.524 268.101 120.255 267.73 Q118.01 267.36 115.603 266.619 L115.603 261.92 Q117.686 263.054 119.908 263.61 Q122.13 264.166 124.607 264.166 Q128.612 264.166 130.95 262.059 Q133.288 259.953 133.288 256.342 Q133.288 252.73 130.95 250.624 Q128.612 248.518 124.607 248.518 Q122.732 248.518 120.857 248.934 Q119.006 249.351 117.061 250.23 L117.061 232.869 Z" fill="#000000" fill-rule="evenodd" fill-opacity="1" /><path clip-path="url(#clip110)" d="M 0 0 M157.177 235.948 Q153.566 235.948 151.737 239.513 Q149.931 243.055 149.931 250.184 Q149.931 257.291 151.737 260.855 Q153.566 264.397 157.177 264.397 Q160.811 264.397 162.616 260.855 Q164.445 257.291 164.445 250.184 Q164.445 243.055 162.616 239.513 Q160.811 235.948 157.177 235.948 M157.177 232.244 Q162.987 232.244 166.042 236.851 Q169.121 241.434 169.121 250.184 Q169.121 258.911 166.042 263.517 Q162.987 268.101 157.177 268.101 Q151.366 268.101 148.288 263.517 Q145.232 258.911 145.232 250.184 Q145.232 241.434 148.288 236.851 Q151.366 232.244 157.177 232.244 Z" fill="#000000" fill-rule="evenodd" fill-opacity="1" /><path clip-path="url(#clip110)" d="M 0 0 M127.593 76.3323 Q124.445 76.3323 122.593 78.4851 Q120.765 80.6379 120.765 84.3879 Q120.765 88.1147 122.593 90.2906 Q124.445 92.4434 127.593 92.4434 Q130.742 92.4434 132.57 90.2906 Q134.422 88.1147 134.422 84.3879 Q134.422 80.6379 132.57 78.4851 Q130.742 76.3323 127.593 76.3323 M136.876 61.6796 L136.876 65.9389 Q135.117 65.1056 133.311 64.6657 Q131.529 64.2259 129.769 64.2259 Q125.14 64.2259 122.686 67.3509 Q120.255 70.4759 119.908 76.7953 Q121.274 74.7814 123.334 73.7166 Q125.394 72.6287 127.871 72.6287 Q133.08 72.6287 136.089 75.7999 Q139.121 78.9481 139.121 84.3879 Q139.121 89.7119 135.973 92.9295 Q132.825 96.1471 127.593 96.1471 Q121.598 96.1471 118.427 91.5637 Q115.256 86.9573 115.256 78.2305 Q115.256 70.0361 119.144 65.175 Q123.033 60.2908 129.584 60.2908 Q131.343 60.2908 133.126 60.638 Q134.931 60.9852 136.876 61.6796 Z" fill="#000000" fill-rule="evenodd" fill-opacity="1" /><path clip-path="url(#clip110)" d="M 0 0 M157.177 63.9944 Q153.566 63.9944 151.737 67.5592 Q149.931 71.1009 149.931 78.2305 Q149.931 85.3369 151.737 88.9017 Q153.566 92.4434 157.177 92.4434 Q160.811 92.4434 162.616 88.9017 Q164.445 85.3369 164.445 78.2305 Q164.445 71.1009 162.616 67.5592 Q160.811 63.9944 157.177 63.9944 M157.177 60.2908 Q162.987 60.2908 166.042 64.8972 Q169.121 69.4805 169.121 78.2305 Q169.121 86.9573 166.042 91.5637 Q162.987 96.1471 157.177 96.1471 Q151.366 96.1471 148.288 91.5637 Q145.232 86.9573 145.232 78.2305 Q145.232 69.4805 148.288 64.8972 Q151.366 60.2908 157.177 60.2908 Z" fill="#000000" fill-rule="evenodd" fill-opacity="1" /><path clip-path="url(#clip110)" d="M 0 0 M16.4842 731.063 L16.4842 724.633 L64.0042 724.633 L64.0042 731.063 L16.4842 731.063 Z" fill="#000000" fill-rule="evenodd" fill-opacity="1" /><path clip-path="url(#clip110)" d="M 0 0 M42.4881 682.461 L64.0042 682.461 L64.0042 688.317 L42.679 688.317 Q37.6183 688.317 35.1038 690.29 Q32.5894 692.264 32.5894 696.211 Q32.5894 700.953 35.6131 703.69 Q38.6368 706.428 43.8567 706.428 L64.0042 706.428 L64.0042 712.316 L28.3562 712.316 L28.3562 706.428 L33.8944 706.428 Q30.6797 704.327 29.0883 701.494 Q27.4968 698.63 27.4968 694.906 Q27.4968 688.763 31.3163 685.612 Q35.1038 682.461 42.4881 682.461 Z" fill="#000000" fill-rule="evenodd" fill-opacity="1" /><path clip-path="url(#clip110)" d="M 0 0 M18.2347 664.987 L28.3562 664.987 L28.3562 652.924 L32.9077 652.924 L32.9077 664.987 L52.2594 664.987 Q56.6199 664.987 57.8613 663.809 Q59.1026 662.6 59.1026 658.939 L59.1026 652.924 L64.0042 652.924 L64.0042 658.939 Q64.0042 665.719 61.4897 668.297 Q58.9434 670.875 52.2594 670.875 L32.9077 670.875 L32.9077 675.172 L28.3562 675.172 L28.3562 670.875 L18.2347 670.875 L18.2347 664.987 Z" fill="#000000" fill-rule="evenodd" fill-opacity="1" /><path clip-path="url(#clip110)" d="M 0 0 M44.7161 614.73 L47.5806 614.73 L47.5806 641.656 Q53.6281 641.275 56.8109 638.028 Q59.9619 634.75 59.9619 628.925 Q59.9619 625.551 59.1344 622.4 Q58.3069 619.217 56.6518 616.098 L62.1899 616.098 Q63.5267 619.249 64.227 622.559 Q64.9272 625.87 64.9272 629.275 Q64.9272 637.805 59.9619 642.802 Q54.9967 647.768 46.5303 647.768 Q37.7774 647.768 32.6531 643.057 Q27.4968 638.314 27.4968 630.294 Q27.4968 623.1 32.1438 618.931 Q36.7589 614.73 44.7161 614.73 M42.9973 620.586 Q38.1912 620.65 35.3266 623.291 Q32.4621 625.901 32.4621 630.23 Q32.4621 635.132 35.2312 638.092 Q38.0002 641.02 43.0292 641.465 L42.9973 620.586 Z" fill="#000000" fill-rule="evenodd" fill-opacity="1" /><path clip-path="url(#clip110)" d="M 0 0 M33.8307 584.461 Q33.2578 585.447 33.0032 586.625 Q32.7167 587.771 32.7167 589.171 Q32.7167 594.136 35.9632 596.81 Q39.1779 599.452 45.2253 599.452 L64.0042 599.452 L64.0042 605.34 L28.3562 605.34 L28.3562 599.452 L33.8944 599.452 Q30.6479 597.606 29.0883 594.646 Q27.4968 591.686 27.4968 587.452 Q27.4968 586.848 27.5923 586.116 Q27.656 585.384 27.8151 584.492 L33.8307 584.461 Z" fill="#000000" fill-rule="evenodd" fill-opacity="1" /><path clip-path="url(#clip110)" d="M 0 0 M28.3562 582.519 L28.3562 576.312 L58.275 565.172 L28.3562 554.033 L28.3562 547.826 L64.0042 561.194 L64.0042 569.151 L28.3562 582.519 Z" fill="#000000" fill-rule="evenodd" fill-opacity="1" /><path clip-path="url(#clip110)" d="M 0 0 M46.0847 523.541 Q46.0847 530.639 47.7079 533.376 Q49.3312 536.113 53.2461 536.113 Q56.3653 536.113 58.2114 534.076 Q60.0256 532.007 60.0256 528.474 Q60.0256 523.604 56.5881 520.676 Q53.1188 517.716 47.3897 517.716 L46.0847 517.716 L46.0847 523.541 M43.6657 511.86 L64.0042 511.86 L64.0042 517.716 L58.5933 517.716 Q61.8398 519.721 63.3994 522.713 Q64.9272 525.705 64.9272 530.034 Q64.9272 535.508 61.8716 538.755 Q58.7843 541.969 53.6281 541.969 Q47.6125 541.969 44.5569 537.959 Q41.5014 533.917 41.5014 525.928 L41.5014 517.716 L40.9285 517.716 Q36.8862 517.716 34.6901 520.39 Q32.4621 523.032 32.4621 527.838 Q32.4621 530.893 33.1941 533.79 Q33.9262 536.686 35.3903 539.36 L29.9795 539.36 Q28.7381 536.145 28.1334 533.121 Q27.4968 530.097 27.4968 527.233 Q27.4968 519.499 31.5072 515.679 Q35.5176 511.86 43.6657 511.86 Z" fill="#000000" fill-rule="evenodd" fill-opacity="1" /><path clip-path="url(#clip110)" d="M 0 0 M14.479 499.797 L14.479 493.94 L64.0042 493.94 L64.0042 499.797 L14.479 499.797 Z" fill="#000000" fill-rule="evenodd" fill-opacity="1" /><path clip-path="url(#clip110)" d="M 0 0 M29.4065 458.961 L34.9447 458.961 Q33.6716 461.443 33.035 464.117 Q32.3984 466.79 32.3984 469.655 Q32.3984 474.016 33.7352 476.212 Q35.072 478.376 37.7456 478.376 Q39.7826 478.376 40.9603 476.816 Q42.1061 475.257 43.1565 470.546 L43.6021 468.541 Q44.9389 462.303 47.3897 459.693 Q49.8086 457.051 54.1691 457.051 Q59.1344 457.051 62.0308 460.998 Q64.9272 464.913 64.9272 471.788 Q64.9272 474.652 64.3543 477.771 Q63.8132 480.859 62.6992 484.296 L56.6518 484.296 Q58.3387 481.05 59.198 477.899 Q60.0256 474.748 60.0256 471.66 Q60.0256 467.523 58.6251 465.295 Q57.1929 463.067 54.6147 463.067 Q52.2276 463.067 50.9545 464.69 Q49.6813 466.281 48.5037 471.724 L48.0262 473.761 Q46.8804 479.204 44.5251 481.623 Q42.138 484.042 38.0002 484.042 Q32.9713 484.042 30.2341 480.477 Q27.4968 476.912 27.4968 470.355 Q27.4968 467.109 27.9743 464.244 Q28.4517 461.38 29.4065 458.961 Z" fill="#000000" fill-rule="evenodd" fill-opacity="1" /><path clip-path="url(#clip112)" d="
M265.903 1109.92 L565.094 1109.92 L565.094 1092.72 L265.903 1092.72  Z
  " fill="#009af9" fill-rule="evenodd" fill-opacity="1"/>
<polyline clip-path="url(#clip112)" style="stroke:#ffffff; stroke-width:4; stroke-opacity:1; fill:none" points="
  265.903,1109.92 565.094,1109.92 
  "/>
<path clip-path="url(#clip112)" d="
M269.627 1092.72 L270.869 1092.72 L270.869 1075.53 L269.627 1075.53  Z
  " fill="#009af9" fill-rule="evenodd" fill-opacity="1"/>
<polyline clip-path="url(#clip112)" style="stroke:#ffffff; stroke-width:4; stroke-opacity:1; fill:none" points="
  269.627,1092.72 270.869,1092.72 
  "/>
<path clip-path="url(#clip112)" d="
M342.873 1058.33 L517.919 1058.33 L517.919 1041.14 L342.873 1041.14  Z
  " fill="#e26f46" fill-rule="evenodd" fill-opacity="1"/>
<polyline clip-path="url(#clip112)" style="stroke:#ffffff; stroke-width:4; stroke-opacity:1; fill:none" points="
  342.873,1058.33 517.919,1058.33 
  "/>
<path clip-path="url(#clip112)" d="
M345.356 1041.14 L347.839 1041.14 L347.839 1023.94 L345.356 1023.94  Z
  " fill="#e26f46" fill-rule="evenodd" fill-opacity="1"/>
<polyline clip-path="url(#clip112)" style="stroke:#ffffff; stroke-width:4; stroke-opacity:1; fill:none" points="
  345.356,1041.14 347.839,1041.14 
  "/>
<path clip-path="url(#clip112)" d="
M383.842 1006.75 L666.894 1006.75 L666.894 989.55 L383.842 989.55  Z
  " fill="#3da44d" fill-rule="evenodd" fill-opacity="1"/>
<polyline clip-path="url(#clip112)" style="stroke:#ffffff; stroke-width:4; stroke-opacity:1; fill:none" points="
  383.842,1006.75 666.894,1006.75 
  "/>
<path clip-path="url(#clip112)" d="
M387.566 989.55 L503.021 989.55 L503.021 972.355 L387.566 972.355  Z
  " fill="#3da44d" fill-rule="evenodd" fill-opacity="1"/>
<polyline clip-path="url(#clip112)" style="stroke:#ffffff; stroke-width:4; stroke-opacity:1; fill:none" points="
  387.566,989.55 503.021,989.55 
  "/>
<path clip-path="url(#clip112)" d="
M396.256 972.355 L396.256 972.355 L396.256 955.16 L396.256 955.16  Z
  " fill="#3da44d" fill-rule="evenodd" fill-opacity="1"/>
<polyline clip-path="url(#clip112)" style="stroke:#ffffff; stroke-width:4; stroke-opacity:1; fill:none" points="
  396.256,972.355 396.256,972.355 
  "/>
<path clip-path="url(#clip112)" d="
M422.327 937.964 L639.582 937.964 L639.582 920.769 L422.327 920.769  Z
  " fill="#c271d2" fill-rule="evenodd" fill-opacity="1"/>
<polyline clip-path="url(#clip112)" style="stroke:#ffffff; stroke-width:4; stroke-opacity:1; fill:none" points="
  422.327,937.964 639.582,937.964 
  "/>
<path clip-path="url(#clip112)" d="
M426.051 920.769 L426.051 920.769 L426.051 903.574 L426.051 903.574  Z
  " fill="#c271d2" fill-rule="evenodd" fill-opacity="1"/>
<polyline clip-path="url(#clip112)" style="stroke:#ffffff; stroke-width:4; stroke-opacity:1; fill:none" points="
  426.051,920.769 426.051,920.769 
  "/>
<path clip-path="url(#clip112)" d="
M432.258 886.378 L433.5 886.378 L433.5 869.183 L432.258 869.183  Z
  " fill="#ac8d18" fill-rule="evenodd" fill-opacity="1"/>
<polyline clip-path="url(#clip112)" style="stroke:#ffffff; stroke-width:4; stroke-opacity:1; fill:none" points="
  432.258,886.378 433.5,886.378 
  "/>
<path clip-path="url(#clip112)" d="
M462.053 851.987 L462.053 851.987 L462.053 834.792 L462.053 834.792  Z
  " fill="#00a9ad" fill-rule="evenodd" fill-opacity="1"/>
<polyline clip-path="url(#clip112)" style="stroke:#ffffff; stroke-width:4; stroke-opacity:1; fill:none" points="
  462.053,851.987 462.053,851.987 
  "/>
<path clip-path="url(#clip112)" d="
M545.231 817.597 L611.028 817.597 L611.028 800.401 L545.231 800.401  Z
  " fill="#ed5d92" fill-rule="evenodd" fill-opacity="1"/>
<polyline clip-path="url(#clip112)" style="stroke:#ffffff; stroke-width:4; stroke-opacity:1; fill:none" points="
  545.231,817.597 611.028,817.597 
  "/>
<path clip-path="url(#clip112)" d="
M548.955 800.401 L550.197 800.401 L550.197 783.206 L548.955 783.206  Z
  " fill="#ed5d92" fill-rule="evenodd" fill-opacity="1"/>
<polyline clip-path="url(#clip112)" style="stroke:#ffffff; stroke-width:4; stroke-opacity:1; fill:none" points="
  548.955,800.401 550.197,800.401 
  "/>
<path clip-path="url(#clip112)" d="
M582.475 1109.92 L583.716 1109.92 L583.716 1092.72 L582.475 1092.72  Z
  " fill="#c68125" fill-rule="evenodd" fill-opacity="1"/>
<polyline clip-path="url(#clip112)" style="stroke:#ffffff; stroke-width:4; stroke-opacity:1; fill:none" points="
  582.475,1109.92 583.716,1109.92 
  "/>
<path clip-path="url(#clip112)" d="
M697.93 1109.92 L1154.79 1109.92 L1154.79 1092.72 L697.93 1092.72  Z
  " fill="#009af9" fill-rule="evenodd" fill-opacity="1"/>
<polyline clip-path="url(#clip112)" style="stroke:#ffffff; stroke-width:4; stroke-opacity:1; fill:none" points="
  697.93,1109.92 1154.79,1109.92 
  "/>
<path clip-path="url(#clip112)" d="
M701.655 1092.72 L794.764 1092.72 L794.764 1075.53 L701.655 1075.53  Z
  " fill="#009af9" fill-rule="evenodd" fill-opacity="1"/>
<polyline clip-path="url(#clip112)" style="stroke:#ffffff; stroke-width:4; stroke-opacity:1; fill:none" points="
  701.655,1092.72 794.764,1092.72 
  "/>
<path clip-path="url(#clip112)" d="
M704.138 1075.53 L705.379 1075.53 L705.379 1058.33 L704.138 1058.33  Z
  " fill="#009af9" fill-rule="evenodd" fill-opacity="1"/>
<polyline clip-path="url(#clip112)" style="stroke:#ffffff; stroke-width:4; stroke-opacity:1; fill:none" points="
  704.138,1075.53 705.379,1075.53 
  "/>
<path clip-path="url(#clip112)" d="
M724.001 1041.14 L1265.28 1041.14 L1265.28 1023.94 L724.001 1023.94  Z
  " fill="#00a98d" fill-rule="evenodd" fill-opacity="1"/>
<polyline clip-path="url(#clip112)" style="stroke:#ffffff; stroke-width:4; stroke-opacity:1; fill:none" points="
  724.001,1041.14 1265.28,1041.14 
  "/>
<path clip-path="url(#clip112)" d="
M727.725 1023.94 L1009.54 1023.94 L1009.54 1006.75 L727.725 1006.75  Z
  " fill="#00a98d" fill-rule="evenodd" fill-opacity="1"/>
<polyline clip-path="url(#clip112)" style="stroke:#ffffff; stroke-width:4; stroke-opacity:1; fill:none" points="
  727.725,1023.94 1009.54,1023.94 
  "/>
<path clip-path="url(#clip112)" d="
M731.45 1006.75 L731.45 1006.75 L731.45 989.55 L731.45 989.55  Z
  " fill="#00a98d" fill-rule="evenodd" fill-opacity="1"/>
<polyline clip-path="url(#clip112)" style="stroke:#ffffff; stroke-width:4; stroke-opacity:1; fill:none" points="
  731.45,1006.75 731.45,1006.75 
  "/>
<path clip-path="url(#clip112)" d="
M740.14 972.355 L740.14 972.355 L740.14 955.16 L740.14 955.16  Z
  " fill="#8e971d" fill-rule="evenodd" fill-opacity="1"/>
<polyline clip-path="url(#clip112)" style="stroke:#ffffff; stroke-width:4; stroke-opacity:1; fill:none" points="
  740.14,972.355 740.14,972.355 
  "/>
<path clip-path="url(#clip112)" d="
M774.901 937.964 L1111.34 937.964 L1111.34 920.769 L774.901 920.769  Z
  " fill="#00a8cb" fill-rule="evenodd" fill-opacity="1"/>
<polyline clip-path="url(#clip112)" style="stroke:#ffffff; stroke-width:4; stroke-opacity:1; fill:none" points="
  774.901,937.964 1111.34,937.964 
  "/>
<path clip-path="url(#clip112)" d="
M779.866 920.769 L779.866 920.769 L779.866 903.574 L779.866 903.574  Z
  " fill="#00a8cb" fill-rule="evenodd" fill-opacity="1"/>
<polyline clip-path="url(#clip112)" style="stroke:#ffffff; stroke-width:4; stroke-opacity:1; fill:none" points="
  779.866,920.769 779.866,920.769 
  "/>
<path clip-path="url(#clip112)" d="
M820.834 886.378 L1236.72 886.378 L1236.72 869.183 L820.834 869.183  Z
  " fill="#9b7fe8" fill-rule="evenodd" fill-opacity="1"/>
<polyline clip-path="url(#clip112)" style="stroke:#ffffff; stroke-width:4; stroke-opacity:1; fill:none" points="
  820.834,886.378 1236.72,886.378 
  "/>
<path clip-path="url(#clip112)" d="
M824.559 869.183 L995.88 869.183 L995.88 851.987 L824.559 851.987  Z
  " fill="#9b7fe8" fill-rule="evenodd" fill-opacity="1"/>
<polyline clip-path="url(#clip112)" style="stroke:#ffffff; stroke-width:4; stroke-opacity:1; fill:none" points="
  824.559,869.183 995.88,869.183 
  "/>
<path clip-path="url(#clip112)" d="
M827.042 851.987 L827.042 851.987 L827.042 834.792 L827.042 834.792  Z
  " fill="#9b7fe8" fill-rule="evenodd" fill-opacity="1"/>
<polyline clip-path="url(#clip112)" style="stroke:#ffffff; stroke-width:4; stroke-opacity:1; fill:none" points="
  827.042,851.987 827.042,851.987 
  "/>
<path clip-path="url(#clip112)" d="
M841.939 817.597 L956.153 817.597 L956.153 800.401 L841.939 800.401  Z
  " fill="#608cf6" fill-rule="evenodd" fill-opacity="1"/>
<polyline clip-path="url(#clip112)" style="stroke:#ffffff; stroke-width:4; stroke-opacity:1; fill:none" points="
  841.939,817.597 956.153,817.597 
  "/>
<path clip-path="url(#clip112)" d="
M844.422 800.401 L845.664 800.401 L845.664 783.206 L844.422 783.206  Z
  " fill="#608cf6" fill-rule="evenodd" fill-opacity="1"/>
<polyline clip-path="url(#clip112)" style="stroke:#ffffff; stroke-width:4; stroke-opacity:1; fill:none" points="
  844.422,800.401 845.664,800.401 
  "/>
<path clip-path="url(#clip112)" d="
M875.459 766.011 L876.7 766.011 L876.7 748.815 L875.459 748.815  Z
  " fill="#f05f73" fill-rule="evenodd" fill-opacity="1"/>
<polyline clip-path="url(#clip112)" style="stroke:#ffffff; stroke-width:4; stroke-opacity:1; fill:none" points="
  875.459,766.011 876.7,766.011 
  "/>
<path clip-path="url(#clip112)" d="
M891.598 731.62 L1067.88 731.62 L1067.88 714.424 L891.598 714.424  Z
  " fill="#dd64b5" fill-rule="evenodd" fill-opacity="1"/>
<polyline clip-path="url(#clip112)" style="stroke:#ffffff; stroke-width:4; stroke-opacity:1; fill:none" points="
  891.598,731.62 1067.88,731.62 
  "/>
<path clip-path="url(#clip112)" d="
M894.08 714.424 L895.322 714.424 L895.322 697.229 L894.08 697.229  Z
  " fill="#dd64b5" fill-rule="evenodd" fill-opacity="1"/>
<polyline clip-path="url(#clip112)" style="stroke:#ffffff; stroke-width:4; stroke-opacity:1; fill:none" points="
  894.08,714.424 895.322,714.424 
  "/>
<path clip-path="url(#clip112)" d="
M921.393 680.034 L1209.41 680.034 L1209.41 662.838 L921.393 662.838  Z
  " fill="#6b9e32" fill-rule="evenodd" fill-opacity="1"/>
<polyline clip-path="url(#clip112)" style="stroke:#ffffff; stroke-width:4; stroke-opacity:1; fill:none" points="
  921.393,680.034 1209.41,680.034 
  "/>
<path clip-path="url(#clip112)" d="
M925.117 662.838 L926.358 662.838 L926.358 645.643 L925.117 645.643  Z
  " fill="#6b9e32" fill-rule="evenodd" fill-opacity="1"/>
<polyline clip-path="url(#clip112)" style="stroke:#ffffff; stroke-width:4; stroke-opacity:1; fill:none" points="
  925.117,662.838 926.358,662.838 
  "/>
<path clip-path="url(#clip112)" d="
M940.014 628.448 L941.256 628.448 L941.256 611.252 L940.014 611.252  Z
  " fill="#009af9" fill-rule="evenodd" fill-opacity="1"/>
<polyline clip-path="url(#clip112)" style="stroke:#ffffff; stroke-width:4; stroke-opacity:1; fill:none" points="
  940.014,628.448 941.256,628.448 
  "/>
<path clip-path="url(#clip112)" d="
M1023.19 594.057 L1023.19 594.057 L1023.19 576.862 L1023.19 576.862  Z
  " fill="#e26f46" fill-rule="evenodd" fill-opacity="1"/>
<polyline clip-path="url(#clip112)" style="stroke:#ffffff; stroke-width:4; stroke-opacity:1; fill:none" points="
  1023.19,594.057 1023.19,594.057 
  "/>
<path clip-path="url(#clip112)" d="
M1051.75 559.666 L1180.86 559.666 L1180.86 542.471 L1051.75 542.471  Z
  " fill="#3da44d" fill-rule="evenodd" fill-opacity="1"/>
<polyline clip-path="url(#clip112)" style="stroke:#ffffff; stroke-width:4; stroke-opacity:1; fill:none" points="
  1051.75,559.666 1180.86,559.666 
  "/>
<path clip-path="url(#clip112)" d="
M1052.99 542.471 L1054.23 542.471 L1054.23 525.275 L1052.99 525.275  Z
  " fill="#3da44d" fill-rule="evenodd" fill-opacity="1"/>
<polyline clip-path="url(#clip112)" style="stroke:#ffffff; stroke-width:4; stroke-opacity:1; fill:none" points="
  1052.99,542.471 1054.23,542.471 
  "/>
<path clip-path="url(#clip112)" d="
M1138.65 508.08 L1138.65 508.08 L1138.65 490.885 L1138.65 490.885  Z
  " fill="#c271d2" fill-rule="evenodd" fill-opacity="1"/>
<polyline clip-path="url(#clip112)" style="stroke:#ffffff; stroke-width:4; stroke-opacity:1; fill:none" points="
  1138.65,508.08 1138.65,508.08 
  "/>
<path clip-path="url(#clip112)" d="
M1296.31 1109.92 L2165.35 1109.92 L2165.35 1092.72 L1296.31 1092.72  Z
  " fill="#009af9" fill-rule="evenodd" fill-opacity="1"/>
<polyline clip-path="url(#clip112)" style="stroke:#ffffff; stroke-width:4; stroke-opacity:1; fill:none" points="
  1296.31,1109.92 2165.35,1109.92 
  "/>
<path clip-path="url(#clip112)" d="
M1298.8 1092.72 L1858.71 1092.72 L1858.71 1075.53 L1298.8 1075.53  Z
  " fill="#009af9" fill-rule="evenodd" fill-opacity="1"/>
<polyline clip-path="url(#clip112)" style="stroke:#ffffff; stroke-width:4; stroke-opacity:1; fill:none" points="
  1298.8,1092.72 1858.71,1092.72 
  "/>
<path clip-path="url(#clip112)" d="
M1301.28 1075.53 L1302.52 1075.53 L1302.52 1058.33 L1301.28 1058.33  Z
  " fill="#009af9" fill-rule="evenodd" fill-opacity="1"/>
<polyline clip-path="url(#clip112)" style="stroke:#ffffff; stroke-width:4; stroke-opacity:1; fill:none" points="
  1301.28,1075.53 1302.52,1075.53 
  "/>
<path clip-path="url(#clip112)" d="
M1319.9 1041.14 L2278.32 1041.14 L2278.32 1023.94 L1319.9 1023.94  Z
  " fill="#ac8d18" fill-rule="evenodd" fill-opacity="1"/>
<polyline clip-path="url(#clip112)" style="stroke:#ffffff; stroke-width:4; stroke-opacity:1; fill:none" points="
  1319.9,1041.14 2278.32,1041.14 
  "/>
<path clip-path="url(#clip112)" d="
M1323.62 1023.94 L2108.24 1023.94 L2108.24 1006.75 L1323.62 1006.75  Z
  " fill="#ac8d18" fill-rule="evenodd" fill-opacity="1"/>
<polyline clip-path="url(#clip112)" style="stroke:#ffffff; stroke-width:4; stroke-opacity:1; fill:none" points="
  1323.62,1023.94 2108.24,1023.94 
  "/>
<path clip-path="url(#clip112)" d="
M1328.59 1006.75 L1508.6 1006.75 L1508.6 989.55 L1328.59 989.55  Z
  " fill="#ac8d18" fill-rule="evenodd" fill-opacity="1"/>
<polyline clip-path="url(#clip112)" style="stroke:#ffffff; stroke-width:4; stroke-opacity:1; fill:none" points="
  1328.59,1006.75 1508.6,1006.75 
  "/>
<path clip-path="url(#clip112)" d="
M1331.07 989.55 L1332.31 989.55 L1332.31 972.355 L1331.07 972.355  Z
  " fill="#ac8d18" fill-rule="evenodd" fill-opacity="1"/>
<polyline clip-path="url(#clip112)" style="stroke:#ffffff; stroke-width:4; stroke-opacity:1; fill:none" points="
  1331.07,989.55 1332.31,989.55 
  "/>
<path clip-path="url(#clip112)" d="
M1375.77 955.16 L2121.89 955.16 L2121.89 937.964 L1375.77 937.964  Z
  " fill="#00a9ad" fill-rule="evenodd" fill-opacity="1"/>
<polyline clip-path="url(#clip112)" style="stroke:#ffffff; stroke-width:4; stroke-opacity:1; fill:none" points="
  1375.77,955.16 2121.89,955.16 
  "/>
<path clip-path="url(#clip112)" d="
M1377.01 937.964 L1648.9 937.964 L1648.9 920.769 L1377.01 920.769  Z
  " fill="#00a9ad" fill-rule="evenodd" fill-opacity="1"/>
<polyline clip-path="url(#clip112)" style="stroke:#ffffff; stroke-width:4; stroke-opacity:1; fill:none" points="
  1377.01,937.964 1648.9,937.964 
  "/>
<path clip-path="url(#clip112)" d="
M1380.73 920.769 L1381.97 920.769 L1381.97 903.574 L1380.73 903.574  Z
  " fill="#00a9ad" fill-rule="evenodd" fill-opacity="1"/>
<polyline clip-path="url(#clip112)" style="stroke:#ffffff; stroke-width:4; stroke-opacity:1; fill:none" points="
  1380.73,920.769 1381.97,920.769 
  "/>
<path clip-path="url(#clip112)" d="
M1394.39 886.378 L1662.55 886.378 L1662.55 869.183 L1394.39 869.183  Z
  " fill="#ed5d92" fill-rule="evenodd" fill-opacity="1"/>
<polyline clip-path="url(#clip112)" style="stroke:#ffffff; stroke-width:4; stroke-opacity:1; fill:none" points="
  1394.39,886.378 1662.55,886.378 
  "/>
<path clip-path="url(#clip112)" d="
M1396.87 869.183 L1396.87 869.183 L1396.87 851.987 L1396.87 851.987  Z
  " fill="#ed5d92" fill-rule="evenodd" fill-opacity="1"/>
<polyline clip-path="url(#clip112)" style="stroke:#ffffff; stroke-width:4; stroke-opacity:1; fill:none" points="
  1396.87,869.183 1396.87,869.183 
  "/>
<path clip-path="url(#clip112)" d="
M1422.94 834.792 L2251.01 834.792 L2251.01 817.597 L1422.94 817.597  Z
  " fill="#c68125" fill-rule="evenodd" fill-opacity="1"/>
<polyline clip-path="url(#clip112)" style="stroke:#ffffff; stroke-width:4; stroke-opacity:1; fill:none" points="
  1422.94,834.792 2251.01,834.792 
  "/>
<path clip-path="url(#clip112)" d="
M1426.67 817.597 L2094.58 817.597 L2094.58 800.401 L1426.67 800.401  Z
  " fill="#c68125" fill-rule="evenodd" fill-opacity="1"/>
<polyline clip-path="url(#clip112)" style="stroke:#ffffff; stroke-width:4; stroke-opacity:1; fill:none" points="
  1426.67,817.597 2094.58,817.597 
  "/>
<path clip-path="url(#clip112)" d="
M1427.91 800.401 L1429.15 800.401 L1429.15 783.206 L1427.91 783.206  Z
  " fill="#c68125" fill-rule="evenodd" fill-opacity="1"/>
<polyline clip-path="url(#clip112)" style="stroke:#ffffff; stroke-width:4; stroke-opacity:1; fill:none" points="
  1427.91,800.401 1429.15,800.401 
  "/>
<path clip-path="url(#clip112)" d="
M1441.56 766.011 L2042.44 766.011 L2042.44 748.815 L1441.56 748.815  Z
  " fill="#00a98d" fill-rule="evenodd" fill-opacity="1"/>
<polyline clip-path="url(#clip112)" style="stroke:#ffffff; stroke-width:4; stroke-opacity:1; fill:none" points="
  1441.56,766.011 2042.44,766.011 
  "/>
<path clip-path="url(#clip112)" d="
M1445.29 748.815 L1445.29 748.815 L1445.29 731.62 L1445.29 731.62  Z
  " fill="#00a98d" fill-rule="evenodd" fill-opacity="1"/>
<polyline clip-path="url(#clip112)" style="stroke:#ffffff; stroke-width:4; stroke-opacity:1; fill:none" points="
  1445.29,748.815 1445.29,748.815 
  "/>
<path clip-path="url(#clip112)" d="
M1457.7 714.424 L1458.94 714.424 L1458.94 697.229 L1457.7 697.229  Z
  " fill="#8e971d" fill-rule="evenodd" fill-opacity="1"/>
<polyline clip-path="url(#clip112)" style="stroke:#ffffff; stroke-width:4; stroke-opacity:1; fill:none" points="
  1457.7,714.424 1458.94,714.424 
  "/>
<path clip-path="url(#clip112)" d="
M1522.26 680.034 L2058.58 680.034 L2058.58 662.838 L1522.26 662.838  Z
  " fill="#00a8cb" fill-rule="evenodd" fill-opacity="1"/>
<polyline clip-path="url(#clip112)" style="stroke:#ffffff; stroke-width:4; stroke-opacity:1; fill:none" points="
  1522.26,680.034 2058.58,680.034 
  "/>
<path clip-path="url(#clip112)" d="
M1523.5 662.838 L1524.74 662.838 L1524.74 645.643 L1523.5 645.643  Z
  " fill="#00a8cb" fill-rule="evenodd" fill-opacity="1"/>
<polyline clip-path="url(#clip112)" style="stroke:#ffffff; stroke-width:4; stroke-opacity:1; fill:none" points="
  1523.5,662.838 1524.74,662.838 
  "/>
<path clip-path="url(#clip112)" d="
M1537.16 628.448 L1538.4 628.448 L1538.4 611.252 L1537.16 611.252  Z
  " fill="#9b7fe8" fill-rule="evenodd" fill-opacity="1"/>
<polyline clip-path="url(#clip112)" style="stroke:#ffffff; stroke-width:4; stroke-opacity:1; fill:none" points="
  1537.16,628.448 1538.4,628.448 
  "/>
<path clip-path="url(#clip112)" d="
M1553.29 594.057 L1554.54 594.057 L1554.54 576.862 L1553.29 576.862  Z
  " fill="#608cf6" fill-rule="evenodd" fill-opacity="1"/>
<polyline clip-path="url(#clip112)" style="stroke:#ffffff; stroke-width:4; stroke-opacity:1; fill:none" points="
  1553.29,594.057 1554.54,594.057 
  "/>
<path clip-path="url(#clip112)" d="
M1583.1 559.666 L2222.45 559.666 L2222.45 542.471 L1583.1 542.471  Z
  " fill="#f05f73" fill-rule="evenodd" fill-opacity="1"/>
<polyline clip-path="url(#clip112)" style="stroke:#ffffff; stroke-width:4; stroke-opacity:1; fill:none" points="
  1583.1,559.666 2222.45,559.666 
  "/>
<path clip-path="url(#clip112)" d="
M1584.34 542.471 L2013.89 542.471 L2013.89 525.275 L1584.34 525.275  Z
  " fill="#f05f73" fill-rule="evenodd" fill-opacity="1"/>
<polyline clip-path="url(#clip112)" style="stroke:#ffffff; stroke-width:4; stroke-opacity:1; fill:none" points="
  1584.34,542.471 2013.89,542.471 
  "/>
<path clip-path="url(#clip112)" d="
M1591.79 525.275 L1591.79 525.275 L1591.79 508.08 L1591.79 508.08  Z
  " fill="#f05f73" fill-rule="evenodd" fill-opacity="1"/>
<polyline clip-path="url(#clip112)" style="stroke:#ffffff; stroke-width:4; stroke-opacity:1; fill:none" points="
  1591.79,525.275 1591.79,525.275 
  "/>
<path clip-path="url(#clip112)" d="
M1605.45 490.885 L2027.54 490.885 L2027.54 473.689 L1605.45 473.689  Z
  " fill="#dd64b5" fill-rule="evenodd" fill-opacity="1"/>
<polyline clip-path="url(#clip112)" style="stroke:#ffffff; stroke-width:4; stroke-opacity:1; fill:none" points="
  1605.45,490.885 2027.54,490.885 
  "/>
<path clip-path="url(#clip112)" d="
M1610.41 473.689 L1610.41 473.689 L1610.41 456.494 L1610.41 456.494  Z
  " fill="#dd64b5" fill-rule="evenodd" fill-opacity="1"/>
<polyline clip-path="url(#clip112)" style="stroke:#ffffff; stroke-width:4; stroke-opacity:1; fill:none" points="
  1610.41,473.689 1610.41,473.689 
  "/>
<path clip-path="url(#clip112)" d="
M1624.07 439.299 L1922.02 439.299 L1922.02 422.103 L1624.07 422.103  Z
  " fill="#6b9e32" fill-rule="evenodd" fill-opacity="1"/>
<polyline clip-path="url(#clip112)" style="stroke:#ffffff; stroke-width:4; stroke-opacity:1; fill:none" points="
  1624.07,439.299 1922.02,439.299 
  "/>
<path clip-path="url(#clip112)" d="
M1626.55 422.103 L1627.79 422.103 L1627.79 404.908 L1626.55 404.908  Z
  " fill="#6b9e32" fill-rule="evenodd" fill-opacity="1"/>
<polyline clip-path="url(#clip112)" style="stroke:#ffffff; stroke-width:4; stroke-opacity:1; fill:none" points="
  1626.55,422.103 1627.79,422.103 
  "/>
<path clip-path="url(#clip112)" d="
M1631.52 387.712 L1938.16 387.712 L1938.16 370.517 L1631.52 370.517  Z
  " fill="#009af9" fill-rule="evenodd" fill-opacity="1"/>
<polyline clip-path="url(#clip112)" style="stroke:#ffffff; stroke-width:4; stroke-opacity:1; fill:none" points="
  1631.52,387.712 1938.16,387.712 
  "/>
<path clip-path="url(#clip112)" d="
M1634 370.517 L1635.24 370.517 L1635.24 353.322 L1634 353.322  Z
  " fill="#009af9" fill-rule="evenodd" fill-opacity="1"/>
<polyline clip-path="url(#clip112)" style="stroke:#ffffff; stroke-width:4; stroke-opacity:1; fill:none" points="
  1634,370.517 1635.24,370.517 
  "/>
<path clip-path="url(#clip112)" d="
M1681.18 336.126 L2192.66 336.126 L2192.66 318.931 L1681.18 318.931  Z
  " fill="#e26f46" fill-rule="evenodd" fill-opacity="1"/>
<polyline clip-path="url(#clip112)" style="stroke:#ffffff; stroke-width:4; stroke-opacity:1; fill:none" points="
  1681.18,336.126 2192.66,336.126 
  "/>
<path clip-path="url(#clip112)" d="
M1683.66 318.931 L1684.9 318.931 L1684.9 301.736 L1683.66 301.736  Z
  " fill="#e26f46" fill-rule="evenodd" fill-opacity="1"/>
<polyline clip-path="url(#clip112)" style="stroke:#ffffff; stroke-width:4; stroke-opacity:1; fill:none" points="
  1683.66,318.931 1684.9,318.931 
  "/>
<path clip-path="url(#clip112)" d="
M1696.07 284.54 L1696.07 284.54 L1696.07 267.345 L1696.07 267.345  Z
  " fill="#3da44d" fill-rule="evenodd" fill-opacity="1"/>
<polyline clip-path="url(#clip112)" style="stroke:#ffffff; stroke-width:4; stroke-opacity:1; fill:none" points="
  1696.07,284.54 1696.07,284.54 
  "/>
<path clip-path="url(#clip112)" d="
M1841.32 250.149 L1842.57 250.149 L1842.57 232.954 L1841.32 232.954  Z
  " fill="#c271d2" fill-rule="evenodd" fill-opacity="1"/>
<polyline clip-path="url(#clip112)" style="stroke:#ffffff; stroke-width:4; stroke-opacity:1; fill:none" points="
  1841.32,250.149 1842.57,250.149 
  "/>
<path clip-path="url(#clip112)" d="
M1888.5 215.759 L1889.74 215.759 L1889.74 198.563 L1888.5 198.563  Z
  " fill="#ac8d18" fill-rule="evenodd" fill-opacity="1"/>
<polyline clip-path="url(#clip112)" style="stroke:#ffffff; stroke-width:4; stroke-opacity:1; fill:none" points="
  1888.5,215.759 1889.74,215.759 
  "/>
<path clip-path="url(#clip112)" d="
M1905.88 181.368 L1907.12 181.368 L1907.12 164.173 L1905.88 164.173  Z
  " fill="#00a9ad" fill-rule="evenodd" fill-opacity="1"/>
<polyline clip-path="url(#clip112)" style="stroke:#ffffff; stroke-width:4; stroke-opacity:1; fill:none" points="
  1905.88,181.368 1907.12,181.368 
  "/>
<path clip-path="url(#clip112)" d="
M1992.78 146.977 L2150.45 146.977 L2150.45 129.782 L1992.78 129.782  Z
  " fill="#ed5d92" fill-rule="evenodd" fill-opacity="1"/>
<polyline clip-path="url(#clip112)" style="stroke:#ffffff; stroke-width:4; stroke-opacity:1; fill:none" points="
  1992.78,146.977 2150.45,146.977 
  "/>
<path clip-path="url(#clip112)" d="
M1996.51 129.782 L1996.51 129.782 L1996.51 112.587 L1996.51 112.587  Z
  " fill="#ed5d92" fill-rule="evenodd" fill-opacity="1"/>
<polyline clip-path="url(#clip112)" style="stroke:#ffffff; stroke-width:4; stroke-opacity:1; fill:none" points="
  1996.51,129.782 1996.51,129.782 
  "/>
<path clip-path="url(#clip112)" d="
M2078.44 95.3911 L2078.44 95.3911 L2078.44 78.1958 L2078.44 78.1958  Z
  " fill="#c68125" fill-rule="evenodd" fill-opacity="1"/>
<polyline clip-path="url(#clip112)" style="stroke:#ffffff; stroke-width:4; stroke-opacity:1; fill:none" points="
  2078.44,95.3911 2078.44,95.3911 
  "/>
<circle clip-path="url(#clip112)" cx="265.903" cy="1109.92" r="14" fill="#ffffff" fill-rule="evenodd" fill-opacity="1" stroke="#000000" stroke-opacity="1" stroke-width="3.2"/>
<circle clip-path="url(#clip112)" cx="342.873" cy="1058.33" r="14" fill="#ffffff" fill-rule="evenodd" fill-opacity="1" stroke="#000000" stroke-opacity="1" stroke-width="3.2"/>
<circle clip-path="url(#clip112)" cx="383.842" cy="1006.75" r="14" fill="#ffffff" fill-rule="evenodd" fill-opacity="1" stroke="#000000" stroke-opacity="1" stroke-width="3.2"/>
<circle clip-path="url(#clip112)" cx="422.327" cy="937.964" r="14" fill="#ffffff" fill-rule="evenodd" fill-opacity="1" stroke="#000000" stroke-opacity="1" stroke-width="3.2"/>
<circle clip-path="url(#clip112)" cx="432.258" cy="886.378" r="14" fill="#ffffff" fill-rule="evenodd" fill-opacity="1" stroke="#000000" stroke-opacity="1" stroke-width="3.2"/>
<circle clip-path="url(#clip112)" cx="462.053" cy="851.987" r="14" fill="#ffffff" fill-rule="evenodd" fill-opacity="1" stroke="#000000" stroke-opacity="1" stroke-width="3.2"/>
<circle clip-path="url(#clip112)" cx="545.231" cy="817.597" r="14" fill="#ffffff" fill-rule="evenodd" fill-opacity="1" stroke="#000000" stroke-opacity="1" stroke-width="3.2"/>
<circle clip-path="url(#clip112)" cx="582.475" cy="1109.92" r="14" fill="#ffffff" fill-rule="evenodd" fill-opacity="1" stroke="#000000" stroke-opacity="1" stroke-width="3.2"/>
<circle clip-path="url(#clip112)" cx="697.93" cy="1109.92" r="14" fill="#ffffff" fill-rule="evenodd" fill-opacity="1" stroke="#000000" stroke-opacity="1" stroke-width="3.2"/>
<circle clip-path="url(#clip112)" cx="724.001" cy="1041.14" r="14" fill="#ffffff" fill-rule="evenodd" fill-opacity="1" stroke="#000000" stroke-opacity="1" stroke-width="3.2"/>
<circle clip-path="url(#clip112)" cx="740.14" cy="972.355" r="14" fill="#ffffff" fill-rule="evenodd" fill-opacity="1" stroke="#000000" stroke-opacity="1" stroke-width="3.2"/>
<circle clip-path="url(#clip112)" cx="774.901" cy="937.964" r="14" fill="#ffffff" fill-rule="evenodd" fill-opacity="1" stroke="#000000" stroke-opacity="1" stroke-width="3.2"/>
<circle clip-path="url(#clip112)" cx="820.834" cy="886.378" r="14" fill="#ffffff" fill-rule="evenodd" fill-opacity="1" stroke="#000000" stroke-opacity="1" stroke-width="3.2"/>
<circle clip-path="url(#clip112)" cx="841.939" cy="817.597" r="14" fill="#ffffff" fill-rule="evenodd" fill-opacity="1" stroke="#000000" stroke-opacity="1" stroke-width="3.2"/>
<circle clip-path="url(#clip112)" cx="875.459" cy="766.011" r="14" fill="#ffffff" fill-rule="evenodd" fill-opacity="1" stroke="#000000" stroke-opacity="1" stroke-width="3.2"/>
<circle clip-path="url(#clip112)" cx="891.598" cy="731.62" r="14" fill="#ffffff" fill-rule="evenodd" fill-opacity="1" stroke="#000000" stroke-opacity="1" stroke-width="3.2"/>
<circle clip-path="url(#clip112)" cx="921.393" cy="680.034" r="14" fill="#ffffff" fill-rule="evenodd" fill-opacity="1" stroke="#000000" stroke-opacity="1" stroke-width="3.2"/>
<circle clip-path="url(#clip112)" cx="940.014" cy="628.448" r="14" fill="#ffffff" fill-rule="evenodd" fill-opacity="1" stroke="#000000" stroke-opacity="1" stroke-width="3.2"/>
<circle clip-path="url(#clip112)" cx="1023.19" cy="594.057" r="14" fill="#ffffff" fill-rule="evenodd" fill-opacity="1" stroke="#000000" stroke-opacity="1" stroke-width="3.2"/>
<circle clip-path="url(#clip112)" cx="1051.75" cy="559.666" r="14" fill="#ffffff" fill-rule="evenodd" fill-opacity="1" stroke="#000000" stroke-opacity="1" stroke-width="3.2"/>
<circle clip-path="url(#clip112)" cx="1138.65" cy="508.08" r="14" fill="#ffffff" fill-rule="evenodd" fill-opacity="1" stroke="#000000" stroke-opacity="1" stroke-width="3.2"/>
<circle clip-path="url(#clip112)" cx="1296.31" cy="1109.92" r="14" fill="#ffffff" fill-rule="evenodd" fill-opacity="1" stroke="#000000" stroke-opacity="1" stroke-width="3.2"/>
<circle clip-path="url(#clip112)" cx="1319.9" cy="1041.14" r="14" fill="#ffffff" fill-rule="evenodd" fill-opacity="1" stroke="#000000" stroke-opacity="1" stroke-width="3.2"/>
<circle clip-path="url(#clip112)" cx="1375.77" cy="955.16" r="14" fill="#ffffff" fill-rule="evenodd" fill-opacity="1" stroke="#000000" stroke-opacity="1" stroke-width="3.2"/>
<circle clip-path="url(#clip112)" cx="1394.39" cy="886.378" r="14" fill="#ffffff" fill-rule="evenodd" fill-opacity="1" stroke="#000000" stroke-opacity="1" stroke-width="3.2"/>
<circle clip-path="url(#clip112)" cx="1422.94" cy="834.792" r="14" fill="#ffffff" fill-rule="evenodd" fill-opacity="1" stroke="#000000" stroke-opacity="1" stroke-width="3.2"/>
<circle clip-path="url(#clip112)" cx="1441.56" cy="766.011" r="14" fill="#ffffff" fill-rule="evenodd" fill-opacity="1" stroke="#000000" stroke-opacity="1" stroke-width="3.2"/>
<circle clip-path="url(#clip112)" cx="1457.7" cy="714.424" r="14" fill="#ffffff" fill-rule="evenodd" fill-opacity="1" stroke="#000000" stroke-opacity="1" stroke-width="3.2"/>
<circle clip-path="url(#clip112)" cx="1522.26" cy="680.034" r="14" fill="#ffffff" fill-rule="evenodd" fill-opacity="1" stroke="#000000" stroke-opacity="1" stroke-width="3.2"/>
<circle clip-path="url(#clip112)" cx="1537.16" cy="628.448" r="14" fill="#ffffff" fill-rule="evenodd" fill-opacity="1" stroke="#000000" stroke-opacity="1" stroke-width="3.2"/>
<circle clip-path="url(#clip112)" cx="1553.29" cy="594.057" r="14" fill="#ffffff" fill-rule="evenodd" fill-opacity="1" stroke="#000000" stroke-opacity="1" stroke-width="3.2"/>
<circle clip-path="url(#clip112)" cx="1583.1" cy="559.666" r="14" fill="#ffffff" fill-rule="evenodd" fill-opacity="1" stroke="#000000" stroke-opacity="1" stroke-width="3.2"/>
<circle clip-path="url(#clip112)" cx="1605.45" cy="490.885" r="14" fill="#ffffff" fill-rule="evenodd" fill-opacity="1" stroke="#000000" stroke-opacity="1" stroke-width="3.2"/>
<circle clip-path="url(#clip112)" cx="1624.07" cy="439.299" r="14" fill="#ffffff" fill-rule="evenodd" fill-opacity="1" stroke="#000000" stroke-opacity="1" stroke-width="3.2"/>
<circle clip-path="url(#clip112)" cx="1631.52" cy="387.712" r="14" fill="#ffffff" fill-rule="evenodd" fill-opacity="1" stroke="#000000" stroke-opacity="1" stroke-width="3.2"/>
<circle clip-path="url(#clip112)" cx="1681.18" cy="336.126" r="14" fill="#ffffff" fill-rule="evenodd" fill-opacity="1" stroke="#000000" stroke-opacity="1" stroke-width="3.2"/>
<circle clip-path="url(#clip112)" cx="1696.07" cy="284.54" r="14" fill="#ffffff" fill-rule="evenodd" fill-opacity="1" stroke="#000000" stroke-opacity="1" stroke-width="3.2"/>
<circle clip-path="url(#clip112)" cx="1841.32" cy="250.149" r="14" fill="#ffffff" fill-rule="evenodd" fill-opacity="1" stroke="#000000" stroke-opacity="1" stroke-width="3.2"/>
<circle clip-path="url(#clip112)" cx="1888.5" cy="215.759" r="14" fill="#ffffff" fill-rule="evenodd" fill-opacity="1" stroke="#000000" stroke-opacity="1" stroke-width="3.2"/>
<circle clip-path="url(#clip112)" cx="1905.88" cy="181.368" r="14" fill="#ffffff" fill-rule="evenodd" fill-opacity="1" stroke="#000000" stroke-opacity="1" stroke-width="3.2"/>
<circle clip-path="url(#clip112)" cx="1992.78" cy="146.977" r="14" fill="#ffffff" fill-rule="evenodd" fill-opacity="1" stroke="#000000" stroke-opacity="1" stroke-width="3.2"/>
<circle clip-path="url(#clip112)" cx="2078.44" cy="95.3911" r="14" fill="#ffffff" fill-rule="evenodd" fill-opacity="1" stroke="#000000" stroke-opacity="1" stroke-width="3.2"/>
<path clip-path="url(#clip110)" d="
M205.121 1423.18 L2352.76 1423.18 L2352.76 1301.67 L205.121 1301.67  Z
  " fill="#ffffff" fill-rule="evenodd" fill-opacity="1"/>
<defs>
  <clipPath id="clip113">
    <rect x="205" y="1301" width="2149" height="123"/>
  </clipPath>
</defs>
<polyline clip-path="url(#clip113)" style="stroke:#000000; stroke-width:2; stroke-opacity:0.1; fill:none" points="
  265.903,1423.18 265.903,1301.67 
  "/>
<polyline clip-path="url(#clip113)" style="stroke:#000000; stroke-width:2; stroke-opacity:0.1; fill:none" points="
  886.632,1423.18 886.632,1301.67 
  "/>
<polyline clip-path="url(#clip113)" style="stroke:#000000; stroke-width:2; stroke-opacity:0.1; fill:none" points="
  1507.36,1423.18 1507.36,1301.67 
  "/>
<polyline clip-path="url(#clip113)" style="stroke:#000000; stroke-width:2; stroke-opacity:0.1; fill:none" points="
  2128.09,1423.18 2128.09,1301.67 
  "/>
<polyline clip-path="url(#clip110)" style="stroke:#000000; stroke-width:4; stroke-opacity:1; fill:none" points="
  205.121,1423.18 2352.76,1423.18 
  "/>
<polyline clip-path="url(#clip110)" style="stroke:#000000; stroke-width:4; stroke-opacity:1; fill:none" points="
  265.903,1423.18 265.903,1421.72 
  "/>
<polyline clip-path="url(#clip110)" style="stroke:#000000; stroke-width:4; stroke-opacity:1; fill:none" points="
  886.632,1423.18 886.632,1421.72 
  "/>
<polyline clip-path="url(#clip110)" style="stroke:#000000; stroke-width:4; stroke-opacity:1; fill:none" points="
  1507.36,1423.18 1507.36,1421.72 
  "/>
<polyline clip-path="url(#clip110)" style="stroke:#000000; stroke-width:4; stroke-opacity:1; fill:none" points="
  2128.09,1423.18 2128.09,1421.72 
  "/>
<path clip-path="url(#clip110)" d="M 0 0 M182.964 1452.37 Q179.353 1452.37 177.524 1455.94 Q175.718 1459.48 175.718 1466.61 Q175.718 1473.71 177.524 1477.28 Q179.353 1480.82 182.964 1480.82 Q186.598 1480.82 188.404 1477.28 Q190.232 1473.71 190.232 1466.61 Q190.232 1459.48 188.404 1455.94 Q186.598 1452.37 182.964 1452.37 M182.964 1448.67 Q188.774 1448.67 191.829 1453.27 Q194.908 1457.86 194.908 1466.61 Q194.908 1475.33 191.829 1479.94 Q188.774 1484.52 182.964 1484.52 Q177.154 1484.52 174.075 1479.94 Q171.019 1475.33 171.019 1466.61 Q171.019 1457.86 174.075 1453.27 Q177.154 1448.67 182.964 1448.67 Z" fill="#000000" fill-rule="evenodd" fill-opacity="1" /><path clip-path="url(#clip110)" d="M 0 0 M203.126 1477.97 L208.01 1477.97 L208.01 1483.85 L203.126 1483.85 L203.126 1477.97 Z" fill="#000000" fill-rule="evenodd" fill-opacity="1" /><path clip-path="url(#clip110)" d="M 0 0 M228.195 1452.37 Q224.584 1452.37 222.755 1455.94 Q220.95 1459.48 220.95 1466.61 Q220.95 1473.71 222.755 1477.28 Q224.584 1480.82 228.195 1480.82 Q231.829 1480.82 233.635 1477.28 Q235.463 1473.71 235.463 1466.61 Q235.463 1459.48 233.635 1455.94 Q231.829 1452.37 228.195 1452.37 M228.195 1448.67 Q234.005 1448.67 237.061 1453.27 Q240.139 1457.86 240.139 1466.61 Q240.139 1475.33 237.061 1479.94 Q234.005 1484.52 228.195 1484.52 Q222.385 1484.52 219.306 1479.94 Q216.251 1475.33 216.251 1466.61 Q216.251 1457.86 219.306 1453.27 Q222.385 1448.67 228.195 1448.67 Z" fill="#000000" fill-rule="evenodd" fill-opacity="1" /><path clip-path="url(#clip110)" d="M 0 0 M258.357 1452.37 Q254.746 1452.37 252.917 1455.94 Q251.112 1459.48 251.112 1466.61 Q251.112 1473.71 252.917 1477.28 Q254.746 1480.82 258.357 1480.82 Q261.991 1480.82 263.797 1477.28 Q265.625 1473.71 265.625 1466.61 Q265.625 1459.48 263.797 1455.94 Q261.991 1452.37 258.357 1452.37 M258.357 1448.67 Q264.167 1448.67 267.223 1453.27 Q270.301 1457.86 270.301 1466.61 Q270.301 1475.33 267.223 1479.94 Q264.167 1484.52 258.357 1484.52 Q252.547 1484.52 249.468 1479.94 Q246.412 1475.33 246.412 1466.61 Q246.412 1457.86 249.468 1453.27 Q252.547 1448.67 258.357 1448.67 Z" fill="#000000" fill-rule="evenodd" fill-opacity="1" /><path clip-path="url(#clip110)" d="M 0 0 M288.519 1452.37 Q284.908 1452.37 283.079 1455.94 Q281.273 1459.48 281.273 1466.61 Q281.273 1473.71 283.079 1477.28 Q284.908 1480.82 288.519 1480.82 Q292.153 1480.82 293.959 1477.28 Q295.787 1473.71 295.787 1466.61 Q295.787 1459.48 293.959 1455.94 Q292.153 1452.37 288.519 1452.37 M288.519 1448.67 Q294.329 1448.67 297.384 1453.27 Q300.463 1457.86 300.463 1466.61 Q300.463 1475.33 297.384 1479.94 Q294.329 1484.52 288.519 1484.52 Q282.709 1484.52 279.63 1479.94 Q276.574 1475.33 276.574 1466.61 Q276.574 1457.86 279.63 1453.27 Q282.709 1448.67 288.519 1448.67 Z" fill="#000000" fill-rule="evenodd" fill-opacity="1" /><path clip-path="url(#clip110)" d="M 0 0 M318.681 1452.37 Q315.069 1452.37 313.241 1455.94 Q311.435 1459.48 311.435 1466.61 Q311.435 1473.71 313.241 1477.28 Q315.069 1480.82 318.681 1480.82 Q322.315 1480.82 324.12 1477.28 Q325.949 1473.71 325.949 1466.61 Q325.949 1459.48 324.12 1455.94 Q322.315 1452.37 318.681 1452.37 M318.681 1448.67 Q324.491 1448.67 327.546 1453.27 Q330.625 1457.86 330.625 1466.61 Q330.625 1475.33 327.546 1479.94 Q324.491 1484.52 318.681 1484.52 Q312.87 1484.52 309.792 1479.94 Q306.736 1475.33 306.736 1466.61 Q306.736 1457.86 309.792 1453.27 Q312.87 1448.67 318.681 1448.67 Z" fill="#000000" fill-rule="evenodd" fill-opacity="1" /><path clip-path="url(#clip110)" d="M 0 0 M348.842 1452.37 Q345.231 1452.37 343.403 1455.94 Q341.597 1459.48 341.597 1466.61 Q341.597 1473.71 343.403 1477.28 Q345.231 1480.82 348.842 1480.82 Q352.477 1480.82 354.282 1477.28 Q356.111 1473.71 356.111 1466.61 Q356.111 1459.48 354.282 1455.94 Q352.477 1452.37 348.842 1452.37 M348.842 1448.67 Q354.653 1448.67 357.708 1453.27 Q360.787 1457.86 360.787 1466.61 Q360.787 1475.33 357.708 1479.94 Q354.653 1484.52 348.842 1484.52 Q343.032 1484.52 339.954 1479.94 Q336.898 1475.33 336.898 1466.61 Q336.898 1457.86 339.954 1453.27 Q343.032 1448.67 348.842 1448.67 Z" fill="#000000" fill-rule="evenodd" fill-opacity="1" /><path clip-path="url(#clip110)" d="M 0 0 M804.19 1452.37 Q800.579 1452.37 798.75 1455.94 Q796.945 1459.48 796.945 1466.61 Q796.945 1473.71 798.75 1477.28 Q800.579 1480.82 804.19 1480.82 Q807.824 1480.82 809.63 1477.28 Q811.459 1473.71 811.459 1466.61 Q811.459 1459.48 809.63 1455.94 Q807.824 1452.37 804.19 1452.37 M804.19 1448.67 Q810 1448.67 813.056 1453.27 Q816.134 1457.86 816.134 1466.61 Q816.134 1475.33 813.056 1479.94 Q810 1484.52 804.19 1484.52 Q798.38 1484.52 795.301 1479.94 Q792.246 1475.33 792.246 1466.61 Q792.246 1457.86 795.301 1453.27 Q798.38 1448.67 804.19 1448.67 Z" fill="#000000" fill-rule="evenodd" fill-opacity="1" /><path clip-path="url(#clip110)" d="M 0 0 M824.352 1477.97 L829.236 1477.97 L829.236 1483.85 L824.352 1483.85 L824.352 1477.97 Z" fill="#000000" fill-rule="evenodd" fill-opacity="1" /><path clip-path="url(#clip110)" d="M 0 0 M849.421 1452.37 Q845.81 1452.37 843.981 1455.94 Q842.176 1459.48 842.176 1466.61 Q842.176 1473.71 843.981 1477.28 Q845.81 1480.82 849.421 1480.82 Q853.056 1480.82 854.861 1477.28 Q856.69 1473.71 856.69 1466.61 Q856.69 1459.48 854.861 1455.94 Q853.056 1452.37 849.421 1452.37 M849.421 1448.67 Q855.231 1448.67 858.287 1453.27 Q861.366 1457.86 861.366 1466.61 Q861.366 1475.33 858.287 1479.94 Q855.231 1484.52 849.421 1484.52 Q843.611 1484.52 840.532 1479.94 Q837.477 1475.33 837.477 1466.61 Q837.477 1457.86 840.532 1453.27 Q843.611 1448.67 849.421 1448.67 Z" fill="#000000" fill-rule="evenodd" fill-opacity="1" /><path clip-path="url(#clip110)" d="M 0 0 M879.583 1452.37 Q875.972 1452.37 874.143 1455.94 Q872.338 1459.48 872.338 1466.61 Q872.338 1473.71 874.143 1477.28 Q875.972 1480.82 879.583 1480.82 Q883.217 1480.82 885.023 1477.28 Q886.852 1473.71 886.852 1466.61 Q886.852 1459.48 885.023 1455.94 Q883.217 1452.37 879.583 1452.37 M879.583 1448.67 Q885.393 1448.67 888.449 1453.27 Q891.528 1457.86 891.528 1466.61 Q891.528 1475.33 888.449 1479.94 Q885.393 1484.52 879.583 1484.52 Q873.773 1484.52 870.694 1479.94 Q867.639 1475.33 867.639 1466.61 Q867.639 1457.86 870.694 1453.27 Q873.773 1448.67 879.583 1448.67 Z" fill="#000000" fill-rule="evenodd" fill-opacity="1" /><path clip-path="url(#clip110)" d="M 0 0 M909.745 1452.37 Q906.134 1452.37 904.305 1455.94 Q902.5 1459.48 902.5 1466.61 Q902.5 1473.71 904.305 1477.28 Q906.134 1480.82 909.745 1480.82 Q913.379 1480.82 915.185 1477.28 Q917.014 1473.71 917.014 1466.61 Q917.014 1459.48 915.185 1455.94 Q913.379 1452.37 909.745 1452.37 M909.745 1448.67 Q915.555 1448.67 918.611 1453.27 Q921.689 1457.86 921.689 1466.61 Q921.689 1475.33 918.611 1479.94 Q915.555 1484.52 909.745 1484.52 Q903.935 1484.52 900.856 1479.94 Q897.801 1475.33 897.801 1466.61 Q897.801 1457.86 900.856 1453.27 Q903.935 1448.67 909.745 1448.67 Z" fill="#000000" fill-rule="evenodd" fill-opacity="1" /><path clip-path="url(#clip110)" d="M 0 0 M939.907 1452.37 Q936.296 1452.37 934.467 1455.94 Q932.662 1459.48 932.662 1466.61 Q932.662 1473.71 934.467 1477.28 Q936.296 1480.82 939.907 1480.82 Q943.541 1480.82 945.347 1477.28 Q947.175 1473.71 947.175 1466.61 Q947.175 1459.48 945.347 1455.94 Q943.541 1452.37 939.907 1452.37 M939.907 1448.67 Q945.717 1448.67 948.773 1453.27 Q951.851 1457.86 951.851 1466.61 Q951.851 1475.33 948.773 1479.94 Q945.717 1484.52 939.907 1484.52 Q934.097 1484.52 931.018 1479.94 Q927.963 1475.33 927.963 1466.61 Q927.963 1457.86 931.018 1453.27 Q934.097 1448.67 939.907 1448.67 Z" fill="#000000" fill-rule="evenodd" fill-opacity="1" /><path clip-path="url(#clip110)" d="M 0 0 M960.115 1449.29 L978.472 1449.29 L978.472 1453.23 L964.398 1453.23 L964.398 1461.7 Q965.416 1461.35 966.435 1461.19 Q967.453 1461 968.472 1461 Q974.259 1461 977.638 1464.18 Q981.018 1467.35 981.018 1472.76 Q981.018 1478.34 977.546 1481.44 Q974.073 1484.52 967.754 1484.52 Q965.578 1484.52 963.31 1484.15 Q961.064 1483.78 958.657 1483.04 L958.657 1478.34 Q960.74 1479.48 962.962 1480.03 Q965.185 1480.59 967.661 1480.59 Q971.666 1480.59 974.004 1478.48 Q976.342 1476.38 976.342 1472.76 Q976.342 1469.15 974.004 1467.05 Q971.666 1464.94 967.661 1464.94 Q965.786 1464.94 963.911 1465.36 Q962.06 1465.77 960.115 1466.65 L960.115 1449.29 Z" fill="#000000" fill-rule="evenodd" fill-opacity="1" /><path clip-path="url(#clip110)" d="M 0 0 M1424.42 1452.37 Q1420.81 1452.37 1418.98 1455.94 Q1417.18 1459.48 1417.18 1466.61 Q1417.18 1473.71 1418.98 1477.28 Q1420.81 1480.82 1424.42 1480.82 Q1428.06 1480.82 1429.86 1477.28 Q1431.69 1473.71 1431.69 1466.61 Q1431.69 1459.48 1429.86 1455.94 Q1428.06 1452.37 1424.42 1452.37 M1424.42 1448.67 Q1430.23 1448.67 1433.29 1453.27 Q1436.37 1457.86 1436.37 1466.61 Q1436.37 1475.33 1433.29 1479.94 Q1430.23 1484.52 1424.42 1484.52 Q1418.61 1484.52 1415.53 1479.94 Q1412.48 1475.33 1412.48 1466.61 Q1412.48 1457.86 1415.53 1453.27 Q1418.61 1448.67 1424.42 1448.67 Z" fill="#000000" fill-rule="evenodd" fill-opacity="1" /><path clip-path="url(#clip110)" d="M 0 0 M1444.58 1477.97 L1449.47 1477.97 L1449.47 1483.85 L1444.58 1483.85 L1444.58 1477.97 Z" fill="#000000" fill-rule="evenodd" fill-opacity="1" /><path clip-path="url(#clip110)" d="M 0 0 M1469.65 1452.37 Q1466.04 1452.37 1464.21 1455.94 Q1462.41 1459.48 1462.41 1466.61 Q1462.41 1473.71 1464.21 1477.28 Q1466.04 1480.82 1469.65 1480.82 Q1473.29 1480.82 1475.09 1477.28 Q1476.92 1473.71 1476.92 1466.61 Q1476.92 1459.48 1475.09 1455.94 Q1473.29 1452.37 1469.65 1452.37 M1469.65 1448.67 Q1475.46 1448.67 1478.52 1453.27 Q1481.6 1457.86 1481.6 1466.61 Q1481.6 1475.33 1478.52 1479.94 Q1475.46 1484.52 1469.65 1484.52 Q1463.84 1484.52 1460.76 1479.94 Q1457.71 1475.33 1457.71 1466.61 Q1457.71 1457.86 1460.76 1453.27 Q1463.84 1448.67 1469.65 1448.67 Z" fill="#000000" fill-rule="evenodd" fill-opacity="1" /><path clip-path="url(#clip110)" d="M 0 0 M1499.81 1452.37 Q1496.2 1452.37 1494.37 1455.94 Q1492.57 1459.48 1492.57 1466.61 Q1492.57 1473.71 1494.37 1477.28 Q1496.2 1480.82 1499.81 1480.82 Q1503.45 1480.82 1505.25 1477.28 Q1507.08 1473.71 1507.08 1466.61 Q1507.08 1459.48 1505.25 1455.94 Q1503.45 1452.37 1499.81 1452.37 M1499.81 1448.67 Q1505.62 1448.67 1508.68 1453.27 Q1511.76 1457.86 1511.76 1466.61 Q1511.76 1475.33 1508.68 1479.94 Q1505.62 1484.52 1499.81 1484.52 Q1494 1484.52 1490.93 1479.94 Q1487.87 1475.33 1487.87 1466.61 Q1487.87 1457.86 1490.93 1453.27 Q1494 1448.67 1499.81 1448.67 Z" fill="#000000" fill-rule="evenodd" fill-opacity="1" /><path clip-path="url(#clip110)" d="M 0 0 M1529.98 1452.37 Q1526.36 1452.37 1524.54 1455.94 Q1522.73 1459.48 1522.73 1466.61 Q1522.73 1473.71 1524.54 1477.28 Q1526.36 1480.82 1529.98 1480.82 Q1533.61 1480.82 1535.42 1477.28 Q1537.24 1473.71 1537.24 1466.61 Q1537.24 1459.48 1535.42 1455.94 Q1533.61 1452.37 1529.98 1452.37 M1529.98 1448.67 Q1535.79 1448.67 1538.84 1453.27 Q1541.92 1457.86 1541.92 1466.61 Q1541.92 1475.33 1538.84 1479.94 Q1535.79 1484.52 1529.98 1484.52 Q1524.17 1484.52 1521.09 1479.94 Q1518.03 1475.33 1518.03 1466.61 Q1518.03 1457.86 1521.09 1453.27 Q1524.17 1448.67 1529.98 1448.67 Z" fill="#000000" fill-rule="evenodd" fill-opacity="1" /><path clip-path="url(#clip110)" d="M 0 0 M1550.95 1479.92 L1558.59 1479.92 L1558.59 1453.55 L1550.28 1455.22 L1550.28 1450.96 L1558.54 1449.29 L1563.22 1449.29 L1563.22 1479.92 L1570.86 1479.92 L1570.86 1483.85 L1550.95 1483.85 L1550.95 1479.92 Z" fill="#000000" fill-rule="evenodd" fill-opacity="1" /><path clip-path="url(#clip110)" d="M 0 0 M1590.3 1452.37 Q1586.69 1452.37 1584.86 1455.94 Q1583.05 1459.48 1583.05 1466.61 Q1583.05 1473.71 1584.86 1477.28 Q1586.69 1480.82 1590.3 1480.82 Q1593.93 1480.82 1595.74 1477.28 Q1597.57 1473.71 1597.57 1466.61 Q1597.57 1459.48 1595.74 1455.94 Q1593.93 1452.37 1590.3 1452.37 M1590.3 1448.67 Q1596.11 1448.67 1599.17 1453.27 Q1602.24 1457.86 1602.24 1466.61 Q1602.24 1475.33 1599.17 1479.94 Q1596.11 1484.52 1590.3 1484.52 Q1584.49 1484.52 1581.41 1479.94 Q1578.36 1475.33 1578.36 1466.61 Q1578.36 1457.86 1581.41 1453.27 Q1584.49 1448.67 1590.3 1448.67 Z" fill="#000000" fill-rule="evenodd" fill-opacity="1" /><path clip-path="url(#clip110)" d="M 0 0 M2045.65 1452.37 Q2042.04 1452.37 2040.21 1455.94 Q2038.4 1459.48 2038.4 1466.61 Q2038.4 1473.71 2040.21 1477.28 Q2042.04 1480.82 2045.65 1480.82 Q2049.28 1480.82 2051.09 1477.28 Q2052.92 1473.71 2052.92 1466.61 Q2052.92 1459.48 2051.09 1455.94 Q2049.28 1452.37 2045.65 1452.37 M2045.65 1448.67 Q2051.46 1448.67 2054.51 1453.27 Q2057.59 1457.86 2057.59 1466.61 Q2057.59 1475.33 2054.51 1479.94 Q2051.46 1484.52 2045.65 1484.52 Q2039.84 1484.52 2036.76 1479.94 Q2033.7 1475.33 2033.7 1466.61 Q2033.7 1457.86 2036.76 1453.27 Q2039.84 1448.67 2045.65 1448.67 Z" fill="#000000" fill-rule="evenodd" fill-opacity="1" /><path clip-path="url(#clip110)" d="M 0 0 M2065.81 1477.97 L2070.69 1477.97 L2070.69 1483.85 L2065.81 1483.85 L2065.81 1477.97 Z" fill="#000000" fill-rule="evenodd" fill-opacity="1" /><path clip-path="url(#clip110)" d="M 0 0 M2090.88 1452.37 Q2087.27 1452.37 2085.44 1455.94 Q2083.63 1459.48 2083.63 1466.61 Q2083.63 1473.71 2085.44 1477.28 Q2087.27 1480.82 2090.88 1480.82 Q2094.51 1480.82 2096.32 1477.28 Q2098.15 1473.71 2098.15 1466.61 Q2098.15 1459.48 2096.32 1455.94 Q2094.51 1452.37 2090.88 1452.37 M2090.88 1448.67 Q2096.69 1448.67 2099.74 1453.27 Q2102.82 1457.86 2102.82 1466.61 Q2102.82 1475.33 2099.74 1479.94 Q2096.69 1484.52 2090.88 1484.52 Q2085.07 1484.52 2081.99 1479.94 Q2078.93 1475.33 2078.93 1466.61 Q2078.93 1457.86 2081.99 1453.27 Q2085.07 1448.67 2090.88 1448.67 Z" fill="#000000" fill-rule="evenodd" fill-opacity="1" /><path clip-path="url(#clip110)" d="M 0 0 M2121.04 1452.37 Q2117.43 1452.37 2115.6 1455.94 Q2113.8 1459.48 2113.8 1466.61 Q2113.8 1473.71 2115.6 1477.28 Q2117.43 1480.82 2121.04 1480.82 Q2124.67 1480.82 2126.48 1477.28 Q2128.31 1473.71 2128.31 1466.61 Q2128.31 1459.48 2126.48 1455.94 Q2124.67 1452.37 2121.04 1452.37 M2121.04 1448.67 Q2126.85 1448.67 2129.91 1453.27 Q2132.98 1457.86 2132.98 1466.61 Q2132.98 1475.33 2129.91 1479.94 Q2126.85 1484.52 2121.04 1484.52 Q2115.23 1484.52 2112.15 1479.94 Q2109.1 1475.33 2109.1 1466.61 Q2109.1 1457.86 2112.15 1453.27 Q2115.23 1448.67 2121.04 1448.67 Z" fill="#000000" fill-rule="evenodd" fill-opacity="1" /><path clip-path="url(#clip110)" d="M 0 0 M2151.2 1452.37 Q2147.59 1452.37 2145.76 1455.94 Q2143.96 1459.48 2143.96 1466.61 Q2143.96 1473.71 2145.76 1477.28 Q2147.59 1480.82 2151.2 1480.82 Q2154.84 1480.82 2156.64 1477.28 Q2158.47 1473.71 2158.47 1466.61 Q2158.47 1459.48 2156.64 1455.94 Q2154.84 1452.37 2151.2 1452.37 M2151.2 1448.67 Q2157.01 1448.67 2160.07 1453.27 Q2163.15 1457.86 2163.15 1466.61 Q2163.15 1475.33 2160.07 1479.94 Q2157.01 1484.52 2151.2 1484.52 Q2145.39 1484.52 2142.31 1479.94 Q2139.26 1475.33 2139.26 1466.61 Q2139.26 1457.86 2142.31 1453.27 Q2145.39 1448.67 2151.2 1448.67 Z" fill="#000000" fill-rule="evenodd" fill-opacity="1" /><path clip-path="url(#clip110)" d="M 0 0 M2172.17 1479.92 L2179.81 1479.92 L2179.81 1453.55 L2171.5 1455.22 L2171.5 1450.96 L2179.77 1449.29 L2184.44 1449.29 L2184.44 1479.92 L2192.08 1479.92 L2192.08 1483.85 L2172.17 1483.85 L2172.17 1479.92 Z" fill="#000000" fill-rule="evenodd" fill-opacity="1" /><path clip-path="url(#clip110)" d="M 0 0 M2201.57 1449.29 L2219.93 1449.29 L2219.93 1453.23 L2205.85 1453.23 L2205.85 1461.7 Q2206.87 1461.35 2207.89 1461.19 Q2208.91 1461 2209.93 1461 Q2215.72 1461 2219.1 1464.18 Q2222.48 1467.35 2222.48 1472.76 Q2222.48 1478.34 2219 1481.44 Q2215.53 1484.52 2209.21 1484.52 Q2207.04 1484.52 2204.77 1484.15 Q2202.52 1483.78 2200.11 1483.04 L2200.11 1478.34 Q2202.2 1479.48 2204.42 1480.03 Q2206.64 1480.59 2209.12 1480.59 Q2213.12 1480.59 2215.46 1478.48 Q2217.8 1476.38 2217.8 1472.76 Q2217.8 1469.15 2215.46 1467.05 Q2213.12 1464.94 2209.12 1464.94 Q2207.24 1464.94 2205.37 1465.36 Q2203.52 1465.77 2201.57 1466.65 L2201.57 1449.29 Z" fill="#000000" fill-rule="evenodd" fill-opacity="1" /><path clip-path="url(#clip110)" d="M 0 0 M1107.43 1520.52 L1147.63 1520.52 L1147.63 1525.93 L1130.76 1525.93 L1130.76 1568.04 L1124.3 1568.04 L1124.3 1525.93 L1107.43 1525.93 L1107.43 1520.52 Z" fill="#000000" fill-rule="evenodd" fill-opacity="1" /><path clip-path="url(#clip110)" d="M 0 0 M1151.58 1532.4 L1157.43 1532.4 L1157.43 1568.04 L1151.58 1568.04 L1151.58 1532.4 M1151.58 1518.52 L1157.43 1518.52 L1157.43 1525.93 L1151.58 1525.93 L1151.58 1518.52 Z" fill="#000000" fill-rule="evenodd" fill-opacity="1" /><path clip-path="url(#clip110)" d="M 0 0 M1197.44 1539.24 Q1199.64 1535.29 1202.69 1533.41 Q1205.75 1531.54 1209.89 1531.54 Q1215.46 1531.54 1218.48 1535.45 Q1221.5 1539.33 1221.5 1546.53 L1221.5 1568.04 L1215.62 1568.04 L1215.62 1546.72 Q1215.62 1541.59 1213.8 1539.11 Q1211.99 1536.63 1208.26 1536.63 Q1203.71 1536.63 1201.07 1539.65 Q1198.43 1542.68 1198.43 1547.9 L1198.43 1568.04 L1192.54 1568.04 L1192.54 1546.72 Q1192.54 1541.56 1190.73 1539.11 Q1188.91 1536.63 1185.12 1536.63 Q1180.64 1536.63 1177.99 1539.68 Q1175.35 1542.71 1175.35 1547.9 L1175.35 1568.04 L1169.46 1568.04 L1169.46 1532.4 L1175.35 1532.4 L1175.35 1537.93 Q1177.36 1534.66 1180.16 1533.1 Q1182.96 1531.54 1186.81 1531.54 Q1190.69 1531.54 1193.4 1533.51 Q1196.14 1535.48 1197.44 1539.24 Z" fill="#000000" fill-rule="evenodd" fill-opacity="1" /><path clip-path="url(#clip110)" d="M 0 0 M1263.68 1548.76 L1263.68 1551.62 L1236.75 1551.62 Q1237.13 1557.67 1240.38 1560.85 Q1243.66 1564 1249.48 1564 Q1252.85 1564 1256.01 1563.17 Q1259.19 1562.35 1262.31 1560.69 L1262.31 1566.23 Q1259.16 1567.57 1255.85 1568.27 Q1252.54 1568.97 1249.13 1568.97 Q1240.6 1568.97 1235.6 1564 Q1230.64 1559.04 1230.64 1550.57 Q1230.64 1541.82 1235.35 1536.69 Q1240.09 1531.54 1248.11 1531.54 Q1255.31 1531.54 1259.48 1536.18 Q1263.68 1540.8 1263.68 1548.76 M1257.82 1547.04 Q1257.76 1542.23 1255.11 1539.37 Q1252.5 1536.5 1248.18 1536.5 Q1243.27 1536.5 1240.31 1539.27 Q1237.39 1542.04 1236.94 1547.07 L1257.82 1547.04 Z" fill="#000000" fill-rule="evenodd" fill-opacity="1" /><path clip-path="url(#clip110)" d="M 0 0 M1293.47 1518.52 L1306.96 1518.52 L1306.96 1523.07 L1299.32 1523.07 L1299.32 1572.09 L1306.96 1572.09 L1306.96 1576.64 L1293.47 1576.64 L1293.47 1518.52 Z" fill="#000000" fill-rule="evenodd" fill-opacity="1" /><path clip-path="url(#clip110)" d="M 0 0 M1348.18 1522.08 L1348.18 1528.35 Q1344.52 1526.6 1341.27 1525.74 Q1338.03 1524.88 1335 1524.88 Q1329.75 1524.88 1326.89 1526.92 Q1324.06 1528.96 1324.06 1532.71 Q1324.06 1535.87 1325.93 1537.49 Q1327.84 1539.08 1333.13 1540.07 L1337.01 1540.86 Q1344.2 1542.23 1347.61 1545.7 Q1351.05 1549.14 1351.05 1554.93 Q1351.05 1561.84 1346.4 1565.4 Q1341.78 1568.97 1332.84 1568.97 Q1329.47 1568.97 1325.65 1568.2 Q1321.86 1567.44 1317.79 1565.94 L1317.79 1559.32 Q1321.7 1561.52 1325.46 1562.63 Q1329.21 1563.75 1332.84 1563.75 Q1338.35 1563.75 1341.34 1561.58 Q1344.33 1559.42 1344.33 1555.41 Q1344.33 1551.91 1342.17 1549.93 Q1340.03 1547.96 1335.13 1546.97 L1331.22 1546.21 Q1324.02 1544.78 1320.81 1541.72 Q1317.59 1538.67 1317.59 1533.22 Q1317.59 1526.92 1322.02 1523.29 Q1326.47 1519.66 1334.27 1519.66 Q1337.61 1519.66 1341.08 1520.27 Q1344.55 1520.87 1348.18 1522.08 Z" fill="#000000" fill-rule="evenodd" fill-opacity="1" /><path clip-path="url(#clip110)" d="M 0 0 M1391.31 1548.76 L1391.31 1551.62 L1364.38 1551.62 Q1364.76 1557.67 1368.01 1560.85 Q1371.29 1564 1377.11 1564 Q1380.49 1564 1383.64 1563.17 Q1386.82 1562.35 1389.94 1560.69 L1389.94 1566.23 Q1386.79 1567.57 1383.48 1568.27 Q1380.17 1568.97 1376.76 1568.97 Q1368.23 1568.97 1363.24 1564 Q1358.27 1559.04 1358.27 1550.57 Q1358.27 1541.82 1362.98 1536.69 Q1367.72 1531.54 1375.74 1531.54 Q1382.94 1531.54 1387.11 1536.18 Q1391.31 1540.8 1391.31 1548.76 M1385.45 1547.04 Q1385.39 1542.23 1382.75 1539.37 Q1380.14 1536.5 1375.81 1536.5 Q1370.91 1536.5 1367.95 1539.27 Q1365.02 1542.04 1364.57 1547.07 L1385.45 1547.04 Z" fill="#000000" fill-rule="evenodd" fill-opacity="1" /><path clip-path="url(#clip110)" d="M 0 0 M1426.58 1533.76 L1426.58 1539.24 Q1424.09 1537.87 1421.58 1537.2 Q1419.1 1536.5 1416.55 1536.5 Q1410.85 1536.5 1407.7 1540.13 Q1404.55 1543.73 1404.55 1550.25 Q1404.55 1556.78 1407.7 1560.4 Q1410.85 1564 1416.55 1564 Q1419.1 1564 1421.58 1563.33 Q1424.09 1562.63 1426.58 1561.26 L1426.58 1566.68 Q1424.12 1567.82 1421.48 1568.39 Q1418.87 1568.97 1415.91 1568.97 Q1407.86 1568.97 1403.12 1563.91 Q1398.38 1558.85 1398.38 1550.25 Q1398.38 1541.53 1403.15 1536.53 Q1407.96 1531.54 1416.29 1531.54 Q1419 1531.54 1421.58 1532.11 Q1424.16 1532.65 1426.58 1533.76 Z" fill="#000000" fill-rule="evenodd" fill-opacity="1" /><path clip-path="url(#clip110)" d="M 0 0 M1450.45 1518.52 L1450.45 1576.64 L1436.95 1576.64 L1436.95 1572.09 L1444.56 1572.09 L1444.56 1523.07 L1436.95 1523.07 L1436.95 1518.52 L1450.45 1518.52 Z" fill="#000000" fill-rule="evenodd" fill-opacity="1" /><polyline clip-path="url(#clip110)" style="stroke:#000000; stroke-width:4; stroke-opacity:1; fill:none" points="
  205.121,1423.18 205.121,1301.67 
  "/>
<path clip-path="url(#clip110)" d="M 0 0 M76.6285 1392.07 L94.4843 1392.07 L94.4843 1383.99 Q94.4843 1379.5 92.1608 1377.05 Q89.8374 1374.6 85.5405 1374.6 Q81.2755 1374.6 78.952 1377.05 Q76.6285 1379.5 76.6285 1383.99 L76.6285 1392.07 M71.345 1398.5 L71.345 1383.99 Q71.345 1376 74.9734 1371.92 Q78.5701 1367.82 85.5405 1367.82 Q92.5746 1367.82 96.1712 1371.92 Q99.7679 1376 99.7679 1383.99 L99.7679 1392.07 L118.865 1392.07 L118.865 1398.5 L71.345 1398.5 Z" fill="#000000" fill-rule="evenodd" fill-opacity="1" /><path clip-path="url(#clip110)" d="M 0 0 M73.0955 1353.65 L83.217 1353.65 L83.217 1341.59 L87.7685 1341.59 L87.7685 1353.65 L107.12 1353.65 Q111.481 1353.65 112.722 1352.48 Q113.963 1351.27 113.963 1347.61 L113.963 1341.59 L118.865 1341.59 L118.865 1347.61 Q118.865 1354.39 116.351 1356.96 Q113.804 1359.54 107.12 1359.54 L87.7685 1359.54 L87.7685 1363.84 L83.217 1363.84 L83.217 1359.54 L73.0955 1359.54 L73.0955 1353.65 Z" fill="#000000" fill-rule="evenodd" fill-opacity="1" /><path clip-path="url(#clip110)" d="M 0 0 M110.781 1333.06 L110.781 1326.35 L118.865 1326.35 L118.865 1333.06 L110.781 1333.06 Z" fill="#000000" fill-rule="evenodd" fill-opacity="1" /><polyline clip-path="url(#clip113)" style="stroke:#009af9; stroke-width:4; stroke-opacity:1; fill:none" points="
  313.078,1544.69 313.078,1180.15 
  "/>
<polyline clip-path="url(#clip113)" style="stroke:#009af9; stroke-width:4; stroke-opacity:1; fill:none" points="
  368.944,1544.69 368.944,1180.15 
  "/>
<polyline clip-path="url(#clip113)" style="stroke:#009af9; stroke-width:4; stroke-opacity:1; fill:none" points="
  417.361,1544.69 417.361,1180.15 
  "/>
<polyline clip-path="url(#clip113)" style="stroke:#009af9; stroke-width:4; stroke-opacity:1; fill:none" points="
  478.192,1544.69 478.192,1180.15 
  "/>
<polyline clip-path="url(#clip113)" style="stroke:#009af9; stroke-width:4; stroke-opacity:1; fill:none" points="
  532.816,1544.69 532.816,1180.15 
  "/>
<polyline clip-path="url(#clip113)" style="stroke:#009af9; stroke-width:4; stroke-opacity:1; fill:none" points="
  578.75,1544.69 578.75,1180.15 
  "/>
<polyline clip-path="url(#clip113)" style="stroke:#009af9; stroke-width:4; stroke-opacity:1; fill:none" points="
  597.372,1544.69 597.372,1180.15 
  "/>
<polyline clip-path="url(#clip113)" style="stroke:#009af9; stroke-width:4; stroke-opacity:1; fill:none" points="
  625.926,1544.69 625.926,1180.15 
  "/>
<polyline clip-path="url(#clip113)" style="stroke:#009af9; stroke-width:4; stroke-opacity:1; fill:none" points="
  654.479,1544.69 654.479,1180.15 
  "/>
<polyline clip-path="url(#clip113)" style="stroke:#009af9; stroke-width:4; stroke-opacity:1; fill:none" points="
  681.791,1544.69 681.791,1180.15 
  "/>
<polyline clip-path="url(#clip113)" style="stroke:#009af9; stroke-width:4; stroke-opacity:1; fill:none" points="
  719.035,1544.69 719.035,1180.15 
  "/>
<polyline clip-path="url(#clip113)" style="stroke:#009af9; stroke-width:4; stroke-opacity:1; fill:none" points="
  755.037,1544.69 755.037,1180.15 
  "/>
<polyline clip-path="url(#clip113)" style="stroke:#009af9; stroke-width:4; stroke-opacity:1; fill:none" points="
  808.42,1544.69 808.42,1180.15 
  "/>
<polyline clip-path="url(#clip113)" style="stroke:#009af9; stroke-width:4; stroke-opacity:1; fill:none" points="
  860.561,1544.69 860.561,1180.15 
  "/>
<polyline clip-path="url(#clip113)" style="stroke:#009af9; stroke-width:4; stroke-opacity:1; fill:none" points="
  907.737,1544.69 907.737,1180.15 
  "/>
<polyline clip-path="url(#clip113)" style="stroke:#009af9; stroke-width:4; stroke-opacity:1; fill:none" points="
  976.017,1544.69 976.017,1180.15 
  "/>
<polyline clip-path="url(#clip113)" style="stroke:#009af9; stroke-width:4; stroke-opacity:1; fill:none" points="
  1038.09,1544.69 1038.09,1180.15 
  "/>
<polyline clip-path="url(#clip113)" style="stroke:#009af9; stroke-width:4; stroke-opacity:1; fill:none" points="
  1082.78,1544.69 1082.78,1180.15 
  "/>
<polyline clip-path="url(#clip113)" style="stroke:#009af9; stroke-width:4; stroke-opacity:1; fill:none" points="
  1126.23,1544.69 1126.23,1180.15 
  "/>
<polyline clip-path="url(#clip113)" style="stroke:#009af9; stroke-width:4; stroke-opacity:1; fill:none" points="
  1168.44,1544.69 1168.44,1180.15 
  "/>
<polyline clip-path="url(#clip113)" style="stroke:#009af9; stroke-width:4; stroke-opacity:1; fill:none" points="
  1195.75,1544.69 1195.75,1180.15 
  "/>
<polyline clip-path="url(#clip113)" style="stroke:#009af9; stroke-width:4; stroke-opacity:1; fill:none" points="
  1223.07,1544.69 1223.07,1180.15 
  "/>
<polyline clip-path="url(#clip113)" style="stroke:#009af9; stroke-width:4; stroke-opacity:1; fill:none" points="
  1251.62,1544.69 1251.62,1180.15 
  "/>
<polyline clip-path="url(#clip113)" style="stroke:#009af9; stroke-width:4; stroke-opacity:1; fill:none" points="
  1280.17,1544.69 1280.17,1180.15 
  "/>
<polyline clip-path="url(#clip113)" style="stroke:#009af9; stroke-width:4; stroke-opacity:1; fill:none" points="
  1314.93,1544.69 1314.93,1180.15 
  "/>
<polyline clip-path="url(#clip113)" style="stroke:#009af9; stroke-width:4; stroke-opacity:1; fill:none" points="
  1352.18,1544.69 1352.18,1180.15 
  "/>
<polyline clip-path="url(#clip113)" style="stroke:#009af9; stroke-width:4; stroke-opacity:1; fill:none" points="
  1410.53,1544.69 1410.53,1180.15 
  "/>
<polyline clip-path="url(#clip113)" style="stroke:#009af9; stroke-width:4; stroke-opacity:1; fill:none" points="
  1483.77,1544.69 1483.77,1180.15 
  "/>
<polyline clip-path="url(#clip113)" style="stroke:#009af9; stroke-width:4; stroke-opacity:1; fill:none" points="
  1569.43,1544.69 1569.43,1180.15 
  "/>
<polyline clip-path="url(#clip113)" style="stroke:#009af9; stroke-width:4; stroke-opacity:1; fill:none" points="
  1677.45,1544.69 1677.45,1180.15 
  "/>
<polyline clip-path="url(#clip113)" style="stroke:#009af9; stroke-width:4; stroke-opacity:1; fill:none" points="
  1872.36,1544.69 1872.36,1180.15 
  "/>
<polyline clip-path="url(#clip113)" style="stroke:#009af9; stroke-width:4; stroke-opacity:1; fill:none" points="
  1951.81,1544.69 1951.81,1180.15 
  "/>
<polyline clip-path="url(#clip113)" style="stroke:#009af9; stroke-width:4; stroke-opacity:1; fill:none" points="
  2074.72,1544.69 2074.72,1180.15 
  "/>
<polyline clip-path="url(#clip113)" style="stroke:#009af9; stroke-width:4; stroke-opacity:1; fill:none" points="
  2136.79,1544.69 2136.79,1180.15 
  "/>
<polyline clip-path="url(#clip113)" style="stroke:#009af9; stroke-width:4; stroke-opacity:1; fill:none" points="
  2179,1544.69 2179,1180.15 
  "/>
<polyline clip-path="url(#clip113)" style="stroke:#009af9; stroke-width:4; stroke-opacity:1; fill:none" points="
  2207.55,1544.69 2207.55,1180.15 
  "/>
<polyline clip-path="url(#clip113)" style="stroke:#009af9; stroke-width:4; stroke-opacity:1; fill:none" points="
  2236.11,1544.69 2236.11,1180.15 
  "/>
<polyline clip-path="url(#clip113)" style="stroke:#009af9; stroke-width:4; stroke-opacity:1; fill:none" points="
  2264.66,1544.69 2264.66,1180.15 
  "/>
<polyline clip-path="url(#clip113)" style="stroke:#009af9; stroke-width:4; stroke-opacity:1; fill:none" points="
  2291.97,1544.69 2291.97,1180.15 
  "/>
</svg>
